<svg xmlns="http://www.w3.org/2000/svg" width="960" height="540">
<rect width="100%" height="100%" fill="#ffffff"/>
<text x="480.0" y="30" font-size="22" text-anchor="middle" fill="#111111">Character Accuracy</text>
<text x="20" y="270.0" font-size="16" transform="rotate(-90 20,270.0)" text-anchor="middle" fill="#333333">Accuracy</text>
<text x="480.0" y="520" font-size="16" text-anchor="middle" fill="#333333">Epoch</text>
<line x1="90" y1="60" x2="90" y2="470" stroke="#333333" stroke-width="2"/>
<line x1="90" y1="470" x2="930" y2="470" stroke="#333333" stroke-width="2"/>
<line x1="90" y1="470.00" x2="930" y2="470.00" stroke="#e5e7eb" stroke-width="1"/>
<text x="80" y="475.00" font-size="12" text-anchor="end" fill="#555555">-0.0688</text>
<line x1="90" y1="367.50" x2="930" y2="367.50" stroke="#e5e7eb" stroke-width="1"/>
<text x="80" y="372.50" font-size="12" text-anchor="end" fill="#555555">0.2189</text>
<line x1="90" y1="265.00" x2="930" y2="265.00" stroke="#e5e7eb" stroke-width="1"/>
<text x="80" y="270.00" font-size="12" text-anchor="end" fill="#555555">0.5065</text>
<line x1="90" y1="162.50" x2="930" y2="162.50" stroke="#e5e7eb" stroke-width="1"/>
<text x="80" y="167.50" font-size="12" text-anchor="end" fill="#555555">0.7942</text>
<line x1="90" y1="60.00" x2="930" y2="60.00" stroke="#e5e7eb" stroke-width="1"/>
<text x="80" y="65.00" font-size="12" text-anchor="end" fill="#555555">1.0819</text>
<line x1="90.00" y1="60" x2="90.00" y2="470" stroke="#f3f4f6" stroke-width="1"/>
<text x="90.00" y="492" font-size="12" text-anchor="middle" fill="#555555">1</text>
<line x1="107.14" y1="60" x2="107.14" y2="470" stroke="#f3f4f6" stroke-width="1"/>
<text x="107.14" y="492" font-size="12" text-anchor="middle" fill="#555555">2</text>
<line x1="124.29" y1="60" x2="124.29" y2="470" stroke="#f3f4f6" stroke-width="1"/>
<text x="124.29" y="492" font-size="12" text-anchor="middle" fill="#555555">3</text>
<line x1="141.43" y1="60" x2="141.43" y2="470" stroke="#f3f4f6" stroke-width="1"/>
<text x="141.43" y="492" font-size="12" text-anchor="middle" fill="#555555">4</text>
<line x1="158.57" y1="60" x2="158.57" y2="470" stroke="#f3f4f6" stroke-width="1"/>
<text x="158.57" y="492" font-size="12" text-anchor="middle" fill="#555555">5</text>
<line x1="175.71" y1="60" x2="175.71" y2="470" stroke="#f3f4f6" stroke-width="1"/>
<text x="175.71" y="492" font-size="12" text-anchor="middle" fill="#555555">6</text>
<line x1="192.86" y1="60" x2="192.86" y2="470" stroke="#f3f4f6" stroke-width="1"/>
<text x="192.86" y="492" font-size="12" text-anchor="middle" fill="#555555">7</text>
<line x1="210.00" y1="60" x2="210.00" y2="470" stroke="#f3f4f6" stroke-width="1"/>
<text x="210.00" y="492" font-size="12" text-anchor="middle" fill="#555555">8</text>
<line x1="227.14" y1="60" x2="227.14" y2="470" stroke="#f3f4f6" stroke-width="1"/>
<text x="227.14" y="492" font-size="12" text-anchor="middle" fill="#555555">9</text>
<line x1="244.29" y1="60" x2="244.29" y2="470" stroke="#f3f4f6" stroke-width="1"/>
<text x="244.29" y="492" font-size="12" text-anchor="middle" fill="#555555">10</text>
<line x1="261.43" y1="60" x2="261.43" y2="470" stroke="#f3f4f6" stroke-width="1"/>
<text x="261.43" y="492" font-size="12" text-anchor="middle" fill="#555555">11</text>
<line x1="278.57" y1="60" x2="278.57" y2="470" stroke="#f3f4f6" stroke-width="1"/>
<text x="278.57" y="492" font-size="12" text-anchor="middle" fill="#555555">12</text>
<line x1="295.71" y1="60" x2="295.71" y2="470" stroke="#f3f4f6" stroke-width="1"/>
<text x="295.71" y="492" font-size="12" text-anchor="middle" fill="#555555">13</text>
<line x1="312.86" y1="60" x2="312.86" y2="470" stroke="#f3f4f6" stroke-width="1"/>
<text x="312.86" y="492" font-size="12" text-anchor="middle" fill="#555555">14</text>
<line x1="330.00" y1="60" x2="330.00" y2="470" stroke="#f3f4f6" stroke-width="1"/>
<text x="330.00" y="492" font-size="12" text-anchor="middle" fill="#555555">15</text>
<line x1="347.14" y1="60" x2="347.14" y2="470" stroke="#f3f4f6" stroke-width="1"/>
<text x="347.14" y="492" font-size="12" text-anchor="middle" fill="#555555">16</text>
<line x1="364.29" y1="60" x2="364.29" y2="470" stroke="#f3f4f6" stroke-width="1"/>
<text x="364.29" y="492" font-size="12" text-anchor="middle" fill="#555555">17</text>
<line x1="381.43" y1="60" x2="381.43" y2="470" stroke="#f3f4f6" stroke-width="1"/>
<text x="381.43" y="492" font-size="12" text-anchor="middle" fill="#555555">18</text>
<line x1="398.57" y1="60" x2="398.57" y2="470" stroke="#f3f4f6" stroke-width="1"/>
<text x="398.57" y="492" font-size="12" text-anchor="middle" fill="#555555">19</text>
<line x1="415.71" y1="60" x2="415.71" y2="470" stroke="#f3f4f6" stroke-width="1"/>
<text x="415.71" y="492" font-size="12" text-anchor="middle" fill="#555555">20</text>
<line x1="432.86" y1="60" x2="432.86" y2="470" stroke="#f3f4f6" stroke-width="1"/>
<text x="432.86" y="492" font-size="12" text-anchor="middle" fill="#555555">21</text>
<line x1="450.00" y1="60" x2="450.00" y2="470" stroke="#f3f4f6" stroke-width="1"/>
<text x="450.00" y="492" font-size="12" text-anchor="middle" fill="#555555">22</text>
<line x1="467.14" y1="60" x2="467.14" y2="470" stroke="#f3f4f6" stroke-width="1"/>
<text x="467.14" y="492" font-size="12" text-anchor="middle" fill="#555555">23</text>
<line x1="484.29" y1="60" x2="484.29" y2="470" stroke="#f3f4f6" stroke-width="1"/>
<text x="484.29" y="492" font-size="12" text-anchor="middle" fill="#555555">24</text>
<line x1="501.43" y1="60" x2="501.43" y2="470" stroke="#f3f4f6" stroke-width="1"/>
<text x="501.43" y="492" font-size="12" text-anchor="middle" fill="#555555">25</text>
<line x1="518.57" y1="60" x2="518.57" y2="470" stroke="#f3f4f6" stroke-width="1"/>
<text x="518.57" y="492" font-size="12" text-anchor="middle" fill="#555555">26</text>
<line x1="535.71" y1="60" x2="535.71" y2="470" stroke="#f3f4f6" stroke-width="1"/>
<text x="535.71" y="492" font-size="12" text-anchor="middle" fill="#555555">27</text>
<line x1="552.86" y1="60" x2="552.86" y2="470" stroke="#f3f4f6" stroke-width="1"/>
<text x="552.86" y="492" font-size="12" text-anchor="middle" fill="#555555">28</text>
<line x1="570.00" y1="60" x2="570.00" y2="470" stroke="#f3f4f6" stroke-width="1"/>
<text x="570.00" y="492" font-size="12" text-anchor="middle" fill="#555555">29</text>
<line x1="587.14" y1="60" x2="587.14" y2="470" stroke="#f3f4f6" stroke-width="1"/>
<text x="587.14" y="492" font-size="12" text-anchor="middle" fill="#555555">30</text>
<line x1="604.29" y1="60" x2="604.29" y2="470" stroke="#f3f4f6" stroke-width="1"/>
<text x="604.29" y="492" font-size="12" text-anchor="middle" fill="#555555">31</text>
<line x1="621.43" y1="60" x2="621.43" y2="470" stroke="#f3f4f6" stroke-width="1"/>
<text x="621.43" y="492" font-size="12" text-anchor="middle" fill="#555555">32</text>
<line x1="638.57" y1="60" x2="638.57" y2="470" stroke="#f3f4f6" stroke-width="1"/>
<text x="638.57" y="492" font-size="12" text-anchor="middle" fill="#555555">33</text>
<line x1="655.71" y1="60" x2="655.71" y2="470" stroke="#f3f4f6" stroke-width="1"/>
<text x="655.71" y="492" font-size="12" text-anchor="middle" fill="#555555">34</text>
<line x1="672.86" y1="60" x2="672.86" y2="470" stroke="#f3f4f6" stroke-width="1"/>
<text x="672.86" y="492" font-size="12" text-anchor="middle" fill="#555555">35</text>
<line x1="690.00" y1="60" x2="690.00" y2="470" stroke="#f3f4f6" stroke-width="1"/>
<text x="690.00" y="492" font-size="12" text-anchor="middle" fill="#555555">36</text>
<line x1="707.14" y1="60" x2="707.14" y2="470" stroke="#f3f4f6" stroke-width="1"/>
<text x="707.14" y="492" font-size="12" text-anchor="middle" fill="#555555">37</text>
<line x1="724.29" y1="60" x2="724.29" y2="470" stroke="#f3f4f6" stroke-width="1"/>
<text x="724.29" y="492" font-size="12" text-anchor="middle" fill="#555555">38</text>
<line x1="741.43" y1="60" x2="741.43" y2="470" stroke="#f3f4f6" stroke-width="1"/>
<text x="741.43" y="492" font-size="12" text-anchor="middle" fill="#555555">39</text>
<line x1="758.57" y1="60" x2="758.57" y2="470" stroke="#f3f4f6" stroke-width="1"/>
<text x="758.57" y="492" font-size="12" text-anchor="middle" fill="#555555">40</text>
<line x1="775.71" y1="60" x2="775.71" y2="470" stroke="#f3f4f6" stroke-width="1"/>
<text x="775.71" y="492" font-size="12" text-anchor="middle" fill="#555555">41</text>
<line x1="792.86" y1="60" x2="792.86" y2="470" stroke="#f3f4f6" stroke-width="1"/>
<text x="792.86" y="492" font-size="12" text-anchor="middle" fill="#555555">42</text>
<line x1="810.00" y1="60" x2="810.00" y2="470" stroke="#f3f4f6" stroke-width="1"/>
<text x="810.00" y="492" font-size="12" text-anchor="middle" fill="#555555">43</text>
<line x1="827.14" y1="60" x2="827.14" y2="470" stroke="#f3f4f6" stroke-width="1"/>
<text x="827.14" y="492" font-size="12" text-anchor="middle" fill="#555555">44</text>
<line x1="844.29" y1="60" x2="844.29" y2="470" stroke="#f3f4f6" stroke-width="1"/>
<text x="844.29" y="492" font-size="12" text-anchor="middle" fill="#555555">45</text>
<line x1="861.43" y1="60" x2="861.43" y2="470" stroke="#f3f4f6" stroke-width="1"/>
<text x="861.43" y="492" font-size="12" text-anchor="middle" fill="#555555">46</text>
<line x1="878.57" y1="60" x2="878.57" y2="470" stroke="#f3f4f6" stroke-width="1"/>
<text x="878.57" y="492" font-size="12" text-anchor="middle" fill="#555555">47</text>
<line x1="895.71" y1="60" x2="895.71" y2="470" stroke="#f3f4f6" stroke-width="1"/>
<text x="895.71" y="492" font-size="12" text-anchor="middle" fill="#555555">48</text>
<line x1="912.86" y1="60" x2="912.86" y2="470" stroke="#f3f4f6" stroke-width="1"/>
<text x="912.86" y="492" font-size="12" text-anchor="middle" fill="#555555">49</text>
<line x1="930.00" y1="60" x2="930.00" y2="470" stroke="#f3f4f6" stroke-width="1"/>
<text x="930.00" y="492" font-size="12" text-anchor="middle" fill="#555555">50</text>
<polyline fill="none" stroke="#d97706" stroke-width="3" points="90.00,435.78 107.14,435.33 124.29,107.53 141.43,109.69 158.57,104.90 175.71,100.12 192.86,100.82 210.00,100.62 227.14,100.87 244.29,100.03 261.43,102.21 278.57,100.10 295.71,100.13 312.86,99.74 330.00,99.80 347.14,100.05 364.29,99.63 381.43,99.91 398.57,101.66 415.71,99.59 432.86,99.79 450.00,96.78 467.14,99.80 484.29,99.05 501.43,100.12 518.57,98.77 535.71,99.79 552.86,98.76 570.00,98.87 587.14,97.37 604.29,97.34 621.43,98.86 638.57,97.44 655.71,105.17 672.86,96.17 690.00,97.20 707.14,97.05 724.29,95.70 741.43,96.02 758.57,97.97 775.71,96.11 792.86,94.65 810.00,107.27 827.14,98.24 844.29,95.48 861.43,94.40 878.57,96.29 895.71,95.67 912.86,94.17 930.00,95.48"/>
<circle cx="90.00" cy="435.78" r="4.5" fill="#d97706" fill-opacity="0.9"/>
<circle cx="107.14" cy="435.33" r="4.5" fill="#d97706" fill-opacity="0.9"/>
<circle cx="124.29" cy="107.53" r="4.5" fill="#d97706" fill-opacity="0.9"/>
<circle cx="141.43" cy="109.69" r="4.5" fill="#d97706" fill-opacity="0.9"/>
<circle cx="158.57" cy="104.90" r="4.5" fill="#d97706" fill-opacity="0.9"/>
<circle cx="175.71" cy="100.12" r="4.5" fill="#d97706" fill-opacity="0.9"/>
<circle cx="192.86" cy="100.82" r="4.5" fill="#d97706" fill-opacity="0.9"/>
<circle cx="210.00" cy="100.62" r="4.5" fill="#d97706" fill-opacity="0.9"/>
<circle cx="227.14" cy="100.87" r="4.5" fill="#d97706" fill-opacity="0.9"/>
<circle cx="244.29" cy="100.03" r="4.5" fill="#d97706" fill-opacity="0.9"/>
<circle cx="261.43" cy="102.21" r="4.5" fill="#d97706" fill-opacity="0.9"/>
<circle cx="278.57" cy="100.10" r="4.5" fill="#d97706" fill-opacity="0.9"/>
<circle cx="295.71" cy="100.13" r="4.5" fill="#d97706" fill-opacity="0.9"/>
<circle cx="312.86" cy="99.74" r="4.5" fill="#d97706" fill-opacity="0.9"/>
<circle cx="330.00" cy="99.80" r="4.5" fill="#d97706" fill-opacity="0.9"/>
<circle cx="347.14" cy="100.05" r="4.5" fill="#d97706" fill-opacity="0.9"/>
<circle cx="364.29" cy="99.63" r="4.5" fill="#d97706" fill-opacity="0.9"/>
<circle cx="381.43" cy="99.91" r="4.5" fill="#d97706" fill-opacity="0.9"/>
<circle cx="398.57" cy="101.66" r="4.5" fill="#d97706" fill-opacity="0.9"/>
<circle cx="415.71" cy="99.59" r="4.5" fill="#d97706" fill-opacity="0.9"/>
<circle cx="432.86" cy="99.79" r="4.5" fill="#d97706" fill-opacity="0.9"/>
<circle cx="450.00" cy="96.78" r="4.5" fill="#d97706" fill-opacity="0.9"/>
<circle cx="467.14" cy="99.80" r="4.5" fill="#d97706" fill-opacity="0.9"/>
<circle cx="484.29" cy="99.05" r="4.5" fill="#d97706" fill-opacity="0.9"/>
<circle cx="501.43" cy="100.12" r="4.5" fill="#d97706" fill-opacity="0.9"/>
<circle cx="518.57" cy="98.77" r="4.5" fill="#d97706" fill-opacity="0.9"/>
<circle cx="535.71" cy="99.79" r="4.5" fill="#d97706" fill-opacity="0.9"/>
<circle cx="552.86" cy="98.76" r="4.5" fill="#d97706" fill-opacity="0.9"/>
<circle cx="570.00" cy="98.87" r="4.5" fill="#d97706" fill-opacity="0.9"/>
<circle cx="587.14" cy="97.37" r="4.5" fill="#d97706" fill-opacity="0.9"/>
<circle cx="604.29" cy="97.34" r="4.5" fill="#d97706" fill-opacity="0.9"/>
<circle cx="621.43" cy="98.86" r="4.5" fill="#d97706" fill-opacity="0.9"/>
<circle cx="638.57" cy="97.44" r="4.5" fill="#d97706" fill-opacity="0.9"/>
<circle cx="655.71" cy="105.17" r="4.5" fill="#d97706" fill-opacity="0.9"/>
<circle cx="672.86" cy="96.17" r="4.5" fill="#d97706" fill-opacity="0.9"/>
<circle cx="690.00" cy="97.20" r="4.5" fill="#d97706" fill-opacity="0.9"/>
<circle cx="707.14" cy="97.05" r="4.5" fill="#d97706" fill-opacity="0.9"/>
<circle cx="724.29" cy="95.70" r="4.5" fill="#d97706" fill-opacity="0.9"/>
<circle cx="741.43" cy="96.02" r="4.5" fill="#d97706" fill-opacity="0.9"/>
<circle cx="758.57" cy="97.97" r="4.5" fill="#d97706" fill-opacity="0.9"/>
<circle cx="775.71" cy="96.11" r="4.5" fill="#d97706" fill-opacity="0.9"/>
<circle cx="792.86" cy="94.65" r="4.5" fill="#d97706" fill-opacity="0.9"/>
<circle cx="810.00" cy="107.27" r="4.5" fill="#d97706" fill-opacity="0.9"/>
<circle cx="827.14" cy="98.24" r="4.5" fill="#d97706" fill-opacity="0.9"/>
<circle cx="844.29" cy="95.48" r="4.5" fill="#d97706" fill-opacity="0.9"/>
<circle cx="861.43" cy="94.40" r="4.5" fill="#d97706" fill-opacity="0.9"/>
<circle cx="878.57" cy="96.29" r="4.5" fill="#d97706" fill-opacity="0.9"/>
<circle cx="895.71" cy="95.67" r="4.5" fill="#d97706" fill-opacity="0.9"/>
<circle cx="912.86" cy="94.17" r="4.5" fill="#d97706" fill-opacity="0.9"/>
<circle cx="930.00" cy="95.48" r="4.5" fill="#d97706" fill-opacity="0.9"/>
<rect x="90" y="32" width="18" height="6" fill="#d97706"/>
<text x="114" y="38" font-size="13" fill="#333333">val</text>
<polyline fill="none" stroke="#059669" stroke-width="3" points="90.00,435.83 107.14,435.36 124.29,107.37 141.43,110.38 158.57,105.53 175.71,100.57 192.86,101.21 210.00,101.08 227.14,101.33 244.29,100.49 261.43,102.71 278.57,100.49 295.71,100.62 312.86,100.24 330.00,100.33 347.14,100.49 364.29,100.07 381.43,100.26 398.57,102.45 415.71,100.01 432.86,100.16 450.00,97.24 467.14,100.14 484.29,99.22 501.43,100.63 518.57,99.35 535.71,100.03 552.86,99.05 570.00,99.22 587.14,97.85 604.29,97.80 621.43,99.09 638.57,97.62 655.71,105.04 672.86,96.73 690.00,97.72 707.14,97.59 724.29,95.81 741.43,96.22 758.57,98.26 775.71,96.29 792.86,94.51 810.00,107.25 827.14,98.54 844.29,95.68 861.43,94.49 878.57,96.70 895.71,96.01 912.86,94.23 930.00,95.61"/>
<circle cx="90.00" cy="435.83" r="4.5" fill="#059669" fill-opacity="0.9"/>
<circle cx="107.14" cy="435.36" r="4.5" fill="#059669" fill-opacity="0.9"/>
<circle cx="124.29" cy="107.37" r="4.5" fill="#059669" fill-opacity="0.9"/>
<circle cx="141.43" cy="110.38" r="4.5" fill="#059669" fill-opacity="0.9"/>
<circle cx="158.57" cy="105.53" r="4.5" fill="#059669" fill-opacity="0.9"/>
<circle cx="175.71" cy="100.57" r="4.5" fill="#059669" fill-opacity="0.9"/>
<circle cx="192.86" cy="101.21" r="4.5" fill="#059669" fill-opacity="0.9"/>
<circle cx="210.00" cy="101.08" r="4.5" fill="#059669" fill-opacity="0.9"/>
<circle cx="227.14" cy="101.33" r="4.5" fill="#059669" fill-opacity="0.9"/>
<circle cx="244.29" cy="100.49" r="4.5" fill="#059669" fill-opacity="0.9"/>
<circle cx="261.43" cy="102.71" r="4.5" fill="#059669" fill-opacity="0.9"/>
<circle cx="278.57" cy="100.49" r="4.5" fill="#059669" fill-opacity="0.9"/>
<circle cx="295.71" cy="100.62" r="4.5" fill="#059669" fill-opacity="0.9"/>
<circle cx="312.86" cy="100.24" r="4.5" fill="#059669" fill-opacity="0.9"/>
<circle cx="330.00" cy="100.33" r="4.5" fill="#059669" fill-opacity="0.9"/>
<circle cx="347.14" cy="100.49" r="4.5" fill="#059669" fill-opacity="0.9"/>
<circle cx="364.29" cy="100.07" r="4.5" fill="#059669" fill-opacity="0.9"/>
<circle cx="381.43" cy="100.26" r="4.5" fill="#059669" fill-opacity="0.9"/>
<circle cx="398.57" cy="102.45" r="4.5" fill="#059669" fill-opacity="0.9"/>
<circle cx="415.71" cy="100.01" r="4.5" fill="#059669" fill-opacity="0.9"/>
<circle cx="432.86" cy="100.16" r="4.5" fill="#059669" fill-opacity="0.9"/>
<circle cx="450.00" cy="97.24" r="4.5" fill="#059669" fill-opacity="0.9"/>
<circle cx="467.14" cy="100.14" r="4.5" fill="#059669" fill-opacity="0.9"/>
<circle cx="484.29" cy="99.22" r="4.5" fill="#059669" fill-opacity="0.9"/>
<circle cx="501.43" cy="100.63" r="4.5" fill="#059669" fill-opacity="0.9"/>
<circle cx="518.57" cy="99.35" r="4.5" fill="#059669" fill-opacity="0.9"/>
<circle cx="535.71" cy="100.03" r="4.5" fill="#059669" fill-opacity="0.9"/>
<circle cx="552.86" cy="99.05" r="4.5" fill="#059669" fill-opacity="0.9"/>
<circle cx="570.00" cy="99.22" r="4.5" fill="#059669" fill-opacity="0.9"/>
<circle cx="587.14" cy="97.85" r="4.5" fill="#059669" fill-opacity="0.9"/>
<circle cx="604.29" cy="97.80" r="4.5" fill="#059669" fill-opacity="0.9"/>
<circle cx="621.43" cy="99.09" r="4.5" fill="#059669" fill-opacity="0.9"/>
<circle cx="638.57" cy="97.62" r="4.5" fill="#059669" fill-opacity="0.9"/>
<circle cx="655.71" cy="105.04" r="4.5" fill="#059669" fill-opacity="0.9"/>
<circle cx="672.86" cy="96.73" r="4.5" fill="#059669" fill-opacity="0.9"/>
<circle cx="690.00" cy="97.72" r="4.5" fill="#059669" fill-opacity="0.9"/>
<circle cx="707.14" cy="97.59" r="4.5" fill="#059669" fill-opacity="0.9"/>
<circle cx="724.29" cy="95.81" r="4.5" fill="#059669" fill-opacity="0.9"/>
<circle cx="741.43" cy="96.22" r="4.5" fill="#059669" fill-opacity="0.9"/>
<circle cx="758.57" cy="98.26" r="4.5" fill="#059669" fill-opacity="0.9"/>
<circle cx="775.71" cy="96.29" r="4.5" fill="#059669" fill-opacity="0.9"/>
<circle cx="792.86" cy="94.51" r="4.5" fill="#059669" fill-opacity="0.9"/>
<circle cx="810.00" cy="107.25" r="4.5" fill="#059669" fill-opacity="0.9"/>
<circle cx="827.14" cy="98.54" r="4.5" fill="#059669" fill-opacity="0.9"/>
<circle cx="844.29" cy="95.68" r="4.5" fill="#059669" fill-opacity="0.9"/>
<circle cx="861.43" cy="94.49" r="4.5" fill="#059669" fill-opacity="0.9"/>
<circle cx="878.57" cy="96.70" r="4.5" fill="#059669" fill-opacity="0.9"/>
<circle cx="895.71" cy="96.01" r="4.5" fill="#059669" fill-opacity="0.9"/>
<circle cx="912.86" cy="94.23" r="4.5" fill="#059669" fill-opacity="0.9"/>
<circle cx="930.00" cy="95.61" r="4.5" fill="#059669" fill-opacity="0.9"/>
<rect x="270" y="32" width="18" height="6" fill="#059669"/>
<text x="294" y="38" font-size="13" fill="#333333">test</text>
</svg>