<svg xmlns="http://www.w3.org/2000/svg" width="960" height="540">
<rect width="100%" height="100%" fill="#ffffff"/>
<text x="480.0" y="30" font-size="22" text-anchor="middle" fill="#111111">Consistency Loss</text>
<text x="20" y="270.0" font-size="16" transform="rotate(-90 20,270.0)" text-anchor="middle" fill="#333333">Loss</text>
<text x="480.0" y="520" font-size="16" text-anchor="middle" fill="#333333">Epoch</text>
<line x1="90" y1="60" x2="90" y2="470" stroke="#333333" stroke-width="2"/>
<line x1="90" y1="470" x2="930" y2="470" stroke="#333333" stroke-width="2"/>
<line x1="90" y1="470.00" x2="930" y2="470.00" stroke="#e5e7eb" stroke-width="1"/>
<text x="80" y="475.00" font-size="12" text-anchor="end" fill="#555555">-0.0197</text>
<line x1="90" y1="367.50" x2="930" y2="367.50" stroke="#e5e7eb" stroke-width="1"/>
<text x="80" y="372.50" font-size="12" text-anchor="end" fill="#555555">0.1600</text>
<line x1="90" y1="265.00" x2="930" y2="265.00" stroke="#e5e7eb" stroke-width="1"/>
<text x="80" y="270.00" font-size="12" text-anchor="end" fill="#555555">0.3397</text>
<line x1="90" y1="162.50" x2="930" y2="162.50" stroke="#e5e7eb" stroke-width="1"/>
<text x="80" y="167.50" font-size="12" text-anchor="end" fill="#555555">0.5194</text>
<line x1="90" y1="60.00" x2="930" y2="60.00" stroke="#e5e7eb" stroke-width="1"/>
<text x="80" y="65.00" font-size="12" text-anchor="end" fill="#555555">0.6991</text>
<line x1="90.00" y1="60" x2="90.00" y2="470" stroke="#f3f4f6" stroke-width="1"/>
<text x="90.00" y="492" font-size="12" text-anchor="middle" fill="#555555">1</text>
<line x1="107.14" y1="60" x2="107.14" y2="470" stroke="#f3f4f6" stroke-width="1"/>
<text x="107.14" y="492" font-size="12" text-anchor="middle" fill="#555555">2</text>
<line x1="124.29" y1="60" x2="124.29" y2="470" stroke="#f3f4f6" stroke-width="1"/>
<text x="124.29" y="492" font-size="12" text-anchor="middle" fill="#555555">3</text>
<line x1="141.43" y1="60" x2="141.43" y2="470" stroke="#f3f4f6" stroke-width="1"/>
<text x="141.43" y="492" font-size="12" text-anchor="middle" fill="#555555">4</text>
<line x1="158.57" y1="60" x2="158.57" y2="470" stroke="#f3f4f6" stroke-width="1"/>
<text x="158.57" y="492" font-size="12" text-anchor="middle" fill="#555555">5</text>
<line x1="175.71" y1="60" x2="175.71" y2="470" stroke="#f3f4f6" stroke-width="1"/>
<text x="175.71" y="492" font-size="12" text-anchor="middle" fill="#555555">6</text>
<line x1="192.86" y1="60" x2="192.86" y2="470" stroke="#f3f4f6" stroke-width="1"/>
<text x="192.86" y="492" font-size="12" text-anchor="middle" fill="#555555">7</text>
<line x1="210.00" y1="60" x2="210.00" y2="470" stroke="#f3f4f6" stroke-width="1"/>
<text x="210.00" y="492" font-size="12" text-anchor="middle" fill="#555555">8</text>
<line x1="227.14" y1="60" x2="227.14" y2="470" stroke="#f3f4f6" stroke-width="1"/>
<text x="227.14" y="492" font-size="12" text-anchor="middle" fill="#555555">9</text>
<line x1="244.29" y1="60" x2="244.29" y2="470" stroke="#f3f4f6" stroke-width="1"/>
<text x="244.29" y="492" font-size="12" text-anchor="middle" fill="#555555">10</text>
<line x1="261.43" y1="60" x2="261.43" y2="470" stroke="#f3f4f6" stroke-width="1"/>
<text x="261.43" y="492" font-size="12" text-anchor="middle" fill="#555555">11</text>
<line x1="278.57" y1="60" x2="278.57" y2="470" stroke="#f3f4f6" stroke-width="1"/>
<text x="278.57" y="492" font-size="12" text-anchor="middle" fill="#555555">12</text>
<line x1="295.71" y1="60" x2="295.71" y2="470" stroke="#f3f4f6" stroke-width="1"/>
<text x="295.71" y="492" font-size="12" text-anchor="middle" fill="#555555">13</text>
<line x1="312.86" y1="60" x2="312.86" y2="470" stroke="#f3f4f6" stroke-width="1"/>
<text x="312.86" y="492" font-size="12" text-anchor="middle" fill="#555555">14</text>
<line x1="330.00" y1="60" x2="330.00" y2="470" stroke="#f3f4f6" stroke-width="1"/>
<text x="330.00" y="492" font-size="12" text-anchor="middle" fill="#555555">15</text>
<line x1="347.14" y1="60" x2="347.14" y2="470" stroke="#f3f4f6" stroke-width="1"/>
<text x="347.14" y="492" font-size="12" text-anchor="middle" fill="#555555">16</text>
<line x1="364.29" y1="60" x2="364.29" y2="470" stroke="#f3f4f6" stroke-width="1"/>
<text x="364.29" y="492" font-size="12" text-anchor="middle" fill="#555555">17</text>
<line x1="381.43" y1="60" x2="381.43" y2="470" stroke="#f3f4f6" stroke-width="1"/>
<text x="381.43" y="492" font-size="12" text-anchor="middle" fill="#555555">18</text>
<line x1="398.57" y1="60" x2="398.57" y2="470" stroke="#f3f4f6" stroke-width="1"/>
<text x="398.57" y="492" font-size="12" text-anchor="middle" fill="#555555">19</text>
<line x1="415.71" y1="60" x2="415.71" y2="470" stroke="#f3f4f6" stroke-width="1"/>
<text x="415.71" y="492" font-size="12" text-anchor="middle" fill="#555555">20</text>
<line x1="432.86" y1="60" x2="432.86" y2="470" stroke="#f3f4f6" stroke-width="1"/>
<text x="432.86" y="492" font-size="12" text-anchor="middle" fill="#555555">21</text>
<line x1="450.00" y1="60" x2="450.00" y2="470" stroke="#f3f4f6" stroke-width="1"/>
<text x="450.00" y="492" font-size="12" text-anchor="middle" fill="#555555">22</text>
<line x1="467.14" y1="60" x2="467.14" y2="470" stroke="#f3f4f6" stroke-width="1"/>
<text x="467.14" y="492" font-size="12" text-anchor="middle" fill="#555555">23</text>
<line x1="484.29" y1="60" x2="484.29" y2="470" stroke="#f3f4f6" stroke-width="1"/>
<text x="484.29" y="492" font-size="12" text-anchor="middle" fill="#555555">24</text>
<line x1="501.43" y1="60" x2="501.43" y2="470" stroke="#f3f4f6" stroke-width="1"/>
<text x="501.43" y="492" font-size="12" text-anchor="middle" fill="#555555">25</text>
<line x1="518.57" y1="60" x2="518.57" y2="470" stroke="#f3f4f6" stroke-width="1"/>
<text x="518.57" y="492" font-size="12" text-anchor="middle" fill="#555555">26</text>
<line x1="535.71" y1="60" x2="535.71" y2="470" stroke="#f3f4f6" stroke-width="1"/>
<text x="535.71" y="492" font-size="12" text-anchor="middle" fill="#555555">27</text>
<line x1="552.86" y1="60" x2="552.86" y2="470" stroke="#f3f4f6" stroke-width="1"/>
<text x="552.86" y="492" font-size="12" text-anchor="middle" fill="#555555">28</text>
<line x1="570.00" y1="60" x2="570.00" y2="470" stroke="#f3f4f6" stroke-width="1"/>
<text x="570.00" y="492" font-size="12" text-anchor="middle" fill="#555555">29</text>
<line x1="587.14" y1="60" x2="587.14" y2="470" stroke="#f3f4f6" stroke-width="1"/>
<text x="587.14" y="492" font-size="12" text-anchor="middle" fill="#555555">30</text>
<line x1="604.29" y1="60" x2="604.29" y2="470" stroke="#f3f4f6" stroke-width="1"/>
<text x="604.29" y="492" font-size="12" text-anchor="middle" fill="#555555">31</text>
<line x1="621.43" y1="60" x2="621.43" y2="470" stroke="#f3f4f6" stroke-width="1"/>
<text x="621.43" y="492" font-size="12" text-anchor="middle" fill="#555555">32</text>
<line x1="638.57" y1="60" x2="638.57" y2="470" stroke="#f3f4f6" stroke-width="1"/>
<text x="638.57" y="492" font-size="12" text-anchor="middle" fill="#555555">33</text>
<line x1="655.71" y1="60" x2="655.71" y2="470" stroke="#f3f4f6" stroke-width="1"/>
<text x="655.71" y="492" font-size="12" text-anchor="middle" fill="#555555">34</text>
<line x1="672.86" y1="60" x2="672.86" y2="470" stroke="#f3f4f6" stroke-width="1"/>
<text x="672.86" y="492" font-size="12" text-anchor="middle" fill="#555555">35</text>
<line x1="690.00" y1="60" x2="690.00" y2="470" stroke="#f3f4f6" stroke-width="1"/>
<text x="690.00" y="492" font-size="12" text-anchor="middle" fill="#555555">36</text>
<line x1="707.14" y1="60" x2="707.14" y2="470" stroke="#f3f4f6" stroke-width="1"/>
<text x="707.14" y="492" font-size="12" text-anchor="middle" fill="#555555">37</text>
<line x1="724.29" y1="60" x2="724.29" y2="470" stroke="#f3f4f6" stroke-width="1"/>
<text x="724.29" y="492" font-size="12" text-anchor="middle" fill="#555555">38</text>
<line x1="741.43" y1="60" x2="741.43" y2="470" stroke="#f3f4f6" stroke-width="1"/>
<text x="741.43" y="492" font-size="12" text-anchor="middle" fill="#555555">39</text>
<line x1="758.57" y1="60" x2="758.57" y2="470" stroke="#f3f4f6" stroke-width="1"/>
<text x="758.57" y="492" font-size="12" text-anchor="middle" fill="#555555">40</text>
<line x1="775.71" y1="60" x2="775.71" y2="470" stroke="#f3f4f6" stroke-width="1"/>
<text x="775.71" y="492" font-size="12" text-anchor="middle" fill="#555555">41</text>
<line x1="792.86" y1="60" x2="792.86" y2="470" stroke="#f3f4f6" stroke-width="1"/>
<text x="792.86" y="492" font-size="12" text-anchor="middle" fill="#555555">42</text>
<line x1="810.00" y1="60" x2="810.00" y2="470" stroke="#f3f4f6" stroke-width="1"/>
<text x="810.00" y="492" font-size="12" text-anchor="middle" fill="#555555">43</text>
<line x1="827.14" y1="60" x2="827.14" y2="470" stroke="#f3f4f6" stroke-width="1"/>
<text x="827.14" y="492" font-size="12" text-anchor="middle" fill="#555555">44</text>
<line x1="844.29" y1="60" x2="844.29" y2="470" stroke="#f3f4f6" stroke-width="1"/>
<text x="844.29" y="492" font-size="12" text-anchor="middle" fill="#555555">45</text>
<line x1="861.43" y1="60" x2="861.43" y2="470" stroke="#f3f4f6" stroke-width="1"/>
<text x="861.43" y="492" font-size="12" text-anchor="middle" fill="#555555">46</text>
<line x1="878.57" y1="60" x2="878.57" y2="470" stroke="#f3f4f6" stroke-width="1"/>
<text x="878.57" y="492" font-size="12" text-anchor="middle" fill="#555555">47</text>
<line x1="895.71" y1="60" x2="895.71" y2="470" stroke="#f3f4f6" stroke-width="1"/>
<text x="895.71" y="492" font-size="12" text-anchor="middle" fill="#555555">48</text>
<line x1="912.86" y1="60" x2="912.86" y2="470" stroke="#f3f4f6" stroke-width="1"/>
<text x="912.86" y="492" font-size="12" text-anchor="middle" fill="#555555">49</text>
<line x1="930.00" y1="60" x2="930.00" y2="470" stroke="#f3f4f6" stroke-width="1"/>
<text x="930.00" y="492" font-size="12" text-anchor="middle" fill="#555555">50</text>
<polyline fill="none" stroke="#dc2626" stroke-width="3" points="90.00,94.17 107.14,352.99 124.29,380.79 141.43,394.60 158.57,394.08 175.71,403.24 192.86,405.60 210.00,407.36 227.14,412.36 244.29,415.95 261.43,415.10 278.57,417.86 295.71,418.90 312.86,419.40 330.00,419.95 347.14,418.32 364.29,426.41 381.43,421.23 398.57,425.30 415.71,425.15 432.86,422.54 450.00,425.99 467.14,429.41 484.29,425.63 501.43,426.62 518.57,426.34 535.71,426.83 552.86,428.67 570.00,427.71 587.14,426.45 604.29,427.90 621.43,432.09 638.57,426.57 655.71,424.62 672.86,428.31 690.00,432.76 707.14,429.48 724.29,431.57 741.43,430.92 758.57,430.96 775.71,431.41 792.86,431.31 810.00,430.08 827.14,435.38 844.29,431.97 861.43,431.82 878.57,431.10 895.71,435.83 912.86,431.77 930.00,433.72"/>
<circle cx="90.00" cy="94.17" r="4.5" fill="#dc2626" fill-opacity="0.9"/>
<circle cx="107.14" cy="352.99" r="4.5" fill="#dc2626" fill-opacity="0.9"/>
<circle cx="124.29" cy="380.79" r="4.5" fill="#dc2626" fill-opacity="0.9"/>
<circle cx="141.43" cy="394.60" r="4.5" fill="#dc2626" fill-opacity="0.9"/>
<circle cx="158.57" cy="394.08" r="4.5" fill="#dc2626" fill-opacity="0.9"/>
<circle cx="175.71" cy="403.24" r="4.5" fill="#dc2626" fill-opacity="0.9"/>
<circle cx="192.86" cy="405.60" r="4.5" fill="#dc2626" fill-opacity="0.9"/>
<circle cx="210.00" cy="407.36" r="4.5" fill="#dc2626" fill-opacity="0.9"/>
<circle cx="227.14" cy="412.36" r="4.5" fill="#dc2626" fill-opacity="0.9"/>
<circle cx="244.29" cy="415.95" r="4.5" fill="#dc2626" fill-opacity="0.9"/>
<circle cx="261.43" cy="415.10" r="4.5" fill="#dc2626" fill-opacity="0.9"/>
<circle cx="278.57" cy="417.86" r="4.5" fill="#dc2626" fill-opacity="0.9"/>
<circle cx="295.71" cy="418.90" r="4.5" fill="#dc2626" fill-opacity="0.9"/>
<circle cx="312.86" cy="419.40" r="4.5" fill="#dc2626" fill-opacity="0.9"/>
<circle cx="330.00" cy="419.95" r="4.5" fill="#dc2626" fill-opacity="0.9"/>
<circle cx="347.14" cy="418.32" r="4.5" fill="#dc2626" fill-opacity="0.9"/>
<circle cx="364.29" cy="426.41" r="4.5" fill="#dc2626" fill-opacity="0.9"/>
<circle cx="381.43" cy="421.23" r="4.5" fill="#dc2626" fill-opacity="0.9"/>
<circle cx="398.57" cy="425.30" r="4.5" fill="#dc2626" fill-opacity="0.9"/>
<circle cx="415.71" cy="425.15" r="4.5" fill="#dc2626" fill-opacity="0.9"/>
<circle cx="432.86" cy="422.54" r="4.5" fill="#dc2626" fill-opacity="0.9"/>
<circle cx="450.00" cy="425.99" r="4.5" fill="#dc2626" fill-opacity="0.9"/>
<circle cx="467.14" cy="429.41" r="4.5" fill="#dc2626" fill-opacity="0.9"/>
<circle cx="484.29" cy="425.63" r="4.5" fill="#dc2626" fill-opacity="0.9"/>
<circle cx="501.43" cy="426.62" r="4.5" fill="#dc2626" fill-opacity="0.9"/>
<circle cx="518.57" cy="426.34" r="4.5" fill="#dc2626" fill-opacity="0.9"/>
<circle cx="535.71" cy="426.83" r="4.5" fill="#dc2626" fill-opacity="0.9"/>
<circle cx="552.86" cy="428.67" r="4.5" fill="#dc2626" fill-opacity="0.9"/>
<circle cx="570.00" cy="427.71" r="4.5" fill="#dc2626" fill-opacity="0.9"/>
<circle cx="587.14" cy="426.45" r="4.5" fill="#dc2626" fill-opacity="0.9"/>
<circle cx="604.29" cy="427.90" r="4.5" fill="#dc2626" fill-opacity="0.9"/>
<circle cx="621.43" cy="432.09" r="4.5" fill="#dc2626" fill-opacity="0.9"/>
<circle cx="638.57" cy="426.57" r="4.5" fill="#dc2626" fill-opacity="0.9"/>
<circle cx="655.71" cy="424.62" r="4.5" fill="#dc2626" fill-opacity="0.9"/>
<circle cx="672.86" cy="428.31" r="4.5" fill="#dc2626" fill-opacity="0.9"/>
<circle cx="690.00" cy="432.76" r="4.5" fill="#dc2626" fill-opacity="0.9"/>
<circle cx="707.14" cy="429.48" r="4.5" fill="#dc2626" fill-opacity="0.9"/>
<circle cx="724.29" cy="431.57" r="4.5" fill="#dc2626" fill-opacity="0.9"/>
<circle cx="741.43" cy="430.92" r="4.5" fill="#dc2626" fill-opacity="0.9"/>
<circle cx="758.57" cy="430.96" r="4.5" fill="#dc2626" fill-opacity="0.9"/>
<circle cx="775.71" cy="431.41" r="4.5" fill="#dc2626" fill-opacity="0.9"/>
<circle cx="792.86" cy="431.31" r="4.5" fill="#dc2626" fill-opacity="0.9"/>
<circle cx="810.00" cy="430.08" r="4.5" fill="#dc2626" fill-opacity="0.9"/>
<circle cx="827.14" cy="435.38" r="4.5" fill="#dc2626" fill-opacity="0.9"/>
<circle cx="844.29" cy="431.97" r="4.5" fill="#dc2626" fill-opacity="0.9"/>
<circle cx="861.43" cy="431.82" r="4.5" fill="#dc2626" fill-opacity="0.9"/>
<circle cx="878.57" cy="431.10" r="4.5" fill="#dc2626" fill-opacity="0.9"/>
<circle cx="895.71" cy="435.83" r="4.5" fill="#dc2626" fill-opacity="0.9"/>
<circle cx="912.86" cy="431.77" r="4.5" fill="#dc2626" fill-opacity="0.9"/>
<circle cx="930.00" cy="433.72" r="4.5" fill="#dc2626" fill-opacity="0.9"/>
<rect x="90" y="32" width="18" height="6" fill="#dc2626"/>
<text x="114" y="38" font-size="13" fill="#333333">train</text>
</svg>