<svg xmlns="http://www.w3.org/2000/svg" width="960" height="540">
<rect width="100%" height="100%" fill="#ffffff"/>
<text x="480.0" y="30" font-size="22" text-anchor="middle" fill="#111111">Loss</text>
<text x="20" y="270.0" font-size="16" transform="rotate(-90 20,270.0)" text-anchor="middle" fill="#333333">Loss</text>
<text x="480.0" y="520" font-size="16" text-anchor="middle" fill="#333333">Epoch</text>
<line x1="90" y1="60" x2="90" y2="470" stroke="#333333" stroke-width="2"/>
<line x1="90" y1="470" x2="930" y2="470" stroke="#333333" stroke-width="2"/>
<line x1="90" y1="470.00" x2="930" y2="470.00" stroke="#e5e7eb" stroke-width="1"/>
<text x="80" y="475.00" font-size="12" text-anchor="end" fill="#555555">-11.4538</text>
<line x1="90" y1="367.50" x2="930" y2="367.50" stroke="#e5e7eb" stroke-width="1"/>
<text x="80" y="372.50" font-size="12" text-anchor="end" fill="#555555">23.1006</text>
<line x1="90" y1="265.00" x2="930" y2="265.00" stroke="#e5e7eb" stroke-width="1"/>
<text x="80" y="270.00" font-size="12" text-anchor="end" fill="#555555">57.6550</text>
<line x1="90" y1="162.50" x2="930" y2="162.50" stroke="#e5e7eb" stroke-width="1"/>
<text x="80" y="167.50" font-size="12" text-anchor="end" fill="#555555">92.2094</text>
<line x1="90" y1="60.00" x2="930" y2="60.00" stroke="#e5e7eb" stroke-width="1"/>
<text x="80" y="65.00" font-size="12" text-anchor="end" fill="#555555">126.7637</text>
<line x1="90.00" y1="60" x2="90.00" y2="470" stroke="#f3f4f6" stroke-width="1"/>
<text x="90.00" y="492" font-size="12" text-anchor="middle" fill="#555555">1</text>
<line x1="107.14" y1="60" x2="107.14" y2="470" stroke="#f3f4f6" stroke-width="1"/>
<text x="107.14" y="492" font-size="12" text-anchor="middle" fill="#555555">2</text>
<line x1="124.29" y1="60" x2="124.29" y2="470" stroke="#f3f4f6" stroke-width="1"/>
<text x="124.29" y="492" font-size="12" text-anchor="middle" fill="#555555">3</text>
<line x1="141.43" y1="60" x2="141.43" y2="470" stroke="#f3f4f6" stroke-width="1"/>
<text x="141.43" y="492" font-size="12" text-anchor="middle" fill="#555555">4</text>
<line x1="158.57" y1="60" x2="158.57" y2="470" stroke="#f3f4f6" stroke-width="1"/>
<text x="158.57" y="492" font-size="12" text-anchor="middle" fill="#555555">5</text>
<line x1="175.71" y1="60" x2="175.71" y2="470" stroke="#f3f4f6" stroke-width="1"/>
<text x="175.71" y="492" font-size="12" text-anchor="middle" fill="#555555">6</text>
<line x1="192.86" y1="60" x2="192.86" y2="470" stroke="#f3f4f6" stroke-width="1"/>
<text x="192.86" y="492" font-size="12" text-anchor="middle" fill="#555555">7</text>
<line x1="210.00" y1="60" x2="210.00" y2="470" stroke="#f3f4f6" stroke-width="1"/>
<text x="210.00" y="492" font-size="12" text-anchor="middle" fill="#555555">8</text>
<line x1="227.14" y1="60" x2="227.14" y2="470" stroke="#f3f4f6" stroke-width="1"/>
<text x="227.14" y="492" font-size="12" text-anchor="middle" fill="#555555">9</text>
<line x1="244.29" y1="60" x2="244.29" y2="470" stroke="#f3f4f6" stroke-width="1"/>
<text x="244.29" y="492" font-size="12" text-anchor="middle" fill="#555555">10</text>
<line x1="261.43" y1="60" x2="261.43" y2="470" stroke="#f3f4f6" stroke-width="1"/>
<text x="261.43" y="492" font-size="12" text-anchor="middle" fill="#555555">11</text>
<line x1="278.57" y1="60" x2="278.57" y2="470" stroke="#f3f4f6" stroke-width="1"/>
<text x="278.57" y="492" font-size="12" text-anchor="middle" fill="#555555">12</text>
<line x1="295.71" y1="60" x2="295.71" y2="470" stroke="#f3f4f6" stroke-width="1"/>
<text x="295.71" y="492" font-size="12" text-anchor="middle" fill="#555555">13</text>
<line x1="312.86" y1="60" x2="312.86" y2="470" stroke="#f3f4f6" stroke-width="1"/>
<text x="312.86" y="492" font-size="12" text-anchor="middle" fill="#555555">14</text>
<line x1="330.00" y1="60" x2="330.00" y2="470" stroke="#f3f4f6" stroke-width="1"/>
<text x="330.00" y="492" font-size="12" text-anchor="middle" fill="#555555">15</text>
<line x1="347.14" y1="60" x2="347.14" y2="470" stroke="#f3f4f6" stroke-width="1"/>
<text x="347.14" y="492" font-size="12" text-anchor="middle" fill="#555555">16</text>
<line x1="364.29" y1="60" x2="364.29" y2="470" stroke="#f3f4f6" stroke-width="1"/>
<text x="364.29" y="492" font-size="12" text-anchor="middle" fill="#555555">17</text>
<line x1="381.43" y1="60" x2="381.43" y2="470" stroke="#f3f4f6" stroke-width="1"/>
<text x="381.43" y="492" font-size="12" text-anchor="middle" fill="#555555">18</text>
<line x1="398.57" y1="60" x2="398.57" y2="470" stroke="#f3f4f6" stroke-width="1"/>
<text x="398.57" y="492" font-size="12" text-anchor="middle" fill="#555555">19</text>
<line x1="415.71" y1="60" x2="415.71" y2="470" stroke="#f3f4f6" stroke-width="1"/>
<text x="415.71" y="492" font-size="12" text-anchor="middle" fill="#555555">20</text>
<line x1="432.86" y1="60" x2="432.86" y2="470" stroke="#f3f4f6" stroke-width="1"/>
<text x="432.86" y="492" font-size="12" text-anchor="middle" fill="#555555">21</text>
<line x1="450.00" y1="60" x2="450.00" y2="470" stroke="#f3f4f6" stroke-width="1"/>
<text x="450.00" y="492" font-size="12" text-anchor="middle" fill="#555555">22</text>
<line x1="467.14" y1="60" x2="467.14" y2="470" stroke="#f3f4f6" stroke-width="1"/>
<text x="467.14" y="492" font-size="12" text-anchor="middle" fill="#555555">23</text>
<line x1="484.29" y1="60" x2="484.29" y2="470" stroke="#f3f4f6" stroke-width="1"/>
<text x="484.29" y="492" font-size="12" text-anchor="middle" fill="#555555">24</text>
<line x1="501.43" y1="60" x2="501.43" y2="470" stroke="#f3f4f6" stroke-width="1"/>
<text x="501.43" y="492" font-size="12" text-anchor="middle" fill="#555555">25</text>
<line x1="518.57" y1="60" x2="518.57" y2="470" stroke="#f3f4f6" stroke-width="1"/>
<text x="518.57" y="492" font-size="12" text-anchor="middle" fill="#555555">26</text>
<line x1="535.71" y1="60" x2="535.71" y2="470" stroke="#f3f4f6" stroke-width="1"/>
<text x="535.71" y="492" font-size="12" text-anchor="middle" fill="#555555">27</text>
<line x1="552.86" y1="60" x2="552.86" y2="470" stroke="#f3f4f6" stroke-width="1"/>
<text x="552.86" y="492" font-size="12" text-anchor="middle" fill="#555555">28</text>
<line x1="570.00" y1="60" x2="570.00" y2="470" stroke="#f3f4f6" stroke-width="1"/>
<text x="570.00" y="492" font-size="12" text-anchor="middle" fill="#555555">29</text>
<line x1="587.14" y1="60" x2="587.14" y2="470" stroke="#f3f4f6" stroke-width="1"/>
<text x="587.14" y="492" font-size="12" text-anchor="middle" fill="#555555">30</text>
<line x1="604.29" y1="60" x2="604.29" y2="470" stroke="#f3f4f6" stroke-width="1"/>
<text x="604.29" y="492" font-size="12" text-anchor="middle" fill="#555555">31</text>
<line x1="621.43" y1="60" x2="621.43" y2="470" stroke="#f3f4f6" stroke-width="1"/>
<text x="621.43" y="492" font-size="12" text-anchor="middle" fill="#555555">32</text>
<line x1="638.57" y1="60" x2="638.57" y2="470" stroke="#f3f4f6" stroke-width="1"/>
<text x="638.57" y="492" font-size="12" text-anchor="middle" fill="#555555">33</text>
<line x1="655.71" y1="60" x2="655.71" y2="470" stroke="#f3f4f6" stroke-width="1"/>
<text x="655.71" y="492" font-size="12" text-anchor="middle" fill="#555555">34</text>
<line x1="672.86" y1="60" x2="672.86" y2="470" stroke="#f3f4f6" stroke-width="1"/>
<text x="672.86" y="492" font-size="12" text-anchor="middle" fill="#555555">35</text>
<line x1="690.00" y1="60" x2="690.00" y2="470" stroke="#f3f4f6" stroke-width="1"/>
<text x="690.00" y="492" font-size="12" text-anchor="middle" fill="#555555">36</text>
<line x1="707.14" y1="60" x2="707.14" y2="470" stroke="#f3f4f6" stroke-width="1"/>
<text x="707.14" y="492" font-size="12" text-anchor="middle" fill="#555555">37</text>
<line x1="724.29" y1="60" x2="724.29" y2="470" stroke="#f3f4f6" stroke-width="1"/>
<text x="724.29" y="492" font-size="12" text-anchor="middle" fill="#555555">38</text>
<line x1="741.43" y1="60" x2="741.43" y2="470" stroke="#f3f4f6" stroke-width="1"/>
<text x="741.43" y="492" font-size="12" text-anchor="middle" fill="#555555">39</text>
<line x1="758.57" y1="60" x2="758.57" y2="470" stroke="#f3f4f6" stroke-width="1"/>
<text x="758.57" y="492" font-size="12" text-anchor="middle" fill="#555555">40</text>
<line x1="775.71" y1="60" x2="775.71" y2="470" stroke="#f3f4f6" stroke-width="1"/>
<text x="775.71" y="492" font-size="12" text-anchor="middle" fill="#555555">41</text>
<line x1="792.86" y1="60" x2="792.86" y2="470" stroke="#f3f4f6" stroke-width="1"/>
<text x="792.86" y="492" font-size="12" text-anchor="middle" fill="#555555">42</text>
<line x1="810.00" y1="60" x2="810.00" y2="470" stroke="#f3f4f6" stroke-width="1"/>
<text x="810.00" y="492" font-size="12" text-anchor="middle" fill="#555555">43</text>
<line x1="827.14" y1="60" x2="827.14" y2="470" stroke="#f3f4f6" stroke-width="1"/>
<text x="827.14" y="492" font-size="12" text-anchor="middle" fill="#555555">44</text>
<line x1="844.29" y1="60" x2="844.29" y2="470" stroke="#f3f4f6" stroke-width="1"/>
<text x="844.29" y="492" font-size="12" text-anchor="middle" fill="#555555">45</text>
<line x1="861.43" y1="60" x2="861.43" y2="470" stroke="#f3f4f6" stroke-width="1"/>
<text x="861.43" y="492" font-size="12" text-anchor="middle" fill="#555555">46</text>
<line x1="878.57" y1="60" x2="878.57" y2="470" stroke="#f3f4f6" stroke-width="1"/>
<text x="878.57" y="492" font-size="12" text-anchor="middle" fill="#555555">47</text>
<line x1="895.71" y1="60" x2="895.71" y2="470" stroke="#f3f4f6" stroke-width="1"/>
<text x="895.71" y="492" font-size="12" text-anchor="middle" fill="#555555">48</text>
<line x1="912.86" y1="60" x2="912.86" y2="470" stroke="#f3f4f6" stroke-width="1"/>
<text x="912.86" y="492" font-size="12" text-anchor="middle" fill="#555555">49</text>
<line x1="930.00" y1="60" x2="930.00" y2="470" stroke="#f3f4f6" stroke-width="1"/>
<text x="930.00" y="492" font-size="12" text-anchor="middle" fill="#555555">50</text>
<polyline fill="none" stroke="#1d4ed8" stroke-width="3" points="90.00,410.83 107.14,427.05 124.29,431.20 141.43,434.24 158.57,434.48 175.71,434.61 192.86,434.82 210.00,434.90 227.14,435.06 244.29,435.09 261.43,435.15 278.57,435.27 295.71,435.25 312.86,435.33 330.00,435.35 347.14,435.39 364.29,435.45 381.43,435.46 398.57,435.50 415.71,435.53 432.86,435.54 450.00,435.55 467.14,435.62 484.29,435.60 501.43,435.62 518.57,435.62 535.71,435.64 552.86,435.67 570.00,435.68 587.14,435.67 604.29,435.69 621.43,435.75 638.57,435.69 655.71,435.70 672.86,435.69 690.00,435.75 707.14,435.74 724.29,435.75 741.43,435.76 758.57,435.75 775.71,435.77 792.86,435.77 810.00,435.77 827.14,435.76 844.29,435.79 861.43,435.79 878.57,435.78 895.71,435.82 912.86,435.76 930.00,435.83"/>
<circle cx="90.00" cy="410.83" r="4.5" fill="#1d4ed8" fill-opacity="0.9"/>
<circle cx="107.14" cy="427.05" r="4.5" fill="#1d4ed8" fill-opacity="0.9"/>
<circle cx="124.29" cy="431.20" r="4.5" fill="#1d4ed8" fill-opacity="0.9"/>
<circle cx="141.43" cy="434.24" r="4.5" fill="#1d4ed8" fill-opacity="0.9"/>
<circle cx="158.57" cy="434.48" r="4.5" fill="#1d4ed8" fill-opacity="0.9"/>
<circle cx="175.71" cy="434.61" r="4.5" fill="#1d4ed8" fill-opacity="0.9"/>
<circle cx="192.86" cy="434.82" r="4.5" fill="#1d4ed8" fill-opacity="0.9"/>
<circle cx="210.00" cy="434.90" r="4.5" fill="#1d4ed8" fill-opacity="0.9"/>
<circle cx="227.14" cy="435.06" r="4.5" fill="#1d4ed8" fill-opacity="0.9"/>
<circle cx="244.29" cy="435.09" r="4.5" fill="#1d4ed8" fill-opacity="0.9"/>
<circle cx="261.43" cy="435.15" r="4.5" fill="#1d4ed8" fill-opacity="0.9"/>
<circle cx="278.57" cy="435.27" r="4.5" fill="#1d4ed8" fill-opacity="0.9"/>
<circle cx="295.71" cy="435.25" r="4.5" fill="#1d4ed8" fill-opacity="0.9"/>
<circle cx="312.86" cy="435.33" r="4.5" fill="#1d4ed8" fill-opacity="0.9"/>
<circle cx="330.00" cy="435.35" r="4.5" fill="#1d4ed8" fill-opacity="0.9"/>
<circle cx="347.14" cy="435.39" r="4.5" fill="#1d4ed8" fill-opacity="0.9"/>
<circle cx="364.29" cy="435.45" r="4.5" fill="#1d4ed8" fill-opacity="0.9"/>
<circle cx="381.43" cy="435.46" r="4.5" fill="#1d4ed8" fill-opacity="0.9"/>
<circle cx="398.57" cy="435.50" r="4.5" fill="#1d4ed8" fill-opacity="0.9"/>
<circle cx="415.71" cy="435.53" r="4.5" fill="#1d4ed8" fill-opacity="0.9"/>
<circle cx="432.86" cy="435.54" r="4.5" fill="#1d4ed8" fill-opacity="0.9"/>
<circle cx="450.00" cy="435.55" r="4.5" fill="#1d4ed8" fill-opacity="0.9"/>
<circle cx="467.14" cy="435.62" r="4.5" fill="#1d4ed8" fill-opacity="0.9"/>
<circle cx="484.29" cy="435.60" r="4.5" fill="#1d4ed8" fill-opacity="0.9"/>
<circle cx="501.43" cy="435.62" r="4.5" fill="#1d4ed8" fill-opacity="0.9"/>
<circle cx="518.57" cy="435.62" r="4.5" fill="#1d4ed8" fill-opacity="0.9"/>
<circle cx="535.71" cy="435.64" r="4.5" fill="#1d4ed8" fill-opacity="0.9"/>
<circle cx="552.86" cy="435.67" r="4.5" fill="#1d4ed8" fill-opacity="0.9"/>
<circle cx="570.00" cy="435.68" r="4.5" fill="#1d4ed8" fill-opacity="0.9"/>
<circle cx="587.14" cy="435.67" r="4.5" fill="#1d4ed8" fill-opacity="0.9"/>
<circle cx="604.29" cy="435.69" r="4.5" fill="#1d4ed8" fill-opacity="0.9"/>
<circle cx="621.43" cy="435.75" r="4.5" fill="#1d4ed8" fill-opacity="0.9"/>
<circle cx="638.57" cy="435.69" r="4.5" fill="#1d4ed8" fill-opacity="0.9"/>
<circle cx="655.71" cy="435.70" r="4.5" fill="#1d4ed8" fill-opacity="0.9"/>
<circle cx="672.86" cy="435.69" r="4.5" fill="#1d4ed8" fill-opacity="0.9"/>
<circle cx="690.00" cy="435.75" r="4.5" fill="#1d4ed8" fill-opacity="0.9"/>
<circle cx="707.14" cy="435.74" r="4.5" fill="#1d4ed8" fill-opacity="0.9"/>
<circle cx="724.29" cy="435.75" r="4.5" fill="#1d4ed8" fill-opacity="0.9"/>
<circle cx="741.43" cy="435.76" r="4.5" fill="#1d4ed8" fill-opacity="0.9"/>
<circle cx="758.57" cy="435.75" r="4.5" fill="#1d4ed8" fill-opacity="0.9"/>
<circle cx="775.71" cy="435.77" r="4.5" fill="#1d4ed8" fill-opacity="0.9"/>
<circle cx="792.86" cy="435.77" r="4.5" fill="#1d4ed8" fill-opacity="0.9"/>
<circle cx="810.00" cy="435.77" r="4.5" fill="#1d4ed8" fill-opacity="0.9"/>
<circle cx="827.14" cy="435.76" r="4.5" fill="#1d4ed8" fill-opacity="0.9"/>
<circle cx="844.29" cy="435.79" r="4.5" fill="#1d4ed8" fill-opacity="0.9"/>
<circle cx="861.43" cy="435.79" r="4.5" fill="#1d4ed8" fill-opacity="0.9"/>
<circle cx="878.57" cy="435.78" r="4.5" fill="#1d4ed8" fill-opacity="0.9"/>
<circle cx="895.71" cy="435.82" r="4.5" fill="#1d4ed8" fill-opacity="0.9"/>
<circle cx="912.86" cy="435.76" r="4.5" fill="#1d4ed8" fill-opacity="0.9"/>
<circle cx="930.00" cy="435.83" r="4.5" fill="#1d4ed8" fill-opacity="0.9"/>
<rect x="90" y="32" width="18" height="6" fill="#1d4ed8"/>
<text x="114" y="38" font-size="13" fill="#333333">train</text>
<polyline fill="none" stroke="#d97706" stroke-width="3" points="90.00,94.17 107.14,149.84 124.29,433.36 141.43,432.54 158.57,432.44 175.71,434.22 192.86,433.40 210.00,433.24 227.14,433.06 244.29,434.22 261.43,432.24 278.57,432.84 295.71,433.13 312.86,433.01 330.00,432.83 347.14,433.15 364.29,432.94 381.43,432.46 398.57,432.03 415.71,432.92 432.86,432.89 450.00,434.73 467.14,432.87 484.29,433.58 501.43,432.35 518.57,433.70 535.71,433.11 552.86,433.37 570.00,433.38 587.14,434.33 604.29,434.39 621.43,433.51 638.57,434.26 655.71,428.90 672.86,434.65 690.00,434.26 707.14,434.42 724.29,434.82 741.43,434.70 758.57,433.98 775.71,434.64 792.86,435.15 810.00,425.86 827.14,433.64 844.29,434.83 861.43,435.17 878.57,434.46 895.71,434.83 912.86,435.20 930.00,434.72"/>
<circle cx="90.00" cy="94.17" r="4.5" fill="#d97706" fill-opacity="0.9"/>
<circle cx="107.14" cy="149.84" r="4.5" fill="#d97706" fill-opacity="0.9"/>
<circle cx="124.29" cy="433.36" r="4.5" fill="#d97706" fill-opacity="0.9"/>
<circle cx="141.43" cy="432.54" r="4.5" fill="#d97706" fill-opacity="0.9"/>
<circle cx="158.57" cy="432.44" r="4.5" fill="#d97706" fill-opacity="0.9"/>
<circle cx="175.71" cy="434.22" r="4.5" fill="#d97706" fill-opacity="0.9"/>
<circle cx="192.86" cy="433.40" r="4.5" fill="#d97706" fill-opacity="0.9"/>
<circle cx="210.00" cy="433.24" r="4.5" fill="#d97706" fill-opacity="0.9"/>
<circle cx="227.14" cy="433.06" r="4.5" fill="#d97706" fill-opacity="0.9"/>
<circle cx="244.29" cy="434.22" r="4.5" fill="#d97706" fill-opacity="0.9"/>
<circle cx="261.43" cy="432.24" r="4.5" fill="#d97706" fill-opacity="0.9"/>
<circle cx="278.57" cy="432.84" r="4.5" fill="#d97706" fill-opacity="0.9"/>
<circle cx="295.71" cy="433.13" r="4.5" fill="#d97706" fill-opacity="0.9"/>
<circle cx="312.86" cy="433.01" r="4.5" fill="#d97706" fill-opacity="0.9"/>
<circle cx="330.00" cy="432.83" r="4.5" fill="#d97706" fill-opacity="0.9"/>
<circle cx="347.14" cy="433.15" r="4.5" fill="#d97706" fill-opacity="0.9"/>
<circle cx="364.29" cy="432.94" r="4.5" fill="#d97706" fill-opacity="0.9"/>
<circle cx="381.43" cy="432.46" r="4.5" fill="#d97706" fill-opacity="0.9"/>
<circle cx="398.57" cy="432.03" r="4.5" fill="#d97706" fill-opacity="0.9"/>
<circle cx="415.71" cy="432.92" r="4.5" fill="#d97706" fill-opacity="0.9"/>
<circle cx="432.86" cy="432.89" r="4.5" fill="#d97706" fill-opacity="0.9"/>
<circle cx="450.00" cy="434.73" r="4.5" fill="#d97706" fill-opacity="0.9"/>
<circle cx="467.14" cy="432.87" r="4.5" fill="#d97706" fill-opacity="0.9"/>
<circle cx="484.29" cy="433.58" r="4.5" fill="#d97706" fill-opacity="0.9"/>
<circle cx="501.43" cy="432.35" r="4.5" fill="#d97706" fill-opacity="0.9"/>
<circle cx="518.57" cy="433.70" r="4.5" fill="#d97706" fill-opacity="0.9"/>
<circle cx="535.71" cy="433.11" r="4.5" fill="#d97706" fill-opacity="0.9"/>
<circle cx="552.86" cy="433.37" r="4.5" fill="#d97706" fill-opacity="0.9"/>
<circle cx="570.00" cy="433.38" r="4.5" fill="#d97706" fill-opacity="0.9"/>
<circle cx="587.14" cy="434.33" r="4.5" fill="#d97706" fill-opacity="0.9"/>
<circle cx="604.29" cy="434.39" r="4.5" fill="#d97706" fill-opacity="0.9"/>
<circle cx="621.43" cy="433.51" r="4.5" fill="#d97706" fill-opacity="0.9"/>
<circle cx="638.57" cy="434.26" r="4.5" fill="#d97706" fill-opacity="0.9"/>
<circle cx="655.71" cy="428.90" r="4.5" fill="#d97706" fill-opacity="0.9"/>
<circle cx="672.86" cy="434.65" r="4.5" fill="#d97706" fill-opacity="0.9"/>
<circle cx="690.00" cy="434.26" r="4.5" fill="#d97706" fill-opacity="0.9"/>
<circle cx="707.14" cy="434.42" r="4.5" fill="#d97706" fill-opacity="0.9"/>
<circle cx="724.29" cy="434.82" r="4.5" fill="#d97706" fill-opacity="0.9"/>
<circle cx="741.43" cy="434.70" r="4.5" fill="#d97706" fill-opacity="0.9"/>
<circle cx="758.57" cy="433.98" r="4.5" fill="#d97706" fill-opacity="0.9"/>
<circle cx="775.71" cy="434.64" r="4.5" fill="#d97706" fill-opacity="0.9"/>
<circle cx="792.86" cy="435.15" r="4.5" fill="#d97706" fill-opacity="0.9"/>
<circle cx="810.00" cy="425.86" r="4.5" fill="#d97706" fill-opacity="0.9"/>
<circle cx="827.14" cy="433.64" r="4.5" fill="#d97706" fill-opacity="0.9"/>
<circle cx="844.29" cy="434.83" r="4.5" fill="#d97706" fill-opacity="0.9"/>
<circle cx="861.43" cy="435.17" r="4.5" fill="#d97706" fill-opacity="0.9"/>
<circle cx="878.57" cy="434.46" r="4.5" fill="#d97706" fill-opacity="0.9"/>
<circle cx="895.71" cy="434.83" r="4.5" fill="#d97706" fill-opacity="0.9"/>
<circle cx="912.86" cy="435.20" r="4.5" fill="#d97706" fill-opacity="0.9"/>
<circle cx="930.00" cy="434.72" r="4.5" fill="#d97706" fill-opacity="0.9"/>
<rect x="270" y="32" width="18" height="6" fill="#d97706"/>
<text x="294" y="38" font-size="13" fill="#333333">val</text>
<polyline fill="none" stroke="#059669" stroke-width="3" points="90.00,94.22 107.14,149.81 124.29,433.37 141.43,432.44 158.57,432.31 175.71,434.08 192.86,433.34 210.00,433.14 227.14,432.98 244.29,434.16 261.43,432.08 278.57,432.72 295.71,433.01 312.86,432.90 330.00,432.71 347.14,433.06 364.29,432.88 381.43,432.33 398.57,431.85 415.71,432.86 432.86,432.81 450.00,434.69 467.14,432.80 484.29,433.59 501.43,432.16 518.57,433.65 535.71,433.12 552.86,433.29 570.00,433.36 587.14,434.27 604.29,434.36 621.43,433.40 638.57,434.29 655.71,429.05 672.86,434.61 690.00,434.24 707.14,434.39 724.29,434.81 741.43,434.69 758.57,433.98 775.71,434.65 792.86,435.15 810.00,425.94 827.14,433.52 844.29,434.85 861.43,435.12 878.57,434.48 895.71,434.80 912.86,435.25 930.00,434.76"/>
<circle cx="90.00" cy="94.22" r="4.5" fill="#059669" fill-opacity="0.9"/>
<circle cx="107.14" cy="149.81" r="4.5" fill="#059669" fill-opacity="0.9"/>
<circle cx="124.29" cy="433.37" r="4.5" fill="#059669" fill-opacity="0.9"/>
<circle cx="141.43" cy="432.44" r="4.5" fill="#059669" fill-opacity="0.9"/>
<circle cx="158.57" cy="432.31" r="4.5" fill="#059669" fill-opacity="0.9"/>
<circle cx="175.71" cy="434.08" r="4.5" fill="#059669" fill-opacity="0.9"/>
<circle cx="192.86" cy="433.34" r="4.5" fill="#059669" fill-opacity="0.9"/>
<circle cx="210.00" cy="433.14" r="4.5" fill="#059669" fill-opacity="0.9"/>
<circle cx="227.14" cy="432.98" r="4.5" fill="#059669" fill-opacity="0.9"/>
<circle cx="244.29" cy="434.16" r="4.5" fill="#059669" fill-opacity="0.9"/>
<circle cx="261.43" cy="432.08" r="4.5" fill="#059669" fill-opacity="0.9"/>
<circle cx="278.57" cy="432.72" r="4.5" fill="#059669" fill-opacity="0.9"/>
<circle cx="295.71" cy="433.01" r="4.5" fill="#059669" fill-opacity="0.9"/>
<circle cx="312.86" cy="432.90" r="4.5" fill="#059669" fill-opacity="0.9"/>
<circle cx="330.00" cy="432.71" r="4.5" fill="#059669" fill-opacity="0.9"/>
<circle cx="347.14" cy="433.06" r="4.5" fill="#059669" fill-opacity="0.9"/>
<circle cx="364.29" cy="432.88" r="4.5" fill="#059669" fill-opacity="0.9"/>
<circle cx="381.43" cy="432.33" r="4.5" fill="#059669" fill-opacity="0.9"/>
<circle cx="398.57" cy="431.85" r="4.5" fill="#059669" fill-opacity="0.9"/>
<circle cx="415.71" cy="432.86" r="4.5" fill="#059669" fill-opacity="0.9"/>
<circle cx="432.86" cy="432.81" r="4.5" fill="#059669" fill-opacity="0.9"/>
<circle cx="450.00" cy="434.69" r="4.5" fill="#059669" fill-opacity="0.9"/>
<circle cx="467.14" cy="432.80" r="4.5" fill="#059669" fill-opacity="0.9"/>
<circle cx="484.29" cy="433.59" r="4.5" fill="#059669" fill-opacity="0.9"/>
<circle cx="501.43" cy="432.16" r="4.5" fill="#059669" fill-opacity="0.9"/>
<circle cx="518.57" cy="433.65" r="4.5" fill="#059669" fill-opacity="0.9"/>
<circle cx="535.71" cy="433.12" r="4.5" fill="#059669" fill-opacity="0.9"/>
<circle cx="552.86" cy="433.29" r="4.5" fill="#059669" fill-opacity="0.9"/>
<circle cx="570.00" cy="433.36" r="4.5" fill="#059669" fill-opacity="0.9"/>
<circle cx="587.14" cy="434.27" r="4.5" fill="#059669" fill-opacity="0.9"/>
<circle cx="604.29" cy="434.36" r="4.5" fill="#059669" fill-opacity="0.9"/>
<circle cx="621.43" cy="433.40" r="4.5" fill="#059669" fill-opacity="0.9"/>
<circle cx="638.57" cy="434.29" r="4.5" fill="#059669" fill-opacity="0.9"/>
<circle cx="655.71" cy="429.05" r="4.5" fill="#059669" fill-opacity="0.9"/>
<circle cx="672.86" cy="434.61" r="4.5" fill="#059669" fill-opacity="0.9"/>
<circle cx="690.00" cy="434.24" r="4.5" fill="#059669" fill-opacity="0.9"/>
<circle cx="707.14" cy="434.39" r="4.5" fill="#059669" fill-opacity="0.9"/>
<circle cx="724.29" cy="434.81" r="4.5" fill="#059669" fill-opacity="0.9"/>
<circle cx="741.43" cy="434.69" r="4.5" fill="#059669" fill-opacity="0.9"/>
<circle cx="758.57" cy="433.98" r="4.5" fill="#059669" fill-opacity="0.9"/>
<circle cx="775.71" cy="434.65" r="4.5" fill="#059669" fill-opacity="0.9"/>
<circle cx="792.86" cy="435.15" r="4.5" fill="#059669" fill-opacity="0.9"/>
<circle cx="810.00" cy="425.94" r="4.5" fill="#059669" fill-opacity="0.9"/>
<circle cx="827.14" cy="433.52" r="4.5" fill="#059669" fill-opacity="0.9"/>
<circle cx="844.29" cy="434.85" r="4.5" fill="#059669" fill-opacity="0.9"/>
<circle cx="861.43" cy="435.12" r="4.5" fill="#059669" fill-opacity="0.9"/>
<circle cx="878.57" cy="434.48" r="4.5" fill="#059669" fill-opacity="0.9"/>
<circle cx="895.71" cy="434.80" r="4.5" fill="#059669" fill-opacity="0.9"/>
<circle cx="912.86" cy="435.25" r="4.5" fill="#059669" fill-opacity="0.9"/>
<circle cx="930.00" cy="434.76" r="4.5" fill="#059669" fill-opacity="0.9"/>
<rect x="450" y="32" width="18" height="6" fill="#059669"/>
<text x="474" y="38" font-size="13" fill="#333333">test</text>
</svg>