<svg xmlns="http://www.w3.org/2000/svg" width="960" height="540">
<rect width="100%" height="100%" fill="#ffffff"/>
<text x="480.0" y="30" font-size="22" text-anchor="middle" fill="#111111">Position 4 Accuracy</text>
<text x="20" y="270.0" font-size="16" transform="rotate(-90 20,270.0)" text-anchor="middle" fill="#333333">Accuracy</text>
<text x="480.0" y="520" font-size="16" text-anchor="middle" fill="#333333">Epoch</text>
<line x1="90" y1="60" x2="90" y2="470" stroke="#333333" stroke-width="2"/>
<line x1="90" y1="470" x2="930" y2="470" stroke="#333333" stroke-width="2"/>
<line x1="90" y1="470.00" x2="930" y2="470.00" stroke="#e5e7eb" stroke-width="1"/>
<text x="80" y="475.00" font-size="12" text-anchor="end" fill="#555555">-0.0713</text>
<line x1="90" y1="367.50" x2="930" y2="367.50" stroke="#e5e7eb" stroke-width="1"/>
<text x="80" y="372.50" font-size="12" text-anchor="end" fill="#555555">0.2166</text>
<line x1="90" y1="265.00" x2="930" y2="265.00" stroke="#e5e7eb" stroke-width="1"/>
<text x="80" y="270.00" font-size="12" text-anchor="end" fill="#555555">0.5044</text>
<line x1="90" y1="162.50" x2="930" y2="162.50" stroke="#e5e7eb" stroke-width="1"/>
<text x="80" y="167.50" font-size="12" text-anchor="end" fill="#555555">0.7923</text>
<line x1="90" y1="60.00" x2="930" y2="60.00" stroke="#e5e7eb" stroke-width="1"/>
<text x="80" y="65.00" font-size="12" text-anchor="end" fill="#555555">1.0802</text>
<line x1="90.00" y1="60" x2="90.00" y2="470" stroke="#f3f4f6" stroke-width="1"/>
<text x="90.00" y="492" font-size="12" text-anchor="middle" fill="#555555">1</text>
<line x1="107.14" y1="60" x2="107.14" y2="470" stroke="#f3f4f6" stroke-width="1"/>
<text x="107.14" y="492" font-size="12" text-anchor="middle" fill="#555555">2</text>
<line x1="124.29" y1="60" x2="124.29" y2="470" stroke="#f3f4f6" stroke-width="1"/>
<text x="124.29" y="492" font-size="12" text-anchor="middle" fill="#555555">3</text>
<line x1="141.43" y1="60" x2="141.43" y2="470" stroke="#f3f4f6" stroke-width="1"/>
<text x="141.43" y="492" font-size="12" text-anchor="middle" fill="#555555">4</text>
<line x1="158.57" y1="60" x2="158.57" y2="470" stroke="#f3f4f6" stroke-width="1"/>
<text x="158.57" y="492" font-size="12" text-anchor="middle" fill="#555555">5</text>
<line x1="175.71" y1="60" x2="175.71" y2="470" stroke="#f3f4f6" stroke-width="1"/>
<text x="175.71" y="492" font-size="12" text-anchor="middle" fill="#555555">6</text>
<line x1="192.86" y1="60" x2="192.86" y2="470" stroke="#f3f4f6" stroke-width="1"/>
<text x="192.86" y="492" font-size="12" text-anchor="middle" fill="#555555">7</text>
<line x1="210.00" y1="60" x2="210.00" y2="470" stroke="#f3f4f6" stroke-width="1"/>
<text x="210.00" y="492" font-size="12" text-anchor="middle" fill="#555555">8</text>
<line x1="227.14" y1="60" x2="227.14" y2="470" stroke="#f3f4f6" stroke-width="1"/>
<text x="227.14" y="492" font-size="12" text-anchor="middle" fill="#555555">9</text>
<line x1="244.29" y1="60" x2="244.29" y2="470" stroke="#f3f4f6" stroke-width="1"/>
<text x="244.29" y="492" font-size="12" text-anchor="middle" fill="#555555">10</text>
<line x1="261.43" y1="60" x2="261.43" y2="470" stroke="#f3f4f6" stroke-width="1"/>
<text x="261.43" y="492" font-size="12" text-anchor="middle" fill="#555555">11</text>
<line x1="278.57" y1="60" x2="278.57" y2="470" stroke="#f3f4f6" stroke-width="1"/>
<text x="278.57" y="492" font-size="12" text-anchor="middle" fill="#555555">12</text>
<line x1="295.71" y1="60" x2="295.71" y2="470" stroke="#f3f4f6" stroke-width="1"/>
<text x="295.71" y="492" font-size="12" text-anchor="middle" fill="#555555">13</text>
<line x1="312.86" y1="60" x2="312.86" y2="470" stroke="#f3f4f6" stroke-width="1"/>
<text x="312.86" y="492" font-size="12" text-anchor="middle" fill="#555555">14</text>
<line x1="330.00" y1="60" x2="330.00" y2="470" stroke="#f3f4f6" stroke-width="1"/>
<text x="330.00" y="492" font-size="12" text-anchor="middle" fill="#555555">15</text>
<line x1="347.14" y1="60" x2="347.14" y2="470" stroke="#f3f4f6" stroke-width="1"/>
<text x="347.14" y="492" font-size="12" text-anchor="middle" fill="#555555">16</text>
<line x1="364.29" y1="60" x2="364.29" y2="470" stroke="#f3f4f6" stroke-width="1"/>
<text x="364.29" y="492" font-size="12" text-anchor="middle" fill="#555555">17</text>
<line x1="381.43" y1="60" x2="381.43" y2="470" stroke="#f3f4f6" stroke-width="1"/>
<text x="381.43" y="492" font-size="12" text-anchor="middle" fill="#555555">18</text>
<line x1="398.57" y1="60" x2="398.57" y2="470" stroke="#f3f4f6" stroke-width="1"/>
<text x="398.57" y="492" font-size="12" text-anchor="middle" fill="#555555">19</text>
<line x1="415.71" y1="60" x2="415.71" y2="470" stroke="#f3f4f6" stroke-width="1"/>
<text x="415.71" y="492" font-size="12" text-anchor="middle" fill="#555555">20</text>
<line x1="432.86" y1="60" x2="432.86" y2="470" stroke="#f3f4f6" stroke-width="1"/>
<text x="432.86" y="492" font-size="12" text-anchor="middle" fill="#555555">21</text>
<line x1="450.00" y1="60" x2="450.00" y2="470" stroke="#f3f4f6" stroke-width="1"/>
<text x="450.00" y="492" font-size="12" text-anchor="middle" fill="#555555">22</text>
<line x1="467.14" y1="60" x2="467.14" y2="470" stroke="#f3f4f6" stroke-width="1"/>
<text x="467.14" y="492" font-size="12" text-anchor="middle" fill="#555555">23</text>
<line x1="484.29" y1="60" x2="484.29" y2="470" stroke="#f3f4f6" stroke-width="1"/>
<text x="484.29" y="492" font-size="12" text-anchor="middle" fill="#555555">24</text>
<line x1="501.43" y1="60" x2="501.43" y2="470" stroke="#f3f4f6" stroke-width="1"/>
<text x="501.43" y="492" font-size="12" text-anchor="middle" fill="#555555">25</text>
<line x1="518.57" y1="60" x2="518.57" y2="470" stroke="#f3f4f6" stroke-width="1"/>
<text x="518.57" y="492" font-size="12" text-anchor="middle" fill="#555555">26</text>
<line x1="535.71" y1="60" x2="535.71" y2="470" stroke="#f3f4f6" stroke-width="1"/>
<text x="535.71" y="492" font-size="12" text-anchor="middle" fill="#555555">27</text>
<line x1="552.86" y1="60" x2="552.86" y2="470" stroke="#f3f4f6" stroke-width="1"/>
<text x="552.86" y="492" font-size="12" text-anchor="middle" fill="#555555">28</text>
<line x1="570.00" y1="60" x2="570.00" y2="470" stroke="#f3f4f6" stroke-width="1"/>
<text x="570.00" y="492" font-size="12" text-anchor="middle" fill="#555555">29</text>
<line x1="587.14" y1="60" x2="587.14" y2="470" stroke="#f3f4f6" stroke-width="1"/>
<text x="587.14" y="492" font-size="12" text-anchor="middle" fill="#555555">30</text>
<line x1="604.29" y1="60" x2="604.29" y2="470" stroke="#f3f4f6" stroke-width="1"/>
<text x="604.29" y="492" font-size="12" text-anchor="middle" fill="#555555">31</text>
<line x1="621.43" y1="60" x2="621.43" y2="470" stroke="#f3f4f6" stroke-width="1"/>
<text x="621.43" y="492" font-size="12" text-anchor="middle" fill="#555555">32</text>
<line x1="638.57" y1="60" x2="638.57" y2="470" stroke="#f3f4f6" stroke-width="1"/>
<text x="638.57" y="492" font-size="12" text-anchor="middle" fill="#555555">33</text>
<line x1="655.71" y1="60" x2="655.71" y2="470" stroke="#f3f4f6" stroke-width="1"/>
<text x="655.71" y="492" font-size="12" text-anchor="middle" fill="#555555">34</text>
<line x1="672.86" y1="60" x2="672.86" y2="470" stroke="#f3f4f6" stroke-width="1"/>
<text x="672.86" y="492" font-size="12" text-anchor="middle" fill="#555555">35</text>
<line x1="690.00" y1="60" x2="690.00" y2="470" stroke="#f3f4f6" stroke-width="1"/>
<text x="690.00" y="492" font-size="12" text-anchor="middle" fill="#555555">36</text>
<line x1="707.14" y1="60" x2="707.14" y2="470" stroke="#f3f4f6" stroke-width="1"/>
<text x="707.14" y="492" font-size="12" text-anchor="middle" fill="#555555">37</text>
<line x1="724.29" y1="60" x2="724.29" y2="470" stroke="#f3f4f6" stroke-width="1"/>
<text x="724.29" y="492" font-size="12" text-anchor="middle" fill="#555555">38</text>
<line x1="741.43" y1="60" x2="741.43" y2="470" stroke="#f3f4f6" stroke-width="1"/>
<text x="741.43" y="492" font-size="12" text-anchor="middle" fill="#555555">39</text>
<line x1="758.57" y1="60" x2="758.57" y2="470" stroke="#f3f4f6" stroke-width="1"/>
<text x="758.57" y="492" font-size="12" text-anchor="middle" fill="#555555">40</text>
<line x1="775.71" y1="60" x2="775.71" y2="470" stroke="#f3f4f6" stroke-width="1"/>
<text x="775.71" y="492" font-size="12" text-anchor="middle" fill="#555555">41</text>
<line x1="792.86" y1="60" x2="792.86" y2="470" stroke="#f3f4f6" stroke-width="1"/>
<text x="792.86" y="492" font-size="12" text-anchor="middle" fill="#555555">42</text>
<line x1="810.00" y1="60" x2="810.00" y2="470" stroke="#f3f4f6" stroke-width="1"/>
<text x="810.00" y="492" font-size="12" text-anchor="middle" fill="#555555">43</text>
<line x1="827.14" y1="60" x2="827.14" y2="470" stroke="#f3f4f6" stroke-width="1"/>
<text x="827.14" y="492" font-size="12" text-anchor="middle" fill="#555555">44</text>
<line x1="844.29" y1="60" x2="844.29" y2="470" stroke="#f3f4f6" stroke-width="1"/>
<text x="844.29" y="492" font-size="12" text-anchor="middle" fill="#555555">45</text>
<line x1="861.43" y1="60" x2="861.43" y2="470" stroke="#f3f4f6" stroke-width="1"/>
<text x="861.43" y="492" font-size="12" text-anchor="middle" fill="#555555">46</text>
<line x1="878.57" y1="60" x2="878.57" y2="470" stroke="#f3f4f6" stroke-width="1"/>
<text x="878.57" y="492" font-size="12" text-anchor="middle" fill="#555555">47</text>
<line x1="895.71" y1="60" x2="895.71" y2="470" stroke="#f3f4f6" stroke-width="1"/>
<text x="895.71" y="492" font-size="12" text-anchor="middle" fill="#555555">48</text>
<line x1="912.86" y1="60" x2="912.86" y2="470" stroke="#f3f4f6" stroke-width="1"/>
<text x="912.86" y="492" font-size="12" text-anchor="middle" fill="#555555">49</text>
<line x1="930.00" y1="60" x2="930.00" y2="470" stroke="#f3f4f6" stroke-width="1"/>
<text x="930.00" y="492" font-size="12" text-anchor="middle" fill="#555555">50</text>
<polyline fill="none" stroke="#d97706" stroke-width="3" points="90.00,435.83 107.14,434.20 124.29,107.60 141.43,110.93 158.57,111.28 175.71,101.07 192.86,101.79 210.00,100.46 227.14,101.50 244.29,99.75 261.43,100.22 278.57,100.24 295.71,100.20 312.86,99.77 330.00,99.58 347.14,100.01 364.29,99.46 381.43,99.53 398.57,108.15 415.71,99.72 432.86,99.89 450.00,94.38 467.14,99.84 484.29,99.27 501.43,100.03 518.57,99.48 535.71,100.17 552.86,98.99 570.00,99.15 587.14,96.68 604.29,97.28 621.43,99.29 638.57,99.13 655.71,105.39 672.86,95.50 690.00,96.90 707.14,97.51 724.29,95.14 741.43,96.35 758.57,97.68 775.71,96.47 792.86,94.36 810.00,105.92 827.14,98.68 844.29,96.26 861.43,94.17 878.57,97.23 895.71,95.85 912.86,95.04 930.00,96.02"/>
<circle cx="90.00" cy="435.83" r="4.5" fill="#d97706" fill-opacity="0.9"/>
<circle cx="107.14" cy="434.20" r="4.5" fill="#d97706" fill-opacity="0.9"/>
<circle cx="124.29" cy="107.60" r="4.5" fill="#d97706" fill-opacity="0.9"/>
<circle cx="141.43" cy="110.93" r="4.5" fill="#d97706" fill-opacity="0.9"/>
<circle cx="158.57" cy="111.28" r="4.5" fill="#d97706" fill-opacity="0.9"/>
<circle cx="175.71" cy="101.07" r="4.5" fill="#d97706" fill-opacity="0.9"/>
<circle cx="192.86" cy="101.79" r="4.5" fill="#d97706" fill-opacity="0.9"/>
<circle cx="210.00" cy="100.46" r="4.5" fill="#d97706" fill-opacity="0.9"/>
<circle cx="227.14" cy="101.50" r="4.5" fill="#d97706" fill-opacity="0.9"/>
<circle cx="244.29" cy="99.75" r="4.5" fill="#d97706" fill-opacity="0.9"/>
<circle cx="261.43" cy="100.22" r="4.5" fill="#d97706" fill-opacity="0.9"/>
<circle cx="278.57" cy="100.24" r="4.5" fill="#d97706" fill-opacity="0.9"/>
<circle cx="295.71" cy="100.20" r="4.5" fill="#d97706" fill-opacity="0.9"/>
<circle cx="312.86" cy="99.77" r="4.5" fill="#d97706" fill-opacity="0.9"/>
<circle cx="330.00" cy="99.58" r="4.5" fill="#d97706" fill-opacity="0.9"/>
<circle cx="347.14" cy="100.01" r="4.5" fill="#d97706" fill-opacity="0.9"/>
<circle cx="364.29" cy="99.46" r="4.5" fill="#d97706" fill-opacity="0.9"/>
<circle cx="381.43" cy="99.53" r="4.5" fill="#d97706" fill-opacity="0.9"/>
<circle cx="398.57" cy="108.15" r="4.5" fill="#d97706" fill-opacity="0.9"/>
<circle cx="415.71" cy="99.72" r="4.5" fill="#d97706" fill-opacity="0.9"/>
<circle cx="432.86" cy="99.89" r="4.5" fill="#d97706" fill-opacity="0.9"/>
<circle cx="450.00" cy="94.38" r="4.5" fill="#d97706" fill-opacity="0.9"/>
<circle cx="467.14" cy="99.84" r="4.5" fill="#d97706" fill-opacity="0.9"/>
<circle cx="484.29" cy="99.27" r="4.5" fill="#d97706" fill-opacity="0.9"/>
<circle cx="501.43" cy="100.03" r="4.5" fill="#d97706" fill-opacity="0.9"/>
<circle cx="518.57" cy="99.48" r="4.5" fill="#d97706" fill-opacity="0.9"/>
<circle cx="535.71" cy="100.17" r="4.5" fill="#d97706" fill-opacity="0.9"/>
<circle cx="552.86" cy="98.99" r="4.5" fill="#d97706" fill-opacity="0.9"/>
<circle cx="570.00" cy="99.15" r="4.5" fill="#d97706" fill-opacity="0.9"/>
<circle cx="587.14" cy="96.68" r="4.5" fill="#d97706" fill-opacity="0.9"/>
<circle cx="604.29" cy="97.28" r="4.5" fill="#d97706" fill-opacity="0.9"/>
<circle cx="621.43" cy="99.29" r="4.5" fill="#d97706" fill-opacity="0.9"/>
<circle cx="638.57" cy="99.13" r="4.5" fill="#d97706" fill-opacity="0.9"/>
<circle cx="655.71" cy="105.39" r="4.5" fill="#d97706" fill-opacity="0.9"/>
<circle cx="672.86" cy="95.50" r="4.5" fill="#d97706" fill-opacity="0.9"/>
<circle cx="690.00" cy="96.90" r="4.5" fill="#d97706" fill-opacity="0.9"/>
<circle cx="707.14" cy="97.51" r="4.5" fill="#d97706" fill-opacity="0.9"/>
<circle cx="724.29" cy="95.14" r="4.5" fill="#d97706" fill-opacity="0.9"/>
<circle cx="741.43" cy="96.35" r="4.5" fill="#d97706" fill-opacity="0.9"/>
<circle cx="758.57" cy="97.68" r="4.5" fill="#d97706" fill-opacity="0.9"/>
<circle cx="775.71" cy="96.47" r="4.5" fill="#d97706" fill-opacity="0.9"/>
<circle cx="792.86" cy="94.36" r="4.5" fill="#d97706" fill-opacity="0.9"/>
<circle cx="810.00" cy="105.92" r="4.5" fill="#d97706" fill-opacity="0.9"/>
<circle cx="827.14" cy="98.68" r="4.5" fill="#d97706" fill-opacity="0.9"/>
<circle cx="844.29" cy="96.26" r="4.5" fill="#d97706" fill-opacity="0.9"/>
<circle cx="861.43" cy="94.17" r="4.5" fill="#d97706" fill-opacity="0.9"/>
<circle cx="878.57" cy="97.23" r="4.5" fill="#d97706" fill-opacity="0.9"/>
<circle cx="895.71" cy="95.85" r="4.5" fill="#d97706" fill-opacity="0.9"/>
<circle cx="912.86" cy="95.04" r="4.5" fill="#d97706" fill-opacity="0.9"/>
<circle cx="930.00" cy="96.02" r="4.5" fill="#d97706" fill-opacity="0.9"/>
<rect x="90" y="32" width="18" height="6" fill="#d97706"/>
<text x="114" y="38" font-size="13" fill="#333333">val</text>
<polyline fill="none" stroke="#059669" stroke-width="3" points="90.00,435.43 107.14,434.46 124.29,107.84 141.43,110.97 158.57,111.07 175.71,100.86 192.86,101.05 210.00,100.10 227.14,101.17 244.29,99.65 261.43,99.94 278.57,99.91 295.71,100.05 312.86,99.67 330.00,99.63 347.14,100.20 364.29,99.32 381.43,99.46 398.57,110.33 415.71,99.51 432.86,99.79 450.00,95.23 467.14,99.72 484.29,99.06 501.43,99.75 518.57,99.51 535.71,99.56 552.86,99.15 570.00,98.91 587.14,96.75 604.29,97.68 621.43,99.01 638.57,98.77 655.71,104.73 672.86,95.80 690.00,97.56 707.14,97.77 724.29,95.64 741.43,96.07 758.57,97.35 775.71,96.56 792.86,94.97 810.00,106.49 827.14,98.63 844.29,95.88 861.43,94.38 878.57,97.49 895.71,95.97 912.86,94.74 930.00,96.16"/>
<circle cx="90.00" cy="435.43" r="4.5" fill="#059669" fill-opacity="0.9"/>
<circle cx="107.14" cy="434.46" r="4.5" fill="#059669" fill-opacity="0.9"/>
<circle cx="124.29" cy="107.84" r="4.5" fill="#059669" fill-opacity="0.9"/>
<circle cx="141.43" cy="110.97" r="4.5" fill="#059669" fill-opacity="0.9"/>
<circle cx="158.57" cy="111.07" r="4.5" fill="#059669" fill-opacity="0.9"/>
<circle cx="175.71" cy="100.86" r="4.5" fill="#059669" fill-opacity="0.9"/>
<circle cx="192.86" cy="101.05" r="4.5" fill="#059669" fill-opacity="0.9"/>
<circle cx="210.00" cy="100.10" r="4.5" fill="#059669" fill-opacity="0.9"/>
<circle cx="227.14" cy="101.17" r="4.5" fill="#059669" fill-opacity="0.9"/>
<circle cx="244.29" cy="99.65" r="4.5" fill="#059669" fill-opacity="0.9"/>
<circle cx="261.43" cy="99.94" r="4.5" fill="#059669" fill-opacity="0.9"/>
<circle cx="278.57" cy="99.91" r="4.5" fill="#059669" fill-opacity="0.9"/>
<circle cx="295.71" cy="100.05" r="4.5" fill="#059669" fill-opacity="0.9"/>
<circle cx="312.86" cy="99.67" r="4.5" fill="#059669" fill-opacity="0.9"/>
<circle cx="330.00" cy="99.63" r="4.5" fill="#059669" fill-opacity="0.9"/>
<circle cx="347.14" cy="100.20" r="4.5" fill="#059669" fill-opacity="0.9"/>
<circle cx="364.29" cy="99.32" r="4.5" fill="#059669" fill-opacity="0.9"/>
<circle cx="381.43" cy="99.46" r="4.5" fill="#059669" fill-opacity="0.9"/>
<circle cx="398.57" cy="110.33" r="4.5" fill="#059669" fill-opacity="0.9"/>
<circle cx="415.71" cy="99.51" r="4.5" fill="#059669" fill-opacity="0.9"/>
<circle cx="432.86" cy="99.79" r="4.5" fill="#059669" fill-opacity="0.9"/>
<circle cx="450.00" cy="95.23" r="4.5" fill="#059669" fill-opacity="0.9"/>
<circle cx="467.14" cy="99.72" r="4.5" fill="#059669" fill-opacity="0.9"/>
<circle cx="484.29" cy="99.06" r="4.5" fill="#059669" fill-opacity="0.9"/>
<circle cx="501.43" cy="99.75" r="4.5" fill="#059669" fill-opacity="0.9"/>
<circle cx="518.57" cy="99.51" r="4.5" fill="#059669" fill-opacity="0.9"/>
<circle cx="535.71" cy="99.56" r="4.5" fill="#059669" fill-opacity="0.9"/>
<circle cx="552.86" cy="99.15" r="4.5" fill="#059669" fill-opacity="0.9"/>
<circle cx="570.00" cy="98.91" r="4.5" fill="#059669" fill-opacity="0.9"/>
<circle cx="587.14" cy="96.75" r="4.5" fill="#059669" fill-opacity="0.9"/>
<circle cx="604.29" cy="97.68" r="4.5" fill="#059669" fill-opacity="0.9"/>
<circle cx="621.43" cy="99.01" r="4.5" fill="#059669" fill-opacity="0.9"/>
<circle cx="638.57" cy="98.77" r="4.5" fill="#059669" fill-opacity="0.9"/>
<circle cx="655.71" cy="104.73" r="4.5" fill="#059669" fill-opacity="0.9"/>
<circle cx="672.86" cy="95.80" r="4.5" fill="#059669" fill-opacity="0.9"/>
<circle cx="690.00" cy="97.56" r="4.5" fill="#059669" fill-opacity="0.9"/>
<circle cx="707.14" cy="97.77" r="4.5" fill="#059669" fill-opacity="0.9"/>
<circle cx="724.29" cy="95.64" r="4.5" fill="#059669" fill-opacity="0.9"/>
<circle cx="741.43" cy="96.07" r="4.5" fill="#059669" fill-opacity="0.9"/>
<circle cx="758.57" cy="97.35" r="4.5" fill="#059669" fill-opacity="0.9"/>
<circle cx="775.71" cy="96.56" r="4.5" fill="#059669" fill-opacity="0.9"/>
<circle cx="792.86" cy="94.97" r="4.5" fill="#059669" fill-opacity="0.9"/>
<circle cx="810.00" cy="106.49" r="4.5" fill="#059669" fill-opacity="0.9"/>
<circle cx="827.14" cy="98.63" r="4.5" fill="#059669" fill-opacity="0.9"/>
<circle cx="844.29" cy="95.88" r="4.5" fill="#059669" fill-opacity="0.9"/>
<circle cx="861.43" cy="94.38" r="4.5" fill="#059669" fill-opacity="0.9"/>
<circle cx="878.57" cy="97.49" r="4.5" fill="#059669" fill-opacity="0.9"/>
<circle cx="895.71" cy="95.97" r="4.5" fill="#059669" fill-opacity="0.9"/>
<circle cx="912.86" cy="94.74" r="4.5" fill="#059669" fill-opacity="0.9"/>
<circle cx="930.00" cy="96.16" r="4.5" fill="#059669" fill-opacity="0.9"/>
<rect x="270" y="32" width="18" height="6" fill="#059669"/>
<text x="294" y="38" font-size="13" fill="#333333">test</text>
</svg>