<svg xmlns="http://www.w3.org/2000/svg" width="960" height="540">
<rect width="100%" height="100%" fill="#ffffff"/>
<text x="480.0" y="30" font-size="22" text-anchor="middle" fill="#111111">Character Accuracy</text>
<text x="20" y="270.0" font-size="16" transform="rotate(-90 20,270.0)" text-anchor="middle" fill="#333333">Accuracy</text>
<text x="480.0" y="520" font-size="16" text-anchor="middle" fill="#333333">Epoch</text>
<line x1="90" y1="60" x2="90" y2="470" stroke="#333333" stroke-width="2"/>
<line x1="90" y1="470" x2="930" y2="470" stroke="#333333" stroke-width="2"/>
<line x1="90" y1="470.00" x2="930" y2="470.00" stroke="#e5e7eb" stroke-width="1"/>
<text x="80" y="475.00" font-size="12" text-anchor="end" fill="#555555">-0.0691</text>
<line x1="90" y1="367.50" x2="930" y2="367.50" stroke="#e5e7eb" stroke-width="1"/>
<text x="80" y="372.50" font-size="12" text-anchor="end" fill="#555555">0.2194</text>
<line x1="90" y1="265.00" x2="930" y2="265.00" stroke="#e5e7eb" stroke-width="1"/>
<text x="80" y="270.00" font-size="12" text-anchor="end" fill="#555555">0.5078</text>
<line x1="90" y1="162.50" x2="930" y2="162.50" stroke="#e5e7eb" stroke-width="1"/>
<text x="80" y="167.50" font-size="12" text-anchor="end" fill="#555555">0.7963</text>
<line x1="90" y1="60.00" x2="930" y2="60.00" stroke="#e5e7eb" stroke-width="1"/>
<text x="80" y="65.00" font-size="12" text-anchor="end" fill="#555555">1.0848</text>
<line x1="90.00" y1="60" x2="90.00" y2="470" stroke="#f3f4f6" stroke-width="1"/>
<text x="90.00" y="492" font-size="12" text-anchor="middle" fill="#555555">1</text>
<line x1="107.14" y1="60" x2="107.14" y2="470" stroke="#f3f4f6" stroke-width="1"/>
<text x="107.14" y="492" font-size="12" text-anchor="middle" fill="#555555">2</text>
<line x1="124.29" y1="60" x2="124.29" y2="470" stroke="#f3f4f6" stroke-width="1"/>
<text x="124.29" y="492" font-size="12" text-anchor="middle" fill="#555555">3</text>
<line x1="141.43" y1="60" x2="141.43" y2="470" stroke="#f3f4f6" stroke-width="1"/>
<text x="141.43" y="492" font-size="12" text-anchor="middle" fill="#555555">4</text>
<line x1="158.57" y1="60" x2="158.57" y2="470" stroke="#f3f4f6" stroke-width="1"/>
<text x="158.57" y="492" font-size="12" text-anchor="middle" fill="#555555">5</text>
<line x1="175.71" y1="60" x2="175.71" y2="470" stroke="#f3f4f6" stroke-width="1"/>
<text x="175.71" y="492" font-size="12" text-anchor="middle" fill="#555555">6</text>
<line x1="192.86" y1="60" x2="192.86" y2="470" stroke="#f3f4f6" stroke-width="1"/>
<text x="192.86" y="492" font-size="12" text-anchor="middle" fill="#555555">7</text>
<line x1="210.00" y1="60" x2="210.00" y2="470" stroke="#f3f4f6" stroke-width="1"/>
<text x="210.00" y="492" font-size="12" text-anchor="middle" fill="#555555">8</text>
<line x1="227.14" y1="60" x2="227.14" y2="470" stroke="#f3f4f6" stroke-width="1"/>
<text x="227.14" y="492" font-size="12" text-anchor="middle" fill="#555555">9</text>
<line x1="244.29" y1="60" x2="244.29" y2="470" stroke="#f3f4f6" stroke-width="1"/>
<text x="244.29" y="492" font-size="12" text-anchor="middle" fill="#555555">10</text>
<line x1="261.43" y1="60" x2="261.43" y2="470" stroke="#f3f4f6" stroke-width="1"/>
<text x="261.43" y="492" font-size="12" text-anchor="middle" fill="#555555">11</text>
<line x1="278.57" y1="60" x2="278.57" y2="470" stroke="#f3f4f6" stroke-width="1"/>
<text x="278.57" y="492" font-size="12" text-anchor="middle" fill="#555555">12</text>
<line x1="295.71" y1="60" x2="295.71" y2="470" stroke="#f3f4f6" stroke-width="1"/>
<text x="295.71" y="492" font-size="12" text-anchor="middle" fill="#555555">13</text>
<line x1="312.86" y1="60" x2="312.86" y2="470" stroke="#f3f4f6" stroke-width="1"/>
<text x="312.86" y="492" font-size="12" text-anchor="middle" fill="#555555">14</text>
<line x1="330.00" y1="60" x2="330.00" y2="470" stroke="#f3f4f6" stroke-width="1"/>
<text x="330.00" y="492" font-size="12" text-anchor="middle" fill="#555555">15</text>
<line x1="347.14" y1="60" x2="347.14" y2="470" stroke="#f3f4f6" stroke-width="1"/>
<text x="347.14" y="492" font-size="12" text-anchor="middle" fill="#555555">16</text>
<line x1="364.29" y1="60" x2="364.29" y2="470" stroke="#f3f4f6" stroke-width="1"/>
<text x="364.29" y="492" font-size="12" text-anchor="middle" fill="#555555">17</text>
<line x1="381.43" y1="60" x2="381.43" y2="470" stroke="#f3f4f6" stroke-width="1"/>
<text x="381.43" y="492" font-size="12" text-anchor="middle" fill="#555555">18</text>
<line x1="398.57" y1="60" x2="398.57" y2="470" stroke="#f3f4f6" stroke-width="1"/>
<text x="398.57" y="492" font-size="12" text-anchor="middle" fill="#555555">19</text>
<line x1="415.71" y1="60" x2="415.71" y2="470" stroke="#f3f4f6" stroke-width="1"/>
<text x="415.71" y="492" font-size="12" text-anchor="middle" fill="#555555">20</text>
<line x1="432.86" y1="60" x2="432.86" y2="470" stroke="#f3f4f6" stroke-width="1"/>
<text x="432.86" y="492" font-size="12" text-anchor="middle" fill="#555555">21</text>
<line x1="450.00" y1="60" x2="450.00" y2="470" stroke="#f3f4f6" stroke-width="1"/>
<text x="450.00" y="492" font-size="12" text-anchor="middle" fill="#555555">22</text>
<line x1="467.14" y1="60" x2="467.14" y2="470" stroke="#f3f4f6" stroke-width="1"/>
<text x="467.14" y="492" font-size="12" text-anchor="middle" fill="#555555">23</text>
<line x1="484.29" y1="60" x2="484.29" y2="470" stroke="#f3f4f6" stroke-width="1"/>
<text x="484.29" y="492" font-size="12" text-anchor="middle" fill="#555555">24</text>
<line x1="501.43" y1="60" x2="501.43" y2="470" stroke="#f3f4f6" stroke-width="1"/>
<text x="501.43" y="492" font-size="12" text-anchor="middle" fill="#555555">25</text>
<line x1="518.57" y1="60" x2="518.57" y2="470" stroke="#f3f4f6" stroke-width="1"/>
<text x="518.57" y="492" font-size="12" text-anchor="middle" fill="#555555">26</text>
<line x1="535.71" y1="60" x2="535.71" y2="470" stroke="#f3f4f6" stroke-width="1"/>
<text x="535.71" y="492" font-size="12" text-anchor="middle" fill="#555555">27</text>
<line x1="552.86" y1="60" x2="552.86" y2="470" stroke="#f3f4f6" stroke-width="1"/>
<text x="552.86" y="492" font-size="12" text-anchor="middle" fill="#555555">28</text>
<line x1="570.00" y1="60" x2="570.00" y2="470" stroke="#f3f4f6" stroke-width="1"/>
<text x="570.00" y="492" font-size="12" text-anchor="middle" fill="#555555">29</text>
<line x1="587.14" y1="60" x2="587.14" y2="470" stroke="#f3f4f6" stroke-width="1"/>
<text x="587.14" y="492" font-size="12" text-anchor="middle" fill="#555555">30</text>
<line x1="604.29" y1="60" x2="604.29" y2="470" stroke="#f3f4f6" stroke-width="1"/>
<text x="604.29" y="492" font-size="12" text-anchor="middle" fill="#555555">31</text>
<line x1="621.43" y1="60" x2="621.43" y2="470" stroke="#f3f4f6" stroke-width="1"/>
<text x="621.43" y="492" font-size="12" text-anchor="middle" fill="#555555">32</text>
<line x1="638.57" y1="60" x2="638.57" y2="470" stroke="#f3f4f6" stroke-width="1"/>
<text x="638.57" y="492" font-size="12" text-anchor="middle" fill="#555555">33</text>
<line x1="655.71" y1="60" x2="655.71" y2="470" stroke="#f3f4f6" stroke-width="1"/>
<text x="655.71" y="492" font-size="12" text-anchor="middle" fill="#555555">34</text>
<line x1="672.86" y1="60" x2="672.86" y2="470" stroke="#f3f4f6" stroke-width="1"/>
<text x="672.86" y="492" font-size="12" text-anchor="middle" fill="#555555">35</text>
<line x1="690.00" y1="60" x2="690.00" y2="470" stroke="#f3f4f6" stroke-width="1"/>
<text x="690.00" y="492" font-size="12" text-anchor="middle" fill="#555555">36</text>
<line x1="707.14" y1="60" x2="707.14" y2="470" stroke="#f3f4f6" stroke-width="1"/>
<text x="707.14" y="492" font-size="12" text-anchor="middle" fill="#555555">37</text>
<line x1="724.29" y1="60" x2="724.29" y2="470" stroke="#f3f4f6" stroke-width="1"/>
<text x="724.29" y="492" font-size="12" text-anchor="middle" fill="#555555">38</text>
<line x1="741.43" y1="60" x2="741.43" y2="470" stroke="#f3f4f6" stroke-width="1"/>
<text x="741.43" y="492" font-size="12" text-anchor="middle" fill="#555555">39</text>
<line x1="758.57" y1="60" x2="758.57" y2="470" stroke="#f3f4f6" stroke-width="1"/>
<text x="758.57" y="492" font-size="12" text-anchor="middle" fill="#555555">40</text>
<line x1="775.71" y1="60" x2="775.71" y2="470" stroke="#f3f4f6" stroke-width="1"/>
<text x="775.71" y="492" font-size="12" text-anchor="middle" fill="#555555">41</text>
<line x1="792.86" y1="60" x2="792.86" y2="470" stroke="#f3f4f6" stroke-width="1"/>
<text x="792.86" y="492" font-size="12" text-anchor="middle" fill="#555555">42</text>
<line x1="810.00" y1="60" x2="810.00" y2="470" stroke="#f3f4f6" stroke-width="1"/>
<text x="810.00" y="492" font-size="12" text-anchor="middle" fill="#555555">43</text>
<line x1="827.14" y1="60" x2="827.14" y2="470" stroke="#f3f4f6" stroke-width="1"/>
<text x="827.14" y="492" font-size="12" text-anchor="middle" fill="#555555">44</text>
<line x1="844.29" y1="60" x2="844.29" y2="470" stroke="#f3f4f6" stroke-width="1"/>
<text x="844.29" y="492" font-size="12" text-anchor="middle" fill="#555555">45</text>
<line x1="861.43" y1="60" x2="861.43" y2="470" stroke="#f3f4f6" stroke-width="1"/>
<text x="861.43" y="492" font-size="12" text-anchor="middle" fill="#555555">46</text>
<line x1="878.57" y1="60" x2="878.57" y2="470" stroke="#f3f4f6" stroke-width="1"/>
<text x="878.57" y="492" font-size="12" text-anchor="middle" fill="#555555">47</text>
<line x1="895.71" y1="60" x2="895.71" y2="470" stroke="#f3f4f6" stroke-width="1"/>
<text x="895.71" y="492" font-size="12" text-anchor="middle" fill="#555555">48</text>
<line x1="912.86" y1="60" x2="912.86" y2="470" stroke="#f3f4f6" stroke-width="1"/>
<text x="912.86" y="492" font-size="12" text-anchor="middle" fill="#555555">49</text>
<line x1="930.00" y1="60" x2="930.00" y2="470" stroke="#f3f4f6" stroke-width="1"/>
<text x="930.00" y="492" font-size="12" text-anchor="middle" fill="#555555">50</text>
<polyline fill="none" stroke="#d97706" stroke-width="3" points="90.00,122.83 107.14,135.95 124.29,154.49 141.43,97.46 158.57,99.81 175.71,97.99 192.86,102.00 210.00,187.86 227.14,95.84 244.29,117.17 261.43,96.15 278.57,95.23 295.71,95.48 312.86,95.93 330.00,97.35 347.14,106.61 364.29,94.39 381.43,94.44 398.57,94.17 415.71,94.91 432.86,435.81 450.00,435.83 467.14,435.30 484.29,434.63 501.43,142.17 518.57,168.72 535.71,120.40 552.86,124.08 570.00,432.28 587.14,433.51 604.29,98.12 621.43,106.02 638.57,143.52 655.71,122.48 672.86,118.97 690.00,100.59 707.14,111.25 724.29,115.49 741.43,145.78 758.57,117.77 775.71,156.62 792.86,111.02 810.00,156.79 827.14,101.33 844.29,113.16 861.43,116.44 878.57,107.54 895.71,116.96 912.86,152.91 930.00,112.26"/>
<circle cx="90.00" cy="122.83" r="4.5" fill="#d97706" fill-opacity="0.9"/>
<circle cx="107.14" cy="135.95" r="4.5" fill="#d97706" fill-opacity="0.9"/>
<circle cx="124.29" cy="154.49" r="4.5" fill="#d97706" fill-opacity="0.9"/>
<circle cx="141.43" cy="97.46" r="4.5" fill="#d97706" fill-opacity="0.9"/>
<circle cx="158.57" cy="99.81" r="4.5" fill="#d97706" fill-opacity="0.9"/>
<circle cx="175.71" cy="97.99" r="4.5" fill="#d97706" fill-opacity="0.9"/>
<circle cx="192.86" cy="102.00" r="4.5" fill="#d97706" fill-opacity="0.9"/>
<circle cx="210.00" cy="187.86" r="4.5" fill="#d97706" fill-opacity="0.9"/>
<circle cx="227.14" cy="95.84" r="4.5" fill="#d97706" fill-opacity="0.9"/>
<circle cx="244.29" cy="117.17" r="4.5" fill="#d97706" fill-opacity="0.9"/>
<circle cx="261.43" cy="96.15" r="4.5" fill="#d97706" fill-opacity="0.9"/>
<circle cx="278.57" cy="95.23" r="4.5" fill="#d97706" fill-opacity="0.9"/>
<circle cx="295.71" cy="95.48" r="4.5" fill="#d97706" fill-opacity="0.9"/>
<circle cx="312.86" cy="95.93" r="4.5" fill="#d97706" fill-opacity="0.9"/>
<circle cx="330.00" cy="97.35" r="4.5" fill="#d97706" fill-opacity="0.9"/>
<circle cx="347.14" cy="106.61" r="4.5" fill="#d97706" fill-opacity="0.9"/>
<circle cx="364.29" cy="94.39" r="4.5" fill="#d97706" fill-opacity="0.9"/>
<circle cx="381.43" cy="94.44" r="4.5" fill="#d97706" fill-opacity="0.9"/>
<circle cx="398.57" cy="94.17" r="4.5" fill="#d97706" fill-opacity="0.9"/>
<circle cx="415.71" cy="94.91" r="4.5" fill="#d97706" fill-opacity="0.9"/>
<circle cx="432.86" cy="435.81" r="4.5" fill="#d97706" fill-opacity="0.9"/>
<circle cx="450.00" cy="435.83" r="4.5" fill="#d97706" fill-opacity="0.9"/>
<circle cx="467.14" cy="435.30" r="4.5" fill="#d97706" fill-opacity="0.9"/>
<circle cx="484.29" cy="434.63" r="4.5" fill="#d97706" fill-opacity="0.9"/>
<circle cx="501.43" cy="142.17" r="4.5" fill="#d97706" fill-opacity="0.9"/>
<circle cx="518.57" cy="168.72" r="4.5" fill="#d97706" fill-opacity="0.9"/>
<circle cx="535.71" cy="120.40" r="4.5" fill="#d97706" fill-opacity="0.9"/>
<circle cx="552.86" cy="124.08" r="4.5" fill="#d97706" fill-opacity="0.9"/>
<circle cx="570.00" cy="432.28" r="4.5" fill="#d97706" fill-opacity="0.9"/>
<circle cx="587.14" cy="433.51" r="4.5" fill="#d97706" fill-opacity="0.9"/>
<circle cx="604.29" cy="98.12" r="4.5" fill="#d97706" fill-opacity="0.9"/>
<circle cx="621.43" cy="106.02" r="4.5" fill="#d97706" fill-opacity="0.9"/>
<circle cx="638.57" cy="143.52" r="4.5" fill="#d97706" fill-opacity="0.9"/>
<circle cx="655.71" cy="122.48" r="4.5" fill="#d97706" fill-opacity="0.9"/>
<circle cx="672.86" cy="118.97" r="4.5" fill="#d97706" fill-opacity="0.9"/>
<circle cx="690.00" cy="100.59" r="4.5" fill="#d97706" fill-opacity="0.9"/>
<circle cx="707.14" cy="111.25" r="4.5" fill="#d97706" fill-opacity="0.9"/>
<circle cx="724.29" cy="115.49" r="4.5" fill="#d97706" fill-opacity="0.9"/>
<circle cx="741.43" cy="145.78" r="4.5" fill="#d97706" fill-opacity="0.9"/>
<circle cx="758.57" cy="117.77" r="4.5" fill="#d97706" fill-opacity="0.9"/>
<circle cx="775.71" cy="156.62" r="4.5" fill="#d97706" fill-opacity="0.9"/>
<circle cx="792.86" cy="111.02" r="4.5" fill="#d97706" fill-opacity="0.9"/>
<circle cx="810.00" cy="156.79" r="4.5" fill="#d97706" fill-opacity="0.9"/>
<circle cx="827.14" cy="101.33" r="4.5" fill="#d97706" fill-opacity="0.9"/>
<circle cx="844.29" cy="113.16" r="4.5" fill="#d97706" fill-opacity="0.9"/>
<circle cx="861.43" cy="116.44" r="4.5" fill="#d97706" fill-opacity="0.9"/>
<circle cx="878.57" cy="107.54" r="4.5" fill="#d97706" fill-opacity="0.9"/>
<circle cx="895.71" cy="116.96" r="4.5" fill="#d97706" fill-opacity="0.9"/>
<circle cx="912.86" cy="152.91" r="4.5" fill="#d97706" fill-opacity="0.9"/>
<circle cx="930.00" cy="112.26" r="4.5" fill="#d97706" fill-opacity="0.9"/>
<rect x="90" y="32" width="18" height="6" fill="#d97706"/>
<text x="114" y="38" font-size="13" fill="#333333">val</text>
<polyline fill="none" stroke="#059669" stroke-width="3" points="90.00,122.80 107.14,136.39 124.29,155.38 141.43,97.77 158.57,99.78 175.71,98.14 192.86,101.78 210.00,187.67 227.14,96.23 244.29,117.49 261.43,96.24 278.57,95.44 295.71,95.31 312.86,96.04 330.00,97.35 347.14,106.50 364.29,94.58 381.43,94.60 398.57,94.18 415.71,94.79 432.86,435.77 450.00,435.40 467.14,435.05 484.29,434.55 501.43,142.51 518.57,169.23 535.71,120.69 552.86,123.97 570.00,432.50 587.14,433.40 604.29,98.31 621.43,106.10 638.57,143.42 655.71,123.14 672.86,119.30 690.00,100.86 707.14,111.65 724.29,115.73 741.43,145.71 758.57,117.86 775.71,155.29 792.86,111.39 810.00,156.37 827.14,101.39 844.29,112.50 861.43,116.34 878.57,107.67 895.71,116.71 912.86,153.53 930.00,113.02"/>
<circle cx="90.00" cy="122.80" r="4.5" fill="#059669" fill-opacity="0.9"/>
<circle cx="107.14" cy="136.39" r="4.5" fill="#059669" fill-opacity="0.9"/>
<circle cx="124.29" cy="155.38" r="4.5" fill="#059669" fill-opacity="0.9"/>
<circle cx="141.43" cy="97.77" r="4.5" fill="#059669" fill-opacity="0.9"/>
<circle cx="158.57" cy="99.78" r="4.5" fill="#059669" fill-opacity="0.9"/>
<circle cx="175.71" cy="98.14" r="4.5" fill="#059669" fill-opacity="0.9"/>
<circle cx="192.86" cy="101.78" r="4.5" fill="#059669" fill-opacity="0.9"/>
<circle cx="210.00" cy="187.67" r="4.5" fill="#059669" fill-opacity="0.9"/>
<circle cx="227.14" cy="96.23" r="4.5" fill="#059669" fill-opacity="0.9"/>
<circle cx="244.29" cy="117.49" r="4.5" fill="#059669" fill-opacity="0.9"/>
<circle cx="261.43" cy="96.24" r="4.5" fill="#059669" fill-opacity="0.9"/>
<circle cx="278.57" cy="95.44" r="4.5" fill="#059669" fill-opacity="0.9"/>
<circle cx="295.71" cy="95.31" r="4.5" fill="#059669" fill-opacity="0.9"/>
<circle cx="312.86" cy="96.04" r="4.5" fill="#059669" fill-opacity="0.9"/>
<circle cx="330.00" cy="97.35" r="4.5" fill="#059669" fill-opacity="0.9"/>
<circle cx="347.14" cy="106.50" r="4.5" fill="#059669" fill-opacity="0.9"/>
<circle cx="364.29" cy="94.58" r="4.5" fill="#059669" fill-opacity="0.9"/>
<circle cx="381.43" cy="94.60" r="4.5" fill="#059669" fill-opacity="0.9"/>
<circle cx="398.57" cy="94.18" r="4.5" fill="#059669" fill-opacity="0.9"/>
<circle cx="415.71" cy="94.79" r="4.5" fill="#059669" fill-opacity="0.9"/>
<circle cx="432.86" cy="435.77" r="4.5" fill="#059669" fill-opacity="0.9"/>
<circle cx="450.00" cy="435.40" r="4.5" fill="#059669" fill-opacity="0.9"/>
<circle cx="467.14" cy="435.05" r="4.5" fill="#059669" fill-opacity="0.9"/>
<circle cx="484.29" cy="434.55" r="4.5" fill="#059669" fill-opacity="0.9"/>
<circle cx="501.43" cy="142.51" r="4.5" fill="#059669" fill-opacity="0.9"/>
<circle cx="518.57" cy="169.23" r="4.5" fill="#059669" fill-opacity="0.9"/>
<circle cx="535.71" cy="120.69" r="4.5" fill="#059669" fill-opacity="0.9"/>
<circle cx="552.86" cy="123.97" r="4.5" fill="#059669" fill-opacity="0.9"/>
<circle cx="570.00" cy="432.50" r="4.5" fill="#059669" fill-opacity="0.9"/>
<circle cx="587.14" cy="433.40" r="4.5" fill="#059669" fill-opacity="0.9"/>
<circle cx="604.29" cy="98.31" r="4.5" fill="#059669" fill-opacity="0.9"/>
<circle cx="621.43" cy="106.10" r="4.5" fill="#059669" fill-opacity="0.9"/>
<circle cx="638.57" cy="143.42" r="4.5" fill="#059669" fill-opacity="0.9"/>
<circle cx="655.71" cy="123.14" r="4.5" fill="#059669" fill-opacity="0.9"/>
<circle cx="672.86" cy="119.30" r="4.5" fill="#059669" fill-opacity="0.9"/>
<circle cx="690.00" cy="100.86" r="4.5" fill="#059669" fill-opacity="0.9"/>
<circle cx="707.14" cy="111.65" r="4.5" fill="#059669" fill-opacity="0.9"/>
<circle cx="724.29" cy="115.73" r="4.5" fill="#059669" fill-opacity="0.9"/>
<circle cx="741.43" cy="145.71" r="4.5" fill="#059669" fill-opacity="0.9"/>
<circle cx="758.57" cy="117.86" r="4.5" fill="#059669" fill-opacity="0.9"/>
<circle cx="775.71" cy="155.29" r="4.5" fill="#059669" fill-opacity="0.9"/>
<circle cx="792.86" cy="111.39" r="4.5" fill="#059669" fill-opacity="0.9"/>
<circle cx="810.00" cy="156.37" r="4.5" fill="#059669" fill-opacity="0.9"/>
<circle cx="827.14" cy="101.39" r="4.5" fill="#059669" fill-opacity="0.9"/>
<circle cx="844.29" cy="112.50" r="4.5" fill="#059669" fill-opacity="0.9"/>
<circle cx="861.43" cy="116.34" r="4.5" fill="#059669" fill-opacity="0.9"/>
<circle cx="878.57" cy="107.67" r="4.5" fill="#059669" fill-opacity="0.9"/>
<circle cx="895.71" cy="116.71" r="4.5" fill="#059669" fill-opacity="0.9"/>
<circle cx="912.86" cy="153.53" r="4.5" fill="#059669" fill-opacity="0.9"/>
<circle cx="930.00" cy="113.02" r="4.5" fill="#059669" fill-opacity="0.9"/>
<rect x="270" y="32" width="18" height="6" fill="#059669"/>
<text x="294" y="38" font-size="13" fill="#333333">test</text>
</svg>