<svg xmlns="http://www.w3.org/2000/svg" width="960" height="540">
<rect width="100%" height="100%" fill="#ffffff"/>
<text x="480.0" y="30" font-size="22" text-anchor="middle" fill="#111111">Position 3 Accuracy</text>
<text x="20" y="270.0" font-size="16" transform="rotate(-90 20,270.0)" text-anchor="middle" fill="#333333">Accuracy</text>
<text x="480.0" y="520" font-size="16" text-anchor="middle" fill="#333333">Epoch</text>
<line x1="90" y1="60" x2="90" y2="470" stroke="#333333" stroke-width="2"/>
<line x1="90" y1="470" x2="930" y2="470" stroke="#333333" stroke-width="2"/>
<line x1="90" y1="470.00" x2="930" y2="470.00" stroke="#e5e7eb" stroke-width="1"/>
<text x="80" y="475.00" font-size="12" text-anchor="end" fill="#555555">-0.0696</text>
<line x1="90" y1="367.50" x2="930" y2="367.50" stroke="#e5e7eb" stroke-width="1"/>
<text x="80" y="372.50" font-size="12" text-anchor="end" fill="#555555">0.2190</text>
<line x1="90" y1="265.00" x2="930" y2="265.00" stroke="#e5e7eb" stroke-width="1"/>
<text x="80" y="270.00" font-size="12" text-anchor="end" fill="#555555">0.5076</text>
<line x1="90" y1="162.50" x2="930" y2="162.50" stroke="#e5e7eb" stroke-width="1"/>
<text x="80" y="167.50" font-size="12" text-anchor="end" fill="#555555">0.7961</text>
<line x1="90" y1="60.00" x2="930" y2="60.00" stroke="#e5e7eb" stroke-width="1"/>
<text x="80" y="65.00" font-size="12" text-anchor="end" fill="#555555">1.0847</text>
<line x1="90.00" y1="60" x2="90.00" y2="470" stroke="#f3f4f6" stroke-width="1"/>
<text x="90.00" y="492" font-size="12" text-anchor="middle" fill="#555555">1</text>
<line x1="107.14" y1="60" x2="107.14" y2="470" stroke="#f3f4f6" stroke-width="1"/>
<text x="107.14" y="492" font-size="12" text-anchor="middle" fill="#555555">2</text>
<line x1="124.29" y1="60" x2="124.29" y2="470" stroke="#f3f4f6" stroke-width="1"/>
<text x="124.29" y="492" font-size="12" text-anchor="middle" fill="#555555">3</text>
<line x1="141.43" y1="60" x2="141.43" y2="470" stroke="#f3f4f6" stroke-width="1"/>
<text x="141.43" y="492" font-size="12" text-anchor="middle" fill="#555555">4</text>
<line x1="158.57" y1="60" x2="158.57" y2="470" stroke="#f3f4f6" stroke-width="1"/>
<text x="158.57" y="492" font-size="12" text-anchor="middle" fill="#555555">5</text>
<line x1="175.71" y1="60" x2="175.71" y2="470" stroke="#f3f4f6" stroke-width="1"/>
<text x="175.71" y="492" font-size="12" text-anchor="middle" fill="#555555">6</text>
<line x1="192.86" y1="60" x2="192.86" y2="470" stroke="#f3f4f6" stroke-width="1"/>
<text x="192.86" y="492" font-size="12" text-anchor="middle" fill="#555555">7</text>
<line x1="210.00" y1="60" x2="210.00" y2="470" stroke="#f3f4f6" stroke-width="1"/>
<text x="210.00" y="492" font-size="12" text-anchor="middle" fill="#555555">8</text>
<line x1="227.14" y1="60" x2="227.14" y2="470" stroke="#f3f4f6" stroke-width="1"/>
<text x="227.14" y="492" font-size="12" text-anchor="middle" fill="#555555">9</text>
<line x1="244.29" y1="60" x2="244.29" y2="470" stroke="#f3f4f6" stroke-width="1"/>
<text x="244.29" y="492" font-size="12" text-anchor="middle" fill="#555555">10</text>
<line x1="261.43" y1="60" x2="261.43" y2="470" stroke="#f3f4f6" stroke-width="1"/>
<text x="261.43" y="492" font-size="12" text-anchor="middle" fill="#555555">11</text>
<line x1="278.57" y1="60" x2="278.57" y2="470" stroke="#f3f4f6" stroke-width="1"/>
<text x="278.57" y="492" font-size="12" text-anchor="middle" fill="#555555">12</text>
<line x1="295.71" y1="60" x2="295.71" y2="470" stroke="#f3f4f6" stroke-width="1"/>
<text x="295.71" y="492" font-size="12" text-anchor="middle" fill="#555555">13</text>
<line x1="312.86" y1="60" x2="312.86" y2="470" stroke="#f3f4f6" stroke-width="1"/>
<text x="312.86" y="492" font-size="12" text-anchor="middle" fill="#555555">14</text>
<line x1="330.00" y1="60" x2="330.00" y2="470" stroke="#f3f4f6" stroke-width="1"/>
<text x="330.00" y="492" font-size="12" text-anchor="middle" fill="#555555">15</text>
<line x1="347.14" y1="60" x2="347.14" y2="470" stroke="#f3f4f6" stroke-width="1"/>
<text x="347.14" y="492" font-size="12" text-anchor="middle" fill="#555555">16</text>
<line x1="364.29" y1="60" x2="364.29" y2="470" stroke="#f3f4f6" stroke-width="1"/>
<text x="364.29" y="492" font-size="12" text-anchor="middle" fill="#555555">17</text>
<line x1="381.43" y1="60" x2="381.43" y2="470" stroke="#f3f4f6" stroke-width="1"/>
<text x="381.43" y="492" font-size="12" text-anchor="middle" fill="#555555">18</text>
<line x1="398.57" y1="60" x2="398.57" y2="470" stroke="#f3f4f6" stroke-width="1"/>
<text x="398.57" y="492" font-size="12" text-anchor="middle" fill="#555555">19</text>
<line x1="415.71" y1="60" x2="415.71" y2="470" stroke="#f3f4f6" stroke-width="1"/>
<text x="415.71" y="492" font-size="12" text-anchor="middle" fill="#555555">20</text>
<line x1="432.86" y1="60" x2="432.86" y2="470" stroke="#f3f4f6" stroke-width="1"/>
<text x="432.86" y="492" font-size="12" text-anchor="middle" fill="#555555">21</text>
<line x1="450.00" y1="60" x2="450.00" y2="470" stroke="#f3f4f6" stroke-width="1"/>
<text x="450.00" y="492" font-size="12" text-anchor="middle" fill="#555555">22</text>
<line x1="467.14" y1="60" x2="467.14" y2="470" stroke="#f3f4f6" stroke-width="1"/>
<text x="467.14" y="492" font-size="12" text-anchor="middle" fill="#555555">23</text>
<line x1="484.29" y1="60" x2="484.29" y2="470" stroke="#f3f4f6" stroke-width="1"/>
<text x="484.29" y="492" font-size="12" text-anchor="middle" fill="#555555">24</text>
<line x1="501.43" y1="60" x2="501.43" y2="470" stroke="#f3f4f6" stroke-width="1"/>
<text x="501.43" y="492" font-size="12" text-anchor="middle" fill="#555555">25</text>
<line x1="518.57" y1="60" x2="518.57" y2="470" stroke="#f3f4f6" stroke-width="1"/>
<text x="518.57" y="492" font-size="12" text-anchor="middle" fill="#555555">26</text>
<line x1="535.71" y1="60" x2="535.71" y2="470" stroke="#f3f4f6" stroke-width="1"/>
<text x="535.71" y="492" font-size="12" text-anchor="middle" fill="#555555">27</text>
<line x1="552.86" y1="60" x2="552.86" y2="470" stroke="#f3f4f6" stroke-width="1"/>
<text x="552.86" y="492" font-size="12" text-anchor="middle" fill="#555555">28</text>
<line x1="570.00" y1="60" x2="570.00" y2="470" stroke="#f3f4f6" stroke-width="1"/>
<text x="570.00" y="492" font-size="12" text-anchor="middle" fill="#555555">29</text>
<line x1="587.14" y1="60" x2="587.14" y2="470" stroke="#f3f4f6" stroke-width="1"/>
<text x="587.14" y="492" font-size="12" text-anchor="middle" fill="#555555">30</text>
<line x1="604.29" y1="60" x2="604.29" y2="470" stroke="#f3f4f6" stroke-width="1"/>
<text x="604.29" y="492" font-size="12" text-anchor="middle" fill="#555555">31</text>
<line x1="621.43" y1="60" x2="621.43" y2="470" stroke="#f3f4f6" stroke-width="1"/>
<text x="621.43" y="492" font-size="12" text-anchor="middle" fill="#555555">32</text>
<line x1="638.57" y1="60" x2="638.57" y2="470" stroke="#f3f4f6" stroke-width="1"/>
<text x="638.57" y="492" font-size="12" text-anchor="middle" fill="#555555">33</text>
<line x1="655.71" y1="60" x2="655.71" y2="470" stroke="#f3f4f6" stroke-width="1"/>
<text x="655.71" y="492" font-size="12" text-anchor="middle" fill="#555555">34</text>
<line x1="672.86" y1="60" x2="672.86" y2="470" stroke="#f3f4f6" stroke-width="1"/>
<text x="672.86" y="492" font-size="12" text-anchor="middle" fill="#555555">35</text>
<line x1="690.00" y1="60" x2="690.00" y2="470" stroke="#f3f4f6" stroke-width="1"/>
<text x="690.00" y="492" font-size="12" text-anchor="middle" fill="#555555">36</text>
<line x1="707.14" y1="60" x2="707.14" y2="470" stroke="#f3f4f6" stroke-width="1"/>
<text x="707.14" y="492" font-size="12" text-anchor="middle" fill="#555555">37</text>
<line x1="724.29" y1="60" x2="724.29" y2="470" stroke="#f3f4f6" stroke-width="1"/>
<text x="724.29" y="492" font-size="12" text-anchor="middle" fill="#555555">38</text>
<line x1="741.43" y1="60" x2="741.43" y2="470" stroke="#f3f4f6" stroke-width="1"/>
<text x="741.43" y="492" font-size="12" text-anchor="middle" fill="#555555">39</text>
<line x1="758.57" y1="60" x2="758.57" y2="470" stroke="#f3f4f6" stroke-width="1"/>
<text x="758.57" y="492" font-size="12" text-anchor="middle" fill="#555555">40</text>
<line x1="775.71" y1="60" x2="775.71" y2="470" stroke="#f3f4f6" stroke-width="1"/>
<text x="775.71" y="492" font-size="12" text-anchor="middle" fill="#555555">41</text>
<line x1="792.86" y1="60" x2="792.86" y2="470" stroke="#f3f4f6" stroke-width="1"/>
<text x="792.86" y="492" font-size="12" text-anchor="middle" fill="#555555">42</text>
<line x1="810.00" y1="60" x2="810.00" y2="470" stroke="#f3f4f6" stroke-width="1"/>
<text x="810.00" y="492" font-size="12" text-anchor="middle" fill="#555555">43</text>
<line x1="827.14" y1="60" x2="827.14" y2="470" stroke="#f3f4f6" stroke-width="1"/>
<text x="827.14" y="492" font-size="12" text-anchor="middle" fill="#555555">44</text>
<line x1="844.29" y1="60" x2="844.29" y2="470" stroke="#f3f4f6" stroke-width="1"/>
<text x="844.29" y="492" font-size="12" text-anchor="middle" fill="#555555">45</text>
<line x1="861.43" y1="60" x2="861.43" y2="470" stroke="#f3f4f6" stroke-width="1"/>
<text x="861.43" y="492" font-size="12" text-anchor="middle" fill="#555555">46</text>
<line x1="878.57" y1="60" x2="878.57" y2="470" stroke="#f3f4f6" stroke-width="1"/>
<text x="878.57" y="492" font-size="12" text-anchor="middle" fill="#555555">47</text>
<line x1="895.71" y1="60" x2="895.71" y2="470" stroke="#f3f4f6" stroke-width="1"/>
<text x="895.71" y="492" font-size="12" text-anchor="middle" fill="#555555">48</text>
<line x1="912.86" y1="60" x2="912.86" y2="470" stroke="#f3f4f6" stroke-width="1"/>
<text x="912.86" y="492" font-size="12" text-anchor="middle" fill="#555555">49</text>
<line x1="930.00" y1="60" x2="930.00" y2="470" stroke="#f3f4f6" stroke-width="1"/>
<text x="930.00" y="492" font-size="12" text-anchor="middle" fill="#555555">50</text>
<polyline fill="none" stroke="#d97706" stroke-width="3" points="90.00,132.88 107.14,139.99 124.29,161.49 141.43,97.91 158.57,100.84 175.71,100.94 192.86,104.09 210.00,170.53 227.14,97.13 244.29,117.28 261.43,97.13 278.57,96.63 295.71,95.66 312.86,97.24 330.00,97.39 347.14,103.83 364.29,95.71 381.43,95.04 398.57,94.17 415.71,95.16 432.86,434.60 450.00,435.50 467.14,435.12 484.29,434.67 501.43,143.66 518.57,169.58 535.71,120.00 552.86,125.38 570.00,434.06 587.14,433.77 604.29,98.50 621.43,107.50 638.57,140.53 655.71,118.49 672.86,121.40 690.00,101.98 707.14,112.92 724.29,127.34 741.43,142.71 758.57,114.93 775.71,167.55 792.86,116.59 810.00,147.78 827.14,101.46 844.29,116.43 861.43,123.03 878.57,103.92 895.71,117.23 912.86,151.78 930.00,111.78"/>
<circle cx="90.00" cy="132.88" r="4.5" fill="#d97706" fill-opacity="0.9"/>
<circle cx="107.14" cy="139.99" r="4.5" fill="#d97706" fill-opacity="0.9"/>
<circle cx="124.29" cy="161.49" r="4.5" fill="#d97706" fill-opacity="0.9"/>
<circle cx="141.43" cy="97.91" r="4.5" fill="#d97706" fill-opacity="0.9"/>
<circle cx="158.57" cy="100.84" r="4.5" fill="#d97706" fill-opacity="0.9"/>
<circle cx="175.71" cy="100.94" r="4.5" fill="#d97706" fill-opacity="0.9"/>
<circle cx="192.86" cy="104.09" r="4.5" fill="#d97706" fill-opacity="0.9"/>
<circle cx="210.00" cy="170.53" r="4.5" fill="#d97706" fill-opacity="0.9"/>
<circle cx="227.14" cy="97.13" r="4.5" fill="#d97706" fill-opacity="0.9"/>
<circle cx="244.29" cy="117.28" r="4.5" fill="#d97706" fill-opacity="0.9"/>
<circle cx="261.43" cy="97.13" r="4.5" fill="#d97706" fill-opacity="0.9"/>
<circle cx="278.57" cy="96.63" r="4.5" fill="#d97706" fill-opacity="0.9"/>
<circle cx="295.71" cy="95.66" r="4.5" fill="#d97706" fill-opacity="0.9"/>
<circle cx="312.86" cy="97.24" r="4.5" fill="#d97706" fill-opacity="0.9"/>
<circle cx="330.00" cy="97.39" r="4.5" fill="#d97706" fill-opacity="0.9"/>
<circle cx="347.14" cy="103.83" r="4.5" fill="#d97706" fill-opacity="0.9"/>
<circle cx="364.29" cy="95.71" r="4.5" fill="#d97706" fill-opacity="0.9"/>
<circle cx="381.43" cy="95.04" r="4.5" fill="#d97706" fill-opacity="0.9"/>
<circle cx="398.57" cy="94.17" r="4.5" fill="#d97706" fill-opacity="0.9"/>
<circle cx="415.71" cy="95.16" r="4.5" fill="#d97706" fill-opacity="0.9"/>
<circle cx="432.86" cy="434.60" r="4.5" fill="#d97706" fill-opacity="0.9"/>
<circle cx="450.00" cy="435.50" r="4.5" fill="#d97706" fill-opacity="0.9"/>
<circle cx="467.14" cy="435.12" r="4.5" fill="#d97706" fill-opacity="0.9"/>
<circle cx="484.29" cy="434.67" r="4.5" fill="#d97706" fill-opacity="0.9"/>
<circle cx="501.43" cy="143.66" r="4.5" fill="#d97706" fill-opacity="0.9"/>
<circle cx="518.57" cy="169.58" r="4.5" fill="#d97706" fill-opacity="0.9"/>
<circle cx="535.71" cy="120.00" r="4.5" fill="#d97706" fill-opacity="0.9"/>
<circle cx="552.86" cy="125.38" r="4.5" fill="#d97706" fill-opacity="0.9"/>
<circle cx="570.00" cy="434.06" r="4.5" fill="#d97706" fill-opacity="0.9"/>
<circle cx="587.14" cy="433.77" r="4.5" fill="#d97706" fill-opacity="0.9"/>
<circle cx="604.29" cy="98.50" r="4.5" fill="#d97706" fill-opacity="0.9"/>
<circle cx="621.43" cy="107.50" r="4.5" fill="#d97706" fill-opacity="0.9"/>
<circle cx="638.57" cy="140.53" r="4.5" fill="#d97706" fill-opacity="0.9"/>
<circle cx="655.71" cy="118.49" r="4.5" fill="#d97706" fill-opacity="0.9"/>
<circle cx="672.86" cy="121.40" r="4.5" fill="#d97706" fill-opacity="0.9"/>
<circle cx="690.00" cy="101.98" r="4.5" fill="#d97706" fill-opacity="0.9"/>
<circle cx="707.14" cy="112.92" r="4.5" fill="#d97706" fill-opacity="0.9"/>
<circle cx="724.29" cy="127.34" r="4.5" fill="#d97706" fill-opacity="0.9"/>
<circle cx="741.43" cy="142.71" r="4.5" fill="#d97706" fill-opacity="0.9"/>
<circle cx="758.57" cy="114.93" r="4.5" fill="#d97706" fill-opacity="0.9"/>
<circle cx="775.71" cy="167.55" r="4.5" fill="#d97706" fill-opacity="0.9"/>
<circle cx="792.86" cy="116.59" r="4.5" fill="#d97706" fill-opacity="0.9"/>
<circle cx="810.00" cy="147.78" r="4.5" fill="#d97706" fill-opacity="0.9"/>
<circle cx="827.14" cy="101.46" r="4.5" fill="#d97706" fill-opacity="0.9"/>
<circle cx="844.29" cy="116.43" r="4.5" fill="#d97706" fill-opacity="0.9"/>
<circle cx="861.43" cy="123.03" r="4.5" fill="#d97706" fill-opacity="0.9"/>
<circle cx="878.57" cy="103.92" r="4.5" fill="#d97706" fill-opacity="0.9"/>
<circle cx="895.71" cy="117.23" r="4.5" fill="#d97706" fill-opacity="0.9"/>
<circle cx="912.86" cy="151.78" r="4.5" fill="#d97706" fill-opacity="0.9"/>
<circle cx="930.00" cy="111.78" r="4.5" fill="#d97706" fill-opacity="0.9"/>
<rect x="90" y="32" width="18" height="6" fill="#d97706"/>
<text x="114" y="38" font-size="13" fill="#333333">val</text>
<polyline fill="none" stroke="#059669" stroke-width="3" points="90.00,134.54 107.14,140.89 124.29,162.74 141.43,98.76 158.57,100.37 175.71,101.51 192.86,103.28 210.00,172.31 227.14,97.15 244.29,116.73 261.43,96.84 278.57,96.23 295.71,96.06 312.86,97.27 330.00,97.53 347.14,103.69 364.29,95.85 381.43,95.42 398.57,94.43 415.71,94.88 432.86,435.83 450.00,434.77 467.14,434.58 484.29,434.74 501.43,143.80 518.57,168.68 535.71,121.33 552.86,124.10 570.00,434.15 587.14,433.16 604.29,99.04 621.43,107.12 638.57,139.58 655.71,118.51 672.86,123.24 690.00,102.53 707.14,114.84 724.29,126.89 741.43,142.07 758.57,115.22 775.71,167.31 792.86,118.49 810.00,148.72 827.14,101.29 844.29,115.81 861.43,122.04 878.57,103.88 895.71,116.61 912.86,152.68 930.00,110.62"/>
<circle cx="90.00" cy="134.54" r="4.5" fill="#059669" fill-opacity="0.9"/>
<circle cx="107.14" cy="140.89" r="4.5" fill="#059669" fill-opacity="0.9"/>
<circle cx="124.29" cy="162.74" r="4.5" fill="#059669" fill-opacity="0.9"/>
<circle cx="141.43" cy="98.76" r="4.5" fill="#059669" fill-opacity="0.9"/>
<circle cx="158.57" cy="100.37" r="4.5" fill="#059669" fill-opacity="0.9"/>
<circle cx="175.71" cy="101.51" r="4.5" fill="#059669" fill-opacity="0.9"/>
<circle cx="192.86" cy="103.28" r="4.5" fill="#059669" fill-opacity="0.9"/>
<circle cx="210.00" cy="172.31" r="4.5" fill="#059669" fill-opacity="0.9"/>
<circle cx="227.14" cy="97.15" r="4.5" fill="#059669" fill-opacity="0.9"/>
<circle cx="244.29" cy="116.73" r="4.5" fill="#059669" fill-opacity="0.9"/>
<circle cx="261.43" cy="96.84" r="4.5" fill="#059669" fill-opacity="0.9"/>
<circle cx="278.57" cy="96.23" r="4.5" fill="#059669" fill-opacity="0.9"/>
<circle cx="295.71" cy="96.06" r="4.5" fill="#059669" fill-opacity="0.9"/>
<circle cx="312.86" cy="97.27" r="4.5" fill="#059669" fill-opacity="0.9"/>
<circle cx="330.00" cy="97.53" r="4.5" fill="#059669" fill-opacity="0.9"/>
<circle cx="347.14" cy="103.69" r="4.5" fill="#059669" fill-opacity="0.9"/>
<circle cx="364.29" cy="95.85" r="4.5" fill="#059669" fill-opacity="0.9"/>
<circle cx="381.43" cy="95.42" r="4.5" fill="#059669" fill-opacity="0.9"/>
<circle cx="398.57" cy="94.43" r="4.5" fill="#059669" fill-opacity="0.9"/>
<circle cx="415.71" cy="94.88" r="4.5" fill="#059669" fill-opacity="0.9"/>
<circle cx="432.86" cy="435.83" r="4.5" fill="#059669" fill-opacity="0.9"/>
<circle cx="450.00" cy="434.77" r="4.5" fill="#059669" fill-opacity="0.9"/>
<circle cx="467.14" cy="434.58" r="4.5" fill="#059669" fill-opacity="0.9"/>
<circle cx="484.29" cy="434.74" r="4.5" fill="#059669" fill-opacity="0.9"/>
<circle cx="501.43" cy="143.80" r="4.5" fill="#059669" fill-opacity="0.9"/>
<circle cx="518.57" cy="168.68" r="4.5" fill="#059669" fill-opacity="0.9"/>
<circle cx="535.71" cy="121.33" r="4.5" fill="#059669" fill-opacity="0.9"/>
<circle cx="552.86" cy="124.10" r="4.5" fill="#059669" fill-opacity="0.9"/>
<circle cx="570.00" cy="434.15" r="4.5" fill="#059669" fill-opacity="0.9"/>
<circle cx="587.14" cy="433.16" r="4.5" fill="#059669" fill-opacity="0.9"/>
<circle cx="604.29" cy="99.04" r="4.5" fill="#059669" fill-opacity="0.9"/>
<circle cx="621.43" cy="107.12" r="4.5" fill="#059669" fill-opacity="0.9"/>
<circle cx="638.57" cy="139.58" r="4.5" fill="#059669" fill-opacity="0.9"/>
<circle cx="655.71" cy="118.51" r="4.5" fill="#059669" fill-opacity="0.9"/>
<circle cx="672.86" cy="123.24" r="4.5" fill="#059669" fill-opacity="0.9"/>
<circle cx="690.00" cy="102.53" r="4.5" fill="#059669" fill-opacity="0.9"/>
<circle cx="707.14" cy="114.84" r="4.5" fill="#059669" fill-opacity="0.9"/>
<circle cx="724.29" cy="126.89" r="4.5" fill="#059669" fill-opacity="0.9"/>
<circle cx="741.43" cy="142.07" r="4.5" fill="#059669" fill-opacity="0.9"/>
<circle cx="758.57" cy="115.22" r="4.5" fill="#059669" fill-opacity="0.9"/>
<circle cx="775.71" cy="167.31" r="4.5" fill="#059669" fill-opacity="0.9"/>
<circle cx="792.86" cy="118.49" r="4.5" fill="#059669" fill-opacity="0.9"/>
<circle cx="810.00" cy="148.72" r="4.5" fill="#059669" fill-opacity="0.9"/>
<circle cx="827.14" cy="101.29" r="4.5" fill="#059669" fill-opacity="0.9"/>
<circle cx="844.29" cy="115.81" r="4.5" fill="#059669" fill-opacity="0.9"/>
<circle cx="861.43" cy="122.04" r="4.5" fill="#059669" fill-opacity="0.9"/>
<circle cx="878.57" cy="103.88" r="4.5" fill="#059669" fill-opacity="0.9"/>
<circle cx="895.71" cy="116.61" r="4.5" fill="#059669" fill-opacity="0.9"/>
<circle cx="912.86" cy="152.68" r="4.5" fill="#059669" fill-opacity="0.9"/>
<circle cx="930.00" cy="110.62" r="4.5" fill="#059669" fill-opacity="0.9"/>
<rect x="270" y="32" width="18" height="6" fill="#059669"/>
<text x="294" y="38" font-size="13" fill="#333333">test</text>
</svg>