<svg xmlns="http://www.w3.org/2000/svg" width="960" height="540">
<rect width="100%" height="100%" fill="#ffffff"/>
<text x="480.0" y="30" font-size="22" text-anchor="middle" fill="#111111">Position 5 Accuracy</text>
<text x="20" y="270.0" font-size="16" transform="rotate(-90 20,270.0)" text-anchor="middle" fill="#333333">Accuracy</text>
<text x="480.0" y="520" font-size="16" text-anchor="middle" fill="#333333">Epoch</text>
<line x1="90" y1="60" x2="90" y2="470" stroke="#333333" stroke-width="2"/>
<line x1="90" y1="470" x2="930" y2="470" stroke="#333333" stroke-width="2"/>
<line x1="90" y1="470.00" x2="930" y2="470.00" stroke="#e5e7eb" stroke-width="1"/>
<text x="80" y="475.00" font-size="12" text-anchor="end" fill="#555555">-0.0694</text>
<line x1="90" y1="367.50" x2="930" y2="367.50" stroke="#e5e7eb" stroke-width="1"/>
<text x="80" y="372.50" font-size="12" text-anchor="end" fill="#555555">0.2200</text>
<line x1="90" y1="265.00" x2="930" y2="265.00" stroke="#e5e7eb" stroke-width="1"/>
<text x="80" y="270.00" font-size="12" text-anchor="end" fill="#555555">0.5094</text>
<line x1="90" y1="162.50" x2="930" y2="162.50" stroke="#e5e7eb" stroke-width="1"/>
<text x="80" y="167.50" font-size="12" text-anchor="end" fill="#555555">0.7988</text>
<line x1="90" y1="60.00" x2="930" y2="60.00" stroke="#e5e7eb" stroke-width="1"/>
<text x="80" y="65.00" font-size="12" text-anchor="end" fill="#555555">1.0882</text>
<line x1="90.00" y1="60" x2="90.00" y2="470" stroke="#f3f4f6" stroke-width="1"/>
<text x="90.00" y="492" font-size="12" text-anchor="middle" fill="#555555">1</text>
<line x1="107.14" y1="60" x2="107.14" y2="470" stroke="#f3f4f6" stroke-width="1"/>
<text x="107.14" y="492" font-size="12" text-anchor="middle" fill="#555555">2</text>
<line x1="124.29" y1="60" x2="124.29" y2="470" stroke="#f3f4f6" stroke-width="1"/>
<text x="124.29" y="492" font-size="12" text-anchor="middle" fill="#555555">3</text>
<line x1="141.43" y1="60" x2="141.43" y2="470" stroke="#f3f4f6" stroke-width="1"/>
<text x="141.43" y="492" font-size="12" text-anchor="middle" fill="#555555">4</text>
<line x1="158.57" y1="60" x2="158.57" y2="470" stroke="#f3f4f6" stroke-width="1"/>
<text x="158.57" y="492" font-size="12" text-anchor="middle" fill="#555555">5</text>
<line x1="175.71" y1="60" x2="175.71" y2="470" stroke="#f3f4f6" stroke-width="1"/>
<text x="175.71" y="492" font-size="12" text-anchor="middle" fill="#555555">6</text>
<line x1="192.86" y1="60" x2="192.86" y2="470" stroke="#f3f4f6" stroke-width="1"/>
<text x="192.86" y="492" font-size="12" text-anchor="middle" fill="#555555">7</text>
<line x1="210.00" y1="60" x2="210.00" y2="470" stroke="#f3f4f6" stroke-width="1"/>
<text x="210.00" y="492" font-size="12" text-anchor="middle" fill="#555555">8</text>
<line x1="227.14" y1="60" x2="227.14" y2="470" stroke="#f3f4f6" stroke-width="1"/>
<text x="227.14" y="492" font-size="12" text-anchor="middle" fill="#555555">9</text>
<line x1="244.29" y1="60" x2="244.29" y2="470" stroke="#f3f4f6" stroke-width="1"/>
<text x="244.29" y="492" font-size="12" text-anchor="middle" fill="#555555">10</text>
<line x1="261.43" y1="60" x2="261.43" y2="470" stroke="#f3f4f6" stroke-width="1"/>
<text x="261.43" y="492" font-size="12" text-anchor="middle" fill="#555555">11</text>
<line x1="278.57" y1="60" x2="278.57" y2="470" stroke="#f3f4f6" stroke-width="1"/>
<text x="278.57" y="492" font-size="12" text-anchor="middle" fill="#555555">12</text>
<line x1="295.71" y1="60" x2="295.71" y2="470" stroke="#f3f4f6" stroke-width="1"/>
<text x="295.71" y="492" font-size="12" text-anchor="middle" fill="#555555">13</text>
<line x1="312.86" y1="60" x2="312.86" y2="470" stroke="#f3f4f6" stroke-width="1"/>
<text x="312.86" y="492" font-size="12" text-anchor="middle" fill="#555555">14</text>
<line x1="330.00" y1="60" x2="330.00" y2="470" stroke="#f3f4f6" stroke-width="1"/>
<text x="330.00" y="492" font-size="12" text-anchor="middle" fill="#555555">15</text>
<line x1="347.14" y1="60" x2="347.14" y2="470" stroke="#f3f4f6" stroke-width="1"/>
<text x="347.14" y="492" font-size="12" text-anchor="middle" fill="#555555">16</text>
<line x1="364.29" y1="60" x2="364.29" y2="470" stroke="#f3f4f6" stroke-width="1"/>
<text x="364.29" y="492" font-size="12" text-anchor="middle" fill="#555555">17</text>
<line x1="381.43" y1="60" x2="381.43" y2="470" stroke="#f3f4f6" stroke-width="1"/>
<text x="381.43" y="492" font-size="12" text-anchor="middle" fill="#555555">18</text>
<line x1="398.57" y1="60" x2="398.57" y2="470" stroke="#f3f4f6" stroke-width="1"/>
<text x="398.57" y="492" font-size="12" text-anchor="middle" fill="#555555">19</text>
<line x1="415.71" y1="60" x2="415.71" y2="470" stroke="#f3f4f6" stroke-width="1"/>
<text x="415.71" y="492" font-size="12" text-anchor="middle" fill="#555555">20</text>
<line x1="432.86" y1="60" x2="432.86" y2="470" stroke="#f3f4f6" stroke-width="1"/>
<text x="432.86" y="492" font-size="12" text-anchor="middle" fill="#555555">21</text>
<line x1="450.00" y1="60" x2="450.00" y2="470" stroke="#f3f4f6" stroke-width="1"/>
<text x="450.00" y="492" font-size="12" text-anchor="middle" fill="#555555">22</text>
<line x1="467.14" y1="60" x2="467.14" y2="470" stroke="#f3f4f6" stroke-width="1"/>
<text x="467.14" y="492" font-size="12" text-anchor="middle" fill="#555555">23</text>
<line x1="484.29" y1="60" x2="484.29" y2="470" stroke="#f3f4f6" stroke-width="1"/>
<text x="484.29" y="492" font-size="12" text-anchor="middle" fill="#555555">24</text>
<line x1="501.43" y1="60" x2="501.43" y2="470" stroke="#f3f4f6" stroke-width="1"/>
<text x="501.43" y="492" font-size="12" text-anchor="middle" fill="#555555">25</text>
<line x1="518.57" y1="60" x2="518.57" y2="470" stroke="#f3f4f6" stroke-width="1"/>
<text x="518.57" y="492" font-size="12" text-anchor="middle" fill="#555555">26</text>
<line x1="535.71" y1="60" x2="535.71" y2="470" stroke="#f3f4f6" stroke-width="1"/>
<text x="535.71" y="492" font-size="12" text-anchor="middle" fill="#555555">27</text>
<line x1="552.86" y1="60" x2="552.86" y2="470" stroke="#f3f4f6" stroke-width="1"/>
<text x="552.86" y="492" font-size="12" text-anchor="middle" fill="#555555">28</text>
<line x1="570.00" y1="60" x2="570.00" y2="470" stroke="#f3f4f6" stroke-width="1"/>
<text x="570.00" y="492" font-size="12" text-anchor="middle" fill="#555555">29</text>
<line x1="587.14" y1="60" x2="587.14" y2="470" stroke="#f3f4f6" stroke-width="1"/>
<text x="587.14" y="492" font-size="12" text-anchor="middle" fill="#555555">30</text>
<line x1="604.29" y1="60" x2="604.29" y2="470" stroke="#f3f4f6" stroke-width="1"/>
<text x="604.29" y="492" font-size="12" text-anchor="middle" fill="#555555">31</text>
<line x1="621.43" y1="60" x2="621.43" y2="470" stroke="#f3f4f6" stroke-width="1"/>
<text x="621.43" y="492" font-size="12" text-anchor="middle" fill="#555555">32</text>
<line x1="638.57" y1="60" x2="638.57" y2="470" stroke="#f3f4f6" stroke-width="1"/>
<text x="638.57" y="492" font-size="12" text-anchor="middle" fill="#555555">33</text>
<line x1="655.71" y1="60" x2="655.71" y2="470" stroke="#f3f4f6" stroke-width="1"/>
<text x="655.71" y="492" font-size="12" text-anchor="middle" fill="#555555">34</text>
<line x1="672.86" y1="60" x2="672.86" y2="470" stroke="#f3f4f6" stroke-width="1"/>
<text x="672.86" y="492" font-size="12" text-anchor="middle" fill="#555555">35</text>
<line x1="690.00" y1="60" x2="690.00" y2="470" stroke="#f3f4f6" stroke-width="1"/>
<text x="690.00" y="492" font-size="12" text-anchor="middle" fill="#555555">36</text>
<line x1="707.14" y1="60" x2="707.14" y2="470" stroke="#f3f4f6" stroke-width="1"/>
<text x="707.14" y="492" font-size="12" text-anchor="middle" fill="#555555">37</text>
<line x1="724.29" y1="60" x2="724.29" y2="470" stroke="#f3f4f6" stroke-width="1"/>
<text x="724.29" y="492" font-size="12" text-anchor="middle" fill="#555555">38</text>
<line x1="741.43" y1="60" x2="741.43" y2="470" stroke="#f3f4f6" stroke-width="1"/>
<text x="741.43" y="492" font-size="12" text-anchor="middle" fill="#555555">39</text>
<line x1="758.57" y1="60" x2="758.57" y2="470" stroke="#f3f4f6" stroke-width="1"/>
<text x="758.57" y="492" font-size="12" text-anchor="middle" fill="#555555">40</text>
<line x1="775.71" y1="60" x2="775.71" y2="470" stroke="#f3f4f6" stroke-width="1"/>
<text x="775.71" y="492" font-size="12" text-anchor="middle" fill="#555555">41</text>
<line x1="792.86" y1="60" x2="792.86" y2="470" stroke="#f3f4f6" stroke-width="1"/>
<text x="792.86" y="492" font-size="12" text-anchor="middle" fill="#555555">42</text>
<line x1="810.00" y1="60" x2="810.00" y2="470" stroke="#f3f4f6" stroke-width="1"/>
<text x="810.00" y="492" font-size="12" text-anchor="middle" fill="#555555">43</text>
<line x1="827.14" y1="60" x2="827.14" y2="470" stroke="#f3f4f6" stroke-width="1"/>
<text x="827.14" y="492" font-size="12" text-anchor="middle" fill="#555555">44</text>
<line x1="844.29" y1="60" x2="844.29" y2="470" stroke="#f3f4f6" stroke-width="1"/>
<text x="844.29" y="492" font-size="12" text-anchor="middle" fill="#555555">45</text>
<line x1="861.43" y1="60" x2="861.43" y2="470" stroke="#f3f4f6" stroke-width="1"/>
<text x="861.43" y="492" font-size="12" text-anchor="middle" fill="#555555">46</text>
<line x1="878.57" y1="60" x2="878.57" y2="470" stroke="#f3f4f6" stroke-width="1"/>
<text x="878.57" y="492" font-size="12" text-anchor="middle" fill="#555555">47</text>
<line x1="895.71" y1="60" x2="895.71" y2="470" stroke="#f3f4f6" stroke-width="1"/>
<text x="895.71" y="492" font-size="12" text-anchor="middle" fill="#555555">48</text>
<line x1="912.86" y1="60" x2="912.86" y2="470" stroke="#f3f4f6" stroke-width="1"/>
<text x="912.86" y="492" font-size="12" text-anchor="middle" fill="#555555">49</text>
<line x1="930.00" y1="60" x2="930.00" y2="470" stroke="#f3f4f6" stroke-width="1"/>
<text x="930.00" y="492" font-size="12" text-anchor="middle" fill="#555555">50</text>
<polyline fill="none" stroke="#d97706" stroke-width="3" points="90.00,114.92 107.14,133.08 124.29,164.98 141.43,96.83 158.57,99.72 175.71,95.80 192.86,100.42 210.00,207.58 227.14,94.78 244.29,118.56 261.43,95.23 278.57,94.71 295.71,95.56 312.86,95.44 330.00,95.91 347.14,111.45 364.29,94.17 381.43,94.69 398.57,94.66 415.71,94.92 432.86,435.76 450.00,435.60 467.14,435.41 484.29,434.37 501.43,135.37 518.57,158.11 535.71,124.04 552.86,124.53 570.00,432.76 587.14,430.05 604.29,98.63 621.43,106.07 638.57,128.40 655.71,126.42 672.86,109.80 690.00,100.23 707.14,113.84 724.29,110.51 741.43,188.66 758.57,113.95 775.71,171.52 792.86,108.76 810.00,142.50 827.14,99.62 844.29,110.08 861.43,118.42 878.57,114.76 895.71,115.49 912.86,142.62 930.00,109.89"/>
<circle cx="90.00" cy="114.92" r="4.5" fill="#d97706" fill-opacity="0.9"/>
<circle cx="107.14" cy="133.08" r="4.5" fill="#d97706" fill-opacity="0.9"/>
<circle cx="124.29" cy="164.98" r="4.5" fill="#d97706" fill-opacity="0.9"/>
<circle cx="141.43" cy="96.83" r="4.5" fill="#d97706" fill-opacity="0.9"/>
<circle cx="158.57" cy="99.72" r="4.5" fill="#d97706" fill-opacity="0.9"/>
<circle cx="175.71" cy="95.80" r="4.5" fill="#d97706" fill-opacity="0.9"/>
<circle cx="192.86" cy="100.42" r="4.5" fill="#d97706" fill-opacity="0.9"/>
<circle cx="210.00" cy="207.58" r="4.5" fill="#d97706" fill-opacity="0.9"/>
<circle cx="227.14" cy="94.78" r="4.5" fill="#d97706" fill-opacity="0.9"/>
<circle cx="244.29" cy="118.56" r="4.5" fill="#d97706" fill-opacity="0.9"/>
<circle cx="261.43" cy="95.23" r="4.5" fill="#d97706" fill-opacity="0.9"/>
<circle cx="278.57" cy="94.71" r="4.5" fill="#d97706" fill-opacity="0.9"/>
<circle cx="295.71" cy="95.56" r="4.5" fill="#d97706" fill-opacity="0.9"/>
<circle cx="312.86" cy="95.44" r="4.5" fill="#d97706" fill-opacity="0.9"/>
<circle cx="330.00" cy="95.91" r="4.5" fill="#d97706" fill-opacity="0.9"/>
<circle cx="347.14" cy="111.45" r="4.5" fill="#d97706" fill-opacity="0.9"/>
<circle cx="364.29" cy="94.17" r="4.5" fill="#d97706" fill-opacity="0.9"/>
<circle cx="381.43" cy="94.69" r="4.5" fill="#d97706" fill-opacity="0.9"/>
<circle cx="398.57" cy="94.66" r="4.5" fill="#d97706" fill-opacity="0.9"/>
<circle cx="415.71" cy="94.92" r="4.5" fill="#d97706" fill-opacity="0.9"/>
<circle cx="432.86" cy="435.76" r="4.5" fill="#d97706" fill-opacity="0.9"/>
<circle cx="450.00" cy="435.60" r="4.5" fill="#d97706" fill-opacity="0.9"/>
<circle cx="467.14" cy="435.41" r="4.5" fill="#d97706" fill-opacity="0.9"/>
<circle cx="484.29" cy="434.37" r="4.5" fill="#d97706" fill-opacity="0.9"/>
<circle cx="501.43" cy="135.37" r="4.5" fill="#d97706" fill-opacity="0.9"/>
<circle cx="518.57" cy="158.11" r="4.5" fill="#d97706" fill-opacity="0.9"/>
<circle cx="535.71" cy="124.04" r="4.5" fill="#d97706" fill-opacity="0.9"/>
<circle cx="552.86" cy="124.53" r="4.5" fill="#d97706" fill-opacity="0.9"/>
<circle cx="570.00" cy="432.76" r="4.5" fill="#d97706" fill-opacity="0.9"/>
<circle cx="587.14" cy="430.05" r="4.5" fill="#d97706" fill-opacity="0.9"/>
<circle cx="604.29" cy="98.63" r="4.5" fill="#d97706" fill-opacity="0.9"/>
<circle cx="621.43" cy="106.07" r="4.5" fill="#d97706" fill-opacity="0.9"/>
<circle cx="638.57" cy="128.40" r="4.5" fill="#d97706" fill-opacity="0.9"/>
<circle cx="655.71" cy="126.42" r="4.5" fill="#d97706" fill-opacity="0.9"/>
<circle cx="672.86" cy="109.80" r="4.5" fill="#d97706" fill-opacity="0.9"/>
<circle cx="690.00" cy="100.23" r="4.5" fill="#d97706" fill-opacity="0.9"/>
<circle cx="707.14" cy="113.84" r="4.5" fill="#d97706" fill-opacity="0.9"/>
<circle cx="724.29" cy="110.51" r="4.5" fill="#d97706" fill-opacity="0.9"/>
<circle cx="741.43" cy="188.66" r="4.5" fill="#d97706" fill-opacity="0.9"/>
<circle cx="758.57" cy="113.95" r="4.5" fill="#d97706" fill-opacity="0.9"/>
<circle cx="775.71" cy="171.52" r="4.5" fill="#d97706" fill-opacity="0.9"/>
<circle cx="792.86" cy="108.76" r="4.5" fill="#d97706" fill-opacity="0.9"/>
<circle cx="810.00" cy="142.50" r="4.5" fill="#d97706" fill-opacity="0.9"/>
<circle cx="827.14" cy="99.62" r="4.5" fill="#d97706" fill-opacity="0.9"/>
<circle cx="844.29" cy="110.08" r="4.5" fill="#d97706" fill-opacity="0.9"/>
<circle cx="861.43" cy="118.42" r="4.5" fill="#d97706" fill-opacity="0.9"/>
<circle cx="878.57" cy="114.76" r="4.5" fill="#d97706" fill-opacity="0.9"/>
<circle cx="895.71" cy="115.49" r="4.5" fill="#d97706" fill-opacity="0.9"/>
<circle cx="912.86" cy="142.62" r="4.5" fill="#d97706" fill-opacity="0.9"/>
<circle cx="930.00" cy="109.89" r="4.5" fill="#d97706" fill-opacity="0.9"/>
<rect x="90" y="32" width="18" height="6" fill="#d97706"/>
<text x="114" y="38" font-size="13" fill="#333333">val</text>
<polyline fill="none" stroke="#059669" stroke-width="3" points="90.00,115.56 107.14,134.35 124.29,164.27 141.43,96.86 158.57,100.16 175.71,96.22 192.86,101.04 210.00,210.69 227.14,95.42 244.29,120.31 261.43,95.91 278.57,94.99 295.71,95.63 312.86,95.63 330.00,96.48 347.14,111.97 364.29,94.24 381.43,94.64 398.57,95.11 415.71,95.44 432.86,434.49 450.00,435.72 467.14,435.83 484.29,433.90 501.43,135.56 518.57,159.36 535.71,125.00 552.86,126.54 570.00,432.69 587.14,431.11 604.29,98.70 621.43,106.99 638.57,128.45 655.71,128.29 672.86,110.39 690.00,100.83 707.14,113.98 724.29,110.74 741.43,191.31 758.57,114.69 775.71,169.80 792.86,108.71 810.00,141.89 827.14,100.45 844.29,111.33 861.43,117.99 878.57,115.06 895.71,115.28 912.86,142.62 930.00,111.78"/>
<circle cx="90.00" cy="115.56" r="4.5" fill="#059669" fill-opacity="0.9"/>
<circle cx="107.14" cy="134.35" r="4.5" fill="#059669" fill-opacity="0.9"/>
<circle cx="124.29" cy="164.27" r="4.5" fill="#059669" fill-opacity="0.9"/>
<circle cx="141.43" cy="96.86" r="4.5" fill="#059669" fill-opacity="0.9"/>
<circle cx="158.57" cy="100.16" r="4.5" fill="#059669" fill-opacity="0.9"/>
<circle cx="175.71" cy="96.22" r="4.5" fill="#059669" fill-opacity="0.9"/>
<circle cx="192.86" cy="101.04" r="4.5" fill="#059669" fill-opacity="0.9"/>
<circle cx="210.00" cy="210.69" r="4.5" fill="#059669" fill-opacity="0.9"/>
<circle cx="227.14" cy="95.42" r="4.5" fill="#059669" fill-opacity="0.9"/>
<circle cx="244.29" cy="120.31" r="4.5" fill="#059669" fill-opacity="0.9"/>
<circle cx="261.43" cy="95.91" r="4.5" fill="#059669" fill-opacity="0.9"/>
<circle cx="278.57" cy="94.99" r="4.5" fill="#059669" fill-opacity="0.9"/>
<circle cx="295.71" cy="95.63" r="4.5" fill="#059669" fill-opacity="0.9"/>
<circle cx="312.86" cy="95.63" r="4.5" fill="#059669" fill-opacity="0.9"/>
<circle cx="330.00" cy="96.48" r="4.5" fill="#059669" fill-opacity="0.9"/>
<circle cx="347.14" cy="111.97" r="4.5" fill="#059669" fill-opacity="0.9"/>
<circle cx="364.29" cy="94.24" r="4.5" fill="#059669" fill-opacity="0.9"/>
<circle cx="381.43" cy="94.64" r="4.5" fill="#059669" fill-opacity="0.9"/>
<circle cx="398.57" cy="95.11" r="4.5" fill="#059669" fill-opacity="0.9"/>
<circle cx="415.71" cy="95.44" r="4.5" fill="#059669" fill-opacity="0.9"/>
<circle cx="432.86" cy="434.49" r="4.5" fill="#059669" fill-opacity="0.9"/>
<circle cx="450.00" cy="435.72" r="4.5" fill="#059669" fill-opacity="0.9"/>
<circle cx="467.14" cy="435.83" r="4.5" fill="#059669" fill-opacity="0.9"/>
<circle cx="484.29" cy="433.90" r="4.5" fill="#059669" fill-opacity="0.9"/>
<circle cx="501.43" cy="135.56" r="4.5" fill="#059669" fill-opacity="0.9"/>
<circle cx="518.57" cy="159.36" r="4.5" fill="#059669" fill-opacity="0.9"/>
<circle cx="535.71" cy="125.00" r="4.5" fill="#059669" fill-opacity="0.9"/>
<circle cx="552.86" cy="126.54" r="4.5" fill="#059669" fill-opacity="0.9"/>
<circle cx="570.00" cy="432.69" r="4.5" fill="#059669" fill-opacity="0.9"/>
<circle cx="587.14" cy="431.11" r="4.5" fill="#059669" fill-opacity="0.9"/>
<circle cx="604.29" cy="98.70" r="4.5" fill="#059669" fill-opacity="0.9"/>
<circle cx="621.43" cy="106.99" r="4.5" fill="#059669" fill-opacity="0.9"/>
<circle cx="638.57" cy="128.45" r="4.5" fill="#059669" fill-opacity="0.9"/>
<circle cx="655.71" cy="128.29" r="4.5" fill="#059669" fill-opacity="0.9"/>
<circle cx="672.86" cy="110.39" r="4.5" fill="#059669" fill-opacity="0.9"/>
<circle cx="690.00" cy="100.83" r="4.5" fill="#059669" fill-opacity="0.9"/>
<circle cx="707.14" cy="113.98" r="4.5" fill="#059669" fill-opacity="0.9"/>
<circle cx="724.29" cy="110.74" r="4.5" fill="#059669" fill-opacity="0.9"/>
<circle cx="741.43" cy="191.31" r="4.5" fill="#059669" fill-opacity="0.9"/>
<circle cx="758.57" cy="114.69" r="4.5" fill="#059669" fill-opacity="0.9"/>
<circle cx="775.71" cy="169.80" r="4.5" fill="#059669" fill-opacity="0.9"/>
<circle cx="792.86" cy="108.71" r="4.5" fill="#059669" fill-opacity="0.9"/>
<circle cx="810.00" cy="141.89" r="4.5" fill="#059669" fill-opacity="0.9"/>
<circle cx="827.14" cy="100.45" r="4.5" fill="#059669" fill-opacity="0.9"/>
<circle cx="844.29" cy="111.33" r="4.5" fill="#059669" fill-opacity="0.9"/>
<circle cx="861.43" cy="117.99" r="4.5" fill="#059669" fill-opacity="0.9"/>
<circle cx="878.57" cy="115.06" r="4.5" fill="#059669" fill-opacity="0.9"/>
<circle cx="895.71" cy="115.28" r="4.5" fill="#059669" fill-opacity="0.9"/>
<circle cx="912.86" cy="142.62" r="4.5" fill="#059669" fill-opacity="0.9"/>
<circle cx="930.00" cy="111.78" r="4.5" fill="#059669" fill-opacity="0.9"/>
<rect x="270" y="32" width="18" height="6" fill="#059669"/>
<text x="294" y="38" font-size="13" fill="#333333">test</text>
</svg>