<svg xmlns="http://www.w3.org/2000/svg" width="960" height="540">
<rect width="100%" height="100%" fill="#ffffff"/>
<text x="480.0" y="30" font-size="22" text-anchor="middle" fill="#111111">Position 1 Accuracy</text>
<text x="20" y="270.0" font-size="16" transform="rotate(-90 20,270.0)" text-anchor="middle" fill="#333333">Accuracy</text>
<text x="480.0" y="520" font-size="16" text-anchor="middle" fill="#333333">Epoch</text>
<line x1="90" y1="60" x2="90" y2="470" stroke="#333333" stroke-width="2"/>
<line x1="90" y1="470" x2="930" y2="470" stroke="#333333" stroke-width="2"/>
<line x1="90" y1="470.00" x2="930" y2="470.00" stroke="#e5e7eb" stroke-width="1"/>
<text x="80" y="475.00" font-size="12" text-anchor="end" fill="#555555">-0.0717</text>
<line x1="90" y1="367.50" x2="930" y2="367.50" stroke="#e5e7eb" stroke-width="1"/>
<text x="80" y="372.50" font-size="12" text-anchor="end" fill="#555555">0.2182</text>
<line x1="90" y1="265.00" x2="930" y2="265.00" stroke="#e5e7eb" stroke-width="1"/>
<text x="80" y="270.00" font-size="12" text-anchor="end" fill="#555555">0.5082</text>
<line x1="90" y1="162.50" x2="930" y2="162.50" stroke="#e5e7eb" stroke-width="1"/>
<text x="80" y="167.50" font-size="12" text-anchor="end" fill="#555555">0.7981</text>
<line x1="90" y1="60.00" x2="930" y2="60.00" stroke="#e5e7eb" stroke-width="1"/>
<text x="80" y="65.00" font-size="12" text-anchor="end" fill="#555555">1.0880</text>
<line x1="90.00" y1="60" x2="90.00" y2="470" stroke="#f3f4f6" stroke-width="1"/>
<text x="90.00" y="492" font-size="12" text-anchor="middle" fill="#555555">1</text>
<line x1="107.14" y1="60" x2="107.14" y2="470" stroke="#f3f4f6" stroke-width="1"/>
<text x="107.14" y="492" font-size="12" text-anchor="middle" fill="#555555">2</text>
<line x1="124.29" y1="60" x2="124.29" y2="470" stroke="#f3f4f6" stroke-width="1"/>
<text x="124.29" y="492" font-size="12" text-anchor="middle" fill="#555555">3</text>
<line x1="141.43" y1="60" x2="141.43" y2="470" stroke="#f3f4f6" stroke-width="1"/>
<text x="141.43" y="492" font-size="12" text-anchor="middle" fill="#555555">4</text>
<line x1="158.57" y1="60" x2="158.57" y2="470" stroke="#f3f4f6" stroke-width="1"/>
<text x="158.57" y="492" font-size="12" text-anchor="middle" fill="#555555">5</text>
<line x1="175.71" y1="60" x2="175.71" y2="470" stroke="#f3f4f6" stroke-width="1"/>
<text x="175.71" y="492" font-size="12" text-anchor="middle" fill="#555555">6</text>
<line x1="192.86" y1="60" x2="192.86" y2="470" stroke="#f3f4f6" stroke-width="1"/>
<text x="192.86" y="492" font-size="12" text-anchor="middle" fill="#555555">7</text>
<line x1="210.00" y1="60" x2="210.00" y2="470" stroke="#f3f4f6" stroke-width="1"/>
<text x="210.00" y="492" font-size="12" text-anchor="middle" fill="#555555">8</text>
<line x1="227.14" y1="60" x2="227.14" y2="470" stroke="#f3f4f6" stroke-width="1"/>
<text x="227.14" y="492" font-size="12" text-anchor="middle" fill="#555555">9</text>
<line x1="244.29" y1="60" x2="244.29" y2="470" stroke="#f3f4f6" stroke-width="1"/>
<text x="244.29" y="492" font-size="12" text-anchor="middle" fill="#555555">10</text>
<line x1="261.43" y1="60" x2="261.43" y2="470" stroke="#f3f4f6" stroke-width="1"/>
<text x="261.43" y="492" font-size="12" text-anchor="middle" fill="#555555">11</text>
<line x1="278.57" y1="60" x2="278.57" y2="470" stroke="#f3f4f6" stroke-width="1"/>
<text x="278.57" y="492" font-size="12" text-anchor="middle" fill="#555555">12</text>
<line x1="295.71" y1="60" x2="295.71" y2="470" stroke="#f3f4f6" stroke-width="1"/>
<text x="295.71" y="492" font-size="12" text-anchor="middle" fill="#555555">13</text>
<line x1="312.86" y1="60" x2="312.86" y2="470" stroke="#f3f4f6" stroke-width="1"/>
<text x="312.86" y="492" font-size="12" text-anchor="middle" fill="#555555">14</text>
<line x1="330.00" y1="60" x2="330.00" y2="470" stroke="#f3f4f6" stroke-width="1"/>
<text x="330.00" y="492" font-size="12" text-anchor="middle" fill="#555555">15</text>
<line x1="347.14" y1="60" x2="347.14" y2="470" stroke="#f3f4f6" stroke-width="1"/>
<text x="347.14" y="492" font-size="12" text-anchor="middle" fill="#555555">16</text>
<line x1="364.29" y1="60" x2="364.29" y2="470" stroke="#f3f4f6" stroke-width="1"/>
<text x="364.29" y="492" font-size="12" text-anchor="middle" fill="#555555">17</text>
<line x1="381.43" y1="60" x2="381.43" y2="470" stroke="#f3f4f6" stroke-width="1"/>
<text x="381.43" y="492" font-size="12" text-anchor="middle" fill="#555555">18</text>
<line x1="398.57" y1="60" x2="398.57" y2="470" stroke="#f3f4f6" stroke-width="1"/>
<text x="398.57" y="492" font-size="12" text-anchor="middle" fill="#555555">19</text>
<line x1="415.71" y1="60" x2="415.71" y2="470" stroke="#f3f4f6" stroke-width="1"/>
<text x="415.71" y="492" font-size="12" text-anchor="middle" fill="#555555">20</text>
<line x1="432.86" y1="60" x2="432.86" y2="470" stroke="#f3f4f6" stroke-width="1"/>
<text x="432.86" y="492" font-size="12" text-anchor="middle" fill="#555555">21</text>
<line x1="450.00" y1="60" x2="450.00" y2="470" stroke="#f3f4f6" stroke-width="1"/>
<text x="450.00" y="492" font-size="12" text-anchor="middle" fill="#555555">22</text>
<line x1="467.14" y1="60" x2="467.14" y2="470" stroke="#f3f4f6" stroke-width="1"/>
<text x="467.14" y="492" font-size="12" text-anchor="middle" fill="#555555">23</text>
<line x1="484.29" y1="60" x2="484.29" y2="470" stroke="#f3f4f6" stroke-width="1"/>
<text x="484.29" y="492" font-size="12" text-anchor="middle" fill="#555555">24</text>
<line x1="501.43" y1="60" x2="501.43" y2="470" stroke="#f3f4f6" stroke-width="1"/>
<text x="501.43" y="492" font-size="12" text-anchor="middle" fill="#555555">25</text>
<line x1="518.57" y1="60" x2="518.57" y2="470" stroke="#f3f4f6" stroke-width="1"/>
<text x="518.57" y="492" font-size="12" text-anchor="middle" fill="#555555">26</text>
<line x1="535.71" y1="60" x2="535.71" y2="470" stroke="#f3f4f6" stroke-width="1"/>
<text x="535.71" y="492" font-size="12" text-anchor="middle" fill="#555555">27</text>
<line x1="552.86" y1="60" x2="552.86" y2="470" stroke="#f3f4f6" stroke-width="1"/>
<text x="552.86" y="492" font-size="12" text-anchor="middle" fill="#555555">28</text>
<line x1="570.00" y1="60" x2="570.00" y2="470" stroke="#f3f4f6" stroke-width="1"/>
<text x="570.00" y="492" font-size="12" text-anchor="middle" fill="#555555">29</text>
<line x1="587.14" y1="60" x2="587.14" y2="470" stroke="#f3f4f6" stroke-width="1"/>
<text x="587.14" y="492" font-size="12" text-anchor="middle" fill="#555555">30</text>
<line x1="604.29" y1="60" x2="604.29" y2="470" stroke="#f3f4f6" stroke-width="1"/>
<text x="604.29" y="492" font-size="12" text-anchor="middle" fill="#555555">31</text>
<line x1="621.43" y1="60" x2="621.43" y2="470" stroke="#f3f4f6" stroke-width="1"/>
<text x="621.43" y="492" font-size="12" text-anchor="middle" fill="#555555">32</text>
<line x1="638.57" y1="60" x2="638.57" y2="470" stroke="#f3f4f6" stroke-width="1"/>
<text x="638.57" y="492" font-size="12" text-anchor="middle" fill="#555555">33</text>
<line x1="655.71" y1="60" x2="655.71" y2="470" stroke="#f3f4f6" stroke-width="1"/>
<text x="655.71" y="492" font-size="12" text-anchor="middle" fill="#555555">34</text>
<line x1="672.86" y1="60" x2="672.86" y2="470" stroke="#f3f4f6" stroke-width="1"/>
<text x="672.86" y="492" font-size="12" text-anchor="middle" fill="#555555">35</text>
<line x1="690.00" y1="60" x2="690.00" y2="470" stroke="#f3f4f6" stroke-width="1"/>
<text x="690.00" y="492" font-size="12" text-anchor="middle" fill="#555555">36</text>
<line x1="707.14" y1="60" x2="707.14" y2="470" stroke="#f3f4f6" stroke-width="1"/>
<text x="707.14" y="492" font-size="12" text-anchor="middle" fill="#555555">37</text>
<line x1="724.29" y1="60" x2="724.29" y2="470" stroke="#f3f4f6" stroke-width="1"/>
<text x="724.29" y="492" font-size="12" text-anchor="middle" fill="#555555">38</text>
<line x1="741.43" y1="60" x2="741.43" y2="470" stroke="#f3f4f6" stroke-width="1"/>
<text x="741.43" y="492" font-size="12" text-anchor="middle" fill="#555555">39</text>
<line x1="758.57" y1="60" x2="758.57" y2="470" stroke="#f3f4f6" stroke-width="1"/>
<text x="758.57" y="492" font-size="12" text-anchor="middle" fill="#555555">40</text>
<line x1="775.71" y1="60" x2="775.71" y2="470" stroke="#f3f4f6" stroke-width="1"/>
<text x="775.71" y="492" font-size="12" text-anchor="middle" fill="#555555">41</text>
<line x1="792.86" y1="60" x2="792.86" y2="470" stroke="#f3f4f6" stroke-width="1"/>
<text x="792.86" y="492" font-size="12" text-anchor="middle" fill="#555555">42</text>
<line x1="810.00" y1="60" x2="810.00" y2="470" stroke="#f3f4f6" stroke-width="1"/>
<text x="810.00" y="492" font-size="12" text-anchor="middle" fill="#555555">43</text>
<line x1="827.14" y1="60" x2="827.14" y2="470" stroke="#f3f4f6" stroke-width="1"/>
<text x="827.14" y="492" font-size="12" text-anchor="middle" fill="#555555">44</text>
<line x1="844.29" y1="60" x2="844.29" y2="470" stroke="#f3f4f6" stroke-width="1"/>
<text x="844.29" y="492" font-size="12" text-anchor="middle" fill="#555555">45</text>
<line x1="861.43" y1="60" x2="861.43" y2="470" stroke="#f3f4f6" stroke-width="1"/>
<text x="861.43" y="492" font-size="12" text-anchor="middle" fill="#555555">46</text>
<line x1="878.57" y1="60" x2="878.57" y2="470" stroke="#f3f4f6" stroke-width="1"/>
<text x="878.57" y="492" font-size="12" text-anchor="middle" fill="#555555">47</text>
<line x1="895.71" y1="60" x2="895.71" y2="470" stroke="#f3f4f6" stroke-width="1"/>
<text x="895.71" y="492" font-size="12" text-anchor="middle" fill="#555555">48</text>
<line x1="912.86" y1="60" x2="912.86" y2="470" stroke="#f3f4f6" stroke-width="1"/>
<text x="912.86" y="492" font-size="12" text-anchor="middle" fill="#555555">49</text>
<line x1="930.00" y1="60" x2="930.00" y2="470" stroke="#f3f4f6" stroke-width="1"/>
<text x="930.00" y="492" font-size="12" text-anchor="middle" fill="#555555">50</text>
<polyline fill="none" stroke="#d97706" stroke-width="3" points="90.00,111.91 107.14,131.69 124.29,133.27 141.43,97.89 158.57,98.31 175.71,97.47 192.86,100.67 210.00,198.29 227.14,95.63 244.29,116.06 261.43,97.07 278.57,95.51 295.71,95.86 312.86,95.96 330.00,98.90 347.14,104.68 364.29,94.64 381.43,94.87 398.57,94.76 415.71,94.78 432.86,435.03 450.00,435.03 467.14,434.87 484.29,433.38 501.43,140.60 518.57,176.37 535.71,121.74 552.86,122.64 570.00,424.52 587.14,435.15 604.29,98.36 621.43,105.10 638.57,165.84 655.71,113.52 672.86,118.39 690.00,99.14 707.14,104.23 724.29,112.69 741.43,123.72 758.57,131.00 775.71,141.23 792.86,108.94 810.00,162.56 827.14,105.22 844.29,107.72 861.43,108.38 878.57,109.20 895.71,119.17 912.86,150.71 930.00,117.88"/>
<circle cx="90.00" cy="111.91" r="4.5" fill="#d97706" fill-opacity="0.9"/>
<circle cx="107.14" cy="131.69" r="4.5" fill="#d97706" fill-opacity="0.9"/>
<circle cx="124.29" cy="133.27" r="4.5" fill="#d97706" fill-opacity="0.9"/>
<circle cx="141.43" cy="97.89" r="4.5" fill="#d97706" fill-opacity="0.9"/>
<circle cx="158.57" cy="98.31" r="4.5" fill="#d97706" fill-opacity="0.9"/>
<circle cx="175.71" cy="97.47" r="4.5" fill="#d97706" fill-opacity="0.9"/>
<circle cx="192.86" cy="100.67" r="4.5" fill="#d97706" fill-opacity="0.9"/>
<circle cx="210.00" cy="198.29" r="4.5" fill="#d97706" fill-opacity="0.9"/>
<circle cx="227.14" cy="95.63" r="4.5" fill="#d97706" fill-opacity="0.9"/>
<circle cx="244.29" cy="116.06" r="4.5" fill="#d97706" fill-opacity="0.9"/>
<circle cx="261.43" cy="97.07" r="4.5" fill="#d97706" fill-opacity="0.9"/>
<circle cx="278.57" cy="95.51" r="4.5" fill="#d97706" fill-opacity="0.9"/>
<circle cx="295.71" cy="95.86" r="4.5" fill="#d97706" fill-opacity="0.9"/>
<circle cx="312.86" cy="95.96" r="4.5" fill="#d97706" fill-opacity="0.9"/>
<circle cx="330.00" cy="98.90" r="4.5" fill="#d97706" fill-opacity="0.9"/>
<circle cx="347.14" cy="104.68" r="4.5" fill="#d97706" fill-opacity="0.9"/>
<circle cx="364.29" cy="94.64" r="4.5" fill="#d97706" fill-opacity="0.9"/>
<circle cx="381.43" cy="94.87" r="4.5" fill="#d97706" fill-opacity="0.9"/>
<circle cx="398.57" cy="94.76" r="4.5" fill="#d97706" fill-opacity="0.9"/>
<circle cx="415.71" cy="94.78" r="4.5" fill="#d97706" fill-opacity="0.9"/>
<circle cx="432.86" cy="435.03" r="4.5" fill="#d97706" fill-opacity="0.9"/>
<circle cx="450.00" cy="435.03" r="4.5" fill="#d97706" fill-opacity="0.9"/>
<circle cx="467.14" cy="434.87" r="4.5" fill="#d97706" fill-opacity="0.9"/>
<circle cx="484.29" cy="433.38" r="4.5" fill="#d97706" fill-opacity="0.9"/>
<circle cx="501.43" cy="140.60" r="4.5" fill="#d97706" fill-opacity="0.9"/>
<circle cx="518.57" cy="176.37" r="4.5" fill="#d97706" fill-opacity="0.9"/>
<circle cx="535.71" cy="121.74" r="4.5" fill="#d97706" fill-opacity="0.9"/>
<circle cx="552.86" cy="122.64" r="4.5" fill="#d97706" fill-opacity="0.9"/>
<circle cx="570.00" cy="424.52" r="4.5" fill="#d97706" fill-opacity="0.9"/>
<circle cx="587.14" cy="435.15" r="4.5" fill="#d97706" fill-opacity="0.9"/>
<circle cx="604.29" cy="98.36" r="4.5" fill="#d97706" fill-opacity="0.9"/>
<circle cx="621.43" cy="105.10" r="4.5" fill="#d97706" fill-opacity="0.9"/>
<circle cx="638.57" cy="165.84" r="4.5" fill="#d97706" fill-opacity="0.9"/>
<circle cx="655.71" cy="113.52" r="4.5" fill="#d97706" fill-opacity="0.9"/>
<circle cx="672.86" cy="118.39" r="4.5" fill="#d97706" fill-opacity="0.9"/>
<circle cx="690.00" cy="99.14" r="4.5" fill="#d97706" fill-opacity="0.9"/>
<circle cx="707.14" cy="104.23" r="4.5" fill="#d97706" fill-opacity="0.9"/>
<circle cx="724.29" cy="112.69" r="4.5" fill="#d97706" fill-opacity="0.9"/>
<circle cx="741.43" cy="123.72" r="4.5" fill="#d97706" fill-opacity="0.9"/>
<circle cx="758.57" cy="131.00" r="4.5" fill="#d97706" fill-opacity="0.9"/>
<circle cx="775.71" cy="141.23" r="4.5" fill="#d97706" fill-opacity="0.9"/>
<circle cx="792.86" cy="108.94" r="4.5" fill="#d97706" fill-opacity="0.9"/>
<circle cx="810.00" cy="162.56" r="4.5" fill="#d97706" fill-opacity="0.9"/>
<circle cx="827.14" cy="105.22" r="4.5" fill="#d97706" fill-opacity="0.9"/>
<circle cx="844.29" cy="107.72" r="4.5" fill="#d97706" fill-opacity="0.9"/>
<circle cx="861.43" cy="108.38" r="4.5" fill="#d97706" fill-opacity="0.9"/>
<circle cx="878.57" cy="109.20" r="4.5" fill="#d97706" fill-opacity="0.9"/>
<circle cx="895.71" cy="119.17" r="4.5" fill="#d97706" fill-opacity="0.9"/>
<circle cx="912.86" cy="150.71" r="4.5" fill="#d97706" fill-opacity="0.9"/>
<circle cx="930.00" cy="117.88" r="4.5" fill="#d97706" fill-opacity="0.9"/>
<rect x="90" y="32" width="18" height="6" fill="#d97706"/>
<text x="114" y="38" font-size="13" fill="#333333">val</text>
<polyline fill="none" stroke="#059669" stroke-width="3" points="90.00,110.88 107.14,131.95 124.29,132.13 141.43,96.97 158.57,96.88 175.71,97.11 192.86,100.70 210.00,193.95 227.14,96.05 244.29,116.13 261.43,96.19 278.57,95.02 295.71,94.87 312.86,95.23 330.00,98.03 347.14,104.14 364.29,94.52 381.43,94.50 398.57,94.24 415.71,94.17 432.86,435.83 450.00,434.21 467.14,434.18 484.29,434.18 501.43,142.20 518.57,176.25 535.71,120.45 552.86,122.90 570.00,425.18 587.14,434.02 604.29,98.60 621.43,105.57 638.57,166.64 655.71,114.46 672.86,118.58 690.00,99.07 707.14,103.57 724.29,112.22 741.43,123.16 758.57,130.16 775.71,141.04 792.86,107.77 810.00,162.40 827.14,105.15 844.29,107.98 861.43,108.52 878.57,109.44 895.71,119.90 912.86,150.24 930.00,117.97"/>
<circle cx="90.00" cy="110.88" r="4.5" fill="#059669" fill-opacity="0.9"/>
<circle cx="107.14" cy="131.95" r="4.5" fill="#059669" fill-opacity="0.9"/>
<circle cx="124.29" cy="132.13" r="4.5" fill="#059669" fill-opacity="0.9"/>
<circle cx="141.43" cy="96.97" r="4.5" fill="#059669" fill-opacity="0.9"/>
<circle cx="158.57" cy="96.88" r="4.5" fill="#059669" fill-opacity="0.9"/>
<circle cx="175.71" cy="97.11" r="4.5" fill="#059669" fill-opacity="0.9"/>
<circle cx="192.86" cy="100.70" r="4.5" fill="#059669" fill-opacity="0.9"/>
<circle cx="210.00" cy="193.95" r="4.5" fill="#059669" fill-opacity="0.9"/>
<circle cx="227.14" cy="96.05" r="4.5" fill="#059669" fill-opacity="0.9"/>
<circle cx="244.29" cy="116.13" r="4.5" fill="#059669" fill-opacity="0.9"/>
<circle cx="261.43" cy="96.19" r="4.5" fill="#059669" fill-opacity="0.9"/>
<circle cx="278.57" cy="95.02" r="4.5" fill="#059669" fill-opacity="0.9"/>
<circle cx="295.71" cy="94.87" r="4.5" fill="#059669" fill-opacity="0.9"/>
<circle cx="312.86" cy="95.23" r="4.5" fill="#059669" fill-opacity="0.9"/>
<circle cx="330.00" cy="98.03" r="4.5" fill="#059669" fill-opacity="0.9"/>
<circle cx="347.14" cy="104.14" r="4.5" fill="#059669" fill-opacity="0.9"/>
<circle cx="364.29" cy="94.52" r="4.5" fill="#059669" fill-opacity="0.9"/>
<circle cx="381.43" cy="94.50" r="4.5" fill="#059669" fill-opacity="0.9"/>
<circle cx="398.57" cy="94.24" r="4.5" fill="#059669" fill-opacity="0.9"/>
<circle cx="415.71" cy="94.17" r="4.5" fill="#059669" fill-opacity="0.9"/>
<circle cx="432.86" cy="435.83" r="4.5" fill="#059669" fill-opacity="0.9"/>
<circle cx="450.00" cy="434.21" r="4.5" fill="#059669" fill-opacity="0.9"/>
<circle cx="467.14" cy="434.18" r="4.5" fill="#059669" fill-opacity="0.9"/>
<circle cx="484.29" cy="434.18" r="4.5" fill="#059669" fill-opacity="0.9"/>
<circle cx="501.43" cy="142.20" r="4.5" fill="#059669" fill-opacity="0.9"/>
<circle cx="518.57" cy="176.25" r="4.5" fill="#059669" fill-opacity="0.9"/>
<circle cx="535.71" cy="120.45" r="4.5" fill="#059669" fill-opacity="0.9"/>
<circle cx="552.86" cy="122.90" r="4.5" fill="#059669" fill-opacity="0.9"/>
<circle cx="570.00" cy="425.18" r="4.5" fill="#059669" fill-opacity="0.9"/>
<circle cx="587.14" cy="434.02" r="4.5" fill="#059669" fill-opacity="0.9"/>
<circle cx="604.29" cy="98.60" r="4.5" fill="#059669" fill-opacity="0.9"/>
<circle cx="621.43" cy="105.57" r="4.5" fill="#059669" fill-opacity="0.9"/>
<circle cx="638.57" cy="166.64" r="4.5" fill="#059669" fill-opacity="0.9"/>
<circle cx="655.71" cy="114.46" r="4.5" fill="#059669" fill-opacity="0.9"/>
<circle cx="672.86" cy="118.58" r="4.5" fill="#059669" fill-opacity="0.9"/>
<circle cx="690.00" cy="99.07" r="4.5" fill="#059669" fill-opacity="0.9"/>
<circle cx="707.14" cy="103.57" r="4.5" fill="#059669" fill-opacity="0.9"/>
<circle cx="724.29" cy="112.22" r="4.5" fill="#059669" fill-opacity="0.9"/>
<circle cx="741.43" cy="123.16" r="4.5" fill="#059669" fill-opacity="0.9"/>
<circle cx="758.57" cy="130.16" r="4.5" fill="#059669" fill-opacity="0.9"/>
<circle cx="775.71" cy="141.04" r="4.5" fill="#059669" fill-opacity="0.9"/>
<circle cx="792.86" cy="107.77" r="4.5" fill="#059669" fill-opacity="0.9"/>
<circle cx="810.00" cy="162.40" r="4.5" fill="#059669" fill-opacity="0.9"/>
<circle cx="827.14" cy="105.15" r="4.5" fill="#059669" fill-opacity="0.9"/>
<circle cx="844.29" cy="107.98" r="4.5" fill="#059669" fill-opacity="0.9"/>
<circle cx="861.43" cy="108.52" r="4.5" fill="#059669" fill-opacity="0.9"/>
<circle cx="878.57" cy="109.44" r="4.5" fill="#059669" fill-opacity="0.9"/>
<circle cx="895.71" cy="119.90" r="4.5" fill="#059669" fill-opacity="0.9"/>
<circle cx="912.86" cy="150.24" r="4.5" fill="#059669" fill-opacity="0.9"/>
<circle cx="930.00" cy="117.97" r="4.5" fill="#059669" fill-opacity="0.9"/>
<rect x="270" y="32" width="18" height="6" fill="#059669"/>
<text x="294" y="38" font-size="13" fill="#333333">test</text>
</svg>