<svg xmlns="http://www.w3.org/2000/svg" width="960" height="540">
<rect width="100%" height="100%" fill="#ffffff"/>
<text x="480.0" y="30" font-size="22" text-anchor="middle" fill="#111111">Position 4 Accuracy</text>
<text x="20" y="270.0" font-size="16" transform="rotate(-90 20,270.0)" text-anchor="middle" fill="#333333">Accuracy</text>
<text x="480.0" y="520" font-size="16" text-anchor="middle" fill="#333333">Epoch</text>
<line x1="90" y1="60" x2="90" y2="470" stroke="#333333" stroke-width="2"/>
<line x1="90" y1="470" x2="930" y2="470" stroke="#333333" stroke-width="2"/>
<line x1="90" y1="470.00" x2="930" y2="470.00" stroke="#e5e7eb" stroke-width="1"/>
<text x="80" y="475.00" font-size="12" text-anchor="end" fill="#555555">-0.0717</text>
<line x1="90" y1="367.50" x2="930" y2="367.50" stroke="#e5e7eb" stroke-width="1"/>
<text x="80" y="372.50" font-size="12" text-anchor="end" fill="#555555">0.2174</text>
<line x1="90" y1="265.00" x2="930" y2="265.00" stroke="#e5e7eb" stroke-width="1"/>
<text x="80" y="270.00" font-size="12" text-anchor="end" fill="#555555">0.5066</text>
<line x1="90" y1="162.50" x2="930" y2="162.50" stroke="#e5e7eb" stroke-width="1"/>
<text x="80" y="167.50" font-size="12" text-anchor="end" fill="#555555">0.7958</text>
<line x1="90" y1="60.00" x2="930" y2="60.00" stroke="#e5e7eb" stroke-width="1"/>
<text x="80" y="65.00" font-size="12" text-anchor="end" fill="#555555">1.0849</text>
<line x1="90.00" y1="60" x2="90.00" y2="470" stroke="#f3f4f6" stroke-width="1"/>
<text x="90.00" y="492" font-size="12" text-anchor="middle" fill="#555555">1</text>
<line x1="107.14" y1="60" x2="107.14" y2="470" stroke="#f3f4f6" stroke-width="1"/>
<text x="107.14" y="492" font-size="12" text-anchor="middle" fill="#555555">2</text>
<line x1="124.29" y1="60" x2="124.29" y2="470" stroke="#f3f4f6" stroke-width="1"/>
<text x="124.29" y="492" font-size="12" text-anchor="middle" fill="#555555">3</text>
<line x1="141.43" y1="60" x2="141.43" y2="470" stroke="#f3f4f6" stroke-width="1"/>
<text x="141.43" y="492" font-size="12" text-anchor="middle" fill="#555555">4</text>
<line x1="158.57" y1="60" x2="158.57" y2="470" stroke="#f3f4f6" stroke-width="1"/>
<text x="158.57" y="492" font-size="12" text-anchor="middle" fill="#555555">5</text>
<line x1="175.71" y1="60" x2="175.71" y2="470" stroke="#f3f4f6" stroke-width="1"/>
<text x="175.71" y="492" font-size="12" text-anchor="middle" fill="#555555">6</text>
<line x1="192.86" y1="60" x2="192.86" y2="470" stroke="#f3f4f6" stroke-width="1"/>
<text x="192.86" y="492" font-size="12" text-anchor="middle" fill="#555555">7</text>
<line x1="210.00" y1="60" x2="210.00" y2="470" stroke="#f3f4f6" stroke-width="1"/>
<text x="210.00" y="492" font-size="12" text-anchor="middle" fill="#555555">8</text>
<line x1="227.14" y1="60" x2="227.14" y2="470" stroke="#f3f4f6" stroke-width="1"/>
<text x="227.14" y="492" font-size="12" text-anchor="middle" fill="#555555">9</text>
<line x1="244.29" y1="60" x2="244.29" y2="470" stroke="#f3f4f6" stroke-width="1"/>
<text x="244.29" y="492" font-size="12" text-anchor="middle" fill="#555555">10</text>
<line x1="261.43" y1="60" x2="261.43" y2="470" stroke="#f3f4f6" stroke-width="1"/>
<text x="261.43" y="492" font-size="12" text-anchor="middle" fill="#555555">11</text>
<line x1="278.57" y1="60" x2="278.57" y2="470" stroke="#f3f4f6" stroke-width="1"/>
<text x="278.57" y="492" font-size="12" text-anchor="middle" fill="#555555">12</text>
<line x1="295.71" y1="60" x2="295.71" y2="470" stroke="#f3f4f6" stroke-width="1"/>
<text x="295.71" y="492" font-size="12" text-anchor="middle" fill="#555555">13</text>
<line x1="312.86" y1="60" x2="312.86" y2="470" stroke="#f3f4f6" stroke-width="1"/>
<text x="312.86" y="492" font-size="12" text-anchor="middle" fill="#555555">14</text>
<line x1="330.00" y1="60" x2="330.00" y2="470" stroke="#f3f4f6" stroke-width="1"/>
<text x="330.00" y="492" font-size="12" text-anchor="middle" fill="#555555">15</text>
<line x1="347.14" y1="60" x2="347.14" y2="470" stroke="#f3f4f6" stroke-width="1"/>
<text x="347.14" y="492" font-size="12" text-anchor="middle" fill="#555555">16</text>
<line x1="364.29" y1="60" x2="364.29" y2="470" stroke="#f3f4f6" stroke-width="1"/>
<text x="364.29" y="492" font-size="12" text-anchor="middle" fill="#555555">17</text>
<line x1="381.43" y1="60" x2="381.43" y2="470" stroke="#f3f4f6" stroke-width="1"/>
<text x="381.43" y="492" font-size="12" text-anchor="middle" fill="#555555">18</text>
<line x1="398.57" y1="60" x2="398.57" y2="470" stroke="#f3f4f6" stroke-width="1"/>
<text x="398.57" y="492" font-size="12" text-anchor="middle" fill="#555555">19</text>
<line x1="415.71" y1="60" x2="415.71" y2="470" stroke="#f3f4f6" stroke-width="1"/>
<text x="415.71" y="492" font-size="12" text-anchor="middle" fill="#555555">20</text>
<line x1="432.86" y1="60" x2="432.86" y2="470" stroke="#f3f4f6" stroke-width="1"/>
<text x="432.86" y="492" font-size="12" text-anchor="middle" fill="#555555">21</text>
<line x1="450.00" y1="60" x2="450.00" y2="470" stroke="#f3f4f6" stroke-width="1"/>
<text x="450.00" y="492" font-size="12" text-anchor="middle" fill="#555555">22</text>
<line x1="467.14" y1="60" x2="467.14" y2="470" stroke="#f3f4f6" stroke-width="1"/>
<text x="467.14" y="492" font-size="12" text-anchor="middle" fill="#555555">23</text>
<line x1="484.29" y1="60" x2="484.29" y2="470" stroke="#f3f4f6" stroke-width="1"/>
<text x="484.29" y="492" font-size="12" text-anchor="middle" fill="#555555">24</text>
<line x1="501.43" y1="60" x2="501.43" y2="470" stroke="#f3f4f6" stroke-width="1"/>
<text x="501.43" y="492" font-size="12" text-anchor="middle" fill="#555555">25</text>
<line x1="518.57" y1="60" x2="518.57" y2="470" stroke="#f3f4f6" stroke-width="1"/>
<text x="518.57" y="492" font-size="12" text-anchor="middle" fill="#555555">26</text>
<line x1="535.71" y1="60" x2="535.71" y2="470" stroke="#f3f4f6" stroke-width="1"/>
<text x="535.71" y="492" font-size="12" text-anchor="middle" fill="#555555">27</text>
<line x1="552.86" y1="60" x2="552.86" y2="470" stroke="#f3f4f6" stroke-width="1"/>
<text x="552.86" y="492" font-size="12" text-anchor="middle" fill="#555555">28</text>
<line x1="570.00" y1="60" x2="570.00" y2="470" stroke="#f3f4f6" stroke-width="1"/>
<text x="570.00" y="492" font-size="12" text-anchor="middle" fill="#555555">29</text>
<line x1="587.14" y1="60" x2="587.14" y2="470" stroke="#f3f4f6" stroke-width="1"/>
<text x="587.14" y="492" font-size="12" text-anchor="middle" fill="#555555">30</text>
<line x1="604.29" y1="60" x2="604.29" y2="470" stroke="#f3f4f6" stroke-width="1"/>
<text x="604.29" y="492" font-size="12" text-anchor="middle" fill="#555555">31</text>
<line x1="621.43" y1="60" x2="621.43" y2="470" stroke="#f3f4f6" stroke-width="1"/>
<text x="621.43" y="492" font-size="12" text-anchor="middle" fill="#555555">32</text>
<line x1="638.57" y1="60" x2="638.57" y2="470" stroke="#f3f4f6" stroke-width="1"/>
<text x="638.57" y="492" font-size="12" text-anchor="middle" fill="#555555">33</text>
<line x1="655.71" y1="60" x2="655.71" y2="470" stroke="#f3f4f6" stroke-width="1"/>
<text x="655.71" y="492" font-size="12" text-anchor="middle" fill="#555555">34</text>
<line x1="672.86" y1="60" x2="672.86" y2="470" stroke="#f3f4f6" stroke-width="1"/>
<text x="672.86" y="492" font-size="12" text-anchor="middle" fill="#555555">35</text>
<line x1="690.00" y1="60" x2="690.00" y2="470" stroke="#f3f4f6" stroke-width="1"/>
<text x="690.00" y="492" font-size="12" text-anchor="middle" fill="#555555">36</text>
<line x1="707.14" y1="60" x2="707.14" y2="470" stroke="#f3f4f6" stroke-width="1"/>
<text x="707.14" y="492" font-size="12" text-anchor="middle" fill="#555555">37</text>
<line x1="724.29" y1="60" x2="724.29" y2="470" stroke="#f3f4f6" stroke-width="1"/>
<text x="724.29" y="492" font-size="12" text-anchor="middle" fill="#555555">38</text>
<line x1="741.43" y1="60" x2="741.43" y2="470" stroke="#f3f4f6" stroke-width="1"/>
<text x="741.43" y="492" font-size="12" text-anchor="middle" fill="#555555">39</text>
<line x1="758.57" y1="60" x2="758.57" y2="470" stroke="#f3f4f6" stroke-width="1"/>
<text x="758.57" y="492" font-size="12" text-anchor="middle" fill="#555555">40</text>
<line x1="775.71" y1="60" x2="775.71" y2="470" stroke="#f3f4f6" stroke-width="1"/>
<text x="775.71" y="492" font-size="12" text-anchor="middle" fill="#555555">41</text>
<line x1="792.86" y1="60" x2="792.86" y2="470" stroke="#f3f4f6" stroke-width="1"/>
<text x="792.86" y="492" font-size="12" text-anchor="middle" fill="#555555">42</text>
<line x1="810.00" y1="60" x2="810.00" y2="470" stroke="#f3f4f6" stroke-width="1"/>
<text x="810.00" y="492" font-size="12" text-anchor="middle" fill="#555555">43</text>
<line x1="827.14" y1="60" x2="827.14" y2="470" stroke="#f3f4f6" stroke-width="1"/>
<text x="827.14" y="492" font-size="12" text-anchor="middle" fill="#555555">44</text>
<line x1="844.29" y1="60" x2="844.29" y2="470" stroke="#f3f4f6" stroke-width="1"/>
<text x="844.29" y="492" font-size="12" text-anchor="middle" fill="#555555">45</text>
<line x1="861.43" y1="60" x2="861.43" y2="470" stroke="#f3f4f6" stroke-width="1"/>
<text x="861.43" y="492" font-size="12" text-anchor="middle" fill="#555555">46</text>
<line x1="878.57" y1="60" x2="878.57" y2="470" stroke="#f3f4f6" stroke-width="1"/>
<text x="878.57" y="492" font-size="12" text-anchor="middle" fill="#555555">47</text>
<line x1="895.71" y1="60" x2="895.71" y2="470" stroke="#f3f4f6" stroke-width="1"/>
<text x="895.71" y="492" font-size="12" text-anchor="middle" fill="#555555">48</text>
<line x1="912.86" y1="60" x2="912.86" y2="470" stroke="#f3f4f6" stroke-width="1"/>
<text x="912.86" y="492" font-size="12" text-anchor="middle" fill="#555555">49</text>
<line x1="930.00" y1="60" x2="930.00" y2="470" stroke="#f3f4f6" stroke-width="1"/>
<text x="930.00" y="492" font-size="12" text-anchor="middle" fill="#555555">50</text>
<polyline fill="none" stroke="#d97706" stroke-width="3" points="90.00,128.76 107.14,130.18 124.29,165.16 141.43,98.18 158.57,99.77 175.71,97.33 192.86,103.31 210.00,177.18 227.14,96.25 244.29,118.03 261.43,96.36 278.57,95.35 295.71,96.15 312.86,96.70 330.00,97.76 347.14,109.95 364.29,94.40 381.43,94.92 398.57,94.76 415.71,96.32 432.86,435.64 450.00,435.15 467.14,434.60 484.29,433.47 501.43,143.23 518.57,161.85 535.71,118.79 552.86,131.69 570.00,435.83 587.14,432.62 604.29,98.47 621.43,107.00 638.57,147.60 655.71,117.44 672.86,122.67 690.00,101.87 707.14,114.25 724.29,115.36 741.43,140.46 758.57,115.27 775.71,155.33 792.86,110.28 810.00,145.92 827.14,100.74 844.29,116.97 861.43,119.22 878.57,102.93 895.71,117.89 912.86,157.90 930.00,110.19"/>
<circle cx="90.00" cy="128.76" r="4.5" fill="#d97706" fill-opacity="0.9"/>
<circle cx="107.14" cy="130.18" r="4.5" fill="#d97706" fill-opacity="0.9"/>
<circle cx="124.29" cy="165.16" r="4.5" fill="#d97706" fill-opacity="0.9"/>
<circle cx="141.43" cy="98.18" r="4.5" fill="#d97706" fill-opacity="0.9"/>
<circle cx="158.57" cy="99.77" r="4.5" fill="#d97706" fill-opacity="0.9"/>
<circle cx="175.71" cy="97.33" r="4.5" fill="#d97706" fill-opacity="0.9"/>
<circle cx="192.86" cy="103.31" r="4.5" fill="#d97706" fill-opacity="0.9"/>
<circle cx="210.00" cy="177.18" r="4.5" fill="#d97706" fill-opacity="0.9"/>
<circle cx="227.14" cy="96.25" r="4.5" fill="#d97706" fill-opacity="0.9"/>
<circle cx="244.29" cy="118.03" r="4.5" fill="#d97706" fill-opacity="0.9"/>
<circle cx="261.43" cy="96.36" r="4.5" fill="#d97706" fill-opacity="0.9"/>
<circle cx="278.57" cy="95.35" r="4.5" fill="#d97706" fill-opacity="0.9"/>
<circle cx="295.71" cy="96.15" r="4.5" fill="#d97706" fill-opacity="0.9"/>
<circle cx="312.86" cy="96.70" r="4.5" fill="#d97706" fill-opacity="0.9"/>
<circle cx="330.00" cy="97.76" r="4.5" fill="#d97706" fill-opacity="0.9"/>
<circle cx="347.14" cy="109.95" r="4.5" fill="#d97706" fill-opacity="0.9"/>
<circle cx="364.29" cy="94.40" r="4.5" fill="#d97706" fill-opacity="0.9"/>
<circle cx="381.43" cy="94.92" r="4.5" fill="#d97706" fill-opacity="0.9"/>
<circle cx="398.57" cy="94.76" r="4.5" fill="#d97706" fill-opacity="0.9"/>
<circle cx="415.71" cy="96.32" r="4.5" fill="#d97706" fill-opacity="0.9"/>
<circle cx="432.86" cy="435.64" r="4.5" fill="#d97706" fill-opacity="0.9"/>
<circle cx="450.00" cy="435.15" r="4.5" fill="#d97706" fill-opacity="0.9"/>
<circle cx="467.14" cy="434.60" r="4.5" fill="#d97706" fill-opacity="0.9"/>
<circle cx="484.29" cy="433.47" r="4.5" fill="#d97706" fill-opacity="0.9"/>
<circle cx="501.43" cy="143.23" r="4.5" fill="#d97706" fill-opacity="0.9"/>
<circle cx="518.57" cy="161.85" r="4.5" fill="#d97706" fill-opacity="0.9"/>
<circle cx="535.71" cy="118.79" r="4.5" fill="#d97706" fill-opacity="0.9"/>
<circle cx="552.86" cy="131.69" r="4.5" fill="#d97706" fill-opacity="0.9"/>
<circle cx="570.00" cy="435.83" r="4.5" fill="#d97706" fill-opacity="0.9"/>
<circle cx="587.14" cy="432.62" r="4.5" fill="#d97706" fill-opacity="0.9"/>
<circle cx="604.29" cy="98.47" r="4.5" fill="#d97706" fill-opacity="0.9"/>
<circle cx="621.43" cy="107.00" r="4.5" fill="#d97706" fill-opacity="0.9"/>
<circle cx="638.57" cy="147.60" r="4.5" fill="#d97706" fill-opacity="0.9"/>
<circle cx="655.71" cy="117.44" r="4.5" fill="#d97706" fill-opacity="0.9"/>
<circle cx="672.86" cy="122.67" r="4.5" fill="#d97706" fill-opacity="0.9"/>
<circle cx="690.00" cy="101.87" r="4.5" fill="#d97706" fill-opacity="0.9"/>
<circle cx="707.14" cy="114.25" r="4.5" fill="#d97706" fill-opacity="0.9"/>
<circle cx="724.29" cy="115.36" r="4.5" fill="#d97706" fill-opacity="0.9"/>
<circle cx="741.43" cy="140.46" r="4.5" fill="#d97706" fill-opacity="0.9"/>
<circle cx="758.57" cy="115.27" r="4.5" fill="#d97706" fill-opacity="0.9"/>
<circle cx="775.71" cy="155.33" r="4.5" fill="#d97706" fill-opacity="0.9"/>
<circle cx="792.86" cy="110.28" r="4.5" fill="#d97706" fill-opacity="0.9"/>
<circle cx="810.00" cy="145.92" r="4.5" fill="#d97706" fill-opacity="0.9"/>
<circle cx="827.14" cy="100.74" r="4.5" fill="#d97706" fill-opacity="0.9"/>
<circle cx="844.29" cy="116.97" r="4.5" fill="#d97706" fill-opacity="0.9"/>
<circle cx="861.43" cy="119.22" r="4.5" fill="#d97706" fill-opacity="0.9"/>
<circle cx="878.57" cy="102.93" r="4.5" fill="#d97706" fill-opacity="0.9"/>
<circle cx="895.71" cy="117.89" r="4.5" fill="#d97706" fill-opacity="0.9"/>
<circle cx="912.86" cy="157.90" r="4.5" fill="#d97706" fill-opacity="0.9"/>
<circle cx="930.00" cy="110.19" r="4.5" fill="#d97706" fill-opacity="0.9"/>
<rect x="90" y="32" width="18" height="6" fill="#d97706"/>
<text x="114" y="38" font-size="13" fill="#333333">val</text>
<polyline fill="none" stroke="#059669" stroke-width="3" points="90.00,127.91 107.14,129.69 124.29,164.99 141.43,98.30 158.57,98.73 175.71,97.24 192.86,102.84 210.00,176.83 227.14,96.65 244.29,117.11 261.43,96.55 278.57,95.37 295.71,95.63 312.86,96.77 330.00,97.00 347.14,109.43 364.29,94.64 381.43,95.09 398.57,94.17 415.71,95.25 432.86,435.01 450.00,434.70 467.14,434.08 484.29,433.54 501.43,141.12 518.57,162.49 535.71,117.54 552.86,129.31 570.00,435.41 587.14,432.60 604.29,97.76 621.43,106.72 638.57,145.80 655.71,117.14 672.86,122.24 690.00,101.23 707.14,113.73 724.29,115.15 741.43,140.30 758.57,114.99 775.71,152.54 792.86,110.19 810.00,145.33 827.14,100.29 844.29,113.50 861.43,119.07 878.57,102.51 895.71,116.69 912.86,159.48 930.00,110.05"/>
<circle cx="90.00" cy="127.91" r="4.5" fill="#059669" fill-opacity="0.9"/>
<circle cx="107.14" cy="129.69" r="4.5" fill="#059669" fill-opacity="0.9"/>
<circle cx="124.29" cy="164.99" r="4.5" fill="#059669" fill-opacity="0.9"/>
<circle cx="141.43" cy="98.30" r="4.5" fill="#059669" fill-opacity="0.9"/>
<circle cx="158.57" cy="98.73" r="4.5" fill="#059669" fill-opacity="0.9"/>
<circle cx="175.71" cy="97.24" r="4.5" fill="#059669" fill-opacity="0.9"/>
<circle cx="192.86" cy="102.84" r="4.5" fill="#059669" fill-opacity="0.9"/>
<circle cx="210.00" cy="176.83" r="4.5" fill="#059669" fill-opacity="0.9"/>
<circle cx="227.14" cy="96.65" r="4.5" fill="#059669" fill-opacity="0.9"/>
<circle cx="244.29" cy="117.11" r="4.5" fill="#059669" fill-opacity="0.9"/>
<circle cx="261.43" cy="96.55" r="4.5" fill="#059669" fill-opacity="0.9"/>
<circle cx="278.57" cy="95.37" r="4.5" fill="#059669" fill-opacity="0.9"/>
<circle cx="295.71" cy="95.63" r="4.5" fill="#059669" fill-opacity="0.9"/>
<circle cx="312.86" cy="96.77" r="4.5" fill="#059669" fill-opacity="0.9"/>
<circle cx="330.00" cy="97.00" r="4.5" fill="#059669" fill-opacity="0.9"/>
<circle cx="347.14" cy="109.43" r="4.5" fill="#059669" fill-opacity="0.9"/>
<circle cx="364.29" cy="94.64" r="4.5" fill="#059669" fill-opacity="0.9"/>
<circle cx="381.43" cy="95.09" r="4.5" fill="#059669" fill-opacity="0.9"/>
<circle cx="398.57" cy="94.17" r="4.5" fill="#059669" fill-opacity="0.9"/>
<circle cx="415.71" cy="95.25" r="4.5" fill="#059669" fill-opacity="0.9"/>
<circle cx="432.86" cy="435.01" r="4.5" fill="#059669" fill-opacity="0.9"/>
<circle cx="450.00" cy="434.70" r="4.5" fill="#059669" fill-opacity="0.9"/>
<circle cx="467.14" cy="434.08" r="4.5" fill="#059669" fill-opacity="0.9"/>
<circle cx="484.29" cy="433.54" r="4.5" fill="#059669" fill-opacity="0.9"/>
<circle cx="501.43" cy="141.12" r="4.5" fill="#059669" fill-opacity="0.9"/>
<circle cx="518.57" cy="162.49" r="4.5" fill="#059669" fill-opacity="0.9"/>
<circle cx="535.71" cy="117.54" r="4.5" fill="#059669" fill-opacity="0.9"/>
<circle cx="552.86" cy="129.31" r="4.5" fill="#059669" fill-opacity="0.9"/>
<circle cx="570.00" cy="435.41" r="4.5" fill="#059669" fill-opacity="0.9"/>
<circle cx="587.14" cy="432.60" r="4.5" fill="#059669" fill-opacity="0.9"/>
<circle cx="604.29" cy="97.76" r="4.5" fill="#059669" fill-opacity="0.9"/>
<circle cx="621.43" cy="106.72" r="4.5" fill="#059669" fill-opacity="0.9"/>
<circle cx="638.57" cy="145.80" r="4.5" fill="#059669" fill-opacity="0.9"/>
<circle cx="655.71" cy="117.14" r="4.5" fill="#059669" fill-opacity="0.9"/>
<circle cx="672.86" cy="122.24" r="4.5" fill="#059669" fill-opacity="0.9"/>
<circle cx="690.00" cy="101.23" r="4.5" fill="#059669" fill-opacity="0.9"/>
<circle cx="707.14" cy="113.73" r="4.5" fill="#059669" fill-opacity="0.9"/>
<circle cx="724.29" cy="115.15" r="4.5" fill="#059669" fill-opacity="0.9"/>
<circle cx="741.43" cy="140.30" r="4.5" fill="#059669" fill-opacity="0.9"/>
<circle cx="758.57" cy="114.99" r="4.5" fill="#059669" fill-opacity="0.9"/>
<circle cx="775.71" cy="152.54" r="4.5" fill="#059669" fill-opacity="0.9"/>
<circle cx="792.86" cy="110.19" r="4.5" fill="#059669" fill-opacity="0.9"/>
<circle cx="810.00" cy="145.33" r="4.5" fill="#059669" fill-opacity="0.9"/>
<circle cx="827.14" cy="100.29" r="4.5" fill="#059669" fill-opacity="0.9"/>
<circle cx="844.29" cy="113.50" r="4.5" fill="#059669" fill-opacity="0.9"/>
<circle cx="861.43" cy="119.07" r="4.5" fill="#059669" fill-opacity="0.9"/>
<circle cx="878.57" cy="102.51" r="4.5" fill="#059669" fill-opacity="0.9"/>
<circle cx="895.71" cy="116.69" r="4.5" fill="#059669" fill-opacity="0.9"/>
<circle cx="912.86" cy="159.48" r="4.5" fill="#059669" fill-opacity="0.9"/>
<circle cx="930.00" cy="110.05" r="4.5" fill="#059669" fill-opacity="0.9"/>
<rect x="270" y="32" width="18" height="6" fill="#059669"/>
<text x="294" y="38" font-size="13" fill="#333333">test</text>
</svg>