<svg xmlns="http://www.w3.org/2000/svg" width="960" height="540">
<rect width="100%" height="100%" fill="#ffffff"/>
<text x="480.0" y="30" font-size="22" text-anchor="middle" fill="#111111">Sequence Accuracy</text>
<text x="20" y="270.0" font-size="16" transform="rotate(-90 20,270.0)" text-anchor="middle" fill="#333333">Accuracy</text>
<text x="480.0" y="520" font-size="16" text-anchor="middle" fill="#333333">Epoch</text>
<line x1="90" y1="60" x2="90" y2="470" stroke="#333333" stroke-width="2"/>
<line x1="90" y1="470" x2="930" y2="470" stroke="#333333" stroke-width="2"/>
<line x1="90" y1="470.00" x2="930" y2="470.00" stroke="#e5e7eb" stroke-width="1"/>
<text x="80" y="475.00" font-size="12" text-anchor="end" fill="#555555">-0.0945</text>
<line x1="90" y1="367.50" x2="930" y2="367.50" stroke="#e5e7eb" stroke-width="1"/>
<text x="80" y="372.50" font-size="12" text-anchor="end" fill="#555555">0.1890</text>
<line x1="90" y1="265.00" x2="930" y2="265.00" stroke="#e5e7eb" stroke-width="1"/>
<text x="80" y="270.00" font-size="12" text-anchor="end" fill="#555555">0.4725</text>
<line x1="90" y1="162.50" x2="930" y2="162.50" stroke="#e5e7eb" stroke-width="1"/>
<text x="80" y="167.50" font-size="12" text-anchor="end" fill="#555555">0.7560</text>
<line x1="90" y1="60.00" x2="930" y2="60.00" stroke="#e5e7eb" stroke-width="1"/>
<text x="80" y="65.00" font-size="12" text-anchor="end" fill="#555555">1.0395</text>
<line x1="90.00" y1="60" x2="90.00" y2="470" stroke="#f3f4f6" stroke-width="1"/>
<text x="90.00" y="492" font-size="12" text-anchor="middle" fill="#555555">1</text>
<line x1="107.14" y1="60" x2="107.14" y2="470" stroke="#f3f4f6" stroke-width="1"/>
<text x="107.14" y="492" font-size="12" text-anchor="middle" fill="#555555">2</text>
<line x1="124.29" y1="60" x2="124.29" y2="470" stroke="#f3f4f6" stroke-width="1"/>
<text x="124.29" y="492" font-size="12" text-anchor="middle" fill="#555555">3</text>
<line x1="141.43" y1="60" x2="141.43" y2="470" stroke="#f3f4f6" stroke-width="1"/>
<text x="141.43" y="492" font-size="12" text-anchor="middle" fill="#555555">4</text>
<line x1="158.57" y1="60" x2="158.57" y2="470" stroke="#f3f4f6" stroke-width="1"/>
<text x="158.57" y="492" font-size="12" text-anchor="middle" fill="#555555">5</text>
<line x1="175.71" y1="60" x2="175.71" y2="470" stroke="#f3f4f6" stroke-width="1"/>
<text x="175.71" y="492" font-size="12" text-anchor="middle" fill="#555555">6</text>
<line x1="192.86" y1="60" x2="192.86" y2="470" stroke="#f3f4f6" stroke-width="1"/>
<text x="192.86" y="492" font-size="12" text-anchor="middle" fill="#555555">7</text>
<line x1="210.00" y1="60" x2="210.00" y2="470" stroke="#f3f4f6" stroke-width="1"/>
<text x="210.00" y="492" font-size="12" text-anchor="middle" fill="#555555">8</text>
<line x1="227.14" y1="60" x2="227.14" y2="470" stroke="#f3f4f6" stroke-width="1"/>
<text x="227.14" y="492" font-size="12" text-anchor="middle" fill="#555555">9</text>
<line x1="244.29" y1="60" x2="244.29" y2="470" stroke="#f3f4f6" stroke-width="1"/>
<text x="244.29" y="492" font-size="12" text-anchor="middle" fill="#555555">10</text>
<line x1="261.43" y1="60" x2="261.43" y2="470" stroke="#f3f4f6" stroke-width="1"/>
<text x="261.43" y="492" font-size="12" text-anchor="middle" fill="#555555">11</text>
<line x1="278.57" y1="60" x2="278.57" y2="470" stroke="#f3f4f6" stroke-width="1"/>
<text x="278.57" y="492" font-size="12" text-anchor="middle" fill="#555555">12</text>
<line x1="295.71" y1="60" x2="295.71" y2="470" stroke="#f3f4f6" stroke-width="1"/>
<text x="295.71" y="492" font-size="12" text-anchor="middle" fill="#555555">13</text>
<line x1="312.86" y1="60" x2="312.86" y2="470" stroke="#f3f4f6" stroke-width="1"/>
<text x="312.86" y="492" font-size="12" text-anchor="middle" fill="#555555">14</text>
<line x1="330.00" y1="60" x2="330.00" y2="470" stroke="#f3f4f6" stroke-width="1"/>
<text x="330.00" y="492" font-size="12" text-anchor="middle" fill="#555555">15</text>
<line x1="347.14" y1="60" x2="347.14" y2="470" stroke="#f3f4f6" stroke-width="1"/>
<text x="347.14" y="492" font-size="12" text-anchor="middle" fill="#555555">16</text>
<line x1="364.29" y1="60" x2="364.29" y2="470" stroke="#f3f4f6" stroke-width="1"/>
<text x="364.29" y="492" font-size="12" text-anchor="middle" fill="#555555">17</text>
<line x1="381.43" y1="60" x2="381.43" y2="470" stroke="#f3f4f6" stroke-width="1"/>
<text x="381.43" y="492" font-size="12" text-anchor="middle" fill="#555555">18</text>
<line x1="398.57" y1="60" x2="398.57" y2="470" stroke="#f3f4f6" stroke-width="1"/>
<text x="398.57" y="492" font-size="12" text-anchor="middle" fill="#555555">19</text>
<line x1="415.71" y1="60" x2="415.71" y2="470" stroke="#f3f4f6" stroke-width="1"/>
<text x="415.71" y="492" font-size="12" text-anchor="middle" fill="#555555">20</text>
<line x1="432.86" y1="60" x2="432.86" y2="470" stroke="#f3f4f6" stroke-width="1"/>
<text x="432.86" y="492" font-size="12" text-anchor="middle" fill="#555555">21</text>
<line x1="450.00" y1="60" x2="450.00" y2="470" stroke="#f3f4f6" stroke-width="1"/>
<text x="450.00" y="492" font-size="12" text-anchor="middle" fill="#555555">22</text>
<line x1="467.14" y1="60" x2="467.14" y2="470" stroke="#f3f4f6" stroke-width="1"/>
<text x="467.14" y="492" font-size="12" text-anchor="middle" fill="#555555">23</text>
<line x1="484.29" y1="60" x2="484.29" y2="470" stroke="#f3f4f6" stroke-width="1"/>
<text x="484.29" y="492" font-size="12" text-anchor="middle" fill="#555555">24</text>
<line x1="501.43" y1="60" x2="501.43" y2="470" stroke="#f3f4f6" stroke-width="1"/>
<text x="501.43" y="492" font-size="12" text-anchor="middle" fill="#555555">25</text>
<line x1="518.57" y1="60" x2="518.57" y2="470" stroke="#f3f4f6" stroke-width="1"/>
<text x="518.57" y="492" font-size="12" text-anchor="middle" fill="#555555">26</text>
<line x1="535.71" y1="60" x2="535.71" y2="470" stroke="#f3f4f6" stroke-width="1"/>
<text x="535.71" y="492" font-size="12" text-anchor="middle" fill="#555555">27</text>
<line x1="552.86" y1="60" x2="552.86" y2="470" stroke="#f3f4f6" stroke-width="1"/>
<text x="552.86" y="492" font-size="12" text-anchor="middle" fill="#555555">28</text>
<line x1="570.00" y1="60" x2="570.00" y2="470" stroke="#f3f4f6" stroke-width="1"/>
<text x="570.00" y="492" font-size="12" text-anchor="middle" fill="#555555">29</text>
<line x1="587.14" y1="60" x2="587.14" y2="470" stroke="#f3f4f6" stroke-width="1"/>
<text x="587.14" y="492" font-size="12" text-anchor="middle" fill="#555555">30</text>
<line x1="604.29" y1="60" x2="604.29" y2="470" stroke="#f3f4f6" stroke-width="1"/>
<text x="604.29" y="492" font-size="12" text-anchor="middle" fill="#555555">31</text>
<line x1="621.43" y1="60" x2="621.43" y2="470" stroke="#f3f4f6" stroke-width="1"/>
<text x="621.43" y="492" font-size="12" text-anchor="middle" fill="#555555">32</text>
<line x1="638.57" y1="60" x2="638.57" y2="470" stroke="#f3f4f6" stroke-width="1"/>
<text x="638.57" y="492" font-size="12" text-anchor="middle" fill="#555555">33</text>
<line x1="655.71" y1="60" x2="655.71" y2="470" stroke="#f3f4f6" stroke-width="1"/>
<text x="655.71" y="492" font-size="12" text-anchor="middle" fill="#555555">34</text>
<line x1="672.86" y1="60" x2="672.86" y2="470" stroke="#f3f4f6" stroke-width="1"/>
<text x="672.86" y="492" font-size="12" text-anchor="middle" fill="#555555">35</text>
<line x1="690.00" y1="60" x2="690.00" y2="470" stroke="#f3f4f6" stroke-width="1"/>
<text x="690.00" y="492" font-size="12" text-anchor="middle" fill="#555555">36</text>
<line x1="707.14" y1="60" x2="707.14" y2="470" stroke="#f3f4f6" stroke-width="1"/>
<text x="707.14" y="492" font-size="12" text-anchor="middle" fill="#555555">37</text>
<line x1="724.29" y1="60" x2="724.29" y2="470" stroke="#f3f4f6" stroke-width="1"/>
<text x="724.29" y="492" font-size="12" text-anchor="middle" fill="#555555">38</text>
<line x1="741.43" y1="60" x2="741.43" y2="470" stroke="#f3f4f6" stroke-width="1"/>
<text x="741.43" y="492" font-size="12" text-anchor="middle" fill="#555555">39</text>
<line x1="758.57" y1="60" x2="758.57" y2="470" stroke="#f3f4f6" stroke-width="1"/>
<text x="758.57" y="492" font-size="12" text-anchor="middle" fill="#555555">40</text>
<line x1="775.71" y1="60" x2="775.71" y2="470" stroke="#f3f4f6" stroke-width="1"/>
<text x="775.71" y="492" font-size="12" text-anchor="middle" fill="#555555">41</text>
<line x1="792.86" y1="60" x2="792.86" y2="470" stroke="#f3f4f6" stroke-width="1"/>
<text x="792.86" y="492" font-size="12" text-anchor="middle" fill="#555555">42</text>
<line x1="810.00" y1="60" x2="810.00" y2="470" stroke="#f3f4f6" stroke-width="1"/>
<text x="810.00" y="492" font-size="12" text-anchor="middle" fill="#555555">43</text>
<line x1="827.14" y1="60" x2="827.14" y2="470" stroke="#f3f4f6" stroke-width="1"/>
<text x="827.14" y="492" font-size="12" text-anchor="middle" fill="#555555">44</text>
<line x1="844.29" y1="60" x2="844.29" y2="470" stroke="#f3f4f6" stroke-width="1"/>
<text x="844.29" y="492" font-size="12" text-anchor="middle" fill="#555555">45</text>
<line x1="861.43" y1="60" x2="861.43" y2="470" stroke="#f3f4f6" stroke-width="1"/>
<text x="861.43" y="492" font-size="12" text-anchor="middle" fill="#555555">46</text>
<line x1="878.57" y1="60" x2="878.57" y2="470" stroke="#f3f4f6" stroke-width="1"/>
<text x="878.57" y="492" font-size="12" text-anchor="middle" fill="#555555">47</text>
<line x1="895.71" y1="60" x2="895.71" y2="470" stroke="#f3f4f6" stroke-width="1"/>
<text x="895.71" y="492" font-size="12" text-anchor="middle" fill="#555555">48</text>
<line x1="912.86" y1="60" x2="912.86" y2="470" stroke="#f3f4f6" stroke-width="1"/>
<text x="912.86" y="492" font-size="12" text-anchor="middle" fill="#555555">49</text>
<line x1="930.00" y1="60" x2="930.00" y2="470" stroke="#f3f4f6" stroke-width="1"/>
<text x="930.00" y="492" font-size="12" text-anchor="middle" fill="#555555">50</text>
<polyline fill="none" stroke="#d97706" stroke-width="3" points="90.00,203.64 107.14,234.26 124.29,269.71 141.43,109.35 158.57,119.57 175.71,111.96 192.86,125.57 210.00,328.16 227.14,101.61 244.29,169.20 261.43,103.28 278.57,98.89 295.71,100.80 312.86,101.81 330.00,107.21 347.14,136.01 364.29,95.32 381.43,95.40 398.57,94.26 415.71,97.85 432.86,435.83 450.00,435.83 467.14,435.83 484.29,435.83 501.43,271.33 518.57,328.98 535.71,203.45 552.86,216.83 570.00,435.83 587.14,435.83 604.29,112.77 621.43,147.34 638.57,272.39 655.71,211.65 672.86,197.96 690.00,123.81 707.14,168.14 724.29,184.87 741.43,283.02 758.57,194.05 775.71,305.07 792.86,168.21 810.00,304.93 827.14,126.68 844.29,173.52 861.43,188.72 878.57,153.29 895.71,190.80 912.86,294.64 930.00,173.08"/>
<circle cx="90.00" cy="203.64" r="4.5" fill="#d97706" fill-opacity="0.9"/>
<circle cx="107.14" cy="234.26" r="4.5" fill="#d97706" fill-opacity="0.9"/>
<circle cx="124.29" cy="269.71" r="4.5" fill="#d97706" fill-opacity="0.9"/>
<circle cx="141.43" cy="109.35" r="4.5" fill="#d97706" fill-opacity="0.9"/>
<circle cx="158.57" cy="119.57" r="4.5" fill="#d97706" fill-opacity="0.9"/>
<circle cx="175.71" cy="111.96" r="4.5" fill="#d97706" fill-opacity="0.9"/>
<circle cx="192.86" cy="125.57" r="4.5" fill="#d97706" fill-opacity="0.9"/>
<circle cx="210.00" cy="328.16" r="4.5" fill="#d97706" fill-opacity="0.9"/>
<circle cx="227.14" cy="101.61" r="4.5" fill="#d97706" fill-opacity="0.9"/>
<circle cx="244.29" cy="169.20" r="4.5" fill="#d97706" fill-opacity="0.9"/>
<circle cx="261.43" cy="103.28" r="4.5" fill="#d97706" fill-opacity="0.9"/>
<circle cx="278.57" cy="98.89" r="4.5" fill="#d97706" fill-opacity="0.9"/>
<circle cx="295.71" cy="100.80" r="4.5" fill="#d97706" fill-opacity="0.9"/>
<circle cx="312.86" cy="101.81" r="4.5" fill="#d97706" fill-opacity="0.9"/>
<circle cx="330.00" cy="107.21" r="4.5" fill="#d97706" fill-opacity="0.9"/>
<circle cx="347.14" cy="136.01" r="4.5" fill="#d97706" fill-opacity="0.9"/>
<circle cx="364.29" cy="95.32" r="4.5" fill="#d97706" fill-opacity="0.9"/>
<circle cx="381.43" cy="95.40" r="4.5" fill="#d97706" fill-opacity="0.9"/>
<circle cx="398.57" cy="94.26" r="4.5" fill="#d97706" fill-opacity="0.9"/>
<circle cx="415.71" cy="97.85" r="4.5" fill="#d97706" fill-opacity="0.9"/>
<circle cx="432.86" cy="435.83" r="4.5" fill="#d97706" fill-opacity="0.9"/>
<circle cx="450.00" cy="435.83" r="4.5" fill="#d97706" fill-opacity="0.9"/>
<circle cx="467.14" cy="435.83" r="4.5" fill="#d97706" fill-opacity="0.9"/>
<circle cx="484.29" cy="435.83" r="4.5" fill="#d97706" fill-opacity="0.9"/>
<circle cx="501.43" cy="271.33" r="4.5" fill="#d97706" fill-opacity="0.9"/>
<circle cx="518.57" cy="328.98" r="4.5" fill="#d97706" fill-opacity="0.9"/>
<circle cx="535.71" cy="203.45" r="4.5" fill="#d97706" fill-opacity="0.9"/>
<circle cx="552.86" cy="216.83" r="4.5" fill="#d97706" fill-opacity="0.9"/>
<circle cx="570.00" cy="435.83" r="4.5" fill="#d97706" fill-opacity="0.9"/>
<circle cx="587.14" cy="435.83" r="4.5" fill="#d97706" fill-opacity="0.9"/>
<circle cx="604.29" cy="112.77" r="4.5" fill="#d97706" fill-opacity="0.9"/>
<circle cx="621.43" cy="147.34" r="4.5" fill="#d97706" fill-opacity="0.9"/>
<circle cx="638.57" cy="272.39" r="4.5" fill="#d97706" fill-opacity="0.9"/>
<circle cx="655.71" cy="211.65" r="4.5" fill="#d97706" fill-opacity="0.9"/>
<circle cx="672.86" cy="197.96" r="4.5" fill="#d97706" fill-opacity="0.9"/>
<circle cx="690.00" cy="123.81" r="4.5" fill="#d97706" fill-opacity="0.9"/>
<circle cx="707.14" cy="168.14" r="4.5" fill="#d97706" fill-opacity="0.9"/>
<circle cx="724.29" cy="184.87" r="4.5" fill="#d97706" fill-opacity="0.9"/>
<circle cx="741.43" cy="283.02" r="4.5" fill="#d97706" fill-opacity="0.9"/>
<circle cx="758.57" cy="194.05" r="4.5" fill="#d97706" fill-opacity="0.9"/>
<circle cx="775.71" cy="305.07" r="4.5" fill="#d97706" fill-opacity="0.9"/>
<circle cx="792.86" cy="168.21" r="4.5" fill="#d97706" fill-opacity="0.9"/>
<circle cx="810.00" cy="304.93" r="4.5" fill="#d97706" fill-opacity="0.9"/>
<circle cx="827.14" cy="126.68" r="4.5" fill="#d97706" fill-opacity="0.9"/>
<circle cx="844.29" cy="173.52" r="4.5" fill="#d97706" fill-opacity="0.9"/>
<circle cx="861.43" cy="188.72" r="4.5" fill="#d97706" fill-opacity="0.9"/>
<circle cx="878.57" cy="153.29" r="4.5" fill="#d97706" fill-opacity="0.9"/>
<circle cx="895.71" cy="190.80" r="4.5" fill="#d97706" fill-opacity="0.9"/>
<circle cx="912.86" cy="294.64" r="4.5" fill="#d97706" fill-opacity="0.9"/>
<circle cx="930.00" cy="173.08" r="4.5" fill="#d97706" fill-opacity="0.9"/>
<rect x="90" y="32" width="18" height="6" fill="#d97706"/>
<text x="114" y="38" font-size="13" fill="#333333">val</text>
<polyline fill="none" stroke="#059669" stroke-width="3" points="90.00,203.91 107.14,236.43 124.29,272.51 141.43,110.87 158.57,119.40 175.71,112.80 192.86,124.75 210.00,325.97 227.14,103.71 244.29,169.49 261.43,103.76 278.57,100.07 295.71,99.64 312.86,102.82 330.00,107.47 347.14,134.81 364.29,96.31 381.43,96.12 398.57,94.17 415.71,97.18 432.86,435.83 450.00,435.83 467.14,435.83 484.29,435.83 501.43,271.83 518.57,330.53 535.71,204.10 552.86,216.76 570.00,435.83 587.14,435.83 604.29,113.62 621.43,148.57 638.57,274.27 655.71,214.52 672.86,199.21 690.00,125.12 707.14,170.55 724.29,186.48 741.43,284.05 758.57,194.36 775.71,301.67 792.86,170.14 810.00,302.25 827.14,127.74 844.29,171.73 861.43,189.09 878.57,153.68 895.71,189.76 912.86,298.06 930.00,176.19"/>
<circle cx="90.00" cy="203.91" r="4.5" fill="#059669" fill-opacity="0.9"/>
<circle cx="107.14" cy="236.43" r="4.5" fill="#059669" fill-opacity="0.9"/>
<circle cx="124.29" cy="272.51" r="4.5" fill="#059669" fill-opacity="0.9"/>
<circle cx="141.43" cy="110.87" r="4.5" fill="#059669" fill-opacity="0.9"/>
<circle cx="158.57" cy="119.40" r="4.5" fill="#059669" fill-opacity="0.9"/>
<circle cx="175.71" cy="112.80" r="4.5" fill="#059669" fill-opacity="0.9"/>
<circle cx="192.86" cy="124.75" r="4.5" fill="#059669" fill-opacity="0.9"/>
<circle cx="210.00" cy="325.97" r="4.5" fill="#059669" fill-opacity="0.9"/>
<circle cx="227.14" cy="103.71" r="4.5" fill="#059669" fill-opacity="0.9"/>
<circle cx="244.29" cy="169.49" r="4.5" fill="#059669" fill-opacity="0.9"/>
<circle cx="261.43" cy="103.76" r="4.5" fill="#059669" fill-opacity="0.9"/>
<circle cx="278.57" cy="100.07" r="4.5" fill="#059669" fill-opacity="0.9"/>
<circle cx="295.71" cy="99.64" r="4.5" fill="#059669" fill-opacity="0.9"/>
<circle cx="312.86" cy="102.82" r="4.5" fill="#059669" fill-opacity="0.9"/>
<circle cx="330.00" cy="107.47" r="4.5" fill="#059669" fill-opacity="0.9"/>
<circle cx="347.14" cy="134.81" r="4.5" fill="#059669" fill-opacity="0.9"/>
<circle cx="364.29" cy="96.31" r="4.5" fill="#059669" fill-opacity="0.9"/>
<circle cx="381.43" cy="96.12" r="4.5" fill="#059669" fill-opacity="0.9"/>
<circle cx="398.57" cy="94.17" r="4.5" fill="#059669" fill-opacity="0.9"/>
<circle cx="415.71" cy="97.18" r="4.5" fill="#059669" fill-opacity="0.9"/>
<circle cx="432.86" cy="435.83" r="4.5" fill="#059669" fill-opacity="0.9"/>
<circle cx="450.00" cy="435.83" r="4.5" fill="#059669" fill-opacity="0.9"/>
<circle cx="467.14" cy="435.83" r="4.5" fill="#059669" fill-opacity="0.9"/>
<circle cx="484.29" cy="435.83" r="4.5" fill="#059669" fill-opacity="0.9"/>
<circle cx="501.43" cy="271.83" r="4.5" fill="#059669" fill-opacity="0.9"/>
<circle cx="518.57" cy="330.53" r="4.5" fill="#059669" fill-opacity="0.9"/>
<circle cx="535.71" cy="204.10" r="4.5" fill="#059669" fill-opacity="0.9"/>
<circle cx="552.86" cy="216.76" r="4.5" fill="#059669" fill-opacity="0.9"/>
<circle cx="570.00" cy="435.83" r="4.5" fill="#059669" fill-opacity="0.9"/>
<circle cx="587.14" cy="435.83" r="4.5" fill="#059669" fill-opacity="0.9"/>
<circle cx="604.29" cy="113.62" r="4.5" fill="#059669" fill-opacity="0.9"/>
<circle cx="621.43" cy="148.57" r="4.5" fill="#059669" fill-opacity="0.9"/>
<circle cx="638.57" cy="274.27" r="4.5" fill="#059669" fill-opacity="0.9"/>
<circle cx="655.71" cy="214.52" r="4.5" fill="#059669" fill-opacity="0.9"/>
<circle cx="672.86" cy="199.21" r="4.5" fill="#059669" fill-opacity="0.9"/>
<circle cx="690.00" cy="125.12" r="4.5" fill="#059669" fill-opacity="0.9"/>
<circle cx="707.14" cy="170.55" r="4.5" fill="#059669" fill-opacity="0.9"/>
<circle cx="724.29" cy="186.48" r="4.5" fill="#059669" fill-opacity="0.9"/>
<circle cx="741.43" cy="284.05" r="4.5" fill="#059669" fill-opacity="0.9"/>
<circle cx="758.57" cy="194.36" r="4.5" fill="#059669" fill-opacity="0.9"/>
<circle cx="775.71" cy="301.67" r="4.5" fill="#059669" fill-opacity="0.9"/>
<circle cx="792.86" cy="170.14" r="4.5" fill="#059669" fill-opacity="0.9"/>
<circle cx="810.00" cy="302.25" r="4.5" fill="#059669" fill-opacity="0.9"/>
<circle cx="827.14" cy="127.74" r="4.5" fill="#059669" fill-opacity="0.9"/>
<circle cx="844.29" cy="171.73" r="4.5" fill="#059669" fill-opacity="0.9"/>
<circle cx="861.43" cy="189.09" r="4.5" fill="#059669" fill-opacity="0.9"/>
<circle cx="878.57" cy="153.68" r="4.5" fill="#059669" fill-opacity="0.9"/>
<circle cx="895.71" cy="189.76" r="4.5" fill="#059669" fill-opacity="0.9"/>
<circle cx="912.86" cy="298.06" r="4.5" fill="#059669" fill-opacity="0.9"/>
<circle cx="930.00" cy="176.19" r="4.5" fill="#059669" fill-opacity="0.9"/>
<rect x="270" y="32" width="18" height="6" fill="#059669"/>
<text x="294" y="38" font-size="13" fill="#333333">test</text>
</svg>