<svg xmlns="http://www.w3.org/2000/svg" width="960" height="540">
<rect width="100%" height="100%" fill="#ffffff"/>
<text x="480.0" y="30" font-size="22" text-anchor="middle" fill="#111111">Edit Distance</text>
<text x="20" y="270.0" font-size="16" transform="rotate(-90 20,270.0)" text-anchor="middle" fill="#333333">Distance</text>
<text x="480.0" y="520" font-size="16" text-anchor="middle" fill="#333333">Epoch</text>
<line x1="90" y1="60" x2="90" y2="470" stroke="#333333" stroke-width="2"/>
<line x1="90" y1="470" x2="930" y2="470" stroke="#333333" stroke-width="2"/>
<line x1="90" y1="470.00" x2="930" y2="470.00" stroke="#e5e7eb" stroke-width="1"/>
<text x="80" y="475.00" font-size="12" text-anchor="end" fill="#555555">-0.4198</text>
<line x1="90" y1="367.50" x2="930" y2="367.50" stroke="#e5e7eb" stroke-width="1"/>
<text x="80" y="372.50" font-size="12" text-anchor="end" fill="#555555">1.0183</text>
<line x1="90" y1="265.00" x2="930" y2="265.00" stroke="#e5e7eb" stroke-width="1"/>
<text x="80" y="270.00" font-size="12" text-anchor="end" fill="#555555">2.4564</text>
<line x1="90" y1="162.50" x2="930" y2="162.50" stroke="#e5e7eb" stroke-width="1"/>
<text x="80" y="167.50" font-size="12" text-anchor="end" fill="#555555">3.8945</text>
<line x1="90" y1="60.00" x2="930" y2="60.00" stroke="#e5e7eb" stroke-width="1"/>
<text x="80" y="65.00" font-size="12" text-anchor="end" fill="#555555">5.3326</text>
<line x1="90.00" y1="60" x2="90.00" y2="470" stroke="#f3f4f6" stroke-width="1"/>
<text x="90.00" y="492" font-size="12" text-anchor="middle" fill="#555555">1</text>
<line x1="107.14" y1="60" x2="107.14" y2="470" stroke="#f3f4f6" stroke-width="1"/>
<text x="107.14" y="492" font-size="12" text-anchor="middle" fill="#555555">2</text>
<line x1="124.29" y1="60" x2="124.29" y2="470" stroke="#f3f4f6" stroke-width="1"/>
<text x="124.29" y="492" font-size="12" text-anchor="middle" fill="#555555">3</text>
<line x1="141.43" y1="60" x2="141.43" y2="470" stroke="#f3f4f6" stroke-width="1"/>
<text x="141.43" y="492" font-size="12" text-anchor="middle" fill="#555555">4</text>
<line x1="158.57" y1="60" x2="158.57" y2="470" stroke="#f3f4f6" stroke-width="1"/>
<text x="158.57" y="492" font-size="12" text-anchor="middle" fill="#555555">5</text>
<line x1="175.71" y1="60" x2="175.71" y2="470" stroke="#f3f4f6" stroke-width="1"/>
<text x="175.71" y="492" font-size="12" text-anchor="middle" fill="#555555">6</text>
<line x1="192.86" y1="60" x2="192.86" y2="470" stroke="#f3f4f6" stroke-width="1"/>
<text x="192.86" y="492" font-size="12" text-anchor="middle" fill="#555555">7</text>
<line x1="210.00" y1="60" x2="210.00" y2="470" stroke="#f3f4f6" stroke-width="1"/>
<text x="210.00" y="492" font-size="12" text-anchor="middle" fill="#555555">8</text>
<line x1="227.14" y1="60" x2="227.14" y2="470" stroke="#f3f4f6" stroke-width="1"/>
<text x="227.14" y="492" font-size="12" text-anchor="middle" fill="#555555">9</text>
<line x1="244.29" y1="60" x2="244.29" y2="470" stroke="#f3f4f6" stroke-width="1"/>
<text x="244.29" y="492" font-size="12" text-anchor="middle" fill="#555555">10</text>
<line x1="261.43" y1="60" x2="261.43" y2="470" stroke="#f3f4f6" stroke-width="1"/>
<text x="261.43" y="492" font-size="12" text-anchor="middle" fill="#555555">11</text>
<line x1="278.57" y1="60" x2="278.57" y2="470" stroke="#f3f4f6" stroke-width="1"/>
<text x="278.57" y="492" font-size="12" text-anchor="middle" fill="#555555">12</text>
<line x1="295.71" y1="60" x2="295.71" y2="470" stroke="#f3f4f6" stroke-width="1"/>
<text x="295.71" y="492" font-size="12" text-anchor="middle" fill="#555555">13</text>
<line x1="312.86" y1="60" x2="312.86" y2="470" stroke="#f3f4f6" stroke-width="1"/>
<text x="312.86" y="492" font-size="12" text-anchor="middle" fill="#555555">14</text>
<line x1="330.00" y1="60" x2="330.00" y2="470" stroke="#f3f4f6" stroke-width="1"/>
<text x="330.00" y="492" font-size="12" text-anchor="middle" fill="#555555">15</text>
<line x1="347.14" y1="60" x2="347.14" y2="470" stroke="#f3f4f6" stroke-width="1"/>
<text x="347.14" y="492" font-size="12" text-anchor="middle" fill="#555555">16</text>
<line x1="364.29" y1="60" x2="364.29" y2="470" stroke="#f3f4f6" stroke-width="1"/>
<text x="364.29" y="492" font-size="12" text-anchor="middle" fill="#555555">17</text>
<line x1="381.43" y1="60" x2="381.43" y2="470" stroke="#f3f4f6" stroke-width="1"/>
<text x="381.43" y="492" font-size="12" text-anchor="middle" fill="#555555">18</text>
<line x1="398.57" y1="60" x2="398.57" y2="470" stroke="#f3f4f6" stroke-width="1"/>
<text x="398.57" y="492" font-size="12" text-anchor="middle" fill="#555555">19</text>
<line x1="415.71" y1="60" x2="415.71" y2="470" stroke="#f3f4f6" stroke-width="1"/>
<text x="415.71" y="492" font-size="12" text-anchor="middle" fill="#555555">20</text>
<line x1="432.86" y1="60" x2="432.86" y2="470" stroke="#f3f4f6" stroke-width="1"/>
<text x="432.86" y="492" font-size="12" text-anchor="middle" fill="#555555">21</text>
<line x1="450.00" y1="60" x2="450.00" y2="470" stroke="#f3f4f6" stroke-width="1"/>
<text x="450.00" y="492" font-size="12" text-anchor="middle" fill="#555555">22</text>
<line x1="467.14" y1="60" x2="467.14" y2="470" stroke="#f3f4f6" stroke-width="1"/>
<text x="467.14" y="492" font-size="12" text-anchor="middle" fill="#555555">23</text>
<line x1="484.29" y1="60" x2="484.29" y2="470" stroke="#f3f4f6" stroke-width="1"/>
<text x="484.29" y="492" font-size="12" text-anchor="middle" fill="#555555">24</text>
<line x1="501.43" y1="60" x2="501.43" y2="470" stroke="#f3f4f6" stroke-width="1"/>
<text x="501.43" y="492" font-size="12" text-anchor="middle" fill="#555555">25</text>
<line x1="518.57" y1="60" x2="518.57" y2="470" stroke="#f3f4f6" stroke-width="1"/>
<text x="518.57" y="492" font-size="12" text-anchor="middle" fill="#555555">26</text>
<line x1="535.71" y1="60" x2="535.71" y2="470" stroke="#f3f4f6" stroke-width="1"/>
<text x="535.71" y="492" font-size="12" text-anchor="middle" fill="#555555">27</text>
<line x1="552.86" y1="60" x2="552.86" y2="470" stroke="#f3f4f6" stroke-width="1"/>
<text x="552.86" y="492" font-size="12" text-anchor="middle" fill="#555555">28</text>
<line x1="570.00" y1="60" x2="570.00" y2="470" stroke="#f3f4f6" stroke-width="1"/>
<text x="570.00" y="492" font-size="12" text-anchor="middle" fill="#555555">29</text>
<line x1="587.14" y1="60" x2="587.14" y2="470" stroke="#f3f4f6" stroke-width="1"/>
<text x="587.14" y="492" font-size="12" text-anchor="middle" fill="#555555">30</text>
<line x1="604.29" y1="60" x2="604.29" y2="470" stroke="#f3f4f6" stroke-width="1"/>
<text x="604.29" y="492" font-size="12" text-anchor="middle" fill="#555555">31</text>
<line x1="621.43" y1="60" x2="621.43" y2="470" stroke="#f3f4f6" stroke-width="1"/>
<text x="621.43" y="492" font-size="12" text-anchor="middle" fill="#555555">32</text>
<line x1="638.57" y1="60" x2="638.57" y2="470" stroke="#f3f4f6" stroke-width="1"/>
<text x="638.57" y="492" font-size="12" text-anchor="middle" fill="#555555">33</text>
<line x1="655.71" y1="60" x2="655.71" y2="470" stroke="#f3f4f6" stroke-width="1"/>
<text x="655.71" y="492" font-size="12" text-anchor="middle" fill="#555555">34</text>
<line x1="672.86" y1="60" x2="672.86" y2="470" stroke="#f3f4f6" stroke-width="1"/>
<text x="672.86" y="492" font-size="12" text-anchor="middle" fill="#555555">35</text>
<line x1="690.00" y1="60" x2="690.00" y2="470" stroke="#f3f4f6" stroke-width="1"/>
<text x="690.00" y="492" font-size="12" text-anchor="middle" fill="#555555">36</text>
<line x1="707.14" y1="60" x2="707.14" y2="470" stroke="#f3f4f6" stroke-width="1"/>
<text x="707.14" y="492" font-size="12" text-anchor="middle" fill="#555555">37</text>
<line x1="724.29" y1="60" x2="724.29" y2="470" stroke="#f3f4f6" stroke-width="1"/>
<text x="724.29" y="492" font-size="12" text-anchor="middle" fill="#555555">38</text>
<line x1="741.43" y1="60" x2="741.43" y2="470" stroke="#f3f4f6" stroke-width="1"/>
<text x="741.43" y="492" font-size="12" text-anchor="middle" fill="#555555">39</text>
<line x1="758.57" y1="60" x2="758.57" y2="470" stroke="#f3f4f6" stroke-width="1"/>
<text x="758.57" y="492" font-size="12" text-anchor="middle" fill="#555555">40</text>
<line x1="775.71" y1="60" x2="775.71" y2="470" stroke="#f3f4f6" stroke-width="1"/>
<text x="775.71" y="492" font-size="12" text-anchor="middle" fill="#555555">41</text>
<line x1="792.86" y1="60" x2="792.86" y2="470" stroke="#f3f4f6" stroke-width="1"/>
<text x="792.86" y="492" font-size="12" text-anchor="middle" fill="#555555">42</text>
<line x1="810.00" y1="60" x2="810.00" y2="470" stroke="#f3f4f6" stroke-width="1"/>
<text x="810.00" y="492" font-size="12" text-anchor="middle" fill="#555555">43</text>
<line x1="827.14" y1="60" x2="827.14" y2="470" stroke="#f3f4f6" stroke-width="1"/>
<text x="827.14" y="492" font-size="12" text-anchor="middle" fill="#555555">44</text>
<line x1="844.29" y1="60" x2="844.29" y2="470" stroke="#f3f4f6" stroke-width="1"/>
<text x="844.29" y="492" font-size="12" text-anchor="middle" fill="#555555">45</text>
<line x1="861.43" y1="60" x2="861.43" y2="470" stroke="#f3f4f6" stroke-width="1"/>
<text x="861.43" y="492" font-size="12" text-anchor="middle" fill="#555555">46</text>
<line x1="878.57" y1="60" x2="878.57" y2="470" stroke="#f3f4f6" stroke-width="1"/>
<text x="878.57" y="492" font-size="12" text-anchor="middle" fill="#555555">47</text>
<line x1="895.71" y1="60" x2="895.71" y2="470" stroke="#f3f4f6" stroke-width="1"/>
<text x="895.71" y="492" font-size="12" text-anchor="middle" fill="#555555">48</text>
<line x1="912.86" y1="60" x2="912.86" y2="470" stroke="#f3f4f6" stroke-width="1"/>
<text x="912.86" y="492" font-size="12" text-anchor="middle" fill="#555555">49</text>
<line x1="930.00" y1="60" x2="930.00" y2="470" stroke="#f3f4f6" stroke-width="1"/>
<text x="930.00" y="492" font-size="12" text-anchor="middle" fill="#555555">50</text>
<polyline fill="none" stroke="#d97706" stroke-width="3" points="90.00,388.77 107.14,427.95 124.29,421.14 141.43,409.11 158.57,336.88 175.71,382.58 192.86,259.38 210.00,417.95 227.14,432.53 244.29,434.85 261.43,434.75 278.57,433.88 295.71,432.56 312.86,435.67 330.00,383.48 347.14,435.06 364.29,435.60 381.43,435.83 398.57,434.49 415.71,434.93 432.86,94.53 450.00,94.38 467.14,94.99 484.29,406.40 501.43,391.32 518.57,121.46 535.71,428.91 552.86,363.12 570.00,427.19 587.14,361.82 604.29,405.10 621.43,421.30 638.57,395.43 655.71,410.55 672.86,341.66 690.00,409.79 707.14,409.02 724.29,399.22 741.43,430.44 758.57,386.41 775.71,368.84 792.86,428.68 810.00,370.82 827.14,428.24 844.29,337.29 861.43,413.58 878.57,407.02 895.71,428.47 912.86,413.60 930.00,376.94"/>
<circle cx="90.00" cy="388.77" r="4.5" fill="#d97706" fill-opacity="0.9"/>
<circle cx="107.14" cy="427.95" r="4.5" fill="#d97706" fill-opacity="0.9"/>
<circle cx="124.29" cy="421.14" r="4.5" fill="#d97706" fill-opacity="0.9"/>
<circle cx="141.43" cy="409.11" r="4.5" fill="#d97706" fill-opacity="0.9"/>
<circle cx="158.57" cy="336.88" r="4.5" fill="#d97706" fill-opacity="0.9"/>
<circle cx="175.71" cy="382.58" r="4.5" fill="#d97706" fill-opacity="0.9"/>
<circle cx="192.86" cy="259.38" r="4.5" fill="#d97706" fill-opacity="0.9"/>
<circle cx="210.00" cy="417.95" r="4.5" fill="#d97706" fill-opacity="0.9"/>
<circle cx="227.14" cy="432.53" r="4.5" fill="#d97706" fill-opacity="0.9"/>
<circle cx="244.29" cy="434.85" r="4.5" fill="#d97706" fill-opacity="0.9"/>
<circle cx="261.43" cy="434.75" r="4.5" fill="#d97706" fill-opacity="0.9"/>
<circle cx="278.57" cy="433.88" r="4.5" fill="#d97706" fill-opacity="0.9"/>
<circle cx="295.71" cy="432.56" r="4.5" fill="#d97706" fill-opacity="0.9"/>
<circle cx="312.86" cy="435.67" r="4.5" fill="#d97706" fill-opacity="0.9"/>
<circle cx="330.00" cy="383.48" r="4.5" fill="#d97706" fill-opacity="0.9"/>
<circle cx="347.14" cy="435.06" r="4.5" fill="#d97706" fill-opacity="0.9"/>
<circle cx="364.29" cy="435.60" r="4.5" fill="#d97706" fill-opacity="0.9"/>
<circle cx="381.43" cy="435.83" r="4.5" fill="#d97706" fill-opacity="0.9"/>
<circle cx="398.57" cy="434.49" r="4.5" fill="#d97706" fill-opacity="0.9"/>
<circle cx="415.71" cy="434.93" r="4.5" fill="#d97706" fill-opacity="0.9"/>
<circle cx="432.86" cy="94.53" r="4.5" fill="#d97706" fill-opacity="0.9"/>
<circle cx="450.00" cy="94.38" r="4.5" fill="#d97706" fill-opacity="0.9"/>
<circle cx="467.14" cy="94.99" r="4.5" fill="#d97706" fill-opacity="0.9"/>
<circle cx="484.29" cy="406.40" r="4.5" fill="#d97706" fill-opacity="0.9"/>
<circle cx="501.43" cy="391.32" r="4.5" fill="#d97706" fill-opacity="0.9"/>
<circle cx="518.57" cy="121.46" r="4.5" fill="#d97706" fill-opacity="0.9"/>
<circle cx="535.71" cy="428.91" r="4.5" fill="#d97706" fill-opacity="0.9"/>
<circle cx="552.86" cy="363.12" r="4.5" fill="#d97706" fill-opacity="0.9"/>
<circle cx="570.00" cy="427.19" r="4.5" fill="#d97706" fill-opacity="0.9"/>
<circle cx="587.14" cy="361.82" r="4.5" fill="#d97706" fill-opacity="0.9"/>
<circle cx="604.29" cy="405.10" r="4.5" fill="#d97706" fill-opacity="0.9"/>
<circle cx="621.43" cy="421.30" r="4.5" fill="#d97706" fill-opacity="0.9"/>
<circle cx="638.57" cy="395.43" r="4.5" fill="#d97706" fill-opacity="0.9"/>
<circle cx="655.71" cy="410.55" r="4.5" fill="#d97706" fill-opacity="0.9"/>
<circle cx="672.86" cy="341.66" r="4.5" fill="#d97706" fill-opacity="0.9"/>
<circle cx="690.00" cy="409.79" r="4.5" fill="#d97706" fill-opacity="0.9"/>
<circle cx="707.14" cy="409.02" r="4.5" fill="#d97706" fill-opacity="0.9"/>
<circle cx="724.29" cy="399.22" r="4.5" fill="#d97706" fill-opacity="0.9"/>
<circle cx="741.43" cy="430.44" r="4.5" fill="#d97706" fill-opacity="0.9"/>
<circle cx="758.57" cy="386.41" r="4.5" fill="#d97706" fill-opacity="0.9"/>
<circle cx="775.71" cy="368.84" r="4.5" fill="#d97706" fill-opacity="0.9"/>
<circle cx="792.86" cy="428.68" r="4.5" fill="#d97706" fill-opacity="0.9"/>
<circle cx="810.00" cy="370.82" r="4.5" fill="#d97706" fill-opacity="0.9"/>
<circle cx="827.14" cy="428.24" r="4.5" fill="#d97706" fill-opacity="0.9"/>
<circle cx="844.29" cy="337.29" r="4.5" fill="#d97706" fill-opacity="0.9"/>
<circle cx="861.43" cy="413.58" r="4.5" fill="#d97706" fill-opacity="0.9"/>
<circle cx="878.57" cy="407.02" r="4.5" fill="#d97706" fill-opacity="0.9"/>
<circle cx="895.71" cy="428.47" r="4.5" fill="#d97706" fill-opacity="0.9"/>
<circle cx="912.86" cy="413.60" r="4.5" fill="#d97706" fill-opacity="0.9"/>
<circle cx="930.00" cy="376.94" r="4.5" fill="#d97706" fill-opacity="0.9"/>
<rect x="90" y="32" width="18" height="6" fill="#d97706"/>
<text x="114" y="38" font-size="13" fill="#333333">val</text>
<polyline fill="none" stroke="#059669" stroke-width="3" points="90.00,388.15 107.14,427.90 124.29,420.79 141.43,409.53 158.57,336.98 175.71,382.47 192.86,258.41 210.00,418.01 227.14,432.45 244.29,435.05 261.43,434.65 278.57,433.72 295.71,432.27 312.86,435.62 330.00,382.58 347.14,435.00 364.29,435.55 381.43,435.70 398.57,434.52 415.71,435.04 432.86,94.40 450.00,94.17 467.14,95.31 484.29,406.90 501.43,391.09 518.57,121.54 535.71,428.32 552.86,362.52 570.00,427.23 587.14,362.56 604.29,404.49 621.43,420.77 638.57,394.63 655.71,410.23 672.86,341.41 690.00,409.72 707.14,409.08 724.29,399.13 741.43,430.05 758.57,385.87 775.71,369.16 792.86,428.37 810.00,369.85 827.14,427.98 844.29,336.89 861.43,413.50 878.57,406.58 895.71,428.05 912.86,412.52 930.00,375.98"/>
<circle cx="90.00" cy="388.15" r="4.5" fill="#059669" fill-opacity="0.9"/>
<circle cx="107.14" cy="427.90" r="4.5" fill="#059669" fill-opacity="0.9"/>
<circle cx="124.29" cy="420.79" r="4.5" fill="#059669" fill-opacity="0.9"/>
<circle cx="141.43" cy="409.53" r="4.5" fill="#059669" fill-opacity="0.9"/>
<circle cx="158.57" cy="336.98" r="4.5" fill="#059669" fill-opacity="0.9"/>
<circle cx="175.71" cy="382.47" r="4.5" fill="#059669" fill-opacity="0.9"/>
<circle cx="192.86" cy="258.41" r="4.5" fill="#059669" fill-opacity="0.9"/>
<circle cx="210.00" cy="418.01" r="4.5" fill="#059669" fill-opacity="0.9"/>
<circle cx="227.14" cy="432.45" r="4.5" fill="#059669" fill-opacity="0.9"/>
<circle cx="244.29" cy="435.05" r="4.5" fill="#059669" fill-opacity="0.9"/>
<circle cx="261.43" cy="434.65" r="4.5" fill="#059669" fill-opacity="0.9"/>
<circle cx="278.57" cy="433.72" r="4.5" fill="#059669" fill-opacity="0.9"/>
<circle cx="295.71" cy="432.27" r="4.5" fill="#059669" fill-opacity="0.9"/>
<circle cx="312.86" cy="435.62" r="4.5" fill="#059669" fill-opacity="0.9"/>
<circle cx="330.00" cy="382.58" r="4.5" fill="#059669" fill-opacity="0.9"/>
<circle cx="347.14" cy="435.00" r="4.5" fill="#059669" fill-opacity="0.9"/>
<circle cx="364.29" cy="435.55" r="4.5" fill="#059669" fill-opacity="0.9"/>
<circle cx="381.43" cy="435.70" r="4.5" fill="#059669" fill-opacity="0.9"/>
<circle cx="398.57" cy="434.52" r="4.5" fill="#059669" fill-opacity="0.9"/>
<circle cx="415.71" cy="435.04" r="4.5" fill="#059669" fill-opacity="0.9"/>
<circle cx="432.86" cy="94.40" r="4.5" fill="#059669" fill-opacity="0.9"/>
<circle cx="450.00" cy="94.17" r="4.5" fill="#059669" fill-opacity="0.9"/>
<circle cx="467.14" cy="95.31" r="4.5" fill="#059669" fill-opacity="0.9"/>
<circle cx="484.29" cy="406.90" r="4.5" fill="#059669" fill-opacity="0.9"/>
<circle cx="501.43" cy="391.09" r="4.5" fill="#059669" fill-opacity="0.9"/>
<circle cx="518.57" cy="121.54" r="4.5" fill="#059669" fill-opacity="0.9"/>
<circle cx="535.71" cy="428.32" r="4.5" fill="#059669" fill-opacity="0.9"/>
<circle cx="552.86" cy="362.52" r="4.5" fill="#059669" fill-opacity="0.9"/>
<circle cx="570.00" cy="427.23" r="4.5" fill="#059669" fill-opacity="0.9"/>
<circle cx="587.14" cy="362.56" r="4.5" fill="#059669" fill-opacity="0.9"/>
<circle cx="604.29" cy="404.49" r="4.5" fill="#059669" fill-opacity="0.9"/>
<circle cx="621.43" cy="420.77" r="4.5" fill="#059669" fill-opacity="0.9"/>
<circle cx="638.57" cy="394.63" r="4.5" fill="#059669" fill-opacity="0.9"/>
<circle cx="655.71" cy="410.23" r="4.5" fill="#059669" fill-opacity="0.9"/>
<circle cx="672.86" cy="341.41" r="4.5" fill="#059669" fill-opacity="0.9"/>
<circle cx="690.00" cy="409.72" r="4.5" fill="#059669" fill-opacity="0.9"/>
<circle cx="707.14" cy="409.08" r="4.5" fill="#059669" fill-opacity="0.9"/>
<circle cx="724.29" cy="399.13" r="4.5" fill="#059669" fill-opacity="0.9"/>
<circle cx="741.43" cy="430.05" r="4.5" fill="#059669" fill-opacity="0.9"/>
<circle cx="758.57" cy="385.87" r="4.5" fill="#059669" fill-opacity="0.9"/>
<circle cx="775.71" cy="369.16" r="4.5" fill="#059669" fill-opacity="0.9"/>
<circle cx="792.86" cy="428.37" r="4.5" fill="#059669" fill-opacity="0.9"/>
<circle cx="810.00" cy="369.85" r="4.5" fill="#059669" fill-opacity="0.9"/>
<circle cx="827.14" cy="427.98" r="4.5" fill="#059669" fill-opacity="0.9"/>
<circle cx="844.29" cy="336.89" r="4.5" fill="#059669" fill-opacity="0.9"/>
<circle cx="861.43" cy="413.50" r="4.5" fill="#059669" fill-opacity="0.9"/>
<circle cx="878.57" cy="406.58" r="4.5" fill="#059669" fill-opacity="0.9"/>
<circle cx="895.71" cy="428.05" r="4.5" fill="#059669" fill-opacity="0.9"/>
<circle cx="912.86" cy="412.52" r="4.5" fill="#059669" fill-opacity="0.9"/>
<circle cx="930.00" cy="375.98" r="4.5" fill="#059669" fill-opacity="0.9"/>
<rect x="270" y="32" width="18" height="6" fill="#059669"/>
<text x="294" y="38" font-size="13" fill="#333333">test</text>
</svg>