<svg xmlns="http://www.w3.org/2000/svg" width="960" height="540">
<rect width="100%" height="100%" fill="#ffffff"/>
<text x="480.0" y="30" font-size="22" text-anchor="middle" fill="#111111">Loss</text>
<text x="20" y="270.0" font-size="16" transform="rotate(-90 20,270.0)" text-anchor="middle" fill="#333333">Loss</text>
<text x="480.0" y="520" font-size="16" text-anchor="middle" fill="#333333">Epoch</text>
<line x1="90" y1="60" x2="90" y2="470" stroke="#333333" stroke-width="2"/>
<line x1="90" y1="470" x2="930" y2="470" stroke="#333333" stroke-width="2"/>
<line x1="90" y1="470.00" x2="930" y2="470.00" stroke="#e5e7eb" stroke-width="1"/>
<text x="80" y="475.00" font-size="12" text-anchor="end" fill="#555555">-16.3022</text>
<line x1="90" y1="367.50" x2="930" y2="367.50" stroke="#e5e7eb" stroke-width="1"/>
<text x="80" y="372.50" font-size="12" text-anchor="end" fill="#555555">32.8898</text>
<line x1="90" y1="265.00" x2="930" y2="265.00" stroke="#e5e7eb" stroke-width="1"/>
<text x="80" y="270.00" font-size="12" text-anchor="end" fill="#555555">82.0818</text>
<line x1="90" y1="162.50" x2="930" y2="162.50" stroke="#e5e7eb" stroke-width="1"/>
<text x="80" y="167.50" font-size="12" text-anchor="end" fill="#555555">131.2738</text>
<line x1="90" y1="60.00" x2="930" y2="60.00" stroke="#e5e7eb" stroke-width="1"/>
<text x="80" y="65.00" font-size="12" text-anchor="end" fill="#555555">180.4658</text>
<line x1="90.00" y1="60" x2="90.00" y2="470" stroke="#f3f4f6" stroke-width="1"/>
<text x="90.00" y="492" font-size="12" text-anchor="middle" fill="#555555">1</text>
<line x1="107.14" y1="60" x2="107.14" y2="470" stroke="#f3f4f6" stroke-width="1"/>
<text x="107.14" y="492" font-size="12" text-anchor="middle" fill="#555555">2</text>
<line x1="124.29" y1="60" x2="124.29" y2="470" stroke="#f3f4f6" stroke-width="1"/>
<text x="124.29" y="492" font-size="12" text-anchor="middle" fill="#555555">3</text>
<line x1="141.43" y1="60" x2="141.43" y2="470" stroke="#f3f4f6" stroke-width="1"/>
<text x="141.43" y="492" font-size="12" text-anchor="middle" fill="#555555">4</text>
<line x1="158.57" y1="60" x2="158.57" y2="470" stroke="#f3f4f6" stroke-width="1"/>
<text x="158.57" y="492" font-size="12" text-anchor="middle" fill="#555555">5</text>
<line x1="175.71" y1="60" x2="175.71" y2="470" stroke="#f3f4f6" stroke-width="1"/>
<text x="175.71" y="492" font-size="12" text-anchor="middle" fill="#555555">6</text>
<line x1="192.86" y1="60" x2="192.86" y2="470" stroke="#f3f4f6" stroke-width="1"/>
<text x="192.86" y="492" font-size="12" text-anchor="middle" fill="#555555">7</text>
<line x1="210.00" y1="60" x2="210.00" y2="470" stroke="#f3f4f6" stroke-width="1"/>
<text x="210.00" y="492" font-size="12" text-anchor="middle" fill="#555555">8</text>
<line x1="227.14" y1="60" x2="227.14" y2="470" stroke="#f3f4f6" stroke-width="1"/>
<text x="227.14" y="492" font-size="12" text-anchor="middle" fill="#555555">9</text>
<line x1="244.29" y1="60" x2="244.29" y2="470" stroke="#f3f4f6" stroke-width="1"/>
<text x="244.29" y="492" font-size="12" text-anchor="middle" fill="#555555">10</text>
<line x1="261.43" y1="60" x2="261.43" y2="470" stroke="#f3f4f6" stroke-width="1"/>
<text x="261.43" y="492" font-size="12" text-anchor="middle" fill="#555555">11</text>
<line x1="278.57" y1="60" x2="278.57" y2="470" stroke="#f3f4f6" stroke-width="1"/>
<text x="278.57" y="492" font-size="12" text-anchor="middle" fill="#555555">12</text>
<line x1="295.71" y1="60" x2="295.71" y2="470" stroke="#f3f4f6" stroke-width="1"/>
<text x="295.71" y="492" font-size="12" text-anchor="middle" fill="#555555">13</text>
<line x1="312.86" y1="60" x2="312.86" y2="470" stroke="#f3f4f6" stroke-width="1"/>
<text x="312.86" y="492" font-size="12" text-anchor="middle" fill="#555555">14</text>
<line x1="330.00" y1="60" x2="330.00" y2="470" stroke="#f3f4f6" stroke-width="1"/>
<text x="330.00" y="492" font-size="12" text-anchor="middle" fill="#555555">15</text>
<line x1="347.14" y1="60" x2="347.14" y2="470" stroke="#f3f4f6" stroke-width="1"/>
<text x="347.14" y="492" font-size="12" text-anchor="middle" fill="#555555">16</text>
<line x1="364.29" y1="60" x2="364.29" y2="470" stroke="#f3f4f6" stroke-width="1"/>
<text x="364.29" y="492" font-size="12" text-anchor="middle" fill="#555555">17</text>
<line x1="381.43" y1="60" x2="381.43" y2="470" stroke="#f3f4f6" stroke-width="1"/>
<text x="381.43" y="492" font-size="12" text-anchor="middle" fill="#555555">18</text>
<line x1="398.57" y1="60" x2="398.57" y2="470" stroke="#f3f4f6" stroke-width="1"/>
<text x="398.57" y="492" font-size="12" text-anchor="middle" fill="#555555">19</text>
<line x1="415.71" y1="60" x2="415.71" y2="470" stroke="#f3f4f6" stroke-width="1"/>
<text x="415.71" y="492" font-size="12" text-anchor="middle" fill="#555555">20</text>
<line x1="432.86" y1="60" x2="432.86" y2="470" stroke="#f3f4f6" stroke-width="1"/>
<text x="432.86" y="492" font-size="12" text-anchor="middle" fill="#555555">21</text>
<line x1="450.00" y1="60" x2="450.00" y2="470" stroke="#f3f4f6" stroke-width="1"/>
<text x="450.00" y="492" font-size="12" text-anchor="middle" fill="#555555">22</text>
<line x1="467.14" y1="60" x2="467.14" y2="470" stroke="#f3f4f6" stroke-width="1"/>
<text x="467.14" y="492" font-size="12" text-anchor="middle" fill="#555555">23</text>
<line x1="484.29" y1="60" x2="484.29" y2="470" stroke="#f3f4f6" stroke-width="1"/>
<text x="484.29" y="492" font-size="12" text-anchor="middle" fill="#555555">24</text>
<line x1="501.43" y1="60" x2="501.43" y2="470" stroke="#f3f4f6" stroke-width="1"/>
<text x="501.43" y="492" font-size="12" text-anchor="middle" fill="#555555">25</text>
<line x1="518.57" y1="60" x2="518.57" y2="470" stroke="#f3f4f6" stroke-width="1"/>
<text x="518.57" y="492" font-size="12" text-anchor="middle" fill="#555555">26</text>
<line x1="535.71" y1="60" x2="535.71" y2="470" stroke="#f3f4f6" stroke-width="1"/>
<text x="535.71" y="492" font-size="12" text-anchor="middle" fill="#555555">27</text>
<line x1="552.86" y1="60" x2="552.86" y2="470" stroke="#f3f4f6" stroke-width="1"/>
<text x="552.86" y="492" font-size="12" text-anchor="middle" fill="#555555">28</text>
<line x1="570.00" y1="60" x2="570.00" y2="470" stroke="#f3f4f6" stroke-width="1"/>
<text x="570.00" y="492" font-size="12" text-anchor="middle" fill="#555555">29</text>
<line x1="587.14" y1="60" x2="587.14" y2="470" stroke="#f3f4f6" stroke-width="1"/>
<text x="587.14" y="492" font-size="12" text-anchor="middle" fill="#555555">30</text>
<line x1="604.29" y1="60" x2="604.29" y2="470" stroke="#f3f4f6" stroke-width="1"/>
<text x="604.29" y="492" font-size="12" text-anchor="middle" fill="#555555">31</text>
<line x1="621.43" y1="60" x2="621.43" y2="470" stroke="#f3f4f6" stroke-width="1"/>
<text x="621.43" y="492" font-size="12" text-anchor="middle" fill="#555555">32</text>
<line x1="638.57" y1="60" x2="638.57" y2="470" stroke="#f3f4f6" stroke-width="1"/>
<text x="638.57" y="492" font-size="12" text-anchor="middle" fill="#555555">33</text>
<line x1="655.71" y1="60" x2="655.71" y2="470" stroke="#f3f4f6" stroke-width="1"/>
<text x="655.71" y="492" font-size="12" text-anchor="middle" fill="#555555">34</text>
<line x1="672.86" y1="60" x2="672.86" y2="470" stroke="#f3f4f6" stroke-width="1"/>
<text x="672.86" y="492" font-size="12" text-anchor="middle" fill="#555555">35</text>
<line x1="690.00" y1="60" x2="690.00" y2="470" stroke="#f3f4f6" stroke-width="1"/>
<text x="690.00" y="492" font-size="12" text-anchor="middle" fill="#555555">36</text>
<line x1="707.14" y1="60" x2="707.14" y2="470" stroke="#f3f4f6" stroke-width="1"/>
<text x="707.14" y="492" font-size="12" text-anchor="middle" fill="#555555">37</text>
<line x1="724.29" y1="60" x2="724.29" y2="470" stroke="#f3f4f6" stroke-width="1"/>
<text x="724.29" y="492" font-size="12" text-anchor="middle" fill="#555555">38</text>
<line x1="741.43" y1="60" x2="741.43" y2="470" stroke="#f3f4f6" stroke-width="1"/>
<text x="741.43" y="492" font-size="12" text-anchor="middle" fill="#555555">39</text>
<line x1="758.57" y1="60" x2="758.57" y2="470" stroke="#f3f4f6" stroke-width="1"/>
<text x="758.57" y="492" font-size="12" text-anchor="middle" fill="#555555">40</text>
<line x1="775.71" y1="60" x2="775.71" y2="470" stroke="#f3f4f6" stroke-width="1"/>
<text x="775.71" y="492" font-size="12" text-anchor="middle" fill="#555555">41</text>
<line x1="792.86" y1="60" x2="792.86" y2="470" stroke="#f3f4f6" stroke-width="1"/>
<text x="792.86" y="492" font-size="12" text-anchor="middle" fill="#555555">42</text>
<line x1="810.00" y1="60" x2="810.00" y2="470" stroke="#f3f4f6" stroke-width="1"/>
<text x="810.00" y="492" font-size="12" text-anchor="middle" fill="#555555">43</text>
<line x1="827.14" y1="60" x2="827.14" y2="470" stroke="#f3f4f6" stroke-width="1"/>
<text x="827.14" y="492" font-size="12" text-anchor="middle" fill="#555555">44</text>
<line x1="844.29" y1="60" x2="844.29" y2="470" stroke="#f3f4f6" stroke-width="1"/>
<text x="844.29" y="492" font-size="12" text-anchor="middle" fill="#555555">45</text>
<line x1="861.43" y1="60" x2="861.43" y2="470" stroke="#f3f4f6" stroke-width="1"/>
<text x="861.43" y="492" font-size="12" text-anchor="middle" fill="#555555">46</text>
<line x1="878.57" y1="60" x2="878.57" y2="470" stroke="#f3f4f6" stroke-width="1"/>
<text x="878.57" y="492" font-size="12" text-anchor="middle" fill="#555555">47</text>
<line x1="895.71" y1="60" x2="895.71" y2="470" stroke="#f3f4f6" stroke-width="1"/>
<text x="895.71" y="492" font-size="12" text-anchor="middle" fill="#555555">48</text>
<line x1="912.86" y1="60" x2="912.86" y2="470" stroke="#f3f4f6" stroke-width="1"/>
<text x="912.86" y="492" font-size="12" text-anchor="middle" fill="#555555">49</text>
<line x1="930.00" y1="60" x2="930.00" y2="470" stroke="#f3f4f6" stroke-width="1"/>
<text x="930.00" y="492" font-size="12" text-anchor="middle" fill="#555555">50</text>
<polyline fill="none" stroke="#1d4ed8" stroke-width="3" points="90.00,419.56 107.14,434.16 124.29,434.92 141.43,435.12 158.57,435.27 175.71,435.36 192.86,435.47 210.00,435.46 227.14,435.54 244.29,435.56 261.43,435.60 278.57,435.63 295.71,435.67 312.86,435.69 330.00,435.71 347.14,435.71 364.29,435.75 381.43,435.77 398.57,435.77 415.71,435.79 432.86,435.19 450.00,396.58 467.14,398.71 484.29,408.31 501.43,435.14 518.57,435.09 535.71,434.02 552.86,435.66 570.00,435.57 587.14,435.57 604.29,435.44 621.43,435.64 638.57,435.62 655.71,435.62 672.86,435.62 690.00,435.32 707.14,435.67 724.29,435.66 741.43,435.72 758.57,435.76 775.71,435.52 792.86,435.64 810.00,435.71 827.14,435.62 844.29,435.75 861.43,435.68 878.57,435.77 895.71,435.70 912.86,435.83 930.00,435.74"/>
<circle cx="90.00" cy="419.56" r="4.5" fill="#1d4ed8" fill-opacity="0.9"/>
<circle cx="107.14" cy="434.16" r="4.5" fill="#1d4ed8" fill-opacity="0.9"/>
<circle cx="124.29" cy="434.92" r="4.5" fill="#1d4ed8" fill-opacity="0.9"/>
<circle cx="141.43" cy="435.12" r="4.5" fill="#1d4ed8" fill-opacity="0.9"/>
<circle cx="158.57" cy="435.27" r="4.5" fill="#1d4ed8" fill-opacity="0.9"/>
<circle cx="175.71" cy="435.36" r="4.5" fill="#1d4ed8" fill-opacity="0.9"/>
<circle cx="192.86" cy="435.47" r="4.5" fill="#1d4ed8" fill-opacity="0.9"/>
<circle cx="210.00" cy="435.46" r="4.5" fill="#1d4ed8" fill-opacity="0.9"/>
<circle cx="227.14" cy="435.54" r="4.5" fill="#1d4ed8" fill-opacity="0.9"/>
<circle cx="244.29" cy="435.56" r="4.5" fill="#1d4ed8" fill-opacity="0.9"/>
<circle cx="261.43" cy="435.60" r="4.5" fill="#1d4ed8" fill-opacity="0.9"/>
<circle cx="278.57" cy="435.63" r="4.5" fill="#1d4ed8" fill-opacity="0.9"/>
<circle cx="295.71" cy="435.67" r="4.5" fill="#1d4ed8" fill-opacity="0.9"/>
<circle cx="312.86" cy="435.69" r="4.5" fill="#1d4ed8" fill-opacity="0.9"/>
<circle cx="330.00" cy="435.71" r="4.5" fill="#1d4ed8" fill-opacity="0.9"/>
<circle cx="347.14" cy="435.71" r="4.5" fill="#1d4ed8" fill-opacity="0.9"/>
<circle cx="364.29" cy="435.75" r="4.5" fill="#1d4ed8" fill-opacity="0.9"/>
<circle cx="381.43" cy="435.77" r="4.5" fill="#1d4ed8" fill-opacity="0.9"/>
<circle cx="398.57" cy="435.77" r="4.5" fill="#1d4ed8" fill-opacity="0.9"/>
<circle cx="415.71" cy="435.79" r="4.5" fill="#1d4ed8" fill-opacity="0.9"/>
<circle cx="432.86" cy="435.19" r="4.5" fill="#1d4ed8" fill-opacity="0.9"/>
<circle cx="450.00" cy="396.58" r="4.5" fill="#1d4ed8" fill-opacity="0.9"/>
<circle cx="467.14" cy="398.71" r="4.5" fill="#1d4ed8" fill-opacity="0.9"/>
<circle cx="484.29" cy="408.31" r="4.5" fill="#1d4ed8" fill-opacity="0.9"/>
<circle cx="501.43" cy="435.14" r="4.5" fill="#1d4ed8" fill-opacity="0.9"/>
<circle cx="518.57" cy="435.09" r="4.5" fill="#1d4ed8" fill-opacity="0.9"/>
<circle cx="535.71" cy="434.02" r="4.5" fill="#1d4ed8" fill-opacity="0.9"/>
<circle cx="552.86" cy="435.66" r="4.5" fill="#1d4ed8" fill-opacity="0.9"/>
<circle cx="570.00" cy="435.57" r="4.5" fill="#1d4ed8" fill-opacity="0.9"/>
<circle cx="587.14" cy="435.57" r="4.5" fill="#1d4ed8" fill-opacity="0.9"/>
<circle cx="604.29" cy="435.44" r="4.5" fill="#1d4ed8" fill-opacity="0.9"/>
<circle cx="621.43" cy="435.64" r="4.5" fill="#1d4ed8" fill-opacity="0.9"/>
<circle cx="638.57" cy="435.62" r="4.5" fill="#1d4ed8" fill-opacity="0.9"/>
<circle cx="655.71" cy="435.62" r="4.5" fill="#1d4ed8" fill-opacity="0.9"/>
<circle cx="672.86" cy="435.62" r="4.5" fill="#1d4ed8" fill-opacity="0.9"/>
<circle cx="690.00" cy="435.32" r="4.5" fill="#1d4ed8" fill-opacity="0.9"/>
<circle cx="707.14" cy="435.67" r="4.5" fill="#1d4ed8" fill-opacity="0.9"/>
<circle cx="724.29" cy="435.66" r="4.5" fill="#1d4ed8" fill-opacity="0.9"/>
<circle cx="741.43" cy="435.72" r="4.5" fill="#1d4ed8" fill-opacity="0.9"/>
<circle cx="758.57" cy="435.76" r="4.5" fill="#1d4ed8" fill-opacity="0.9"/>
<circle cx="775.71" cy="435.52" r="4.5" fill="#1d4ed8" fill-opacity="0.9"/>
<circle cx="792.86" cy="435.64" r="4.5" fill="#1d4ed8" fill-opacity="0.9"/>
<circle cx="810.00" cy="435.71" r="4.5" fill="#1d4ed8" fill-opacity="0.9"/>
<circle cx="827.14" cy="435.62" r="4.5" fill="#1d4ed8" fill-opacity="0.9"/>
<circle cx="844.29" cy="435.75" r="4.5" fill="#1d4ed8" fill-opacity="0.9"/>
<circle cx="861.43" cy="435.68" r="4.5" fill="#1d4ed8" fill-opacity="0.9"/>
<circle cx="878.57" cy="435.77" r="4.5" fill="#1d4ed8" fill-opacity="0.9"/>
<circle cx="895.71" cy="435.70" r="4.5" fill="#1d4ed8" fill-opacity="0.9"/>
<circle cx="912.86" cy="435.83" r="4.5" fill="#1d4ed8" fill-opacity="0.9"/>
<circle cx="930.00" cy="435.74" r="4.5" fill="#1d4ed8" fill-opacity="0.9"/>
<rect x="90" y="32" width="18" height="6" fill="#1d4ed8"/>
<text x="114" y="38" font-size="13" fill="#333333">train</text>
<polyline fill="none" stroke="#d97706" stroke-width="3" points="90.00,431.08 107.14,434.95 124.29,434.26 141.43,432.28 158.57,415.94 175.71,426.37 192.86,393.28 210.00,432.91 227.14,435.23 244.29,435.52 261.43,435.51 278.57,435.37 295.71,435.16 312.86,435.57 330.00,421.99 347.14,435.48 364.29,435.55 381.43,435.57 398.57,435.38 415.71,435.43 432.86,94.17 450.00,398.68 467.14,398.74 484.29,429.64 501.43,421.77 518.57,226.68 535.71,432.87 552.86,412.28 570.00,432.47 587.14,406.17 604.29,421.09 621.43,430.19 638.57,415.71 655.71,426.57 672.86,364.47 690.00,425.38 707.14,425.20 724.29,421.07 741.43,433.30 758.57,417.19 775.71,408.21 792.86,432.33 810.00,407.84 827.14,431.88 844.29,399.61 861.43,426.10 878.57,420.35 895.71,432.98 912.86,426.89 930.00,408.16"/>
<circle cx="90.00" cy="431.08" r="4.5" fill="#d97706" fill-opacity="0.9"/>
<circle cx="107.14" cy="434.95" r="4.5" fill="#d97706" fill-opacity="0.9"/>
<circle cx="124.29" cy="434.26" r="4.5" fill="#d97706" fill-opacity="0.9"/>
<circle cx="141.43" cy="432.28" r="4.5" fill="#d97706" fill-opacity="0.9"/>
<circle cx="158.57" cy="415.94" r="4.5" fill="#d97706" fill-opacity="0.9"/>
<circle cx="175.71" cy="426.37" r="4.5" fill="#d97706" fill-opacity="0.9"/>
<circle cx="192.86" cy="393.28" r="4.5" fill="#d97706" fill-opacity="0.9"/>
<circle cx="210.00" cy="432.91" r="4.5" fill="#d97706" fill-opacity="0.9"/>
<circle cx="227.14" cy="435.23" r="4.5" fill="#d97706" fill-opacity="0.9"/>
<circle cx="244.29" cy="435.52" r="4.5" fill="#d97706" fill-opacity="0.9"/>
<circle cx="261.43" cy="435.51" r="4.5" fill="#d97706" fill-opacity="0.9"/>
<circle cx="278.57" cy="435.37" r="4.5" fill="#d97706" fill-opacity="0.9"/>
<circle cx="295.71" cy="435.16" r="4.5" fill="#d97706" fill-opacity="0.9"/>
<circle cx="312.86" cy="435.57" r="4.5" fill="#d97706" fill-opacity="0.9"/>
<circle cx="330.00" cy="421.99" r="4.5" fill="#d97706" fill-opacity="0.9"/>
<circle cx="347.14" cy="435.48" r="4.5" fill="#d97706" fill-opacity="0.9"/>
<circle cx="364.29" cy="435.55" r="4.5" fill="#d97706" fill-opacity="0.9"/>
<circle cx="381.43" cy="435.57" r="4.5" fill="#d97706" fill-opacity="0.9"/>
<circle cx="398.57" cy="435.38" r="4.5" fill="#d97706" fill-opacity="0.9"/>
<circle cx="415.71" cy="435.43" r="4.5" fill="#d97706" fill-opacity="0.9"/>
<circle cx="432.86" cy="94.17" r="4.5" fill="#d97706" fill-opacity="0.9"/>
<circle cx="450.00" cy="398.68" r="4.5" fill="#d97706" fill-opacity="0.9"/>
<circle cx="467.14" cy="398.74" r="4.5" fill="#d97706" fill-opacity="0.9"/>
<circle cx="484.29" cy="429.64" r="4.5" fill="#d97706" fill-opacity="0.9"/>
<circle cx="501.43" cy="421.77" r="4.5" fill="#d97706" fill-opacity="0.9"/>
<circle cx="518.57" cy="226.68" r="4.5" fill="#d97706" fill-opacity="0.9"/>
<circle cx="535.71" cy="432.87" r="4.5" fill="#d97706" fill-opacity="0.9"/>
<circle cx="552.86" cy="412.28" r="4.5" fill="#d97706" fill-opacity="0.9"/>
<circle cx="570.00" cy="432.47" r="4.5" fill="#d97706" fill-opacity="0.9"/>
<circle cx="587.14" cy="406.17" r="4.5" fill="#d97706" fill-opacity="0.9"/>
<circle cx="604.29" cy="421.09" r="4.5" fill="#d97706" fill-opacity="0.9"/>
<circle cx="621.43" cy="430.19" r="4.5" fill="#d97706" fill-opacity="0.9"/>
<circle cx="638.57" cy="415.71" r="4.5" fill="#d97706" fill-opacity="0.9"/>
<circle cx="655.71" cy="426.57" r="4.5" fill="#d97706" fill-opacity="0.9"/>
<circle cx="672.86" cy="364.47" r="4.5" fill="#d97706" fill-opacity="0.9"/>
<circle cx="690.00" cy="425.38" r="4.5" fill="#d97706" fill-opacity="0.9"/>
<circle cx="707.14" cy="425.20" r="4.5" fill="#d97706" fill-opacity="0.9"/>
<circle cx="724.29" cy="421.07" r="4.5" fill="#d97706" fill-opacity="0.9"/>
<circle cx="741.43" cy="433.30" r="4.5" fill="#d97706" fill-opacity="0.9"/>
<circle cx="758.57" cy="417.19" r="4.5" fill="#d97706" fill-opacity="0.9"/>
<circle cx="775.71" cy="408.21" r="4.5" fill="#d97706" fill-opacity="0.9"/>
<circle cx="792.86" cy="432.33" r="4.5" fill="#d97706" fill-opacity="0.9"/>
<circle cx="810.00" cy="407.84" r="4.5" fill="#d97706" fill-opacity="0.9"/>
<circle cx="827.14" cy="431.88" r="4.5" fill="#d97706" fill-opacity="0.9"/>
<circle cx="844.29" cy="399.61" r="4.5" fill="#d97706" fill-opacity="0.9"/>
<circle cx="861.43" cy="426.10" r="4.5" fill="#d97706" fill-opacity="0.9"/>
<circle cx="878.57" cy="420.35" r="4.5" fill="#d97706" fill-opacity="0.9"/>
<circle cx="895.71" cy="432.98" r="4.5" fill="#d97706" fill-opacity="0.9"/>
<circle cx="912.86" cy="426.89" r="4.5" fill="#d97706" fill-opacity="0.9"/>
<circle cx="930.00" cy="408.16" r="4.5" fill="#d97706" fill-opacity="0.9"/>
<rect x="270" y="32" width="18" height="6" fill="#d97706"/>
<text x="294" y="38" font-size="13" fill="#333333">val</text>
<polyline fill="none" stroke="#059669" stroke-width="3" points="90.00,431.13 107.14,434.96 124.29,434.27 141.43,432.33 158.57,416.09 175.71,426.39 192.86,393.16 210.00,432.92 227.14,435.24 244.29,435.55 261.43,435.51 278.57,435.37 295.71,435.17 312.86,435.58 330.00,421.91 347.14,435.46 364.29,435.54 381.43,435.59 398.57,435.42 415.71,435.44 432.86,98.29 450.00,398.68 467.14,398.75 484.29,429.77 501.43,421.67 518.57,227.02 535.71,432.73 552.86,412.22 570.00,432.47 587.14,406.78 604.29,421.04 621.43,430.02 638.57,415.47 655.71,426.48 672.86,364.66 690.00,425.33 707.14,425.27 724.29,421.17 741.43,433.19 758.57,417.01 775.71,408.20 792.86,432.19 810.00,407.77 827.14,431.70 844.29,399.55 861.43,426.15 878.57,420.19 895.71,432.86 912.86,426.58 930.00,407.58"/>
<circle cx="90.00" cy="431.13" r="4.5" fill="#059669" fill-opacity="0.9"/>
<circle cx="107.14" cy="434.96" r="4.5" fill="#059669" fill-opacity="0.9"/>
<circle cx="124.29" cy="434.27" r="4.5" fill="#059669" fill-opacity="0.9"/>
<circle cx="141.43" cy="432.33" r="4.5" fill="#059669" fill-opacity="0.9"/>
<circle cx="158.57" cy="416.09" r="4.5" fill="#059669" fill-opacity="0.9"/>
<circle cx="175.71" cy="426.39" r="4.5" fill="#059669" fill-opacity="0.9"/>
<circle cx="192.86" cy="393.16" r="4.5" fill="#059669" fill-opacity="0.9"/>
<circle cx="210.00" cy="432.92" r="4.5" fill="#059669" fill-opacity="0.9"/>
<circle cx="227.14" cy="435.24" r="4.5" fill="#059669" fill-opacity="0.9"/>
<circle cx="244.29" cy="435.55" r="4.5" fill="#059669" fill-opacity="0.9"/>
<circle cx="261.43" cy="435.51" r="4.5" fill="#059669" fill-opacity="0.9"/>
<circle cx="278.57" cy="435.37" r="4.5" fill="#059669" fill-opacity="0.9"/>
<circle cx="295.71" cy="435.17" r="4.5" fill="#059669" fill-opacity="0.9"/>
<circle cx="312.86" cy="435.58" r="4.5" fill="#059669" fill-opacity="0.9"/>
<circle cx="330.00" cy="421.91" r="4.5" fill="#059669" fill-opacity="0.9"/>
<circle cx="347.14" cy="435.46" r="4.5" fill="#059669" fill-opacity="0.9"/>
<circle cx="364.29" cy="435.54" r="4.5" fill="#059669" fill-opacity="0.9"/>
<circle cx="381.43" cy="435.59" r="4.5" fill="#059669" fill-opacity="0.9"/>
<circle cx="398.57" cy="435.42" r="4.5" fill="#059669" fill-opacity="0.9"/>
<circle cx="415.71" cy="435.44" r="4.5" fill="#059669" fill-opacity="0.9"/>
<circle cx="432.86" cy="98.29" r="4.5" fill="#059669" fill-opacity="0.9"/>
<circle cx="450.00" cy="398.68" r="4.5" fill="#059669" fill-opacity="0.9"/>
<circle cx="467.14" cy="398.75" r="4.5" fill="#059669" fill-opacity="0.9"/>
<circle cx="484.29" cy="429.77" r="4.5" fill="#059669" fill-opacity="0.9"/>
<circle cx="501.43" cy="421.67" r="4.5" fill="#059669" fill-opacity="0.9"/>
<circle cx="518.57" cy="227.02" r="4.5" fill="#059669" fill-opacity="0.9"/>
<circle cx="535.71" cy="432.73" r="4.5" fill="#059669" fill-opacity="0.9"/>
<circle cx="552.86" cy="412.22" r="4.5" fill="#059669" fill-opacity="0.9"/>
<circle cx="570.00" cy="432.47" r="4.5" fill="#059669" fill-opacity="0.9"/>
<circle cx="587.14" cy="406.78" r="4.5" fill="#059669" fill-opacity="0.9"/>
<circle cx="604.29" cy="421.04" r="4.5" fill="#059669" fill-opacity="0.9"/>
<circle cx="621.43" cy="430.02" r="4.5" fill="#059669" fill-opacity="0.9"/>
<circle cx="638.57" cy="415.47" r="4.5" fill="#059669" fill-opacity="0.9"/>
<circle cx="655.71" cy="426.48" r="4.5" fill="#059669" fill-opacity="0.9"/>
<circle cx="672.86" cy="364.66" r="4.5" fill="#059669" fill-opacity="0.9"/>
<circle cx="690.00" cy="425.33" r="4.5" fill="#059669" fill-opacity="0.9"/>
<circle cx="707.14" cy="425.27" r="4.5" fill="#059669" fill-opacity="0.9"/>
<circle cx="724.29" cy="421.17" r="4.5" fill="#059669" fill-opacity="0.9"/>
<circle cx="741.43" cy="433.19" r="4.5" fill="#059669" fill-opacity="0.9"/>
<circle cx="758.57" cy="417.01" r="4.5" fill="#059669" fill-opacity="0.9"/>
<circle cx="775.71" cy="408.20" r="4.5" fill="#059669" fill-opacity="0.9"/>
<circle cx="792.86" cy="432.19" r="4.5" fill="#059669" fill-opacity="0.9"/>
<circle cx="810.00" cy="407.77" r="4.5" fill="#059669" fill-opacity="0.9"/>
<circle cx="827.14" cy="431.70" r="4.5" fill="#059669" fill-opacity="0.9"/>
<circle cx="844.29" cy="399.55" r="4.5" fill="#059669" fill-opacity="0.9"/>
<circle cx="861.43" cy="426.15" r="4.5" fill="#059669" fill-opacity="0.9"/>
<circle cx="878.57" cy="420.19" r="4.5" fill="#059669" fill-opacity="0.9"/>
<circle cx="895.71" cy="432.86" r="4.5" fill="#059669" fill-opacity="0.9"/>
<circle cx="912.86" cy="426.58" r="4.5" fill="#059669" fill-opacity="0.9"/>
<circle cx="930.00" cy="407.58" r="4.5" fill="#059669" fill-opacity="0.9"/>
<rect x="450" y="32" width="18" height="6" fill="#059669"/>
<text x="474" y="38" font-size="13" fill="#333333">test</text>
</svg>