<svg xmlns="http://www.w3.org/2000/svg" width="960" height="540">
<rect width="100%" height="100%" fill="#ffffff"/>
<text x="480.0" y="30" font-size="22" text-anchor="middle" fill="#111111">Position 3 Accuracy</text>
<text x="20" y="270.0" font-size="16" transform="rotate(-90 20,270.0)" text-anchor="middle" fill="#333333">Accuracy</text>
<text x="480.0" y="520" font-size="16" text-anchor="middle" fill="#333333">Epoch</text>
<line x1="90" y1="60" x2="90" y2="470" stroke="#333333" stroke-width="2"/>
<line x1="90" y1="470" x2="930" y2="470" stroke="#333333" stroke-width="2"/>
<line x1="90" y1="470.00" x2="930" y2="470.00" stroke="#e5e7eb" stroke-width="1"/>
<text x="80" y="475.00" font-size="12" text-anchor="end" fill="#555555">-0.0716</text>
<line x1="90" y1="367.50" x2="930" y2="367.50" stroke="#e5e7eb" stroke-width="1"/>
<text x="80" y="372.50" font-size="12" text-anchor="end" fill="#555555">0.2170</text>
<line x1="90" y1="265.00" x2="930" y2="265.00" stroke="#e5e7eb" stroke-width="1"/>
<text x="80" y="270.00" font-size="12" text-anchor="end" fill="#555555">0.5057</text>
<line x1="90" y1="162.50" x2="930" y2="162.50" stroke="#e5e7eb" stroke-width="1"/>
<text x="80" y="167.50" font-size="12" text-anchor="end" fill="#555555">0.7944</text>
<line x1="90" y1="60.00" x2="930" y2="60.00" stroke="#e5e7eb" stroke-width="1"/>
<text x="80" y="65.00" font-size="12" text-anchor="end" fill="#555555">1.0830</text>
<line x1="90.00" y1="60" x2="90.00" y2="470" stroke="#f3f4f6" stroke-width="1"/>
<text x="90.00" y="492" font-size="12" text-anchor="middle" fill="#555555">1</text>
<line x1="107.14" y1="60" x2="107.14" y2="470" stroke="#f3f4f6" stroke-width="1"/>
<text x="107.14" y="492" font-size="12" text-anchor="middle" fill="#555555">2</text>
<line x1="124.29" y1="60" x2="124.29" y2="470" stroke="#f3f4f6" stroke-width="1"/>
<text x="124.29" y="492" font-size="12" text-anchor="middle" fill="#555555">3</text>
<line x1="141.43" y1="60" x2="141.43" y2="470" stroke="#f3f4f6" stroke-width="1"/>
<text x="141.43" y="492" font-size="12" text-anchor="middle" fill="#555555">4</text>
<line x1="158.57" y1="60" x2="158.57" y2="470" stroke="#f3f4f6" stroke-width="1"/>
<text x="158.57" y="492" font-size="12" text-anchor="middle" fill="#555555">5</text>
<line x1="175.71" y1="60" x2="175.71" y2="470" stroke="#f3f4f6" stroke-width="1"/>
<text x="175.71" y="492" font-size="12" text-anchor="middle" fill="#555555">6</text>
<line x1="192.86" y1="60" x2="192.86" y2="470" stroke="#f3f4f6" stroke-width="1"/>
<text x="192.86" y="492" font-size="12" text-anchor="middle" fill="#555555">7</text>
<line x1="210.00" y1="60" x2="210.00" y2="470" stroke="#f3f4f6" stroke-width="1"/>
<text x="210.00" y="492" font-size="12" text-anchor="middle" fill="#555555">8</text>
<line x1="227.14" y1="60" x2="227.14" y2="470" stroke="#f3f4f6" stroke-width="1"/>
<text x="227.14" y="492" font-size="12" text-anchor="middle" fill="#555555">9</text>
<line x1="244.29" y1="60" x2="244.29" y2="470" stroke="#f3f4f6" stroke-width="1"/>
<text x="244.29" y="492" font-size="12" text-anchor="middle" fill="#555555">10</text>
<line x1="261.43" y1="60" x2="261.43" y2="470" stroke="#f3f4f6" stroke-width="1"/>
<text x="261.43" y="492" font-size="12" text-anchor="middle" fill="#555555">11</text>
<line x1="278.57" y1="60" x2="278.57" y2="470" stroke="#f3f4f6" stroke-width="1"/>
<text x="278.57" y="492" font-size="12" text-anchor="middle" fill="#555555">12</text>
<line x1="295.71" y1="60" x2="295.71" y2="470" stroke="#f3f4f6" stroke-width="1"/>
<text x="295.71" y="492" font-size="12" text-anchor="middle" fill="#555555">13</text>
<line x1="312.86" y1="60" x2="312.86" y2="470" stroke="#f3f4f6" stroke-width="1"/>
<text x="312.86" y="492" font-size="12" text-anchor="middle" fill="#555555">14</text>
<line x1="330.00" y1="60" x2="330.00" y2="470" stroke="#f3f4f6" stroke-width="1"/>
<text x="330.00" y="492" font-size="12" text-anchor="middle" fill="#555555">15</text>
<line x1="347.14" y1="60" x2="347.14" y2="470" stroke="#f3f4f6" stroke-width="1"/>
<text x="347.14" y="492" font-size="12" text-anchor="middle" fill="#555555">16</text>
<line x1="364.29" y1="60" x2="364.29" y2="470" stroke="#f3f4f6" stroke-width="1"/>
<text x="364.29" y="492" font-size="12" text-anchor="middle" fill="#555555">17</text>
<line x1="381.43" y1="60" x2="381.43" y2="470" stroke="#f3f4f6" stroke-width="1"/>
<text x="381.43" y="492" font-size="12" text-anchor="middle" fill="#555555">18</text>
<line x1="398.57" y1="60" x2="398.57" y2="470" stroke="#f3f4f6" stroke-width="1"/>
<text x="398.57" y="492" font-size="12" text-anchor="middle" fill="#555555">19</text>
<line x1="415.71" y1="60" x2="415.71" y2="470" stroke="#f3f4f6" stroke-width="1"/>
<text x="415.71" y="492" font-size="12" text-anchor="middle" fill="#555555">20</text>
<line x1="432.86" y1="60" x2="432.86" y2="470" stroke="#f3f4f6" stroke-width="1"/>
<text x="432.86" y="492" font-size="12" text-anchor="middle" fill="#555555">21</text>
<line x1="450.00" y1="60" x2="450.00" y2="470" stroke="#f3f4f6" stroke-width="1"/>
<text x="450.00" y="492" font-size="12" text-anchor="middle" fill="#555555">22</text>
<line x1="467.14" y1="60" x2="467.14" y2="470" stroke="#f3f4f6" stroke-width="1"/>
<text x="467.14" y="492" font-size="12" text-anchor="middle" fill="#555555">23</text>
<line x1="484.29" y1="60" x2="484.29" y2="470" stroke="#f3f4f6" stroke-width="1"/>
<text x="484.29" y="492" font-size="12" text-anchor="middle" fill="#555555">24</text>
<line x1="501.43" y1="60" x2="501.43" y2="470" stroke="#f3f4f6" stroke-width="1"/>
<text x="501.43" y="492" font-size="12" text-anchor="middle" fill="#555555">25</text>
<line x1="518.57" y1="60" x2="518.57" y2="470" stroke="#f3f4f6" stroke-width="1"/>
<text x="518.57" y="492" font-size="12" text-anchor="middle" fill="#555555">26</text>
<line x1="535.71" y1="60" x2="535.71" y2="470" stroke="#f3f4f6" stroke-width="1"/>
<text x="535.71" y="492" font-size="12" text-anchor="middle" fill="#555555">27</text>
<line x1="552.86" y1="60" x2="552.86" y2="470" stroke="#f3f4f6" stroke-width="1"/>
<text x="552.86" y="492" font-size="12" text-anchor="middle" fill="#555555">28</text>
<line x1="570.00" y1="60" x2="570.00" y2="470" stroke="#f3f4f6" stroke-width="1"/>
<text x="570.00" y="492" font-size="12" text-anchor="middle" fill="#555555">29</text>
<line x1="587.14" y1="60" x2="587.14" y2="470" stroke="#f3f4f6" stroke-width="1"/>
<text x="587.14" y="492" font-size="12" text-anchor="middle" fill="#555555">30</text>
<line x1="604.29" y1="60" x2="604.29" y2="470" stroke="#f3f4f6" stroke-width="1"/>
<text x="604.29" y="492" font-size="12" text-anchor="middle" fill="#555555">31</text>
<line x1="621.43" y1="60" x2="621.43" y2="470" stroke="#f3f4f6" stroke-width="1"/>
<text x="621.43" y="492" font-size="12" text-anchor="middle" fill="#555555">32</text>
<line x1="638.57" y1="60" x2="638.57" y2="470" stroke="#f3f4f6" stroke-width="1"/>
<text x="638.57" y="492" font-size="12" text-anchor="middle" fill="#555555">33</text>
<line x1="655.71" y1="60" x2="655.71" y2="470" stroke="#f3f4f6" stroke-width="1"/>
<text x="655.71" y="492" font-size="12" text-anchor="middle" fill="#555555">34</text>
<line x1="672.86" y1="60" x2="672.86" y2="470" stroke="#f3f4f6" stroke-width="1"/>
<text x="672.86" y="492" font-size="12" text-anchor="middle" fill="#555555">35</text>
<line x1="690.00" y1="60" x2="690.00" y2="470" stroke="#f3f4f6" stroke-width="1"/>
<text x="690.00" y="492" font-size="12" text-anchor="middle" fill="#555555">36</text>
<line x1="707.14" y1="60" x2="707.14" y2="470" stroke="#f3f4f6" stroke-width="1"/>
<text x="707.14" y="492" font-size="12" text-anchor="middle" fill="#555555">37</text>
<line x1="724.29" y1="60" x2="724.29" y2="470" stroke="#f3f4f6" stroke-width="1"/>
<text x="724.29" y="492" font-size="12" text-anchor="middle" fill="#555555">38</text>
<line x1="741.43" y1="60" x2="741.43" y2="470" stroke="#f3f4f6" stroke-width="1"/>
<text x="741.43" y="492" font-size="12" text-anchor="middle" fill="#555555">39</text>
<line x1="758.57" y1="60" x2="758.57" y2="470" stroke="#f3f4f6" stroke-width="1"/>
<text x="758.57" y="492" font-size="12" text-anchor="middle" fill="#555555">40</text>
<line x1="775.71" y1="60" x2="775.71" y2="470" stroke="#f3f4f6" stroke-width="1"/>
<text x="775.71" y="492" font-size="12" text-anchor="middle" fill="#555555">41</text>
<line x1="792.86" y1="60" x2="792.86" y2="470" stroke="#f3f4f6" stroke-width="1"/>
<text x="792.86" y="492" font-size="12" text-anchor="middle" fill="#555555">42</text>
<line x1="810.00" y1="60" x2="810.00" y2="470" stroke="#f3f4f6" stroke-width="1"/>
<text x="810.00" y="492" font-size="12" text-anchor="middle" fill="#555555">43</text>
<line x1="827.14" y1="60" x2="827.14" y2="470" stroke="#f3f4f6" stroke-width="1"/>
<text x="827.14" y="492" font-size="12" text-anchor="middle" fill="#555555">44</text>
<line x1="844.29" y1="60" x2="844.29" y2="470" stroke="#f3f4f6" stroke-width="1"/>
<text x="844.29" y="492" font-size="12" text-anchor="middle" fill="#555555">45</text>
<line x1="861.43" y1="60" x2="861.43" y2="470" stroke="#f3f4f6" stroke-width="1"/>
<text x="861.43" y="492" font-size="12" text-anchor="middle" fill="#555555">46</text>
<line x1="878.57" y1="60" x2="878.57" y2="470" stroke="#f3f4f6" stroke-width="1"/>
<text x="878.57" y="492" font-size="12" text-anchor="middle" fill="#555555">47</text>
<line x1="895.71" y1="60" x2="895.71" y2="470" stroke="#f3f4f6" stroke-width="1"/>
<text x="895.71" y="492" font-size="12" text-anchor="middle" fill="#555555">48</text>
<line x1="912.86" y1="60" x2="912.86" y2="470" stroke="#f3f4f6" stroke-width="1"/>
<text x="912.86" y="492" font-size="12" text-anchor="middle" fill="#555555">49</text>
<line x1="930.00" y1="60" x2="930.00" y2="470" stroke="#f3f4f6" stroke-width="1"/>
<text x="930.00" y="492" font-size="12" text-anchor="middle" fill="#555555">50</text>
<polyline fill="none" stroke="#d97706" stroke-width="3" points="90.00,150.65 107.14,103.33 124.29,111.31 141.43,124.33 158.57,181.68 175.71,139.31 192.86,271.36 210.00,108.51 227.14,97.86 244.29,95.04 261.43,95.16 278.57,95.71 295.71,98.38 312.86,94.17 330.00,141.35 347.14,94.81 364.29,94.21 381.43,94.21 398.57,96.20 415.71,95.87 432.86,434.32 450.00,434.41 467.14,433.63 484.29,129.72 501.43,135.78 518.57,421.51 535.71,100.42 552.86,157.30 570.00,103.23 587.14,173.21 604.29,119.43 621.43,110.50 638.57,134.55 655.71,120.73 672.86,140.19 690.00,121.65 707.14,121.56 724.29,142.81 741.43,99.04 758.57,149.66 775.71,148.28 792.86,100.53 810.00,150.37 827.14,100.77 844.29,191.75 861.43,116.42 878.57,124.73 895.71,101.69 912.86,124.18 930.00,152.52"/>
<circle cx="90.00" cy="150.65" r="4.5" fill="#d97706" fill-opacity="0.9"/>
<circle cx="107.14" cy="103.33" r="4.5" fill="#d97706" fill-opacity="0.9"/>
<circle cx="124.29" cy="111.31" r="4.5" fill="#d97706" fill-opacity="0.9"/>
<circle cx="141.43" cy="124.33" r="4.5" fill="#d97706" fill-opacity="0.9"/>
<circle cx="158.57" cy="181.68" r="4.5" fill="#d97706" fill-opacity="0.9"/>
<circle cx="175.71" cy="139.31" r="4.5" fill="#d97706" fill-opacity="0.9"/>
<circle cx="192.86" cy="271.36" r="4.5" fill="#d97706" fill-opacity="0.9"/>
<circle cx="210.00" cy="108.51" r="4.5" fill="#d97706" fill-opacity="0.9"/>
<circle cx="227.14" cy="97.86" r="4.5" fill="#d97706" fill-opacity="0.9"/>
<circle cx="244.29" cy="95.04" r="4.5" fill="#d97706" fill-opacity="0.9"/>
<circle cx="261.43" cy="95.16" r="4.5" fill="#d97706" fill-opacity="0.9"/>
<circle cx="278.57" cy="95.71" r="4.5" fill="#d97706" fill-opacity="0.9"/>
<circle cx="295.71" cy="98.38" r="4.5" fill="#d97706" fill-opacity="0.9"/>
<circle cx="312.86" cy="94.17" r="4.5" fill="#d97706" fill-opacity="0.9"/>
<circle cx="330.00" cy="141.35" r="4.5" fill="#d97706" fill-opacity="0.9"/>
<circle cx="347.14" cy="94.81" r="4.5" fill="#d97706" fill-opacity="0.9"/>
<circle cx="364.29" cy="94.21" r="4.5" fill="#d97706" fill-opacity="0.9"/>
<circle cx="381.43" cy="94.21" r="4.5" fill="#d97706" fill-opacity="0.9"/>
<circle cx="398.57" cy="96.20" r="4.5" fill="#d97706" fill-opacity="0.9"/>
<circle cx="415.71" cy="95.87" r="4.5" fill="#d97706" fill-opacity="0.9"/>
<circle cx="432.86" cy="434.32" r="4.5" fill="#d97706" fill-opacity="0.9"/>
<circle cx="450.00" cy="434.41" r="4.5" fill="#d97706" fill-opacity="0.9"/>
<circle cx="467.14" cy="433.63" r="4.5" fill="#d97706" fill-opacity="0.9"/>
<circle cx="484.29" cy="129.72" r="4.5" fill="#d97706" fill-opacity="0.9"/>
<circle cx="501.43" cy="135.78" r="4.5" fill="#d97706" fill-opacity="0.9"/>
<circle cx="518.57" cy="421.51" r="4.5" fill="#d97706" fill-opacity="0.9"/>
<circle cx="535.71" cy="100.42" r="4.5" fill="#d97706" fill-opacity="0.9"/>
<circle cx="552.86" cy="157.30" r="4.5" fill="#d97706" fill-opacity="0.9"/>
<circle cx="570.00" cy="103.23" r="4.5" fill="#d97706" fill-opacity="0.9"/>
<circle cx="587.14" cy="173.21" r="4.5" fill="#d97706" fill-opacity="0.9"/>
<circle cx="604.29" cy="119.43" r="4.5" fill="#d97706" fill-opacity="0.9"/>
<circle cx="621.43" cy="110.50" r="4.5" fill="#d97706" fill-opacity="0.9"/>
<circle cx="638.57" cy="134.55" r="4.5" fill="#d97706" fill-opacity="0.9"/>
<circle cx="655.71" cy="120.73" r="4.5" fill="#d97706" fill-opacity="0.9"/>
<circle cx="672.86" cy="140.19" r="4.5" fill="#d97706" fill-opacity="0.9"/>
<circle cx="690.00" cy="121.65" r="4.5" fill="#d97706" fill-opacity="0.9"/>
<circle cx="707.14" cy="121.56" r="4.5" fill="#d97706" fill-opacity="0.9"/>
<circle cx="724.29" cy="142.81" r="4.5" fill="#d97706" fill-opacity="0.9"/>
<circle cx="741.43" cy="99.04" r="4.5" fill="#d97706" fill-opacity="0.9"/>
<circle cx="758.57" cy="149.66" r="4.5" fill="#d97706" fill-opacity="0.9"/>
<circle cx="775.71" cy="148.28" r="4.5" fill="#d97706" fill-opacity="0.9"/>
<circle cx="792.86" cy="100.53" r="4.5" fill="#d97706" fill-opacity="0.9"/>
<circle cx="810.00" cy="150.37" r="4.5" fill="#d97706" fill-opacity="0.9"/>
<circle cx="827.14" cy="100.77" r="4.5" fill="#d97706" fill-opacity="0.9"/>
<circle cx="844.29" cy="191.75" r="4.5" fill="#d97706" fill-opacity="0.9"/>
<circle cx="861.43" cy="116.42" r="4.5" fill="#d97706" fill-opacity="0.9"/>
<circle cx="878.57" cy="124.73" r="4.5" fill="#d97706" fill-opacity="0.9"/>
<circle cx="895.71" cy="101.69" r="4.5" fill="#d97706" fill-opacity="0.9"/>
<circle cx="912.86" cy="124.18" r="4.5" fill="#d97706" fill-opacity="0.9"/>
<circle cx="930.00" cy="152.52" r="4.5" fill="#d97706" fill-opacity="0.9"/>
<rect x="90" y="32" width="18" height="6" fill="#d97706"/>
<text x="114" y="38" font-size="13" fill="#333333">val</text>
<polyline fill="none" stroke="#059669" stroke-width="3" points="90.00,153.56 107.14,103.56 124.29,112.37 141.43,123.12 158.57,182.30 175.71,138.79 192.86,273.44 210.00,109.98 227.14,97.84 244.29,95.37 261.43,95.40 278.57,96.49 295.71,98.88 312.86,94.43 330.00,143.74 347.14,95.00 364.29,94.66 381.43,94.31 398.57,95.73 415.71,96.13 432.86,435.15 450.00,435.83 467.14,434.65 484.29,128.68 501.43,136.64 518.57,421.30 535.71,102.24 552.86,160.85 570.00,102.29 587.14,172.50 604.29,119.97 621.43,111.54 638.57,138.06 655.71,121.60 672.86,138.15 690.00,121.58 707.14,121.51 724.29,141.23 741.43,100.23 758.57,152.19 775.71,148.45 792.86,102.07 810.00,154.15 827.14,102.29 844.29,194.73 861.43,115.12 878.57,125.84 895.71,102.17 912.86,124.78 930.00,153.44"/>
<circle cx="90.00" cy="153.56" r="4.5" fill="#059669" fill-opacity="0.9"/>
<circle cx="107.14" cy="103.56" r="4.5" fill="#059669" fill-opacity="0.9"/>
<circle cx="124.29" cy="112.37" r="4.5" fill="#059669" fill-opacity="0.9"/>
<circle cx="141.43" cy="123.12" r="4.5" fill="#059669" fill-opacity="0.9"/>
<circle cx="158.57" cy="182.30" r="4.5" fill="#059669" fill-opacity="0.9"/>
<circle cx="175.71" cy="138.79" r="4.5" fill="#059669" fill-opacity="0.9"/>
<circle cx="192.86" cy="273.44" r="4.5" fill="#059669" fill-opacity="0.9"/>
<circle cx="210.00" cy="109.98" r="4.5" fill="#059669" fill-opacity="0.9"/>
<circle cx="227.14" cy="97.84" r="4.5" fill="#059669" fill-opacity="0.9"/>
<circle cx="244.29" cy="95.37" r="4.5" fill="#059669" fill-opacity="0.9"/>
<circle cx="261.43" cy="95.40" r="4.5" fill="#059669" fill-opacity="0.9"/>
<circle cx="278.57" cy="96.49" r="4.5" fill="#059669" fill-opacity="0.9"/>
<circle cx="295.71" cy="98.88" r="4.5" fill="#059669" fill-opacity="0.9"/>
<circle cx="312.86" cy="94.43" r="4.5" fill="#059669" fill-opacity="0.9"/>
<circle cx="330.00" cy="143.74" r="4.5" fill="#059669" fill-opacity="0.9"/>
<circle cx="347.14" cy="95.00" r="4.5" fill="#059669" fill-opacity="0.9"/>
<circle cx="364.29" cy="94.66" r="4.5" fill="#059669" fill-opacity="0.9"/>
<circle cx="381.43" cy="94.31" r="4.5" fill="#059669" fill-opacity="0.9"/>
<circle cx="398.57" cy="95.73" r="4.5" fill="#059669" fill-opacity="0.9"/>
<circle cx="415.71" cy="96.13" r="4.5" fill="#059669" fill-opacity="0.9"/>
<circle cx="432.86" cy="435.15" r="4.5" fill="#059669" fill-opacity="0.9"/>
<circle cx="450.00" cy="435.83" r="4.5" fill="#059669" fill-opacity="0.9"/>
<circle cx="467.14" cy="434.65" r="4.5" fill="#059669" fill-opacity="0.9"/>
<circle cx="484.29" cy="128.68" r="4.5" fill="#059669" fill-opacity="0.9"/>
<circle cx="501.43" cy="136.64" r="4.5" fill="#059669" fill-opacity="0.9"/>
<circle cx="518.57" cy="421.30" r="4.5" fill="#059669" fill-opacity="0.9"/>
<circle cx="535.71" cy="102.24" r="4.5" fill="#059669" fill-opacity="0.9"/>
<circle cx="552.86" cy="160.85" r="4.5" fill="#059669" fill-opacity="0.9"/>
<circle cx="570.00" cy="102.29" r="4.5" fill="#059669" fill-opacity="0.9"/>
<circle cx="587.14" cy="172.50" r="4.5" fill="#059669" fill-opacity="0.9"/>
<circle cx="604.29" cy="119.97" r="4.5" fill="#059669" fill-opacity="0.9"/>
<circle cx="621.43" cy="111.54" r="4.5" fill="#059669" fill-opacity="0.9"/>
<circle cx="638.57" cy="138.06" r="4.5" fill="#059669" fill-opacity="0.9"/>
<circle cx="655.71" cy="121.60" r="4.5" fill="#059669" fill-opacity="0.9"/>
<circle cx="672.86" cy="138.15" r="4.5" fill="#059669" fill-opacity="0.9"/>
<circle cx="690.00" cy="121.58" r="4.5" fill="#059669" fill-opacity="0.9"/>
<circle cx="707.14" cy="121.51" r="4.5" fill="#059669" fill-opacity="0.9"/>
<circle cx="724.29" cy="141.23" r="4.5" fill="#059669" fill-opacity="0.9"/>
<circle cx="741.43" cy="100.23" r="4.5" fill="#059669" fill-opacity="0.9"/>
<circle cx="758.57" cy="152.19" r="4.5" fill="#059669" fill-opacity="0.9"/>
<circle cx="775.71" cy="148.45" r="4.5" fill="#059669" fill-opacity="0.9"/>
<circle cx="792.86" cy="102.07" r="4.5" fill="#059669" fill-opacity="0.9"/>
<circle cx="810.00" cy="154.15" r="4.5" fill="#059669" fill-opacity="0.9"/>
<circle cx="827.14" cy="102.29" r="4.5" fill="#059669" fill-opacity="0.9"/>
<circle cx="844.29" cy="194.73" r="4.5" fill="#059669" fill-opacity="0.9"/>
<circle cx="861.43" cy="115.12" r="4.5" fill="#059669" fill-opacity="0.9"/>
<circle cx="878.57" cy="125.84" r="4.5" fill="#059669" fill-opacity="0.9"/>
<circle cx="895.71" cy="102.17" r="4.5" fill="#059669" fill-opacity="0.9"/>
<circle cx="912.86" cy="124.78" r="4.5" fill="#059669" fill-opacity="0.9"/>
<circle cx="930.00" cy="153.44" r="4.5" fill="#059669" fill-opacity="0.9"/>
<rect x="270" y="32" width="18" height="6" fill="#059669"/>
<text x="294" y="38" font-size="13" fill="#333333">test</text>
</svg>