<svg xmlns="http://www.w3.org/2000/svg" width="960" height="540">
<rect width="100%" height="100%" fill="#ffffff"/>
<text x="480.0" y="30" font-size="22" text-anchor="middle" fill="#111111">Position 4 Accuracy</text>
<text x="20" y="270.0" font-size="16" transform="rotate(-90 20,270.0)" text-anchor="middle" fill="#333333">Accuracy</text>
<text x="480.0" y="520" font-size="16" text-anchor="middle" fill="#333333">Epoch</text>
<line x1="90" y1="60" x2="90" y2="470" stroke="#333333" stroke-width="2"/>
<line x1="90" y1="470" x2="930" y2="470" stroke="#333333" stroke-width="2"/>
<line x1="90" y1="470.00" x2="930" y2="470.00" stroke="#e5e7eb" stroke-width="1"/>
<text x="80" y="475.00" font-size="12" text-anchor="end" fill="#555555">-0.0716</text>
<line x1="90" y1="367.50" x2="930" y2="367.50" stroke="#e5e7eb" stroke-width="1"/>
<text x="80" y="372.50" font-size="12" text-anchor="end" fill="#555555">0.2173</text>
<line x1="90" y1="265.00" x2="930" y2="265.00" stroke="#e5e7eb" stroke-width="1"/>
<text x="80" y="270.00" font-size="12" text-anchor="end" fill="#555555">0.5062</text>
<line x1="90" y1="162.50" x2="930" y2="162.50" stroke="#e5e7eb" stroke-width="1"/>
<text x="80" y="167.50" font-size="12" text-anchor="end" fill="#555555">0.7951</text>
<line x1="90" y1="60.00" x2="930" y2="60.00" stroke="#e5e7eb" stroke-width="1"/>
<text x="80" y="65.00" font-size="12" text-anchor="end" fill="#555555">1.0840</text>
<line x1="90.00" y1="60" x2="90.00" y2="470" stroke="#f3f4f6" stroke-width="1"/>
<text x="90.00" y="492" font-size="12" text-anchor="middle" fill="#555555">1</text>
<line x1="107.14" y1="60" x2="107.14" y2="470" stroke="#f3f4f6" stroke-width="1"/>
<text x="107.14" y="492" font-size="12" text-anchor="middle" fill="#555555">2</text>
<line x1="124.29" y1="60" x2="124.29" y2="470" stroke="#f3f4f6" stroke-width="1"/>
<text x="124.29" y="492" font-size="12" text-anchor="middle" fill="#555555">3</text>
<line x1="141.43" y1="60" x2="141.43" y2="470" stroke="#f3f4f6" stroke-width="1"/>
<text x="141.43" y="492" font-size="12" text-anchor="middle" fill="#555555">4</text>
<line x1="158.57" y1="60" x2="158.57" y2="470" stroke="#f3f4f6" stroke-width="1"/>
<text x="158.57" y="492" font-size="12" text-anchor="middle" fill="#555555">5</text>
<line x1="175.71" y1="60" x2="175.71" y2="470" stroke="#f3f4f6" stroke-width="1"/>
<text x="175.71" y="492" font-size="12" text-anchor="middle" fill="#555555">6</text>
<line x1="192.86" y1="60" x2="192.86" y2="470" stroke="#f3f4f6" stroke-width="1"/>
<text x="192.86" y="492" font-size="12" text-anchor="middle" fill="#555555">7</text>
<line x1="210.00" y1="60" x2="210.00" y2="470" stroke="#f3f4f6" stroke-width="1"/>
<text x="210.00" y="492" font-size="12" text-anchor="middle" fill="#555555">8</text>
<line x1="227.14" y1="60" x2="227.14" y2="470" stroke="#f3f4f6" stroke-width="1"/>
<text x="227.14" y="492" font-size="12" text-anchor="middle" fill="#555555">9</text>
<line x1="244.29" y1="60" x2="244.29" y2="470" stroke="#f3f4f6" stroke-width="1"/>
<text x="244.29" y="492" font-size="12" text-anchor="middle" fill="#555555">10</text>
<line x1="261.43" y1="60" x2="261.43" y2="470" stroke="#f3f4f6" stroke-width="1"/>
<text x="261.43" y="492" font-size="12" text-anchor="middle" fill="#555555">11</text>
<line x1="278.57" y1="60" x2="278.57" y2="470" stroke="#f3f4f6" stroke-width="1"/>
<text x="278.57" y="492" font-size="12" text-anchor="middle" fill="#555555">12</text>
<line x1="295.71" y1="60" x2="295.71" y2="470" stroke="#f3f4f6" stroke-width="1"/>
<text x="295.71" y="492" font-size="12" text-anchor="middle" fill="#555555">13</text>
<line x1="312.86" y1="60" x2="312.86" y2="470" stroke="#f3f4f6" stroke-width="1"/>
<text x="312.86" y="492" font-size="12" text-anchor="middle" fill="#555555">14</text>
<line x1="330.00" y1="60" x2="330.00" y2="470" stroke="#f3f4f6" stroke-width="1"/>
<text x="330.00" y="492" font-size="12" text-anchor="middle" fill="#555555">15</text>
<line x1="347.14" y1="60" x2="347.14" y2="470" stroke="#f3f4f6" stroke-width="1"/>
<text x="347.14" y="492" font-size="12" text-anchor="middle" fill="#555555">16</text>
<line x1="364.29" y1="60" x2="364.29" y2="470" stroke="#f3f4f6" stroke-width="1"/>
<text x="364.29" y="492" font-size="12" text-anchor="middle" fill="#555555">17</text>
<line x1="381.43" y1="60" x2="381.43" y2="470" stroke="#f3f4f6" stroke-width="1"/>
<text x="381.43" y="492" font-size="12" text-anchor="middle" fill="#555555">18</text>
<line x1="398.57" y1="60" x2="398.57" y2="470" stroke="#f3f4f6" stroke-width="1"/>
<text x="398.57" y="492" font-size="12" text-anchor="middle" fill="#555555">19</text>
<line x1="415.71" y1="60" x2="415.71" y2="470" stroke="#f3f4f6" stroke-width="1"/>
<text x="415.71" y="492" font-size="12" text-anchor="middle" fill="#555555">20</text>
<line x1="432.86" y1="60" x2="432.86" y2="470" stroke="#f3f4f6" stroke-width="1"/>
<text x="432.86" y="492" font-size="12" text-anchor="middle" fill="#555555">21</text>
<line x1="450.00" y1="60" x2="450.00" y2="470" stroke="#f3f4f6" stroke-width="1"/>
<text x="450.00" y="492" font-size="12" text-anchor="middle" fill="#555555">22</text>
<line x1="467.14" y1="60" x2="467.14" y2="470" stroke="#f3f4f6" stroke-width="1"/>
<text x="467.14" y="492" font-size="12" text-anchor="middle" fill="#555555">23</text>
<line x1="484.29" y1="60" x2="484.29" y2="470" stroke="#f3f4f6" stroke-width="1"/>
<text x="484.29" y="492" font-size="12" text-anchor="middle" fill="#555555">24</text>
<line x1="501.43" y1="60" x2="501.43" y2="470" stroke="#f3f4f6" stroke-width="1"/>
<text x="501.43" y="492" font-size="12" text-anchor="middle" fill="#555555">25</text>
<line x1="518.57" y1="60" x2="518.57" y2="470" stroke="#f3f4f6" stroke-width="1"/>
<text x="518.57" y="492" font-size="12" text-anchor="middle" fill="#555555">26</text>
<line x1="535.71" y1="60" x2="535.71" y2="470" stroke="#f3f4f6" stroke-width="1"/>
<text x="535.71" y="492" font-size="12" text-anchor="middle" fill="#555555">27</text>
<line x1="552.86" y1="60" x2="552.86" y2="470" stroke="#f3f4f6" stroke-width="1"/>
<text x="552.86" y="492" font-size="12" text-anchor="middle" fill="#555555">28</text>
<line x1="570.00" y1="60" x2="570.00" y2="470" stroke="#f3f4f6" stroke-width="1"/>
<text x="570.00" y="492" font-size="12" text-anchor="middle" fill="#555555">29</text>
<line x1="587.14" y1="60" x2="587.14" y2="470" stroke="#f3f4f6" stroke-width="1"/>
<text x="587.14" y="492" font-size="12" text-anchor="middle" fill="#555555">30</text>
<line x1="604.29" y1="60" x2="604.29" y2="470" stroke="#f3f4f6" stroke-width="1"/>
<text x="604.29" y="492" font-size="12" text-anchor="middle" fill="#555555">31</text>
<line x1="621.43" y1="60" x2="621.43" y2="470" stroke="#f3f4f6" stroke-width="1"/>
<text x="621.43" y="492" font-size="12" text-anchor="middle" fill="#555555">32</text>
<line x1="638.57" y1="60" x2="638.57" y2="470" stroke="#f3f4f6" stroke-width="1"/>
<text x="638.57" y="492" font-size="12" text-anchor="middle" fill="#555555">33</text>
<line x1="655.71" y1="60" x2="655.71" y2="470" stroke="#f3f4f6" stroke-width="1"/>
<text x="655.71" y="492" font-size="12" text-anchor="middle" fill="#555555">34</text>
<line x1="672.86" y1="60" x2="672.86" y2="470" stroke="#f3f4f6" stroke-width="1"/>
<text x="672.86" y="492" font-size="12" text-anchor="middle" fill="#555555">35</text>
<line x1="690.00" y1="60" x2="690.00" y2="470" stroke="#f3f4f6" stroke-width="1"/>
<text x="690.00" y="492" font-size="12" text-anchor="middle" fill="#555555">36</text>
<line x1="707.14" y1="60" x2="707.14" y2="470" stroke="#f3f4f6" stroke-width="1"/>
<text x="707.14" y="492" font-size="12" text-anchor="middle" fill="#555555">37</text>
<line x1="724.29" y1="60" x2="724.29" y2="470" stroke="#f3f4f6" stroke-width="1"/>
<text x="724.29" y="492" font-size="12" text-anchor="middle" fill="#555555">38</text>
<line x1="741.43" y1="60" x2="741.43" y2="470" stroke="#f3f4f6" stroke-width="1"/>
<text x="741.43" y="492" font-size="12" text-anchor="middle" fill="#555555">39</text>
<line x1="758.57" y1="60" x2="758.57" y2="470" stroke="#f3f4f6" stroke-width="1"/>
<text x="758.57" y="492" font-size="12" text-anchor="middle" fill="#555555">40</text>
<line x1="775.71" y1="60" x2="775.71" y2="470" stroke="#f3f4f6" stroke-width="1"/>
<text x="775.71" y="492" font-size="12" text-anchor="middle" fill="#555555">41</text>
<line x1="792.86" y1="60" x2="792.86" y2="470" stroke="#f3f4f6" stroke-width="1"/>
<text x="792.86" y="492" font-size="12" text-anchor="middle" fill="#555555">42</text>
<line x1="810.00" y1="60" x2="810.00" y2="470" stroke="#f3f4f6" stroke-width="1"/>
<text x="810.00" y="492" font-size="12" text-anchor="middle" fill="#555555">43</text>
<line x1="827.14" y1="60" x2="827.14" y2="470" stroke="#f3f4f6" stroke-width="1"/>
<text x="827.14" y="492" font-size="12" text-anchor="middle" fill="#555555">44</text>
<line x1="844.29" y1="60" x2="844.29" y2="470" stroke="#f3f4f6" stroke-width="1"/>
<text x="844.29" y="492" font-size="12" text-anchor="middle" fill="#555555">45</text>
<line x1="861.43" y1="60" x2="861.43" y2="470" stroke="#f3f4f6" stroke-width="1"/>
<text x="861.43" y="492" font-size="12" text-anchor="middle" fill="#555555">46</text>
<line x1="878.57" y1="60" x2="878.57" y2="470" stroke="#f3f4f6" stroke-width="1"/>
<text x="878.57" y="492" font-size="12" text-anchor="middle" fill="#555555">47</text>
<line x1="895.71" y1="60" x2="895.71" y2="470" stroke="#f3f4f6" stroke-width="1"/>
<text x="895.71" y="492" font-size="12" text-anchor="middle" fill="#555555">48</text>
<line x1="912.86" y1="60" x2="912.86" y2="470" stroke="#f3f4f6" stroke-width="1"/>
<text x="912.86" y="492" font-size="12" text-anchor="middle" fill="#555555">49</text>
<line x1="930.00" y1="60" x2="930.00" y2="470" stroke="#f3f4f6" stroke-width="1"/>
<text x="930.00" y="492" font-size="12" text-anchor="middle" fill="#555555">50</text>
<polyline fill="none" stroke="#d97706" stroke-width="3" points="90.00,147.48 107.14,102.16 124.29,109.21 141.43,117.89 158.57,199.26 175.71,149.02 192.86,263.66 210.00,116.21 227.14,98.14 244.29,95.49 261.43,96.04 278.57,96.96 295.71,96.60 312.86,94.97 330.00,159.87 347.14,95.37 364.29,94.81 381.43,94.28 398.57,96.01 415.71,95.66 432.86,435.83 450.00,434.67 467.14,434.39 484.29,127.49 501.43,134.61 518.57,412.06 535.71,101.45 552.86,171.75 570.00,103.41 587.14,163.99 604.29,119.74 621.43,109.54 638.57,141.14 655.71,119.95 672.86,119.69 690.00,122.20 707.14,122.38 724.29,133.48 741.43,99.13 758.57,149.59 775.71,148.76 792.86,101.74 810.00,166.21 827.14,102.35 844.29,197.88 861.43,115.43 878.57,123.47 895.71,103.15 912.86,116.66 930.00,157.93"/>
<circle cx="90.00" cy="147.48" r="4.5" fill="#d97706" fill-opacity="0.9"/>
<circle cx="107.14" cy="102.16" r="4.5" fill="#d97706" fill-opacity="0.9"/>
<circle cx="124.29" cy="109.21" r="4.5" fill="#d97706" fill-opacity="0.9"/>
<circle cx="141.43" cy="117.89" r="4.5" fill="#d97706" fill-opacity="0.9"/>
<circle cx="158.57" cy="199.26" r="4.5" fill="#d97706" fill-opacity="0.9"/>
<circle cx="175.71" cy="149.02" r="4.5" fill="#d97706" fill-opacity="0.9"/>
<circle cx="192.86" cy="263.66" r="4.5" fill="#d97706" fill-opacity="0.9"/>
<circle cx="210.00" cy="116.21" r="4.5" fill="#d97706" fill-opacity="0.9"/>
<circle cx="227.14" cy="98.14" r="4.5" fill="#d97706" fill-opacity="0.9"/>
<circle cx="244.29" cy="95.49" r="4.5" fill="#d97706" fill-opacity="0.9"/>
<circle cx="261.43" cy="96.04" r="4.5" fill="#d97706" fill-opacity="0.9"/>
<circle cx="278.57" cy="96.96" r="4.5" fill="#d97706" fill-opacity="0.9"/>
<circle cx="295.71" cy="96.60" r="4.5" fill="#d97706" fill-opacity="0.9"/>
<circle cx="312.86" cy="94.97" r="4.5" fill="#d97706" fill-opacity="0.9"/>
<circle cx="330.00" cy="159.87" r="4.5" fill="#d97706" fill-opacity="0.9"/>
<circle cx="347.14" cy="95.37" r="4.5" fill="#d97706" fill-opacity="0.9"/>
<circle cx="364.29" cy="94.81" r="4.5" fill="#d97706" fill-opacity="0.9"/>
<circle cx="381.43" cy="94.28" r="4.5" fill="#d97706" fill-opacity="0.9"/>
<circle cx="398.57" cy="96.01" r="4.5" fill="#d97706" fill-opacity="0.9"/>
<circle cx="415.71" cy="95.66" r="4.5" fill="#d97706" fill-opacity="0.9"/>
<circle cx="432.86" cy="435.83" r="4.5" fill="#d97706" fill-opacity="0.9"/>
<circle cx="450.00" cy="434.67" r="4.5" fill="#d97706" fill-opacity="0.9"/>
<circle cx="467.14" cy="434.39" r="4.5" fill="#d97706" fill-opacity="0.9"/>
<circle cx="484.29" cy="127.49" r="4.5" fill="#d97706" fill-opacity="0.9"/>
<circle cx="501.43" cy="134.61" r="4.5" fill="#d97706" fill-opacity="0.9"/>
<circle cx="518.57" cy="412.06" r="4.5" fill="#d97706" fill-opacity="0.9"/>
<circle cx="535.71" cy="101.45" r="4.5" fill="#d97706" fill-opacity="0.9"/>
<circle cx="552.86" cy="171.75" r="4.5" fill="#d97706" fill-opacity="0.9"/>
<circle cx="570.00" cy="103.41" r="4.5" fill="#d97706" fill-opacity="0.9"/>
<circle cx="587.14" cy="163.99" r="4.5" fill="#d97706" fill-opacity="0.9"/>
<circle cx="604.29" cy="119.74" r="4.5" fill="#d97706" fill-opacity="0.9"/>
<circle cx="621.43" cy="109.54" r="4.5" fill="#d97706" fill-opacity="0.9"/>
<circle cx="638.57" cy="141.14" r="4.5" fill="#d97706" fill-opacity="0.9"/>
<circle cx="655.71" cy="119.95" r="4.5" fill="#d97706" fill-opacity="0.9"/>
<circle cx="672.86" cy="119.69" r="4.5" fill="#d97706" fill-opacity="0.9"/>
<circle cx="690.00" cy="122.20" r="4.5" fill="#d97706" fill-opacity="0.9"/>
<circle cx="707.14" cy="122.38" r="4.5" fill="#d97706" fill-opacity="0.9"/>
<circle cx="724.29" cy="133.48" r="4.5" fill="#d97706" fill-opacity="0.9"/>
<circle cx="741.43" cy="99.13" r="4.5" fill="#d97706" fill-opacity="0.9"/>
<circle cx="758.57" cy="149.59" r="4.5" fill="#d97706" fill-opacity="0.9"/>
<circle cx="775.71" cy="148.76" r="4.5" fill="#d97706" fill-opacity="0.9"/>
<circle cx="792.86" cy="101.74" r="4.5" fill="#d97706" fill-opacity="0.9"/>
<circle cx="810.00" cy="166.21" r="4.5" fill="#d97706" fill-opacity="0.9"/>
<circle cx="827.14" cy="102.35" r="4.5" fill="#d97706" fill-opacity="0.9"/>
<circle cx="844.29" cy="197.88" r="4.5" fill="#d97706" fill-opacity="0.9"/>
<circle cx="861.43" cy="115.43" r="4.5" fill="#d97706" fill-opacity="0.9"/>
<circle cx="878.57" cy="123.47" r="4.5" fill="#d97706" fill-opacity="0.9"/>
<circle cx="895.71" cy="103.15" r="4.5" fill="#d97706" fill-opacity="0.9"/>
<circle cx="912.86" cy="116.66" r="4.5" fill="#d97706" fill-opacity="0.9"/>
<circle cx="930.00" cy="157.93" r="4.5" fill="#d97706" fill-opacity="0.9"/>
<rect x="90" y="32" width="18" height="6" fill="#d97706"/>
<text x="114" y="38" font-size="13" fill="#333333">val</text>
<polyline fill="none" stroke="#059669" stroke-width="3" points="90.00,145.71 107.14,101.88 124.29,107.74 141.43,117.06 158.57,197.22 175.71,150.58 192.86,264.96 210.00,113.94 227.14,97.79 244.29,94.69 261.43,96.15 278.57,96.51 295.71,96.01 312.86,94.33 330.00,160.25 347.14,94.73 364.29,94.17 381.43,94.17 398.57,95.61 415.71,95.16 432.86,434.15 450.00,435.45 467.14,434.34 484.29,125.08 501.43,132.08 518.57,413.93 535.71,101.31 552.86,170.85 570.00,102.92 587.14,161.20 604.29,118.69 621.43,109.23 638.57,141.73 655.71,118.79 672.86,120.45 690.00,120.94 707.14,121.72 724.29,132.89 741.43,99.61 758.57,147.93 775.71,149.73 792.86,101.52 810.00,167.16 827.14,101.88 844.29,200.30 861.43,115.24 878.57,123.99 895.71,103.39 912.86,117.63 930.00,157.84"/>
<circle cx="90.00" cy="145.71" r="4.5" fill="#059669" fill-opacity="0.9"/>
<circle cx="107.14" cy="101.88" r="4.5" fill="#059669" fill-opacity="0.9"/>
<circle cx="124.29" cy="107.74" r="4.5" fill="#059669" fill-opacity="0.9"/>
<circle cx="141.43" cy="117.06" r="4.5" fill="#059669" fill-opacity="0.9"/>
<circle cx="158.57" cy="197.22" r="4.5" fill="#059669" fill-opacity="0.9"/>
<circle cx="175.71" cy="150.58" r="4.5" fill="#059669" fill-opacity="0.9"/>
<circle cx="192.86" cy="264.96" r="4.5" fill="#059669" fill-opacity="0.9"/>
<circle cx="210.00" cy="113.94" r="4.5" fill="#059669" fill-opacity="0.9"/>
<circle cx="227.14" cy="97.79" r="4.5" fill="#059669" fill-opacity="0.9"/>
<circle cx="244.29" cy="94.69" r="4.5" fill="#059669" fill-opacity="0.9"/>
<circle cx="261.43" cy="96.15" r="4.5" fill="#059669" fill-opacity="0.9"/>
<circle cx="278.57" cy="96.51" r="4.5" fill="#059669" fill-opacity="0.9"/>
<circle cx="295.71" cy="96.01" r="4.5" fill="#059669" fill-opacity="0.9"/>
<circle cx="312.86" cy="94.33" r="4.5" fill="#059669" fill-opacity="0.9"/>
<circle cx="330.00" cy="160.25" r="4.5" fill="#059669" fill-opacity="0.9"/>
<circle cx="347.14" cy="94.73" r="4.5" fill="#059669" fill-opacity="0.9"/>
<circle cx="364.29" cy="94.17" r="4.5" fill="#059669" fill-opacity="0.9"/>
<circle cx="381.43" cy="94.17" r="4.5" fill="#059669" fill-opacity="0.9"/>
<circle cx="398.57" cy="95.61" r="4.5" fill="#059669" fill-opacity="0.9"/>
<circle cx="415.71" cy="95.16" r="4.5" fill="#059669" fill-opacity="0.9"/>
<circle cx="432.86" cy="434.15" r="4.5" fill="#059669" fill-opacity="0.9"/>
<circle cx="450.00" cy="435.45" r="4.5" fill="#059669" fill-opacity="0.9"/>
<circle cx="467.14" cy="434.34" r="4.5" fill="#059669" fill-opacity="0.9"/>
<circle cx="484.29" cy="125.08" r="4.5" fill="#059669" fill-opacity="0.9"/>
<circle cx="501.43" cy="132.08" r="4.5" fill="#059669" fill-opacity="0.9"/>
<circle cx="518.57" cy="413.93" r="4.5" fill="#059669" fill-opacity="0.9"/>
<circle cx="535.71" cy="101.31" r="4.5" fill="#059669" fill-opacity="0.9"/>
<circle cx="552.86" cy="170.85" r="4.5" fill="#059669" fill-opacity="0.9"/>
<circle cx="570.00" cy="102.92" r="4.5" fill="#059669" fill-opacity="0.9"/>
<circle cx="587.14" cy="161.20" r="4.5" fill="#059669" fill-opacity="0.9"/>
<circle cx="604.29" cy="118.69" r="4.5" fill="#059669" fill-opacity="0.9"/>
<circle cx="621.43" cy="109.23" r="4.5" fill="#059669" fill-opacity="0.9"/>
<circle cx="638.57" cy="141.73" r="4.5" fill="#059669" fill-opacity="0.9"/>
<circle cx="655.71" cy="118.79" r="4.5" fill="#059669" fill-opacity="0.9"/>
<circle cx="672.86" cy="120.45" r="4.5" fill="#059669" fill-opacity="0.9"/>
<circle cx="690.00" cy="120.94" r="4.5" fill="#059669" fill-opacity="0.9"/>
<circle cx="707.14" cy="121.72" r="4.5" fill="#059669" fill-opacity="0.9"/>
<circle cx="724.29" cy="132.89" r="4.5" fill="#059669" fill-opacity="0.9"/>
<circle cx="741.43" cy="99.61" r="4.5" fill="#059669" fill-opacity="0.9"/>
<circle cx="758.57" cy="147.93" r="4.5" fill="#059669" fill-opacity="0.9"/>
<circle cx="775.71" cy="149.73" r="4.5" fill="#059669" fill-opacity="0.9"/>
<circle cx="792.86" cy="101.52" r="4.5" fill="#059669" fill-opacity="0.9"/>
<circle cx="810.00" cy="167.16" r="4.5" fill="#059669" fill-opacity="0.9"/>
<circle cx="827.14" cy="101.88" r="4.5" fill="#059669" fill-opacity="0.9"/>
<circle cx="844.29" cy="200.30" r="4.5" fill="#059669" fill-opacity="0.9"/>
<circle cx="861.43" cy="115.24" r="4.5" fill="#059669" fill-opacity="0.9"/>
<circle cx="878.57" cy="123.99" r="4.5" fill="#059669" fill-opacity="0.9"/>
<circle cx="895.71" cy="103.39" r="4.5" fill="#059669" fill-opacity="0.9"/>
<circle cx="912.86" cy="117.63" r="4.5" fill="#059669" fill-opacity="0.9"/>
<circle cx="930.00" cy="157.84" r="4.5" fill="#059669" fill-opacity="0.9"/>
<rect x="270" y="32" width="18" height="6" fill="#059669"/>
<text x="294" y="38" font-size="13" fill="#333333">test</text>
</svg>