<svg xmlns="http://www.w3.org/2000/svg" width="960" height="540">
<rect width="100%" height="100%" fill="#ffffff"/>
<text x="480.0" y="30" font-size="22" text-anchor="middle" fill="#111111">Position 5 Accuracy</text>
<text x="20" y="270.0" font-size="16" transform="rotate(-90 20,270.0)" text-anchor="middle" fill="#333333">Accuracy</text>
<text x="480.0" y="520" font-size="16" text-anchor="middle" fill="#333333">Epoch</text>
<line x1="90" y1="60" x2="90" y2="470" stroke="#333333" stroke-width="2"/>
<line x1="90" y1="470" x2="930" y2="470" stroke="#333333" stroke-width="2"/>
<line x1="90" y1="470.00" x2="930" y2="470.00" stroke="#e5e7eb" stroke-width="1"/>
<text x="80" y="475.00" font-size="12" text-anchor="end" fill="#555555">-0.0688</text>
<line x1="90" y1="367.50" x2="930" y2="367.50" stroke="#e5e7eb" stroke-width="1"/>
<text x="80" y="372.50" font-size="12" text-anchor="end" fill="#555555">0.2207</text>
<line x1="90" y1="265.00" x2="930" y2="265.00" stroke="#e5e7eb" stroke-width="1"/>
<text x="80" y="270.00" font-size="12" text-anchor="end" fill="#555555">0.5102</text>
<line x1="90" y1="162.50" x2="930" y2="162.50" stroke="#e5e7eb" stroke-width="1"/>
<text x="80" y="167.50" font-size="12" text-anchor="end" fill="#555555">0.7996</text>
<line x1="90" y1="60.00" x2="930" y2="60.00" stroke="#e5e7eb" stroke-width="1"/>
<text x="80" y="65.00" font-size="12" text-anchor="end" fill="#555555">1.0891</text>
<line x1="90.00" y1="60" x2="90.00" y2="470" stroke="#f3f4f6" stroke-width="1"/>
<text x="90.00" y="492" font-size="12" text-anchor="middle" fill="#555555">1</text>
<line x1="107.14" y1="60" x2="107.14" y2="470" stroke="#f3f4f6" stroke-width="1"/>
<text x="107.14" y="492" font-size="12" text-anchor="middle" fill="#555555">2</text>
<line x1="124.29" y1="60" x2="124.29" y2="470" stroke="#f3f4f6" stroke-width="1"/>
<text x="124.29" y="492" font-size="12" text-anchor="middle" fill="#555555">3</text>
<line x1="141.43" y1="60" x2="141.43" y2="470" stroke="#f3f4f6" stroke-width="1"/>
<text x="141.43" y="492" font-size="12" text-anchor="middle" fill="#555555">4</text>
<line x1="158.57" y1="60" x2="158.57" y2="470" stroke="#f3f4f6" stroke-width="1"/>
<text x="158.57" y="492" font-size="12" text-anchor="middle" fill="#555555">5</text>
<line x1="175.71" y1="60" x2="175.71" y2="470" stroke="#f3f4f6" stroke-width="1"/>
<text x="175.71" y="492" font-size="12" text-anchor="middle" fill="#555555">6</text>
<line x1="192.86" y1="60" x2="192.86" y2="470" stroke="#f3f4f6" stroke-width="1"/>
<text x="192.86" y="492" font-size="12" text-anchor="middle" fill="#555555">7</text>
<line x1="210.00" y1="60" x2="210.00" y2="470" stroke="#f3f4f6" stroke-width="1"/>
<text x="210.00" y="492" font-size="12" text-anchor="middle" fill="#555555">8</text>
<line x1="227.14" y1="60" x2="227.14" y2="470" stroke="#f3f4f6" stroke-width="1"/>
<text x="227.14" y="492" font-size="12" text-anchor="middle" fill="#555555">9</text>
<line x1="244.29" y1="60" x2="244.29" y2="470" stroke="#f3f4f6" stroke-width="1"/>
<text x="244.29" y="492" font-size="12" text-anchor="middle" fill="#555555">10</text>
<line x1="261.43" y1="60" x2="261.43" y2="470" stroke="#f3f4f6" stroke-width="1"/>
<text x="261.43" y="492" font-size="12" text-anchor="middle" fill="#555555">11</text>
<line x1="278.57" y1="60" x2="278.57" y2="470" stroke="#f3f4f6" stroke-width="1"/>
<text x="278.57" y="492" font-size="12" text-anchor="middle" fill="#555555">12</text>
<line x1="295.71" y1="60" x2="295.71" y2="470" stroke="#f3f4f6" stroke-width="1"/>
<text x="295.71" y="492" font-size="12" text-anchor="middle" fill="#555555">13</text>
<line x1="312.86" y1="60" x2="312.86" y2="470" stroke="#f3f4f6" stroke-width="1"/>
<text x="312.86" y="492" font-size="12" text-anchor="middle" fill="#555555">14</text>
<line x1="330.00" y1="60" x2="330.00" y2="470" stroke="#f3f4f6" stroke-width="1"/>
<text x="330.00" y="492" font-size="12" text-anchor="middle" fill="#555555">15</text>
<line x1="347.14" y1="60" x2="347.14" y2="470" stroke="#f3f4f6" stroke-width="1"/>
<text x="347.14" y="492" font-size="12" text-anchor="middle" fill="#555555">16</text>
<line x1="364.29" y1="60" x2="364.29" y2="470" stroke="#f3f4f6" stroke-width="1"/>
<text x="364.29" y="492" font-size="12" text-anchor="middle" fill="#555555">17</text>
<line x1="381.43" y1="60" x2="381.43" y2="470" stroke="#f3f4f6" stroke-width="1"/>
<text x="381.43" y="492" font-size="12" text-anchor="middle" fill="#555555">18</text>
<line x1="398.57" y1="60" x2="398.57" y2="470" stroke="#f3f4f6" stroke-width="1"/>
<text x="398.57" y="492" font-size="12" text-anchor="middle" fill="#555555">19</text>
<line x1="415.71" y1="60" x2="415.71" y2="470" stroke="#f3f4f6" stroke-width="1"/>
<text x="415.71" y="492" font-size="12" text-anchor="middle" fill="#555555">20</text>
<line x1="432.86" y1="60" x2="432.86" y2="470" stroke="#f3f4f6" stroke-width="1"/>
<text x="432.86" y="492" font-size="12" text-anchor="middle" fill="#555555">21</text>
<line x1="450.00" y1="60" x2="450.00" y2="470" stroke="#f3f4f6" stroke-width="1"/>
<text x="450.00" y="492" font-size="12" text-anchor="middle" fill="#555555">22</text>
<line x1="467.14" y1="60" x2="467.14" y2="470" stroke="#f3f4f6" stroke-width="1"/>
<text x="467.14" y="492" font-size="12" text-anchor="middle" fill="#555555">23</text>
<line x1="484.29" y1="60" x2="484.29" y2="470" stroke="#f3f4f6" stroke-width="1"/>
<text x="484.29" y="492" font-size="12" text-anchor="middle" fill="#555555">24</text>
<line x1="501.43" y1="60" x2="501.43" y2="470" stroke="#f3f4f6" stroke-width="1"/>
<text x="501.43" y="492" font-size="12" text-anchor="middle" fill="#555555">25</text>
<line x1="518.57" y1="60" x2="518.57" y2="470" stroke="#f3f4f6" stroke-width="1"/>
<text x="518.57" y="492" font-size="12" text-anchor="middle" fill="#555555">26</text>
<line x1="535.71" y1="60" x2="535.71" y2="470" stroke="#f3f4f6" stroke-width="1"/>
<text x="535.71" y="492" font-size="12" text-anchor="middle" fill="#555555">27</text>
<line x1="552.86" y1="60" x2="552.86" y2="470" stroke="#f3f4f6" stroke-width="1"/>
<text x="552.86" y="492" font-size="12" text-anchor="middle" fill="#555555">28</text>
<line x1="570.00" y1="60" x2="570.00" y2="470" stroke="#f3f4f6" stroke-width="1"/>
<text x="570.00" y="492" font-size="12" text-anchor="middle" fill="#555555">29</text>
<line x1="587.14" y1="60" x2="587.14" y2="470" stroke="#f3f4f6" stroke-width="1"/>
<text x="587.14" y="492" font-size="12" text-anchor="middle" fill="#555555">30</text>
<line x1="604.29" y1="60" x2="604.29" y2="470" stroke="#f3f4f6" stroke-width="1"/>
<text x="604.29" y="492" font-size="12" text-anchor="middle" fill="#555555">31</text>
<line x1="621.43" y1="60" x2="621.43" y2="470" stroke="#f3f4f6" stroke-width="1"/>
<text x="621.43" y="492" font-size="12" text-anchor="middle" fill="#555555">32</text>
<line x1="638.57" y1="60" x2="638.57" y2="470" stroke="#f3f4f6" stroke-width="1"/>
<text x="638.57" y="492" font-size="12" text-anchor="middle" fill="#555555">33</text>
<line x1="655.71" y1="60" x2="655.71" y2="470" stroke="#f3f4f6" stroke-width="1"/>
<text x="655.71" y="492" font-size="12" text-anchor="middle" fill="#555555">34</text>
<line x1="672.86" y1="60" x2="672.86" y2="470" stroke="#f3f4f6" stroke-width="1"/>
<text x="672.86" y="492" font-size="12" text-anchor="middle" fill="#555555">35</text>
<line x1="690.00" y1="60" x2="690.00" y2="470" stroke="#f3f4f6" stroke-width="1"/>
<text x="690.00" y="492" font-size="12" text-anchor="middle" fill="#555555">36</text>
<line x1="707.14" y1="60" x2="707.14" y2="470" stroke="#f3f4f6" stroke-width="1"/>
<text x="707.14" y="492" font-size="12" text-anchor="middle" fill="#555555">37</text>
<line x1="724.29" y1="60" x2="724.29" y2="470" stroke="#f3f4f6" stroke-width="1"/>
<text x="724.29" y="492" font-size="12" text-anchor="middle" fill="#555555">38</text>
<line x1="741.43" y1="60" x2="741.43" y2="470" stroke="#f3f4f6" stroke-width="1"/>
<text x="741.43" y="492" font-size="12" text-anchor="middle" fill="#555555">39</text>
<line x1="758.57" y1="60" x2="758.57" y2="470" stroke="#f3f4f6" stroke-width="1"/>
<text x="758.57" y="492" font-size="12" text-anchor="middle" fill="#555555">40</text>
<line x1="775.71" y1="60" x2="775.71" y2="470" stroke="#f3f4f6" stroke-width="1"/>
<text x="775.71" y="492" font-size="12" text-anchor="middle" fill="#555555">41</text>
<line x1="792.86" y1="60" x2="792.86" y2="470" stroke="#f3f4f6" stroke-width="1"/>
<text x="792.86" y="492" font-size="12" text-anchor="middle" fill="#555555">42</text>
<line x1="810.00" y1="60" x2="810.00" y2="470" stroke="#f3f4f6" stroke-width="1"/>
<text x="810.00" y="492" font-size="12" text-anchor="middle" fill="#555555">43</text>
<line x1="827.14" y1="60" x2="827.14" y2="470" stroke="#f3f4f6" stroke-width="1"/>
<text x="827.14" y="492" font-size="12" text-anchor="middle" fill="#555555">44</text>
<line x1="844.29" y1="60" x2="844.29" y2="470" stroke="#f3f4f6" stroke-width="1"/>
<text x="844.29" y="492" font-size="12" text-anchor="middle" fill="#555555">45</text>
<line x1="861.43" y1="60" x2="861.43" y2="470" stroke="#f3f4f6" stroke-width="1"/>
<text x="861.43" y="492" font-size="12" text-anchor="middle" fill="#555555">46</text>
<line x1="878.57" y1="60" x2="878.57" y2="470" stroke="#f3f4f6" stroke-width="1"/>
<text x="878.57" y="492" font-size="12" text-anchor="middle" fill="#555555">47</text>
<line x1="895.71" y1="60" x2="895.71" y2="470" stroke="#f3f4f6" stroke-width="1"/>
<text x="895.71" y="492" font-size="12" text-anchor="middle" fill="#555555">48</text>
<line x1="912.86" y1="60" x2="912.86" y2="470" stroke="#f3f4f6" stroke-width="1"/>
<text x="912.86" y="492" font-size="12" text-anchor="middle" fill="#555555">49</text>
<line x1="930.00" y1="60" x2="930.00" y2="470" stroke="#f3f4f6" stroke-width="1"/>
<text x="930.00" y="492" font-size="12" text-anchor="middle" fill="#555555">50</text>
<polyline fill="none" stroke="#d97706" stroke-width="3" points="90.00,127.81 107.14,101.96 124.29,106.35 141.43,116.83 158.57,204.51 175.71,162.53 192.86,262.27 210.00,116.92 227.14,96.91 244.29,96.06 261.43,95.51 278.57,95.84 295.71,97.19 312.86,94.90 330.00,172.45 347.14,96.10 364.29,94.99 381.43,94.17 398.57,95.91 415.71,95.13 432.86,435.29 450.00,435.83 467.14,434.30 484.29,119.38 501.43,147.80 518.57,420.58 535.71,101.74 552.86,183.85 570.00,103.54 587.14,159.70 604.29,120.32 621.43,104.93 638.57,126.08 655.71,126.25 672.86,108.12 690.00,121.74 707.14,119.33 724.29,124.10 741.43,104.01 758.57,142.44 775.71,161.99 792.86,101.72 810.00,145.94 827.14,101.82 844.29,214.92 861.43,107.15 878.57,120.77 895.71,100.59 912.86,117.75 930.00,151.58"/>
<circle cx="90.00" cy="127.81" r="4.5" fill="#d97706" fill-opacity="0.9"/>
<circle cx="107.14" cy="101.96" r="4.5" fill="#d97706" fill-opacity="0.9"/>
<circle cx="124.29" cy="106.35" r="4.5" fill="#d97706" fill-opacity="0.9"/>
<circle cx="141.43" cy="116.83" r="4.5" fill="#d97706" fill-opacity="0.9"/>
<circle cx="158.57" cy="204.51" r="4.5" fill="#d97706" fill-opacity="0.9"/>
<circle cx="175.71" cy="162.53" r="4.5" fill="#d97706" fill-opacity="0.9"/>
<circle cx="192.86" cy="262.27" r="4.5" fill="#d97706" fill-opacity="0.9"/>
<circle cx="210.00" cy="116.92" r="4.5" fill="#d97706" fill-opacity="0.9"/>
<circle cx="227.14" cy="96.91" r="4.5" fill="#d97706" fill-opacity="0.9"/>
<circle cx="244.29" cy="96.06" r="4.5" fill="#d97706" fill-opacity="0.9"/>
<circle cx="261.43" cy="95.51" r="4.5" fill="#d97706" fill-opacity="0.9"/>
<circle cx="278.57" cy="95.84" r="4.5" fill="#d97706" fill-opacity="0.9"/>
<circle cx="295.71" cy="97.19" r="4.5" fill="#d97706" fill-opacity="0.9"/>
<circle cx="312.86" cy="94.90" r="4.5" fill="#d97706" fill-opacity="0.9"/>
<circle cx="330.00" cy="172.45" r="4.5" fill="#d97706" fill-opacity="0.9"/>
<circle cx="347.14" cy="96.10" r="4.5" fill="#d97706" fill-opacity="0.9"/>
<circle cx="364.29" cy="94.99" r="4.5" fill="#d97706" fill-opacity="0.9"/>
<circle cx="381.43" cy="94.17" r="4.5" fill="#d97706" fill-opacity="0.9"/>
<circle cx="398.57" cy="95.91" r="4.5" fill="#d97706" fill-opacity="0.9"/>
<circle cx="415.71" cy="95.13" r="4.5" fill="#d97706" fill-opacity="0.9"/>
<circle cx="432.86" cy="435.29" r="4.5" fill="#d97706" fill-opacity="0.9"/>
<circle cx="450.00" cy="435.83" r="4.5" fill="#d97706" fill-opacity="0.9"/>
<circle cx="467.14" cy="434.30" r="4.5" fill="#d97706" fill-opacity="0.9"/>
<circle cx="484.29" cy="119.38" r="4.5" fill="#d97706" fill-opacity="0.9"/>
<circle cx="501.43" cy="147.80" r="4.5" fill="#d97706" fill-opacity="0.9"/>
<circle cx="518.57" cy="420.58" r="4.5" fill="#d97706" fill-opacity="0.9"/>
<circle cx="535.71" cy="101.74" r="4.5" fill="#d97706" fill-opacity="0.9"/>
<circle cx="552.86" cy="183.85" r="4.5" fill="#d97706" fill-opacity="0.9"/>
<circle cx="570.00" cy="103.54" r="4.5" fill="#d97706" fill-opacity="0.9"/>
<circle cx="587.14" cy="159.70" r="4.5" fill="#d97706" fill-opacity="0.9"/>
<circle cx="604.29" cy="120.32" r="4.5" fill="#d97706" fill-opacity="0.9"/>
<circle cx="621.43" cy="104.93" r="4.5" fill="#d97706" fill-opacity="0.9"/>
<circle cx="638.57" cy="126.08" r="4.5" fill="#d97706" fill-opacity="0.9"/>
<circle cx="655.71" cy="126.25" r="4.5" fill="#d97706" fill-opacity="0.9"/>
<circle cx="672.86" cy="108.12" r="4.5" fill="#d97706" fill-opacity="0.9"/>
<circle cx="690.00" cy="121.74" r="4.5" fill="#d97706" fill-opacity="0.9"/>
<circle cx="707.14" cy="119.33" r="4.5" fill="#d97706" fill-opacity="0.9"/>
<circle cx="724.29" cy="124.10" r="4.5" fill="#d97706" fill-opacity="0.9"/>
<circle cx="741.43" cy="104.01" r="4.5" fill="#d97706" fill-opacity="0.9"/>
<circle cx="758.57" cy="142.44" r="4.5" fill="#d97706" fill-opacity="0.9"/>
<circle cx="775.71" cy="161.99" r="4.5" fill="#d97706" fill-opacity="0.9"/>
<circle cx="792.86" cy="101.72" r="4.5" fill="#d97706" fill-opacity="0.9"/>
<circle cx="810.00" cy="145.94" r="4.5" fill="#d97706" fill-opacity="0.9"/>
<circle cx="827.14" cy="101.82" r="4.5" fill="#d97706" fill-opacity="0.9"/>
<circle cx="844.29" cy="214.92" r="4.5" fill="#d97706" fill-opacity="0.9"/>
<circle cx="861.43" cy="107.15" r="4.5" fill="#d97706" fill-opacity="0.9"/>
<circle cx="878.57" cy="120.77" r="4.5" fill="#d97706" fill-opacity="0.9"/>
<circle cx="895.71" cy="100.59" r="4.5" fill="#d97706" fill-opacity="0.9"/>
<circle cx="912.86" cy="117.75" r="4.5" fill="#d97706" fill-opacity="0.9"/>
<circle cx="930.00" cy="151.58" r="4.5" fill="#d97706" fill-opacity="0.9"/>
<rect x="90" y="32" width="18" height="6" fill="#d97706"/>
<text x="114" y="38" font-size="13" fill="#333333">val</text>
<polyline fill="none" stroke="#059669" stroke-width="3" points="90.00,127.92 107.14,102.95 124.29,106.84 141.43,117.35 158.57,206.80 175.71,163.43 192.86,262.89 210.00,117.66 227.14,97.59 244.29,95.89 261.43,95.77 278.57,96.36 295.71,97.47 312.86,94.99 330.00,176.15 347.14,96.72 364.29,94.97 381.43,94.76 398.57,96.74 415.71,95.70 432.86,435.76 450.00,435.67 467.14,433.87 484.29,119.97 501.43,148.84 518.57,420.70 535.71,102.50 552.86,185.05 570.00,103.80 587.14,159.70 604.29,123.27 621.43,105.00 638.57,128.59 655.71,124.95 672.86,109.46 690.00,122.75 707.14,119.19 724.29,125.49 741.43,103.47 758.57,141.85 775.71,161.94 792.86,102.12 810.00,146.34 827.14,102.33 844.29,214.96 861.43,108.92 878.57,121.88 895.71,101.48 912.86,119.87 930.00,154.58"/>
<circle cx="90.00" cy="127.92" r="4.5" fill="#059669" fill-opacity="0.9"/>
<circle cx="107.14" cy="102.95" r="4.5" fill="#059669" fill-opacity="0.9"/>
<circle cx="124.29" cy="106.84" r="4.5" fill="#059669" fill-opacity="0.9"/>
<circle cx="141.43" cy="117.35" r="4.5" fill="#059669" fill-opacity="0.9"/>
<circle cx="158.57" cy="206.80" r="4.5" fill="#059669" fill-opacity="0.9"/>
<circle cx="175.71" cy="163.43" r="4.5" fill="#059669" fill-opacity="0.9"/>
<circle cx="192.86" cy="262.89" r="4.5" fill="#059669" fill-opacity="0.9"/>
<circle cx="210.00" cy="117.66" r="4.5" fill="#059669" fill-opacity="0.9"/>
<circle cx="227.14" cy="97.59" r="4.5" fill="#059669" fill-opacity="0.9"/>
<circle cx="244.29" cy="95.89" r="4.5" fill="#059669" fill-opacity="0.9"/>
<circle cx="261.43" cy="95.77" r="4.5" fill="#059669" fill-opacity="0.9"/>
<circle cx="278.57" cy="96.36" r="4.5" fill="#059669" fill-opacity="0.9"/>
<circle cx="295.71" cy="97.47" r="4.5" fill="#059669" fill-opacity="0.9"/>
<circle cx="312.86" cy="94.99" r="4.5" fill="#059669" fill-opacity="0.9"/>
<circle cx="330.00" cy="176.15" r="4.5" fill="#059669" fill-opacity="0.9"/>
<circle cx="347.14" cy="96.72" r="4.5" fill="#059669" fill-opacity="0.9"/>
<circle cx="364.29" cy="94.97" r="4.5" fill="#059669" fill-opacity="0.9"/>
<circle cx="381.43" cy="94.76" r="4.5" fill="#059669" fill-opacity="0.9"/>
<circle cx="398.57" cy="96.74" r="4.5" fill="#059669" fill-opacity="0.9"/>
<circle cx="415.71" cy="95.70" r="4.5" fill="#059669" fill-opacity="0.9"/>
<circle cx="432.86" cy="435.76" r="4.5" fill="#059669" fill-opacity="0.9"/>
<circle cx="450.00" cy="435.67" r="4.5" fill="#059669" fill-opacity="0.9"/>
<circle cx="467.14" cy="433.87" r="4.5" fill="#059669" fill-opacity="0.9"/>
<circle cx="484.29" cy="119.97" r="4.5" fill="#059669" fill-opacity="0.9"/>
<circle cx="501.43" cy="148.84" r="4.5" fill="#059669" fill-opacity="0.9"/>
<circle cx="518.57" cy="420.70" r="4.5" fill="#059669" fill-opacity="0.9"/>
<circle cx="535.71" cy="102.50" r="4.5" fill="#059669" fill-opacity="0.9"/>
<circle cx="552.86" cy="185.05" r="4.5" fill="#059669" fill-opacity="0.9"/>
<circle cx="570.00" cy="103.80" r="4.5" fill="#059669" fill-opacity="0.9"/>
<circle cx="587.14" cy="159.70" r="4.5" fill="#059669" fill-opacity="0.9"/>
<circle cx="604.29" cy="123.27" r="4.5" fill="#059669" fill-opacity="0.9"/>
<circle cx="621.43" cy="105.00" r="4.5" fill="#059669" fill-opacity="0.9"/>
<circle cx="638.57" cy="128.59" r="4.5" fill="#059669" fill-opacity="0.9"/>
<circle cx="655.71" cy="124.95" r="4.5" fill="#059669" fill-opacity="0.9"/>
<circle cx="672.86" cy="109.46" r="4.5" fill="#059669" fill-opacity="0.9"/>
<circle cx="690.00" cy="122.75" r="4.5" fill="#059669" fill-opacity="0.9"/>
<circle cx="707.14" cy="119.19" r="4.5" fill="#059669" fill-opacity="0.9"/>
<circle cx="724.29" cy="125.49" r="4.5" fill="#059669" fill-opacity="0.9"/>
<circle cx="741.43" cy="103.47" r="4.5" fill="#059669" fill-opacity="0.9"/>
<circle cx="758.57" cy="141.85" r="4.5" fill="#059669" fill-opacity="0.9"/>
<circle cx="775.71" cy="161.94" r="4.5" fill="#059669" fill-opacity="0.9"/>
<circle cx="792.86" cy="102.12" r="4.5" fill="#059669" fill-opacity="0.9"/>
<circle cx="810.00" cy="146.34" r="4.5" fill="#059669" fill-opacity="0.9"/>
<circle cx="827.14" cy="102.33" r="4.5" fill="#059669" fill-opacity="0.9"/>
<circle cx="844.29" cy="214.96" r="4.5" fill="#059669" fill-opacity="0.9"/>
<circle cx="861.43" cy="108.92" r="4.5" fill="#059669" fill-opacity="0.9"/>
<circle cx="878.57" cy="121.88" r="4.5" fill="#059669" fill-opacity="0.9"/>
<circle cx="895.71" cy="101.48" r="4.5" fill="#059669" fill-opacity="0.9"/>
<circle cx="912.86" cy="119.87" r="4.5" fill="#059669" fill-opacity="0.9"/>
<circle cx="930.00" cy="154.58" r="4.5" fill="#059669" fill-opacity="0.9"/>
<rect x="270" y="32" width="18" height="6" fill="#059669"/>
<text x="294" y="38" font-size="13" fill="#333333">test</text>
</svg>