<svg xmlns="http://www.w3.org/2000/svg" width="960" height="540">
<rect width="100%" height="100%" fill="#ffffff"/>
<text x="480.0" y="30" font-size="22" text-anchor="middle" fill="#111111">Position 1 Accuracy</text>
<text x="20" y="270.0" font-size="16" transform="rotate(-90 20,270.0)" text-anchor="middle" fill="#333333">Accuracy</text>
<text x="480.0" y="520" font-size="16" text-anchor="middle" fill="#333333">Epoch</text>
<line x1="90" y1="60" x2="90" y2="470" stroke="#333333" stroke-width="2"/>
<line x1="90" y1="470" x2="930" y2="470" stroke="#333333" stroke-width="2"/>
<line x1="90" y1="470.00" x2="930" y2="470.00" stroke="#e5e7eb" stroke-width="1"/>
<text x="80" y="475.00" font-size="12" text-anchor="end" fill="#555555">-0.0699</text>
<line x1="90" y1="367.50" x2="930" y2="367.50" stroke="#e5e7eb" stroke-width="1"/>
<text x="80" y="372.50" font-size="12" text-anchor="end" fill="#555555">0.2196</text>
<line x1="90" y1="265.00" x2="930" y2="265.00" stroke="#e5e7eb" stroke-width="1"/>
<text x="80" y="270.00" font-size="12" text-anchor="end" fill="#555555">0.5091</text>
<line x1="90" y1="162.50" x2="930" y2="162.50" stroke="#e5e7eb" stroke-width="1"/>
<text x="80" y="167.50" font-size="12" text-anchor="end" fill="#555555">0.7987</text>
<line x1="90" y1="60.00" x2="930" y2="60.00" stroke="#e5e7eb" stroke-width="1"/>
<text x="80" y="65.00" font-size="12" text-anchor="end" fill="#555555">1.0882</text>
<line x1="90.00" y1="60" x2="90.00" y2="470" stroke="#f3f4f6" stroke-width="1"/>
<text x="90.00" y="492" font-size="12" text-anchor="middle" fill="#555555">1</text>
<line x1="107.14" y1="60" x2="107.14" y2="470" stroke="#f3f4f6" stroke-width="1"/>
<text x="107.14" y="492" font-size="12" text-anchor="middle" fill="#555555">2</text>
<line x1="124.29" y1="60" x2="124.29" y2="470" stroke="#f3f4f6" stroke-width="1"/>
<text x="124.29" y="492" font-size="12" text-anchor="middle" fill="#555555">3</text>
<line x1="141.43" y1="60" x2="141.43" y2="470" stroke="#f3f4f6" stroke-width="1"/>
<text x="141.43" y="492" font-size="12" text-anchor="middle" fill="#555555">4</text>
<line x1="158.57" y1="60" x2="158.57" y2="470" stroke="#f3f4f6" stroke-width="1"/>
<text x="158.57" y="492" font-size="12" text-anchor="middle" fill="#555555">5</text>
<line x1="175.71" y1="60" x2="175.71" y2="470" stroke="#f3f4f6" stroke-width="1"/>
<text x="175.71" y="492" font-size="12" text-anchor="middle" fill="#555555">6</text>
<line x1="192.86" y1="60" x2="192.86" y2="470" stroke="#f3f4f6" stroke-width="1"/>
<text x="192.86" y="492" font-size="12" text-anchor="middle" fill="#555555">7</text>
<line x1="210.00" y1="60" x2="210.00" y2="470" stroke="#f3f4f6" stroke-width="1"/>
<text x="210.00" y="492" font-size="12" text-anchor="middle" fill="#555555">8</text>
<line x1="227.14" y1="60" x2="227.14" y2="470" stroke="#f3f4f6" stroke-width="1"/>
<text x="227.14" y="492" font-size="12" text-anchor="middle" fill="#555555">9</text>
<line x1="244.29" y1="60" x2="244.29" y2="470" stroke="#f3f4f6" stroke-width="1"/>
<text x="244.29" y="492" font-size="12" text-anchor="middle" fill="#555555">10</text>
<line x1="261.43" y1="60" x2="261.43" y2="470" stroke="#f3f4f6" stroke-width="1"/>
<text x="261.43" y="492" font-size="12" text-anchor="middle" fill="#555555">11</text>
<line x1="278.57" y1="60" x2="278.57" y2="470" stroke="#f3f4f6" stroke-width="1"/>
<text x="278.57" y="492" font-size="12" text-anchor="middle" fill="#555555">12</text>
<line x1="295.71" y1="60" x2="295.71" y2="470" stroke="#f3f4f6" stroke-width="1"/>
<text x="295.71" y="492" font-size="12" text-anchor="middle" fill="#555555">13</text>
<line x1="312.86" y1="60" x2="312.86" y2="470" stroke="#f3f4f6" stroke-width="1"/>
<text x="312.86" y="492" font-size="12" text-anchor="middle" fill="#555555">14</text>
<line x1="330.00" y1="60" x2="330.00" y2="470" stroke="#f3f4f6" stroke-width="1"/>
<text x="330.00" y="492" font-size="12" text-anchor="middle" fill="#555555">15</text>
<line x1="347.14" y1="60" x2="347.14" y2="470" stroke="#f3f4f6" stroke-width="1"/>
<text x="347.14" y="492" font-size="12" text-anchor="middle" fill="#555555">16</text>
<line x1="364.29" y1="60" x2="364.29" y2="470" stroke="#f3f4f6" stroke-width="1"/>
<text x="364.29" y="492" font-size="12" text-anchor="middle" fill="#555555">17</text>
<line x1="381.43" y1="60" x2="381.43" y2="470" stroke="#f3f4f6" stroke-width="1"/>
<text x="381.43" y="492" font-size="12" text-anchor="middle" fill="#555555">18</text>
<line x1="398.57" y1="60" x2="398.57" y2="470" stroke="#f3f4f6" stroke-width="1"/>
<text x="398.57" y="492" font-size="12" text-anchor="middle" fill="#555555">19</text>
<line x1="415.71" y1="60" x2="415.71" y2="470" stroke="#f3f4f6" stroke-width="1"/>
<text x="415.71" y="492" font-size="12" text-anchor="middle" fill="#555555">20</text>
<line x1="432.86" y1="60" x2="432.86" y2="470" stroke="#f3f4f6" stroke-width="1"/>
<text x="432.86" y="492" font-size="12" text-anchor="middle" fill="#555555">21</text>
<line x1="450.00" y1="60" x2="450.00" y2="470" stroke="#f3f4f6" stroke-width="1"/>
<text x="450.00" y="492" font-size="12" text-anchor="middle" fill="#555555">22</text>
<line x1="467.14" y1="60" x2="467.14" y2="470" stroke="#f3f4f6" stroke-width="1"/>
<text x="467.14" y="492" font-size="12" text-anchor="middle" fill="#555555">23</text>
<line x1="484.29" y1="60" x2="484.29" y2="470" stroke="#f3f4f6" stroke-width="1"/>
<text x="484.29" y="492" font-size="12" text-anchor="middle" fill="#555555">24</text>
<line x1="501.43" y1="60" x2="501.43" y2="470" stroke="#f3f4f6" stroke-width="1"/>
<text x="501.43" y="492" font-size="12" text-anchor="middle" fill="#555555">25</text>
<line x1="518.57" y1="60" x2="518.57" y2="470" stroke="#f3f4f6" stroke-width="1"/>
<text x="518.57" y="492" font-size="12" text-anchor="middle" fill="#555555">26</text>
<line x1="535.71" y1="60" x2="535.71" y2="470" stroke="#f3f4f6" stroke-width="1"/>
<text x="535.71" y="492" font-size="12" text-anchor="middle" fill="#555555">27</text>
<line x1="552.86" y1="60" x2="552.86" y2="470" stroke="#f3f4f6" stroke-width="1"/>
<text x="552.86" y="492" font-size="12" text-anchor="middle" fill="#555555">28</text>
<line x1="570.00" y1="60" x2="570.00" y2="470" stroke="#f3f4f6" stroke-width="1"/>
<text x="570.00" y="492" font-size="12" text-anchor="middle" fill="#555555">29</text>
<line x1="587.14" y1="60" x2="587.14" y2="470" stroke="#f3f4f6" stroke-width="1"/>
<text x="587.14" y="492" font-size="12" text-anchor="middle" fill="#555555">30</text>
<line x1="604.29" y1="60" x2="604.29" y2="470" stroke="#f3f4f6" stroke-width="1"/>
<text x="604.29" y="492" font-size="12" text-anchor="middle" fill="#555555">31</text>
<line x1="621.43" y1="60" x2="621.43" y2="470" stroke="#f3f4f6" stroke-width="1"/>
<text x="621.43" y="492" font-size="12" text-anchor="middle" fill="#555555">32</text>
<line x1="638.57" y1="60" x2="638.57" y2="470" stroke="#f3f4f6" stroke-width="1"/>
<text x="638.57" y="492" font-size="12" text-anchor="middle" fill="#555555">33</text>
<line x1="655.71" y1="60" x2="655.71" y2="470" stroke="#f3f4f6" stroke-width="1"/>
<text x="655.71" y="492" font-size="12" text-anchor="middle" fill="#555555">34</text>
<line x1="672.86" y1="60" x2="672.86" y2="470" stroke="#f3f4f6" stroke-width="1"/>
<text x="672.86" y="492" font-size="12" text-anchor="middle" fill="#555555">35</text>
<line x1="690.00" y1="60" x2="690.00" y2="470" stroke="#f3f4f6" stroke-width="1"/>
<text x="690.00" y="492" font-size="12" text-anchor="middle" fill="#555555">36</text>
<line x1="707.14" y1="60" x2="707.14" y2="470" stroke="#f3f4f6" stroke-width="1"/>
<text x="707.14" y="492" font-size="12" text-anchor="middle" fill="#555555">37</text>
<line x1="724.29" y1="60" x2="724.29" y2="470" stroke="#f3f4f6" stroke-width="1"/>
<text x="724.29" y="492" font-size="12" text-anchor="middle" fill="#555555">38</text>
<line x1="741.43" y1="60" x2="741.43" y2="470" stroke="#f3f4f6" stroke-width="1"/>
<text x="741.43" y="492" font-size="12" text-anchor="middle" fill="#555555">39</text>
<line x1="758.57" y1="60" x2="758.57" y2="470" stroke="#f3f4f6" stroke-width="1"/>
<text x="758.57" y="492" font-size="12" text-anchor="middle" fill="#555555">40</text>
<line x1="775.71" y1="60" x2="775.71" y2="470" stroke="#f3f4f6" stroke-width="1"/>
<text x="775.71" y="492" font-size="12" text-anchor="middle" fill="#555555">41</text>
<line x1="792.86" y1="60" x2="792.86" y2="470" stroke="#f3f4f6" stroke-width="1"/>
<text x="792.86" y="492" font-size="12" text-anchor="middle" fill="#555555">42</text>
<line x1="810.00" y1="60" x2="810.00" y2="470" stroke="#f3f4f6" stroke-width="1"/>
<text x="810.00" y="492" font-size="12" text-anchor="middle" fill="#555555">43</text>
<line x1="827.14" y1="60" x2="827.14" y2="470" stroke="#f3f4f6" stroke-width="1"/>
<text x="827.14" y="492" font-size="12" text-anchor="middle" fill="#555555">44</text>
<line x1="844.29" y1="60" x2="844.29" y2="470" stroke="#f3f4f6" stroke-width="1"/>
<text x="844.29" y="492" font-size="12" text-anchor="middle" fill="#555555">45</text>
<line x1="861.43" y1="60" x2="861.43" y2="470" stroke="#f3f4f6" stroke-width="1"/>
<text x="861.43" y="492" font-size="12" text-anchor="middle" fill="#555555">46</text>
<line x1="878.57" y1="60" x2="878.57" y2="470" stroke="#f3f4f6" stroke-width="1"/>
<text x="878.57" y="492" font-size="12" text-anchor="middle" fill="#555555">47</text>
<line x1="895.71" y1="60" x2="895.71" y2="470" stroke="#f3f4f6" stroke-width="1"/>
<text x="895.71" y="492" font-size="12" text-anchor="middle" fill="#555555">48</text>
<line x1="912.86" y1="60" x2="912.86" y2="470" stroke="#f3f4f6" stroke-width="1"/>
<text x="912.86" y="492" font-size="12" text-anchor="middle" fill="#555555">49</text>
<line x1="930.00" y1="60" x2="930.00" y2="470" stroke="#f3f4f6" stroke-width="1"/>
<text x="930.00" y="492" font-size="12" text-anchor="middle" fill="#555555">50</text>
<polyline fill="none" stroke="#d97706" stroke-width="3" points="90.00,132.17 107.14,100.11 124.29,108.54 141.43,119.28 158.57,202.41 175.71,148.95 192.86,281.76 210.00,114.80 227.14,98.79 244.29,95.72 261.43,95.25 278.57,97.38 295.71,98.86 312.86,94.38 330.00,129.33 347.14,95.13 364.29,95.06 381.43,95.46 398.57,95.89 415.71,95.42 432.86,435.72 450.00,435.48 467.14,435.27 484.29,119.11 501.43,135.00 518.57,396.30 535.71,101.62 552.86,169.91 570.00,102.14 587.14,171.18 604.29,144.84 621.43,109.34 638.57,137.48 655.71,114.46 672.86,428.47 690.00,116.40 707.14,118.55 724.29,124.54 741.43,98.56 758.57,134.60 775.71,200.49 792.86,101.79 810.00,168.35 827.14,102.76 844.29,176.04 861.43,127.00 878.57,123.69 895.71,102.10 912.86,108.16 930.00,147.89"/>
<circle cx="90.00" cy="132.17" r="4.5" fill="#d97706" fill-opacity="0.9"/>
<circle cx="107.14" cy="100.11" r="4.5" fill="#d97706" fill-opacity="0.9"/>
<circle cx="124.29" cy="108.54" r="4.5" fill="#d97706" fill-opacity="0.9"/>
<circle cx="141.43" cy="119.28" r="4.5" fill="#d97706" fill-opacity="0.9"/>
<circle cx="158.57" cy="202.41" r="4.5" fill="#d97706" fill-opacity="0.9"/>
<circle cx="175.71" cy="148.95" r="4.5" fill="#d97706" fill-opacity="0.9"/>
<circle cx="192.86" cy="281.76" r="4.5" fill="#d97706" fill-opacity="0.9"/>
<circle cx="210.00" cy="114.80" r="4.5" fill="#d97706" fill-opacity="0.9"/>
<circle cx="227.14" cy="98.79" r="4.5" fill="#d97706" fill-opacity="0.9"/>
<circle cx="244.29" cy="95.72" r="4.5" fill="#d97706" fill-opacity="0.9"/>
<circle cx="261.43" cy="95.25" r="4.5" fill="#d97706" fill-opacity="0.9"/>
<circle cx="278.57" cy="97.38" r="4.5" fill="#d97706" fill-opacity="0.9"/>
<circle cx="295.71" cy="98.86" r="4.5" fill="#d97706" fill-opacity="0.9"/>
<circle cx="312.86" cy="94.38" r="4.5" fill="#d97706" fill-opacity="0.9"/>
<circle cx="330.00" cy="129.33" r="4.5" fill="#d97706" fill-opacity="0.9"/>
<circle cx="347.14" cy="95.13" r="4.5" fill="#d97706" fill-opacity="0.9"/>
<circle cx="364.29" cy="95.06" r="4.5" fill="#d97706" fill-opacity="0.9"/>
<circle cx="381.43" cy="95.46" r="4.5" fill="#d97706" fill-opacity="0.9"/>
<circle cx="398.57" cy="95.89" r="4.5" fill="#d97706" fill-opacity="0.9"/>
<circle cx="415.71" cy="95.42" r="4.5" fill="#d97706" fill-opacity="0.9"/>
<circle cx="432.86" cy="435.72" r="4.5" fill="#d97706" fill-opacity="0.9"/>
<circle cx="450.00" cy="435.48" r="4.5" fill="#d97706" fill-opacity="0.9"/>
<circle cx="467.14" cy="435.27" r="4.5" fill="#d97706" fill-opacity="0.9"/>
<circle cx="484.29" cy="119.11" r="4.5" fill="#d97706" fill-opacity="0.9"/>
<circle cx="501.43" cy="135.00" r="4.5" fill="#d97706" fill-opacity="0.9"/>
<circle cx="518.57" cy="396.30" r="4.5" fill="#d97706" fill-opacity="0.9"/>
<circle cx="535.71" cy="101.62" r="4.5" fill="#d97706" fill-opacity="0.9"/>
<circle cx="552.86" cy="169.91" r="4.5" fill="#d97706" fill-opacity="0.9"/>
<circle cx="570.00" cy="102.14" r="4.5" fill="#d97706" fill-opacity="0.9"/>
<circle cx="587.14" cy="171.18" r="4.5" fill="#d97706" fill-opacity="0.9"/>
<circle cx="604.29" cy="144.84" r="4.5" fill="#d97706" fill-opacity="0.9"/>
<circle cx="621.43" cy="109.34" r="4.5" fill="#d97706" fill-opacity="0.9"/>
<circle cx="638.57" cy="137.48" r="4.5" fill="#d97706" fill-opacity="0.9"/>
<circle cx="655.71" cy="114.46" r="4.5" fill="#d97706" fill-opacity="0.9"/>
<circle cx="672.86" cy="428.47" r="4.5" fill="#d97706" fill-opacity="0.9"/>
<circle cx="690.00" cy="116.40" r="4.5" fill="#d97706" fill-opacity="0.9"/>
<circle cx="707.14" cy="118.55" r="4.5" fill="#d97706" fill-opacity="0.9"/>
<circle cx="724.29" cy="124.54" r="4.5" fill="#d97706" fill-opacity="0.9"/>
<circle cx="741.43" cy="98.56" r="4.5" fill="#d97706" fill-opacity="0.9"/>
<circle cx="758.57" cy="134.60" r="4.5" fill="#d97706" fill-opacity="0.9"/>
<circle cx="775.71" cy="200.49" r="4.5" fill="#d97706" fill-opacity="0.9"/>
<circle cx="792.86" cy="101.79" r="4.5" fill="#d97706" fill-opacity="0.9"/>
<circle cx="810.00" cy="168.35" r="4.5" fill="#d97706" fill-opacity="0.9"/>
<circle cx="827.14" cy="102.76" r="4.5" fill="#d97706" fill-opacity="0.9"/>
<circle cx="844.29" cy="176.04" r="4.5" fill="#d97706" fill-opacity="0.9"/>
<circle cx="861.43" cy="127.00" r="4.5" fill="#d97706" fill-opacity="0.9"/>
<circle cx="878.57" cy="123.69" r="4.5" fill="#d97706" fill-opacity="0.9"/>
<circle cx="895.71" cy="102.10" r="4.5" fill="#d97706" fill-opacity="0.9"/>
<circle cx="912.86" cy="108.16" r="4.5" fill="#d97706" fill-opacity="0.9"/>
<circle cx="930.00" cy="147.89" r="4.5" fill="#d97706" fill-opacity="0.9"/>
<rect x="90" y="32" width="18" height="6" fill="#d97706"/>
<text x="114" y="38" font-size="13" fill="#333333">val</text>
<polyline fill="none" stroke="#059669" stroke-width="3" points="90.00,132.19 107.14,99.52 124.29,108.49 141.43,118.88 158.57,200.21 175.71,147.65 192.86,283.03 210.00,113.54 227.14,99.01 244.29,95.23 261.43,94.90 278.57,96.50 295.71,98.32 312.86,94.17 330.00,128.37 347.14,95.02 364.29,94.83 381.43,95.63 398.57,95.89 415.71,94.54 432.86,435.83 450.00,434.79 467.14,434.20 484.29,117.96 501.43,134.76 518.57,394.41 535.71,101.29 552.86,169.93 570.00,102.45 587.14,170.00 604.29,145.48 621.43,109.08 638.57,136.86 655.71,116.12 672.86,429.81 690.00,116.28 707.14,117.63 724.29,125.44 741.43,98.16 758.57,134.46 775.71,197.78 792.86,101.01 810.00,167.33 827.14,102.29 844.29,174.41 861.43,126.74 878.57,124.21 895.71,102.43 912.86,108.59 930.00,148.59"/>
<circle cx="90.00" cy="132.19" r="4.5" fill="#059669" fill-opacity="0.9"/>
<circle cx="107.14" cy="99.52" r="4.5" fill="#059669" fill-opacity="0.9"/>
<circle cx="124.29" cy="108.49" r="4.5" fill="#059669" fill-opacity="0.9"/>
<circle cx="141.43" cy="118.88" r="4.5" fill="#059669" fill-opacity="0.9"/>
<circle cx="158.57" cy="200.21" r="4.5" fill="#059669" fill-opacity="0.9"/>
<circle cx="175.71" cy="147.65" r="4.5" fill="#059669" fill-opacity="0.9"/>
<circle cx="192.86" cy="283.03" r="4.5" fill="#059669" fill-opacity="0.9"/>
<circle cx="210.00" cy="113.54" r="4.5" fill="#059669" fill-opacity="0.9"/>
<circle cx="227.14" cy="99.01" r="4.5" fill="#059669" fill-opacity="0.9"/>
<circle cx="244.29" cy="95.23" r="4.5" fill="#059669" fill-opacity="0.9"/>
<circle cx="261.43" cy="94.90" r="4.5" fill="#059669" fill-opacity="0.9"/>
<circle cx="278.57" cy="96.50" r="4.5" fill="#059669" fill-opacity="0.9"/>
<circle cx="295.71" cy="98.32" r="4.5" fill="#059669" fill-opacity="0.9"/>
<circle cx="312.86" cy="94.17" r="4.5" fill="#059669" fill-opacity="0.9"/>
<circle cx="330.00" cy="128.37" r="4.5" fill="#059669" fill-opacity="0.9"/>
<circle cx="347.14" cy="95.02" r="4.5" fill="#059669" fill-opacity="0.9"/>
<circle cx="364.29" cy="94.83" r="4.5" fill="#059669" fill-opacity="0.9"/>
<circle cx="381.43" cy="95.63" r="4.5" fill="#059669" fill-opacity="0.9"/>
<circle cx="398.57" cy="95.89" r="4.5" fill="#059669" fill-opacity="0.9"/>
<circle cx="415.71" cy="94.54" r="4.5" fill="#059669" fill-opacity="0.9"/>
<circle cx="432.86" cy="435.83" r="4.5" fill="#059669" fill-opacity="0.9"/>
<circle cx="450.00" cy="434.79" r="4.5" fill="#059669" fill-opacity="0.9"/>
<circle cx="467.14" cy="434.20" r="4.5" fill="#059669" fill-opacity="0.9"/>
<circle cx="484.29" cy="117.96" r="4.5" fill="#059669" fill-opacity="0.9"/>
<circle cx="501.43" cy="134.76" r="4.5" fill="#059669" fill-opacity="0.9"/>
<circle cx="518.57" cy="394.41" r="4.5" fill="#059669" fill-opacity="0.9"/>
<circle cx="535.71" cy="101.29" r="4.5" fill="#059669" fill-opacity="0.9"/>
<circle cx="552.86" cy="169.93" r="4.5" fill="#059669" fill-opacity="0.9"/>
<circle cx="570.00" cy="102.45" r="4.5" fill="#059669" fill-opacity="0.9"/>
<circle cx="587.14" cy="170.00" r="4.5" fill="#059669" fill-opacity="0.9"/>
<circle cx="604.29" cy="145.48" r="4.5" fill="#059669" fill-opacity="0.9"/>
<circle cx="621.43" cy="109.08" r="4.5" fill="#059669" fill-opacity="0.9"/>
<circle cx="638.57" cy="136.86" r="4.5" fill="#059669" fill-opacity="0.9"/>
<circle cx="655.71" cy="116.12" r="4.5" fill="#059669" fill-opacity="0.9"/>
<circle cx="672.86" cy="429.81" r="4.5" fill="#059669" fill-opacity="0.9"/>
<circle cx="690.00" cy="116.28" r="4.5" fill="#059669" fill-opacity="0.9"/>
<circle cx="707.14" cy="117.63" r="4.5" fill="#059669" fill-opacity="0.9"/>
<circle cx="724.29" cy="125.44" r="4.5" fill="#059669" fill-opacity="0.9"/>
<circle cx="741.43" cy="98.16" r="4.5" fill="#059669" fill-opacity="0.9"/>
<circle cx="758.57" cy="134.46" r="4.5" fill="#059669" fill-opacity="0.9"/>
<circle cx="775.71" cy="197.78" r="4.5" fill="#059669" fill-opacity="0.9"/>
<circle cx="792.86" cy="101.01" r="4.5" fill="#059669" fill-opacity="0.9"/>
<circle cx="810.00" cy="167.33" r="4.5" fill="#059669" fill-opacity="0.9"/>
<circle cx="827.14" cy="102.29" r="4.5" fill="#059669" fill-opacity="0.9"/>
<circle cx="844.29" cy="174.41" r="4.5" fill="#059669" fill-opacity="0.9"/>
<circle cx="861.43" cy="126.74" r="4.5" fill="#059669" fill-opacity="0.9"/>
<circle cx="878.57" cy="124.21" r="4.5" fill="#059669" fill-opacity="0.9"/>
<circle cx="895.71" cy="102.43" r="4.5" fill="#059669" fill-opacity="0.9"/>
<circle cx="912.86" cy="108.59" r="4.5" fill="#059669" fill-opacity="0.9"/>
<circle cx="930.00" cy="148.59" r="4.5" fill="#059669" fill-opacity="0.9"/>
<rect x="270" y="32" width="18" height="6" fill="#059669"/>
<text x="294" y="38" font-size="13" fill="#333333">test</text>
</svg>