<svg xmlns="http://www.w3.org/2000/svg" width="960" height="540">
<rect width="100%" height="100%" fill="#ffffff"/>
<text x="480.0" y="30" font-size="22" text-anchor="middle" fill="#111111">Position 2 Accuracy</text>
<text x="20" y="270.0" font-size="16" transform="rotate(-90 20,270.0)" text-anchor="middle" fill="#333333">Accuracy</text>
<text x="480.0" y="520" font-size="16" text-anchor="middle" fill="#333333">Epoch</text>
<line x1="90" y1="60" x2="90" y2="470" stroke="#333333" stroke-width="2"/>
<line x1="90" y1="470" x2="930" y2="470" stroke="#333333" stroke-width="2"/>
<line x1="90" y1="470.00" x2="930" y2="470.00" stroke="#e5e7eb" stroke-width="1"/>
<text x="80" y="475.00" font-size="12" text-anchor="end" fill="#555555">-0.0666</text>
<line x1="90" y1="367.50" x2="930" y2="367.50" stroke="#e5e7eb" stroke-width="1"/>
<text x="80" y="372.50" font-size="12" text-anchor="end" fill="#555555">0.2204</text>
<line x1="90" y1="265.00" x2="930" y2="265.00" stroke="#e5e7eb" stroke-width="1"/>
<text x="80" y="270.00" font-size="12" text-anchor="end" fill="#555555">0.5074</text>
<line x1="90" y1="162.50" x2="930" y2="162.50" stroke="#e5e7eb" stroke-width="1"/>
<text x="80" y="167.50" font-size="12" text-anchor="end" fill="#555555">0.7945</text>
<line x1="90" y1="60.00" x2="930" y2="60.00" stroke="#e5e7eb" stroke-width="1"/>
<text x="80" y="65.00" font-size="12" text-anchor="end" fill="#555555">1.0815</text>
<line x1="90.00" y1="60" x2="90.00" y2="470" stroke="#f3f4f6" stroke-width="1"/>
<text x="90.00" y="492" font-size="12" text-anchor="middle" fill="#555555">1</text>
<line x1="107.14" y1="60" x2="107.14" y2="470" stroke="#f3f4f6" stroke-width="1"/>
<text x="107.14" y="492" font-size="12" text-anchor="middle" fill="#555555">2</text>
<line x1="124.29" y1="60" x2="124.29" y2="470" stroke="#f3f4f6" stroke-width="1"/>
<text x="124.29" y="492" font-size="12" text-anchor="middle" fill="#555555">3</text>
<line x1="141.43" y1="60" x2="141.43" y2="470" stroke="#f3f4f6" stroke-width="1"/>
<text x="141.43" y="492" font-size="12" text-anchor="middle" fill="#555555">4</text>
<line x1="158.57" y1="60" x2="158.57" y2="470" stroke="#f3f4f6" stroke-width="1"/>
<text x="158.57" y="492" font-size="12" text-anchor="middle" fill="#555555">5</text>
<line x1="175.71" y1="60" x2="175.71" y2="470" stroke="#f3f4f6" stroke-width="1"/>
<text x="175.71" y="492" font-size="12" text-anchor="middle" fill="#555555">6</text>
<line x1="192.86" y1="60" x2="192.86" y2="470" stroke="#f3f4f6" stroke-width="1"/>
<text x="192.86" y="492" font-size="12" text-anchor="middle" fill="#555555">7</text>
<line x1="210.00" y1="60" x2="210.00" y2="470" stroke="#f3f4f6" stroke-width="1"/>
<text x="210.00" y="492" font-size="12" text-anchor="middle" fill="#555555">8</text>
<line x1="227.14" y1="60" x2="227.14" y2="470" stroke="#f3f4f6" stroke-width="1"/>
<text x="227.14" y="492" font-size="12" text-anchor="middle" fill="#555555">9</text>
<line x1="244.29" y1="60" x2="244.29" y2="470" stroke="#f3f4f6" stroke-width="1"/>
<text x="244.29" y="492" font-size="12" text-anchor="middle" fill="#555555">10</text>
<line x1="261.43" y1="60" x2="261.43" y2="470" stroke="#f3f4f6" stroke-width="1"/>
<text x="261.43" y="492" font-size="12" text-anchor="middle" fill="#555555">11</text>
<line x1="278.57" y1="60" x2="278.57" y2="470" stroke="#f3f4f6" stroke-width="1"/>
<text x="278.57" y="492" font-size="12" text-anchor="middle" fill="#555555">12</text>
<line x1="295.71" y1="60" x2="295.71" y2="470" stroke="#f3f4f6" stroke-width="1"/>
<text x="295.71" y="492" font-size="12" text-anchor="middle" fill="#555555">13</text>
<line x1="312.86" y1="60" x2="312.86" y2="470" stroke="#f3f4f6" stroke-width="1"/>
<text x="312.86" y="492" font-size="12" text-anchor="middle" fill="#555555">14</text>
<line x1="330.00" y1="60" x2="330.00" y2="470" stroke="#f3f4f6" stroke-width="1"/>
<text x="330.00" y="492" font-size="12" text-anchor="middle" fill="#555555">15</text>
<line x1="347.14" y1="60" x2="347.14" y2="470" stroke="#f3f4f6" stroke-width="1"/>
<text x="347.14" y="492" font-size="12" text-anchor="middle" fill="#555555">16</text>
<line x1="364.29" y1="60" x2="364.29" y2="470" stroke="#f3f4f6" stroke-width="1"/>
<text x="364.29" y="492" font-size="12" text-anchor="middle" fill="#555555">17</text>
<line x1="381.43" y1="60" x2="381.43" y2="470" stroke="#f3f4f6" stroke-width="1"/>
<text x="381.43" y="492" font-size="12" text-anchor="middle" fill="#555555">18</text>
<line x1="398.57" y1="60" x2="398.57" y2="470" stroke="#f3f4f6" stroke-width="1"/>
<text x="398.57" y="492" font-size="12" text-anchor="middle" fill="#555555">19</text>
<line x1="415.71" y1="60" x2="415.71" y2="470" stroke="#f3f4f6" stroke-width="1"/>
<text x="415.71" y="492" font-size="12" text-anchor="middle" fill="#555555">20</text>
<line x1="432.86" y1="60" x2="432.86" y2="470" stroke="#f3f4f6" stroke-width="1"/>
<text x="432.86" y="492" font-size="12" text-anchor="middle" fill="#555555">21</text>
<line x1="450.00" y1="60" x2="450.00" y2="470" stroke="#f3f4f6" stroke-width="1"/>
<text x="450.00" y="492" font-size="12" text-anchor="middle" fill="#555555">22</text>
<line x1="467.14" y1="60" x2="467.14" y2="470" stroke="#f3f4f6" stroke-width="1"/>
<text x="467.14" y="492" font-size="12" text-anchor="middle" fill="#555555">23</text>
<line x1="484.29" y1="60" x2="484.29" y2="470" stroke="#f3f4f6" stroke-width="1"/>
<text x="484.29" y="492" font-size="12" text-anchor="middle" fill="#555555">24</text>
<line x1="501.43" y1="60" x2="501.43" y2="470" stroke="#f3f4f6" stroke-width="1"/>
<text x="501.43" y="492" font-size="12" text-anchor="middle" fill="#555555">25</text>
<line x1="518.57" y1="60" x2="518.57" y2="470" stroke="#f3f4f6" stroke-width="1"/>
<text x="518.57" y="492" font-size="12" text-anchor="middle" fill="#555555">26</text>
<line x1="535.71" y1="60" x2="535.71" y2="470" stroke="#f3f4f6" stroke-width="1"/>
<text x="535.71" y="492" font-size="12" text-anchor="middle" fill="#555555">27</text>
<line x1="552.86" y1="60" x2="552.86" y2="470" stroke="#f3f4f6" stroke-width="1"/>
<text x="552.86" y="492" font-size="12" text-anchor="middle" fill="#555555">28</text>
<line x1="570.00" y1="60" x2="570.00" y2="470" stroke="#f3f4f6" stroke-width="1"/>
<text x="570.00" y="492" font-size="12" text-anchor="middle" fill="#555555">29</text>
<line x1="587.14" y1="60" x2="587.14" y2="470" stroke="#f3f4f6" stroke-width="1"/>
<text x="587.14" y="492" font-size="12" text-anchor="middle" fill="#555555">30</text>
<line x1="604.29" y1="60" x2="604.29" y2="470" stroke="#f3f4f6" stroke-width="1"/>
<text x="604.29" y="492" font-size="12" text-anchor="middle" fill="#555555">31</text>
<line x1="621.43" y1="60" x2="621.43" y2="470" stroke="#f3f4f6" stroke-width="1"/>
<text x="621.43" y="492" font-size="12" text-anchor="middle" fill="#555555">32</text>
<line x1="638.57" y1="60" x2="638.57" y2="470" stroke="#f3f4f6" stroke-width="1"/>
<text x="638.57" y="492" font-size="12" text-anchor="middle" fill="#555555">33</text>
<line x1="655.71" y1="60" x2="655.71" y2="470" stroke="#f3f4f6" stroke-width="1"/>
<text x="655.71" y="492" font-size="12" text-anchor="middle" fill="#555555">34</text>
<line x1="672.86" y1="60" x2="672.86" y2="470" stroke="#f3f4f6" stroke-width="1"/>
<text x="672.86" y="492" font-size="12" text-anchor="middle" fill="#555555">35</text>
<line x1="690.00" y1="60" x2="690.00" y2="470" stroke="#f3f4f6" stroke-width="1"/>
<text x="690.00" y="492" font-size="12" text-anchor="middle" fill="#555555">36</text>
<line x1="707.14" y1="60" x2="707.14" y2="470" stroke="#f3f4f6" stroke-width="1"/>
<text x="707.14" y="492" font-size="12" text-anchor="middle" fill="#555555">37</text>
<line x1="724.29" y1="60" x2="724.29" y2="470" stroke="#f3f4f6" stroke-width="1"/>
<text x="724.29" y="492" font-size="12" text-anchor="middle" fill="#555555">38</text>
<line x1="741.43" y1="60" x2="741.43" y2="470" stroke="#f3f4f6" stroke-width="1"/>
<text x="741.43" y="492" font-size="12" text-anchor="middle" fill="#555555">39</text>
<line x1="758.57" y1="60" x2="758.57" y2="470" stroke="#f3f4f6" stroke-width="1"/>
<text x="758.57" y="492" font-size="12" text-anchor="middle" fill="#555555">40</text>
<line x1="775.71" y1="60" x2="775.71" y2="470" stroke="#f3f4f6" stroke-width="1"/>
<text x="775.71" y="492" font-size="12" text-anchor="middle" fill="#555555">41</text>
<line x1="792.86" y1="60" x2="792.86" y2="470" stroke="#f3f4f6" stroke-width="1"/>
<text x="792.86" y="492" font-size="12" text-anchor="middle" fill="#555555">42</text>
<line x1="810.00" y1="60" x2="810.00" y2="470" stroke="#f3f4f6" stroke-width="1"/>
<text x="810.00" y="492" font-size="12" text-anchor="middle" fill="#555555">43</text>
<line x1="827.14" y1="60" x2="827.14" y2="470" stroke="#f3f4f6" stroke-width="1"/>
<text x="827.14" y="492" font-size="12" text-anchor="middle" fill="#555555">44</text>
<line x1="844.29" y1="60" x2="844.29" y2="470" stroke="#f3f4f6" stroke-width="1"/>
<text x="844.29" y="492" font-size="12" text-anchor="middle" fill="#555555">45</text>
<line x1="861.43" y1="60" x2="861.43" y2="470" stroke="#f3f4f6" stroke-width="1"/>
<text x="861.43" y="492" font-size="12" text-anchor="middle" fill="#555555">46</text>
<line x1="878.57" y1="60" x2="878.57" y2="470" stroke="#f3f4f6" stroke-width="1"/>
<text x="878.57" y="492" font-size="12" text-anchor="middle" fill="#555555">47</text>
<line x1="895.71" y1="60" x2="895.71" y2="470" stroke="#f3f4f6" stroke-width="1"/>
<text x="895.71" y="492" font-size="12" text-anchor="middle" fill="#555555">48</text>
<line x1="912.86" y1="60" x2="912.86" y2="470" stroke="#f3f4f6" stroke-width="1"/>
<text x="912.86" y="492" font-size="12" text-anchor="middle" fill="#555555">49</text>
<line x1="930.00" y1="60" x2="930.00" y2="470" stroke="#f3f4f6" stroke-width="1"/>
<text x="930.00" y="492" font-size="12" text-anchor="middle" fill="#555555">50</text>
<polyline fill="none" stroke="#d97706" stroke-width="3" points="90.00,148.92 107.14,104.21 124.29,110.43 141.43,129.05 158.57,199.47 175.71,147.83 192.86,285.87 210.00,107.64 227.14,97.43 244.29,94.90 261.43,95.83 278.57,96.17 295.71,97.57 312.86,94.71 330.00,142.59 347.14,94.76 364.29,94.45 381.43,94.19 398.57,95.00 415.71,94.83 432.86,434.48 450.00,435.83 467.14,435.19 484.29,123.86 501.43,140.97 518.57,390.24 535.71,101.57 552.86,156.69 570.00,103.05 587.14,173.07 604.29,121.05 621.43,110.45 638.57,134.40 655.71,116.88 672.86,145.16 690.00,120.09 707.14,124.57 724.29,129.85 741.43,98.43 758.57,142.33 775.71,146.35 792.86,102.19 810.00,165.40 827.14,102.45 844.29,185.37 861.43,117.19 878.57,123.21 895.71,101.48 912.86,116.40 930.00,155.85"/>
<circle cx="90.00" cy="148.92" r="4.5" fill="#d97706" fill-opacity="0.9"/>
<circle cx="107.14" cy="104.21" r="4.5" fill="#d97706" fill-opacity="0.9"/>
<circle cx="124.29" cy="110.43" r="4.5" fill="#d97706" fill-opacity="0.9"/>
<circle cx="141.43" cy="129.05" r="4.5" fill="#d97706" fill-opacity="0.9"/>
<circle cx="158.57" cy="199.47" r="4.5" fill="#d97706" fill-opacity="0.9"/>
<circle cx="175.71" cy="147.83" r="4.5" fill="#d97706" fill-opacity="0.9"/>
<circle cx="192.86" cy="285.87" r="4.5" fill="#d97706" fill-opacity="0.9"/>
<circle cx="210.00" cy="107.64" r="4.5" fill="#d97706" fill-opacity="0.9"/>
<circle cx="227.14" cy="97.43" r="4.5" fill="#d97706" fill-opacity="0.9"/>
<circle cx="244.29" cy="94.90" r="4.5" fill="#d97706" fill-opacity="0.9"/>
<circle cx="261.43" cy="95.83" r="4.5" fill="#d97706" fill-opacity="0.9"/>
<circle cx="278.57" cy="96.17" r="4.5" fill="#d97706" fill-opacity="0.9"/>
<circle cx="295.71" cy="97.57" r="4.5" fill="#d97706" fill-opacity="0.9"/>
<circle cx="312.86" cy="94.71" r="4.5" fill="#d97706" fill-opacity="0.9"/>
<circle cx="330.00" cy="142.59" r="4.5" fill="#d97706" fill-opacity="0.9"/>
<circle cx="347.14" cy="94.76" r="4.5" fill="#d97706" fill-opacity="0.9"/>
<circle cx="364.29" cy="94.45" r="4.5" fill="#d97706" fill-opacity="0.9"/>
<circle cx="381.43" cy="94.19" r="4.5" fill="#d97706" fill-opacity="0.9"/>
<circle cx="398.57" cy="95.00" r="4.5" fill="#d97706" fill-opacity="0.9"/>
<circle cx="415.71" cy="94.83" r="4.5" fill="#d97706" fill-opacity="0.9"/>
<circle cx="432.86" cy="434.48" r="4.5" fill="#d97706" fill-opacity="0.9"/>
<circle cx="450.00" cy="435.83" r="4.5" fill="#d97706" fill-opacity="0.9"/>
<circle cx="467.14" cy="435.19" r="4.5" fill="#d97706" fill-opacity="0.9"/>
<circle cx="484.29" cy="123.86" r="4.5" fill="#d97706" fill-opacity="0.9"/>
<circle cx="501.43" cy="140.97" r="4.5" fill="#d97706" fill-opacity="0.9"/>
<circle cx="518.57" cy="390.24" r="4.5" fill="#d97706" fill-opacity="0.9"/>
<circle cx="535.71" cy="101.57" r="4.5" fill="#d97706" fill-opacity="0.9"/>
<circle cx="552.86" cy="156.69" r="4.5" fill="#d97706" fill-opacity="0.9"/>
<circle cx="570.00" cy="103.05" r="4.5" fill="#d97706" fill-opacity="0.9"/>
<circle cx="587.14" cy="173.07" r="4.5" fill="#d97706" fill-opacity="0.9"/>
<circle cx="604.29" cy="121.05" r="4.5" fill="#d97706" fill-opacity="0.9"/>
<circle cx="621.43" cy="110.45" r="4.5" fill="#d97706" fill-opacity="0.9"/>
<circle cx="638.57" cy="134.40" r="4.5" fill="#d97706" fill-opacity="0.9"/>
<circle cx="655.71" cy="116.88" r="4.5" fill="#d97706" fill-opacity="0.9"/>
<circle cx="672.86" cy="145.16" r="4.5" fill="#d97706" fill-opacity="0.9"/>
<circle cx="690.00" cy="120.09" r="4.5" fill="#d97706" fill-opacity="0.9"/>
<circle cx="707.14" cy="124.57" r="4.5" fill="#d97706" fill-opacity="0.9"/>
<circle cx="724.29" cy="129.85" r="4.5" fill="#d97706" fill-opacity="0.9"/>
<circle cx="741.43" cy="98.43" r="4.5" fill="#d97706" fill-opacity="0.9"/>
<circle cx="758.57" cy="142.33" r="4.5" fill="#d97706" fill-opacity="0.9"/>
<circle cx="775.71" cy="146.35" r="4.5" fill="#d97706" fill-opacity="0.9"/>
<circle cx="792.86" cy="102.19" r="4.5" fill="#d97706" fill-opacity="0.9"/>
<circle cx="810.00" cy="165.40" r="4.5" fill="#d97706" fill-opacity="0.9"/>
<circle cx="827.14" cy="102.45" r="4.5" fill="#d97706" fill-opacity="0.9"/>
<circle cx="844.29" cy="185.37" r="4.5" fill="#d97706" fill-opacity="0.9"/>
<circle cx="861.43" cy="117.19" r="4.5" fill="#d97706" fill-opacity="0.9"/>
<circle cx="878.57" cy="123.21" r="4.5" fill="#d97706" fill-opacity="0.9"/>
<circle cx="895.71" cy="101.48" r="4.5" fill="#d97706" fill-opacity="0.9"/>
<circle cx="912.86" cy="116.40" r="4.5" fill="#d97706" fill-opacity="0.9"/>
<circle cx="930.00" cy="155.85" r="4.5" fill="#d97706" fill-opacity="0.9"/>
<rect x="90" y="32" width="18" height="6" fill="#d97706"/>
<text x="114" y="38" font-size="13" fill="#333333">val</text>
<polyline fill="none" stroke="#059669" stroke-width="3" points="90.00,150.66 107.14,104.07 124.29,112.19 141.43,128.40 158.57,198.78 175.71,147.83 192.86,285.11 210.00,108.50 227.14,97.24 244.29,95.14 261.43,95.98 278.57,97.00 295.71,99.43 312.86,95.45 330.00,142.09 347.14,95.05 364.29,95.12 381.43,94.17 398.57,94.93 415.71,94.79 432.86,435.52 450.00,435.71 467.14,435.02 484.29,125.45 501.43,143.09 518.57,390.57 535.71,102.45 552.86,155.92 570.00,103.76 587.14,174.04 604.29,121.02 621.43,112.59 638.57,132.40 655.71,118.50 672.86,145.07 690.00,120.86 707.14,126.02 724.29,130.14 741.43,99.74 758.57,144.88 775.71,146.42 792.86,102.76 810.00,166.16 827.14,102.71 844.29,184.04 861.43,117.59 878.57,122.12 895.71,101.69 912.86,117.69 930.00,156.04"/>
<circle cx="90.00" cy="150.66" r="4.5" fill="#059669" fill-opacity="0.9"/>
<circle cx="107.14" cy="104.07" r="4.5" fill="#059669" fill-opacity="0.9"/>
<circle cx="124.29" cy="112.19" r="4.5" fill="#059669" fill-opacity="0.9"/>
<circle cx="141.43" cy="128.40" r="4.5" fill="#059669" fill-opacity="0.9"/>
<circle cx="158.57" cy="198.78" r="4.5" fill="#059669" fill-opacity="0.9"/>
<circle cx="175.71" cy="147.83" r="4.5" fill="#059669" fill-opacity="0.9"/>
<circle cx="192.86" cy="285.11" r="4.5" fill="#059669" fill-opacity="0.9"/>
<circle cx="210.00" cy="108.50" r="4.5" fill="#059669" fill-opacity="0.9"/>
<circle cx="227.14" cy="97.24" r="4.5" fill="#059669" fill-opacity="0.9"/>
<circle cx="244.29" cy="95.14" r="4.5" fill="#059669" fill-opacity="0.9"/>
<circle cx="261.43" cy="95.98" r="4.5" fill="#059669" fill-opacity="0.9"/>
<circle cx="278.57" cy="97.00" r="4.5" fill="#059669" fill-opacity="0.9"/>
<circle cx="295.71" cy="99.43" r="4.5" fill="#059669" fill-opacity="0.9"/>
<circle cx="312.86" cy="95.45" r="4.5" fill="#059669" fill-opacity="0.9"/>
<circle cx="330.00" cy="142.09" r="4.5" fill="#059669" fill-opacity="0.9"/>
<circle cx="347.14" cy="95.05" r="4.5" fill="#059669" fill-opacity="0.9"/>
<circle cx="364.29" cy="95.12" r="4.5" fill="#059669" fill-opacity="0.9"/>
<circle cx="381.43" cy="94.17" r="4.5" fill="#059669" fill-opacity="0.9"/>
<circle cx="398.57" cy="94.93" r="4.5" fill="#059669" fill-opacity="0.9"/>
<circle cx="415.71" cy="94.79" r="4.5" fill="#059669" fill-opacity="0.9"/>
<circle cx="432.86" cy="435.52" r="4.5" fill="#059669" fill-opacity="0.9"/>
<circle cx="450.00" cy="435.71" r="4.5" fill="#059669" fill-opacity="0.9"/>
<circle cx="467.14" cy="435.02" r="4.5" fill="#059669" fill-opacity="0.9"/>
<circle cx="484.29" cy="125.45" r="4.5" fill="#059669" fill-opacity="0.9"/>
<circle cx="501.43" cy="143.09" r="4.5" fill="#059669" fill-opacity="0.9"/>
<circle cx="518.57" cy="390.57" r="4.5" fill="#059669" fill-opacity="0.9"/>
<circle cx="535.71" cy="102.45" r="4.5" fill="#059669" fill-opacity="0.9"/>
<circle cx="552.86" cy="155.92" r="4.5" fill="#059669" fill-opacity="0.9"/>
<circle cx="570.00" cy="103.76" r="4.5" fill="#059669" fill-opacity="0.9"/>
<circle cx="587.14" cy="174.04" r="4.5" fill="#059669" fill-opacity="0.9"/>
<circle cx="604.29" cy="121.02" r="4.5" fill="#059669" fill-opacity="0.9"/>
<circle cx="621.43" cy="112.59" r="4.5" fill="#059669" fill-opacity="0.9"/>
<circle cx="638.57" cy="132.40" r="4.5" fill="#059669" fill-opacity="0.9"/>
<circle cx="655.71" cy="118.50" r="4.5" fill="#059669" fill-opacity="0.9"/>
<circle cx="672.86" cy="145.07" r="4.5" fill="#059669" fill-opacity="0.9"/>
<circle cx="690.00" cy="120.86" r="4.5" fill="#059669" fill-opacity="0.9"/>
<circle cx="707.14" cy="126.02" r="4.5" fill="#059669" fill-opacity="0.9"/>
<circle cx="724.29" cy="130.14" r="4.5" fill="#059669" fill-opacity="0.9"/>
<circle cx="741.43" cy="99.74" r="4.5" fill="#059669" fill-opacity="0.9"/>
<circle cx="758.57" cy="144.88" r="4.5" fill="#059669" fill-opacity="0.9"/>
<circle cx="775.71" cy="146.42" r="4.5" fill="#059669" fill-opacity="0.9"/>
<circle cx="792.86" cy="102.76" r="4.5" fill="#059669" fill-opacity="0.9"/>
<circle cx="810.00" cy="166.16" r="4.5" fill="#059669" fill-opacity="0.9"/>
<circle cx="827.14" cy="102.71" r="4.5" fill="#059669" fill-opacity="0.9"/>
<circle cx="844.29" cy="184.04" r="4.5" fill="#059669" fill-opacity="0.9"/>
<circle cx="861.43" cy="117.59" r="4.5" fill="#059669" fill-opacity="0.9"/>
<circle cx="878.57" cy="122.12" r="4.5" fill="#059669" fill-opacity="0.9"/>
<circle cx="895.71" cy="101.69" r="4.5" fill="#059669" fill-opacity="0.9"/>
<circle cx="912.86" cy="117.69" r="4.5" fill="#059669" fill-opacity="0.9"/>
<circle cx="930.00" cy="156.04" r="4.5" fill="#059669" fill-opacity="0.9"/>
<rect x="270" y="32" width="18" height="6" fill="#059669"/>
<text x="294" y="38" font-size="13" fill="#333333">test</text>
</svg>