<svg xmlns="http://www.w3.org/2000/svg" width="960" height="540">
<rect width="100%" height="100%" fill="#ffffff"/>
<text x="480.0" y="30" font-size="22" text-anchor="middle" fill="#111111">Sequence Accuracy</text>
<text x="20" y="270.0" font-size="16" transform="rotate(-90 20,270.0)" text-anchor="middle" fill="#333333">Accuracy</text>
<text x="480.0" y="520" font-size="16" text-anchor="middle" fill="#333333">Epoch</text>
<line x1="90" y1="60" x2="90" y2="470" stroke="#333333" stroke-width="2"/>
<line x1="90" y1="470" x2="930" y2="470" stroke="#333333" stroke-width="2"/>
<line x1="90" y1="470.00" x2="930" y2="470.00" stroke="#e5e7eb" stroke-width="1"/>
<text x="80" y="475.00" font-size="12" text-anchor="end" fill="#555555">-0.0942</text>
<line x1="90" y1="367.50" x2="930" y2="367.50" stroke="#e5e7eb" stroke-width="1"/>
<text x="80" y="372.50" font-size="12" text-anchor="end" fill="#555555">0.1884</text>
<line x1="90" y1="265.00" x2="930" y2="265.00" stroke="#e5e7eb" stroke-width="1"/>
<text x="80" y="270.00" font-size="12" text-anchor="end" fill="#555555">0.4711</text>
<line x1="90" y1="162.50" x2="930" y2="162.50" stroke="#e5e7eb" stroke-width="1"/>
<text x="80" y="167.50" font-size="12" text-anchor="end" fill="#555555">0.7537</text>
<line x1="90" y1="60.00" x2="930" y2="60.00" stroke="#e5e7eb" stroke-width="1"/>
<text x="80" y="65.00" font-size="12" text-anchor="end" fill="#555555">1.0363</text>
<line x1="90.00" y1="60" x2="90.00" y2="470" stroke="#f3f4f6" stroke-width="1"/>
<text x="90.00" y="492" font-size="12" text-anchor="middle" fill="#555555">1</text>
<line x1="107.14" y1="60" x2="107.14" y2="470" stroke="#f3f4f6" stroke-width="1"/>
<text x="107.14" y="492" font-size="12" text-anchor="middle" fill="#555555">2</text>
<line x1="124.29" y1="60" x2="124.29" y2="470" stroke="#f3f4f6" stroke-width="1"/>
<text x="124.29" y="492" font-size="12" text-anchor="middle" fill="#555555">3</text>
<line x1="141.43" y1="60" x2="141.43" y2="470" stroke="#f3f4f6" stroke-width="1"/>
<text x="141.43" y="492" font-size="12" text-anchor="middle" fill="#555555">4</text>
<line x1="158.57" y1="60" x2="158.57" y2="470" stroke="#f3f4f6" stroke-width="1"/>
<text x="158.57" y="492" font-size="12" text-anchor="middle" fill="#555555">5</text>
<line x1="175.71" y1="60" x2="175.71" y2="470" stroke="#f3f4f6" stroke-width="1"/>
<text x="175.71" y="492" font-size="12" text-anchor="middle" fill="#555555">6</text>
<line x1="192.86" y1="60" x2="192.86" y2="470" stroke="#f3f4f6" stroke-width="1"/>
<text x="192.86" y="492" font-size="12" text-anchor="middle" fill="#555555">7</text>
<line x1="210.00" y1="60" x2="210.00" y2="470" stroke="#f3f4f6" stroke-width="1"/>
<text x="210.00" y="492" font-size="12" text-anchor="middle" fill="#555555">8</text>
<line x1="227.14" y1="60" x2="227.14" y2="470" stroke="#f3f4f6" stroke-width="1"/>
<text x="227.14" y="492" font-size="12" text-anchor="middle" fill="#555555">9</text>
<line x1="244.29" y1="60" x2="244.29" y2="470" stroke="#f3f4f6" stroke-width="1"/>
<text x="244.29" y="492" font-size="12" text-anchor="middle" fill="#555555">10</text>
<line x1="261.43" y1="60" x2="261.43" y2="470" stroke="#f3f4f6" stroke-width="1"/>
<text x="261.43" y="492" font-size="12" text-anchor="middle" fill="#555555">11</text>
<line x1="278.57" y1="60" x2="278.57" y2="470" stroke="#f3f4f6" stroke-width="1"/>
<text x="278.57" y="492" font-size="12" text-anchor="middle" fill="#555555">12</text>
<line x1="295.71" y1="60" x2="295.71" y2="470" stroke="#f3f4f6" stroke-width="1"/>
<text x="295.71" y="492" font-size="12" text-anchor="middle" fill="#555555">13</text>
<line x1="312.86" y1="60" x2="312.86" y2="470" stroke="#f3f4f6" stroke-width="1"/>
<text x="312.86" y="492" font-size="12" text-anchor="middle" fill="#555555">14</text>
<line x1="330.00" y1="60" x2="330.00" y2="470" stroke="#f3f4f6" stroke-width="1"/>
<text x="330.00" y="492" font-size="12" text-anchor="middle" fill="#555555">15</text>
<line x1="347.14" y1="60" x2="347.14" y2="470" stroke="#f3f4f6" stroke-width="1"/>
<text x="347.14" y="492" font-size="12" text-anchor="middle" fill="#555555">16</text>
<line x1="364.29" y1="60" x2="364.29" y2="470" stroke="#f3f4f6" stroke-width="1"/>
<text x="364.29" y="492" font-size="12" text-anchor="middle" fill="#555555">17</text>
<line x1="381.43" y1="60" x2="381.43" y2="470" stroke="#f3f4f6" stroke-width="1"/>
<text x="381.43" y="492" font-size="12" text-anchor="middle" fill="#555555">18</text>
<line x1="398.57" y1="60" x2="398.57" y2="470" stroke="#f3f4f6" stroke-width="1"/>
<text x="398.57" y="492" font-size="12" text-anchor="middle" fill="#555555">19</text>
<line x1="415.71" y1="60" x2="415.71" y2="470" stroke="#f3f4f6" stroke-width="1"/>
<text x="415.71" y="492" font-size="12" text-anchor="middle" fill="#555555">20</text>
<line x1="432.86" y1="60" x2="432.86" y2="470" stroke="#f3f4f6" stroke-width="1"/>
<text x="432.86" y="492" font-size="12" text-anchor="middle" fill="#555555">21</text>
<line x1="450.00" y1="60" x2="450.00" y2="470" stroke="#f3f4f6" stroke-width="1"/>
<text x="450.00" y="492" font-size="12" text-anchor="middle" fill="#555555">22</text>
<line x1="467.14" y1="60" x2="467.14" y2="470" stroke="#f3f4f6" stroke-width="1"/>
<text x="467.14" y="492" font-size="12" text-anchor="middle" fill="#555555">23</text>
<line x1="484.29" y1="60" x2="484.29" y2="470" stroke="#f3f4f6" stroke-width="1"/>
<text x="484.29" y="492" font-size="12" text-anchor="middle" fill="#555555">24</text>
<line x1="501.43" y1="60" x2="501.43" y2="470" stroke="#f3f4f6" stroke-width="1"/>
<text x="501.43" y="492" font-size="12" text-anchor="middle" fill="#555555">25</text>
<line x1="518.57" y1="60" x2="518.57" y2="470" stroke="#f3f4f6" stroke-width="1"/>
<text x="518.57" y="492" font-size="12" text-anchor="middle" fill="#555555">26</text>
<line x1="535.71" y1="60" x2="535.71" y2="470" stroke="#f3f4f6" stroke-width="1"/>
<text x="535.71" y="492" font-size="12" text-anchor="middle" fill="#555555">27</text>
<line x1="552.86" y1="60" x2="552.86" y2="470" stroke="#f3f4f6" stroke-width="1"/>
<text x="552.86" y="492" font-size="12" text-anchor="middle" fill="#555555">28</text>
<line x1="570.00" y1="60" x2="570.00" y2="470" stroke="#f3f4f6" stroke-width="1"/>
<text x="570.00" y="492" font-size="12" text-anchor="middle" fill="#555555">29</text>
<line x1="587.14" y1="60" x2="587.14" y2="470" stroke="#f3f4f6" stroke-width="1"/>
<text x="587.14" y="492" font-size="12" text-anchor="middle" fill="#555555">30</text>
<line x1="604.29" y1="60" x2="604.29" y2="470" stroke="#f3f4f6" stroke-width="1"/>
<text x="604.29" y="492" font-size="12" text-anchor="middle" fill="#555555">31</text>
<line x1="621.43" y1="60" x2="621.43" y2="470" stroke="#f3f4f6" stroke-width="1"/>
<text x="621.43" y="492" font-size="12" text-anchor="middle" fill="#555555">32</text>
<line x1="638.57" y1="60" x2="638.57" y2="470" stroke="#f3f4f6" stroke-width="1"/>
<text x="638.57" y="492" font-size="12" text-anchor="middle" fill="#555555">33</text>
<line x1="655.71" y1="60" x2="655.71" y2="470" stroke="#f3f4f6" stroke-width="1"/>
<text x="655.71" y="492" font-size="12" text-anchor="middle" fill="#555555">34</text>
<line x1="672.86" y1="60" x2="672.86" y2="470" stroke="#f3f4f6" stroke-width="1"/>
<text x="672.86" y="492" font-size="12" text-anchor="middle" fill="#555555">35</text>
<line x1="690.00" y1="60" x2="690.00" y2="470" stroke="#f3f4f6" stroke-width="1"/>
<text x="690.00" y="492" font-size="12" text-anchor="middle" fill="#555555">36</text>
<line x1="707.14" y1="60" x2="707.14" y2="470" stroke="#f3f4f6" stroke-width="1"/>
<text x="707.14" y="492" font-size="12" text-anchor="middle" fill="#555555">37</text>
<line x1="724.29" y1="60" x2="724.29" y2="470" stroke="#f3f4f6" stroke-width="1"/>
<text x="724.29" y="492" font-size="12" text-anchor="middle" fill="#555555">38</text>
<line x1="741.43" y1="60" x2="741.43" y2="470" stroke="#f3f4f6" stroke-width="1"/>
<text x="741.43" y="492" font-size="12" text-anchor="middle" fill="#555555">39</text>
<line x1="758.57" y1="60" x2="758.57" y2="470" stroke="#f3f4f6" stroke-width="1"/>
<text x="758.57" y="492" font-size="12" text-anchor="middle" fill="#555555">40</text>
<line x1="775.71" y1="60" x2="775.71" y2="470" stroke="#f3f4f6" stroke-width="1"/>
<text x="775.71" y="492" font-size="12" text-anchor="middle" fill="#555555">41</text>
<line x1="792.86" y1="60" x2="792.86" y2="470" stroke="#f3f4f6" stroke-width="1"/>
<text x="792.86" y="492" font-size="12" text-anchor="middle" fill="#555555">42</text>
<line x1="810.00" y1="60" x2="810.00" y2="470" stroke="#f3f4f6" stroke-width="1"/>
<text x="810.00" y="492" font-size="12" text-anchor="middle" fill="#555555">43</text>
<line x1="827.14" y1="60" x2="827.14" y2="470" stroke="#f3f4f6" stroke-width="1"/>
<text x="827.14" y="492" font-size="12" text-anchor="middle" fill="#555555">44</text>
<line x1="844.29" y1="60" x2="844.29" y2="470" stroke="#f3f4f6" stroke-width="1"/>
<text x="844.29" y="492" font-size="12" text-anchor="middle" fill="#555555">45</text>
<line x1="861.43" y1="60" x2="861.43" y2="470" stroke="#f3f4f6" stroke-width="1"/>
<text x="861.43" y="492" font-size="12" text-anchor="middle" fill="#555555">46</text>
<line x1="878.57" y1="60" x2="878.57" y2="470" stroke="#f3f4f6" stroke-width="1"/>
<text x="878.57" y="492" font-size="12" text-anchor="middle" fill="#555555">47</text>
<line x1="895.71" y1="60" x2="895.71" y2="470" stroke="#f3f4f6" stroke-width="1"/>
<text x="895.71" y="492" font-size="12" text-anchor="middle" fill="#555555">48</text>
<line x1="912.86" y1="60" x2="912.86" y2="470" stroke="#f3f4f6" stroke-width="1"/>
<text x="912.86" y="492" font-size="12" text-anchor="middle" fill="#555555">49</text>
<line x1="930.00" y1="60" x2="930.00" y2="470" stroke="#f3f4f6" stroke-width="1"/>
<text x="930.00" y="492" font-size="12" text-anchor="middle" fill="#555555">50</text>
<polyline fill="none" stroke="#d97706" stroke-width="3" points="90.00,257.43 107.14,128.59 124.29,152.53 141.43,188.48 158.57,340.38 175.71,254.29 192.86,416.85 210.00,157.17 227.14,107.87 244.29,98.37 261.43,98.62 278.57,103.18 295.71,108.75 312.86,94.22 330.00,250.11 347.14,97.72 364.29,95.04 381.43,94.17 398.57,100.04 415.71,97.89 432.86,435.83 450.00,435.83 467.14,435.83 484.29,191.14 501.43,259.56 518.57,435.83 535.71,126.44 552.86,317.87 570.00,133.67 587.14,329.87 604.29,220.35 621.43,156.33 638.57,249.09 655.71,198.83 672.86,424.64 690.00,202.74 707.14,201.05 724.29,238.26 741.43,119.41 758.57,274.89 775.71,314.76 792.86,127.24 810.00,313.28 827.14,129.44 844.29,360.09 861.43,189.69 878.57,212.51 895.71,127.53 912.86,187.49 930.00,299.19"/>
<circle cx="90.00" cy="257.43" r="4.5" fill="#d97706" fill-opacity="0.9"/>
<circle cx="107.14" cy="128.59" r="4.5" fill="#d97706" fill-opacity="0.9"/>
<circle cx="124.29" cy="152.53" r="4.5" fill="#d97706" fill-opacity="0.9"/>
<circle cx="141.43" cy="188.48" r="4.5" fill="#d97706" fill-opacity="0.9"/>
<circle cx="158.57" cy="340.38" r="4.5" fill="#d97706" fill-opacity="0.9"/>
<circle cx="175.71" cy="254.29" r="4.5" fill="#d97706" fill-opacity="0.9"/>
<circle cx="192.86" cy="416.85" r="4.5" fill="#d97706" fill-opacity="0.9"/>
<circle cx="210.00" cy="157.17" r="4.5" fill="#d97706" fill-opacity="0.9"/>
<circle cx="227.14" cy="107.87" r="4.5" fill="#d97706" fill-opacity="0.9"/>
<circle cx="244.29" cy="98.37" r="4.5" fill="#d97706" fill-opacity="0.9"/>
<circle cx="261.43" cy="98.62" r="4.5" fill="#d97706" fill-opacity="0.9"/>
<circle cx="278.57" cy="103.18" r="4.5" fill="#d97706" fill-opacity="0.9"/>
<circle cx="295.71" cy="108.75" r="4.5" fill="#d97706" fill-opacity="0.9"/>
<circle cx="312.86" cy="94.22" r="4.5" fill="#d97706" fill-opacity="0.9"/>
<circle cx="330.00" cy="250.11" r="4.5" fill="#d97706" fill-opacity="0.9"/>
<circle cx="347.14" cy="97.72" r="4.5" fill="#d97706" fill-opacity="0.9"/>
<circle cx="364.29" cy="95.04" r="4.5" fill="#d97706" fill-opacity="0.9"/>
<circle cx="381.43" cy="94.17" r="4.5" fill="#d97706" fill-opacity="0.9"/>
<circle cx="398.57" cy="100.04" r="4.5" fill="#d97706" fill-opacity="0.9"/>
<circle cx="415.71" cy="97.89" r="4.5" fill="#d97706" fill-opacity="0.9"/>
<circle cx="432.86" cy="435.83" r="4.5" fill="#d97706" fill-opacity="0.9"/>
<circle cx="450.00" cy="435.83" r="4.5" fill="#d97706" fill-opacity="0.9"/>
<circle cx="467.14" cy="435.83" r="4.5" fill="#d97706" fill-opacity="0.9"/>
<circle cx="484.29" cy="191.14" r="4.5" fill="#d97706" fill-opacity="0.9"/>
<circle cx="501.43" cy="259.56" r="4.5" fill="#d97706" fill-opacity="0.9"/>
<circle cx="518.57" cy="435.83" r="4.5" fill="#d97706" fill-opacity="0.9"/>
<circle cx="535.71" cy="126.44" r="4.5" fill="#d97706" fill-opacity="0.9"/>
<circle cx="552.86" cy="317.87" r="4.5" fill="#d97706" fill-opacity="0.9"/>
<circle cx="570.00" cy="133.67" r="4.5" fill="#d97706" fill-opacity="0.9"/>
<circle cx="587.14" cy="329.87" r="4.5" fill="#d97706" fill-opacity="0.9"/>
<circle cx="604.29" cy="220.35" r="4.5" fill="#d97706" fill-opacity="0.9"/>
<circle cx="621.43" cy="156.33" r="4.5" fill="#d97706" fill-opacity="0.9"/>
<circle cx="638.57" cy="249.09" r="4.5" fill="#d97706" fill-opacity="0.9"/>
<circle cx="655.71" cy="198.83" r="4.5" fill="#d97706" fill-opacity="0.9"/>
<circle cx="672.86" cy="424.64" r="4.5" fill="#d97706" fill-opacity="0.9"/>
<circle cx="690.00" cy="202.74" r="4.5" fill="#d97706" fill-opacity="0.9"/>
<circle cx="707.14" cy="201.05" r="4.5" fill="#d97706" fill-opacity="0.9"/>
<circle cx="724.29" cy="238.26" r="4.5" fill="#d97706" fill-opacity="0.9"/>
<circle cx="741.43" cy="119.41" r="4.5" fill="#d97706" fill-opacity="0.9"/>
<circle cx="758.57" cy="274.89" r="4.5" fill="#d97706" fill-opacity="0.9"/>
<circle cx="775.71" cy="314.76" r="4.5" fill="#d97706" fill-opacity="0.9"/>
<circle cx="792.86" cy="127.24" r="4.5" fill="#d97706" fill-opacity="0.9"/>
<circle cx="810.00" cy="313.28" r="4.5" fill="#d97706" fill-opacity="0.9"/>
<circle cx="827.14" cy="129.44" r="4.5" fill="#d97706" fill-opacity="0.9"/>
<circle cx="844.29" cy="360.09" r="4.5" fill="#d97706" fill-opacity="0.9"/>
<circle cx="861.43" cy="189.69" r="4.5" fill="#d97706" fill-opacity="0.9"/>
<circle cx="878.57" cy="212.51" r="4.5" fill="#d97706" fill-opacity="0.9"/>
<circle cx="895.71" cy="127.53" r="4.5" fill="#d97706" fill-opacity="0.9"/>
<circle cx="912.86" cy="187.49" r="4.5" fill="#d97706" fill-opacity="0.9"/>
<circle cx="930.00" cy="299.19" r="4.5" fill="#d97706" fill-opacity="0.9"/>
<rect x="90" y="32" width="18" height="6" fill="#d97706"/>
<text x="114" y="38" font-size="13" fill="#333333">val</text>
<polyline fill="none" stroke="#059669" stroke-width="3" points="90.00,259.80 107.14,129.17 124.29,153.96 141.43,186.98 158.57,340.82 175.71,253.35 192.86,417.43 210.00,157.39 227.14,108.58 244.29,97.33 261.43,98.95 278.57,104.08 295.71,110.41 312.86,94.51 330.00,254.36 347.14,97.82 364.29,95.25 381.43,94.77 398.57,100.11 415.71,97.29 432.86,435.83 450.00,435.83 467.14,435.83 484.29,190.99 501.43,261.52 518.57,435.83 535.71,128.88 552.86,319.18 570.00,133.62 587.14,329.50 604.29,222.55 621.43,159.81 638.57,251.44 655.71,201.08 672.86,425.34 690.00,202.43 707.14,202.21 724.29,235.96 741.43,120.81 758.57,275.44 775.71,314.51 792.86,128.28 810.00,313.50 827.14,130.75 844.29,361.01 861.43,189.33 878.57,214.71 895.71,130.09 912.86,191.87 930.00,301.34"/>
<circle cx="90.00" cy="259.80" r="4.5" fill="#059669" fill-opacity="0.9"/>
<circle cx="107.14" cy="129.17" r="4.5" fill="#059669" fill-opacity="0.9"/>
<circle cx="124.29" cy="153.96" r="4.5" fill="#059669" fill-opacity="0.9"/>
<circle cx="141.43" cy="186.98" r="4.5" fill="#059669" fill-opacity="0.9"/>
<circle cx="158.57" cy="340.82" r="4.5" fill="#059669" fill-opacity="0.9"/>
<circle cx="175.71" cy="253.35" r="4.5" fill="#059669" fill-opacity="0.9"/>
<circle cx="192.86" cy="417.43" r="4.5" fill="#059669" fill-opacity="0.9"/>
<circle cx="210.00" cy="157.39" r="4.5" fill="#059669" fill-opacity="0.9"/>
<circle cx="227.14" cy="108.58" r="4.5" fill="#059669" fill-opacity="0.9"/>
<circle cx="244.29" cy="97.33" r="4.5" fill="#059669" fill-opacity="0.9"/>
<circle cx="261.43" cy="98.95" r="4.5" fill="#059669" fill-opacity="0.9"/>
<circle cx="278.57" cy="104.08" r="4.5" fill="#059669" fill-opacity="0.9"/>
<circle cx="295.71" cy="110.41" r="4.5" fill="#059669" fill-opacity="0.9"/>
<circle cx="312.86" cy="94.51" r="4.5" fill="#059669" fill-opacity="0.9"/>
<circle cx="330.00" cy="254.36" r="4.5" fill="#059669" fill-opacity="0.9"/>
<circle cx="347.14" cy="97.82" r="4.5" fill="#059669" fill-opacity="0.9"/>
<circle cx="364.29" cy="95.25" r="4.5" fill="#059669" fill-opacity="0.9"/>
<circle cx="381.43" cy="94.77" r="4.5" fill="#059669" fill-opacity="0.9"/>
<circle cx="398.57" cy="100.11" r="4.5" fill="#059669" fill-opacity="0.9"/>
<circle cx="415.71" cy="97.29" r="4.5" fill="#059669" fill-opacity="0.9"/>
<circle cx="432.86" cy="435.83" r="4.5" fill="#059669" fill-opacity="0.9"/>
<circle cx="450.00" cy="435.83" r="4.5" fill="#059669" fill-opacity="0.9"/>
<circle cx="467.14" cy="435.83" r="4.5" fill="#059669" fill-opacity="0.9"/>
<circle cx="484.29" cy="190.99" r="4.5" fill="#059669" fill-opacity="0.9"/>
<circle cx="501.43" cy="261.52" r="4.5" fill="#059669" fill-opacity="0.9"/>
<circle cx="518.57" cy="435.83" r="4.5" fill="#059669" fill-opacity="0.9"/>
<circle cx="535.71" cy="128.88" r="4.5" fill="#059669" fill-opacity="0.9"/>
<circle cx="552.86" cy="319.18" r="4.5" fill="#059669" fill-opacity="0.9"/>
<circle cx="570.00" cy="133.62" r="4.5" fill="#059669" fill-opacity="0.9"/>
<circle cx="587.14" cy="329.50" r="4.5" fill="#059669" fill-opacity="0.9"/>
<circle cx="604.29" cy="222.55" r="4.5" fill="#059669" fill-opacity="0.9"/>
<circle cx="621.43" cy="159.81" r="4.5" fill="#059669" fill-opacity="0.9"/>
<circle cx="638.57" cy="251.44" r="4.5" fill="#059669" fill-opacity="0.9"/>
<circle cx="655.71" cy="201.08" r="4.5" fill="#059669" fill-opacity="0.9"/>
<circle cx="672.86" cy="425.34" r="4.5" fill="#059669" fill-opacity="0.9"/>
<circle cx="690.00" cy="202.43" r="4.5" fill="#059669" fill-opacity="0.9"/>
<circle cx="707.14" cy="202.21" r="4.5" fill="#059669" fill-opacity="0.9"/>
<circle cx="724.29" cy="235.96" r="4.5" fill="#059669" fill-opacity="0.9"/>
<circle cx="741.43" cy="120.81" r="4.5" fill="#059669" fill-opacity="0.9"/>
<circle cx="758.57" cy="275.44" r="4.5" fill="#059669" fill-opacity="0.9"/>
<circle cx="775.71" cy="314.51" r="4.5" fill="#059669" fill-opacity="0.9"/>
<circle cx="792.86" cy="128.28" r="4.5" fill="#059669" fill-opacity="0.9"/>
<circle cx="810.00" cy="313.50" r="4.5" fill="#059669" fill-opacity="0.9"/>
<circle cx="827.14" cy="130.75" r="4.5" fill="#059669" fill-opacity="0.9"/>
<circle cx="844.29" cy="361.01" r="4.5" fill="#059669" fill-opacity="0.9"/>
<circle cx="861.43" cy="189.33" r="4.5" fill="#059669" fill-opacity="0.9"/>
<circle cx="878.57" cy="214.71" r="4.5" fill="#059669" fill-opacity="0.9"/>
<circle cx="895.71" cy="130.09" r="4.5" fill="#059669" fill-opacity="0.9"/>
<circle cx="912.86" cy="191.87" r="4.5" fill="#059669" fill-opacity="0.9"/>
<circle cx="930.00" cy="301.34" r="4.5" fill="#059669" fill-opacity="0.9"/>
<rect x="270" y="32" width="18" height="6" fill="#059669"/>
<text x="294" y="38" font-size="13" fill="#333333">test</text>
</svg>