<svg xmlns="http://www.w3.org/2000/svg" width="960" height="540">
<rect width="100%" height="100%" fill="#ffffff"/>
<text x="480.0" y="30" font-size="22" text-anchor="middle" fill="#111111">Position 5 Accuracy</text>
<text x="20" y="270.0" font-size="16" transform="rotate(-90 20,270.0)" text-anchor="middle" fill="#333333">Accuracy</text>
<text x="480.0" y="520" font-size="16" text-anchor="middle" fill="#333333">Epoch</text>
<line x1="90" y1="60" x2="90" y2="470" stroke="#333333" stroke-width="2"/>
<line x1="90" y1="470" x2="930" y2="470" stroke="#333333" stroke-width="2"/>
<line x1="90" y1="470.00" x2="930" y2="470.00" stroke="#e5e7eb" stroke-width="1"/>
<text x="80" y="475.00" font-size="12" text-anchor="end" fill="#555555">0.4354</text>
<line x1="90" y1="367.50" x2="930" y2="367.50" stroke="#e5e7eb" stroke-width="1"/>
<text x="80" y="372.50" font-size="12" text-anchor="end" fill="#555555">0.5876</text>
<line x1="90" y1="265.00" x2="930" y2="265.00" stroke="#e5e7eb" stroke-width="1"/>
<text x="80" y="270.00" font-size="12" text-anchor="end" fill="#555555">0.7399</text>
<line x1="90" y1="162.50" x2="930" y2="162.50" stroke="#e5e7eb" stroke-width="1"/>
<text x="80" y="167.50" font-size="12" text-anchor="end" fill="#555555">0.8921</text>
<line x1="90" y1="60.00" x2="930" y2="60.00" stroke="#e5e7eb" stroke-width="1"/>
<text x="80" y="65.00" font-size="12" text-anchor="end" fill="#555555">1.0443</text>
<line x1="90.00" y1="60" x2="90.00" y2="470" stroke="#f3f4f6" stroke-width="1"/>
<text x="90.00" y="492" font-size="12" text-anchor="middle" fill="#555555">1</text>
<line x1="102.17" y1="60" x2="102.17" y2="470" stroke="#f3f4f6" stroke-width="1"/>
<text x="102.17" y="492" font-size="12" text-anchor="middle" fill="#555555">2</text>
<line x1="114.35" y1="60" x2="114.35" y2="470" stroke="#f3f4f6" stroke-width="1"/>
<text x="114.35" y="492" font-size="12" text-anchor="middle" fill="#555555">3</text>
<line x1="126.52" y1="60" x2="126.52" y2="470" stroke="#f3f4f6" stroke-width="1"/>
<text x="126.52" y="492" font-size="12" text-anchor="middle" fill="#555555">4</text>
<line x1="138.70" y1="60" x2="138.70" y2="470" stroke="#f3f4f6" stroke-width="1"/>
<text x="138.70" y="492" font-size="12" text-anchor="middle" fill="#555555">5</text>
<line x1="150.87" y1="60" x2="150.87" y2="470" stroke="#f3f4f6" stroke-width="1"/>
<text x="150.87" y="492" font-size="12" text-anchor="middle" fill="#555555">6</text>
<line x1="163.04" y1="60" x2="163.04" y2="470" stroke="#f3f4f6" stroke-width="1"/>
<text x="163.04" y="492" font-size="12" text-anchor="middle" fill="#555555">7</text>
<line x1="175.22" y1="60" x2="175.22" y2="470" stroke="#f3f4f6" stroke-width="1"/>
<text x="175.22" y="492" font-size="12" text-anchor="middle" fill="#555555">8</text>
<line x1="187.39" y1="60" x2="187.39" y2="470" stroke="#f3f4f6" stroke-width="1"/>
<text x="187.39" y="492" font-size="12" text-anchor="middle" fill="#555555">9</text>
<line x1="199.57" y1="60" x2="199.57" y2="470" stroke="#f3f4f6" stroke-width="1"/>
<text x="199.57" y="492" font-size="12" text-anchor="middle" fill="#555555">10</text>
<line x1="211.74" y1="60" x2="211.74" y2="470" stroke="#f3f4f6" stroke-width="1"/>
<text x="211.74" y="492" font-size="12" text-anchor="middle" fill="#555555">11</text>
<line x1="223.91" y1="60" x2="223.91" y2="470" stroke="#f3f4f6" stroke-width="1"/>
<text x="223.91" y="492" font-size="12" text-anchor="middle" fill="#555555">12</text>
<line x1="236.09" y1="60" x2="236.09" y2="470" stroke="#f3f4f6" stroke-width="1"/>
<text x="236.09" y="492" font-size="12" text-anchor="middle" fill="#555555">13</text>
<line x1="248.26" y1="60" x2="248.26" y2="470" stroke="#f3f4f6" stroke-width="1"/>
<text x="248.26" y="492" font-size="12" text-anchor="middle" fill="#555555">14</text>
<line x1="260.43" y1="60" x2="260.43" y2="470" stroke="#f3f4f6" stroke-width="1"/>
<text x="260.43" y="492" font-size="12" text-anchor="middle" fill="#555555">15</text>
<line x1="272.61" y1="60" x2="272.61" y2="470" stroke="#f3f4f6" stroke-width="1"/>
<text x="272.61" y="492" font-size="12" text-anchor="middle" fill="#555555">16</text>
<line x1="284.78" y1="60" x2="284.78" y2="470" stroke="#f3f4f6" stroke-width="1"/>
<text x="284.78" y="492" font-size="12" text-anchor="middle" fill="#555555">17</text>
<line x1="296.96" y1="60" x2="296.96" y2="470" stroke="#f3f4f6" stroke-width="1"/>
<text x="296.96" y="492" font-size="12" text-anchor="middle" fill="#555555">18</text>
<line x1="309.13" y1="60" x2="309.13" y2="470" stroke="#f3f4f6" stroke-width="1"/>
<text x="309.13" y="492" font-size="12" text-anchor="middle" fill="#555555">19</text>
<line x1="321.30" y1="60" x2="321.30" y2="470" stroke="#f3f4f6" stroke-width="1"/>
<text x="321.30" y="492" font-size="12" text-anchor="middle" fill="#555555">20</text>
<line x1="333.48" y1="60" x2="333.48" y2="470" stroke="#f3f4f6" stroke-width="1"/>
<text x="333.48" y="492" font-size="12" text-anchor="middle" fill="#555555">21</text>
<line x1="345.65" y1="60" x2="345.65" y2="470" stroke="#f3f4f6" stroke-width="1"/>
<text x="345.65" y="492" font-size="12" text-anchor="middle" fill="#555555">22</text>
<line x1="357.83" y1="60" x2="357.83" y2="470" stroke="#f3f4f6" stroke-width="1"/>
<text x="357.83" y="492" font-size="12" text-anchor="middle" fill="#555555">23</text>
<line x1="370.00" y1="60" x2="370.00" y2="470" stroke="#f3f4f6" stroke-width="1"/>
<text x="370.00" y="492" font-size="12" text-anchor="middle" fill="#555555">24</text>
<line x1="382.17" y1="60" x2="382.17" y2="470" stroke="#f3f4f6" stroke-width="1"/>
<text x="382.17" y="492" font-size="12" text-anchor="middle" fill="#555555">25</text>
<line x1="394.35" y1="60" x2="394.35" y2="470" stroke="#f3f4f6" stroke-width="1"/>
<text x="394.35" y="492" font-size="12" text-anchor="middle" fill="#555555">26</text>
<line x1="406.52" y1="60" x2="406.52" y2="470" stroke="#f3f4f6" stroke-width="1"/>
<text x="406.52" y="492" font-size="12" text-anchor="middle" fill="#555555">27</text>
<line x1="418.70" y1="60" x2="418.70" y2="470" stroke="#f3f4f6" stroke-width="1"/>
<text x="418.70" y="492" font-size="12" text-anchor="middle" fill="#555555">28</text>
<line x1="430.87" y1="60" x2="430.87" y2="470" stroke="#f3f4f6" stroke-width="1"/>
<text x="430.87" y="492" font-size="12" text-anchor="middle" fill="#555555">29</text>
<line x1="443.04" y1="60" x2="443.04" y2="470" stroke="#f3f4f6" stroke-width="1"/>
<text x="443.04" y="492" font-size="12" text-anchor="middle" fill="#555555">30</text>
<line x1="455.22" y1="60" x2="455.22" y2="470" stroke="#f3f4f6" stroke-width="1"/>
<text x="455.22" y="492" font-size="12" text-anchor="middle" fill="#555555">31</text>
<line x1="467.39" y1="60" x2="467.39" y2="470" stroke="#f3f4f6" stroke-width="1"/>
<text x="467.39" y="492" font-size="12" text-anchor="middle" fill="#555555">32</text>
<line x1="479.57" y1="60" x2="479.57" y2="470" stroke="#f3f4f6" stroke-width="1"/>
<text x="479.57" y="492" font-size="12" text-anchor="middle" fill="#555555">33</text>
<line x1="491.74" y1="60" x2="491.74" y2="470" stroke="#f3f4f6" stroke-width="1"/>
<text x="491.74" y="492" font-size="12" text-anchor="middle" fill="#555555">34</text>
<line x1="503.91" y1="60" x2="503.91" y2="470" stroke="#f3f4f6" stroke-width="1"/>
<text x="503.91" y="492" font-size="12" text-anchor="middle" fill="#555555">35</text>
<line x1="516.09" y1="60" x2="516.09" y2="470" stroke="#f3f4f6" stroke-width="1"/>
<text x="516.09" y="492" font-size="12" text-anchor="middle" fill="#555555">36</text>
<line x1="528.26" y1="60" x2="528.26" y2="470" stroke="#f3f4f6" stroke-width="1"/>
<text x="528.26" y="492" font-size="12" text-anchor="middle" fill="#555555">37</text>
<line x1="540.43" y1="60" x2="540.43" y2="470" stroke="#f3f4f6" stroke-width="1"/>
<text x="540.43" y="492" font-size="12" text-anchor="middle" fill="#555555">38</text>
<line x1="552.61" y1="60" x2="552.61" y2="470" stroke="#f3f4f6" stroke-width="1"/>
<text x="552.61" y="492" font-size="12" text-anchor="middle" fill="#555555">39</text>
<line x1="564.78" y1="60" x2="564.78" y2="470" stroke="#f3f4f6" stroke-width="1"/>
<text x="564.78" y="492" font-size="12" text-anchor="middle" fill="#555555">40</text>
<line x1="576.96" y1="60" x2="576.96" y2="470" stroke="#f3f4f6" stroke-width="1"/>
<text x="576.96" y="492" font-size="12" text-anchor="middle" fill="#555555">41</text>
<line x1="589.13" y1="60" x2="589.13" y2="470" stroke="#f3f4f6" stroke-width="1"/>
<text x="589.13" y="492" font-size="12" text-anchor="middle" fill="#555555">42</text>
<line x1="601.30" y1="60" x2="601.30" y2="470" stroke="#f3f4f6" stroke-width="1"/>
<text x="601.30" y="492" font-size="12" text-anchor="middle" fill="#555555">43</text>
<line x1="613.48" y1="60" x2="613.48" y2="470" stroke="#f3f4f6" stroke-width="1"/>
<text x="613.48" y="492" font-size="12" text-anchor="middle" fill="#555555">44</text>
<line x1="625.65" y1="60" x2="625.65" y2="470" stroke="#f3f4f6" stroke-width="1"/>
<text x="625.65" y="492" font-size="12" text-anchor="middle" fill="#555555">45</text>
<line x1="637.83" y1="60" x2="637.83" y2="470" stroke="#f3f4f6" stroke-width="1"/>
<text x="637.83" y="492" font-size="12" text-anchor="middle" fill="#555555">46</text>
<line x1="650.00" y1="60" x2="650.00" y2="470" stroke="#f3f4f6" stroke-width="1"/>
<text x="650.00" y="492" font-size="12" text-anchor="middle" fill="#555555">47</text>
<line x1="662.17" y1="60" x2="662.17" y2="470" stroke="#f3f4f6" stroke-width="1"/>
<text x="662.17" y="492" font-size="12" text-anchor="middle" fill="#555555">48</text>
<line x1="674.35" y1="60" x2="674.35" y2="470" stroke="#f3f4f6" stroke-width="1"/>
<text x="674.35" y="492" font-size="12" text-anchor="middle" fill="#555555">49</text>
<line x1="686.52" y1="60" x2="686.52" y2="470" stroke="#f3f4f6" stroke-width="1"/>
<text x="686.52" y="492" font-size="12" text-anchor="middle" fill="#555555">50</text>
<line x1="698.70" y1="60" x2="698.70" y2="470" stroke="#f3f4f6" stroke-width="1"/>
<text x="698.70" y="492" font-size="12" text-anchor="middle" fill="#555555">51</text>
<line x1="710.87" y1="60" x2="710.87" y2="470" stroke="#f3f4f6" stroke-width="1"/>
<text x="710.87" y="492" font-size="12" text-anchor="middle" fill="#555555">52</text>
<line x1="723.04" y1="60" x2="723.04" y2="470" stroke="#f3f4f6" stroke-width="1"/>
<text x="723.04" y="492" font-size="12" text-anchor="middle" fill="#555555">53</text>
<line x1="735.22" y1="60" x2="735.22" y2="470" stroke="#f3f4f6" stroke-width="1"/>
<text x="735.22" y="492" font-size="12" text-anchor="middle" fill="#555555">54</text>
<line x1="747.39" y1="60" x2="747.39" y2="470" stroke="#f3f4f6" stroke-width="1"/>
<text x="747.39" y="492" font-size="12" text-anchor="middle" fill="#555555">55</text>
<line x1="759.57" y1="60" x2="759.57" y2="470" stroke="#f3f4f6" stroke-width="1"/>
<text x="759.57" y="492" font-size="12" text-anchor="middle" fill="#555555">56</text>
<line x1="771.74" y1="60" x2="771.74" y2="470" stroke="#f3f4f6" stroke-width="1"/>
<text x="771.74" y="492" font-size="12" text-anchor="middle" fill="#555555">57</text>
<line x1="783.91" y1="60" x2="783.91" y2="470" stroke="#f3f4f6" stroke-width="1"/>
<text x="783.91" y="492" font-size="12" text-anchor="middle" fill="#555555">58</text>
<line x1="796.09" y1="60" x2="796.09" y2="470" stroke="#f3f4f6" stroke-width="1"/>
<text x="796.09" y="492" font-size="12" text-anchor="middle" fill="#555555">59</text>
<line x1="808.26" y1="60" x2="808.26" y2="470" stroke="#f3f4f6" stroke-width="1"/>
<text x="808.26" y="492" font-size="12" text-anchor="middle" fill="#555555">60</text>
<line x1="820.43" y1="60" x2="820.43" y2="470" stroke="#f3f4f6" stroke-width="1"/>
<text x="820.43" y="492" font-size="12" text-anchor="middle" fill="#555555">61</text>
<line x1="832.61" y1="60" x2="832.61" y2="470" stroke="#f3f4f6" stroke-width="1"/>
<text x="832.61" y="492" font-size="12" text-anchor="middle" fill="#555555">62</text>
<line x1="844.78" y1="60" x2="844.78" y2="470" stroke="#f3f4f6" stroke-width="1"/>
<text x="844.78" y="492" font-size="12" text-anchor="middle" fill="#555555">63</text>
<line x1="856.96" y1="60" x2="856.96" y2="470" stroke="#f3f4f6" stroke-width="1"/>
<text x="856.96" y="492" font-size="12" text-anchor="middle" fill="#555555">64</text>
<line x1="869.13" y1="60" x2="869.13" y2="470" stroke="#f3f4f6" stroke-width="1"/>
<text x="869.13" y="492" font-size="12" text-anchor="middle" fill="#555555">65</text>
<line x1="881.30" y1="60" x2="881.30" y2="470" stroke="#f3f4f6" stroke-width="1"/>
<text x="881.30" y="492" font-size="12" text-anchor="middle" fill="#555555">66</text>
<line x1="893.48" y1="60" x2="893.48" y2="470" stroke="#f3f4f6" stroke-width="1"/>
<text x="893.48" y="492" font-size="12" text-anchor="middle" fill="#555555">67</text>
<line x1="905.65" y1="60" x2="905.65" y2="470" stroke="#f3f4f6" stroke-width="1"/>
<text x="905.65" y="492" font-size="12" text-anchor="middle" fill="#555555">68</text>
<line x1="917.83" y1="60" x2="917.83" y2="470" stroke="#f3f4f6" stroke-width="1"/>
<text x="917.83" y="492" font-size="12" text-anchor="middle" fill="#555555">69</text>
<line x1="930.00" y1="60" x2="930.00" y2="470" stroke="#f3f4f6" stroke-width="1"/>
<text x="930.00" y="492" font-size="12" text-anchor="middle" fill="#555555">70</text>
<polyline fill="none" stroke="#d97706" stroke-width="3" points="90.00,430.40 102.17,119.53 114.35,105.16 126.52,106.42 138.70,99.46 150.87,99.82 163.04,97.53 175.22,184.16 187.39,98.25 199.57,118.54 211.74,97.76 223.91,97.44 236.09,96.41 248.26,95.60 260.43,99.46 272.61,97.62 284.78,97.71 296.96,97.35 309.13,102.74 321.30,95.33 333.48,95.60 345.65,94.97 357.83,97.98 370.00,108.98 382.17,97.76 394.35,95.78 406.52,95.29 418.70,97.98 430.87,95.15 443.04,96.86 455.22,95.11 467.39,95.29 479.57,96.19 491.74,96.81 503.91,95.51 516.09,95.60 528.26,95.83 540.43,95.60 552.61,97.31 564.78,96.41 576.96,95.56 589.13,95.02 601.30,95.96 613.48,95.78 625.65,95.38 637.83,96.59 650.00,96.41 662.17,95.60 674.35,96.41 686.52,95.78 698.70,94.57 710.87,94.57 723.04,94.62 735.22,94.80 747.39,94.53 759.57,94.62 771.74,94.75 783.91,94.62 796.09,94.80 808.26,94.57 820.43,94.35 832.61,94.21 844.78,94.48 856.96,94.53 869.13,94.62 881.30,94.84 893.48,94.66 905.65,94.39 917.83,94.39 930.00,94.21"/>
<circle cx="90.00" cy="430.40" r="4.5" fill="#d97706" fill-opacity="0.9"/>
<circle cx="102.17" cy="119.53" r="4.5" fill="#d97706" fill-opacity="0.9"/>
<circle cx="114.35" cy="105.16" r="4.5" fill="#d97706" fill-opacity="0.9"/>
<circle cx="126.52" cy="106.42" r="4.5" fill="#d97706" fill-opacity="0.9"/>
<circle cx="138.70" cy="99.46" r="4.5" fill="#d97706" fill-opacity="0.9"/>
<circle cx="150.87" cy="99.82" r="4.5" fill="#d97706" fill-opacity="0.9"/>
<circle cx="163.04" cy="97.53" r="4.5" fill="#d97706" fill-opacity="0.9"/>
<circle cx="175.22" cy="184.16" r="4.5" fill="#d97706" fill-opacity="0.9"/>
<circle cx="187.39" cy="98.25" r="4.5" fill="#d97706" fill-opacity="0.9"/>
<circle cx="199.57" cy="118.54" r="4.5" fill="#d97706" fill-opacity="0.9"/>
<circle cx="211.74" cy="97.76" r="4.5" fill="#d97706" fill-opacity="0.9"/>
<circle cx="223.91" cy="97.44" r="4.5" fill="#d97706" fill-opacity="0.9"/>
<circle cx="236.09" cy="96.41" r="4.5" fill="#d97706" fill-opacity="0.9"/>
<circle cx="248.26" cy="95.60" r="4.5" fill="#d97706" fill-opacity="0.9"/>
<circle cx="260.43" cy="99.46" r="4.5" fill="#d97706" fill-opacity="0.9"/>
<circle cx="272.61" cy="97.62" r="4.5" fill="#d97706" fill-opacity="0.9"/>
<circle cx="284.78" cy="97.71" r="4.5" fill="#d97706" fill-opacity="0.9"/>
<circle cx="296.96" cy="97.35" r="4.5" fill="#d97706" fill-opacity="0.9"/>
<circle cx="309.13" cy="102.74" r="4.5" fill="#d97706" fill-opacity="0.9"/>
<circle cx="321.30" cy="95.33" r="4.5" fill="#d97706" fill-opacity="0.9"/>
<circle cx="333.48" cy="95.60" r="4.5" fill="#d97706" fill-opacity="0.9"/>
<circle cx="345.65" cy="94.97" r="4.5" fill="#d97706" fill-opacity="0.9"/>
<circle cx="357.83" cy="97.98" r="4.5" fill="#d97706" fill-opacity="0.9"/>
<circle cx="370.00" cy="108.98" r="4.5" fill="#d97706" fill-opacity="0.9"/>
<circle cx="382.17" cy="97.76" r="4.5" fill="#d97706" fill-opacity="0.9"/>
<circle cx="394.35" cy="95.78" r="4.5" fill="#d97706" fill-opacity="0.9"/>
<circle cx="406.52" cy="95.29" r="4.5" fill="#d97706" fill-opacity="0.9"/>
<circle cx="418.70" cy="97.98" r="4.5" fill="#d97706" fill-opacity="0.9"/>
<circle cx="430.87" cy="95.15" r="4.5" fill="#d97706" fill-opacity="0.9"/>
<circle cx="443.04" cy="96.86" r="4.5" fill="#d97706" fill-opacity="0.9"/>
<circle cx="455.22" cy="95.11" r="4.5" fill="#d97706" fill-opacity="0.9"/>
<circle cx="467.39" cy="95.29" r="4.5" fill="#d97706" fill-opacity="0.9"/>
<circle cx="479.57" cy="96.19" r="4.5" fill="#d97706" fill-opacity="0.9"/>
<circle cx="491.74" cy="96.81" r="4.5" fill="#d97706" fill-opacity="0.9"/>
<circle cx="503.91" cy="95.51" r="4.5" fill="#d97706" fill-opacity="0.9"/>
<circle cx="516.09" cy="95.60" r="4.5" fill="#d97706" fill-opacity="0.9"/>
<circle cx="528.26" cy="95.83" r="4.5" fill="#d97706" fill-opacity="0.9"/>
<circle cx="540.43" cy="95.60" r="4.5" fill="#d97706" fill-opacity="0.9"/>
<circle cx="552.61" cy="97.31" r="4.5" fill="#d97706" fill-opacity="0.9"/>
<circle cx="564.78" cy="96.41" r="4.5" fill="#d97706" fill-opacity="0.9"/>
<circle cx="576.96" cy="95.56" r="4.5" fill="#d97706" fill-opacity="0.9"/>
<circle cx="589.13" cy="95.02" r="4.5" fill="#d97706" fill-opacity="0.9"/>
<circle cx="601.30" cy="95.96" r="4.5" fill="#d97706" fill-opacity="0.9"/>
<circle cx="613.48" cy="95.78" r="4.5" fill="#d97706" fill-opacity="0.9"/>
<circle cx="625.65" cy="95.38" r="4.5" fill="#d97706" fill-opacity="0.9"/>
<circle cx="637.83" cy="96.59" r="4.5" fill="#d97706" fill-opacity="0.9"/>
<circle cx="650.00" cy="96.41" r="4.5" fill="#d97706" fill-opacity="0.9"/>
<circle cx="662.17" cy="95.60" r="4.5" fill="#d97706" fill-opacity="0.9"/>
<circle cx="674.35" cy="96.41" r="4.5" fill="#d97706" fill-opacity="0.9"/>
<circle cx="686.52" cy="95.78" r="4.5" fill="#d97706" fill-opacity="0.9"/>
<circle cx="698.70" cy="94.57" r="4.5" fill="#d97706" fill-opacity="0.9"/>
<circle cx="710.87" cy="94.57" r="4.5" fill="#d97706" fill-opacity="0.9"/>
<circle cx="723.04" cy="94.62" r="4.5" fill="#d97706" fill-opacity="0.9"/>
<circle cx="735.22" cy="94.80" r="4.5" fill="#d97706" fill-opacity="0.9"/>
<circle cx="747.39" cy="94.53" r="4.5" fill="#d97706" fill-opacity="0.9"/>
<circle cx="759.57" cy="94.62" r="4.5" fill="#d97706" fill-opacity="0.9"/>
<circle cx="771.74" cy="94.75" r="4.5" fill="#d97706" fill-opacity="0.9"/>
<circle cx="783.91" cy="94.62" r="4.5" fill="#d97706" fill-opacity="0.9"/>
<circle cx="796.09" cy="94.80" r="4.5" fill="#d97706" fill-opacity="0.9"/>
<circle cx="808.26" cy="94.57" r="4.5" fill="#d97706" fill-opacity="0.9"/>
<circle cx="820.43" cy="94.35" r="4.5" fill="#d97706" fill-opacity="0.9"/>
<circle cx="832.61" cy="94.21" r="4.5" fill="#d97706" fill-opacity="0.9"/>
<circle cx="844.78" cy="94.48" r="4.5" fill="#d97706" fill-opacity="0.9"/>
<circle cx="856.96" cy="94.53" r="4.5" fill="#d97706" fill-opacity="0.9"/>
<circle cx="869.13" cy="94.62" r="4.5" fill="#d97706" fill-opacity="0.9"/>
<circle cx="881.30" cy="94.84" r="4.5" fill="#d97706" fill-opacity="0.9"/>
<circle cx="893.48" cy="94.66" r="4.5" fill="#d97706" fill-opacity="0.9"/>
<circle cx="905.65" cy="94.39" r="4.5" fill="#d97706" fill-opacity="0.9"/>
<circle cx="917.83" cy="94.39" r="4.5" fill="#d97706" fill-opacity="0.9"/>
<circle cx="930.00" cy="94.21" r="4.5" fill="#d97706" fill-opacity="0.9"/>
<rect x="90" y="32" width="18" height="6" fill="#d97706"/>
<text x="114" y="38" font-size="13" fill="#333333">val</text>
<polyline fill="none" stroke="#059669" stroke-width="3" points="90.00,435.83 102.17,120.78 114.35,106.20 126.52,106.64 138.70,99.19 150.87,102.38 163.04,98.48 175.22,186.76 187.39,99.06 199.57,119.48 211.74,97.71 223.91,97.62 236.09,95.96 248.26,96.68 260.43,100.94 272.61,97.62 284.78,97.62 296.96,99.28 309.13,103.77 321.30,95.56 333.48,95.60 345.65,95.38 357.83,99.15 370.00,108.62 382.17,98.25 394.35,95.15 406.52,95.29 418.70,98.52 430.87,95.56 443.04,97.13 455.22,96.14 467.39,95.96 479.57,95.92 491.74,97.40 503.91,95.69 516.09,96.50 528.26,96.64 540.43,96.05 552.61,97.62 564.78,96.95 576.96,95.42 589.13,95.11 601.30,96.28 613.48,96.41 625.65,95.96 637.83,97.40 650.00,97.17 662.17,96.05 674.35,96.50 686.52,95.92 698.70,94.75 710.87,94.62 723.04,94.57 735.22,94.66 747.39,94.62 759.57,94.35 771.74,94.71 783.91,94.44 796.09,94.30 808.26,94.17 820.43,94.39 832.61,94.39 844.78,94.35 856.96,94.35 869.13,94.35 881.30,94.53 893.48,94.21 905.65,94.48 917.83,94.39 930.00,94.66"/>
<circle cx="90.00" cy="435.83" r="4.5" fill="#059669" fill-opacity="0.9"/>
<circle cx="102.17" cy="120.78" r="4.5" fill="#059669" fill-opacity="0.9"/>
<circle cx="114.35" cy="106.20" r="4.5" fill="#059669" fill-opacity="0.9"/>
<circle cx="126.52" cy="106.64" r="4.5" fill="#059669" fill-opacity="0.9"/>
<circle cx="138.70" cy="99.19" r="4.5" fill="#059669" fill-opacity="0.9"/>
<circle cx="150.87" cy="102.38" r="4.5" fill="#059669" fill-opacity="0.9"/>
<circle cx="163.04" cy="98.48" r="4.5" fill="#059669" fill-opacity="0.9"/>
<circle cx="175.22" cy="186.76" r="4.5" fill="#059669" fill-opacity="0.9"/>
<circle cx="187.39" cy="99.06" r="4.5" fill="#059669" fill-opacity="0.9"/>
<circle cx="199.57" cy="119.48" r="4.5" fill="#059669" fill-opacity="0.9"/>
<circle cx="211.74" cy="97.71" r="4.5" fill="#059669" fill-opacity="0.9"/>
<circle cx="223.91" cy="97.62" r="4.5" fill="#059669" fill-opacity="0.9"/>
<circle cx="236.09" cy="95.96" r="4.5" fill="#059669" fill-opacity="0.9"/>
<circle cx="248.26" cy="96.68" r="4.5" fill="#059669" fill-opacity="0.9"/>
<circle cx="260.43" cy="100.94" r="4.5" fill="#059669" fill-opacity="0.9"/>
<circle cx="272.61" cy="97.62" r="4.5" fill="#059669" fill-opacity="0.9"/>
<circle cx="284.78" cy="97.62" r="4.5" fill="#059669" fill-opacity="0.9"/>
<circle cx="296.96" cy="99.28" r="4.5" fill="#059669" fill-opacity="0.9"/>
<circle cx="309.13" cy="103.77" r="4.5" fill="#059669" fill-opacity="0.9"/>
<circle cx="321.30" cy="95.56" r="4.5" fill="#059669" fill-opacity="0.9"/>
<circle cx="333.48" cy="95.60" r="4.5" fill="#059669" fill-opacity="0.9"/>
<circle cx="345.65" cy="95.38" r="4.5" fill="#059669" fill-opacity="0.9"/>
<circle cx="357.83" cy="99.15" r="4.5" fill="#059669" fill-opacity="0.9"/>
<circle cx="370.00" cy="108.62" r="4.5" fill="#059669" fill-opacity="0.9"/>
<circle cx="382.17" cy="98.25" r="4.5" fill="#059669" fill-opacity="0.9"/>
<circle cx="394.35" cy="95.15" r="4.5" fill="#059669" fill-opacity="0.9"/>
<circle cx="406.52" cy="95.29" r="4.5" fill="#059669" fill-opacity="0.9"/>
<circle cx="418.70" cy="98.52" r="4.5" fill="#059669" fill-opacity="0.9"/>
<circle cx="430.87" cy="95.56" r="4.5" fill="#059669" fill-opacity="0.9"/>
<circle cx="443.04" cy="97.13" r="4.5" fill="#059669" fill-opacity="0.9"/>
<circle cx="455.22" cy="96.14" r="4.5" fill="#059669" fill-opacity="0.9"/>
<circle cx="467.39" cy="95.96" r="4.5" fill="#059669" fill-opacity="0.9"/>
<circle cx="479.57" cy="95.92" r="4.5" fill="#059669" fill-opacity="0.9"/>
<circle cx="491.74" cy="97.40" r="4.5" fill="#059669" fill-opacity="0.9"/>
<circle cx="503.91" cy="95.69" r="4.5" fill="#059669" fill-opacity="0.9"/>
<circle cx="516.09" cy="96.50" r="4.5" fill="#059669" fill-opacity="0.9"/>
<circle cx="528.26" cy="96.64" r="4.5" fill="#059669" fill-opacity="0.9"/>
<circle cx="540.43" cy="96.05" r="4.5" fill="#059669" fill-opacity="0.9"/>
<circle cx="552.61" cy="97.62" r="4.5" fill="#059669" fill-opacity="0.9"/>
<circle cx="564.78" cy="96.95" r="4.5" fill="#059669" fill-opacity="0.9"/>
<circle cx="576.96" cy="95.42" r="4.5" fill="#059669" fill-opacity="0.9"/>
<circle cx="589.13" cy="95.11" r="4.5" fill="#059669" fill-opacity="0.9"/>
<circle cx="601.30" cy="96.28" r="4.5" fill="#059669" fill-opacity="0.9"/>
<circle cx="613.48" cy="96.41" r="4.5" fill="#059669" fill-opacity="0.9"/>
<circle cx="625.65" cy="95.96" r="4.5" fill="#059669" fill-opacity="0.9"/>
<circle cx="637.83" cy="97.40" r="4.5" fill="#059669" fill-opacity="0.9"/>
<circle cx="650.00" cy="97.17" r="4.5" fill="#059669" fill-opacity="0.9"/>
<circle cx="662.17" cy="96.05" r="4.5" fill="#059669" fill-opacity="0.9"/>
<circle cx="674.35" cy="96.50" r="4.5" fill="#059669" fill-opacity="0.9"/>
<circle cx="686.52" cy="95.92" r="4.5" fill="#059669" fill-opacity="0.9"/>
<circle cx="698.70" cy="94.75" r="4.5" fill="#059669" fill-opacity="0.9"/>
<circle cx="710.87" cy="94.62" r="4.5" fill="#059669" fill-opacity="0.9"/>
<circle cx="723.04" cy="94.57" r="4.5" fill="#059669" fill-opacity="0.9"/>
<circle cx="735.22" cy="94.66" r="4.5" fill="#059669" fill-opacity="0.9"/>
<circle cx="747.39" cy="94.62" r="4.5" fill="#059669" fill-opacity="0.9"/>
<circle cx="759.57" cy="94.35" r="4.5" fill="#059669" fill-opacity="0.9"/>
<circle cx="771.74" cy="94.71" r="4.5" fill="#059669" fill-opacity="0.9"/>
<circle cx="783.91" cy="94.44" r="4.5" fill="#059669" fill-opacity="0.9"/>
<circle cx="796.09" cy="94.30" r="4.5" fill="#059669" fill-opacity="0.9"/>
<circle cx="808.26" cy="94.17" r="4.5" fill="#059669" fill-opacity="0.9"/>
<circle cx="820.43" cy="94.39" r="4.5" fill="#059669" fill-opacity="0.9"/>
<circle cx="832.61" cy="94.39" r="4.5" fill="#059669" fill-opacity="0.9"/>
<circle cx="844.78" cy="94.35" r="4.5" fill="#059669" fill-opacity="0.9"/>
<circle cx="856.96" cy="94.35" r="4.5" fill="#059669" fill-opacity="0.9"/>
<circle cx="869.13" cy="94.35" r="4.5" fill="#059669" fill-opacity="0.9"/>
<circle cx="881.30" cy="94.53" r="4.5" fill="#059669" fill-opacity="0.9"/>
<circle cx="893.48" cy="94.21" r="4.5" fill="#059669" fill-opacity="0.9"/>
<circle cx="905.65" cy="94.48" r="4.5" fill="#059669" fill-opacity="0.9"/>
<circle cx="917.83" cy="94.39" r="4.5" fill="#059669" fill-opacity="0.9"/>
<circle cx="930.00" cy="94.66" r="4.5" fill="#059669" fill-opacity="0.9"/>
<rect x="270" y="32" width="18" height="6" fill="#059669"/>
<text x="294" y="38" font-size="13" fill="#333333">test</text>
</svg>