<svg xmlns="http://www.w3.org/2000/svg" width="960" height="540">
<rect width="100%" height="100%" fill="#ffffff"/>
<text x="480.0" y="30" font-size="22" text-anchor="middle" fill="#111111">Sequence Accuracy</text>
<text x="20" y="270.0" font-size="16" transform="rotate(-90 20,270.0)" text-anchor="middle" fill="#333333">Accuracy</text>
<text x="480.0" y="520" font-size="16" text-anchor="middle" fill="#333333">Epoch</text>
<line x1="90" y1="60" x2="90" y2="470" stroke="#333333" stroke-width="2"/>
<line x1="90" y1="470" x2="930" y2="470" stroke="#333333" stroke-width="2"/>
<line x1="90" y1="470.00" x2="930" y2="470.00" stroke="#e5e7eb" stroke-width="1"/>
<text x="80" y="475.00" font-size="12" text-anchor="end" fill="#555555">-0.0899</text>
<line x1="90" y1="367.50" x2="930" y2="367.50" stroke="#e5e7eb" stroke-width="1"/>
<text x="80" y="372.50" font-size="12" text-anchor="end" fill="#555555">0.1968</text>
<line x1="90" y1="265.00" x2="930" y2="265.00" stroke="#e5e7eb" stroke-width="1"/>
<text x="80" y="270.00" font-size="12" text-anchor="end" fill="#555555">0.4834</text>
<line x1="90" y1="162.50" x2="930" y2="162.50" stroke="#e5e7eb" stroke-width="1"/>
<text x="80" y="167.50" font-size="12" text-anchor="end" fill="#555555">0.7701</text>
<line x1="90" y1="60.00" x2="930" y2="60.00" stroke="#e5e7eb" stroke-width="1"/>
<text x="80" y="65.00" font-size="12" text-anchor="end" fill="#555555">1.0568</text>
<line x1="90.00" y1="60" x2="90.00" y2="470" stroke="#f3f4f6" stroke-width="1"/>
<text x="90.00" y="492" font-size="12" text-anchor="middle" fill="#555555">1</text>
<line x1="102.17" y1="60" x2="102.17" y2="470" stroke="#f3f4f6" stroke-width="1"/>
<text x="102.17" y="492" font-size="12" text-anchor="middle" fill="#555555">2</text>
<line x1="114.35" y1="60" x2="114.35" y2="470" stroke="#f3f4f6" stroke-width="1"/>
<text x="114.35" y="492" font-size="12" text-anchor="middle" fill="#555555">3</text>
<line x1="126.52" y1="60" x2="126.52" y2="470" stroke="#f3f4f6" stroke-width="1"/>
<text x="126.52" y="492" font-size="12" text-anchor="middle" fill="#555555">4</text>
<line x1="138.70" y1="60" x2="138.70" y2="470" stroke="#f3f4f6" stroke-width="1"/>
<text x="138.70" y="492" font-size="12" text-anchor="middle" fill="#555555">5</text>
<line x1="150.87" y1="60" x2="150.87" y2="470" stroke="#f3f4f6" stroke-width="1"/>
<text x="150.87" y="492" font-size="12" text-anchor="middle" fill="#555555">6</text>
<line x1="163.04" y1="60" x2="163.04" y2="470" stroke="#f3f4f6" stroke-width="1"/>
<text x="163.04" y="492" font-size="12" text-anchor="middle" fill="#555555">7</text>
<line x1="175.22" y1="60" x2="175.22" y2="470" stroke="#f3f4f6" stroke-width="1"/>
<text x="175.22" y="492" font-size="12" text-anchor="middle" fill="#555555">8</text>
<line x1="187.39" y1="60" x2="187.39" y2="470" stroke="#f3f4f6" stroke-width="1"/>
<text x="187.39" y="492" font-size="12" text-anchor="middle" fill="#555555">9</text>
<line x1="199.57" y1="60" x2="199.57" y2="470" stroke="#f3f4f6" stroke-width="1"/>
<text x="199.57" y="492" font-size="12" text-anchor="middle" fill="#555555">10</text>
<line x1="211.74" y1="60" x2="211.74" y2="470" stroke="#f3f4f6" stroke-width="1"/>
<text x="211.74" y="492" font-size="12" text-anchor="middle" fill="#555555">11</text>
<line x1="223.91" y1="60" x2="223.91" y2="470" stroke="#f3f4f6" stroke-width="1"/>
<text x="223.91" y="492" font-size="12" text-anchor="middle" fill="#555555">12</text>
<line x1="236.09" y1="60" x2="236.09" y2="470" stroke="#f3f4f6" stroke-width="1"/>
<text x="236.09" y="492" font-size="12" text-anchor="middle" fill="#555555">13</text>
<line x1="248.26" y1="60" x2="248.26" y2="470" stroke="#f3f4f6" stroke-width="1"/>
<text x="248.26" y="492" font-size="12" text-anchor="middle" fill="#555555">14</text>
<line x1="260.43" y1="60" x2="260.43" y2="470" stroke="#f3f4f6" stroke-width="1"/>
<text x="260.43" y="492" font-size="12" text-anchor="middle" fill="#555555">15</text>
<line x1="272.61" y1="60" x2="272.61" y2="470" stroke="#f3f4f6" stroke-width="1"/>
<text x="272.61" y="492" font-size="12" text-anchor="middle" fill="#555555">16</text>
<line x1="284.78" y1="60" x2="284.78" y2="470" stroke="#f3f4f6" stroke-width="1"/>
<text x="284.78" y="492" font-size="12" text-anchor="middle" fill="#555555">17</text>
<line x1="296.96" y1="60" x2="296.96" y2="470" stroke="#f3f4f6" stroke-width="1"/>
<text x="296.96" y="492" font-size="12" text-anchor="middle" fill="#555555">18</text>
<line x1="309.13" y1="60" x2="309.13" y2="470" stroke="#f3f4f6" stroke-width="1"/>
<text x="309.13" y="492" font-size="12" text-anchor="middle" fill="#555555">19</text>
<line x1="321.30" y1="60" x2="321.30" y2="470" stroke="#f3f4f6" stroke-width="1"/>
<text x="321.30" y="492" font-size="12" text-anchor="middle" fill="#555555">20</text>
<line x1="333.48" y1="60" x2="333.48" y2="470" stroke="#f3f4f6" stroke-width="1"/>
<text x="333.48" y="492" font-size="12" text-anchor="middle" fill="#555555">21</text>
<line x1="345.65" y1="60" x2="345.65" y2="470" stroke="#f3f4f6" stroke-width="1"/>
<text x="345.65" y="492" font-size="12" text-anchor="middle" fill="#555555">22</text>
<line x1="357.83" y1="60" x2="357.83" y2="470" stroke="#f3f4f6" stroke-width="1"/>
<text x="357.83" y="492" font-size="12" text-anchor="middle" fill="#555555">23</text>
<line x1="370.00" y1="60" x2="370.00" y2="470" stroke="#f3f4f6" stroke-width="1"/>
<text x="370.00" y="492" font-size="12" text-anchor="middle" fill="#555555">24</text>
<line x1="382.17" y1="60" x2="382.17" y2="470" stroke="#f3f4f6" stroke-width="1"/>
<text x="382.17" y="492" font-size="12" text-anchor="middle" fill="#555555">25</text>
<line x1="394.35" y1="60" x2="394.35" y2="470" stroke="#f3f4f6" stroke-width="1"/>
<text x="394.35" y="492" font-size="12" text-anchor="middle" fill="#555555">26</text>
<line x1="406.52" y1="60" x2="406.52" y2="470" stroke="#f3f4f6" stroke-width="1"/>
<text x="406.52" y="492" font-size="12" text-anchor="middle" fill="#555555">27</text>
<line x1="418.70" y1="60" x2="418.70" y2="470" stroke="#f3f4f6" stroke-width="1"/>
<text x="418.70" y="492" font-size="12" text-anchor="middle" fill="#555555">28</text>
<line x1="430.87" y1="60" x2="430.87" y2="470" stroke="#f3f4f6" stroke-width="1"/>
<text x="430.87" y="492" font-size="12" text-anchor="middle" fill="#555555">29</text>
<line x1="443.04" y1="60" x2="443.04" y2="470" stroke="#f3f4f6" stroke-width="1"/>
<text x="443.04" y="492" font-size="12" text-anchor="middle" fill="#555555">30</text>
<line x1="455.22" y1="60" x2="455.22" y2="470" stroke="#f3f4f6" stroke-width="1"/>
<text x="455.22" y="492" font-size="12" text-anchor="middle" fill="#555555">31</text>
<line x1="467.39" y1="60" x2="467.39" y2="470" stroke="#f3f4f6" stroke-width="1"/>
<text x="467.39" y="492" font-size="12" text-anchor="middle" fill="#555555">32</text>
<line x1="479.57" y1="60" x2="479.57" y2="470" stroke="#f3f4f6" stroke-width="1"/>
<text x="479.57" y="492" font-size="12" text-anchor="middle" fill="#555555">33</text>
<line x1="491.74" y1="60" x2="491.74" y2="470" stroke="#f3f4f6" stroke-width="1"/>
<text x="491.74" y="492" font-size="12" text-anchor="middle" fill="#555555">34</text>
<line x1="503.91" y1="60" x2="503.91" y2="470" stroke="#f3f4f6" stroke-width="1"/>
<text x="503.91" y="492" font-size="12" text-anchor="middle" fill="#555555">35</text>
<line x1="516.09" y1="60" x2="516.09" y2="470" stroke="#f3f4f6" stroke-width="1"/>
<text x="516.09" y="492" font-size="12" text-anchor="middle" fill="#555555">36</text>
<line x1="528.26" y1="60" x2="528.26" y2="470" stroke="#f3f4f6" stroke-width="1"/>
<text x="528.26" y="492" font-size="12" text-anchor="middle" fill="#555555">37</text>
<line x1="540.43" y1="60" x2="540.43" y2="470" stroke="#f3f4f6" stroke-width="1"/>
<text x="540.43" y="492" font-size="12" text-anchor="middle" fill="#555555">38</text>
<line x1="552.61" y1="60" x2="552.61" y2="470" stroke="#f3f4f6" stroke-width="1"/>
<text x="552.61" y="492" font-size="12" text-anchor="middle" fill="#555555">39</text>
<line x1="564.78" y1="60" x2="564.78" y2="470" stroke="#f3f4f6" stroke-width="1"/>
<text x="564.78" y="492" font-size="12" text-anchor="middle" fill="#555555">40</text>
<line x1="576.96" y1="60" x2="576.96" y2="470" stroke="#f3f4f6" stroke-width="1"/>
<text x="576.96" y="492" font-size="12" text-anchor="middle" fill="#555555">41</text>
<line x1="589.13" y1="60" x2="589.13" y2="470" stroke="#f3f4f6" stroke-width="1"/>
<text x="589.13" y="492" font-size="12" text-anchor="middle" fill="#555555">42</text>
<line x1="601.30" y1="60" x2="601.30" y2="470" stroke="#f3f4f6" stroke-width="1"/>
<text x="601.30" y="492" font-size="12" text-anchor="middle" fill="#555555">43</text>
<line x1="613.48" y1="60" x2="613.48" y2="470" stroke="#f3f4f6" stroke-width="1"/>
<text x="613.48" y="492" font-size="12" text-anchor="middle" fill="#555555">44</text>
<line x1="625.65" y1="60" x2="625.65" y2="470" stroke="#f3f4f6" stroke-width="1"/>
<text x="625.65" y="492" font-size="12" text-anchor="middle" fill="#555555">45</text>
<line x1="637.83" y1="60" x2="637.83" y2="470" stroke="#f3f4f6" stroke-width="1"/>
<text x="637.83" y="492" font-size="12" text-anchor="middle" fill="#555555">46</text>
<line x1="650.00" y1="60" x2="650.00" y2="470" stroke="#f3f4f6" stroke-width="1"/>
<text x="650.00" y="492" font-size="12" text-anchor="middle" fill="#555555">47</text>
<line x1="662.17" y1="60" x2="662.17" y2="470" stroke="#f3f4f6" stroke-width="1"/>
<text x="662.17" y="492" font-size="12" text-anchor="middle" fill="#555555">48</text>
<line x1="674.35" y1="60" x2="674.35" y2="470" stroke="#f3f4f6" stroke-width="1"/>
<text x="674.35" y="492" font-size="12" text-anchor="middle" fill="#555555">49</text>
<line x1="686.52" y1="60" x2="686.52" y2="470" stroke="#f3f4f6" stroke-width="1"/>
<text x="686.52" y="492" font-size="12" text-anchor="middle" fill="#555555">50</text>
<line x1="698.70" y1="60" x2="698.70" y2="470" stroke="#f3f4f6" stroke-width="1"/>
<text x="698.70" y="492" font-size="12" text-anchor="middle" fill="#555555">51</text>
<line x1="710.87" y1="60" x2="710.87" y2="470" stroke="#f3f4f6" stroke-width="1"/>
<text x="710.87" y="492" font-size="12" text-anchor="middle" fill="#555555">52</text>
<line x1="723.04" y1="60" x2="723.04" y2="470" stroke="#f3f4f6" stroke-width="1"/>
<text x="723.04" y="492" font-size="12" text-anchor="middle" fill="#555555">53</text>
<line x1="735.22" y1="60" x2="735.22" y2="470" stroke="#f3f4f6" stroke-width="1"/>
<text x="735.22" y="492" font-size="12" text-anchor="middle" fill="#555555">54</text>
<line x1="747.39" y1="60" x2="747.39" y2="470" stroke="#f3f4f6" stroke-width="1"/>
<text x="747.39" y="492" font-size="12" text-anchor="middle" fill="#555555">55</text>
<line x1="759.57" y1="60" x2="759.57" y2="470" stroke="#f3f4f6" stroke-width="1"/>
<text x="759.57" y="492" font-size="12" text-anchor="middle" fill="#555555">56</text>
<line x1="771.74" y1="60" x2="771.74" y2="470" stroke="#f3f4f6" stroke-width="1"/>
<text x="771.74" y="492" font-size="12" text-anchor="middle" fill="#555555">57</text>
<line x1="783.91" y1="60" x2="783.91" y2="470" stroke="#f3f4f6" stroke-width="1"/>
<text x="783.91" y="492" font-size="12" text-anchor="middle" fill="#555555">58</text>
<line x1="796.09" y1="60" x2="796.09" y2="470" stroke="#f3f4f6" stroke-width="1"/>
<text x="796.09" y="492" font-size="12" text-anchor="middle" fill="#555555">59</text>
<line x1="808.26" y1="60" x2="808.26" y2="470" stroke="#f3f4f6" stroke-width="1"/>
<text x="808.26" y="492" font-size="12" text-anchor="middle" fill="#555555">60</text>
<line x1="820.43" y1="60" x2="820.43" y2="470" stroke="#f3f4f6" stroke-width="1"/>
<text x="820.43" y="492" font-size="12" text-anchor="middle" fill="#555555">61</text>
<line x1="832.61" y1="60" x2="832.61" y2="470" stroke="#f3f4f6" stroke-width="1"/>
<text x="832.61" y="492" font-size="12" text-anchor="middle" fill="#555555">62</text>
<line x1="844.78" y1="60" x2="844.78" y2="470" stroke="#f3f4f6" stroke-width="1"/>
<text x="844.78" y="492" font-size="12" text-anchor="middle" fill="#555555">63</text>
<line x1="856.96" y1="60" x2="856.96" y2="470" stroke="#f3f4f6" stroke-width="1"/>
<text x="856.96" y="492" font-size="12" text-anchor="middle" fill="#555555">64</text>
<line x1="869.13" y1="60" x2="869.13" y2="470" stroke="#f3f4f6" stroke-width="1"/>
<text x="869.13" y="492" font-size="12" text-anchor="middle" fill="#555555">65</text>
<line x1="881.30" y1="60" x2="881.30" y2="470" stroke="#f3f4f6" stroke-width="1"/>
<text x="881.30" y="492" font-size="12" text-anchor="middle" fill="#555555">66</text>
<line x1="893.48" y1="60" x2="893.48" y2="470" stroke="#f3f4f6" stroke-width="1"/>
<text x="893.48" y="492" font-size="12" text-anchor="middle" fill="#555555">67</text>
<line x1="905.65" y1="60" x2="905.65" y2="470" stroke="#f3f4f6" stroke-width="1"/>
<text x="905.65" y="492" font-size="12" text-anchor="middle" fill="#555555">68</text>
<line x1="917.83" y1="60" x2="917.83" y2="470" stroke="#f3f4f6" stroke-width="1"/>
<text x="917.83" y="492" font-size="12" text-anchor="middle" fill="#555555">69</text>
<line x1="930.00" y1="60" x2="930.00" y2="470" stroke="#f3f4f6" stroke-width="1"/>
<text x="930.00" y="492" font-size="12" text-anchor="middle" fill="#555555">70</text>
<polyline fill="none" stroke="#d97706" stroke-width="3" points="90.00,435.76 102.17,167.01 114.35,128.37 126.52,131.43 138.70,113.86 150.87,115.33 163.04,110.42 175.22,250.85 187.39,108.37 199.57,144.06 211.74,104.80 223.91,104.30 236.09,103.01 248.26,101.39 260.43,105.97 272.61,108.66 284.78,103.06 296.96,103.92 309.13,118.39 321.30,100.63 333.48,99.55 345.65,99.39 357.83,105.06 370.00,116.50 382.17,105.78 394.35,99.72 406.52,98.82 418.70,106.56 430.87,99.53 443.04,102.58 455.22,97.91 467.39,100.84 479.57,99.43 491.74,102.34 503.91,99.27 516.09,99.74 528.26,100.46 540.43,98.08 552.61,102.08 564.78,101.15 576.96,100.77 589.13,99.86 601.30,100.94 613.48,99.53 625.65,99.86 637.83,103.82 650.00,99.84 662.17,100.94 674.35,100.34 686.52,98.89 698.70,96.12 710.87,95.79 723.04,95.45 735.22,95.48 747.39,95.38 759.57,95.60 771.74,95.43 783.91,95.33 796.09,95.31 808.26,94.95 820.43,95.00 832.61,94.88 844.78,94.55 856.96,94.86 869.13,94.93 881.30,95.60 893.48,95.36 905.65,95.05 917.83,94.83 930.00,94.41"/>
<circle cx="90.00" cy="435.76" r="4.5" fill="#d97706" fill-opacity="0.9"/>
<circle cx="102.17" cy="167.01" r="4.5" fill="#d97706" fill-opacity="0.9"/>
<circle cx="114.35" cy="128.37" r="4.5" fill="#d97706" fill-opacity="0.9"/>
<circle cx="126.52" cy="131.43" r="4.5" fill="#d97706" fill-opacity="0.9"/>
<circle cx="138.70" cy="113.86" r="4.5" fill="#d97706" fill-opacity="0.9"/>
<circle cx="150.87" cy="115.33" r="4.5" fill="#d97706" fill-opacity="0.9"/>
<circle cx="163.04" cy="110.42" r="4.5" fill="#d97706" fill-opacity="0.9"/>
<circle cx="175.22" cy="250.85" r="4.5" fill="#d97706" fill-opacity="0.9"/>
<circle cx="187.39" cy="108.37" r="4.5" fill="#d97706" fill-opacity="0.9"/>
<circle cx="199.57" cy="144.06" r="4.5" fill="#d97706" fill-opacity="0.9"/>
<circle cx="211.74" cy="104.80" r="4.5" fill="#d97706" fill-opacity="0.9"/>
<circle cx="223.91" cy="104.30" r="4.5" fill="#d97706" fill-opacity="0.9"/>
<circle cx="236.09" cy="103.01" r="4.5" fill="#d97706" fill-opacity="0.9"/>
<circle cx="248.26" cy="101.39" r="4.5" fill="#d97706" fill-opacity="0.9"/>
<circle cx="260.43" cy="105.97" r="4.5" fill="#d97706" fill-opacity="0.9"/>
<circle cx="272.61" cy="108.66" r="4.5" fill="#d97706" fill-opacity="0.9"/>
<circle cx="284.78" cy="103.06" r="4.5" fill="#d97706" fill-opacity="0.9"/>
<circle cx="296.96" cy="103.92" r="4.5" fill="#d97706" fill-opacity="0.9"/>
<circle cx="309.13" cy="118.39" r="4.5" fill="#d97706" fill-opacity="0.9"/>
<circle cx="321.30" cy="100.63" r="4.5" fill="#d97706" fill-opacity="0.9"/>
<circle cx="333.48" cy="99.55" r="4.5" fill="#d97706" fill-opacity="0.9"/>
<circle cx="345.65" cy="99.39" r="4.5" fill="#d97706" fill-opacity="0.9"/>
<circle cx="357.83" cy="105.06" r="4.5" fill="#d97706" fill-opacity="0.9"/>
<circle cx="370.00" cy="116.50" r="4.5" fill="#d97706" fill-opacity="0.9"/>
<circle cx="382.17" cy="105.78" r="4.5" fill="#d97706" fill-opacity="0.9"/>
<circle cx="394.35" cy="99.72" r="4.5" fill="#d97706" fill-opacity="0.9"/>
<circle cx="406.52" cy="98.82" r="4.5" fill="#d97706" fill-opacity="0.9"/>
<circle cx="418.70" cy="106.56" r="4.5" fill="#d97706" fill-opacity="0.9"/>
<circle cx="430.87" cy="99.53" r="4.5" fill="#d97706" fill-opacity="0.9"/>
<circle cx="443.04" cy="102.58" r="4.5" fill="#d97706" fill-opacity="0.9"/>
<circle cx="455.22" cy="97.91" r="4.5" fill="#d97706" fill-opacity="0.9"/>
<circle cx="467.39" cy="100.84" r="4.5" fill="#d97706" fill-opacity="0.9"/>
<circle cx="479.57" cy="99.43" r="4.5" fill="#d97706" fill-opacity="0.9"/>
<circle cx="491.74" cy="102.34" r="4.5" fill="#d97706" fill-opacity="0.9"/>
<circle cx="503.91" cy="99.27" r="4.5" fill="#d97706" fill-opacity="0.9"/>
<circle cx="516.09" cy="99.74" r="4.5" fill="#d97706" fill-opacity="0.9"/>
<circle cx="528.26" cy="100.46" r="4.5" fill="#d97706" fill-opacity="0.9"/>
<circle cx="540.43" cy="98.08" r="4.5" fill="#d97706" fill-opacity="0.9"/>
<circle cx="552.61" cy="102.08" r="4.5" fill="#d97706" fill-opacity="0.9"/>
<circle cx="564.78" cy="101.15" r="4.5" fill="#d97706" fill-opacity="0.9"/>
<circle cx="576.96" cy="100.77" r="4.5" fill="#d97706" fill-opacity="0.9"/>
<circle cx="589.13" cy="99.86" r="4.5" fill="#d97706" fill-opacity="0.9"/>
<circle cx="601.30" cy="100.94" r="4.5" fill="#d97706" fill-opacity="0.9"/>
<circle cx="613.48" cy="99.53" r="4.5" fill="#d97706" fill-opacity="0.9"/>
<circle cx="625.65" cy="99.86" r="4.5" fill="#d97706" fill-opacity="0.9"/>
<circle cx="637.83" cy="103.82" r="4.5" fill="#d97706" fill-opacity="0.9"/>
<circle cx="650.00" cy="99.84" r="4.5" fill="#d97706" fill-opacity="0.9"/>
<circle cx="662.17" cy="100.94" r="4.5" fill="#d97706" fill-opacity="0.9"/>
<circle cx="674.35" cy="100.34" r="4.5" fill="#d97706" fill-opacity="0.9"/>
<circle cx="686.52" cy="98.89" r="4.5" fill="#d97706" fill-opacity="0.9"/>
<circle cx="698.70" cy="96.12" r="4.5" fill="#d97706" fill-opacity="0.9"/>
<circle cx="710.87" cy="95.79" r="4.5" fill="#d97706" fill-opacity="0.9"/>
<circle cx="723.04" cy="95.45" r="4.5" fill="#d97706" fill-opacity="0.9"/>
<circle cx="735.22" cy="95.48" r="4.5" fill="#d97706" fill-opacity="0.9"/>
<circle cx="747.39" cy="95.38" r="4.5" fill="#d97706" fill-opacity="0.9"/>
<circle cx="759.57" cy="95.60" r="4.5" fill="#d97706" fill-opacity="0.9"/>
<circle cx="771.74" cy="95.43" r="4.5" fill="#d97706" fill-opacity="0.9"/>
<circle cx="783.91" cy="95.33" r="4.5" fill="#d97706" fill-opacity="0.9"/>
<circle cx="796.09" cy="95.31" r="4.5" fill="#d97706" fill-opacity="0.9"/>
<circle cx="808.26" cy="94.95" r="4.5" fill="#d97706" fill-opacity="0.9"/>
<circle cx="820.43" cy="95.00" r="4.5" fill="#d97706" fill-opacity="0.9"/>
<circle cx="832.61" cy="94.88" r="4.5" fill="#d97706" fill-opacity="0.9"/>
<circle cx="844.78" cy="94.55" r="4.5" fill="#d97706" fill-opacity="0.9"/>
<circle cx="856.96" cy="94.86" r="4.5" fill="#d97706" fill-opacity="0.9"/>
<circle cx="869.13" cy="94.93" r="4.5" fill="#d97706" fill-opacity="0.9"/>
<circle cx="881.30" cy="95.60" r="4.5" fill="#d97706" fill-opacity="0.9"/>
<circle cx="893.48" cy="95.36" r="4.5" fill="#d97706" fill-opacity="0.9"/>
<circle cx="905.65" cy="95.05" r="4.5" fill="#d97706" fill-opacity="0.9"/>
<circle cx="917.83" cy="94.83" r="4.5" fill="#d97706" fill-opacity="0.9"/>
<circle cx="930.00" cy="94.41" r="4.5" fill="#d97706" fill-opacity="0.9"/>
<rect x="90" y="32" width="18" height="6" fill="#d97706"/>
<text x="114" y="38" font-size="13" fill="#333333">val</text>
<polyline fill="none" stroke="#059669" stroke-width="3" points="90.00,435.83 102.17,169.09 114.35,129.30 126.52,132.97 138.70,113.74 150.87,117.60 163.04,111.54 175.22,252.52 187.39,108.16 199.57,144.87 211.74,105.08 223.91,105.20 236.09,101.51 248.26,102.53 260.43,107.78 272.61,109.07 284.78,103.27 296.96,105.51 309.13,118.65 321.30,100.94 333.48,99.29 345.65,99.27 357.83,105.25 370.00,115.74 382.17,104.46 394.35,99.15 406.52,99.15 418.70,106.78 430.87,100.29 443.04,102.25 455.22,98.29 467.39,100.20 479.57,99.08 491.74,101.56 503.91,99.15 516.09,99.08 528.26,101.37 540.43,99.12 552.61,101.87 564.78,100.32 576.96,100.56 589.13,99.03 601.30,101.63 613.48,100.29 625.65,99.43 637.83,103.77 650.00,100.84 662.17,100.51 674.35,99.84 686.52,98.27 698.70,95.64 710.87,95.53 723.04,95.36 735.22,95.86 747.39,95.19 759.57,94.93 771.74,95.14 783.91,94.76 796.09,94.88 808.26,94.26 820.43,94.62 832.61,94.67 844.78,94.86 856.96,94.50 869.13,94.43 881.30,94.83 893.48,94.60 905.65,94.29 917.83,94.55 930.00,94.17"/>
<circle cx="90.00" cy="435.83" r="4.5" fill="#059669" fill-opacity="0.9"/>
<circle cx="102.17" cy="169.09" r="4.5" fill="#059669" fill-opacity="0.9"/>
<circle cx="114.35" cy="129.30" r="4.5" fill="#059669" fill-opacity="0.9"/>
<circle cx="126.52" cy="132.97" r="4.5" fill="#059669" fill-opacity="0.9"/>
<circle cx="138.70" cy="113.74" r="4.5" fill="#059669" fill-opacity="0.9"/>
<circle cx="150.87" cy="117.60" r="4.5" fill="#059669" fill-opacity="0.9"/>
<circle cx="163.04" cy="111.54" r="4.5" fill="#059669" fill-opacity="0.9"/>
<circle cx="175.22" cy="252.52" r="4.5" fill="#059669" fill-opacity="0.9"/>
<circle cx="187.39" cy="108.16" r="4.5" fill="#059669" fill-opacity="0.9"/>
<circle cx="199.57" cy="144.87" r="4.5" fill="#059669" fill-opacity="0.9"/>
<circle cx="211.74" cy="105.08" r="4.5" fill="#059669" fill-opacity="0.9"/>
<circle cx="223.91" cy="105.20" r="4.5" fill="#059669" fill-opacity="0.9"/>
<circle cx="236.09" cy="101.51" r="4.5" fill="#059669" fill-opacity="0.9"/>
<circle cx="248.26" cy="102.53" r="4.5" fill="#059669" fill-opacity="0.9"/>
<circle cx="260.43" cy="107.78" r="4.5" fill="#059669" fill-opacity="0.9"/>
<circle cx="272.61" cy="109.07" r="4.5" fill="#059669" fill-opacity="0.9"/>
<circle cx="284.78" cy="103.27" r="4.5" fill="#059669" fill-opacity="0.9"/>
<circle cx="296.96" cy="105.51" r="4.5" fill="#059669" fill-opacity="0.9"/>
<circle cx="309.13" cy="118.65" r="4.5" fill="#059669" fill-opacity="0.9"/>
<circle cx="321.30" cy="100.94" r="4.5" fill="#059669" fill-opacity="0.9"/>
<circle cx="333.48" cy="99.29" r="4.5" fill="#059669" fill-opacity="0.9"/>
<circle cx="345.65" cy="99.27" r="4.5" fill="#059669" fill-opacity="0.9"/>
<circle cx="357.83" cy="105.25" r="4.5" fill="#059669" fill-opacity="0.9"/>
<circle cx="370.00" cy="115.74" r="4.5" fill="#059669" fill-opacity="0.9"/>
<circle cx="382.17" cy="104.46" r="4.5" fill="#059669" fill-opacity="0.9"/>
<circle cx="394.35" cy="99.15" r="4.5" fill="#059669" fill-opacity="0.9"/>
<circle cx="406.52" cy="99.15" r="4.5" fill="#059669" fill-opacity="0.9"/>
<circle cx="418.70" cy="106.78" r="4.5" fill="#059669" fill-opacity="0.9"/>
<circle cx="430.87" cy="100.29" r="4.5" fill="#059669" fill-opacity="0.9"/>
<circle cx="443.04" cy="102.25" r="4.5" fill="#059669" fill-opacity="0.9"/>
<circle cx="455.22" cy="98.29" r="4.5" fill="#059669" fill-opacity="0.9"/>
<circle cx="467.39" cy="100.20" r="4.5" fill="#059669" fill-opacity="0.9"/>
<circle cx="479.57" cy="99.08" r="4.5" fill="#059669" fill-opacity="0.9"/>
<circle cx="491.74" cy="101.56" r="4.5" fill="#059669" fill-opacity="0.9"/>
<circle cx="503.91" cy="99.15" r="4.5" fill="#059669" fill-opacity="0.9"/>
<circle cx="516.09" cy="99.08" r="4.5" fill="#059669" fill-opacity="0.9"/>
<circle cx="528.26" cy="101.37" r="4.5" fill="#059669" fill-opacity="0.9"/>
<circle cx="540.43" cy="99.12" r="4.5" fill="#059669" fill-opacity="0.9"/>
<circle cx="552.61" cy="101.87" r="4.5" fill="#059669" fill-opacity="0.9"/>
<circle cx="564.78" cy="100.32" r="4.5" fill="#059669" fill-opacity="0.9"/>
<circle cx="576.96" cy="100.56" r="4.5" fill="#059669" fill-opacity="0.9"/>
<circle cx="589.13" cy="99.03" r="4.5" fill="#059669" fill-opacity="0.9"/>
<circle cx="601.30" cy="101.63" r="4.5" fill="#059669" fill-opacity="0.9"/>
<circle cx="613.48" cy="100.29" r="4.5" fill="#059669" fill-opacity="0.9"/>
<circle cx="625.65" cy="99.43" r="4.5" fill="#059669" fill-opacity="0.9"/>
<circle cx="637.83" cy="103.77" r="4.5" fill="#059669" fill-opacity="0.9"/>
<circle cx="650.00" cy="100.84" r="4.5" fill="#059669" fill-opacity="0.9"/>
<circle cx="662.17" cy="100.51" r="4.5" fill="#059669" fill-opacity="0.9"/>
<circle cx="674.35" cy="99.84" r="4.5" fill="#059669" fill-opacity="0.9"/>
<circle cx="686.52" cy="98.27" r="4.5" fill="#059669" fill-opacity="0.9"/>
<circle cx="698.70" cy="95.64" r="4.5" fill="#059669" fill-opacity="0.9"/>
<circle cx="710.87" cy="95.53" r="4.5" fill="#059669" fill-opacity="0.9"/>
<circle cx="723.04" cy="95.36" r="4.5" fill="#059669" fill-opacity="0.9"/>
<circle cx="735.22" cy="95.86" r="4.5" fill="#059669" fill-opacity="0.9"/>
<circle cx="747.39" cy="95.19" r="4.5" fill="#059669" fill-opacity="0.9"/>
<circle cx="759.57" cy="94.93" r="4.5" fill="#059669" fill-opacity="0.9"/>
<circle cx="771.74" cy="95.14" r="4.5" fill="#059669" fill-opacity="0.9"/>
<circle cx="783.91" cy="94.76" r="4.5" fill="#059669" fill-opacity="0.9"/>
<circle cx="796.09" cy="94.88" r="4.5" fill="#059669" fill-opacity="0.9"/>
<circle cx="808.26" cy="94.26" r="4.5" fill="#059669" fill-opacity="0.9"/>
<circle cx="820.43" cy="94.62" r="4.5" fill="#059669" fill-opacity="0.9"/>
<circle cx="832.61" cy="94.67" r="4.5" fill="#059669" fill-opacity="0.9"/>
<circle cx="844.78" cy="94.86" r="4.5" fill="#059669" fill-opacity="0.9"/>
<circle cx="856.96" cy="94.50" r="4.5" fill="#059669" fill-opacity="0.9"/>
<circle cx="869.13" cy="94.43" r="4.5" fill="#059669" fill-opacity="0.9"/>
<circle cx="881.30" cy="94.83" r="4.5" fill="#059669" fill-opacity="0.9"/>
<circle cx="893.48" cy="94.60" r="4.5" fill="#059669" fill-opacity="0.9"/>
<circle cx="905.65" cy="94.29" r="4.5" fill="#059669" fill-opacity="0.9"/>
<circle cx="917.83" cy="94.55" r="4.5" fill="#059669" fill-opacity="0.9"/>
<circle cx="930.00" cy="94.17" r="4.5" fill="#059669" fill-opacity="0.9"/>
<rect x="270" y="32" width="18" height="6" fill="#059669"/>
<text x="294" y="38" font-size="13" fill="#333333">test</text>
</svg>