<svg xmlns="http://www.w3.org/2000/svg" width="960" height="540">
<rect width="100%" height="100%" fill="#ffffff"/>
<text x="480.0" y="30" font-size="22" text-anchor="middle" fill="#111111">Character Accuracy</text>
<text x="20" y="270.0" font-size="16" transform="rotate(-90 20,270.0)" text-anchor="middle" fill="#333333">Accuracy</text>
<text x="480.0" y="520" font-size="16" text-anchor="middle" fill="#333333">Epoch</text>
<line x1="90" y1="60" x2="90" y2="470" stroke="#333333" stroke-width="2"/>
<line x1="90" y1="470" x2="930" y2="470" stroke="#333333" stroke-width="2"/>
<line x1="90" y1="470.00" x2="930" y2="470.00" stroke="#e5e7eb" stroke-width="1"/>
<text x="80" y="475.00" font-size="12" text-anchor="end" fill="#555555">0.3407</text>
<line x1="90" y1="367.50" x2="930" y2="367.50" stroke="#e5e7eb" stroke-width="1"/>
<text x="80" y="372.50" font-size="12" text-anchor="end" fill="#555555">0.5179</text>
<line x1="90" y1="265.00" x2="930" y2="265.00" stroke="#e5e7eb" stroke-width="1"/>
<text x="80" y="270.00" font-size="12" text-anchor="end" fill="#555555">0.6950</text>
<line x1="90" y1="162.50" x2="930" y2="162.50" stroke="#e5e7eb" stroke-width="1"/>
<text x="80" y="167.50" font-size="12" text-anchor="end" fill="#555555">0.8721</text>
<line x1="90" y1="60.00" x2="930" y2="60.00" stroke="#e5e7eb" stroke-width="1"/>
<text x="80" y="65.00" font-size="12" text-anchor="end" fill="#555555">1.0492</text>
<line x1="90.00" y1="60" x2="90.00" y2="470" stroke="#f3f4f6" stroke-width="1"/>
<text x="90.00" y="492" font-size="12" text-anchor="middle" fill="#555555">1</text>
<line x1="107.14" y1="60" x2="107.14" y2="470" stroke="#f3f4f6" stroke-width="1"/>
<text x="107.14" y="492" font-size="12" text-anchor="middle" fill="#555555">2</text>
<line x1="124.29" y1="60" x2="124.29" y2="470" stroke="#f3f4f6" stroke-width="1"/>
<text x="124.29" y="492" font-size="12" text-anchor="middle" fill="#555555">3</text>
<line x1="141.43" y1="60" x2="141.43" y2="470" stroke="#f3f4f6" stroke-width="1"/>
<text x="141.43" y="492" font-size="12" text-anchor="middle" fill="#555555">4</text>
<line x1="158.57" y1="60" x2="158.57" y2="470" stroke="#f3f4f6" stroke-width="1"/>
<text x="158.57" y="492" font-size="12" text-anchor="middle" fill="#555555">5</text>
<line x1="175.71" y1="60" x2="175.71" y2="470" stroke="#f3f4f6" stroke-width="1"/>
<text x="175.71" y="492" font-size="12" text-anchor="middle" fill="#555555">6</text>
<line x1="192.86" y1="60" x2="192.86" y2="470" stroke="#f3f4f6" stroke-width="1"/>
<text x="192.86" y="492" font-size="12" text-anchor="middle" fill="#555555">7</text>
<line x1="210.00" y1="60" x2="210.00" y2="470" stroke="#f3f4f6" stroke-width="1"/>
<text x="210.00" y="492" font-size="12" text-anchor="middle" fill="#555555">8</text>
<line x1="227.14" y1="60" x2="227.14" y2="470" stroke="#f3f4f6" stroke-width="1"/>
<text x="227.14" y="492" font-size="12" text-anchor="middle" fill="#555555">9</text>
<line x1="244.29" y1="60" x2="244.29" y2="470" stroke="#f3f4f6" stroke-width="1"/>
<text x="244.29" y="492" font-size="12" text-anchor="middle" fill="#555555">10</text>
<line x1="261.43" y1="60" x2="261.43" y2="470" stroke="#f3f4f6" stroke-width="1"/>
<text x="261.43" y="492" font-size="12" text-anchor="middle" fill="#555555">11</text>
<line x1="278.57" y1="60" x2="278.57" y2="470" stroke="#f3f4f6" stroke-width="1"/>
<text x="278.57" y="492" font-size="12" text-anchor="middle" fill="#555555">12</text>
<line x1="295.71" y1="60" x2="295.71" y2="470" stroke="#f3f4f6" stroke-width="1"/>
<text x="295.71" y="492" font-size="12" text-anchor="middle" fill="#555555">13</text>
<line x1="312.86" y1="60" x2="312.86" y2="470" stroke="#f3f4f6" stroke-width="1"/>
<text x="312.86" y="492" font-size="12" text-anchor="middle" fill="#555555">14</text>
<line x1="330.00" y1="60" x2="330.00" y2="470" stroke="#f3f4f6" stroke-width="1"/>
<text x="330.00" y="492" font-size="12" text-anchor="middle" fill="#555555">15</text>
<line x1="347.14" y1="60" x2="347.14" y2="470" stroke="#f3f4f6" stroke-width="1"/>
<text x="347.14" y="492" font-size="12" text-anchor="middle" fill="#555555">16</text>
<line x1="364.29" y1="60" x2="364.29" y2="470" stroke="#f3f4f6" stroke-width="1"/>
<text x="364.29" y="492" font-size="12" text-anchor="middle" fill="#555555">17</text>
<line x1="381.43" y1="60" x2="381.43" y2="470" stroke="#f3f4f6" stroke-width="1"/>
<text x="381.43" y="492" font-size="12" text-anchor="middle" fill="#555555">18</text>
<line x1="398.57" y1="60" x2="398.57" y2="470" stroke="#f3f4f6" stroke-width="1"/>
<text x="398.57" y="492" font-size="12" text-anchor="middle" fill="#555555">19</text>
<line x1="415.71" y1="60" x2="415.71" y2="470" stroke="#f3f4f6" stroke-width="1"/>
<text x="415.71" y="492" font-size="12" text-anchor="middle" fill="#555555">20</text>
<line x1="432.86" y1="60" x2="432.86" y2="470" stroke="#f3f4f6" stroke-width="1"/>
<text x="432.86" y="492" font-size="12" text-anchor="middle" fill="#555555">21</text>
<line x1="450.00" y1="60" x2="450.00" y2="470" stroke="#f3f4f6" stroke-width="1"/>
<text x="450.00" y="492" font-size="12" text-anchor="middle" fill="#555555">22</text>
<line x1="467.14" y1="60" x2="467.14" y2="470" stroke="#f3f4f6" stroke-width="1"/>
<text x="467.14" y="492" font-size="12" text-anchor="middle" fill="#555555">23</text>
<line x1="484.29" y1="60" x2="484.29" y2="470" stroke="#f3f4f6" stroke-width="1"/>
<text x="484.29" y="492" font-size="12" text-anchor="middle" fill="#555555">24</text>
<line x1="501.43" y1="60" x2="501.43" y2="470" stroke="#f3f4f6" stroke-width="1"/>
<text x="501.43" y="492" font-size="12" text-anchor="middle" fill="#555555">25</text>
<line x1="518.57" y1="60" x2="518.57" y2="470" stroke="#f3f4f6" stroke-width="1"/>
<text x="518.57" y="492" font-size="12" text-anchor="middle" fill="#555555">26</text>
<line x1="535.71" y1="60" x2="535.71" y2="470" stroke="#f3f4f6" stroke-width="1"/>
<text x="535.71" y="492" font-size="12" text-anchor="middle" fill="#555555">27</text>
<line x1="552.86" y1="60" x2="552.86" y2="470" stroke="#f3f4f6" stroke-width="1"/>
<text x="552.86" y="492" font-size="12" text-anchor="middle" fill="#555555">28</text>
<line x1="570.00" y1="60" x2="570.00" y2="470" stroke="#f3f4f6" stroke-width="1"/>
<text x="570.00" y="492" font-size="12" text-anchor="middle" fill="#555555">29</text>
<line x1="587.14" y1="60" x2="587.14" y2="470" stroke="#f3f4f6" stroke-width="1"/>
<text x="587.14" y="492" font-size="12" text-anchor="middle" fill="#555555">30</text>
<line x1="604.29" y1="60" x2="604.29" y2="470" stroke="#f3f4f6" stroke-width="1"/>
<text x="604.29" y="492" font-size="12" text-anchor="middle" fill="#555555">31</text>
<line x1="621.43" y1="60" x2="621.43" y2="470" stroke="#f3f4f6" stroke-width="1"/>
<text x="621.43" y="492" font-size="12" text-anchor="middle" fill="#555555">32</text>
<line x1="638.57" y1="60" x2="638.57" y2="470" stroke="#f3f4f6" stroke-width="1"/>
<text x="638.57" y="492" font-size="12" text-anchor="middle" fill="#555555">33</text>
<line x1="655.71" y1="60" x2="655.71" y2="470" stroke="#f3f4f6" stroke-width="1"/>
<text x="655.71" y="492" font-size="12" text-anchor="middle" fill="#555555">34</text>
<line x1="672.86" y1="60" x2="672.86" y2="470" stroke="#f3f4f6" stroke-width="1"/>
<text x="672.86" y="492" font-size="12" text-anchor="middle" fill="#555555">35</text>
<line x1="690.00" y1="60" x2="690.00" y2="470" stroke="#f3f4f6" stroke-width="1"/>
<text x="690.00" y="492" font-size="12" text-anchor="middle" fill="#555555">36</text>
<line x1="707.14" y1="60" x2="707.14" y2="470" stroke="#f3f4f6" stroke-width="1"/>
<text x="707.14" y="492" font-size="12" text-anchor="middle" fill="#555555">37</text>
<line x1="724.29" y1="60" x2="724.29" y2="470" stroke="#f3f4f6" stroke-width="1"/>
<text x="724.29" y="492" font-size="12" text-anchor="middle" fill="#555555">38</text>
<line x1="741.43" y1="60" x2="741.43" y2="470" stroke="#f3f4f6" stroke-width="1"/>
<text x="741.43" y="492" font-size="12" text-anchor="middle" fill="#555555">39</text>
<line x1="758.57" y1="60" x2="758.57" y2="470" stroke="#f3f4f6" stroke-width="1"/>
<text x="758.57" y="492" font-size="12" text-anchor="middle" fill="#555555">40</text>
<line x1="775.71" y1="60" x2="775.71" y2="470" stroke="#f3f4f6" stroke-width="1"/>
<text x="775.71" y="492" font-size="12" text-anchor="middle" fill="#555555">41</text>
<line x1="792.86" y1="60" x2="792.86" y2="470" stroke="#f3f4f6" stroke-width="1"/>
<text x="792.86" y="492" font-size="12" text-anchor="middle" fill="#555555">42</text>
<line x1="810.00" y1="60" x2="810.00" y2="470" stroke="#f3f4f6" stroke-width="1"/>
<text x="810.00" y="492" font-size="12" text-anchor="middle" fill="#555555">43</text>
<line x1="827.14" y1="60" x2="827.14" y2="470" stroke="#f3f4f6" stroke-width="1"/>
<text x="827.14" y="492" font-size="12" text-anchor="middle" fill="#555555">44</text>
<line x1="844.29" y1="60" x2="844.29" y2="470" stroke="#f3f4f6" stroke-width="1"/>
<text x="844.29" y="492" font-size="12" text-anchor="middle" fill="#555555">45</text>
<line x1="861.43" y1="60" x2="861.43" y2="470" stroke="#f3f4f6" stroke-width="1"/>
<text x="861.43" y="492" font-size="12" text-anchor="middle" fill="#555555">46</text>
<line x1="878.57" y1="60" x2="878.57" y2="470" stroke="#f3f4f6" stroke-width="1"/>
<text x="878.57" y="492" font-size="12" text-anchor="middle" fill="#555555">47</text>
<line x1="895.71" y1="60" x2="895.71" y2="470" stroke="#f3f4f6" stroke-width="1"/>
<text x="895.71" y="492" font-size="12" text-anchor="middle" fill="#555555">48</text>
<line x1="912.86" y1="60" x2="912.86" y2="470" stroke="#f3f4f6" stroke-width="1"/>
<text x="912.86" y="492" font-size="12" text-anchor="middle" fill="#555555">49</text>
<line x1="930.00" y1="60" x2="930.00" y2="470" stroke="#f3f4f6" stroke-width="1"/>
<text x="930.00" y="492" font-size="12" text-anchor="middle" fill="#555555">50</text>
<polyline fill="none" stroke="#d97706" stroke-width="3" points="90.00,434.75 107.14,126.57 124.29,134.78 141.43,112.42 158.57,100.28 175.71,98.07 192.86,100.40 210.00,96.40 227.14,95.21 244.29,96.16 261.43,97.19 278.57,96.67 295.71,95.23 312.86,95.18 330.00,95.58 347.14,95.78 364.29,94.39 381.43,94.58 398.57,95.20 415.71,95.69 432.86,96.19 450.00,94.59 467.14,94.74 484.29,94.17 501.43,94.64 518.57,94.24 535.71,94.20 552.86,95.24 570.00,94.55 587.14,96.84 604.29,94.46 621.43,94.19 638.57,94.41 655.71,94.63 672.86,94.68 690.00,94.95 707.14,94.40 724.29,94.88 741.43,94.66 758.57,94.27 775.71,94.71 792.86,94.42 810.00,94.54 827.14,95.06 844.29,94.44 861.43,95.04 878.57,94.84 895.71,96.91 912.86,94.84 930.00,96.11"/>
<circle cx="90.00" cy="434.75" r="4.5" fill="#d97706" fill-opacity="0.9"/>
<circle cx="107.14" cy="126.57" r="4.5" fill="#d97706" fill-opacity="0.9"/>
<circle cx="124.29" cy="134.78" r="4.5" fill="#d97706" fill-opacity="0.9"/>
<circle cx="141.43" cy="112.42" r="4.5" fill="#d97706" fill-opacity="0.9"/>
<circle cx="158.57" cy="100.28" r="4.5" fill="#d97706" fill-opacity="0.9"/>
<circle cx="175.71" cy="98.07" r="4.5" fill="#d97706" fill-opacity="0.9"/>
<circle cx="192.86" cy="100.40" r="4.5" fill="#d97706" fill-opacity="0.9"/>
<circle cx="210.00" cy="96.40" r="4.5" fill="#d97706" fill-opacity="0.9"/>
<circle cx="227.14" cy="95.21" r="4.5" fill="#d97706" fill-opacity="0.9"/>
<circle cx="244.29" cy="96.16" r="4.5" fill="#d97706" fill-opacity="0.9"/>
<circle cx="261.43" cy="97.19" r="4.5" fill="#d97706" fill-opacity="0.9"/>
<circle cx="278.57" cy="96.67" r="4.5" fill="#d97706" fill-opacity="0.9"/>
<circle cx="295.71" cy="95.23" r="4.5" fill="#d97706" fill-opacity="0.9"/>
<circle cx="312.86" cy="95.18" r="4.5" fill="#d97706" fill-opacity="0.9"/>
<circle cx="330.00" cy="95.58" r="4.5" fill="#d97706" fill-opacity="0.9"/>
<circle cx="347.14" cy="95.78" r="4.5" fill="#d97706" fill-opacity="0.9"/>
<circle cx="364.29" cy="94.39" r="4.5" fill="#d97706" fill-opacity="0.9"/>
<circle cx="381.43" cy="94.58" r="4.5" fill="#d97706" fill-opacity="0.9"/>
<circle cx="398.57" cy="95.20" r="4.5" fill="#d97706" fill-opacity="0.9"/>
<circle cx="415.71" cy="95.69" r="4.5" fill="#d97706" fill-opacity="0.9"/>
<circle cx="432.86" cy="96.19" r="4.5" fill="#d97706" fill-opacity="0.9"/>
<circle cx="450.00" cy="94.59" r="4.5" fill="#d97706" fill-opacity="0.9"/>
<circle cx="467.14" cy="94.74" r="4.5" fill="#d97706" fill-opacity="0.9"/>
<circle cx="484.29" cy="94.17" r="4.5" fill="#d97706" fill-opacity="0.9"/>
<circle cx="501.43" cy="94.64" r="4.5" fill="#d97706" fill-opacity="0.9"/>
<circle cx="518.57" cy="94.24" r="4.5" fill="#d97706" fill-opacity="0.9"/>
<circle cx="535.71" cy="94.20" r="4.5" fill="#d97706" fill-opacity="0.9"/>
<circle cx="552.86" cy="95.24" r="4.5" fill="#d97706" fill-opacity="0.9"/>
<circle cx="570.00" cy="94.55" r="4.5" fill="#d97706" fill-opacity="0.9"/>
<circle cx="587.14" cy="96.84" r="4.5" fill="#d97706" fill-opacity="0.9"/>
<circle cx="604.29" cy="94.46" r="4.5" fill="#d97706" fill-opacity="0.9"/>
<circle cx="621.43" cy="94.19" r="4.5" fill="#d97706" fill-opacity="0.9"/>
<circle cx="638.57" cy="94.41" r="4.5" fill="#d97706" fill-opacity="0.9"/>
<circle cx="655.71" cy="94.63" r="4.5" fill="#d97706" fill-opacity="0.9"/>
<circle cx="672.86" cy="94.68" r="4.5" fill="#d97706" fill-opacity="0.9"/>
<circle cx="690.00" cy="94.95" r="4.5" fill="#d97706" fill-opacity="0.9"/>
<circle cx="707.14" cy="94.40" r="4.5" fill="#d97706" fill-opacity="0.9"/>
<circle cx="724.29" cy="94.88" r="4.5" fill="#d97706" fill-opacity="0.9"/>
<circle cx="741.43" cy="94.66" r="4.5" fill="#d97706" fill-opacity="0.9"/>
<circle cx="758.57" cy="94.27" r="4.5" fill="#d97706" fill-opacity="0.9"/>
<circle cx="775.71" cy="94.71" r="4.5" fill="#d97706" fill-opacity="0.9"/>
<circle cx="792.86" cy="94.42" r="4.5" fill="#d97706" fill-opacity="0.9"/>
<circle cx="810.00" cy="94.54" r="4.5" fill="#d97706" fill-opacity="0.9"/>
<circle cx="827.14" cy="95.06" r="4.5" fill="#d97706" fill-opacity="0.9"/>
<circle cx="844.29" cy="94.44" r="4.5" fill="#d97706" fill-opacity="0.9"/>
<circle cx="861.43" cy="95.04" r="4.5" fill="#d97706" fill-opacity="0.9"/>
<circle cx="878.57" cy="94.84" r="4.5" fill="#d97706" fill-opacity="0.9"/>
<circle cx="895.71" cy="96.91" r="4.5" fill="#d97706" fill-opacity="0.9"/>
<circle cx="912.86" cy="94.84" r="4.5" fill="#d97706" fill-opacity="0.9"/>
<circle cx="930.00" cy="96.11" r="4.5" fill="#d97706" fill-opacity="0.9"/>
<rect x="90" y="32" width="18" height="6" fill="#d97706"/>
<text x="114" y="38" font-size="13" fill="#333333">val</text>
<polyline fill="none" stroke="#059669" stroke-width="3" points="90.00,435.83 107.14,127.99 124.29,134.58 141.43,112.85 158.57,100.28 175.71,98.18 192.86,100.52 210.00,96.51 227.14,95.35 244.29,96.10 261.43,97.25 278.57,96.74 295.71,95.22 312.86,95.25 330.00,95.77 347.14,95.94 364.29,94.18 381.43,94.81 398.57,95.06 415.71,95.80 432.86,96.41 450.00,94.65 467.14,95.08 484.29,94.35 501.43,94.42 518.57,94.26 535.71,94.31 552.86,95.56 570.00,94.44 587.14,97.19 604.29,94.44 621.43,94.40 638.57,94.49 655.71,94.52 672.86,94.42 690.00,94.80 707.14,94.36 724.29,94.61 741.43,94.52 758.57,94.46 775.71,94.71 792.86,94.63 810.00,94.70 827.14,94.85 844.29,94.33 861.43,95.01 878.57,94.72 895.71,96.83 912.86,94.82 930.00,96.30"/>
<circle cx="90.00" cy="435.83" r="4.5" fill="#059669" fill-opacity="0.9"/>
<circle cx="107.14" cy="127.99" r="4.5" fill="#059669" fill-opacity="0.9"/>
<circle cx="124.29" cy="134.58" r="4.5" fill="#059669" fill-opacity="0.9"/>
<circle cx="141.43" cy="112.85" r="4.5" fill="#059669" fill-opacity="0.9"/>
<circle cx="158.57" cy="100.28" r="4.5" fill="#059669" fill-opacity="0.9"/>
<circle cx="175.71" cy="98.18" r="4.5" fill="#059669" fill-opacity="0.9"/>
<circle cx="192.86" cy="100.52" r="4.5" fill="#059669" fill-opacity="0.9"/>
<circle cx="210.00" cy="96.51" r="4.5" fill="#059669" fill-opacity="0.9"/>
<circle cx="227.14" cy="95.35" r="4.5" fill="#059669" fill-opacity="0.9"/>
<circle cx="244.29" cy="96.10" r="4.5" fill="#059669" fill-opacity="0.9"/>
<circle cx="261.43" cy="97.25" r="4.5" fill="#059669" fill-opacity="0.9"/>
<circle cx="278.57" cy="96.74" r="4.5" fill="#059669" fill-opacity="0.9"/>
<circle cx="295.71" cy="95.22" r="4.5" fill="#059669" fill-opacity="0.9"/>
<circle cx="312.86" cy="95.25" r="4.5" fill="#059669" fill-opacity="0.9"/>
<circle cx="330.00" cy="95.77" r="4.5" fill="#059669" fill-opacity="0.9"/>
<circle cx="347.14" cy="95.94" r="4.5" fill="#059669" fill-opacity="0.9"/>
<circle cx="364.29" cy="94.18" r="4.5" fill="#059669" fill-opacity="0.9"/>
<circle cx="381.43" cy="94.81" r="4.5" fill="#059669" fill-opacity="0.9"/>
<circle cx="398.57" cy="95.06" r="4.5" fill="#059669" fill-opacity="0.9"/>
<circle cx="415.71" cy="95.80" r="4.5" fill="#059669" fill-opacity="0.9"/>
<circle cx="432.86" cy="96.41" r="4.5" fill="#059669" fill-opacity="0.9"/>
<circle cx="450.00" cy="94.65" r="4.5" fill="#059669" fill-opacity="0.9"/>
<circle cx="467.14" cy="95.08" r="4.5" fill="#059669" fill-opacity="0.9"/>
<circle cx="484.29" cy="94.35" r="4.5" fill="#059669" fill-opacity="0.9"/>
<circle cx="501.43" cy="94.42" r="4.5" fill="#059669" fill-opacity="0.9"/>
<circle cx="518.57" cy="94.26" r="4.5" fill="#059669" fill-opacity="0.9"/>
<circle cx="535.71" cy="94.31" r="4.5" fill="#059669" fill-opacity="0.9"/>
<circle cx="552.86" cy="95.56" r="4.5" fill="#059669" fill-opacity="0.9"/>
<circle cx="570.00" cy="94.44" r="4.5" fill="#059669" fill-opacity="0.9"/>
<circle cx="587.14" cy="97.19" r="4.5" fill="#059669" fill-opacity="0.9"/>
<circle cx="604.29" cy="94.44" r="4.5" fill="#059669" fill-opacity="0.9"/>
<circle cx="621.43" cy="94.40" r="4.5" fill="#059669" fill-opacity="0.9"/>
<circle cx="638.57" cy="94.49" r="4.5" fill="#059669" fill-opacity="0.9"/>
<circle cx="655.71" cy="94.52" r="4.5" fill="#059669" fill-opacity="0.9"/>
<circle cx="672.86" cy="94.42" r="4.5" fill="#059669" fill-opacity="0.9"/>
<circle cx="690.00" cy="94.80" r="4.5" fill="#059669" fill-opacity="0.9"/>
<circle cx="707.14" cy="94.36" r="4.5" fill="#059669" fill-opacity="0.9"/>
<circle cx="724.29" cy="94.61" r="4.5" fill="#059669" fill-opacity="0.9"/>
<circle cx="741.43" cy="94.52" r="4.5" fill="#059669" fill-opacity="0.9"/>
<circle cx="758.57" cy="94.46" r="4.5" fill="#059669" fill-opacity="0.9"/>
<circle cx="775.71" cy="94.71" r="4.5" fill="#059669" fill-opacity="0.9"/>
<circle cx="792.86" cy="94.63" r="4.5" fill="#059669" fill-opacity="0.9"/>
<circle cx="810.00" cy="94.70" r="4.5" fill="#059669" fill-opacity="0.9"/>
<circle cx="827.14" cy="94.85" r="4.5" fill="#059669" fill-opacity="0.9"/>
<circle cx="844.29" cy="94.33" r="4.5" fill="#059669" fill-opacity="0.9"/>
<circle cx="861.43" cy="95.01" r="4.5" fill="#059669" fill-opacity="0.9"/>
<circle cx="878.57" cy="94.72" r="4.5" fill="#059669" fill-opacity="0.9"/>
<circle cx="895.71" cy="96.83" r="4.5" fill="#059669" fill-opacity="0.9"/>
<circle cx="912.86" cy="94.82" r="4.5" fill="#059669" fill-opacity="0.9"/>
<circle cx="930.00" cy="96.30" r="4.5" fill="#059669" fill-opacity="0.9"/>
<rect x="270" y="32" width="18" height="6" fill="#059669"/>
<text x="294" y="38" font-size="13" fill="#333333">test</text>
</svg>