<svg xmlns="http://www.w3.org/2000/svg" width="960" height="540">
<rect width="100%" height="100%" fill="#ffffff"/>
<text x="480.0" y="30" font-size="22" text-anchor="middle" fill="#111111">Contrastive Pretrain Loss</text>
<text x="20" y="270.0" font-size="16" transform="rotate(-90 20,270.0)" text-anchor="middle" fill="#333333">Loss</text>
<text x="480.0" y="520" font-size="16" text-anchor="middle" fill="#333333">Epoch</text>
<line x1="90" y1="60" x2="90" y2="470" stroke="#333333" stroke-width="2"/>
<line x1="90" y1="470" x2="930" y2="470" stroke="#333333" stroke-width="2"/>
<line x1="90" y1="470.00" x2="930" y2="470.00" stroke="#e5e7eb" stroke-width="1"/>
<text x="80" y="475.00" font-size="12" text-anchor="end" fill="#555555">-0.4844</text>
<line x1="90" y1="367.50" x2="930" y2="367.50" stroke="#e5e7eb" stroke-width="1"/>
<text x="80" y="372.50" font-size="12" text-anchor="end" fill="#555555">0.9688</text>
<line x1="90" y1="265.00" x2="930" y2="265.00" stroke="#e5e7eb" stroke-width="1"/>
<text x="80" y="270.00" font-size="12" text-anchor="end" fill="#555555">2.4220</text>
<line x1="90" y1="162.50" x2="930" y2="162.50" stroke="#e5e7eb" stroke-width="1"/>
<text x="80" y="167.50" font-size="12" text-anchor="end" fill="#555555">3.8751</text>
<line x1="90" y1="60.00" x2="930" y2="60.00" stroke="#e5e7eb" stroke-width="1"/>
<text x="80" y="65.00" font-size="12" text-anchor="end" fill="#555555">5.3283</text>
<line x1="90.00" y1="60" x2="90.00" y2="470" stroke="#f3f4f6" stroke-width="1"/>
<text x="90.00" y="492" font-size="12" text-anchor="middle" fill="#555555">1</text>
<line x1="107.14" y1="60" x2="107.14" y2="470" stroke="#f3f4f6" stroke-width="1"/>
<text x="107.14" y="492" font-size="12" text-anchor="middle" fill="#555555">2</text>
<line x1="124.29" y1="60" x2="124.29" y2="470" stroke="#f3f4f6" stroke-width="1"/>
<text x="124.29" y="492" font-size="12" text-anchor="middle" fill="#555555">3</text>
<line x1="141.43" y1="60" x2="141.43" y2="470" stroke="#f3f4f6" stroke-width="1"/>
<text x="141.43" y="492" font-size="12" text-anchor="middle" fill="#555555">4</text>
<line x1="158.57" y1="60" x2="158.57" y2="470" stroke="#f3f4f6" stroke-width="1"/>
<text x="158.57" y="492" font-size="12" text-anchor="middle" fill="#555555">5</text>
<line x1="175.71" y1="60" x2="175.71" y2="470" stroke="#f3f4f6" stroke-width="1"/>
<text x="175.71" y="492" font-size="12" text-anchor="middle" fill="#555555">6</text>
<line x1="192.86" y1="60" x2="192.86" y2="470" stroke="#f3f4f6" stroke-width="1"/>
<text x="192.86" y="492" font-size="12" text-anchor="middle" fill="#555555">7</text>
<line x1="210.00" y1="60" x2="210.00" y2="470" stroke="#f3f4f6" stroke-width="1"/>
<text x="210.00" y="492" font-size="12" text-anchor="middle" fill="#555555">8</text>
<line x1="227.14" y1="60" x2="227.14" y2="470" stroke="#f3f4f6" stroke-width="1"/>
<text x="227.14" y="492" font-size="12" text-anchor="middle" fill="#555555">9</text>
<line x1="244.29" y1="60" x2="244.29" y2="470" stroke="#f3f4f6" stroke-width="1"/>
<text x="244.29" y="492" font-size="12" text-anchor="middle" fill="#555555">10</text>
<line x1="261.43" y1="60" x2="261.43" y2="470" stroke="#f3f4f6" stroke-width="1"/>
<text x="261.43" y="492" font-size="12" text-anchor="middle" fill="#555555">11</text>
<line x1="278.57" y1="60" x2="278.57" y2="470" stroke="#f3f4f6" stroke-width="1"/>
<text x="278.57" y="492" font-size="12" text-anchor="middle" fill="#555555">12</text>
<line x1="295.71" y1="60" x2="295.71" y2="470" stroke="#f3f4f6" stroke-width="1"/>
<text x="295.71" y="492" font-size="12" text-anchor="middle" fill="#555555">13</text>
<line x1="312.86" y1="60" x2="312.86" y2="470" stroke="#f3f4f6" stroke-width="1"/>
<text x="312.86" y="492" font-size="12" text-anchor="middle" fill="#555555">14</text>
<line x1="330.00" y1="60" x2="330.00" y2="470" stroke="#f3f4f6" stroke-width="1"/>
<text x="330.00" y="492" font-size="12" text-anchor="middle" fill="#555555">15</text>
<line x1="347.14" y1="60" x2="347.14" y2="470" stroke="#f3f4f6" stroke-width="1"/>
<text x="347.14" y="492" font-size="12" text-anchor="middle" fill="#555555">16</text>
<line x1="364.29" y1="60" x2="364.29" y2="470" stroke="#f3f4f6" stroke-width="1"/>
<text x="364.29" y="492" font-size="12" text-anchor="middle" fill="#555555">17</text>
<line x1="381.43" y1="60" x2="381.43" y2="470" stroke="#f3f4f6" stroke-width="1"/>
<text x="381.43" y="492" font-size="12" text-anchor="middle" fill="#555555">18</text>
<line x1="398.57" y1="60" x2="398.57" y2="470" stroke="#f3f4f6" stroke-width="1"/>
<text x="398.57" y="492" font-size="12" text-anchor="middle" fill="#555555">19</text>
<line x1="415.71" y1="60" x2="415.71" y2="470" stroke="#f3f4f6" stroke-width="1"/>
<text x="415.71" y="492" font-size="12" text-anchor="middle" fill="#555555">20</text>
<line x1="432.86" y1="60" x2="432.86" y2="470" stroke="#f3f4f6" stroke-width="1"/>
<text x="432.86" y="492" font-size="12" text-anchor="middle" fill="#555555">21</text>
<line x1="450.00" y1="60" x2="450.00" y2="470" stroke="#f3f4f6" stroke-width="1"/>
<text x="450.00" y="492" font-size="12" text-anchor="middle" fill="#555555">22</text>
<line x1="467.14" y1="60" x2="467.14" y2="470" stroke="#f3f4f6" stroke-width="1"/>
<text x="467.14" y="492" font-size="12" text-anchor="middle" fill="#555555">23</text>
<line x1="484.29" y1="60" x2="484.29" y2="470" stroke="#f3f4f6" stroke-width="1"/>
<text x="484.29" y="492" font-size="12" text-anchor="middle" fill="#555555">24</text>
<line x1="501.43" y1="60" x2="501.43" y2="470" stroke="#f3f4f6" stroke-width="1"/>
<text x="501.43" y="492" font-size="12" text-anchor="middle" fill="#555555">25</text>
<line x1="518.57" y1="60" x2="518.57" y2="470" stroke="#f3f4f6" stroke-width="1"/>
<text x="518.57" y="492" font-size="12" text-anchor="middle" fill="#555555">26</text>
<line x1="535.71" y1="60" x2="535.71" y2="470" stroke="#f3f4f6" stroke-width="1"/>
<text x="535.71" y="492" font-size="12" text-anchor="middle" fill="#555555">27</text>
<line x1="552.86" y1="60" x2="552.86" y2="470" stroke="#f3f4f6" stroke-width="1"/>
<text x="552.86" y="492" font-size="12" text-anchor="middle" fill="#555555">28</text>
<line x1="570.00" y1="60" x2="570.00" y2="470" stroke="#f3f4f6" stroke-width="1"/>
<text x="570.00" y="492" font-size="12" text-anchor="middle" fill="#555555">29</text>
<line x1="587.14" y1="60" x2="587.14" y2="470" stroke="#f3f4f6" stroke-width="1"/>
<text x="587.14" y="492" font-size="12" text-anchor="middle" fill="#555555">30</text>
<line x1="604.29" y1="60" x2="604.29" y2="470" stroke="#f3f4f6" stroke-width="1"/>
<text x="604.29" y="492" font-size="12" text-anchor="middle" fill="#555555">31</text>
<line x1="621.43" y1="60" x2="621.43" y2="470" stroke="#f3f4f6" stroke-width="1"/>
<text x="621.43" y="492" font-size="12" text-anchor="middle" fill="#555555">32</text>
<line x1="638.57" y1="60" x2="638.57" y2="470" stroke="#f3f4f6" stroke-width="1"/>
<text x="638.57" y="492" font-size="12" text-anchor="middle" fill="#555555">33</text>
<line x1="655.71" y1="60" x2="655.71" y2="470" stroke="#f3f4f6" stroke-width="1"/>
<text x="655.71" y="492" font-size="12" text-anchor="middle" fill="#555555">34</text>
<line x1="672.86" y1="60" x2="672.86" y2="470" stroke="#f3f4f6" stroke-width="1"/>
<text x="672.86" y="492" font-size="12" text-anchor="middle" fill="#555555">35</text>
<line x1="690.00" y1="60" x2="690.00" y2="470" stroke="#f3f4f6" stroke-width="1"/>
<text x="690.00" y="492" font-size="12" text-anchor="middle" fill="#555555">36</text>
<line x1="707.14" y1="60" x2="707.14" y2="470" stroke="#f3f4f6" stroke-width="1"/>
<text x="707.14" y="492" font-size="12" text-anchor="middle" fill="#555555">37</text>
<line x1="724.29" y1="60" x2="724.29" y2="470" stroke="#f3f4f6" stroke-width="1"/>
<text x="724.29" y="492" font-size="12" text-anchor="middle" fill="#555555">38</text>
<line x1="741.43" y1="60" x2="741.43" y2="470" stroke="#f3f4f6" stroke-width="1"/>
<text x="741.43" y="492" font-size="12" text-anchor="middle" fill="#555555">39</text>
<line x1="758.57" y1="60" x2="758.57" y2="470" stroke="#f3f4f6" stroke-width="1"/>
<text x="758.57" y="492" font-size="12" text-anchor="middle" fill="#555555">40</text>
<line x1="775.71" y1="60" x2="775.71" y2="470" stroke="#f3f4f6" stroke-width="1"/>
<text x="775.71" y="492" font-size="12" text-anchor="middle" fill="#555555">41</text>
<line x1="792.86" y1="60" x2="792.86" y2="470" stroke="#f3f4f6" stroke-width="1"/>
<text x="792.86" y="492" font-size="12" text-anchor="middle" fill="#555555">42</text>
<line x1="810.00" y1="60" x2="810.00" y2="470" stroke="#f3f4f6" stroke-width="1"/>
<text x="810.00" y="492" font-size="12" text-anchor="middle" fill="#555555">43</text>
<line x1="827.14" y1="60" x2="827.14" y2="470" stroke="#f3f4f6" stroke-width="1"/>
<text x="827.14" y="492" font-size="12" text-anchor="middle" fill="#555555">44</text>
<line x1="844.29" y1="60" x2="844.29" y2="470" stroke="#f3f4f6" stroke-width="1"/>
<text x="844.29" y="492" font-size="12" text-anchor="middle" fill="#555555">45</text>
<line x1="861.43" y1="60" x2="861.43" y2="470" stroke="#f3f4f6" stroke-width="1"/>
<text x="861.43" y="492" font-size="12" text-anchor="middle" fill="#555555">46</text>
<line x1="878.57" y1="60" x2="878.57" y2="470" stroke="#f3f4f6" stroke-width="1"/>
<text x="878.57" y="492" font-size="12" text-anchor="middle" fill="#555555">47</text>
<line x1="895.71" y1="60" x2="895.71" y2="470" stroke="#f3f4f6" stroke-width="1"/>
<text x="895.71" y="492" font-size="12" text-anchor="middle" fill="#555555">48</text>
<line x1="912.86" y1="60" x2="912.86" y2="470" stroke="#f3f4f6" stroke-width="1"/>
<text x="912.86" y="492" font-size="12" text-anchor="middle" fill="#555555">49</text>
<line x1="930.00" y1="60" x2="930.00" y2="470" stroke="#f3f4f6" stroke-width="1"/>
<text x="930.00" y="492" font-size="12" text-anchor="middle" fill="#555555">50</text>
<polyline fill="none" stroke="#0f766e" stroke-width="3" points="90.00,216.40 107.14,94.17 124.29,168.27 141.43,197.59 158.57,200.24 175.71,205.71 192.86,206.51 210.00,206.59 227.14,209.67 244.29,210.79 261.43,210.79 278.57,210.95 295.71,211.02 312.86,211.09 330.00,211.01 347.14,211.13 364.29,211.21 381.43,211.24 398.57,211.25 415.71,211.25 432.86,435.83 450.00,435.83 467.14,435.83 484.29,435.83 501.43,435.83 518.57,435.83 535.71,435.83 552.86,435.83 570.00,435.83 587.14,435.83 604.29,435.83 621.43,435.83 638.57,435.83 655.71,435.83 672.86,435.83 690.00,435.83 707.14,435.83 724.29,435.83 741.43,435.83 758.57,435.83 775.71,435.83 792.86,435.83 810.00,435.83 827.14,435.83 844.29,435.83 861.43,435.83 878.57,435.83 895.71,435.83 912.86,435.83 930.00,435.83"/>
<circle cx="90.00" cy="216.40" r="4.5" fill="#0f766e" fill-opacity="0.9"/>
<circle cx="107.14" cy="94.17" r="4.5" fill="#0f766e" fill-opacity="0.9"/>
<circle cx="124.29" cy="168.27" r="4.5" fill="#0f766e" fill-opacity="0.9"/>
<circle cx="141.43" cy="197.59" r="4.5" fill="#0f766e" fill-opacity="0.9"/>
<circle cx="158.57" cy="200.24" r="4.5" fill="#0f766e" fill-opacity="0.9"/>
<circle cx="175.71" cy="205.71" r="4.5" fill="#0f766e" fill-opacity="0.9"/>
<circle cx="192.86" cy="206.51" r="4.5" fill="#0f766e" fill-opacity="0.9"/>
<circle cx="210.00" cy="206.59" r="4.5" fill="#0f766e" fill-opacity="0.9"/>
<circle cx="227.14" cy="209.67" r="4.5" fill="#0f766e" fill-opacity="0.9"/>
<circle cx="244.29" cy="210.79" r="4.5" fill="#0f766e" fill-opacity="0.9"/>
<circle cx="261.43" cy="210.79" r="4.5" fill="#0f766e" fill-opacity="0.9"/>
<circle cx="278.57" cy="210.95" r="4.5" fill="#0f766e" fill-opacity="0.9"/>
<circle cx="295.71" cy="211.02" r="4.5" fill="#0f766e" fill-opacity="0.9"/>
<circle cx="312.86" cy="211.09" r="4.5" fill="#0f766e" fill-opacity="0.9"/>
<circle cx="330.00" cy="211.01" r="4.5" fill="#0f766e" fill-opacity="0.9"/>
<circle cx="347.14" cy="211.13" r="4.5" fill="#0f766e" fill-opacity="0.9"/>
<circle cx="364.29" cy="211.21" r="4.5" fill="#0f766e" fill-opacity="0.9"/>
<circle cx="381.43" cy="211.24" r="4.5" fill="#0f766e" fill-opacity="0.9"/>
<circle cx="398.57" cy="211.25" r="4.5" fill="#0f766e" fill-opacity="0.9"/>
<circle cx="415.71" cy="211.25" r="4.5" fill="#0f766e" fill-opacity="0.9"/>
<circle cx="432.86" cy="435.83" r="4.5" fill="#0f766e" fill-opacity="0.9"/>
<circle cx="450.00" cy="435.83" r="4.5" fill="#0f766e" fill-opacity="0.9"/>
<circle cx="467.14" cy="435.83" r="4.5" fill="#0f766e" fill-opacity="0.9"/>
<circle cx="484.29" cy="435.83" r="4.5" fill="#0f766e" fill-opacity="0.9"/>
<circle cx="501.43" cy="435.83" r="4.5" fill="#0f766e" fill-opacity="0.9"/>
<circle cx="518.57" cy="435.83" r="4.5" fill="#0f766e" fill-opacity="0.9"/>
<circle cx="535.71" cy="435.83" r="4.5" fill="#0f766e" fill-opacity="0.9"/>
<circle cx="552.86" cy="435.83" r="4.5" fill="#0f766e" fill-opacity="0.9"/>
<circle cx="570.00" cy="435.83" r="4.5" fill="#0f766e" fill-opacity="0.9"/>
<circle cx="587.14" cy="435.83" r="4.5" fill="#0f766e" fill-opacity="0.9"/>
<circle cx="604.29" cy="435.83" r="4.5" fill="#0f766e" fill-opacity="0.9"/>
<circle cx="621.43" cy="435.83" r="4.5" fill="#0f766e" fill-opacity="0.9"/>
<circle cx="638.57" cy="435.83" r="4.5" fill="#0f766e" fill-opacity="0.9"/>
<circle cx="655.71" cy="435.83" r="4.5" fill="#0f766e" fill-opacity="0.9"/>
<circle cx="672.86" cy="435.83" r="4.5" fill="#0f766e" fill-opacity="0.9"/>
<circle cx="690.00" cy="435.83" r="4.5" fill="#0f766e" fill-opacity="0.9"/>
<circle cx="707.14" cy="435.83" r="4.5" fill="#0f766e" fill-opacity="0.9"/>
<circle cx="724.29" cy="435.83" r="4.5" fill="#0f766e" fill-opacity="0.9"/>
<circle cx="741.43" cy="435.83" r="4.5" fill="#0f766e" fill-opacity="0.9"/>
<circle cx="758.57" cy="435.83" r="4.5" fill="#0f766e" fill-opacity="0.9"/>
<circle cx="775.71" cy="435.83" r="4.5" fill="#0f766e" fill-opacity="0.9"/>
<circle cx="792.86" cy="435.83" r="4.5" fill="#0f766e" fill-opacity="0.9"/>
<circle cx="810.00" cy="435.83" r="4.5" fill="#0f766e" fill-opacity="0.9"/>
<circle cx="827.14" cy="435.83" r="4.5" fill="#0f766e" fill-opacity="0.9"/>
<circle cx="844.29" cy="435.83" r="4.5" fill="#0f766e" fill-opacity="0.9"/>
<circle cx="861.43" cy="435.83" r="4.5" fill="#0f766e" fill-opacity="0.9"/>
<circle cx="878.57" cy="435.83" r="4.5" fill="#0f766e" fill-opacity="0.9"/>
<circle cx="895.71" cy="435.83" r="4.5" fill="#0f766e" fill-opacity="0.9"/>
<circle cx="912.86" cy="435.83" r="4.5" fill="#0f766e" fill-opacity="0.9"/>
<circle cx="930.00" cy="435.83" r="4.5" fill="#0f766e" fill-opacity="0.9"/>
<rect x="90" y="32" width="18" height="6" fill="#0f766e"/>
<text x="114" y="38" font-size="13" fill="#333333">pretrain</text>
</svg>