<svg xmlns="http://www.w3.org/2000/svg" width="960" height="540">
<rect width="100%" height="100%" fill="#ffffff"/>
<text x="480.0" y="30" font-size="22" text-anchor="middle" fill="#111111">Edit Distance</text>
<text x="20" y="270.0" font-size="16" transform="rotate(-90 20,270.0)" text-anchor="middle" fill="#333333">Distance</text>
<text x="480.0" y="520" font-size="16" text-anchor="middle" fill="#333333">Epoch</text>
<line x1="90" y1="60" x2="90" y2="470" stroke="#333333" stroke-width="2"/>
<line x1="90" y1="470" x2="930" y2="470" stroke="#333333" stroke-width="2"/>
<line x1="90" y1="470.00" x2="930" y2="470.00" stroke="#e5e7eb" stroke-width="1"/>
<text x="80" y="475.00" font-size="12" text-anchor="end" fill="#555555">-0.2451</text>
<line x1="90" y1="367.50" x2="930" y2="367.50" stroke="#e5e7eb" stroke-width="1"/>
<text x="80" y="372.50" font-size="12" text-anchor="end" fill="#555555">0.6375</text>
<line x1="90" y1="265.00" x2="930" y2="265.00" stroke="#e5e7eb" stroke-width="1"/>
<text x="80" y="270.00" font-size="12" text-anchor="end" fill="#555555">1.5201</text>
<line x1="90" y1="162.50" x2="930" y2="162.50" stroke="#e5e7eb" stroke-width="1"/>
<text x="80" y="167.50" font-size="12" text-anchor="end" fill="#555555">2.4027</text>
<line x1="90" y1="60.00" x2="930" y2="60.00" stroke="#e5e7eb" stroke-width="1"/>
<text x="80" y="65.00" font-size="12" text-anchor="end" fill="#555555">3.2853</text>
<line x1="90.00" y1="60" x2="90.00" y2="470" stroke="#f3f4f6" stroke-width="1"/>
<text x="90.00" y="492" font-size="12" text-anchor="middle" fill="#555555">1</text>
<line x1="107.14" y1="60" x2="107.14" y2="470" stroke="#f3f4f6" stroke-width="1"/>
<text x="107.14" y="492" font-size="12" text-anchor="middle" fill="#555555">2</text>
<line x1="124.29" y1="60" x2="124.29" y2="470" stroke="#f3f4f6" stroke-width="1"/>
<text x="124.29" y="492" font-size="12" text-anchor="middle" fill="#555555">3</text>
<line x1="141.43" y1="60" x2="141.43" y2="470" stroke="#f3f4f6" stroke-width="1"/>
<text x="141.43" y="492" font-size="12" text-anchor="middle" fill="#555555">4</text>
<line x1="158.57" y1="60" x2="158.57" y2="470" stroke="#f3f4f6" stroke-width="1"/>
<text x="158.57" y="492" font-size="12" text-anchor="middle" fill="#555555">5</text>
<line x1="175.71" y1="60" x2="175.71" y2="470" stroke="#f3f4f6" stroke-width="1"/>
<text x="175.71" y="492" font-size="12" text-anchor="middle" fill="#555555">6</text>
<line x1="192.86" y1="60" x2="192.86" y2="470" stroke="#f3f4f6" stroke-width="1"/>
<text x="192.86" y="492" font-size="12" text-anchor="middle" fill="#555555">7</text>
<line x1="210.00" y1="60" x2="210.00" y2="470" stroke="#f3f4f6" stroke-width="1"/>
<text x="210.00" y="492" font-size="12" text-anchor="middle" fill="#555555">8</text>
<line x1="227.14" y1="60" x2="227.14" y2="470" stroke="#f3f4f6" stroke-width="1"/>
<text x="227.14" y="492" font-size="12" text-anchor="middle" fill="#555555">9</text>
<line x1="244.29" y1="60" x2="244.29" y2="470" stroke="#f3f4f6" stroke-width="1"/>
<text x="244.29" y="492" font-size="12" text-anchor="middle" fill="#555555">10</text>
<line x1="261.43" y1="60" x2="261.43" y2="470" stroke="#f3f4f6" stroke-width="1"/>
<text x="261.43" y="492" font-size="12" text-anchor="middle" fill="#555555">11</text>
<line x1="278.57" y1="60" x2="278.57" y2="470" stroke="#f3f4f6" stroke-width="1"/>
<text x="278.57" y="492" font-size="12" text-anchor="middle" fill="#555555">12</text>
<line x1="295.71" y1="60" x2="295.71" y2="470" stroke="#f3f4f6" stroke-width="1"/>
<text x="295.71" y="492" font-size="12" text-anchor="middle" fill="#555555">13</text>
<line x1="312.86" y1="60" x2="312.86" y2="470" stroke="#f3f4f6" stroke-width="1"/>
<text x="312.86" y="492" font-size="12" text-anchor="middle" fill="#555555">14</text>
<line x1="330.00" y1="60" x2="330.00" y2="470" stroke="#f3f4f6" stroke-width="1"/>
<text x="330.00" y="492" font-size="12" text-anchor="middle" fill="#555555">15</text>
<line x1="347.14" y1="60" x2="347.14" y2="470" stroke="#f3f4f6" stroke-width="1"/>
<text x="347.14" y="492" font-size="12" text-anchor="middle" fill="#555555">16</text>
<line x1="364.29" y1="60" x2="364.29" y2="470" stroke="#f3f4f6" stroke-width="1"/>
<text x="364.29" y="492" font-size="12" text-anchor="middle" fill="#555555">17</text>
<line x1="381.43" y1="60" x2="381.43" y2="470" stroke="#f3f4f6" stroke-width="1"/>
<text x="381.43" y="492" font-size="12" text-anchor="middle" fill="#555555">18</text>
<line x1="398.57" y1="60" x2="398.57" y2="470" stroke="#f3f4f6" stroke-width="1"/>
<text x="398.57" y="492" font-size="12" text-anchor="middle" fill="#555555">19</text>
<line x1="415.71" y1="60" x2="415.71" y2="470" stroke="#f3f4f6" stroke-width="1"/>
<text x="415.71" y="492" font-size="12" text-anchor="middle" fill="#555555">20</text>
<line x1="432.86" y1="60" x2="432.86" y2="470" stroke="#f3f4f6" stroke-width="1"/>
<text x="432.86" y="492" font-size="12" text-anchor="middle" fill="#555555">21</text>
<line x1="450.00" y1="60" x2="450.00" y2="470" stroke="#f3f4f6" stroke-width="1"/>
<text x="450.00" y="492" font-size="12" text-anchor="middle" fill="#555555">22</text>
<line x1="467.14" y1="60" x2="467.14" y2="470" stroke="#f3f4f6" stroke-width="1"/>
<text x="467.14" y="492" font-size="12" text-anchor="middle" fill="#555555">23</text>
<line x1="484.29" y1="60" x2="484.29" y2="470" stroke="#f3f4f6" stroke-width="1"/>
<text x="484.29" y="492" font-size="12" text-anchor="middle" fill="#555555">24</text>
<line x1="501.43" y1="60" x2="501.43" y2="470" stroke="#f3f4f6" stroke-width="1"/>
<text x="501.43" y="492" font-size="12" text-anchor="middle" fill="#555555">25</text>
<line x1="518.57" y1="60" x2="518.57" y2="470" stroke="#f3f4f6" stroke-width="1"/>
<text x="518.57" y="492" font-size="12" text-anchor="middle" fill="#555555">26</text>
<line x1="535.71" y1="60" x2="535.71" y2="470" stroke="#f3f4f6" stroke-width="1"/>
<text x="535.71" y="492" font-size="12" text-anchor="middle" fill="#555555">27</text>
<line x1="552.86" y1="60" x2="552.86" y2="470" stroke="#f3f4f6" stroke-width="1"/>
<text x="552.86" y="492" font-size="12" text-anchor="middle" fill="#555555">28</text>
<line x1="570.00" y1="60" x2="570.00" y2="470" stroke="#f3f4f6" stroke-width="1"/>
<text x="570.00" y="492" font-size="12" text-anchor="middle" fill="#555555">29</text>
<line x1="587.14" y1="60" x2="587.14" y2="470" stroke="#f3f4f6" stroke-width="1"/>
<text x="587.14" y="492" font-size="12" text-anchor="middle" fill="#555555">30</text>
<line x1="604.29" y1="60" x2="604.29" y2="470" stroke="#f3f4f6" stroke-width="1"/>
<text x="604.29" y="492" font-size="12" text-anchor="middle" fill="#555555">31</text>
<line x1="621.43" y1="60" x2="621.43" y2="470" stroke="#f3f4f6" stroke-width="1"/>
<text x="621.43" y="492" font-size="12" text-anchor="middle" fill="#555555">32</text>
<line x1="638.57" y1="60" x2="638.57" y2="470" stroke="#f3f4f6" stroke-width="1"/>
<text x="638.57" y="492" font-size="12" text-anchor="middle" fill="#555555">33</text>
<line x1="655.71" y1="60" x2="655.71" y2="470" stroke="#f3f4f6" stroke-width="1"/>
<text x="655.71" y="492" font-size="12" text-anchor="middle" fill="#555555">34</text>
<line x1="672.86" y1="60" x2="672.86" y2="470" stroke="#f3f4f6" stroke-width="1"/>
<text x="672.86" y="492" font-size="12" text-anchor="middle" fill="#555555">35</text>
<line x1="690.00" y1="60" x2="690.00" y2="470" stroke="#f3f4f6" stroke-width="1"/>
<text x="690.00" y="492" font-size="12" text-anchor="middle" fill="#555555">36</text>
<line x1="707.14" y1="60" x2="707.14" y2="470" stroke="#f3f4f6" stroke-width="1"/>
<text x="707.14" y="492" font-size="12" text-anchor="middle" fill="#555555">37</text>
<line x1="724.29" y1="60" x2="724.29" y2="470" stroke="#f3f4f6" stroke-width="1"/>
<text x="724.29" y="492" font-size="12" text-anchor="middle" fill="#555555">38</text>
<line x1="741.43" y1="60" x2="741.43" y2="470" stroke="#f3f4f6" stroke-width="1"/>
<text x="741.43" y="492" font-size="12" text-anchor="middle" fill="#555555">39</text>
<line x1="758.57" y1="60" x2="758.57" y2="470" stroke="#f3f4f6" stroke-width="1"/>
<text x="758.57" y="492" font-size="12" text-anchor="middle" fill="#555555">40</text>
<line x1="775.71" y1="60" x2="775.71" y2="470" stroke="#f3f4f6" stroke-width="1"/>
<text x="775.71" y="492" font-size="12" text-anchor="middle" fill="#555555">41</text>
<line x1="792.86" y1="60" x2="792.86" y2="470" stroke="#f3f4f6" stroke-width="1"/>
<text x="792.86" y="492" font-size="12" text-anchor="middle" fill="#555555">42</text>
<line x1="810.00" y1="60" x2="810.00" y2="470" stroke="#f3f4f6" stroke-width="1"/>
<text x="810.00" y="492" font-size="12" text-anchor="middle" fill="#555555">43</text>
<line x1="827.14" y1="60" x2="827.14" y2="470" stroke="#f3f4f6" stroke-width="1"/>
<text x="827.14" y="492" font-size="12" text-anchor="middle" fill="#555555">44</text>
<line x1="844.29" y1="60" x2="844.29" y2="470" stroke="#f3f4f6" stroke-width="1"/>
<text x="844.29" y="492" font-size="12" text-anchor="middle" fill="#555555">45</text>
<line x1="861.43" y1="60" x2="861.43" y2="470" stroke="#f3f4f6" stroke-width="1"/>
<text x="861.43" y="492" font-size="12" text-anchor="middle" fill="#555555">46</text>
<line x1="878.57" y1="60" x2="878.57" y2="470" stroke="#f3f4f6" stroke-width="1"/>
<text x="878.57" y="492" font-size="12" text-anchor="middle" fill="#555555">47</text>
<line x1="895.71" y1="60" x2="895.71" y2="470" stroke="#f3f4f6" stroke-width="1"/>
<text x="895.71" y="492" font-size="12" text-anchor="middle" fill="#555555">48</text>
<line x1="912.86" y1="60" x2="912.86" y2="470" stroke="#f3f4f6" stroke-width="1"/>
<text x="912.86" y="492" font-size="12" text-anchor="middle" fill="#555555">49</text>
<line x1="930.00" y1="60" x2="930.00" y2="470" stroke="#f3f4f6" stroke-width="1"/>
<text x="930.00" y="492" font-size="12" text-anchor="middle" fill="#555555">50</text>
<polyline fill="none" stroke="#d97706" stroke-width="3" points="90.00,95.30 107.14,403.34 124.29,396.00 141.43,417.54 158.57,429.72 175.71,431.92 192.86,429.58 210.00,433.60 227.14,434.80 244.29,433.84 261.43,432.80 278.57,433.32 295.71,434.76 312.86,434.82 330.00,434.42 347.14,434.22 364.29,435.62 381.43,435.42 398.57,434.80 415.71,434.31 432.86,433.80 450.00,435.41 467.14,435.26 484.29,435.83 501.43,435.36 518.57,435.76 535.71,435.80 552.86,434.76 570.00,435.45 587.14,433.16 604.29,435.54 621.43,435.82 638.57,435.59 655.71,435.37 672.86,435.31 690.00,435.05 707.14,435.60 724.29,435.12 741.43,435.34 758.57,435.73 775.71,435.29 792.86,435.58 810.00,435.46 827.14,434.94 844.29,435.55 861.43,434.97 878.57,435.17 895.71,433.08 912.86,435.16 930.00,433.88"/>
<circle cx="90.00" cy="95.30" r="4.5" fill="#d97706" fill-opacity="0.9"/>
<circle cx="107.14" cy="403.34" r="4.5" fill="#d97706" fill-opacity="0.9"/>
<circle cx="124.29" cy="396.00" r="4.5" fill="#d97706" fill-opacity="0.9"/>
<circle cx="141.43" cy="417.54" r="4.5" fill="#d97706" fill-opacity="0.9"/>
<circle cx="158.57" cy="429.72" r="4.5" fill="#d97706" fill-opacity="0.9"/>
<circle cx="175.71" cy="431.92" r="4.5" fill="#d97706" fill-opacity="0.9"/>
<circle cx="192.86" cy="429.58" r="4.5" fill="#d97706" fill-opacity="0.9"/>
<circle cx="210.00" cy="433.60" r="4.5" fill="#d97706" fill-opacity="0.9"/>
<circle cx="227.14" cy="434.80" r="4.5" fill="#d97706" fill-opacity="0.9"/>
<circle cx="244.29" cy="433.84" r="4.5" fill="#d97706" fill-opacity="0.9"/>
<circle cx="261.43" cy="432.80" r="4.5" fill="#d97706" fill-opacity="0.9"/>
<circle cx="278.57" cy="433.32" r="4.5" fill="#d97706" fill-opacity="0.9"/>
<circle cx="295.71" cy="434.76" r="4.5" fill="#d97706" fill-opacity="0.9"/>
<circle cx="312.86" cy="434.82" r="4.5" fill="#d97706" fill-opacity="0.9"/>
<circle cx="330.00" cy="434.42" r="4.5" fill="#d97706" fill-opacity="0.9"/>
<circle cx="347.14" cy="434.22" r="4.5" fill="#d97706" fill-opacity="0.9"/>
<circle cx="364.29" cy="435.62" r="4.5" fill="#d97706" fill-opacity="0.9"/>
<circle cx="381.43" cy="435.42" r="4.5" fill="#d97706" fill-opacity="0.9"/>
<circle cx="398.57" cy="434.80" r="4.5" fill="#d97706" fill-opacity="0.9"/>
<circle cx="415.71" cy="434.31" r="4.5" fill="#d97706" fill-opacity="0.9"/>
<circle cx="432.86" cy="433.80" r="4.5" fill="#d97706" fill-opacity="0.9"/>
<circle cx="450.00" cy="435.41" r="4.5" fill="#d97706" fill-opacity="0.9"/>
<circle cx="467.14" cy="435.26" r="4.5" fill="#d97706" fill-opacity="0.9"/>
<circle cx="484.29" cy="435.83" r="4.5" fill="#d97706" fill-opacity="0.9"/>
<circle cx="501.43" cy="435.36" r="4.5" fill="#d97706" fill-opacity="0.9"/>
<circle cx="518.57" cy="435.76" r="4.5" fill="#d97706" fill-opacity="0.9"/>
<circle cx="535.71" cy="435.80" r="4.5" fill="#d97706" fill-opacity="0.9"/>
<circle cx="552.86" cy="434.76" r="4.5" fill="#d97706" fill-opacity="0.9"/>
<circle cx="570.00" cy="435.45" r="4.5" fill="#d97706" fill-opacity="0.9"/>
<circle cx="587.14" cy="433.16" r="4.5" fill="#d97706" fill-opacity="0.9"/>
<circle cx="604.29" cy="435.54" r="4.5" fill="#d97706" fill-opacity="0.9"/>
<circle cx="621.43" cy="435.82" r="4.5" fill="#d97706" fill-opacity="0.9"/>
<circle cx="638.57" cy="435.59" r="4.5" fill="#d97706" fill-opacity="0.9"/>
<circle cx="655.71" cy="435.37" r="4.5" fill="#d97706" fill-opacity="0.9"/>
<circle cx="672.86" cy="435.31" r="4.5" fill="#d97706" fill-opacity="0.9"/>
<circle cx="690.00" cy="435.05" r="4.5" fill="#d97706" fill-opacity="0.9"/>
<circle cx="707.14" cy="435.60" r="4.5" fill="#d97706" fill-opacity="0.9"/>
<circle cx="724.29" cy="435.12" r="4.5" fill="#d97706" fill-opacity="0.9"/>
<circle cx="741.43" cy="435.34" r="4.5" fill="#d97706" fill-opacity="0.9"/>
<circle cx="758.57" cy="435.73" r="4.5" fill="#d97706" fill-opacity="0.9"/>
<circle cx="775.71" cy="435.29" r="4.5" fill="#d97706" fill-opacity="0.9"/>
<circle cx="792.86" cy="435.58" r="4.5" fill="#d97706" fill-opacity="0.9"/>
<circle cx="810.00" cy="435.46" r="4.5" fill="#d97706" fill-opacity="0.9"/>
<circle cx="827.14" cy="434.94" r="4.5" fill="#d97706" fill-opacity="0.9"/>
<circle cx="844.29" cy="435.55" r="4.5" fill="#d97706" fill-opacity="0.9"/>
<circle cx="861.43" cy="434.97" r="4.5" fill="#d97706" fill-opacity="0.9"/>
<circle cx="878.57" cy="435.17" r="4.5" fill="#d97706" fill-opacity="0.9"/>
<circle cx="895.71" cy="433.08" r="4.5" fill="#d97706" fill-opacity="0.9"/>
<circle cx="912.86" cy="435.16" r="4.5" fill="#d97706" fill-opacity="0.9"/>
<circle cx="930.00" cy="433.88" r="4.5" fill="#d97706" fill-opacity="0.9"/>
<rect x="90" y="32" width="18" height="6" fill="#d97706"/>
<text x="114" y="38" font-size="13" fill="#333333">val</text>
<polyline fill="none" stroke="#059669" stroke-width="3" points="90.00,94.17 107.14,401.90 124.29,396.14 141.43,417.14 158.57,429.72 175.71,431.82 192.86,429.46 210.00,433.49 227.14,434.64 244.29,433.90 261.43,432.77 278.57,433.26 295.71,434.77 312.86,434.75 330.00,434.22 347.14,434.06 364.29,435.82 381.43,435.19 398.57,434.95 415.71,434.21 432.86,433.59 450.00,435.35 467.14,434.93 484.29,435.66 501.43,435.59 518.57,435.75 535.71,435.69 552.86,434.46 570.00,435.58 587.14,432.80 604.29,435.57 621.43,435.60 638.57,435.52 655.71,435.49 672.86,435.58 690.00,435.21 707.14,435.66 724.29,435.41 741.43,435.49 758.57,435.55 775.71,435.31 792.86,435.38 810.00,435.32 827.14,435.17 844.29,435.68 861.43,435.01 878.57,435.30 895.71,433.19 912.86,435.18 930.00,433.70"/>
<circle cx="90.00" cy="94.17" r="4.5" fill="#059669" fill-opacity="0.9"/>
<circle cx="107.14" cy="401.90" r="4.5" fill="#059669" fill-opacity="0.9"/>
<circle cx="124.29" cy="396.14" r="4.5" fill="#059669" fill-opacity="0.9"/>
<circle cx="141.43" cy="417.14" r="4.5" fill="#059669" fill-opacity="0.9"/>
<circle cx="158.57" cy="429.72" r="4.5" fill="#059669" fill-opacity="0.9"/>
<circle cx="175.71" cy="431.82" r="4.5" fill="#059669" fill-opacity="0.9"/>
<circle cx="192.86" cy="429.46" r="4.5" fill="#059669" fill-opacity="0.9"/>
<circle cx="210.00" cy="433.49" r="4.5" fill="#059669" fill-opacity="0.9"/>
<circle cx="227.14" cy="434.64" r="4.5" fill="#059669" fill-opacity="0.9"/>
<circle cx="244.29" cy="433.90" r="4.5" fill="#059669" fill-opacity="0.9"/>
<circle cx="261.43" cy="432.77" r="4.5" fill="#059669" fill-opacity="0.9"/>
<circle cx="278.57" cy="433.26" r="4.5" fill="#059669" fill-opacity="0.9"/>
<circle cx="295.71" cy="434.77" r="4.5" fill="#059669" fill-opacity="0.9"/>
<circle cx="312.86" cy="434.75" r="4.5" fill="#059669" fill-opacity="0.9"/>
<circle cx="330.00" cy="434.22" r="4.5" fill="#059669" fill-opacity="0.9"/>
<circle cx="347.14" cy="434.06" r="4.5" fill="#059669" fill-opacity="0.9"/>
<circle cx="364.29" cy="435.82" r="4.5" fill="#059669" fill-opacity="0.9"/>
<circle cx="381.43" cy="435.19" r="4.5" fill="#059669" fill-opacity="0.9"/>
<circle cx="398.57" cy="434.95" r="4.5" fill="#059669" fill-opacity="0.9"/>
<circle cx="415.71" cy="434.21" r="4.5" fill="#059669" fill-opacity="0.9"/>
<circle cx="432.86" cy="433.59" r="4.5" fill="#059669" fill-opacity="0.9"/>
<circle cx="450.00" cy="435.35" r="4.5" fill="#059669" fill-opacity="0.9"/>
<circle cx="467.14" cy="434.93" r="4.5" fill="#059669" fill-opacity="0.9"/>
<circle cx="484.29" cy="435.66" r="4.5" fill="#059669" fill-opacity="0.9"/>
<circle cx="501.43" cy="435.59" r="4.5" fill="#059669" fill-opacity="0.9"/>
<circle cx="518.57" cy="435.75" r="4.5" fill="#059669" fill-opacity="0.9"/>
<circle cx="535.71" cy="435.69" r="4.5" fill="#059669" fill-opacity="0.9"/>
<circle cx="552.86" cy="434.46" r="4.5" fill="#059669" fill-opacity="0.9"/>
<circle cx="570.00" cy="435.58" r="4.5" fill="#059669" fill-opacity="0.9"/>
<circle cx="587.14" cy="432.80" r="4.5" fill="#059669" fill-opacity="0.9"/>
<circle cx="604.29" cy="435.57" r="4.5" fill="#059669" fill-opacity="0.9"/>
<circle cx="621.43" cy="435.60" r="4.5" fill="#059669" fill-opacity="0.9"/>
<circle cx="638.57" cy="435.52" r="4.5" fill="#059669" fill-opacity="0.9"/>
<circle cx="655.71" cy="435.49" r="4.5" fill="#059669" fill-opacity="0.9"/>
<circle cx="672.86" cy="435.58" r="4.5" fill="#059669" fill-opacity="0.9"/>
<circle cx="690.00" cy="435.21" r="4.5" fill="#059669" fill-opacity="0.9"/>
<circle cx="707.14" cy="435.66" r="4.5" fill="#059669" fill-opacity="0.9"/>
<circle cx="724.29" cy="435.41" r="4.5" fill="#059669" fill-opacity="0.9"/>
<circle cx="741.43" cy="435.49" r="4.5" fill="#059669" fill-opacity="0.9"/>
<circle cx="758.57" cy="435.55" r="4.5" fill="#059669" fill-opacity="0.9"/>
<circle cx="775.71" cy="435.31" r="4.5" fill="#059669" fill-opacity="0.9"/>
<circle cx="792.86" cy="435.38" r="4.5" fill="#059669" fill-opacity="0.9"/>
<circle cx="810.00" cy="435.32" r="4.5" fill="#059669" fill-opacity="0.9"/>
<circle cx="827.14" cy="435.17" r="4.5" fill="#059669" fill-opacity="0.9"/>
<circle cx="844.29" cy="435.68" r="4.5" fill="#059669" fill-opacity="0.9"/>
<circle cx="861.43" cy="435.01" r="4.5" fill="#059669" fill-opacity="0.9"/>
<circle cx="878.57" cy="435.30" r="4.5" fill="#059669" fill-opacity="0.9"/>
<circle cx="895.71" cy="433.19" r="4.5" fill="#059669" fill-opacity="0.9"/>
<circle cx="912.86" cy="435.18" r="4.5" fill="#059669" fill-opacity="0.9"/>
<circle cx="930.00" cy="433.70" r="4.5" fill="#059669" fill-opacity="0.9"/>
<rect x="270" y="32" width="18" height="6" fill="#059669"/>
<text x="294" y="38" font-size="13" fill="#333333">test</text>
</svg>