<svg xmlns="http://www.w3.org/2000/svg" width="960" height="540">
<rect width="100%" height="100%" fill="#ffffff"/>
<text x="480.0" y="30" font-size="22" text-anchor="middle" fill="#111111">Loss</text>
<text x="20" y="270.0" font-size="16" transform="rotate(-90 20,270.0)" text-anchor="middle" fill="#333333">Loss</text>
<text x="480.0" y="520" font-size="16" text-anchor="middle" fill="#333333">Epoch</text>
<line x1="90" y1="60" x2="90" y2="470" stroke="#333333" stroke-width="2"/>
<line x1="90" y1="470" x2="930" y2="470" stroke="#333333" stroke-width="2"/>
<line x1="90" y1="470.00" x2="930" y2="470.00" stroke="#e5e7eb" stroke-width="1"/>
<text x="80" y="475.00" font-size="12" text-anchor="end" fill="#555555">-1.9438</text>
<line x1="90" y1="367.50" x2="930" y2="367.50" stroke="#e5e7eb" stroke-width="1"/>
<text x="80" y="372.50" font-size="12" text-anchor="end" fill="#555555">3.9656</text>
<line x1="90" y1="265.00" x2="930" y2="265.00" stroke="#e5e7eb" stroke-width="1"/>
<text x="80" y="270.00" font-size="12" text-anchor="end" fill="#555555">9.8751</text>
<line x1="90" y1="162.50" x2="930" y2="162.50" stroke="#e5e7eb" stroke-width="1"/>
<text x="80" y="167.50" font-size="12" text-anchor="end" fill="#555555">15.7846</text>
<line x1="90" y1="60.00" x2="930" y2="60.00" stroke="#e5e7eb" stroke-width="1"/>
<text x="80" y="65.00" font-size="12" text-anchor="end" fill="#555555">21.6940</text>
<line x1="90.00" y1="60" x2="90.00" y2="470" stroke="#f3f4f6" stroke-width="1"/>
<text x="90.00" y="492" font-size="12" text-anchor="middle" fill="#555555">1</text>
<line x1="107.14" y1="60" x2="107.14" y2="470" stroke="#f3f4f6" stroke-width="1"/>
<text x="107.14" y="492" font-size="12" text-anchor="middle" fill="#555555">2</text>
<line x1="124.29" y1="60" x2="124.29" y2="470" stroke="#f3f4f6" stroke-width="1"/>
<text x="124.29" y="492" font-size="12" text-anchor="middle" fill="#555555">3</text>
<line x1="141.43" y1="60" x2="141.43" y2="470" stroke="#f3f4f6" stroke-width="1"/>
<text x="141.43" y="492" font-size="12" text-anchor="middle" fill="#555555">4</text>
<line x1="158.57" y1="60" x2="158.57" y2="470" stroke="#f3f4f6" stroke-width="1"/>
<text x="158.57" y="492" font-size="12" text-anchor="middle" fill="#555555">5</text>
<line x1="175.71" y1="60" x2="175.71" y2="470" stroke="#f3f4f6" stroke-width="1"/>
<text x="175.71" y="492" font-size="12" text-anchor="middle" fill="#555555">6</text>
<line x1="192.86" y1="60" x2="192.86" y2="470" stroke="#f3f4f6" stroke-width="1"/>
<text x="192.86" y="492" font-size="12" text-anchor="middle" fill="#555555">7</text>
<line x1="210.00" y1="60" x2="210.00" y2="470" stroke="#f3f4f6" stroke-width="1"/>
<text x="210.00" y="492" font-size="12" text-anchor="middle" fill="#555555">8</text>
<line x1="227.14" y1="60" x2="227.14" y2="470" stroke="#f3f4f6" stroke-width="1"/>
<text x="227.14" y="492" font-size="12" text-anchor="middle" fill="#555555">9</text>
<line x1="244.29" y1="60" x2="244.29" y2="470" stroke="#f3f4f6" stroke-width="1"/>
<text x="244.29" y="492" font-size="12" text-anchor="middle" fill="#555555">10</text>
<line x1="261.43" y1="60" x2="261.43" y2="470" stroke="#f3f4f6" stroke-width="1"/>
<text x="261.43" y="492" font-size="12" text-anchor="middle" fill="#555555">11</text>
<line x1="278.57" y1="60" x2="278.57" y2="470" stroke="#f3f4f6" stroke-width="1"/>
<text x="278.57" y="492" font-size="12" text-anchor="middle" fill="#555555">12</text>
<line x1="295.71" y1="60" x2="295.71" y2="470" stroke="#f3f4f6" stroke-width="1"/>
<text x="295.71" y="492" font-size="12" text-anchor="middle" fill="#555555">13</text>
<line x1="312.86" y1="60" x2="312.86" y2="470" stroke="#f3f4f6" stroke-width="1"/>
<text x="312.86" y="492" font-size="12" text-anchor="middle" fill="#555555">14</text>
<line x1="330.00" y1="60" x2="330.00" y2="470" stroke="#f3f4f6" stroke-width="1"/>
<text x="330.00" y="492" font-size="12" text-anchor="middle" fill="#555555">15</text>
<line x1="347.14" y1="60" x2="347.14" y2="470" stroke="#f3f4f6" stroke-width="1"/>
<text x="347.14" y="492" font-size="12" text-anchor="middle" fill="#555555">16</text>
<line x1="364.29" y1="60" x2="364.29" y2="470" stroke="#f3f4f6" stroke-width="1"/>
<text x="364.29" y="492" font-size="12" text-anchor="middle" fill="#555555">17</text>
<line x1="381.43" y1="60" x2="381.43" y2="470" stroke="#f3f4f6" stroke-width="1"/>
<text x="381.43" y="492" font-size="12" text-anchor="middle" fill="#555555">18</text>
<line x1="398.57" y1="60" x2="398.57" y2="470" stroke="#f3f4f6" stroke-width="1"/>
<text x="398.57" y="492" font-size="12" text-anchor="middle" fill="#555555">19</text>
<line x1="415.71" y1="60" x2="415.71" y2="470" stroke="#f3f4f6" stroke-width="1"/>
<text x="415.71" y="492" font-size="12" text-anchor="middle" fill="#555555">20</text>
<line x1="432.86" y1="60" x2="432.86" y2="470" stroke="#f3f4f6" stroke-width="1"/>
<text x="432.86" y="492" font-size="12" text-anchor="middle" fill="#555555">21</text>
<line x1="450.00" y1="60" x2="450.00" y2="470" stroke="#f3f4f6" stroke-width="1"/>
<text x="450.00" y="492" font-size="12" text-anchor="middle" fill="#555555">22</text>
<line x1="467.14" y1="60" x2="467.14" y2="470" stroke="#f3f4f6" stroke-width="1"/>
<text x="467.14" y="492" font-size="12" text-anchor="middle" fill="#555555">23</text>
<line x1="484.29" y1="60" x2="484.29" y2="470" stroke="#f3f4f6" stroke-width="1"/>
<text x="484.29" y="492" font-size="12" text-anchor="middle" fill="#555555">24</text>
<line x1="501.43" y1="60" x2="501.43" y2="470" stroke="#f3f4f6" stroke-width="1"/>
<text x="501.43" y="492" font-size="12" text-anchor="middle" fill="#555555">25</text>
<line x1="518.57" y1="60" x2="518.57" y2="470" stroke="#f3f4f6" stroke-width="1"/>
<text x="518.57" y="492" font-size="12" text-anchor="middle" fill="#555555">26</text>
<line x1="535.71" y1="60" x2="535.71" y2="470" stroke="#f3f4f6" stroke-width="1"/>
<text x="535.71" y="492" font-size="12" text-anchor="middle" fill="#555555">27</text>
<line x1="552.86" y1="60" x2="552.86" y2="470" stroke="#f3f4f6" stroke-width="1"/>
<text x="552.86" y="492" font-size="12" text-anchor="middle" fill="#555555">28</text>
<line x1="570.00" y1="60" x2="570.00" y2="470" stroke="#f3f4f6" stroke-width="1"/>
<text x="570.00" y="492" font-size="12" text-anchor="middle" fill="#555555">29</text>
<line x1="587.14" y1="60" x2="587.14" y2="470" stroke="#f3f4f6" stroke-width="1"/>
<text x="587.14" y="492" font-size="12" text-anchor="middle" fill="#555555">30</text>
<line x1="604.29" y1="60" x2="604.29" y2="470" stroke="#f3f4f6" stroke-width="1"/>
<text x="604.29" y="492" font-size="12" text-anchor="middle" fill="#555555">31</text>
<line x1="621.43" y1="60" x2="621.43" y2="470" stroke="#f3f4f6" stroke-width="1"/>
<text x="621.43" y="492" font-size="12" text-anchor="middle" fill="#555555">32</text>
<line x1="638.57" y1="60" x2="638.57" y2="470" stroke="#f3f4f6" stroke-width="1"/>
<text x="638.57" y="492" font-size="12" text-anchor="middle" fill="#555555">33</text>
<line x1="655.71" y1="60" x2="655.71" y2="470" stroke="#f3f4f6" stroke-width="1"/>
<text x="655.71" y="492" font-size="12" text-anchor="middle" fill="#555555">34</text>
<line x1="672.86" y1="60" x2="672.86" y2="470" stroke="#f3f4f6" stroke-width="1"/>
<text x="672.86" y="492" font-size="12" text-anchor="middle" fill="#555555">35</text>
<line x1="690.00" y1="60" x2="690.00" y2="470" stroke="#f3f4f6" stroke-width="1"/>
<text x="690.00" y="492" font-size="12" text-anchor="middle" fill="#555555">36</text>
<line x1="707.14" y1="60" x2="707.14" y2="470" stroke="#f3f4f6" stroke-width="1"/>
<text x="707.14" y="492" font-size="12" text-anchor="middle" fill="#555555">37</text>
<line x1="724.29" y1="60" x2="724.29" y2="470" stroke="#f3f4f6" stroke-width="1"/>
<text x="724.29" y="492" font-size="12" text-anchor="middle" fill="#555555">38</text>
<line x1="741.43" y1="60" x2="741.43" y2="470" stroke="#f3f4f6" stroke-width="1"/>
<text x="741.43" y="492" font-size="12" text-anchor="middle" fill="#555555">39</text>
<line x1="758.57" y1="60" x2="758.57" y2="470" stroke="#f3f4f6" stroke-width="1"/>
<text x="758.57" y="492" font-size="12" text-anchor="middle" fill="#555555">40</text>
<line x1="775.71" y1="60" x2="775.71" y2="470" stroke="#f3f4f6" stroke-width="1"/>
<text x="775.71" y="492" font-size="12" text-anchor="middle" fill="#555555">41</text>
<line x1="792.86" y1="60" x2="792.86" y2="470" stroke="#f3f4f6" stroke-width="1"/>
<text x="792.86" y="492" font-size="12" text-anchor="middle" fill="#555555">42</text>
<line x1="810.00" y1="60" x2="810.00" y2="470" stroke="#f3f4f6" stroke-width="1"/>
<text x="810.00" y="492" font-size="12" text-anchor="middle" fill="#555555">43</text>
<line x1="827.14" y1="60" x2="827.14" y2="470" stroke="#f3f4f6" stroke-width="1"/>
<text x="827.14" y="492" font-size="12" text-anchor="middle" fill="#555555">44</text>
<line x1="844.29" y1="60" x2="844.29" y2="470" stroke="#f3f4f6" stroke-width="1"/>
<text x="844.29" y="492" font-size="12" text-anchor="middle" fill="#555555">45</text>
<line x1="861.43" y1="60" x2="861.43" y2="470" stroke="#f3f4f6" stroke-width="1"/>
<text x="861.43" y="492" font-size="12" text-anchor="middle" fill="#555555">46</text>
<line x1="878.57" y1="60" x2="878.57" y2="470" stroke="#f3f4f6" stroke-width="1"/>
<text x="878.57" y="492" font-size="12" text-anchor="middle" fill="#555555">47</text>
<line x1="895.71" y1="60" x2="895.71" y2="470" stroke="#f3f4f6" stroke-width="1"/>
<text x="895.71" y="492" font-size="12" text-anchor="middle" fill="#555555">48</text>
<line x1="912.86" y1="60" x2="912.86" y2="470" stroke="#f3f4f6" stroke-width="1"/>
<text x="912.86" y="492" font-size="12" text-anchor="middle" fill="#555555">49</text>
<line x1="930.00" y1="60" x2="930.00" y2="470" stroke="#f3f4f6" stroke-width="1"/>
<text x="930.00" y="492" font-size="12" text-anchor="middle" fill="#555555">50</text>
<polyline fill="none" stroke="#1d4ed8" stroke-width="3" points="90.00,94.17 107.14,302.48 124.29,356.98 141.43,368.99 158.57,371.40 175.71,373.74 192.86,374.68 210.00,375.19 227.14,376.54 244.29,377.09 261.43,377.34 278.57,377.61 295.71,377.90 312.86,377.99 330.00,378.22 347.14,378.41 364.29,378.60 381.43,378.82 398.57,378.86 415.71,379.07 432.86,434.88 450.00,435.05 467.14,435.18 484.29,435.34 501.43,435.26 518.57,435.30 535.71,435.28 552.86,435.35 570.00,435.50 587.14,435.39 604.29,435.36 621.43,435.55 638.57,435.50 655.71,435.63 672.86,435.49 690.00,435.56 707.14,435.52 724.29,435.65 741.43,435.50 758.57,435.72 775.71,435.62 792.86,435.61 810.00,435.69 827.14,435.70 844.29,435.66 861.43,435.78 878.57,435.60 895.71,435.64 912.86,435.83 930.00,435.73"/>
<circle cx="90.00" cy="94.17" r="4.5" fill="#1d4ed8" fill-opacity="0.9"/>
<circle cx="107.14" cy="302.48" r="4.5" fill="#1d4ed8" fill-opacity="0.9"/>
<circle cx="124.29" cy="356.98" r="4.5" fill="#1d4ed8" fill-opacity="0.9"/>
<circle cx="141.43" cy="368.99" r="4.5" fill="#1d4ed8" fill-opacity="0.9"/>
<circle cx="158.57" cy="371.40" r="4.5" fill="#1d4ed8" fill-opacity="0.9"/>
<circle cx="175.71" cy="373.74" r="4.5" fill="#1d4ed8" fill-opacity="0.9"/>
<circle cx="192.86" cy="374.68" r="4.5" fill="#1d4ed8" fill-opacity="0.9"/>
<circle cx="210.00" cy="375.19" r="4.5" fill="#1d4ed8" fill-opacity="0.9"/>
<circle cx="227.14" cy="376.54" r="4.5" fill="#1d4ed8" fill-opacity="0.9"/>
<circle cx="244.29" cy="377.09" r="4.5" fill="#1d4ed8" fill-opacity="0.9"/>
<circle cx="261.43" cy="377.34" r="4.5" fill="#1d4ed8" fill-opacity="0.9"/>
<circle cx="278.57" cy="377.61" r="4.5" fill="#1d4ed8" fill-opacity="0.9"/>
<circle cx="295.71" cy="377.90" r="4.5" fill="#1d4ed8" fill-opacity="0.9"/>
<circle cx="312.86" cy="377.99" r="4.5" fill="#1d4ed8" fill-opacity="0.9"/>
<circle cx="330.00" cy="378.22" r="4.5" fill="#1d4ed8" fill-opacity="0.9"/>
<circle cx="347.14" cy="378.41" r="4.5" fill="#1d4ed8" fill-opacity="0.9"/>
<circle cx="364.29" cy="378.60" r="4.5" fill="#1d4ed8" fill-opacity="0.9"/>
<circle cx="381.43" cy="378.82" r="4.5" fill="#1d4ed8" fill-opacity="0.9"/>
<circle cx="398.57" cy="378.86" r="4.5" fill="#1d4ed8" fill-opacity="0.9"/>
<circle cx="415.71" cy="379.07" r="4.5" fill="#1d4ed8" fill-opacity="0.9"/>
<circle cx="432.86" cy="434.88" r="4.5" fill="#1d4ed8" fill-opacity="0.9"/>
<circle cx="450.00" cy="435.05" r="4.5" fill="#1d4ed8" fill-opacity="0.9"/>
<circle cx="467.14" cy="435.18" r="4.5" fill="#1d4ed8" fill-opacity="0.9"/>
<circle cx="484.29" cy="435.34" r="4.5" fill="#1d4ed8" fill-opacity="0.9"/>
<circle cx="501.43" cy="435.26" r="4.5" fill="#1d4ed8" fill-opacity="0.9"/>
<circle cx="518.57" cy="435.30" r="4.5" fill="#1d4ed8" fill-opacity="0.9"/>
<circle cx="535.71" cy="435.28" r="4.5" fill="#1d4ed8" fill-opacity="0.9"/>
<circle cx="552.86" cy="435.35" r="4.5" fill="#1d4ed8" fill-opacity="0.9"/>
<circle cx="570.00" cy="435.50" r="4.5" fill="#1d4ed8" fill-opacity="0.9"/>
<circle cx="587.14" cy="435.39" r="4.5" fill="#1d4ed8" fill-opacity="0.9"/>
<circle cx="604.29" cy="435.36" r="4.5" fill="#1d4ed8" fill-opacity="0.9"/>
<circle cx="621.43" cy="435.55" r="4.5" fill="#1d4ed8" fill-opacity="0.9"/>
<circle cx="638.57" cy="435.50" r="4.5" fill="#1d4ed8" fill-opacity="0.9"/>
<circle cx="655.71" cy="435.63" r="4.5" fill="#1d4ed8" fill-opacity="0.9"/>
<circle cx="672.86" cy="435.49" r="4.5" fill="#1d4ed8" fill-opacity="0.9"/>
<circle cx="690.00" cy="435.56" r="4.5" fill="#1d4ed8" fill-opacity="0.9"/>
<circle cx="707.14" cy="435.52" r="4.5" fill="#1d4ed8" fill-opacity="0.9"/>
<circle cx="724.29" cy="435.65" r="4.5" fill="#1d4ed8" fill-opacity="0.9"/>
<circle cx="741.43" cy="435.50" r="4.5" fill="#1d4ed8" fill-opacity="0.9"/>
<circle cx="758.57" cy="435.72" r="4.5" fill="#1d4ed8" fill-opacity="0.9"/>
<circle cx="775.71" cy="435.62" r="4.5" fill="#1d4ed8" fill-opacity="0.9"/>
<circle cx="792.86" cy="435.61" r="4.5" fill="#1d4ed8" fill-opacity="0.9"/>
<circle cx="810.00" cy="435.69" r="4.5" fill="#1d4ed8" fill-opacity="0.9"/>
<circle cx="827.14" cy="435.70" r="4.5" fill="#1d4ed8" fill-opacity="0.9"/>
<circle cx="844.29" cy="435.66" r="4.5" fill="#1d4ed8" fill-opacity="0.9"/>
<circle cx="861.43" cy="435.78" r="4.5" fill="#1d4ed8" fill-opacity="0.9"/>
<circle cx="878.57" cy="435.60" r="4.5" fill="#1d4ed8" fill-opacity="0.9"/>
<circle cx="895.71" cy="435.64" r="4.5" fill="#1d4ed8" fill-opacity="0.9"/>
<circle cx="912.86" cy="435.83" r="4.5" fill="#1d4ed8" fill-opacity="0.9"/>
<circle cx="930.00" cy="435.73" r="4.5" fill="#1d4ed8" fill-opacity="0.9"/>
<rect x="90" y="32" width="18" height="6" fill="#1d4ed8"/>
<text x="114" y="38" font-size="13" fill="#333333">train</text>
<polyline fill="none" stroke="#d97706" stroke-width="3" points="90.00,270.23 107.14,417.62 124.29,406.47 141.43,423.87 158.57,431.01 175.71,432.06 192.86,430.66 210.00,432.62 227.14,433.05 244.29,432.39 261.43,432.09 278.57,432.41 295.71,432.76 312.86,432.88 330.00,432.70 347.14,432.46 364.29,433.38 381.43,433.17 398.57,432.90 415.71,432.46 432.86,431.46 450.00,432.76 467.14,432.59 484.29,432.94 501.43,432.05 518.57,432.55 535.71,432.66 552.86,431.22 570.00,432.06 587.14,429.95 604.29,432.21 621.43,432.24 638.57,432.13 655.71,431.65 672.86,431.85 690.00,431.75 707.14,431.76 724.29,431.57 741.43,431.57 758.57,432.08 775.71,430.99 792.86,431.98 810.00,431.81 827.14,430.93 844.29,431.58 861.43,431.04 878.57,430.73 895.71,429.13 912.86,431.31 930.00,429.76"/>
<circle cx="90.00" cy="270.23" r="4.5" fill="#d97706" fill-opacity="0.9"/>
<circle cx="107.14" cy="417.62" r="4.5" fill="#d97706" fill-opacity="0.9"/>
<circle cx="124.29" cy="406.47" r="4.5" fill="#d97706" fill-opacity="0.9"/>
<circle cx="141.43" cy="423.87" r="4.5" fill="#d97706" fill-opacity="0.9"/>
<circle cx="158.57" cy="431.01" r="4.5" fill="#d97706" fill-opacity="0.9"/>
<circle cx="175.71" cy="432.06" r="4.5" fill="#d97706" fill-opacity="0.9"/>
<circle cx="192.86" cy="430.66" r="4.5" fill="#d97706" fill-opacity="0.9"/>
<circle cx="210.00" cy="432.62" r="4.5" fill="#d97706" fill-opacity="0.9"/>
<circle cx="227.14" cy="433.05" r="4.5" fill="#d97706" fill-opacity="0.9"/>
<circle cx="244.29" cy="432.39" r="4.5" fill="#d97706" fill-opacity="0.9"/>
<circle cx="261.43" cy="432.09" r="4.5" fill="#d97706" fill-opacity="0.9"/>
<circle cx="278.57" cy="432.41" r="4.5" fill="#d97706" fill-opacity="0.9"/>
<circle cx="295.71" cy="432.76" r="4.5" fill="#d97706" fill-opacity="0.9"/>
<circle cx="312.86" cy="432.88" r="4.5" fill="#d97706" fill-opacity="0.9"/>
<circle cx="330.00" cy="432.70" r="4.5" fill="#d97706" fill-opacity="0.9"/>
<circle cx="347.14" cy="432.46" r="4.5" fill="#d97706" fill-opacity="0.9"/>
<circle cx="364.29" cy="433.38" r="4.5" fill="#d97706" fill-opacity="0.9"/>
<circle cx="381.43" cy="433.17" r="4.5" fill="#d97706" fill-opacity="0.9"/>
<circle cx="398.57" cy="432.90" r="4.5" fill="#d97706" fill-opacity="0.9"/>
<circle cx="415.71" cy="432.46" r="4.5" fill="#d97706" fill-opacity="0.9"/>
<circle cx="432.86" cy="431.46" r="4.5" fill="#d97706" fill-opacity="0.9"/>
<circle cx="450.00" cy="432.76" r="4.5" fill="#d97706" fill-opacity="0.9"/>
<circle cx="467.14" cy="432.59" r="4.5" fill="#d97706" fill-opacity="0.9"/>
<circle cx="484.29" cy="432.94" r="4.5" fill="#d97706" fill-opacity="0.9"/>
<circle cx="501.43" cy="432.05" r="4.5" fill="#d97706" fill-opacity="0.9"/>
<circle cx="518.57" cy="432.55" r="4.5" fill="#d97706" fill-opacity="0.9"/>
<circle cx="535.71" cy="432.66" r="4.5" fill="#d97706" fill-opacity="0.9"/>
<circle cx="552.86" cy="431.22" r="4.5" fill="#d97706" fill-opacity="0.9"/>
<circle cx="570.00" cy="432.06" r="4.5" fill="#d97706" fill-opacity="0.9"/>
<circle cx="587.14" cy="429.95" r="4.5" fill="#d97706" fill-opacity="0.9"/>
<circle cx="604.29" cy="432.21" r="4.5" fill="#d97706" fill-opacity="0.9"/>
<circle cx="621.43" cy="432.24" r="4.5" fill="#d97706" fill-opacity="0.9"/>
<circle cx="638.57" cy="432.13" r="4.5" fill="#d97706" fill-opacity="0.9"/>
<circle cx="655.71" cy="431.65" r="4.5" fill="#d97706" fill-opacity="0.9"/>
<circle cx="672.86" cy="431.85" r="4.5" fill="#d97706" fill-opacity="0.9"/>
<circle cx="690.00" cy="431.75" r="4.5" fill="#d97706" fill-opacity="0.9"/>
<circle cx="707.14" cy="431.76" r="4.5" fill="#d97706" fill-opacity="0.9"/>
<circle cx="724.29" cy="431.57" r="4.5" fill="#d97706" fill-opacity="0.9"/>
<circle cx="741.43" cy="431.57" r="4.5" fill="#d97706" fill-opacity="0.9"/>
<circle cx="758.57" cy="432.08" r="4.5" fill="#d97706" fill-opacity="0.9"/>
<circle cx="775.71" cy="430.99" r="4.5" fill="#d97706" fill-opacity="0.9"/>
<circle cx="792.86" cy="431.98" r="4.5" fill="#d97706" fill-opacity="0.9"/>
<circle cx="810.00" cy="431.81" r="4.5" fill="#d97706" fill-opacity="0.9"/>
<circle cx="827.14" cy="430.93" r="4.5" fill="#d97706" fill-opacity="0.9"/>
<circle cx="844.29" cy="431.58" r="4.5" fill="#d97706" fill-opacity="0.9"/>
<circle cx="861.43" cy="431.04" r="4.5" fill="#d97706" fill-opacity="0.9"/>
<circle cx="878.57" cy="430.73" r="4.5" fill="#d97706" fill-opacity="0.9"/>
<circle cx="895.71" cy="429.13" r="4.5" fill="#d97706" fill-opacity="0.9"/>
<circle cx="912.86" cy="431.31" r="4.5" fill="#d97706" fill-opacity="0.9"/>
<circle cx="930.00" cy="429.76" r="4.5" fill="#d97706" fill-opacity="0.9"/>
<rect x="270" y="32" width="18" height="6" fill="#d97706"/>
<text x="294" y="38" font-size="13" fill="#333333">val</text>
<polyline fill="none" stroke="#059669" stroke-width="3" points="90.00,269.55 107.14,417.14 124.29,406.90 141.43,423.85 158.57,430.87 175.71,431.97 192.86,430.82 210.00,432.67 227.14,433.04 244.29,432.33 261.43,432.00 278.57,432.31 295.71,432.89 312.86,433.02 330.00,432.75 347.14,432.39 364.29,433.40 381.43,432.91 398.57,432.96 415.71,432.58 432.86,431.34 450.00,432.76 467.14,432.47 484.29,432.68 501.43,432.30 518.57,432.59 535.71,432.68 552.86,430.92 570.00,432.04 587.14,429.60 604.29,432.30 621.43,432.20 638.57,431.98 655.71,431.86 672.86,431.79 690.00,431.84 707.14,431.76 724.29,431.53 741.43,431.78 758.57,431.90 775.71,431.22 792.86,431.73 810.00,431.62 827.14,431.01 844.29,431.61 861.43,431.02 878.57,430.91 895.71,429.24 912.86,431.25 930.00,429.32"/>
<circle cx="90.00" cy="269.55" r="4.5" fill="#059669" fill-opacity="0.9"/>
<circle cx="107.14" cy="417.14" r="4.5" fill="#059669" fill-opacity="0.9"/>
<circle cx="124.29" cy="406.90" r="4.5" fill="#059669" fill-opacity="0.9"/>
<circle cx="141.43" cy="423.85" r="4.5" fill="#059669" fill-opacity="0.9"/>
<circle cx="158.57" cy="430.87" r="4.5" fill="#059669" fill-opacity="0.9"/>
<circle cx="175.71" cy="431.97" r="4.5" fill="#059669" fill-opacity="0.9"/>
<circle cx="192.86" cy="430.82" r="4.5" fill="#059669" fill-opacity="0.9"/>
<circle cx="210.00" cy="432.67" r="4.5" fill="#059669" fill-opacity="0.9"/>
<circle cx="227.14" cy="433.04" r="4.5" fill="#059669" fill-opacity="0.9"/>
<circle cx="244.29" cy="432.33" r="4.5" fill="#059669" fill-opacity="0.9"/>
<circle cx="261.43" cy="432.00" r="4.5" fill="#059669" fill-opacity="0.9"/>
<circle cx="278.57" cy="432.31" r="4.5" fill="#059669" fill-opacity="0.9"/>
<circle cx="295.71" cy="432.89" r="4.5" fill="#059669" fill-opacity="0.9"/>
<circle cx="312.86" cy="433.02" r="4.5" fill="#059669" fill-opacity="0.9"/>
<circle cx="330.00" cy="432.75" r="4.5" fill="#059669" fill-opacity="0.9"/>
<circle cx="347.14" cy="432.39" r="4.5" fill="#059669" fill-opacity="0.9"/>
<circle cx="364.29" cy="433.40" r="4.5" fill="#059669" fill-opacity="0.9"/>
<circle cx="381.43" cy="432.91" r="4.5" fill="#059669" fill-opacity="0.9"/>
<circle cx="398.57" cy="432.96" r="4.5" fill="#059669" fill-opacity="0.9"/>
<circle cx="415.71" cy="432.58" r="4.5" fill="#059669" fill-opacity="0.9"/>
<circle cx="432.86" cy="431.34" r="4.5" fill="#059669" fill-opacity="0.9"/>
<circle cx="450.00" cy="432.76" r="4.5" fill="#059669" fill-opacity="0.9"/>
<circle cx="467.14" cy="432.47" r="4.5" fill="#059669" fill-opacity="0.9"/>
<circle cx="484.29" cy="432.68" r="4.5" fill="#059669" fill-opacity="0.9"/>
<circle cx="501.43" cy="432.30" r="4.5" fill="#059669" fill-opacity="0.9"/>
<circle cx="518.57" cy="432.59" r="4.5" fill="#059669" fill-opacity="0.9"/>
<circle cx="535.71" cy="432.68" r="4.5" fill="#059669" fill-opacity="0.9"/>
<circle cx="552.86" cy="430.92" r="4.5" fill="#059669" fill-opacity="0.9"/>
<circle cx="570.00" cy="432.04" r="4.5" fill="#059669" fill-opacity="0.9"/>
<circle cx="587.14" cy="429.60" r="4.5" fill="#059669" fill-opacity="0.9"/>
<circle cx="604.29" cy="432.30" r="4.5" fill="#059669" fill-opacity="0.9"/>
<circle cx="621.43" cy="432.20" r="4.5" fill="#059669" fill-opacity="0.9"/>
<circle cx="638.57" cy="431.98" r="4.5" fill="#059669" fill-opacity="0.9"/>
<circle cx="655.71" cy="431.86" r="4.5" fill="#059669" fill-opacity="0.9"/>
<circle cx="672.86" cy="431.79" r="4.5" fill="#059669" fill-opacity="0.9"/>
<circle cx="690.00" cy="431.84" r="4.5" fill="#059669" fill-opacity="0.9"/>
<circle cx="707.14" cy="431.76" r="4.5" fill="#059669" fill-opacity="0.9"/>
<circle cx="724.29" cy="431.53" r="4.5" fill="#059669" fill-opacity="0.9"/>
<circle cx="741.43" cy="431.78" r="4.5" fill="#059669" fill-opacity="0.9"/>
<circle cx="758.57" cy="431.90" r="4.5" fill="#059669" fill-opacity="0.9"/>
<circle cx="775.71" cy="431.22" r="4.5" fill="#059669" fill-opacity="0.9"/>
<circle cx="792.86" cy="431.73" r="4.5" fill="#059669" fill-opacity="0.9"/>
<circle cx="810.00" cy="431.62" r="4.5" fill="#059669" fill-opacity="0.9"/>
<circle cx="827.14" cy="431.01" r="4.5" fill="#059669" fill-opacity="0.9"/>
<circle cx="844.29" cy="431.61" r="4.5" fill="#059669" fill-opacity="0.9"/>
<circle cx="861.43" cy="431.02" r="4.5" fill="#059669" fill-opacity="0.9"/>
<circle cx="878.57" cy="430.91" r="4.5" fill="#059669" fill-opacity="0.9"/>
<circle cx="895.71" cy="429.24" r="4.5" fill="#059669" fill-opacity="0.9"/>
<circle cx="912.86" cy="431.25" r="4.5" fill="#059669" fill-opacity="0.9"/>
<circle cx="930.00" cy="429.32" r="4.5" fill="#059669" fill-opacity="0.9"/>
<rect x="450" y="32" width="18" height="6" fill="#059669"/>
<text x="474" y="38" font-size="13" fill="#333333">test</text>
</svg>