<svg xmlns="http://www.w3.org/2000/svg" width="960" height="540">
<rect width="100%" height="100%" fill="#ffffff"/>
<text x="480.0" y="30" font-size="22" text-anchor="middle" fill="#111111">Position 5 Accuracy</text>
<text x="20" y="270.0" font-size="16" transform="rotate(-90 20,270.0)" text-anchor="middle" fill="#333333">Accuracy</text>
<text x="480.0" y="520" font-size="16" text-anchor="middle" fill="#333333">Epoch</text>
<line x1="90" y1="60" x2="90" y2="470" stroke="#333333" stroke-width="2"/>
<line x1="90" y1="470" x2="930" y2="470" stroke="#333333" stroke-width="2"/>
<line x1="90" y1="470.00" x2="930" y2="470.00" stroke="#e5e7eb" stroke-width="1"/>
<text x="80" y="475.00" font-size="12" text-anchor="end" fill="#555555">0.5369</text>
<line x1="90" y1="367.50" x2="930" y2="367.50" stroke="#e5e7eb" stroke-width="1"/>
<text x="80" y="372.50" font-size="12" text-anchor="end" fill="#555555">0.6611</text>
<line x1="90" y1="265.00" x2="930" y2="265.00" stroke="#e5e7eb" stroke-width="1"/>
<text x="80" y="270.00" font-size="12" text-anchor="end" fill="#555555">0.7854</text>
<line x1="90" y1="162.50" x2="930" y2="162.50" stroke="#e5e7eb" stroke-width="1"/>
<text x="80" y="167.50" font-size="12" text-anchor="end" fill="#555555">0.9096</text>
<line x1="90" y1="60.00" x2="930" y2="60.00" stroke="#e5e7eb" stroke-width="1"/>
<text x="80" y="65.00" font-size="12" text-anchor="end" fill="#555555">1.0338</text>
<line x1="90.00" y1="60" x2="90.00" y2="470" stroke="#f3f4f6" stroke-width="1"/>
<text x="90.00" y="492" font-size="12" text-anchor="middle" fill="#555555">1</text>
<line x1="107.14" y1="60" x2="107.14" y2="470" stroke="#f3f4f6" stroke-width="1"/>
<text x="107.14" y="492" font-size="12" text-anchor="middle" fill="#555555">2</text>
<line x1="124.29" y1="60" x2="124.29" y2="470" stroke="#f3f4f6" stroke-width="1"/>
<text x="124.29" y="492" font-size="12" text-anchor="middle" fill="#555555">3</text>
<line x1="141.43" y1="60" x2="141.43" y2="470" stroke="#f3f4f6" stroke-width="1"/>
<text x="141.43" y="492" font-size="12" text-anchor="middle" fill="#555555">4</text>
<line x1="158.57" y1="60" x2="158.57" y2="470" stroke="#f3f4f6" stroke-width="1"/>
<text x="158.57" y="492" font-size="12" text-anchor="middle" fill="#555555">5</text>
<line x1="175.71" y1="60" x2="175.71" y2="470" stroke="#f3f4f6" stroke-width="1"/>
<text x="175.71" y="492" font-size="12" text-anchor="middle" fill="#555555">6</text>
<line x1="192.86" y1="60" x2="192.86" y2="470" stroke="#f3f4f6" stroke-width="1"/>
<text x="192.86" y="492" font-size="12" text-anchor="middle" fill="#555555">7</text>
<line x1="210.00" y1="60" x2="210.00" y2="470" stroke="#f3f4f6" stroke-width="1"/>
<text x="210.00" y="492" font-size="12" text-anchor="middle" fill="#555555">8</text>
<line x1="227.14" y1="60" x2="227.14" y2="470" stroke="#f3f4f6" stroke-width="1"/>
<text x="227.14" y="492" font-size="12" text-anchor="middle" fill="#555555">9</text>
<line x1="244.29" y1="60" x2="244.29" y2="470" stroke="#f3f4f6" stroke-width="1"/>
<text x="244.29" y="492" font-size="12" text-anchor="middle" fill="#555555">10</text>
<line x1="261.43" y1="60" x2="261.43" y2="470" stroke="#f3f4f6" stroke-width="1"/>
<text x="261.43" y="492" font-size="12" text-anchor="middle" fill="#555555">11</text>
<line x1="278.57" y1="60" x2="278.57" y2="470" stroke="#f3f4f6" stroke-width="1"/>
<text x="278.57" y="492" font-size="12" text-anchor="middle" fill="#555555">12</text>
<line x1="295.71" y1="60" x2="295.71" y2="470" stroke="#f3f4f6" stroke-width="1"/>
<text x="295.71" y="492" font-size="12" text-anchor="middle" fill="#555555">13</text>
<line x1="312.86" y1="60" x2="312.86" y2="470" stroke="#f3f4f6" stroke-width="1"/>
<text x="312.86" y="492" font-size="12" text-anchor="middle" fill="#555555">14</text>
<line x1="330.00" y1="60" x2="330.00" y2="470" stroke="#f3f4f6" stroke-width="1"/>
<text x="330.00" y="492" font-size="12" text-anchor="middle" fill="#555555">15</text>
<line x1="347.14" y1="60" x2="347.14" y2="470" stroke="#f3f4f6" stroke-width="1"/>
<text x="347.14" y="492" font-size="12" text-anchor="middle" fill="#555555">16</text>
<line x1="364.29" y1="60" x2="364.29" y2="470" stroke="#f3f4f6" stroke-width="1"/>
<text x="364.29" y="492" font-size="12" text-anchor="middle" fill="#555555">17</text>
<line x1="381.43" y1="60" x2="381.43" y2="470" stroke="#f3f4f6" stroke-width="1"/>
<text x="381.43" y="492" font-size="12" text-anchor="middle" fill="#555555">18</text>
<line x1="398.57" y1="60" x2="398.57" y2="470" stroke="#f3f4f6" stroke-width="1"/>
<text x="398.57" y="492" font-size="12" text-anchor="middle" fill="#555555">19</text>
<line x1="415.71" y1="60" x2="415.71" y2="470" stroke="#f3f4f6" stroke-width="1"/>
<text x="415.71" y="492" font-size="12" text-anchor="middle" fill="#555555">20</text>
<line x1="432.86" y1="60" x2="432.86" y2="470" stroke="#f3f4f6" stroke-width="1"/>
<text x="432.86" y="492" font-size="12" text-anchor="middle" fill="#555555">21</text>
<line x1="450.00" y1="60" x2="450.00" y2="470" stroke="#f3f4f6" stroke-width="1"/>
<text x="450.00" y="492" font-size="12" text-anchor="middle" fill="#555555">22</text>
<line x1="467.14" y1="60" x2="467.14" y2="470" stroke="#f3f4f6" stroke-width="1"/>
<text x="467.14" y="492" font-size="12" text-anchor="middle" fill="#555555">23</text>
<line x1="484.29" y1="60" x2="484.29" y2="470" stroke="#f3f4f6" stroke-width="1"/>
<text x="484.29" y="492" font-size="12" text-anchor="middle" fill="#555555">24</text>
<line x1="501.43" y1="60" x2="501.43" y2="470" stroke="#f3f4f6" stroke-width="1"/>
<text x="501.43" y="492" font-size="12" text-anchor="middle" fill="#555555">25</text>
<line x1="518.57" y1="60" x2="518.57" y2="470" stroke="#f3f4f6" stroke-width="1"/>
<text x="518.57" y="492" font-size="12" text-anchor="middle" fill="#555555">26</text>
<line x1="535.71" y1="60" x2="535.71" y2="470" stroke="#f3f4f6" stroke-width="1"/>
<text x="535.71" y="492" font-size="12" text-anchor="middle" fill="#555555">27</text>
<line x1="552.86" y1="60" x2="552.86" y2="470" stroke="#f3f4f6" stroke-width="1"/>
<text x="552.86" y="492" font-size="12" text-anchor="middle" fill="#555555">28</text>
<line x1="570.00" y1="60" x2="570.00" y2="470" stroke="#f3f4f6" stroke-width="1"/>
<text x="570.00" y="492" font-size="12" text-anchor="middle" fill="#555555">29</text>
<line x1="587.14" y1="60" x2="587.14" y2="470" stroke="#f3f4f6" stroke-width="1"/>
<text x="587.14" y="492" font-size="12" text-anchor="middle" fill="#555555">30</text>
<line x1="604.29" y1="60" x2="604.29" y2="470" stroke="#f3f4f6" stroke-width="1"/>
<text x="604.29" y="492" font-size="12" text-anchor="middle" fill="#555555">31</text>
<line x1="621.43" y1="60" x2="621.43" y2="470" stroke="#f3f4f6" stroke-width="1"/>
<text x="621.43" y="492" font-size="12" text-anchor="middle" fill="#555555">32</text>
<line x1="638.57" y1="60" x2="638.57" y2="470" stroke="#f3f4f6" stroke-width="1"/>
<text x="638.57" y="492" font-size="12" text-anchor="middle" fill="#555555">33</text>
<line x1="655.71" y1="60" x2="655.71" y2="470" stroke="#f3f4f6" stroke-width="1"/>
<text x="655.71" y="492" font-size="12" text-anchor="middle" fill="#555555">34</text>
<line x1="672.86" y1="60" x2="672.86" y2="470" stroke="#f3f4f6" stroke-width="1"/>
<text x="672.86" y="492" font-size="12" text-anchor="middle" fill="#555555">35</text>
<line x1="690.00" y1="60" x2="690.00" y2="470" stroke="#f3f4f6" stroke-width="1"/>
<text x="690.00" y="492" font-size="12" text-anchor="middle" fill="#555555">36</text>
<line x1="707.14" y1="60" x2="707.14" y2="470" stroke="#f3f4f6" stroke-width="1"/>
<text x="707.14" y="492" font-size="12" text-anchor="middle" fill="#555555">37</text>
<line x1="724.29" y1="60" x2="724.29" y2="470" stroke="#f3f4f6" stroke-width="1"/>
<text x="724.29" y="492" font-size="12" text-anchor="middle" fill="#555555">38</text>
<line x1="741.43" y1="60" x2="741.43" y2="470" stroke="#f3f4f6" stroke-width="1"/>
<text x="741.43" y="492" font-size="12" text-anchor="middle" fill="#555555">39</text>
<line x1="758.57" y1="60" x2="758.57" y2="470" stroke="#f3f4f6" stroke-width="1"/>
<text x="758.57" y="492" font-size="12" text-anchor="middle" fill="#555555">40</text>
<line x1="775.71" y1="60" x2="775.71" y2="470" stroke="#f3f4f6" stroke-width="1"/>
<text x="775.71" y="492" font-size="12" text-anchor="middle" fill="#555555">41</text>
<line x1="792.86" y1="60" x2="792.86" y2="470" stroke="#f3f4f6" stroke-width="1"/>
<text x="792.86" y="492" font-size="12" text-anchor="middle" fill="#555555">42</text>
<line x1="810.00" y1="60" x2="810.00" y2="470" stroke="#f3f4f6" stroke-width="1"/>
<text x="810.00" y="492" font-size="12" text-anchor="middle" fill="#555555">43</text>
<line x1="827.14" y1="60" x2="827.14" y2="470" stroke="#f3f4f6" stroke-width="1"/>
<text x="827.14" y="492" font-size="12" text-anchor="middle" fill="#555555">44</text>
<line x1="844.29" y1="60" x2="844.29" y2="470" stroke="#f3f4f6" stroke-width="1"/>
<text x="844.29" y="492" font-size="12" text-anchor="middle" fill="#555555">45</text>
<line x1="861.43" y1="60" x2="861.43" y2="470" stroke="#f3f4f6" stroke-width="1"/>
<text x="861.43" y="492" font-size="12" text-anchor="middle" fill="#555555">46</text>
<line x1="878.57" y1="60" x2="878.57" y2="470" stroke="#f3f4f6" stroke-width="1"/>
<text x="878.57" y="492" font-size="12" text-anchor="middle" fill="#555555">47</text>
<line x1="895.71" y1="60" x2="895.71" y2="470" stroke="#f3f4f6" stroke-width="1"/>
<text x="895.71" y="492" font-size="12" text-anchor="middle" fill="#555555">48</text>
<line x1="912.86" y1="60" x2="912.86" y2="470" stroke="#f3f4f6" stroke-width="1"/>
<text x="912.86" y="492" font-size="12" text-anchor="middle" fill="#555555">49</text>
<line x1="930.00" y1="60" x2="930.00" y2="470" stroke="#f3f4f6" stroke-width="1"/>
<text x="930.00" y="492" font-size="12" text-anchor="middle" fill="#555555">50</text>
<polyline fill="none" stroke="#d97706" stroke-width="3" points="90.00,431.98 107.14,131.68 124.29,135.86 141.43,111.60 158.57,100.77 175.71,98.95 192.86,105.28 210.00,97.69 227.14,95.10 244.29,95.87 261.43,100.66 278.57,96.31 295.71,96.26 312.86,95.16 330.00,95.65 347.14,97.63 364.29,94.44 381.43,95.38 398.57,96.37 415.71,95.10 432.86,98.07 450.00,94.99 467.14,94.83 484.29,94.94 501.43,94.66 518.57,94.77 535.71,94.99 552.86,96.81 570.00,94.44 587.14,98.07 604.29,94.39 621.43,94.61 638.57,94.17 655.71,94.83 672.86,94.50 690.00,94.99 707.14,94.88 724.29,95.60 741.43,94.99 758.57,95.16 775.71,94.61 792.86,94.50 810.00,94.61 827.14,94.94 844.29,94.83 861.43,95.43 878.57,95.71 895.71,96.75 912.86,95.38 930.00,97.96"/>
<circle cx="90.00" cy="431.98" r="4.5" fill="#d97706" fill-opacity="0.9"/>
<circle cx="107.14" cy="131.68" r="4.5" fill="#d97706" fill-opacity="0.9"/>
<circle cx="124.29" cy="135.86" r="4.5" fill="#d97706" fill-opacity="0.9"/>
<circle cx="141.43" cy="111.60" r="4.5" fill="#d97706" fill-opacity="0.9"/>
<circle cx="158.57" cy="100.77" r="4.5" fill="#d97706" fill-opacity="0.9"/>
<circle cx="175.71" cy="98.95" r="4.5" fill="#d97706" fill-opacity="0.9"/>
<circle cx="192.86" cy="105.28" r="4.5" fill="#d97706" fill-opacity="0.9"/>
<circle cx="210.00" cy="97.69" r="4.5" fill="#d97706" fill-opacity="0.9"/>
<circle cx="227.14" cy="95.10" r="4.5" fill="#d97706" fill-opacity="0.9"/>
<circle cx="244.29" cy="95.87" r="4.5" fill="#d97706" fill-opacity="0.9"/>
<circle cx="261.43" cy="100.66" r="4.5" fill="#d97706" fill-opacity="0.9"/>
<circle cx="278.57" cy="96.31" r="4.5" fill="#d97706" fill-opacity="0.9"/>
<circle cx="295.71" cy="96.26" r="4.5" fill="#d97706" fill-opacity="0.9"/>
<circle cx="312.86" cy="95.16" r="4.5" fill="#d97706" fill-opacity="0.9"/>
<circle cx="330.00" cy="95.65" r="4.5" fill="#d97706" fill-opacity="0.9"/>
<circle cx="347.14" cy="97.63" r="4.5" fill="#d97706" fill-opacity="0.9"/>
<circle cx="364.29" cy="94.44" r="4.5" fill="#d97706" fill-opacity="0.9"/>
<circle cx="381.43" cy="95.38" r="4.5" fill="#d97706" fill-opacity="0.9"/>
<circle cx="398.57" cy="96.37" r="4.5" fill="#d97706" fill-opacity="0.9"/>
<circle cx="415.71" cy="95.10" r="4.5" fill="#d97706" fill-opacity="0.9"/>
<circle cx="432.86" cy="98.07" r="4.5" fill="#d97706" fill-opacity="0.9"/>
<circle cx="450.00" cy="94.99" r="4.5" fill="#d97706" fill-opacity="0.9"/>
<circle cx="467.14" cy="94.83" r="4.5" fill="#d97706" fill-opacity="0.9"/>
<circle cx="484.29" cy="94.94" r="4.5" fill="#d97706" fill-opacity="0.9"/>
<circle cx="501.43" cy="94.66" r="4.5" fill="#d97706" fill-opacity="0.9"/>
<circle cx="518.57" cy="94.77" r="4.5" fill="#d97706" fill-opacity="0.9"/>
<circle cx="535.71" cy="94.99" r="4.5" fill="#d97706" fill-opacity="0.9"/>
<circle cx="552.86" cy="96.81" r="4.5" fill="#d97706" fill-opacity="0.9"/>
<circle cx="570.00" cy="94.44" r="4.5" fill="#d97706" fill-opacity="0.9"/>
<circle cx="587.14" cy="98.07" r="4.5" fill="#d97706" fill-opacity="0.9"/>
<circle cx="604.29" cy="94.39" r="4.5" fill="#d97706" fill-opacity="0.9"/>
<circle cx="621.43" cy="94.61" r="4.5" fill="#d97706" fill-opacity="0.9"/>
<circle cx="638.57" cy="94.17" r="4.5" fill="#d97706" fill-opacity="0.9"/>
<circle cx="655.71" cy="94.83" r="4.5" fill="#d97706" fill-opacity="0.9"/>
<circle cx="672.86" cy="94.50" r="4.5" fill="#d97706" fill-opacity="0.9"/>
<circle cx="690.00" cy="94.99" r="4.5" fill="#d97706" fill-opacity="0.9"/>
<circle cx="707.14" cy="94.88" r="4.5" fill="#d97706" fill-opacity="0.9"/>
<circle cx="724.29" cy="95.60" r="4.5" fill="#d97706" fill-opacity="0.9"/>
<circle cx="741.43" cy="94.99" r="4.5" fill="#d97706" fill-opacity="0.9"/>
<circle cx="758.57" cy="95.16" r="4.5" fill="#d97706" fill-opacity="0.9"/>
<circle cx="775.71" cy="94.61" r="4.5" fill="#d97706" fill-opacity="0.9"/>
<circle cx="792.86" cy="94.50" r="4.5" fill="#d97706" fill-opacity="0.9"/>
<circle cx="810.00" cy="94.61" r="4.5" fill="#d97706" fill-opacity="0.9"/>
<circle cx="827.14" cy="94.94" r="4.5" fill="#d97706" fill-opacity="0.9"/>
<circle cx="844.29" cy="94.83" r="4.5" fill="#d97706" fill-opacity="0.9"/>
<circle cx="861.43" cy="95.43" r="4.5" fill="#d97706" fill-opacity="0.9"/>
<circle cx="878.57" cy="95.71" r="4.5" fill="#d97706" fill-opacity="0.9"/>
<circle cx="895.71" cy="96.75" r="4.5" fill="#d97706" fill-opacity="0.9"/>
<circle cx="912.86" cy="95.38" r="4.5" fill="#d97706" fill-opacity="0.9"/>
<circle cx="930.00" cy="97.96" r="4.5" fill="#d97706" fill-opacity="0.9"/>
<rect x="90" y="32" width="18" height="6" fill="#d97706"/>
<text x="114" y="38" font-size="13" fill="#333333">val</text>
<polyline fill="none" stroke="#059669" stroke-width="3" points="90.00,435.83 107.14,135.92 124.29,138.56 141.43,110.78 158.57,101.32 175.71,99.12 192.86,105.83 210.00,98.07 227.14,95.71 244.29,96.53 261.43,100.66 278.57,96.48 295.71,96.15 312.86,96.75 330.00,96.92 347.14,99.50 364.29,94.50 381.43,95.93 398.57,97.80 415.71,95.76 432.86,99.12 450.00,95.65 467.14,96.31 484.29,95.93 501.43,94.94 518.57,94.99 535.71,95.16 552.86,97.19 570.00,94.55 587.14,99.50 604.29,95.54 621.43,95.32 638.57,95.98 655.71,94.99 672.86,94.83 690.00,96.09 707.14,95.32 724.29,96.15 741.43,96.26 758.57,95.93 775.71,94.83 792.86,94.99 810.00,95.27 827.14,95.32 844.29,95.05 861.43,95.49 878.57,95.71 895.71,99.06 912.86,95.65 930.00,99.78"/>
<circle cx="90.00" cy="435.83" r="4.5" fill="#059669" fill-opacity="0.9"/>
<circle cx="107.14" cy="135.92" r="4.5" fill="#059669" fill-opacity="0.9"/>
<circle cx="124.29" cy="138.56" r="4.5" fill="#059669" fill-opacity="0.9"/>
<circle cx="141.43" cy="110.78" r="4.5" fill="#059669" fill-opacity="0.9"/>
<circle cx="158.57" cy="101.32" r="4.5" fill="#059669" fill-opacity="0.9"/>
<circle cx="175.71" cy="99.12" r="4.5" fill="#059669" fill-opacity="0.9"/>
<circle cx="192.86" cy="105.83" r="4.5" fill="#059669" fill-opacity="0.9"/>
<circle cx="210.00" cy="98.07" r="4.5" fill="#059669" fill-opacity="0.9"/>
<circle cx="227.14" cy="95.71" r="4.5" fill="#059669" fill-opacity="0.9"/>
<circle cx="244.29" cy="96.53" r="4.5" fill="#059669" fill-opacity="0.9"/>
<circle cx="261.43" cy="100.66" r="4.5" fill="#059669" fill-opacity="0.9"/>
<circle cx="278.57" cy="96.48" r="4.5" fill="#059669" fill-opacity="0.9"/>
<circle cx="295.71" cy="96.15" r="4.5" fill="#059669" fill-opacity="0.9"/>
<circle cx="312.86" cy="96.75" r="4.5" fill="#059669" fill-opacity="0.9"/>
<circle cx="330.00" cy="96.92" r="4.5" fill="#059669" fill-opacity="0.9"/>
<circle cx="347.14" cy="99.50" r="4.5" fill="#059669" fill-opacity="0.9"/>
<circle cx="364.29" cy="94.50" r="4.5" fill="#059669" fill-opacity="0.9"/>
<circle cx="381.43" cy="95.93" r="4.5" fill="#059669" fill-opacity="0.9"/>
<circle cx="398.57" cy="97.80" r="4.5" fill="#059669" fill-opacity="0.9"/>
<circle cx="415.71" cy="95.76" r="4.5" fill="#059669" fill-opacity="0.9"/>
<circle cx="432.86" cy="99.12" r="4.5" fill="#059669" fill-opacity="0.9"/>
<circle cx="450.00" cy="95.65" r="4.5" fill="#059669" fill-opacity="0.9"/>
<circle cx="467.14" cy="96.31" r="4.5" fill="#059669" fill-opacity="0.9"/>
<circle cx="484.29" cy="95.93" r="4.5" fill="#059669" fill-opacity="0.9"/>
<circle cx="501.43" cy="94.94" r="4.5" fill="#059669" fill-opacity="0.9"/>
<circle cx="518.57" cy="94.99" r="4.5" fill="#059669" fill-opacity="0.9"/>
<circle cx="535.71" cy="95.16" r="4.5" fill="#059669" fill-opacity="0.9"/>
<circle cx="552.86" cy="97.19" r="4.5" fill="#059669" fill-opacity="0.9"/>
<circle cx="570.00" cy="94.55" r="4.5" fill="#059669" fill-opacity="0.9"/>
<circle cx="587.14" cy="99.50" r="4.5" fill="#059669" fill-opacity="0.9"/>
<circle cx="604.29" cy="95.54" r="4.5" fill="#059669" fill-opacity="0.9"/>
<circle cx="621.43" cy="95.32" r="4.5" fill="#059669" fill-opacity="0.9"/>
<circle cx="638.57" cy="95.98" r="4.5" fill="#059669" fill-opacity="0.9"/>
<circle cx="655.71" cy="94.99" r="4.5" fill="#059669" fill-opacity="0.9"/>
<circle cx="672.86" cy="94.83" r="4.5" fill="#059669" fill-opacity="0.9"/>
<circle cx="690.00" cy="96.09" r="4.5" fill="#059669" fill-opacity="0.9"/>
<circle cx="707.14" cy="95.32" r="4.5" fill="#059669" fill-opacity="0.9"/>
<circle cx="724.29" cy="96.15" r="4.5" fill="#059669" fill-opacity="0.9"/>
<circle cx="741.43" cy="96.26" r="4.5" fill="#059669" fill-opacity="0.9"/>
<circle cx="758.57" cy="95.93" r="4.5" fill="#059669" fill-opacity="0.9"/>
<circle cx="775.71" cy="94.83" r="4.5" fill="#059669" fill-opacity="0.9"/>
<circle cx="792.86" cy="94.99" r="4.5" fill="#059669" fill-opacity="0.9"/>
<circle cx="810.00" cy="95.27" r="4.5" fill="#059669" fill-opacity="0.9"/>
<circle cx="827.14" cy="95.32" r="4.5" fill="#059669" fill-opacity="0.9"/>
<circle cx="844.29" cy="95.05" r="4.5" fill="#059669" fill-opacity="0.9"/>
<circle cx="861.43" cy="95.49" r="4.5" fill="#059669" fill-opacity="0.9"/>
<circle cx="878.57" cy="95.71" r="4.5" fill="#059669" fill-opacity="0.9"/>
<circle cx="895.71" cy="99.06" r="4.5" fill="#059669" fill-opacity="0.9"/>
<circle cx="912.86" cy="95.65" r="4.5" fill="#059669" fill-opacity="0.9"/>
<circle cx="930.00" cy="99.78" r="4.5" fill="#059669" fill-opacity="0.9"/>
<rect x="270" y="32" width="18" height="6" fill="#059669"/>
<text x="294" y="38" font-size="13" fill="#333333">test</text>
</svg>