<svg xmlns="http://www.w3.org/2000/svg" width="960" height="540">
<rect width="100%" height="100%" fill="#ffffff"/>
<text x="480.0" y="30" font-size="22" text-anchor="middle" fill="#111111">Position 3 Accuracy</text>
<text x="20" y="270.0" font-size="16" transform="rotate(-90 20,270.0)" text-anchor="middle" fill="#333333">Accuracy</text>
<text x="480.0" y="520" font-size="16" text-anchor="middle" fill="#333333">Epoch</text>
<line x1="90" y1="60" x2="90" y2="470" stroke="#333333" stroke-width="2"/>
<line x1="90" y1="470" x2="930" y2="470" stroke="#333333" stroke-width="2"/>
<line x1="90" y1="470.00" x2="930" y2="470.00" stroke="#e5e7eb" stroke-width="1"/>
<text x="80" y="475.00" font-size="12" text-anchor="end" fill="#555555">0.2019</text>
<line x1="90" y1="367.50" x2="930" y2="367.50" stroke="#e5e7eb" stroke-width="1"/>
<text x="80" y="372.50" font-size="12" text-anchor="end" fill="#555555">0.4168</text>
<line x1="90" y1="265.00" x2="930" y2="265.00" stroke="#e5e7eb" stroke-width="1"/>
<text x="80" y="270.00" font-size="12" text-anchor="end" fill="#555555">0.6318</text>
<line x1="90" y1="162.50" x2="930" y2="162.50" stroke="#e5e7eb" stroke-width="1"/>
<text x="80" y="167.50" font-size="12" text-anchor="end" fill="#555555">0.8467</text>
<line x1="90" y1="60.00" x2="930" y2="60.00" stroke="#e5e7eb" stroke-width="1"/>
<text x="80" y="65.00" font-size="12" text-anchor="end" fill="#555555">1.0616</text>
<line x1="90.00" y1="60" x2="90.00" y2="470" stroke="#f3f4f6" stroke-width="1"/>
<text x="90.00" y="492" font-size="12" text-anchor="middle" fill="#555555">1</text>
<line x1="107.14" y1="60" x2="107.14" y2="470" stroke="#f3f4f6" stroke-width="1"/>
<text x="107.14" y="492" font-size="12" text-anchor="middle" fill="#555555">2</text>
<line x1="124.29" y1="60" x2="124.29" y2="470" stroke="#f3f4f6" stroke-width="1"/>
<text x="124.29" y="492" font-size="12" text-anchor="middle" fill="#555555">3</text>
<line x1="141.43" y1="60" x2="141.43" y2="470" stroke="#f3f4f6" stroke-width="1"/>
<text x="141.43" y="492" font-size="12" text-anchor="middle" fill="#555555">4</text>
<line x1="158.57" y1="60" x2="158.57" y2="470" stroke="#f3f4f6" stroke-width="1"/>
<text x="158.57" y="492" font-size="12" text-anchor="middle" fill="#555555">5</text>
<line x1="175.71" y1="60" x2="175.71" y2="470" stroke="#f3f4f6" stroke-width="1"/>
<text x="175.71" y="492" font-size="12" text-anchor="middle" fill="#555555">6</text>
<line x1="192.86" y1="60" x2="192.86" y2="470" stroke="#f3f4f6" stroke-width="1"/>
<text x="192.86" y="492" font-size="12" text-anchor="middle" fill="#555555">7</text>
<line x1="210.00" y1="60" x2="210.00" y2="470" stroke="#f3f4f6" stroke-width="1"/>
<text x="210.00" y="492" font-size="12" text-anchor="middle" fill="#555555">8</text>
<line x1="227.14" y1="60" x2="227.14" y2="470" stroke="#f3f4f6" stroke-width="1"/>
<text x="227.14" y="492" font-size="12" text-anchor="middle" fill="#555555">9</text>
<line x1="244.29" y1="60" x2="244.29" y2="470" stroke="#f3f4f6" stroke-width="1"/>
<text x="244.29" y="492" font-size="12" text-anchor="middle" fill="#555555">10</text>
<line x1="261.43" y1="60" x2="261.43" y2="470" stroke="#f3f4f6" stroke-width="1"/>
<text x="261.43" y="492" font-size="12" text-anchor="middle" fill="#555555">11</text>
<line x1="278.57" y1="60" x2="278.57" y2="470" stroke="#f3f4f6" stroke-width="1"/>
<text x="278.57" y="492" font-size="12" text-anchor="middle" fill="#555555">12</text>
<line x1="295.71" y1="60" x2="295.71" y2="470" stroke="#f3f4f6" stroke-width="1"/>
<text x="295.71" y="492" font-size="12" text-anchor="middle" fill="#555555">13</text>
<line x1="312.86" y1="60" x2="312.86" y2="470" stroke="#f3f4f6" stroke-width="1"/>
<text x="312.86" y="492" font-size="12" text-anchor="middle" fill="#555555">14</text>
<line x1="330.00" y1="60" x2="330.00" y2="470" stroke="#f3f4f6" stroke-width="1"/>
<text x="330.00" y="492" font-size="12" text-anchor="middle" fill="#555555">15</text>
<line x1="347.14" y1="60" x2="347.14" y2="470" stroke="#f3f4f6" stroke-width="1"/>
<text x="347.14" y="492" font-size="12" text-anchor="middle" fill="#555555">16</text>
<line x1="364.29" y1="60" x2="364.29" y2="470" stroke="#f3f4f6" stroke-width="1"/>
<text x="364.29" y="492" font-size="12" text-anchor="middle" fill="#555555">17</text>
<line x1="381.43" y1="60" x2="381.43" y2="470" stroke="#f3f4f6" stroke-width="1"/>
<text x="381.43" y="492" font-size="12" text-anchor="middle" fill="#555555">18</text>
<line x1="398.57" y1="60" x2="398.57" y2="470" stroke="#f3f4f6" stroke-width="1"/>
<text x="398.57" y="492" font-size="12" text-anchor="middle" fill="#555555">19</text>
<line x1="415.71" y1="60" x2="415.71" y2="470" stroke="#f3f4f6" stroke-width="1"/>
<text x="415.71" y="492" font-size="12" text-anchor="middle" fill="#555555">20</text>
<line x1="432.86" y1="60" x2="432.86" y2="470" stroke="#f3f4f6" stroke-width="1"/>
<text x="432.86" y="492" font-size="12" text-anchor="middle" fill="#555555">21</text>
<line x1="450.00" y1="60" x2="450.00" y2="470" stroke="#f3f4f6" stroke-width="1"/>
<text x="450.00" y="492" font-size="12" text-anchor="middle" fill="#555555">22</text>
<line x1="467.14" y1="60" x2="467.14" y2="470" stroke="#f3f4f6" stroke-width="1"/>
<text x="467.14" y="492" font-size="12" text-anchor="middle" fill="#555555">23</text>
<line x1="484.29" y1="60" x2="484.29" y2="470" stroke="#f3f4f6" stroke-width="1"/>
<text x="484.29" y="492" font-size="12" text-anchor="middle" fill="#555555">24</text>
<line x1="501.43" y1="60" x2="501.43" y2="470" stroke="#f3f4f6" stroke-width="1"/>
<text x="501.43" y="492" font-size="12" text-anchor="middle" fill="#555555">25</text>
<line x1="518.57" y1="60" x2="518.57" y2="470" stroke="#f3f4f6" stroke-width="1"/>
<text x="518.57" y="492" font-size="12" text-anchor="middle" fill="#555555">26</text>
<line x1="535.71" y1="60" x2="535.71" y2="470" stroke="#f3f4f6" stroke-width="1"/>
<text x="535.71" y="492" font-size="12" text-anchor="middle" fill="#555555">27</text>
<line x1="552.86" y1="60" x2="552.86" y2="470" stroke="#f3f4f6" stroke-width="1"/>
<text x="552.86" y="492" font-size="12" text-anchor="middle" fill="#555555">28</text>
<line x1="570.00" y1="60" x2="570.00" y2="470" stroke="#f3f4f6" stroke-width="1"/>
<text x="570.00" y="492" font-size="12" text-anchor="middle" fill="#555555">29</text>
<line x1="587.14" y1="60" x2="587.14" y2="470" stroke="#f3f4f6" stroke-width="1"/>
<text x="587.14" y="492" font-size="12" text-anchor="middle" fill="#555555">30</text>
<line x1="604.29" y1="60" x2="604.29" y2="470" stroke="#f3f4f6" stroke-width="1"/>
<text x="604.29" y="492" font-size="12" text-anchor="middle" fill="#555555">31</text>
<line x1="621.43" y1="60" x2="621.43" y2="470" stroke="#f3f4f6" stroke-width="1"/>
<text x="621.43" y="492" font-size="12" text-anchor="middle" fill="#555555">32</text>
<line x1="638.57" y1="60" x2="638.57" y2="470" stroke="#f3f4f6" stroke-width="1"/>
<text x="638.57" y="492" font-size="12" text-anchor="middle" fill="#555555">33</text>
<line x1="655.71" y1="60" x2="655.71" y2="470" stroke="#f3f4f6" stroke-width="1"/>
<text x="655.71" y="492" font-size="12" text-anchor="middle" fill="#555555">34</text>
<line x1="672.86" y1="60" x2="672.86" y2="470" stroke="#f3f4f6" stroke-width="1"/>
<text x="672.86" y="492" font-size="12" text-anchor="middle" fill="#555555">35</text>
<line x1="690.00" y1="60" x2="690.00" y2="470" stroke="#f3f4f6" stroke-width="1"/>
<text x="690.00" y="492" font-size="12" text-anchor="middle" fill="#555555">36</text>
<line x1="707.14" y1="60" x2="707.14" y2="470" stroke="#f3f4f6" stroke-width="1"/>
<text x="707.14" y="492" font-size="12" text-anchor="middle" fill="#555555">37</text>
<line x1="724.29" y1="60" x2="724.29" y2="470" stroke="#f3f4f6" stroke-width="1"/>
<text x="724.29" y="492" font-size="12" text-anchor="middle" fill="#555555">38</text>
<line x1="741.43" y1="60" x2="741.43" y2="470" stroke="#f3f4f6" stroke-width="1"/>
<text x="741.43" y="492" font-size="12" text-anchor="middle" fill="#555555">39</text>
<line x1="758.57" y1="60" x2="758.57" y2="470" stroke="#f3f4f6" stroke-width="1"/>
<text x="758.57" y="492" font-size="12" text-anchor="middle" fill="#555555">40</text>
<line x1="775.71" y1="60" x2="775.71" y2="470" stroke="#f3f4f6" stroke-width="1"/>
<text x="775.71" y="492" font-size="12" text-anchor="middle" fill="#555555">41</text>
<line x1="792.86" y1="60" x2="792.86" y2="470" stroke="#f3f4f6" stroke-width="1"/>
<text x="792.86" y="492" font-size="12" text-anchor="middle" fill="#555555">42</text>
<line x1="810.00" y1="60" x2="810.00" y2="470" stroke="#f3f4f6" stroke-width="1"/>
<text x="810.00" y="492" font-size="12" text-anchor="middle" fill="#555555">43</text>
<line x1="827.14" y1="60" x2="827.14" y2="470" stroke="#f3f4f6" stroke-width="1"/>
<text x="827.14" y="492" font-size="12" text-anchor="middle" fill="#555555">44</text>
<line x1="844.29" y1="60" x2="844.29" y2="470" stroke="#f3f4f6" stroke-width="1"/>
<text x="844.29" y="492" font-size="12" text-anchor="middle" fill="#555555">45</text>
<line x1="861.43" y1="60" x2="861.43" y2="470" stroke="#f3f4f6" stroke-width="1"/>
<text x="861.43" y="492" font-size="12" text-anchor="middle" fill="#555555">46</text>
<line x1="878.57" y1="60" x2="878.57" y2="470" stroke="#f3f4f6" stroke-width="1"/>
<text x="878.57" y="492" font-size="12" text-anchor="middle" fill="#555555">47</text>
<line x1="895.71" y1="60" x2="895.71" y2="470" stroke="#f3f4f6" stroke-width="1"/>
<text x="895.71" y="492" font-size="12" text-anchor="middle" fill="#555555">48</text>
<line x1="912.86" y1="60" x2="912.86" y2="470" stroke="#f3f4f6" stroke-width="1"/>
<text x="912.86" y="492" font-size="12" text-anchor="middle" fill="#555555">49</text>
<line x1="930.00" y1="60" x2="930.00" y2="470" stroke="#f3f4f6" stroke-width="1"/>
<text x="930.00" y="492" font-size="12" text-anchor="middle" fill="#555555">50</text>
<polyline fill="none" stroke="#d97706" stroke-width="3" points="90.00,431.19 107.14,124.69 124.29,125.51 141.43,115.02 158.57,100.68 175.71,99.03 192.86,99.89 210.00,96.71 227.14,95.60 244.29,97.31 261.43,97.06 278.57,97.35 295.71,95.41 312.86,95.98 330.00,96.84 347.14,96.30 364.29,95.44 381.43,95.03 398.57,95.09 415.71,96.20 432.86,96.30 450.00,94.99 467.14,94.52 484.29,95.31 501.43,94.77 518.57,94.90 535.71,94.52 552.86,95.88 570.00,95.18 587.14,96.77 604.29,95.06 621.43,94.77 638.57,95.09 655.71,95.22 672.86,94.68 690.00,95.63 707.14,94.36 724.29,95.28 741.43,95.31 758.57,94.77 775.71,94.96 792.86,95.06 810.00,94.99 827.14,95.34 844.29,95.09 861.43,95.09 878.57,95.03 895.71,96.84 912.86,95.31 930.00,96.46"/>
<circle cx="90.00" cy="431.19" r="4.5" fill="#d97706" fill-opacity="0.9"/>
<circle cx="107.14" cy="124.69" r="4.5" fill="#d97706" fill-opacity="0.9"/>
<circle cx="124.29" cy="125.51" r="4.5" fill="#d97706" fill-opacity="0.9"/>
<circle cx="141.43" cy="115.02" r="4.5" fill="#d97706" fill-opacity="0.9"/>
<circle cx="158.57" cy="100.68" r="4.5" fill="#d97706" fill-opacity="0.9"/>
<circle cx="175.71" cy="99.03" r="4.5" fill="#d97706" fill-opacity="0.9"/>
<circle cx="192.86" cy="99.89" r="4.5" fill="#d97706" fill-opacity="0.9"/>
<circle cx="210.00" cy="96.71" r="4.5" fill="#d97706" fill-opacity="0.9"/>
<circle cx="227.14" cy="95.60" r="4.5" fill="#d97706" fill-opacity="0.9"/>
<circle cx="244.29" cy="97.31" r="4.5" fill="#d97706" fill-opacity="0.9"/>
<circle cx="261.43" cy="97.06" r="4.5" fill="#d97706" fill-opacity="0.9"/>
<circle cx="278.57" cy="97.35" r="4.5" fill="#d97706" fill-opacity="0.9"/>
<circle cx="295.71" cy="95.41" r="4.5" fill="#d97706" fill-opacity="0.9"/>
<circle cx="312.86" cy="95.98" r="4.5" fill="#d97706" fill-opacity="0.9"/>
<circle cx="330.00" cy="96.84" r="4.5" fill="#d97706" fill-opacity="0.9"/>
<circle cx="347.14" cy="96.30" r="4.5" fill="#d97706" fill-opacity="0.9"/>
<circle cx="364.29" cy="95.44" r="4.5" fill="#d97706" fill-opacity="0.9"/>
<circle cx="381.43" cy="95.03" r="4.5" fill="#d97706" fill-opacity="0.9"/>
<circle cx="398.57" cy="95.09" r="4.5" fill="#d97706" fill-opacity="0.9"/>
<circle cx="415.71" cy="96.20" r="4.5" fill="#d97706" fill-opacity="0.9"/>
<circle cx="432.86" cy="96.30" r="4.5" fill="#d97706" fill-opacity="0.9"/>
<circle cx="450.00" cy="94.99" r="4.5" fill="#d97706" fill-opacity="0.9"/>
<circle cx="467.14" cy="94.52" r="4.5" fill="#d97706" fill-opacity="0.9"/>
<circle cx="484.29" cy="95.31" r="4.5" fill="#d97706" fill-opacity="0.9"/>
<circle cx="501.43" cy="94.77" r="4.5" fill="#d97706" fill-opacity="0.9"/>
<circle cx="518.57" cy="94.90" r="4.5" fill="#d97706" fill-opacity="0.9"/>
<circle cx="535.71" cy="94.52" r="4.5" fill="#d97706" fill-opacity="0.9"/>
<circle cx="552.86" cy="95.88" r="4.5" fill="#d97706" fill-opacity="0.9"/>
<circle cx="570.00" cy="95.18" r="4.5" fill="#d97706" fill-opacity="0.9"/>
<circle cx="587.14" cy="96.77" r="4.5" fill="#d97706" fill-opacity="0.9"/>
<circle cx="604.29" cy="95.06" r="4.5" fill="#d97706" fill-opacity="0.9"/>
<circle cx="621.43" cy="94.77" r="4.5" fill="#d97706" fill-opacity="0.9"/>
<circle cx="638.57" cy="95.09" r="4.5" fill="#d97706" fill-opacity="0.9"/>
<circle cx="655.71" cy="95.22" r="4.5" fill="#d97706" fill-opacity="0.9"/>
<circle cx="672.86" cy="94.68" r="4.5" fill="#d97706" fill-opacity="0.9"/>
<circle cx="690.00" cy="95.63" r="4.5" fill="#d97706" fill-opacity="0.9"/>
<circle cx="707.14" cy="94.36" r="4.5" fill="#d97706" fill-opacity="0.9"/>
<circle cx="724.29" cy="95.28" r="4.5" fill="#d97706" fill-opacity="0.9"/>
<circle cx="741.43" cy="95.31" r="4.5" fill="#d97706" fill-opacity="0.9"/>
<circle cx="758.57" cy="94.77" r="4.5" fill="#d97706" fill-opacity="0.9"/>
<circle cx="775.71" cy="94.96" r="4.5" fill="#d97706" fill-opacity="0.9"/>
<circle cx="792.86" cy="95.06" r="4.5" fill="#d97706" fill-opacity="0.9"/>
<circle cx="810.00" cy="94.99" r="4.5" fill="#d97706" fill-opacity="0.9"/>
<circle cx="827.14" cy="95.34" r="4.5" fill="#d97706" fill-opacity="0.9"/>
<circle cx="844.29" cy="95.09" r="4.5" fill="#d97706" fill-opacity="0.9"/>
<circle cx="861.43" cy="95.09" r="4.5" fill="#d97706" fill-opacity="0.9"/>
<circle cx="878.57" cy="95.03" r="4.5" fill="#d97706" fill-opacity="0.9"/>
<circle cx="895.71" cy="96.84" r="4.5" fill="#d97706" fill-opacity="0.9"/>
<circle cx="912.86" cy="95.31" r="4.5" fill="#d97706" fill-opacity="0.9"/>
<circle cx="930.00" cy="96.46" r="4.5" fill="#d97706" fill-opacity="0.9"/>
<rect x="90" y="32" width="18" height="6" fill="#d97706"/>
<text x="114" y="38" font-size="13" fill="#333333">val</text>
<polyline fill="none" stroke="#059669" stroke-width="3" points="90.00,435.83 107.14,126.69 124.29,124.88 141.43,115.09 158.57,101.13 175.71,99.57 192.86,100.62 210.00,96.96 227.14,95.53 244.29,97.25 261.43,96.68 278.57,96.26 295.71,95.66 312.86,95.50 330.00,96.20 347.14,96.11 364.29,94.99 381.43,94.90 398.57,95.09 415.71,95.76 432.86,96.07 450.00,95.06 467.14,94.64 484.29,94.71 501.43,94.42 518.57,94.99 535.71,94.61 552.86,95.79 570.00,95.15 587.14,96.20 604.29,94.80 621.43,94.87 638.57,94.93 655.71,95.22 672.86,94.96 690.00,95.37 707.14,94.17 724.29,94.39 741.43,94.83 758.57,94.26 775.71,94.74 792.86,94.90 810.00,94.83 827.14,94.71 844.29,95.06 861.43,94.96 878.57,94.42 895.71,96.01 912.86,94.68 930.00,96.11"/>
<circle cx="90.00" cy="435.83" r="4.5" fill="#059669" fill-opacity="0.9"/>
<circle cx="107.14" cy="126.69" r="4.5" fill="#059669" fill-opacity="0.9"/>
<circle cx="124.29" cy="124.88" r="4.5" fill="#059669" fill-opacity="0.9"/>
<circle cx="141.43" cy="115.09" r="4.5" fill="#059669" fill-opacity="0.9"/>
<circle cx="158.57" cy="101.13" r="4.5" fill="#059669" fill-opacity="0.9"/>
<circle cx="175.71" cy="99.57" r="4.5" fill="#059669" fill-opacity="0.9"/>
<circle cx="192.86" cy="100.62" r="4.5" fill="#059669" fill-opacity="0.9"/>
<circle cx="210.00" cy="96.96" r="4.5" fill="#059669" fill-opacity="0.9"/>
<circle cx="227.14" cy="95.53" r="4.5" fill="#059669" fill-opacity="0.9"/>
<circle cx="244.29" cy="97.25" r="4.5" fill="#059669" fill-opacity="0.9"/>
<circle cx="261.43" cy="96.68" r="4.5" fill="#059669" fill-opacity="0.9"/>
<circle cx="278.57" cy="96.26" r="4.5" fill="#059669" fill-opacity="0.9"/>
<circle cx="295.71" cy="95.66" r="4.5" fill="#059669" fill-opacity="0.9"/>
<circle cx="312.86" cy="95.50" r="4.5" fill="#059669" fill-opacity="0.9"/>
<circle cx="330.00" cy="96.20" r="4.5" fill="#059669" fill-opacity="0.9"/>
<circle cx="347.14" cy="96.11" r="4.5" fill="#059669" fill-opacity="0.9"/>
<circle cx="364.29" cy="94.99" r="4.5" fill="#059669" fill-opacity="0.9"/>
<circle cx="381.43" cy="94.90" r="4.5" fill="#059669" fill-opacity="0.9"/>
<circle cx="398.57" cy="95.09" r="4.5" fill="#059669" fill-opacity="0.9"/>
<circle cx="415.71" cy="95.76" r="4.5" fill="#059669" fill-opacity="0.9"/>
<circle cx="432.86" cy="96.07" r="4.5" fill="#059669" fill-opacity="0.9"/>
<circle cx="450.00" cy="95.06" r="4.5" fill="#059669" fill-opacity="0.9"/>
<circle cx="467.14" cy="94.64" r="4.5" fill="#059669" fill-opacity="0.9"/>
<circle cx="484.29" cy="94.71" r="4.5" fill="#059669" fill-opacity="0.9"/>
<circle cx="501.43" cy="94.42" r="4.5" fill="#059669" fill-opacity="0.9"/>
<circle cx="518.57" cy="94.99" r="4.5" fill="#059669" fill-opacity="0.9"/>
<circle cx="535.71" cy="94.61" r="4.5" fill="#059669" fill-opacity="0.9"/>
<circle cx="552.86" cy="95.79" r="4.5" fill="#059669" fill-opacity="0.9"/>
<circle cx="570.00" cy="95.15" r="4.5" fill="#059669" fill-opacity="0.9"/>
<circle cx="587.14" cy="96.20" r="4.5" fill="#059669" fill-opacity="0.9"/>
<circle cx="604.29" cy="94.80" r="4.5" fill="#059669" fill-opacity="0.9"/>
<circle cx="621.43" cy="94.87" r="4.5" fill="#059669" fill-opacity="0.9"/>
<circle cx="638.57" cy="94.93" r="4.5" fill="#059669" fill-opacity="0.9"/>
<circle cx="655.71" cy="95.22" r="4.5" fill="#059669" fill-opacity="0.9"/>
<circle cx="672.86" cy="94.96" r="4.5" fill="#059669" fill-opacity="0.9"/>
<circle cx="690.00" cy="95.37" r="4.5" fill="#059669" fill-opacity="0.9"/>
<circle cx="707.14" cy="94.17" r="4.5" fill="#059669" fill-opacity="0.9"/>
<circle cx="724.29" cy="94.39" r="4.5" fill="#059669" fill-opacity="0.9"/>
<circle cx="741.43" cy="94.83" r="4.5" fill="#059669" fill-opacity="0.9"/>
<circle cx="758.57" cy="94.26" r="4.5" fill="#059669" fill-opacity="0.9"/>
<circle cx="775.71" cy="94.74" r="4.5" fill="#059669" fill-opacity="0.9"/>
<circle cx="792.86" cy="94.90" r="4.5" fill="#059669" fill-opacity="0.9"/>
<circle cx="810.00" cy="94.83" r="4.5" fill="#059669" fill-opacity="0.9"/>
<circle cx="827.14" cy="94.71" r="4.5" fill="#059669" fill-opacity="0.9"/>
<circle cx="844.29" cy="95.06" r="4.5" fill="#059669" fill-opacity="0.9"/>
<circle cx="861.43" cy="94.96" r="4.5" fill="#059669" fill-opacity="0.9"/>
<circle cx="878.57" cy="94.42" r="4.5" fill="#059669" fill-opacity="0.9"/>
<circle cx="895.71" cy="96.01" r="4.5" fill="#059669" fill-opacity="0.9"/>
<circle cx="912.86" cy="94.68" r="4.5" fill="#059669" fill-opacity="0.9"/>
<circle cx="930.00" cy="96.11" r="4.5" fill="#059669" fill-opacity="0.9"/>
<rect x="270" y="32" width="18" height="6" fill="#059669"/>
<text x="294" y="38" font-size="13" fill="#333333">test</text>
</svg>