<svg xmlns="http://www.w3.org/2000/svg" width="960" height="540">
<rect width="100%" height="100%" fill="#ffffff"/>
<text x="480.0" y="30" font-size="22" text-anchor="middle" fill="#111111">Edit Distance</text>
<text x="20" y="270.0" font-size="16" transform="rotate(-90 20,270.0)" text-anchor="middle" fill="#333333">Distance</text>
<text x="480.0" y="520" font-size="16" text-anchor="middle" fill="#333333">Epoch</text>
<line x1="90" y1="60" x2="90" y2="470" stroke="#333333" stroke-width="2"/>
<line x1="90" y1="470" x2="930" y2="470" stroke="#333333" stroke-width="2"/>
<line x1="90" y1="470.00" x2="930" y2="470.00" stroke="#e5e7eb" stroke-width="1"/>
<text x="80" y="475.00" font-size="12" text-anchor="end" fill="#555555">-0.4107</text>
<line x1="90" y1="367.50" x2="930" y2="367.50" stroke="#e5e7eb" stroke-width="1"/>
<text x="80" y="372.50" font-size="12" text-anchor="end" fill="#555555">1.0246</text>
<line x1="90" y1="265.00" x2="930" y2="265.00" stroke="#e5e7eb" stroke-width="1"/>
<text x="80" y="270.00" font-size="12" text-anchor="end" fill="#555555">2.4598</text>
<line x1="90" y1="162.50" x2="930" y2="162.50" stroke="#e5e7eb" stroke-width="1"/>
<text x="80" y="167.50" font-size="12" text-anchor="end" fill="#555555">3.8950</text>
<line x1="90" y1="60.00" x2="930" y2="60.00" stroke="#e5e7eb" stroke-width="1"/>
<text x="80" y="65.00" font-size="12" text-anchor="end" fill="#555555">5.3303</text>
<line x1="90.00" y1="60" x2="90.00" y2="470" stroke="#f3f4f6" stroke-width="1"/>
<text x="90.00" y="492" font-size="12" text-anchor="middle" fill="#555555">1</text>
<line x1="107.14" y1="60" x2="107.14" y2="470" stroke="#f3f4f6" stroke-width="1"/>
<text x="107.14" y="492" font-size="12" text-anchor="middle" fill="#555555">2</text>
<line x1="124.29" y1="60" x2="124.29" y2="470" stroke="#f3f4f6" stroke-width="1"/>
<text x="124.29" y="492" font-size="12" text-anchor="middle" fill="#555555">3</text>
<line x1="141.43" y1="60" x2="141.43" y2="470" stroke="#f3f4f6" stroke-width="1"/>
<text x="141.43" y="492" font-size="12" text-anchor="middle" fill="#555555">4</text>
<line x1="158.57" y1="60" x2="158.57" y2="470" stroke="#f3f4f6" stroke-width="1"/>
<text x="158.57" y="492" font-size="12" text-anchor="middle" fill="#555555">5</text>
<line x1="175.71" y1="60" x2="175.71" y2="470" stroke="#f3f4f6" stroke-width="1"/>
<text x="175.71" y="492" font-size="12" text-anchor="middle" fill="#555555">6</text>
<line x1="192.86" y1="60" x2="192.86" y2="470" stroke="#f3f4f6" stroke-width="1"/>
<text x="192.86" y="492" font-size="12" text-anchor="middle" fill="#555555">7</text>
<line x1="210.00" y1="60" x2="210.00" y2="470" stroke="#f3f4f6" stroke-width="1"/>
<text x="210.00" y="492" font-size="12" text-anchor="middle" fill="#555555">8</text>
<line x1="227.14" y1="60" x2="227.14" y2="470" stroke="#f3f4f6" stroke-width="1"/>
<text x="227.14" y="492" font-size="12" text-anchor="middle" fill="#555555">9</text>
<line x1="244.29" y1="60" x2="244.29" y2="470" stroke="#f3f4f6" stroke-width="1"/>
<text x="244.29" y="492" font-size="12" text-anchor="middle" fill="#555555">10</text>
<line x1="261.43" y1="60" x2="261.43" y2="470" stroke="#f3f4f6" stroke-width="1"/>
<text x="261.43" y="492" font-size="12" text-anchor="middle" fill="#555555">11</text>
<line x1="278.57" y1="60" x2="278.57" y2="470" stroke="#f3f4f6" stroke-width="1"/>
<text x="278.57" y="492" font-size="12" text-anchor="middle" fill="#555555">12</text>
<line x1="295.71" y1="60" x2="295.71" y2="470" stroke="#f3f4f6" stroke-width="1"/>
<text x="295.71" y="492" font-size="12" text-anchor="middle" fill="#555555">13</text>
<line x1="312.86" y1="60" x2="312.86" y2="470" stroke="#f3f4f6" stroke-width="1"/>
<text x="312.86" y="492" font-size="12" text-anchor="middle" fill="#555555">14</text>
<line x1="330.00" y1="60" x2="330.00" y2="470" stroke="#f3f4f6" stroke-width="1"/>
<text x="330.00" y="492" font-size="12" text-anchor="middle" fill="#555555">15</text>
<line x1="347.14" y1="60" x2="347.14" y2="470" stroke="#f3f4f6" stroke-width="1"/>
<text x="347.14" y="492" font-size="12" text-anchor="middle" fill="#555555">16</text>
<line x1="364.29" y1="60" x2="364.29" y2="470" stroke="#f3f4f6" stroke-width="1"/>
<text x="364.29" y="492" font-size="12" text-anchor="middle" fill="#555555">17</text>
<line x1="381.43" y1="60" x2="381.43" y2="470" stroke="#f3f4f6" stroke-width="1"/>
<text x="381.43" y="492" font-size="12" text-anchor="middle" fill="#555555">18</text>
<line x1="398.57" y1="60" x2="398.57" y2="470" stroke="#f3f4f6" stroke-width="1"/>
<text x="398.57" y="492" font-size="12" text-anchor="middle" fill="#555555">19</text>
<line x1="415.71" y1="60" x2="415.71" y2="470" stroke="#f3f4f6" stroke-width="1"/>
<text x="415.71" y="492" font-size="12" text-anchor="middle" fill="#555555">20</text>
<line x1="432.86" y1="60" x2="432.86" y2="470" stroke="#f3f4f6" stroke-width="1"/>
<text x="432.86" y="492" font-size="12" text-anchor="middle" fill="#555555">21</text>
<line x1="450.00" y1="60" x2="450.00" y2="470" stroke="#f3f4f6" stroke-width="1"/>
<text x="450.00" y="492" font-size="12" text-anchor="middle" fill="#555555">22</text>
<line x1="467.14" y1="60" x2="467.14" y2="470" stroke="#f3f4f6" stroke-width="1"/>
<text x="467.14" y="492" font-size="12" text-anchor="middle" fill="#555555">23</text>
<line x1="484.29" y1="60" x2="484.29" y2="470" stroke="#f3f4f6" stroke-width="1"/>
<text x="484.29" y="492" font-size="12" text-anchor="middle" fill="#555555">24</text>
<line x1="501.43" y1="60" x2="501.43" y2="470" stroke="#f3f4f6" stroke-width="1"/>
<text x="501.43" y="492" font-size="12" text-anchor="middle" fill="#555555">25</text>
<line x1="518.57" y1="60" x2="518.57" y2="470" stroke="#f3f4f6" stroke-width="1"/>
<text x="518.57" y="492" font-size="12" text-anchor="middle" fill="#555555">26</text>
<line x1="535.71" y1="60" x2="535.71" y2="470" stroke="#f3f4f6" stroke-width="1"/>
<text x="535.71" y="492" font-size="12" text-anchor="middle" fill="#555555">27</text>
<line x1="552.86" y1="60" x2="552.86" y2="470" stroke="#f3f4f6" stroke-width="1"/>
<text x="552.86" y="492" font-size="12" text-anchor="middle" fill="#555555">28</text>
<line x1="570.00" y1="60" x2="570.00" y2="470" stroke="#f3f4f6" stroke-width="1"/>
<text x="570.00" y="492" font-size="12" text-anchor="middle" fill="#555555">29</text>
<line x1="587.14" y1="60" x2="587.14" y2="470" stroke="#f3f4f6" stroke-width="1"/>
<text x="587.14" y="492" font-size="12" text-anchor="middle" fill="#555555">30</text>
<line x1="604.29" y1="60" x2="604.29" y2="470" stroke="#f3f4f6" stroke-width="1"/>
<text x="604.29" y="492" font-size="12" text-anchor="middle" fill="#555555">31</text>
<line x1="621.43" y1="60" x2="621.43" y2="470" stroke="#f3f4f6" stroke-width="1"/>
<text x="621.43" y="492" font-size="12" text-anchor="middle" fill="#555555">32</text>
<line x1="638.57" y1="60" x2="638.57" y2="470" stroke="#f3f4f6" stroke-width="1"/>
<text x="638.57" y="492" font-size="12" text-anchor="middle" fill="#555555">33</text>
<line x1="655.71" y1="60" x2="655.71" y2="470" stroke="#f3f4f6" stroke-width="1"/>
<text x="655.71" y="492" font-size="12" text-anchor="middle" fill="#555555">34</text>
<line x1="672.86" y1="60" x2="672.86" y2="470" stroke="#f3f4f6" stroke-width="1"/>
<text x="672.86" y="492" font-size="12" text-anchor="middle" fill="#555555">35</text>
<line x1="690.00" y1="60" x2="690.00" y2="470" stroke="#f3f4f6" stroke-width="1"/>
<text x="690.00" y="492" font-size="12" text-anchor="middle" fill="#555555">36</text>
<line x1="707.14" y1="60" x2="707.14" y2="470" stroke="#f3f4f6" stroke-width="1"/>
<text x="707.14" y="492" font-size="12" text-anchor="middle" fill="#555555">37</text>
<line x1="724.29" y1="60" x2="724.29" y2="470" stroke="#f3f4f6" stroke-width="1"/>
<text x="724.29" y="492" font-size="12" text-anchor="middle" fill="#555555">38</text>
<line x1="741.43" y1="60" x2="741.43" y2="470" stroke="#f3f4f6" stroke-width="1"/>
<text x="741.43" y="492" font-size="12" text-anchor="middle" fill="#555555">39</text>
<line x1="758.57" y1="60" x2="758.57" y2="470" stroke="#f3f4f6" stroke-width="1"/>
<text x="758.57" y="492" font-size="12" text-anchor="middle" fill="#555555">40</text>
<line x1="775.71" y1="60" x2="775.71" y2="470" stroke="#f3f4f6" stroke-width="1"/>
<text x="775.71" y="492" font-size="12" text-anchor="middle" fill="#555555">41</text>
<line x1="792.86" y1="60" x2="792.86" y2="470" stroke="#f3f4f6" stroke-width="1"/>
<text x="792.86" y="492" font-size="12" text-anchor="middle" fill="#555555">42</text>
<line x1="810.00" y1="60" x2="810.00" y2="470" stroke="#f3f4f6" stroke-width="1"/>
<text x="810.00" y="492" font-size="12" text-anchor="middle" fill="#555555">43</text>
<line x1="827.14" y1="60" x2="827.14" y2="470" stroke="#f3f4f6" stroke-width="1"/>
<text x="827.14" y="492" font-size="12" text-anchor="middle" fill="#555555">44</text>
<line x1="844.29" y1="60" x2="844.29" y2="470" stroke="#f3f4f6" stroke-width="1"/>
<text x="844.29" y="492" font-size="12" text-anchor="middle" fill="#555555">45</text>
<line x1="861.43" y1="60" x2="861.43" y2="470" stroke="#f3f4f6" stroke-width="1"/>
<text x="861.43" y="492" font-size="12" text-anchor="middle" fill="#555555">46</text>
<line x1="878.57" y1="60" x2="878.57" y2="470" stroke="#f3f4f6" stroke-width="1"/>
<text x="878.57" y="492" font-size="12" text-anchor="middle" fill="#555555">47</text>
<line x1="895.71" y1="60" x2="895.71" y2="470" stroke="#f3f4f6" stroke-width="1"/>
<text x="895.71" y="492" font-size="12" text-anchor="middle" fill="#555555">48</text>
<line x1="912.86" y1="60" x2="912.86" y2="470" stroke="#f3f4f6" stroke-width="1"/>
<text x="912.86" y="492" font-size="12" text-anchor="middle" fill="#555555">49</text>
<line x1="930.00" y1="60" x2="930.00" y2="470" stroke="#f3f4f6" stroke-width="1"/>
<text x="930.00" y="492" font-size="12" text-anchor="middle" fill="#555555">50</text>
<polyline fill="none" stroke="#d97706" stroke-width="3" points="90.00,94.17 107.14,94.86 124.29,422.25 141.43,428.65 158.57,429.03 175.71,426.39 192.86,429.63 210.00,429.29 227.14,429.59 244.29,429.48 261.43,416.86 278.57,429.90 295.71,429.84 312.86,429.93 330.00,429.92 347.14,429.15 364.29,429.37 381.43,431.20 398.57,429.54 415.71,429.95 432.86,430.32 450.00,430.16 467.14,420.77 484.29,432.64 501.43,433.20 518.57,430.07 535.71,405.41 552.86,430.15 570.00,430.68 587.14,430.08 604.29,431.17 621.43,431.46 638.57,434.43 655.71,434.41 672.86,434.68 690.00,431.64 707.14,433.10 724.29,429.92 741.43,433.66 758.57,434.80 775.71,434.93 792.86,433.61 810.00,434.21 827.14,432.24 844.29,433.09 861.43,433.77 878.57,432.75 895.71,435.80 912.86,433.60 930.00,434.70"/>
<circle cx="90.00" cy="94.17" r="4.5" fill="#d97706" fill-opacity="0.9"/>
<circle cx="107.14" cy="94.86" r="4.5" fill="#d97706" fill-opacity="0.9"/>
<circle cx="124.29" cy="422.25" r="4.5" fill="#d97706" fill-opacity="0.9"/>
<circle cx="141.43" cy="428.65" r="4.5" fill="#d97706" fill-opacity="0.9"/>
<circle cx="158.57" cy="429.03" r="4.5" fill="#d97706" fill-opacity="0.9"/>
<circle cx="175.71" cy="426.39" r="4.5" fill="#d97706" fill-opacity="0.9"/>
<circle cx="192.86" cy="429.63" r="4.5" fill="#d97706" fill-opacity="0.9"/>
<circle cx="210.00" cy="429.29" r="4.5" fill="#d97706" fill-opacity="0.9"/>
<circle cx="227.14" cy="429.59" r="4.5" fill="#d97706" fill-opacity="0.9"/>
<circle cx="244.29" cy="429.48" r="4.5" fill="#d97706" fill-opacity="0.9"/>
<circle cx="261.43" cy="416.86" r="4.5" fill="#d97706" fill-opacity="0.9"/>
<circle cx="278.57" cy="429.90" r="4.5" fill="#d97706" fill-opacity="0.9"/>
<circle cx="295.71" cy="429.84" r="4.5" fill="#d97706" fill-opacity="0.9"/>
<circle cx="312.86" cy="429.93" r="4.5" fill="#d97706" fill-opacity="0.9"/>
<circle cx="330.00" cy="429.92" r="4.5" fill="#d97706" fill-opacity="0.9"/>
<circle cx="347.14" cy="429.15" r="4.5" fill="#d97706" fill-opacity="0.9"/>
<circle cx="364.29" cy="429.37" r="4.5" fill="#d97706" fill-opacity="0.9"/>
<circle cx="381.43" cy="431.20" r="4.5" fill="#d97706" fill-opacity="0.9"/>
<circle cx="398.57" cy="429.54" r="4.5" fill="#d97706" fill-opacity="0.9"/>
<circle cx="415.71" cy="429.95" r="4.5" fill="#d97706" fill-opacity="0.9"/>
<circle cx="432.86" cy="430.32" r="4.5" fill="#d97706" fill-opacity="0.9"/>
<circle cx="450.00" cy="430.16" r="4.5" fill="#d97706" fill-opacity="0.9"/>
<circle cx="467.14" cy="420.77" r="4.5" fill="#d97706" fill-opacity="0.9"/>
<circle cx="484.29" cy="432.64" r="4.5" fill="#d97706" fill-opacity="0.9"/>
<circle cx="501.43" cy="433.20" r="4.5" fill="#d97706" fill-opacity="0.9"/>
<circle cx="518.57" cy="430.07" r="4.5" fill="#d97706" fill-opacity="0.9"/>
<circle cx="535.71" cy="405.41" r="4.5" fill="#d97706" fill-opacity="0.9"/>
<circle cx="552.86" cy="430.15" r="4.5" fill="#d97706" fill-opacity="0.9"/>
<circle cx="570.00" cy="430.68" r="4.5" fill="#d97706" fill-opacity="0.9"/>
<circle cx="587.14" cy="430.08" r="4.5" fill="#d97706" fill-opacity="0.9"/>
<circle cx="604.29" cy="431.17" r="4.5" fill="#d97706" fill-opacity="0.9"/>
<circle cx="621.43" cy="431.46" r="4.5" fill="#d97706" fill-opacity="0.9"/>
<circle cx="638.57" cy="434.43" r="4.5" fill="#d97706" fill-opacity="0.9"/>
<circle cx="655.71" cy="434.41" r="4.5" fill="#d97706" fill-opacity="0.9"/>
<circle cx="672.86" cy="434.68" r="4.5" fill="#d97706" fill-opacity="0.9"/>
<circle cx="690.00" cy="431.64" r="4.5" fill="#d97706" fill-opacity="0.9"/>
<circle cx="707.14" cy="433.10" r="4.5" fill="#d97706" fill-opacity="0.9"/>
<circle cx="724.29" cy="429.92" r="4.5" fill="#d97706" fill-opacity="0.9"/>
<circle cx="741.43" cy="433.66" r="4.5" fill="#d97706" fill-opacity="0.9"/>
<circle cx="758.57" cy="434.80" r="4.5" fill="#d97706" fill-opacity="0.9"/>
<circle cx="775.71" cy="434.93" r="4.5" fill="#d97706" fill-opacity="0.9"/>
<circle cx="792.86" cy="433.61" r="4.5" fill="#d97706" fill-opacity="0.9"/>
<circle cx="810.00" cy="434.21" r="4.5" fill="#d97706" fill-opacity="0.9"/>
<circle cx="827.14" cy="432.24" r="4.5" fill="#d97706" fill-opacity="0.9"/>
<circle cx="844.29" cy="433.09" r="4.5" fill="#d97706" fill-opacity="0.9"/>
<circle cx="861.43" cy="433.77" r="4.5" fill="#d97706" fill-opacity="0.9"/>
<circle cx="878.57" cy="432.75" r="4.5" fill="#d97706" fill-opacity="0.9"/>
<circle cx="895.71" cy="435.80" r="4.5" fill="#d97706" fill-opacity="0.9"/>
<circle cx="912.86" cy="433.60" r="4.5" fill="#d97706" fill-opacity="0.9"/>
<circle cx="930.00" cy="434.70" r="4.5" fill="#d97706" fill-opacity="0.9"/>
<rect x="90" y="32" width="18" height="6" fill="#d97706"/>
<text x="114" y="38" font-size="13" fill="#333333">val</text>
<polyline fill="none" stroke="#059669" stroke-width="3" points="90.00,94.39 107.14,94.66 124.29,422.27 141.43,427.91 158.57,428.39 175.71,425.91 192.86,429.14 210.00,428.77 227.14,429.21 244.29,429.06 261.43,416.81 278.57,429.42 295.71,429.17 312.86,429.48 330.00,429.60 347.14,428.84 364.29,428.97 381.43,430.94 398.57,429.22 415.71,429.52 432.86,430.01 450.00,429.52 467.14,420.34 484.29,432.48 501.43,433.07 518.57,429.82 535.71,404.66 552.86,429.75 570.00,430.44 587.14,429.64 604.29,430.77 621.43,431.29 638.57,434.22 655.71,434.17 672.86,434.36 690.00,431.06 707.14,433.06 724.29,429.74 741.43,433.13 758.57,434.48 775.71,434.82 792.86,433.12 810.00,434.23 827.14,431.62 844.29,432.84 861.43,433.39 878.57,432.44 895.71,435.83 912.86,433.33 930.00,434.70"/>
<circle cx="90.00" cy="94.39" r="4.5" fill="#059669" fill-opacity="0.9"/>
<circle cx="107.14" cy="94.66" r="4.5" fill="#059669" fill-opacity="0.9"/>
<circle cx="124.29" cy="422.27" r="4.5" fill="#059669" fill-opacity="0.9"/>
<circle cx="141.43" cy="427.91" r="4.5" fill="#059669" fill-opacity="0.9"/>
<circle cx="158.57" cy="428.39" r="4.5" fill="#059669" fill-opacity="0.9"/>
<circle cx="175.71" cy="425.91" r="4.5" fill="#059669" fill-opacity="0.9"/>
<circle cx="192.86" cy="429.14" r="4.5" fill="#059669" fill-opacity="0.9"/>
<circle cx="210.00" cy="428.77" r="4.5" fill="#059669" fill-opacity="0.9"/>
<circle cx="227.14" cy="429.21" r="4.5" fill="#059669" fill-opacity="0.9"/>
<circle cx="244.29" cy="429.06" r="4.5" fill="#059669" fill-opacity="0.9"/>
<circle cx="261.43" cy="416.81" r="4.5" fill="#059669" fill-opacity="0.9"/>
<circle cx="278.57" cy="429.42" r="4.5" fill="#059669" fill-opacity="0.9"/>
<circle cx="295.71" cy="429.17" r="4.5" fill="#059669" fill-opacity="0.9"/>
<circle cx="312.86" cy="429.48" r="4.5" fill="#059669" fill-opacity="0.9"/>
<circle cx="330.00" cy="429.60" r="4.5" fill="#059669" fill-opacity="0.9"/>
<circle cx="347.14" cy="428.84" r="4.5" fill="#059669" fill-opacity="0.9"/>
<circle cx="364.29" cy="428.97" r="4.5" fill="#059669" fill-opacity="0.9"/>
<circle cx="381.43" cy="430.94" r="4.5" fill="#059669" fill-opacity="0.9"/>
<circle cx="398.57" cy="429.22" r="4.5" fill="#059669" fill-opacity="0.9"/>
<circle cx="415.71" cy="429.52" r="4.5" fill="#059669" fill-opacity="0.9"/>
<circle cx="432.86" cy="430.01" r="4.5" fill="#059669" fill-opacity="0.9"/>
<circle cx="450.00" cy="429.52" r="4.5" fill="#059669" fill-opacity="0.9"/>
<circle cx="467.14" cy="420.34" r="4.5" fill="#059669" fill-opacity="0.9"/>
<circle cx="484.29" cy="432.48" r="4.5" fill="#059669" fill-opacity="0.9"/>
<circle cx="501.43" cy="433.07" r="4.5" fill="#059669" fill-opacity="0.9"/>
<circle cx="518.57" cy="429.82" r="4.5" fill="#059669" fill-opacity="0.9"/>
<circle cx="535.71" cy="404.66" r="4.5" fill="#059669" fill-opacity="0.9"/>
<circle cx="552.86" cy="429.75" r="4.5" fill="#059669" fill-opacity="0.9"/>
<circle cx="570.00" cy="430.44" r="4.5" fill="#059669" fill-opacity="0.9"/>
<circle cx="587.14" cy="429.64" r="4.5" fill="#059669" fill-opacity="0.9"/>
<circle cx="604.29" cy="430.77" r="4.5" fill="#059669" fill-opacity="0.9"/>
<circle cx="621.43" cy="431.29" r="4.5" fill="#059669" fill-opacity="0.9"/>
<circle cx="638.57" cy="434.22" r="4.5" fill="#059669" fill-opacity="0.9"/>
<circle cx="655.71" cy="434.17" r="4.5" fill="#059669" fill-opacity="0.9"/>
<circle cx="672.86" cy="434.36" r="4.5" fill="#059669" fill-opacity="0.9"/>
<circle cx="690.00" cy="431.06" r="4.5" fill="#059669" fill-opacity="0.9"/>
<circle cx="707.14" cy="433.06" r="4.5" fill="#059669" fill-opacity="0.9"/>
<circle cx="724.29" cy="429.74" r="4.5" fill="#059669" fill-opacity="0.9"/>
<circle cx="741.43" cy="433.13" r="4.5" fill="#059669" fill-opacity="0.9"/>
<circle cx="758.57" cy="434.48" r="4.5" fill="#059669" fill-opacity="0.9"/>
<circle cx="775.71" cy="434.82" r="4.5" fill="#059669" fill-opacity="0.9"/>
<circle cx="792.86" cy="433.12" r="4.5" fill="#059669" fill-opacity="0.9"/>
<circle cx="810.00" cy="434.23" r="4.5" fill="#059669" fill-opacity="0.9"/>
<circle cx="827.14" cy="431.62" r="4.5" fill="#059669" fill-opacity="0.9"/>
<circle cx="844.29" cy="432.84" r="4.5" fill="#059669" fill-opacity="0.9"/>
<circle cx="861.43" cy="433.39" r="4.5" fill="#059669" fill-opacity="0.9"/>
<circle cx="878.57" cy="432.44" r="4.5" fill="#059669" fill-opacity="0.9"/>
<circle cx="895.71" cy="435.83" r="4.5" fill="#059669" fill-opacity="0.9"/>
<circle cx="912.86" cy="433.33" r="4.5" fill="#059669" fill-opacity="0.9"/>
<circle cx="930.00" cy="434.70" r="4.5" fill="#059669" fill-opacity="0.9"/>
<rect x="270" y="32" width="18" height="6" fill="#059669"/>
<text x="294" y="38" font-size="13" fill="#333333">test</text>
</svg>