<svg xmlns="http://www.w3.org/2000/svg" width="960" height="540">
<rect width="100%" height="100%" fill="#ffffff"/>
<text x="480.0" y="30" font-size="22" text-anchor="middle" fill="#111111">Loss</text>
<text x="20" y="270.0" font-size="16" transform="rotate(-90 20,270.0)" text-anchor="middle" fill="#333333">Loss</text>
<text x="480.0" y="520" font-size="16" text-anchor="middle" fill="#333333">Epoch</text>
<line x1="90" y1="60" x2="90" y2="470" stroke="#333333" stroke-width="2"/>
<line x1="90" y1="470" x2="930" y2="470" stroke="#333333" stroke-width="2"/>
<line x1="90" y1="470.00" x2="930" y2="470.00" stroke="#e5e7eb" stroke-width="1"/>
<text x="80" y="475.00" font-size="12" text-anchor="end" fill="#555555">-10.4329</text>
<line x1="90" y1="367.50" x2="930" y2="367.50" stroke="#e5e7eb" stroke-width="1"/>
<text x="80" y="372.50" font-size="12" text-anchor="end" fill="#555555">21.0508</text>
<line x1="90" y1="265.00" x2="930" y2="265.00" stroke="#e5e7eb" stroke-width="1"/>
<text x="80" y="270.00" font-size="12" text-anchor="end" fill="#555555">52.5344</text>
<line x1="90" y1="162.50" x2="930" y2="162.50" stroke="#e5e7eb" stroke-width="1"/>
<text x="80" y="167.50" font-size="12" text-anchor="end" fill="#555555">84.0180</text>
<line x1="90" y1="60.00" x2="930" y2="60.00" stroke="#e5e7eb" stroke-width="1"/>
<text x="80" y="65.00" font-size="12" text-anchor="end" fill="#555555">115.5016</text>
<line x1="90.00" y1="60" x2="90.00" y2="470" stroke="#f3f4f6" stroke-width="1"/>
<text x="90.00" y="492" font-size="12" text-anchor="middle" fill="#555555">1</text>
<line x1="107.14" y1="60" x2="107.14" y2="470" stroke="#f3f4f6" stroke-width="1"/>
<text x="107.14" y="492" font-size="12" text-anchor="middle" fill="#555555">2</text>
<line x1="124.29" y1="60" x2="124.29" y2="470" stroke="#f3f4f6" stroke-width="1"/>
<text x="124.29" y="492" font-size="12" text-anchor="middle" fill="#555555">3</text>
<line x1="141.43" y1="60" x2="141.43" y2="470" stroke="#f3f4f6" stroke-width="1"/>
<text x="141.43" y="492" font-size="12" text-anchor="middle" fill="#555555">4</text>
<line x1="158.57" y1="60" x2="158.57" y2="470" stroke="#f3f4f6" stroke-width="1"/>
<text x="158.57" y="492" font-size="12" text-anchor="middle" fill="#555555">5</text>
<line x1="175.71" y1="60" x2="175.71" y2="470" stroke="#f3f4f6" stroke-width="1"/>
<text x="175.71" y="492" font-size="12" text-anchor="middle" fill="#555555">6</text>
<line x1="192.86" y1="60" x2="192.86" y2="470" stroke="#f3f4f6" stroke-width="1"/>
<text x="192.86" y="492" font-size="12" text-anchor="middle" fill="#555555">7</text>
<line x1="210.00" y1="60" x2="210.00" y2="470" stroke="#f3f4f6" stroke-width="1"/>
<text x="210.00" y="492" font-size="12" text-anchor="middle" fill="#555555">8</text>
<line x1="227.14" y1="60" x2="227.14" y2="470" stroke="#f3f4f6" stroke-width="1"/>
<text x="227.14" y="492" font-size="12" text-anchor="middle" fill="#555555">9</text>
<line x1="244.29" y1="60" x2="244.29" y2="470" stroke="#f3f4f6" stroke-width="1"/>
<text x="244.29" y="492" font-size="12" text-anchor="middle" fill="#555555">10</text>
<line x1="261.43" y1="60" x2="261.43" y2="470" stroke="#f3f4f6" stroke-width="1"/>
<text x="261.43" y="492" font-size="12" text-anchor="middle" fill="#555555">11</text>
<line x1="278.57" y1="60" x2="278.57" y2="470" stroke="#f3f4f6" stroke-width="1"/>
<text x="278.57" y="492" font-size="12" text-anchor="middle" fill="#555555">12</text>
<line x1="295.71" y1="60" x2="295.71" y2="470" stroke="#f3f4f6" stroke-width="1"/>
<text x="295.71" y="492" font-size="12" text-anchor="middle" fill="#555555">13</text>
<line x1="312.86" y1="60" x2="312.86" y2="470" stroke="#f3f4f6" stroke-width="1"/>
<text x="312.86" y="492" font-size="12" text-anchor="middle" fill="#555555">14</text>
<line x1="330.00" y1="60" x2="330.00" y2="470" stroke="#f3f4f6" stroke-width="1"/>
<text x="330.00" y="492" font-size="12" text-anchor="middle" fill="#555555">15</text>
<line x1="347.14" y1="60" x2="347.14" y2="470" stroke="#f3f4f6" stroke-width="1"/>
<text x="347.14" y="492" font-size="12" text-anchor="middle" fill="#555555">16</text>
<line x1="364.29" y1="60" x2="364.29" y2="470" stroke="#f3f4f6" stroke-width="1"/>
<text x="364.29" y="492" font-size="12" text-anchor="middle" fill="#555555">17</text>
<line x1="381.43" y1="60" x2="381.43" y2="470" stroke="#f3f4f6" stroke-width="1"/>
<text x="381.43" y="492" font-size="12" text-anchor="middle" fill="#555555">18</text>
<line x1="398.57" y1="60" x2="398.57" y2="470" stroke="#f3f4f6" stroke-width="1"/>
<text x="398.57" y="492" font-size="12" text-anchor="middle" fill="#555555">19</text>
<line x1="415.71" y1="60" x2="415.71" y2="470" stroke="#f3f4f6" stroke-width="1"/>
<text x="415.71" y="492" font-size="12" text-anchor="middle" fill="#555555">20</text>
<line x1="432.86" y1="60" x2="432.86" y2="470" stroke="#f3f4f6" stroke-width="1"/>
<text x="432.86" y="492" font-size="12" text-anchor="middle" fill="#555555">21</text>
<line x1="450.00" y1="60" x2="450.00" y2="470" stroke="#f3f4f6" stroke-width="1"/>
<text x="450.00" y="492" font-size="12" text-anchor="middle" fill="#555555">22</text>
<line x1="467.14" y1="60" x2="467.14" y2="470" stroke="#f3f4f6" stroke-width="1"/>
<text x="467.14" y="492" font-size="12" text-anchor="middle" fill="#555555">23</text>
<line x1="484.29" y1="60" x2="484.29" y2="470" stroke="#f3f4f6" stroke-width="1"/>
<text x="484.29" y="492" font-size="12" text-anchor="middle" fill="#555555">24</text>
<line x1="501.43" y1="60" x2="501.43" y2="470" stroke="#f3f4f6" stroke-width="1"/>
<text x="501.43" y="492" font-size="12" text-anchor="middle" fill="#555555">25</text>
<line x1="518.57" y1="60" x2="518.57" y2="470" stroke="#f3f4f6" stroke-width="1"/>
<text x="518.57" y="492" font-size="12" text-anchor="middle" fill="#555555">26</text>
<line x1="535.71" y1="60" x2="535.71" y2="470" stroke="#f3f4f6" stroke-width="1"/>
<text x="535.71" y="492" font-size="12" text-anchor="middle" fill="#555555">27</text>
<line x1="552.86" y1="60" x2="552.86" y2="470" stroke="#f3f4f6" stroke-width="1"/>
<text x="552.86" y="492" font-size="12" text-anchor="middle" fill="#555555">28</text>
<line x1="570.00" y1="60" x2="570.00" y2="470" stroke="#f3f4f6" stroke-width="1"/>
<text x="570.00" y="492" font-size="12" text-anchor="middle" fill="#555555">29</text>
<line x1="587.14" y1="60" x2="587.14" y2="470" stroke="#f3f4f6" stroke-width="1"/>
<text x="587.14" y="492" font-size="12" text-anchor="middle" fill="#555555">30</text>
<line x1="604.29" y1="60" x2="604.29" y2="470" stroke="#f3f4f6" stroke-width="1"/>
<text x="604.29" y="492" font-size="12" text-anchor="middle" fill="#555555">31</text>
<line x1="621.43" y1="60" x2="621.43" y2="470" stroke="#f3f4f6" stroke-width="1"/>
<text x="621.43" y="492" font-size="12" text-anchor="middle" fill="#555555">32</text>
<line x1="638.57" y1="60" x2="638.57" y2="470" stroke="#f3f4f6" stroke-width="1"/>
<text x="638.57" y="492" font-size="12" text-anchor="middle" fill="#555555">33</text>
<line x1="655.71" y1="60" x2="655.71" y2="470" stroke="#f3f4f6" stroke-width="1"/>
<text x="655.71" y="492" font-size="12" text-anchor="middle" fill="#555555">34</text>
<line x1="672.86" y1="60" x2="672.86" y2="470" stroke="#f3f4f6" stroke-width="1"/>
<text x="672.86" y="492" font-size="12" text-anchor="middle" fill="#555555">35</text>
<line x1="690.00" y1="60" x2="690.00" y2="470" stroke="#f3f4f6" stroke-width="1"/>
<text x="690.00" y="492" font-size="12" text-anchor="middle" fill="#555555">36</text>
<line x1="707.14" y1="60" x2="707.14" y2="470" stroke="#f3f4f6" stroke-width="1"/>
<text x="707.14" y="492" font-size="12" text-anchor="middle" fill="#555555">37</text>
<line x1="724.29" y1="60" x2="724.29" y2="470" stroke="#f3f4f6" stroke-width="1"/>
<text x="724.29" y="492" font-size="12" text-anchor="middle" fill="#555555">38</text>
<line x1="741.43" y1="60" x2="741.43" y2="470" stroke="#f3f4f6" stroke-width="1"/>
<text x="741.43" y="492" font-size="12" text-anchor="middle" fill="#555555">39</text>
<line x1="758.57" y1="60" x2="758.57" y2="470" stroke="#f3f4f6" stroke-width="1"/>
<text x="758.57" y="492" font-size="12" text-anchor="middle" fill="#555555">40</text>
<line x1="775.71" y1="60" x2="775.71" y2="470" stroke="#f3f4f6" stroke-width="1"/>
<text x="775.71" y="492" font-size="12" text-anchor="middle" fill="#555555">41</text>
<line x1="792.86" y1="60" x2="792.86" y2="470" stroke="#f3f4f6" stroke-width="1"/>
<text x="792.86" y="492" font-size="12" text-anchor="middle" fill="#555555">42</text>
<line x1="810.00" y1="60" x2="810.00" y2="470" stroke="#f3f4f6" stroke-width="1"/>
<text x="810.00" y="492" font-size="12" text-anchor="middle" fill="#555555">43</text>
<line x1="827.14" y1="60" x2="827.14" y2="470" stroke="#f3f4f6" stroke-width="1"/>
<text x="827.14" y="492" font-size="12" text-anchor="middle" fill="#555555">44</text>
<line x1="844.29" y1="60" x2="844.29" y2="470" stroke="#f3f4f6" stroke-width="1"/>
<text x="844.29" y="492" font-size="12" text-anchor="middle" fill="#555555">45</text>
<line x1="861.43" y1="60" x2="861.43" y2="470" stroke="#f3f4f6" stroke-width="1"/>
<text x="861.43" y="492" font-size="12" text-anchor="middle" fill="#555555">46</text>
<line x1="878.57" y1="60" x2="878.57" y2="470" stroke="#f3f4f6" stroke-width="1"/>
<text x="878.57" y="492" font-size="12" text-anchor="middle" fill="#555555">47</text>
<line x1="895.71" y1="60" x2="895.71" y2="470" stroke="#f3f4f6" stroke-width="1"/>
<text x="895.71" y="492" font-size="12" text-anchor="middle" fill="#555555">48</text>
<line x1="912.86" y1="60" x2="912.86" y2="470" stroke="#f3f4f6" stroke-width="1"/>
<text x="912.86" y="492" font-size="12" text-anchor="middle" fill="#555555">49</text>
<line x1="930.00" y1="60" x2="930.00" y2="470" stroke="#f3f4f6" stroke-width="1"/>
<text x="930.00" y="492" font-size="12" text-anchor="middle" fill="#555555">50</text>
<polyline fill="none" stroke="#1d4ed8" stroke-width="3" points="90.00,409.57 107.14,419.07 124.29,431.79 141.43,434.13 158.57,434.37 175.71,434.62 192.86,434.72 210.00,434.85 227.14,434.98 244.29,435.04 261.43,435.08 278.57,435.14 295.71,435.22 312.86,435.29 330.00,435.32 347.14,435.36 364.29,435.41 381.43,435.46 398.57,435.48 415.71,435.51 432.86,435.54 450.00,435.56 467.14,435.52 484.29,435.59 501.43,435.63 518.57,435.62 535.71,435.64 552.86,435.68 570.00,435.63 587.14,435.70 604.29,435.67 621.43,435.66 638.57,435.72 655.71,435.71 672.86,435.74 690.00,435.73 707.14,435.74 724.29,435.74 741.43,435.78 758.57,435.75 775.71,435.77 792.86,435.78 810.00,435.78 827.14,435.77 844.29,435.77 861.43,435.78 878.57,435.78 895.71,435.78 912.86,435.82 930.00,435.83"/>
<circle cx="90.00" cy="409.57" r="4.5" fill="#1d4ed8" fill-opacity="0.9"/>
<circle cx="107.14" cy="419.07" r="4.5" fill="#1d4ed8" fill-opacity="0.9"/>
<circle cx="124.29" cy="431.79" r="4.5" fill="#1d4ed8" fill-opacity="0.9"/>
<circle cx="141.43" cy="434.13" r="4.5" fill="#1d4ed8" fill-opacity="0.9"/>
<circle cx="158.57" cy="434.37" r="4.5" fill="#1d4ed8" fill-opacity="0.9"/>
<circle cx="175.71" cy="434.62" r="4.5" fill="#1d4ed8" fill-opacity="0.9"/>
<circle cx="192.86" cy="434.72" r="4.5" fill="#1d4ed8" fill-opacity="0.9"/>
<circle cx="210.00" cy="434.85" r="4.5" fill="#1d4ed8" fill-opacity="0.9"/>
<circle cx="227.14" cy="434.98" r="4.5" fill="#1d4ed8" fill-opacity="0.9"/>
<circle cx="244.29" cy="435.04" r="4.5" fill="#1d4ed8" fill-opacity="0.9"/>
<circle cx="261.43" cy="435.08" r="4.5" fill="#1d4ed8" fill-opacity="0.9"/>
<circle cx="278.57" cy="435.14" r="4.5" fill="#1d4ed8" fill-opacity="0.9"/>
<circle cx="295.71" cy="435.22" r="4.5" fill="#1d4ed8" fill-opacity="0.9"/>
<circle cx="312.86" cy="435.29" r="4.5" fill="#1d4ed8" fill-opacity="0.9"/>
<circle cx="330.00" cy="435.32" r="4.5" fill="#1d4ed8" fill-opacity="0.9"/>
<circle cx="347.14" cy="435.36" r="4.5" fill="#1d4ed8" fill-opacity="0.9"/>
<circle cx="364.29" cy="435.41" r="4.5" fill="#1d4ed8" fill-opacity="0.9"/>
<circle cx="381.43" cy="435.46" r="4.5" fill="#1d4ed8" fill-opacity="0.9"/>
<circle cx="398.57" cy="435.48" r="4.5" fill="#1d4ed8" fill-opacity="0.9"/>
<circle cx="415.71" cy="435.51" r="4.5" fill="#1d4ed8" fill-opacity="0.9"/>
<circle cx="432.86" cy="435.54" r="4.5" fill="#1d4ed8" fill-opacity="0.9"/>
<circle cx="450.00" cy="435.56" r="4.5" fill="#1d4ed8" fill-opacity="0.9"/>
<circle cx="467.14" cy="435.52" r="4.5" fill="#1d4ed8" fill-opacity="0.9"/>
<circle cx="484.29" cy="435.59" r="4.5" fill="#1d4ed8" fill-opacity="0.9"/>
<circle cx="501.43" cy="435.63" r="4.5" fill="#1d4ed8" fill-opacity="0.9"/>
<circle cx="518.57" cy="435.62" r="4.5" fill="#1d4ed8" fill-opacity="0.9"/>
<circle cx="535.71" cy="435.64" r="4.5" fill="#1d4ed8" fill-opacity="0.9"/>
<circle cx="552.86" cy="435.68" r="4.5" fill="#1d4ed8" fill-opacity="0.9"/>
<circle cx="570.00" cy="435.63" r="4.5" fill="#1d4ed8" fill-opacity="0.9"/>
<circle cx="587.14" cy="435.70" r="4.5" fill="#1d4ed8" fill-opacity="0.9"/>
<circle cx="604.29" cy="435.67" r="4.5" fill="#1d4ed8" fill-opacity="0.9"/>
<circle cx="621.43" cy="435.66" r="4.5" fill="#1d4ed8" fill-opacity="0.9"/>
<circle cx="638.57" cy="435.72" r="4.5" fill="#1d4ed8" fill-opacity="0.9"/>
<circle cx="655.71" cy="435.71" r="4.5" fill="#1d4ed8" fill-opacity="0.9"/>
<circle cx="672.86" cy="435.74" r="4.5" fill="#1d4ed8" fill-opacity="0.9"/>
<circle cx="690.00" cy="435.73" r="4.5" fill="#1d4ed8" fill-opacity="0.9"/>
<circle cx="707.14" cy="435.74" r="4.5" fill="#1d4ed8" fill-opacity="0.9"/>
<circle cx="724.29" cy="435.74" r="4.5" fill="#1d4ed8" fill-opacity="0.9"/>
<circle cx="741.43" cy="435.78" r="4.5" fill="#1d4ed8" fill-opacity="0.9"/>
<circle cx="758.57" cy="435.75" r="4.5" fill="#1d4ed8" fill-opacity="0.9"/>
<circle cx="775.71" cy="435.77" r="4.5" fill="#1d4ed8" fill-opacity="0.9"/>
<circle cx="792.86" cy="435.78" r="4.5" fill="#1d4ed8" fill-opacity="0.9"/>
<circle cx="810.00" cy="435.78" r="4.5" fill="#1d4ed8" fill-opacity="0.9"/>
<circle cx="827.14" cy="435.77" r="4.5" fill="#1d4ed8" fill-opacity="0.9"/>
<circle cx="844.29" cy="435.77" r="4.5" fill="#1d4ed8" fill-opacity="0.9"/>
<circle cx="861.43" cy="435.78" r="4.5" fill="#1d4ed8" fill-opacity="0.9"/>
<circle cx="878.57" cy="435.78" r="4.5" fill="#1d4ed8" fill-opacity="0.9"/>
<circle cx="895.71" cy="435.78" r="4.5" fill="#1d4ed8" fill-opacity="0.9"/>
<circle cx="912.86" cy="435.82" r="4.5" fill="#1d4ed8" fill-opacity="0.9"/>
<circle cx="930.00" cy="435.83" r="4.5" fill="#1d4ed8" fill-opacity="0.9"/>
<rect x="90" y="32" width="18" height="6" fill="#1d4ed8"/>
<text x="114" y="38" font-size="13" fill="#333333">train</text>
<polyline fill="none" stroke="#d97706" stroke-width="3" points="90.00,94.17 107.14,165.70 124.29,433.08 141.43,433.41 158.57,433.34 175.71,432.54 192.86,433.55 210.00,433.21 227.14,432.91 244.29,433.33 261.43,423.94 278.57,432.88 295.71,433.09 312.86,433.12 330.00,431.89 347.14,432.08 364.29,432.10 381.43,433.99 398.57,432.23 415.71,432.59 432.86,433.39 450.00,432.93 467.14,429.22 484.29,434.34 501.43,434.57 518.57,431.92 535.71,423.31 552.86,431.63 570.00,433.16 587.14,431.21 604.29,433.04 621.43,433.66 638.57,434.96 655.71,434.97 672.86,434.80 690.00,433.56 707.14,434.20 724.29,433.02 741.43,434.48 758.57,435.00 775.71,434.97 792.86,434.34 810.00,434.77 827.14,433.79 844.29,434.18 861.43,434.56 878.57,434.09 895.71,435.16 912.86,434.41 930.00,434.74"/>
<circle cx="90.00" cy="94.17" r="4.5" fill="#d97706" fill-opacity="0.9"/>
<circle cx="107.14" cy="165.70" r="4.5" fill="#d97706" fill-opacity="0.9"/>
<circle cx="124.29" cy="433.08" r="4.5" fill="#d97706" fill-opacity="0.9"/>
<circle cx="141.43" cy="433.41" r="4.5" fill="#d97706" fill-opacity="0.9"/>
<circle cx="158.57" cy="433.34" r="4.5" fill="#d97706" fill-opacity="0.9"/>
<circle cx="175.71" cy="432.54" r="4.5" fill="#d97706" fill-opacity="0.9"/>
<circle cx="192.86" cy="433.55" r="4.5" fill="#d97706" fill-opacity="0.9"/>
<circle cx="210.00" cy="433.21" r="4.5" fill="#d97706" fill-opacity="0.9"/>
<circle cx="227.14" cy="432.91" r="4.5" fill="#d97706" fill-opacity="0.9"/>
<circle cx="244.29" cy="433.33" r="4.5" fill="#d97706" fill-opacity="0.9"/>
<circle cx="261.43" cy="423.94" r="4.5" fill="#d97706" fill-opacity="0.9"/>
<circle cx="278.57" cy="432.88" r="4.5" fill="#d97706" fill-opacity="0.9"/>
<circle cx="295.71" cy="433.09" r="4.5" fill="#d97706" fill-opacity="0.9"/>
<circle cx="312.86" cy="433.12" r="4.5" fill="#d97706" fill-opacity="0.9"/>
<circle cx="330.00" cy="431.89" r="4.5" fill="#d97706" fill-opacity="0.9"/>
<circle cx="347.14" cy="432.08" r="4.5" fill="#d97706" fill-opacity="0.9"/>
<circle cx="364.29" cy="432.10" r="4.5" fill="#d97706" fill-opacity="0.9"/>
<circle cx="381.43" cy="433.99" r="4.5" fill="#d97706" fill-opacity="0.9"/>
<circle cx="398.57" cy="432.23" r="4.5" fill="#d97706" fill-opacity="0.9"/>
<circle cx="415.71" cy="432.59" r="4.5" fill="#d97706" fill-opacity="0.9"/>
<circle cx="432.86" cy="433.39" r="4.5" fill="#d97706" fill-opacity="0.9"/>
<circle cx="450.00" cy="432.93" r="4.5" fill="#d97706" fill-opacity="0.9"/>
<circle cx="467.14" cy="429.22" r="4.5" fill="#d97706" fill-opacity="0.9"/>
<circle cx="484.29" cy="434.34" r="4.5" fill="#d97706" fill-opacity="0.9"/>
<circle cx="501.43" cy="434.57" r="4.5" fill="#d97706" fill-opacity="0.9"/>
<circle cx="518.57" cy="431.92" r="4.5" fill="#d97706" fill-opacity="0.9"/>
<circle cx="535.71" cy="423.31" r="4.5" fill="#d97706" fill-opacity="0.9"/>
<circle cx="552.86" cy="431.63" r="4.5" fill="#d97706" fill-opacity="0.9"/>
<circle cx="570.00" cy="433.16" r="4.5" fill="#d97706" fill-opacity="0.9"/>
<circle cx="587.14" cy="431.21" r="4.5" fill="#d97706" fill-opacity="0.9"/>
<circle cx="604.29" cy="433.04" r="4.5" fill="#d97706" fill-opacity="0.9"/>
<circle cx="621.43" cy="433.66" r="4.5" fill="#d97706" fill-opacity="0.9"/>
<circle cx="638.57" cy="434.96" r="4.5" fill="#d97706" fill-opacity="0.9"/>
<circle cx="655.71" cy="434.97" r="4.5" fill="#d97706" fill-opacity="0.9"/>
<circle cx="672.86" cy="434.80" r="4.5" fill="#d97706" fill-opacity="0.9"/>
<circle cx="690.00" cy="433.56" r="4.5" fill="#d97706" fill-opacity="0.9"/>
<circle cx="707.14" cy="434.20" r="4.5" fill="#d97706" fill-opacity="0.9"/>
<circle cx="724.29" cy="433.02" r="4.5" fill="#d97706" fill-opacity="0.9"/>
<circle cx="741.43" cy="434.48" r="4.5" fill="#d97706" fill-opacity="0.9"/>
<circle cx="758.57" cy="435.00" r="4.5" fill="#d97706" fill-opacity="0.9"/>
<circle cx="775.71" cy="434.97" r="4.5" fill="#d97706" fill-opacity="0.9"/>
<circle cx="792.86" cy="434.34" r="4.5" fill="#d97706" fill-opacity="0.9"/>
<circle cx="810.00" cy="434.77" r="4.5" fill="#d97706" fill-opacity="0.9"/>
<circle cx="827.14" cy="433.79" r="4.5" fill="#d97706" fill-opacity="0.9"/>
<circle cx="844.29" cy="434.18" r="4.5" fill="#d97706" fill-opacity="0.9"/>
<circle cx="861.43" cy="434.56" r="4.5" fill="#d97706" fill-opacity="0.9"/>
<circle cx="878.57" cy="434.09" r="4.5" fill="#d97706" fill-opacity="0.9"/>
<circle cx="895.71" cy="435.16" r="4.5" fill="#d97706" fill-opacity="0.9"/>
<circle cx="912.86" cy="434.41" r="4.5" fill="#d97706" fill-opacity="0.9"/>
<circle cx="930.00" cy="434.74" r="4.5" fill="#d97706" fill-opacity="0.9"/>
<rect x="270" y="32" width="18" height="6" fill="#d97706"/>
<text x="294" y="38" font-size="13" fill="#333333">val</text>
<polyline fill="none" stroke="#059669" stroke-width="3" points="90.00,94.32 107.14,166.74 124.29,433.06 141.43,433.29 158.57,433.24 175.71,432.45 192.86,433.52 210.00,433.12 227.14,432.79 244.29,433.20 261.43,423.98 278.57,432.77 295.71,432.98 312.86,433.02 330.00,431.68 347.14,431.93 364.29,431.96 381.43,433.95 398.57,432.08 415.71,432.46 432.86,433.35 450.00,432.80 467.14,428.97 484.29,434.35 501.43,434.59 518.57,431.84 535.71,423.04 552.86,431.47 570.00,433.18 587.14,431.00 604.29,432.99 621.43,433.64 638.57,434.90 655.71,434.95 672.86,434.80 690.00,433.45 707.14,434.19 724.29,433.00 741.43,434.36 758.57,434.92 775.71,434.99 792.86,434.25 810.00,434.80 827.14,433.61 844.29,434.17 861.43,434.49 878.57,433.95 895.71,435.19 912.86,434.37 930.00,434.79"/>
<circle cx="90.00" cy="94.32" r="4.5" fill="#059669" fill-opacity="0.9"/>
<circle cx="107.14" cy="166.74" r="4.5" fill="#059669" fill-opacity="0.9"/>
<circle cx="124.29" cy="433.06" r="4.5" fill="#059669" fill-opacity="0.9"/>
<circle cx="141.43" cy="433.29" r="4.5" fill="#059669" fill-opacity="0.9"/>
<circle cx="158.57" cy="433.24" r="4.5" fill="#059669" fill-opacity="0.9"/>
<circle cx="175.71" cy="432.45" r="4.5" fill="#059669" fill-opacity="0.9"/>
<circle cx="192.86" cy="433.52" r="4.5" fill="#059669" fill-opacity="0.9"/>
<circle cx="210.00" cy="433.12" r="4.5" fill="#059669" fill-opacity="0.9"/>
<circle cx="227.14" cy="432.79" r="4.5" fill="#059669" fill-opacity="0.9"/>
<circle cx="244.29" cy="433.20" r="4.5" fill="#059669" fill-opacity="0.9"/>
<circle cx="261.43" cy="423.98" r="4.5" fill="#059669" fill-opacity="0.9"/>
<circle cx="278.57" cy="432.77" r="4.5" fill="#059669" fill-opacity="0.9"/>
<circle cx="295.71" cy="432.98" r="4.5" fill="#059669" fill-opacity="0.9"/>
<circle cx="312.86" cy="433.02" r="4.5" fill="#059669" fill-opacity="0.9"/>
<circle cx="330.00" cy="431.68" r="4.5" fill="#059669" fill-opacity="0.9"/>
<circle cx="347.14" cy="431.93" r="4.5" fill="#059669" fill-opacity="0.9"/>
<circle cx="364.29" cy="431.96" r="4.5" fill="#059669" fill-opacity="0.9"/>
<circle cx="381.43" cy="433.95" r="4.5" fill="#059669" fill-opacity="0.9"/>
<circle cx="398.57" cy="432.08" r="4.5" fill="#059669" fill-opacity="0.9"/>
<circle cx="415.71" cy="432.46" r="4.5" fill="#059669" fill-opacity="0.9"/>
<circle cx="432.86" cy="433.35" r="4.5" fill="#059669" fill-opacity="0.9"/>
<circle cx="450.00" cy="432.80" r="4.5" fill="#059669" fill-opacity="0.9"/>
<circle cx="467.14" cy="428.97" r="4.5" fill="#059669" fill-opacity="0.9"/>
<circle cx="484.29" cy="434.35" r="4.5" fill="#059669" fill-opacity="0.9"/>
<circle cx="501.43" cy="434.59" r="4.5" fill="#059669" fill-opacity="0.9"/>
<circle cx="518.57" cy="431.84" r="4.5" fill="#059669" fill-opacity="0.9"/>
<circle cx="535.71" cy="423.04" r="4.5" fill="#059669" fill-opacity="0.9"/>
<circle cx="552.86" cy="431.47" r="4.5" fill="#059669" fill-opacity="0.9"/>
<circle cx="570.00" cy="433.18" r="4.5" fill="#059669" fill-opacity="0.9"/>
<circle cx="587.14" cy="431.00" r="4.5" fill="#059669" fill-opacity="0.9"/>
<circle cx="604.29" cy="432.99" r="4.5" fill="#059669" fill-opacity="0.9"/>
<circle cx="621.43" cy="433.64" r="4.5" fill="#059669" fill-opacity="0.9"/>
<circle cx="638.57" cy="434.90" r="4.5" fill="#059669" fill-opacity="0.9"/>
<circle cx="655.71" cy="434.95" r="4.5" fill="#059669" fill-opacity="0.9"/>
<circle cx="672.86" cy="434.80" r="4.5" fill="#059669" fill-opacity="0.9"/>
<circle cx="690.00" cy="433.45" r="4.5" fill="#059669" fill-opacity="0.9"/>
<circle cx="707.14" cy="434.19" r="4.5" fill="#059669" fill-opacity="0.9"/>
<circle cx="724.29" cy="433.00" r="4.5" fill="#059669" fill-opacity="0.9"/>
<circle cx="741.43" cy="434.36" r="4.5" fill="#059669" fill-opacity="0.9"/>
<circle cx="758.57" cy="434.92" r="4.5" fill="#059669" fill-opacity="0.9"/>
<circle cx="775.71" cy="434.99" r="4.5" fill="#059669" fill-opacity="0.9"/>
<circle cx="792.86" cy="434.25" r="4.5" fill="#059669" fill-opacity="0.9"/>
<circle cx="810.00" cy="434.80" r="4.5" fill="#059669" fill-opacity="0.9"/>
<circle cx="827.14" cy="433.61" r="4.5" fill="#059669" fill-opacity="0.9"/>
<circle cx="844.29" cy="434.17" r="4.5" fill="#059669" fill-opacity="0.9"/>
<circle cx="861.43" cy="434.49" r="4.5" fill="#059669" fill-opacity="0.9"/>
<circle cx="878.57" cy="433.95" r="4.5" fill="#059669" fill-opacity="0.9"/>
<circle cx="895.71" cy="435.19" r="4.5" fill="#059669" fill-opacity="0.9"/>
<circle cx="912.86" cy="434.37" r="4.5" fill="#059669" fill-opacity="0.9"/>
<circle cx="930.00" cy="434.79" r="4.5" fill="#059669" fill-opacity="0.9"/>
<rect x="450" y="32" width="18" height="6" fill="#059669"/>
<text x="474" y="38" font-size="13" fill="#333333">test</text>
</svg>