<svg xmlns="http://www.w3.org/2000/svg" width="960" height="540">
<rect width="100%" height="100%" fill="#ffffff"/>
<text x="480.0" y="30" font-size="22" text-anchor="middle" fill="#111111">Position 3 Accuracy</text>
<text x="20" y="270.0" font-size="16" transform="rotate(-90 20,270.0)" text-anchor="middle" fill="#333333">Accuracy</text>
<text x="480.0" y="520" font-size="16" text-anchor="middle" fill="#333333">Epoch</text>
<line x1="90" y1="60" x2="90" y2="470" stroke="#333333" stroke-width="2"/>
<line x1="90" y1="470" x2="930" y2="470" stroke="#333333" stroke-width="2"/>
<line x1="90" y1="470.00" x2="930" y2="470.00" stroke="#e5e7eb" stroke-width="1"/>
<text x="80" y="475.00" font-size="12" text-anchor="end" fill="#555555">-0.0696</text>
<line x1="90" y1="367.50" x2="930" y2="367.50" stroke="#e5e7eb" stroke-width="1"/>
<text x="80" y="372.50" font-size="12" text-anchor="end" fill="#555555">0.2186</text>
<line x1="90" y1="265.00" x2="930" y2="265.00" stroke="#e5e7eb" stroke-width="1"/>
<text x="80" y="270.00" font-size="12" text-anchor="end" fill="#555555">0.5069</text>
<line x1="90" y1="162.50" x2="930" y2="162.50" stroke="#e5e7eb" stroke-width="1"/>
<text x="80" y="167.50" font-size="12" text-anchor="end" fill="#555555">0.7952</text>
<line x1="90" y1="60.00" x2="930" y2="60.00" stroke="#e5e7eb" stroke-width="1"/>
<text x="80" y="65.00" font-size="12" text-anchor="end" fill="#555555">1.0834</text>
<line x1="90.00" y1="60" x2="90.00" y2="470" stroke="#f3f4f6" stroke-width="1"/>
<text x="90.00" y="492" font-size="12" text-anchor="middle" fill="#555555">1</text>
<line x1="107.14" y1="60" x2="107.14" y2="470" stroke="#f3f4f6" stroke-width="1"/>
<text x="107.14" y="492" font-size="12" text-anchor="middle" fill="#555555">2</text>
<line x1="124.29" y1="60" x2="124.29" y2="470" stroke="#f3f4f6" stroke-width="1"/>
<text x="124.29" y="492" font-size="12" text-anchor="middle" fill="#555555">3</text>
<line x1="141.43" y1="60" x2="141.43" y2="470" stroke="#f3f4f6" stroke-width="1"/>
<text x="141.43" y="492" font-size="12" text-anchor="middle" fill="#555555">4</text>
<line x1="158.57" y1="60" x2="158.57" y2="470" stroke="#f3f4f6" stroke-width="1"/>
<text x="158.57" y="492" font-size="12" text-anchor="middle" fill="#555555">5</text>
<line x1="175.71" y1="60" x2="175.71" y2="470" stroke="#f3f4f6" stroke-width="1"/>
<text x="175.71" y="492" font-size="12" text-anchor="middle" fill="#555555">6</text>
<line x1="192.86" y1="60" x2="192.86" y2="470" stroke="#f3f4f6" stroke-width="1"/>
<text x="192.86" y="492" font-size="12" text-anchor="middle" fill="#555555">7</text>
<line x1="210.00" y1="60" x2="210.00" y2="470" stroke="#f3f4f6" stroke-width="1"/>
<text x="210.00" y="492" font-size="12" text-anchor="middle" fill="#555555">8</text>
<line x1="227.14" y1="60" x2="227.14" y2="470" stroke="#f3f4f6" stroke-width="1"/>
<text x="227.14" y="492" font-size="12" text-anchor="middle" fill="#555555">9</text>
<line x1="244.29" y1="60" x2="244.29" y2="470" stroke="#f3f4f6" stroke-width="1"/>
<text x="244.29" y="492" font-size="12" text-anchor="middle" fill="#555555">10</text>
<line x1="261.43" y1="60" x2="261.43" y2="470" stroke="#f3f4f6" stroke-width="1"/>
<text x="261.43" y="492" font-size="12" text-anchor="middle" fill="#555555">11</text>
<line x1="278.57" y1="60" x2="278.57" y2="470" stroke="#f3f4f6" stroke-width="1"/>
<text x="278.57" y="492" font-size="12" text-anchor="middle" fill="#555555">12</text>
<line x1="295.71" y1="60" x2="295.71" y2="470" stroke="#f3f4f6" stroke-width="1"/>
<text x="295.71" y="492" font-size="12" text-anchor="middle" fill="#555555">13</text>
<line x1="312.86" y1="60" x2="312.86" y2="470" stroke="#f3f4f6" stroke-width="1"/>
<text x="312.86" y="492" font-size="12" text-anchor="middle" fill="#555555">14</text>
<line x1="330.00" y1="60" x2="330.00" y2="470" stroke="#f3f4f6" stroke-width="1"/>
<text x="330.00" y="492" font-size="12" text-anchor="middle" fill="#555555">15</text>
<line x1="347.14" y1="60" x2="347.14" y2="470" stroke="#f3f4f6" stroke-width="1"/>
<text x="347.14" y="492" font-size="12" text-anchor="middle" fill="#555555">16</text>
<line x1="364.29" y1="60" x2="364.29" y2="470" stroke="#f3f4f6" stroke-width="1"/>
<text x="364.29" y="492" font-size="12" text-anchor="middle" fill="#555555">17</text>
<line x1="381.43" y1="60" x2="381.43" y2="470" stroke="#f3f4f6" stroke-width="1"/>
<text x="381.43" y="492" font-size="12" text-anchor="middle" fill="#555555">18</text>
<line x1="398.57" y1="60" x2="398.57" y2="470" stroke="#f3f4f6" stroke-width="1"/>
<text x="398.57" y="492" font-size="12" text-anchor="middle" fill="#555555">19</text>
<line x1="415.71" y1="60" x2="415.71" y2="470" stroke="#f3f4f6" stroke-width="1"/>
<text x="415.71" y="492" font-size="12" text-anchor="middle" fill="#555555">20</text>
<line x1="432.86" y1="60" x2="432.86" y2="470" stroke="#f3f4f6" stroke-width="1"/>
<text x="432.86" y="492" font-size="12" text-anchor="middle" fill="#555555">21</text>
<line x1="450.00" y1="60" x2="450.00" y2="470" stroke="#f3f4f6" stroke-width="1"/>
<text x="450.00" y="492" font-size="12" text-anchor="middle" fill="#555555">22</text>
<line x1="467.14" y1="60" x2="467.14" y2="470" stroke="#f3f4f6" stroke-width="1"/>
<text x="467.14" y="492" font-size="12" text-anchor="middle" fill="#555555">23</text>
<line x1="484.29" y1="60" x2="484.29" y2="470" stroke="#f3f4f6" stroke-width="1"/>
<text x="484.29" y="492" font-size="12" text-anchor="middle" fill="#555555">24</text>
<line x1="501.43" y1="60" x2="501.43" y2="470" stroke="#f3f4f6" stroke-width="1"/>
<text x="501.43" y="492" font-size="12" text-anchor="middle" fill="#555555">25</text>
<line x1="518.57" y1="60" x2="518.57" y2="470" stroke="#f3f4f6" stroke-width="1"/>
<text x="518.57" y="492" font-size="12" text-anchor="middle" fill="#555555">26</text>
<line x1="535.71" y1="60" x2="535.71" y2="470" stroke="#f3f4f6" stroke-width="1"/>
<text x="535.71" y="492" font-size="12" text-anchor="middle" fill="#555555">27</text>
<line x1="552.86" y1="60" x2="552.86" y2="470" stroke="#f3f4f6" stroke-width="1"/>
<text x="552.86" y="492" font-size="12" text-anchor="middle" fill="#555555">28</text>
<line x1="570.00" y1="60" x2="570.00" y2="470" stroke="#f3f4f6" stroke-width="1"/>
<text x="570.00" y="492" font-size="12" text-anchor="middle" fill="#555555">29</text>
<line x1="587.14" y1="60" x2="587.14" y2="470" stroke="#f3f4f6" stroke-width="1"/>
<text x="587.14" y="492" font-size="12" text-anchor="middle" fill="#555555">30</text>
<line x1="604.29" y1="60" x2="604.29" y2="470" stroke="#f3f4f6" stroke-width="1"/>
<text x="604.29" y="492" font-size="12" text-anchor="middle" fill="#555555">31</text>
<line x1="621.43" y1="60" x2="621.43" y2="470" stroke="#f3f4f6" stroke-width="1"/>
<text x="621.43" y="492" font-size="12" text-anchor="middle" fill="#555555">32</text>
<line x1="638.57" y1="60" x2="638.57" y2="470" stroke="#f3f4f6" stroke-width="1"/>
<text x="638.57" y="492" font-size="12" text-anchor="middle" fill="#555555">33</text>
<line x1="655.71" y1="60" x2="655.71" y2="470" stroke="#f3f4f6" stroke-width="1"/>
<text x="655.71" y="492" font-size="12" text-anchor="middle" fill="#555555">34</text>
<line x1="672.86" y1="60" x2="672.86" y2="470" stroke="#f3f4f6" stroke-width="1"/>
<text x="672.86" y="492" font-size="12" text-anchor="middle" fill="#555555">35</text>
<line x1="690.00" y1="60" x2="690.00" y2="470" stroke="#f3f4f6" stroke-width="1"/>
<text x="690.00" y="492" font-size="12" text-anchor="middle" fill="#555555">36</text>
<line x1="707.14" y1="60" x2="707.14" y2="470" stroke="#f3f4f6" stroke-width="1"/>
<text x="707.14" y="492" font-size="12" text-anchor="middle" fill="#555555">37</text>
<line x1="724.29" y1="60" x2="724.29" y2="470" stroke="#f3f4f6" stroke-width="1"/>
<text x="724.29" y="492" font-size="12" text-anchor="middle" fill="#555555">38</text>
<line x1="741.43" y1="60" x2="741.43" y2="470" stroke="#f3f4f6" stroke-width="1"/>
<text x="741.43" y="492" font-size="12" text-anchor="middle" fill="#555555">39</text>
<line x1="758.57" y1="60" x2="758.57" y2="470" stroke="#f3f4f6" stroke-width="1"/>
<text x="758.57" y="492" font-size="12" text-anchor="middle" fill="#555555">40</text>
<line x1="775.71" y1="60" x2="775.71" y2="470" stroke="#f3f4f6" stroke-width="1"/>
<text x="775.71" y="492" font-size="12" text-anchor="middle" fill="#555555">41</text>
<line x1="792.86" y1="60" x2="792.86" y2="470" stroke="#f3f4f6" stroke-width="1"/>
<text x="792.86" y="492" font-size="12" text-anchor="middle" fill="#555555">42</text>
<line x1="810.00" y1="60" x2="810.00" y2="470" stroke="#f3f4f6" stroke-width="1"/>
<text x="810.00" y="492" font-size="12" text-anchor="middle" fill="#555555">43</text>
<line x1="827.14" y1="60" x2="827.14" y2="470" stroke="#f3f4f6" stroke-width="1"/>
<text x="827.14" y="492" font-size="12" text-anchor="middle" fill="#555555">44</text>
<line x1="844.29" y1="60" x2="844.29" y2="470" stroke="#f3f4f6" stroke-width="1"/>
<text x="844.29" y="492" font-size="12" text-anchor="middle" fill="#555555">45</text>
<line x1="861.43" y1="60" x2="861.43" y2="470" stroke="#f3f4f6" stroke-width="1"/>
<text x="861.43" y="492" font-size="12" text-anchor="middle" fill="#555555">46</text>
<line x1="878.57" y1="60" x2="878.57" y2="470" stroke="#f3f4f6" stroke-width="1"/>
<text x="878.57" y="492" font-size="12" text-anchor="middle" fill="#555555">47</text>
<line x1="895.71" y1="60" x2="895.71" y2="470" stroke="#f3f4f6" stroke-width="1"/>
<text x="895.71" y="492" font-size="12" text-anchor="middle" fill="#555555">48</text>
<line x1="912.86" y1="60" x2="912.86" y2="470" stroke="#f3f4f6" stroke-width="1"/>
<text x="912.86" y="492" font-size="12" text-anchor="middle" fill="#555555">49</text>
<line x1="930.00" y1="60" x2="930.00" y2="470" stroke="#f3f4f6" stroke-width="1"/>
<text x="930.00" y="492" font-size="12" text-anchor="middle" fill="#555555">50</text>
<polyline fill="none" stroke="#d97706" stroke-width="3" points="90.00,435.83 107.14,435.50 124.29,109.24 141.43,101.89 158.57,101.42 175.71,104.60 192.86,100.52 210.00,101.14 227.14,100.71 244.29,100.88 261.43,112.82 278.57,100.35 295.71,100.42 312.86,100.24 330.00,100.12 347.14,101.35 364.29,100.52 381.43,99.33 398.57,100.99 415.71,100.07 432.86,99.33 450.00,100.12 467.14,105.92 484.29,97.53 501.43,96.66 518.57,100.16 535.71,116.81 552.86,99.88 570.00,99.38 587.14,100.26 604.29,99.19 621.43,97.11 638.57,95.21 655.71,96.37 672.86,97.01 690.00,99.60 707.14,96.61 724.29,104.93 741.43,97.77 758.57,95.87 775.71,95.30 792.86,97.44 810.00,95.47 827.14,99.38 844.29,98.36 861.43,97.60 878.57,98.46 895.71,94.52 912.86,96.63 930.00,95.00"/>
<circle cx="90.00" cy="435.83" r="4.5" fill="#d97706" fill-opacity="0.9"/>
<circle cx="107.14" cy="435.50" r="4.5" fill="#d97706" fill-opacity="0.9"/>
<circle cx="124.29" cy="109.24" r="4.5" fill="#d97706" fill-opacity="0.9"/>
<circle cx="141.43" cy="101.89" r="4.5" fill="#d97706" fill-opacity="0.9"/>
<circle cx="158.57" cy="101.42" r="4.5" fill="#d97706" fill-opacity="0.9"/>
<circle cx="175.71" cy="104.60" r="4.5" fill="#d97706" fill-opacity="0.9"/>
<circle cx="192.86" cy="100.52" r="4.5" fill="#d97706" fill-opacity="0.9"/>
<circle cx="210.00" cy="101.14" r="4.5" fill="#d97706" fill-opacity="0.9"/>
<circle cx="227.14" cy="100.71" r="4.5" fill="#d97706" fill-opacity="0.9"/>
<circle cx="244.29" cy="100.88" r="4.5" fill="#d97706" fill-opacity="0.9"/>
<circle cx="261.43" cy="112.82" r="4.5" fill="#d97706" fill-opacity="0.9"/>
<circle cx="278.57" cy="100.35" r="4.5" fill="#d97706" fill-opacity="0.9"/>
<circle cx="295.71" cy="100.42" r="4.5" fill="#d97706" fill-opacity="0.9"/>
<circle cx="312.86" cy="100.24" r="4.5" fill="#d97706" fill-opacity="0.9"/>
<circle cx="330.00" cy="100.12" r="4.5" fill="#d97706" fill-opacity="0.9"/>
<circle cx="347.14" cy="101.35" r="4.5" fill="#d97706" fill-opacity="0.9"/>
<circle cx="364.29" cy="100.52" r="4.5" fill="#d97706" fill-opacity="0.9"/>
<circle cx="381.43" cy="99.33" r="4.5" fill="#d97706" fill-opacity="0.9"/>
<circle cx="398.57" cy="100.99" r="4.5" fill="#d97706" fill-opacity="0.9"/>
<circle cx="415.71" cy="100.07" r="4.5" fill="#d97706" fill-opacity="0.9"/>
<circle cx="432.86" cy="99.33" r="4.5" fill="#d97706" fill-opacity="0.9"/>
<circle cx="450.00" cy="100.12" r="4.5" fill="#d97706" fill-opacity="0.9"/>
<circle cx="467.14" cy="105.92" r="4.5" fill="#d97706" fill-opacity="0.9"/>
<circle cx="484.29" cy="97.53" r="4.5" fill="#d97706" fill-opacity="0.9"/>
<circle cx="501.43" cy="96.66" r="4.5" fill="#d97706" fill-opacity="0.9"/>
<circle cx="518.57" cy="100.16" r="4.5" fill="#d97706" fill-opacity="0.9"/>
<circle cx="535.71" cy="116.81" r="4.5" fill="#d97706" fill-opacity="0.9"/>
<circle cx="552.86" cy="99.88" r="4.5" fill="#d97706" fill-opacity="0.9"/>
<circle cx="570.00" cy="99.38" r="4.5" fill="#d97706" fill-opacity="0.9"/>
<circle cx="587.14" cy="100.26" r="4.5" fill="#d97706" fill-opacity="0.9"/>
<circle cx="604.29" cy="99.19" r="4.5" fill="#d97706" fill-opacity="0.9"/>
<circle cx="621.43" cy="97.11" r="4.5" fill="#d97706" fill-opacity="0.9"/>
<circle cx="638.57" cy="95.21" r="4.5" fill="#d97706" fill-opacity="0.9"/>
<circle cx="655.71" cy="96.37" r="4.5" fill="#d97706" fill-opacity="0.9"/>
<circle cx="672.86" cy="97.01" r="4.5" fill="#d97706" fill-opacity="0.9"/>
<circle cx="690.00" cy="99.60" r="4.5" fill="#d97706" fill-opacity="0.9"/>
<circle cx="707.14" cy="96.61" r="4.5" fill="#d97706" fill-opacity="0.9"/>
<circle cx="724.29" cy="104.93" r="4.5" fill="#d97706" fill-opacity="0.9"/>
<circle cx="741.43" cy="97.77" r="4.5" fill="#d97706" fill-opacity="0.9"/>
<circle cx="758.57" cy="95.87" r="4.5" fill="#d97706" fill-opacity="0.9"/>
<circle cx="775.71" cy="95.30" r="4.5" fill="#d97706" fill-opacity="0.9"/>
<circle cx="792.86" cy="97.44" r="4.5" fill="#d97706" fill-opacity="0.9"/>
<circle cx="810.00" cy="95.47" r="4.5" fill="#d97706" fill-opacity="0.9"/>
<circle cx="827.14" cy="99.38" r="4.5" fill="#d97706" fill-opacity="0.9"/>
<circle cx="844.29" cy="98.36" r="4.5" fill="#d97706" fill-opacity="0.9"/>
<circle cx="861.43" cy="97.60" r="4.5" fill="#d97706" fill-opacity="0.9"/>
<circle cx="878.57" cy="98.46" r="4.5" fill="#d97706" fill-opacity="0.9"/>
<circle cx="895.71" cy="94.52" r="4.5" fill="#d97706" fill-opacity="0.9"/>
<circle cx="912.86" cy="96.63" r="4.5" fill="#d97706" fill-opacity="0.9"/>
<circle cx="930.00" cy="95.00" r="4.5" fill="#d97706" fill-opacity="0.9"/>
<rect x="90" y="32" width="18" height="6" fill="#d97706"/>
<text x="114" y="38" font-size="13" fill="#333333">val</text>
<polyline fill="none" stroke="#059669" stroke-width="3" points="90.00,434.84 107.14,435.31 124.29,108.22 141.43,104.27 158.57,102.99 175.71,106.35 192.86,102.58 210.00,102.61 227.14,102.13 244.29,102.35 261.43,113.98 278.57,101.99 295.71,102.18 312.86,101.92 330.00,101.44 347.14,102.94 364.29,102.30 381.43,100.83 398.57,102.25 415.71,101.56 432.86,100.92 450.00,102.08 467.14,107.75 484.29,98.93 501.43,97.22 518.57,101.42 535.71,118.92 552.86,101.11 570.00,99.95 587.14,101.52 604.29,100.40 621.43,98.01 638.57,96.16 655.71,97.51 672.86,97.20 690.00,101.14 707.14,97.04 724.29,106.52 741.43,99.26 758.57,96.35 775.71,94.88 792.86,98.84 810.00,96.13 827.14,100.83 844.29,99.24 861.43,98.62 878.57,99.57 895.71,94.17 912.86,97.34 930.00,95.09"/>
<circle cx="90.00" cy="434.84" r="4.5" fill="#059669" fill-opacity="0.9"/>
<circle cx="107.14" cy="435.31" r="4.5" fill="#059669" fill-opacity="0.9"/>
<circle cx="124.29" cy="108.22" r="4.5" fill="#059669" fill-opacity="0.9"/>
<circle cx="141.43" cy="104.27" r="4.5" fill="#059669" fill-opacity="0.9"/>
<circle cx="158.57" cy="102.99" r="4.5" fill="#059669" fill-opacity="0.9"/>
<circle cx="175.71" cy="106.35" r="4.5" fill="#059669" fill-opacity="0.9"/>
<circle cx="192.86" cy="102.58" r="4.5" fill="#059669" fill-opacity="0.9"/>
<circle cx="210.00" cy="102.61" r="4.5" fill="#059669" fill-opacity="0.9"/>
<circle cx="227.14" cy="102.13" r="4.5" fill="#059669" fill-opacity="0.9"/>
<circle cx="244.29" cy="102.35" r="4.5" fill="#059669" fill-opacity="0.9"/>
<circle cx="261.43" cy="113.98" r="4.5" fill="#059669" fill-opacity="0.9"/>
<circle cx="278.57" cy="101.99" r="4.5" fill="#059669" fill-opacity="0.9"/>
<circle cx="295.71" cy="102.18" r="4.5" fill="#059669" fill-opacity="0.9"/>
<circle cx="312.86" cy="101.92" r="4.5" fill="#059669" fill-opacity="0.9"/>
<circle cx="330.00" cy="101.44" r="4.5" fill="#059669" fill-opacity="0.9"/>
<circle cx="347.14" cy="102.94" r="4.5" fill="#059669" fill-opacity="0.9"/>
<circle cx="364.29" cy="102.30" r="4.5" fill="#059669" fill-opacity="0.9"/>
<circle cx="381.43" cy="100.83" r="4.5" fill="#059669" fill-opacity="0.9"/>
<circle cx="398.57" cy="102.25" r="4.5" fill="#059669" fill-opacity="0.9"/>
<circle cx="415.71" cy="101.56" r="4.5" fill="#059669" fill-opacity="0.9"/>
<circle cx="432.86" cy="100.92" r="4.5" fill="#059669" fill-opacity="0.9"/>
<circle cx="450.00" cy="102.08" r="4.5" fill="#059669" fill-opacity="0.9"/>
<circle cx="467.14" cy="107.75" r="4.5" fill="#059669" fill-opacity="0.9"/>
<circle cx="484.29" cy="98.93" r="4.5" fill="#059669" fill-opacity="0.9"/>
<circle cx="501.43" cy="97.22" r="4.5" fill="#059669" fill-opacity="0.9"/>
<circle cx="518.57" cy="101.42" r="4.5" fill="#059669" fill-opacity="0.9"/>
<circle cx="535.71" cy="118.92" r="4.5" fill="#059669" fill-opacity="0.9"/>
<circle cx="552.86" cy="101.11" r="4.5" fill="#059669" fill-opacity="0.9"/>
<circle cx="570.00" cy="99.95" r="4.5" fill="#059669" fill-opacity="0.9"/>
<circle cx="587.14" cy="101.52" r="4.5" fill="#059669" fill-opacity="0.9"/>
<circle cx="604.29" cy="100.40" r="4.5" fill="#059669" fill-opacity="0.9"/>
<circle cx="621.43" cy="98.01" r="4.5" fill="#059669" fill-opacity="0.9"/>
<circle cx="638.57" cy="96.16" r="4.5" fill="#059669" fill-opacity="0.9"/>
<circle cx="655.71" cy="97.51" r="4.5" fill="#059669" fill-opacity="0.9"/>
<circle cx="672.86" cy="97.20" r="4.5" fill="#059669" fill-opacity="0.9"/>
<circle cx="690.00" cy="101.14" r="4.5" fill="#059669" fill-opacity="0.9"/>
<circle cx="707.14" cy="97.04" r="4.5" fill="#059669" fill-opacity="0.9"/>
<circle cx="724.29" cy="106.52" r="4.5" fill="#059669" fill-opacity="0.9"/>
<circle cx="741.43" cy="99.26" r="4.5" fill="#059669" fill-opacity="0.9"/>
<circle cx="758.57" cy="96.35" r="4.5" fill="#059669" fill-opacity="0.9"/>
<circle cx="775.71" cy="94.88" r="4.5" fill="#059669" fill-opacity="0.9"/>
<circle cx="792.86" cy="98.84" r="4.5" fill="#059669" fill-opacity="0.9"/>
<circle cx="810.00" cy="96.13" r="4.5" fill="#059669" fill-opacity="0.9"/>
<circle cx="827.14" cy="100.83" r="4.5" fill="#059669" fill-opacity="0.9"/>
<circle cx="844.29" cy="99.24" r="4.5" fill="#059669" fill-opacity="0.9"/>
<circle cx="861.43" cy="98.62" r="4.5" fill="#059669" fill-opacity="0.9"/>
<circle cx="878.57" cy="99.57" r="4.5" fill="#059669" fill-opacity="0.9"/>
<circle cx="895.71" cy="94.17" r="4.5" fill="#059669" fill-opacity="0.9"/>
<circle cx="912.86" cy="97.34" r="4.5" fill="#059669" fill-opacity="0.9"/>
<circle cx="930.00" cy="95.09" r="4.5" fill="#059669" fill-opacity="0.9"/>
<rect x="270" y="32" width="18" height="6" fill="#059669"/>
<text x="294" y="38" font-size="13" fill="#333333">test</text>
</svg>