<svg xmlns="http://www.w3.org/2000/svg" width="960" height="540">
<rect width="100%" height="100%" fill="#ffffff"/>
<text x="480.0" y="30" font-size="22" text-anchor="middle" fill="#111111">Position 5 Accuracy</text>
<text x="20" y="270.0" font-size="16" transform="rotate(-90 20,270.0)" text-anchor="middle" fill="#333333">Accuracy</text>
<text x="480.0" y="520" font-size="16" text-anchor="middle" fill="#333333">Epoch</text>
<line x1="90" y1="60" x2="90" y2="470" stroke="#333333" stroke-width="2"/>
<line x1="90" y1="470" x2="930" y2="470" stroke="#333333" stroke-width="2"/>
<line x1="90" y1="470.00" x2="930" y2="470.00" stroke="#e5e7eb" stroke-width="1"/>
<text x="80" y="475.00" font-size="12" text-anchor="end" fill="#555555">-0.0683</text>
<line x1="90" y1="367.50" x2="930" y2="367.50" stroke="#e5e7eb" stroke-width="1"/>
<text x="80" y="372.50" font-size="12" text-anchor="end" fill="#555555">0.2199</text>
<line x1="90" y1="265.00" x2="930" y2="265.00" stroke="#e5e7eb" stroke-width="1"/>
<text x="80" y="270.00" font-size="12" text-anchor="end" fill="#555555">0.5081</text>
<line x1="90" y1="162.50" x2="930" y2="162.50" stroke="#e5e7eb" stroke-width="1"/>
<text x="80" y="167.50" font-size="12" text-anchor="end" fill="#555555">0.7963</text>
<line x1="90" y1="60.00" x2="930" y2="60.00" stroke="#e5e7eb" stroke-width="1"/>
<text x="80" y="65.00" font-size="12" text-anchor="end" fill="#555555">1.0845</text>
<line x1="90.00" y1="60" x2="90.00" y2="470" stroke="#f3f4f6" stroke-width="1"/>
<text x="90.00" y="492" font-size="12" text-anchor="middle" fill="#555555">1</text>
<line x1="107.14" y1="60" x2="107.14" y2="470" stroke="#f3f4f6" stroke-width="1"/>
<text x="107.14" y="492" font-size="12" text-anchor="middle" fill="#555555">2</text>
<line x1="124.29" y1="60" x2="124.29" y2="470" stroke="#f3f4f6" stroke-width="1"/>
<text x="124.29" y="492" font-size="12" text-anchor="middle" fill="#555555">3</text>
<line x1="141.43" y1="60" x2="141.43" y2="470" stroke="#f3f4f6" stroke-width="1"/>
<text x="141.43" y="492" font-size="12" text-anchor="middle" fill="#555555">4</text>
<line x1="158.57" y1="60" x2="158.57" y2="470" stroke="#f3f4f6" stroke-width="1"/>
<text x="158.57" y="492" font-size="12" text-anchor="middle" fill="#555555">5</text>
<line x1="175.71" y1="60" x2="175.71" y2="470" stroke="#f3f4f6" stroke-width="1"/>
<text x="175.71" y="492" font-size="12" text-anchor="middle" fill="#555555">6</text>
<line x1="192.86" y1="60" x2="192.86" y2="470" stroke="#f3f4f6" stroke-width="1"/>
<text x="192.86" y="492" font-size="12" text-anchor="middle" fill="#555555">7</text>
<line x1="210.00" y1="60" x2="210.00" y2="470" stroke="#f3f4f6" stroke-width="1"/>
<text x="210.00" y="492" font-size="12" text-anchor="middle" fill="#555555">8</text>
<line x1="227.14" y1="60" x2="227.14" y2="470" stroke="#f3f4f6" stroke-width="1"/>
<text x="227.14" y="492" font-size="12" text-anchor="middle" fill="#555555">9</text>
<line x1="244.29" y1="60" x2="244.29" y2="470" stroke="#f3f4f6" stroke-width="1"/>
<text x="244.29" y="492" font-size="12" text-anchor="middle" fill="#555555">10</text>
<line x1="261.43" y1="60" x2="261.43" y2="470" stroke="#f3f4f6" stroke-width="1"/>
<text x="261.43" y="492" font-size="12" text-anchor="middle" fill="#555555">11</text>
<line x1="278.57" y1="60" x2="278.57" y2="470" stroke="#f3f4f6" stroke-width="1"/>
<text x="278.57" y="492" font-size="12" text-anchor="middle" fill="#555555">12</text>
<line x1="295.71" y1="60" x2="295.71" y2="470" stroke="#f3f4f6" stroke-width="1"/>
<text x="295.71" y="492" font-size="12" text-anchor="middle" fill="#555555">13</text>
<line x1="312.86" y1="60" x2="312.86" y2="470" stroke="#f3f4f6" stroke-width="1"/>
<text x="312.86" y="492" font-size="12" text-anchor="middle" fill="#555555">14</text>
<line x1="330.00" y1="60" x2="330.00" y2="470" stroke="#f3f4f6" stroke-width="1"/>
<text x="330.00" y="492" font-size="12" text-anchor="middle" fill="#555555">15</text>
<line x1="347.14" y1="60" x2="347.14" y2="470" stroke="#f3f4f6" stroke-width="1"/>
<text x="347.14" y="492" font-size="12" text-anchor="middle" fill="#555555">16</text>
<line x1="364.29" y1="60" x2="364.29" y2="470" stroke="#f3f4f6" stroke-width="1"/>
<text x="364.29" y="492" font-size="12" text-anchor="middle" fill="#555555">17</text>
<line x1="381.43" y1="60" x2="381.43" y2="470" stroke="#f3f4f6" stroke-width="1"/>
<text x="381.43" y="492" font-size="12" text-anchor="middle" fill="#555555">18</text>
<line x1="398.57" y1="60" x2="398.57" y2="470" stroke="#f3f4f6" stroke-width="1"/>
<text x="398.57" y="492" font-size="12" text-anchor="middle" fill="#555555">19</text>
<line x1="415.71" y1="60" x2="415.71" y2="470" stroke="#f3f4f6" stroke-width="1"/>
<text x="415.71" y="492" font-size="12" text-anchor="middle" fill="#555555">20</text>
<line x1="432.86" y1="60" x2="432.86" y2="470" stroke="#f3f4f6" stroke-width="1"/>
<text x="432.86" y="492" font-size="12" text-anchor="middle" fill="#555555">21</text>
<line x1="450.00" y1="60" x2="450.00" y2="470" stroke="#f3f4f6" stroke-width="1"/>
<text x="450.00" y="492" font-size="12" text-anchor="middle" fill="#555555">22</text>
<line x1="467.14" y1="60" x2="467.14" y2="470" stroke="#f3f4f6" stroke-width="1"/>
<text x="467.14" y="492" font-size="12" text-anchor="middle" fill="#555555">23</text>
<line x1="484.29" y1="60" x2="484.29" y2="470" stroke="#f3f4f6" stroke-width="1"/>
<text x="484.29" y="492" font-size="12" text-anchor="middle" fill="#555555">24</text>
<line x1="501.43" y1="60" x2="501.43" y2="470" stroke="#f3f4f6" stroke-width="1"/>
<text x="501.43" y="492" font-size="12" text-anchor="middle" fill="#555555">25</text>
<line x1="518.57" y1="60" x2="518.57" y2="470" stroke="#f3f4f6" stroke-width="1"/>
<text x="518.57" y="492" font-size="12" text-anchor="middle" fill="#555555">26</text>
<line x1="535.71" y1="60" x2="535.71" y2="470" stroke="#f3f4f6" stroke-width="1"/>
<text x="535.71" y="492" font-size="12" text-anchor="middle" fill="#555555">27</text>
<line x1="552.86" y1="60" x2="552.86" y2="470" stroke="#f3f4f6" stroke-width="1"/>
<text x="552.86" y="492" font-size="12" text-anchor="middle" fill="#555555">28</text>
<line x1="570.00" y1="60" x2="570.00" y2="470" stroke="#f3f4f6" stroke-width="1"/>
<text x="570.00" y="492" font-size="12" text-anchor="middle" fill="#555555">29</text>
<line x1="587.14" y1="60" x2="587.14" y2="470" stroke="#f3f4f6" stroke-width="1"/>
<text x="587.14" y="492" font-size="12" text-anchor="middle" fill="#555555">30</text>
<line x1="604.29" y1="60" x2="604.29" y2="470" stroke="#f3f4f6" stroke-width="1"/>
<text x="604.29" y="492" font-size="12" text-anchor="middle" fill="#555555">31</text>
<line x1="621.43" y1="60" x2="621.43" y2="470" stroke="#f3f4f6" stroke-width="1"/>
<text x="621.43" y="492" font-size="12" text-anchor="middle" fill="#555555">32</text>
<line x1="638.57" y1="60" x2="638.57" y2="470" stroke="#f3f4f6" stroke-width="1"/>
<text x="638.57" y="492" font-size="12" text-anchor="middle" fill="#555555">33</text>
<line x1="655.71" y1="60" x2="655.71" y2="470" stroke="#f3f4f6" stroke-width="1"/>
<text x="655.71" y="492" font-size="12" text-anchor="middle" fill="#555555">34</text>
<line x1="672.86" y1="60" x2="672.86" y2="470" stroke="#f3f4f6" stroke-width="1"/>
<text x="672.86" y="492" font-size="12" text-anchor="middle" fill="#555555">35</text>
<line x1="690.00" y1="60" x2="690.00" y2="470" stroke="#f3f4f6" stroke-width="1"/>
<text x="690.00" y="492" font-size="12" text-anchor="middle" fill="#555555">36</text>
<line x1="707.14" y1="60" x2="707.14" y2="470" stroke="#f3f4f6" stroke-width="1"/>
<text x="707.14" y="492" font-size="12" text-anchor="middle" fill="#555555">37</text>
<line x1="724.29" y1="60" x2="724.29" y2="470" stroke="#f3f4f6" stroke-width="1"/>
<text x="724.29" y="492" font-size="12" text-anchor="middle" fill="#555555">38</text>
<line x1="741.43" y1="60" x2="741.43" y2="470" stroke="#f3f4f6" stroke-width="1"/>
<text x="741.43" y="492" font-size="12" text-anchor="middle" fill="#555555">39</text>
<line x1="758.57" y1="60" x2="758.57" y2="470" stroke="#f3f4f6" stroke-width="1"/>
<text x="758.57" y="492" font-size="12" text-anchor="middle" fill="#555555">40</text>
<line x1="775.71" y1="60" x2="775.71" y2="470" stroke="#f3f4f6" stroke-width="1"/>
<text x="775.71" y="492" font-size="12" text-anchor="middle" fill="#555555">41</text>
<line x1="792.86" y1="60" x2="792.86" y2="470" stroke="#f3f4f6" stroke-width="1"/>
<text x="792.86" y="492" font-size="12" text-anchor="middle" fill="#555555">42</text>
<line x1="810.00" y1="60" x2="810.00" y2="470" stroke="#f3f4f6" stroke-width="1"/>
<text x="810.00" y="492" font-size="12" text-anchor="middle" fill="#555555">43</text>
<line x1="827.14" y1="60" x2="827.14" y2="470" stroke="#f3f4f6" stroke-width="1"/>
<text x="827.14" y="492" font-size="12" text-anchor="middle" fill="#555555">44</text>
<line x1="844.29" y1="60" x2="844.29" y2="470" stroke="#f3f4f6" stroke-width="1"/>
<text x="844.29" y="492" font-size="12" text-anchor="middle" fill="#555555">45</text>
<line x1="861.43" y1="60" x2="861.43" y2="470" stroke="#f3f4f6" stroke-width="1"/>
<text x="861.43" y="492" font-size="12" text-anchor="middle" fill="#555555">46</text>
<line x1="878.57" y1="60" x2="878.57" y2="470" stroke="#f3f4f6" stroke-width="1"/>
<text x="878.57" y="492" font-size="12" text-anchor="middle" fill="#555555">47</text>
<line x1="895.71" y1="60" x2="895.71" y2="470" stroke="#f3f4f6" stroke-width="1"/>
<text x="895.71" y="492" font-size="12" text-anchor="middle" fill="#555555">48</text>
<line x1="912.86" y1="60" x2="912.86" y2="470" stroke="#f3f4f6" stroke-width="1"/>
<text x="912.86" y="492" font-size="12" text-anchor="middle" fill="#555555">49</text>
<line x1="930.00" y1="60" x2="930.00" y2="470" stroke="#f3f4f6" stroke-width="1"/>
<text x="930.00" y="492" font-size="12" text-anchor="middle" fill="#555555">50</text>
<polyline fill="none" stroke="#d97706" stroke-width="3" points="90.00,435.36 107.14,435.83 124.29,107.04 141.43,100.35 158.57,100.40 175.71,101.94 192.86,100.19 210.00,100.47 227.14,100.26 244.29,100.28 261.43,113.18 278.57,99.79 295.71,99.81 312.86,100.07 330.00,99.76 347.14,100.33 364.29,100.02 381.43,99.22 398.57,100.16 415.71,99.95 432.86,99.48 450.00,99.31 467.14,112.49 484.29,96.42 501.43,94.97 518.57,99.79 535.71,147.11 552.86,99.81 570.00,99.43 587.14,99.71 604.29,99.12 621.43,97.72 638.57,95.78 655.71,95.14 672.86,94.17 690.00,98.29 707.14,96.87 724.29,100.45 741.43,95.54 758.57,94.52 775.71,94.83 792.86,96.09 810.00,96.23 827.14,96.82 844.29,97.89 861.43,96.28 878.57,96.11 895.71,94.29 912.86,96.99 930.00,94.17"/>
<circle cx="90.00" cy="435.36" r="4.5" fill="#d97706" fill-opacity="0.9"/>
<circle cx="107.14" cy="435.83" r="4.5" fill="#d97706" fill-opacity="0.9"/>
<circle cx="124.29" cy="107.04" r="4.5" fill="#d97706" fill-opacity="0.9"/>
<circle cx="141.43" cy="100.35" r="4.5" fill="#d97706" fill-opacity="0.9"/>
<circle cx="158.57" cy="100.40" r="4.5" fill="#d97706" fill-opacity="0.9"/>
<circle cx="175.71" cy="101.94" r="4.5" fill="#d97706" fill-opacity="0.9"/>
<circle cx="192.86" cy="100.19" r="4.5" fill="#d97706" fill-opacity="0.9"/>
<circle cx="210.00" cy="100.47" r="4.5" fill="#d97706" fill-opacity="0.9"/>
<circle cx="227.14" cy="100.26" r="4.5" fill="#d97706" fill-opacity="0.9"/>
<circle cx="244.29" cy="100.28" r="4.5" fill="#d97706" fill-opacity="0.9"/>
<circle cx="261.43" cy="113.18" r="4.5" fill="#d97706" fill-opacity="0.9"/>
<circle cx="278.57" cy="99.79" r="4.5" fill="#d97706" fill-opacity="0.9"/>
<circle cx="295.71" cy="99.81" r="4.5" fill="#d97706" fill-opacity="0.9"/>
<circle cx="312.86" cy="100.07" r="4.5" fill="#d97706" fill-opacity="0.9"/>
<circle cx="330.00" cy="99.76" r="4.5" fill="#d97706" fill-opacity="0.9"/>
<circle cx="347.14" cy="100.33" r="4.5" fill="#d97706" fill-opacity="0.9"/>
<circle cx="364.29" cy="100.02" r="4.5" fill="#d97706" fill-opacity="0.9"/>
<circle cx="381.43" cy="99.22" r="4.5" fill="#d97706" fill-opacity="0.9"/>
<circle cx="398.57" cy="100.16" r="4.5" fill="#d97706" fill-opacity="0.9"/>
<circle cx="415.71" cy="99.95" r="4.5" fill="#d97706" fill-opacity="0.9"/>
<circle cx="432.86" cy="99.48" r="4.5" fill="#d97706" fill-opacity="0.9"/>
<circle cx="450.00" cy="99.31" r="4.5" fill="#d97706" fill-opacity="0.9"/>
<circle cx="467.14" cy="112.49" r="4.5" fill="#d97706" fill-opacity="0.9"/>
<circle cx="484.29" cy="96.42" r="4.5" fill="#d97706" fill-opacity="0.9"/>
<circle cx="501.43" cy="94.97" r="4.5" fill="#d97706" fill-opacity="0.9"/>
<circle cx="518.57" cy="99.79" r="4.5" fill="#d97706" fill-opacity="0.9"/>
<circle cx="535.71" cy="147.11" r="4.5" fill="#d97706" fill-opacity="0.9"/>
<circle cx="552.86" cy="99.81" r="4.5" fill="#d97706" fill-opacity="0.9"/>
<circle cx="570.00" cy="99.43" r="4.5" fill="#d97706" fill-opacity="0.9"/>
<circle cx="587.14" cy="99.71" r="4.5" fill="#d97706" fill-opacity="0.9"/>
<circle cx="604.29" cy="99.12" r="4.5" fill="#d97706" fill-opacity="0.9"/>
<circle cx="621.43" cy="97.72" r="4.5" fill="#d97706" fill-opacity="0.9"/>
<circle cx="638.57" cy="95.78" r="4.5" fill="#d97706" fill-opacity="0.9"/>
<circle cx="655.71" cy="95.14" r="4.5" fill="#d97706" fill-opacity="0.9"/>
<circle cx="672.86" cy="94.17" r="4.5" fill="#d97706" fill-opacity="0.9"/>
<circle cx="690.00" cy="98.29" r="4.5" fill="#d97706" fill-opacity="0.9"/>
<circle cx="707.14" cy="96.87" r="4.5" fill="#d97706" fill-opacity="0.9"/>
<circle cx="724.29" cy="100.45" r="4.5" fill="#d97706" fill-opacity="0.9"/>
<circle cx="741.43" cy="95.54" r="4.5" fill="#d97706" fill-opacity="0.9"/>
<circle cx="758.57" cy="94.52" r="4.5" fill="#d97706" fill-opacity="0.9"/>
<circle cx="775.71" cy="94.83" r="4.5" fill="#d97706" fill-opacity="0.9"/>
<circle cx="792.86" cy="96.09" r="4.5" fill="#d97706" fill-opacity="0.9"/>
<circle cx="810.00" cy="96.23" r="4.5" fill="#d97706" fill-opacity="0.9"/>
<circle cx="827.14" cy="96.82" r="4.5" fill="#d97706" fill-opacity="0.9"/>
<circle cx="844.29" cy="97.89" r="4.5" fill="#d97706" fill-opacity="0.9"/>
<circle cx="861.43" cy="96.28" r="4.5" fill="#d97706" fill-opacity="0.9"/>
<circle cx="878.57" cy="96.11" r="4.5" fill="#d97706" fill-opacity="0.9"/>
<circle cx="895.71" cy="94.29" r="4.5" fill="#d97706" fill-opacity="0.9"/>
<circle cx="912.86" cy="96.99" r="4.5" fill="#d97706" fill-opacity="0.9"/>
<circle cx="930.00" cy="94.17" r="4.5" fill="#d97706" fill-opacity="0.9"/>
<rect x="90" y="32" width="18" height="6" fill="#d97706"/>
<text x="114" y="38" font-size="13" fill="#333333">val</text>
<polyline fill="none" stroke="#059669" stroke-width="3" points="90.00,435.07 107.14,435.67 124.29,107.54 141.43,100.92 158.57,101.26 175.71,102.37 192.86,100.97 210.00,101.04 227.14,100.83 244.29,100.78 261.43,112.75 278.57,100.64 295.71,100.78 312.86,100.52 330.00,100.57 347.14,100.85 364.29,100.73 381.43,99.71 398.57,100.69 415.71,100.69 432.86,100.09 450.00,100.12 467.14,112.78 484.29,96.96 501.43,94.85 518.57,100.31 535.71,147.94 552.86,100.45 570.00,99.86 587.14,100.40 604.29,99.74 621.43,97.82 638.57,96.25 655.71,95.07 672.86,95.16 690.00,98.88 707.14,96.96 724.29,100.73 741.43,96.09 758.57,95.64 775.71,95.33 792.86,96.28 810.00,96.16 827.14,97.44 844.29,97.60 861.43,96.28 878.57,95.87 895.71,94.78 912.86,97.32 930.00,94.38"/>
<circle cx="90.00" cy="435.07" r="4.5" fill="#059669" fill-opacity="0.9"/>
<circle cx="107.14" cy="435.67" r="4.5" fill="#059669" fill-opacity="0.9"/>
<circle cx="124.29" cy="107.54" r="4.5" fill="#059669" fill-opacity="0.9"/>
<circle cx="141.43" cy="100.92" r="4.5" fill="#059669" fill-opacity="0.9"/>
<circle cx="158.57" cy="101.26" r="4.5" fill="#059669" fill-opacity="0.9"/>
<circle cx="175.71" cy="102.37" r="4.5" fill="#059669" fill-opacity="0.9"/>
<circle cx="192.86" cy="100.97" r="4.5" fill="#059669" fill-opacity="0.9"/>
<circle cx="210.00" cy="101.04" r="4.5" fill="#059669" fill-opacity="0.9"/>
<circle cx="227.14" cy="100.83" r="4.5" fill="#059669" fill-opacity="0.9"/>
<circle cx="244.29" cy="100.78" r="4.5" fill="#059669" fill-opacity="0.9"/>
<circle cx="261.43" cy="112.75" r="4.5" fill="#059669" fill-opacity="0.9"/>
<circle cx="278.57" cy="100.64" r="4.5" fill="#059669" fill-opacity="0.9"/>
<circle cx="295.71" cy="100.78" r="4.5" fill="#059669" fill-opacity="0.9"/>
<circle cx="312.86" cy="100.52" r="4.5" fill="#059669" fill-opacity="0.9"/>
<circle cx="330.00" cy="100.57" r="4.5" fill="#059669" fill-opacity="0.9"/>
<circle cx="347.14" cy="100.85" r="4.5" fill="#059669" fill-opacity="0.9"/>
<circle cx="364.29" cy="100.73" r="4.5" fill="#059669" fill-opacity="0.9"/>
<circle cx="381.43" cy="99.71" r="4.5" fill="#059669" fill-opacity="0.9"/>
<circle cx="398.57" cy="100.69" r="4.5" fill="#059669" fill-opacity="0.9"/>
<circle cx="415.71" cy="100.69" r="4.5" fill="#059669" fill-opacity="0.9"/>
<circle cx="432.86" cy="100.09" r="4.5" fill="#059669" fill-opacity="0.9"/>
<circle cx="450.00" cy="100.12" r="4.5" fill="#059669" fill-opacity="0.9"/>
<circle cx="467.14" cy="112.78" r="4.5" fill="#059669" fill-opacity="0.9"/>
<circle cx="484.29" cy="96.96" r="4.5" fill="#059669" fill-opacity="0.9"/>
<circle cx="501.43" cy="94.85" r="4.5" fill="#059669" fill-opacity="0.9"/>
<circle cx="518.57" cy="100.31" r="4.5" fill="#059669" fill-opacity="0.9"/>
<circle cx="535.71" cy="147.94" r="4.5" fill="#059669" fill-opacity="0.9"/>
<circle cx="552.86" cy="100.45" r="4.5" fill="#059669" fill-opacity="0.9"/>
<circle cx="570.00" cy="99.86" r="4.5" fill="#059669" fill-opacity="0.9"/>
<circle cx="587.14" cy="100.40" r="4.5" fill="#059669" fill-opacity="0.9"/>
<circle cx="604.29" cy="99.74" r="4.5" fill="#059669" fill-opacity="0.9"/>
<circle cx="621.43" cy="97.82" r="4.5" fill="#059669" fill-opacity="0.9"/>
<circle cx="638.57" cy="96.25" r="4.5" fill="#059669" fill-opacity="0.9"/>
<circle cx="655.71" cy="95.07" r="4.5" fill="#059669" fill-opacity="0.9"/>
<circle cx="672.86" cy="95.16" r="4.5" fill="#059669" fill-opacity="0.9"/>
<circle cx="690.00" cy="98.88" r="4.5" fill="#059669" fill-opacity="0.9"/>
<circle cx="707.14" cy="96.96" r="4.5" fill="#059669" fill-opacity="0.9"/>
<circle cx="724.29" cy="100.73" r="4.5" fill="#059669" fill-opacity="0.9"/>
<circle cx="741.43" cy="96.09" r="4.5" fill="#059669" fill-opacity="0.9"/>
<circle cx="758.57" cy="95.64" r="4.5" fill="#059669" fill-opacity="0.9"/>
<circle cx="775.71" cy="95.33" r="4.5" fill="#059669" fill-opacity="0.9"/>
<circle cx="792.86" cy="96.28" r="4.5" fill="#059669" fill-opacity="0.9"/>
<circle cx="810.00" cy="96.16" r="4.5" fill="#059669" fill-opacity="0.9"/>
<circle cx="827.14" cy="97.44" r="4.5" fill="#059669" fill-opacity="0.9"/>
<circle cx="844.29" cy="97.60" r="4.5" fill="#059669" fill-opacity="0.9"/>
<circle cx="861.43" cy="96.28" r="4.5" fill="#059669" fill-opacity="0.9"/>
<circle cx="878.57" cy="95.87" r="4.5" fill="#059669" fill-opacity="0.9"/>
<circle cx="895.71" cy="94.78" r="4.5" fill="#059669" fill-opacity="0.9"/>
<circle cx="912.86" cy="97.32" r="4.5" fill="#059669" fill-opacity="0.9"/>
<circle cx="930.00" cy="94.38" r="4.5" fill="#059669" fill-opacity="0.9"/>
<rect x="270" y="32" width="18" height="6" fill="#059669"/>
<text x="294" y="38" font-size="13" fill="#333333">test</text>
</svg>