<svg xmlns="http://www.w3.org/2000/svg" width="960" height="540">
<rect width="100%" height="100%" fill="#ffffff"/>
<text x="480.0" y="30" font-size="22" text-anchor="middle" fill="#111111">Position 2 Accuracy</text>
<text x="20" y="270.0" font-size="16" transform="rotate(-90 20,270.0)" text-anchor="middle" fill="#333333">Accuracy</text>
<text x="480.0" y="520" font-size="16" text-anchor="middle" fill="#333333">Epoch</text>
<line x1="90" y1="60" x2="90" y2="470" stroke="#333333" stroke-width="2"/>
<line x1="90" y1="470" x2="930" y2="470" stroke="#333333" stroke-width="2"/>
<line x1="90" y1="470.00" x2="930" y2="470.00" stroke="#e5e7eb" stroke-width="1"/>
<text x="80" y="475.00" font-size="12" text-anchor="end" fill="#555555">-0.0707</text>
<line x1="90" y1="367.50" x2="930" y2="367.50" stroke="#e5e7eb" stroke-width="1"/>
<text x="80" y="372.50" font-size="12" text-anchor="end" fill="#555555">0.2172</text>
<line x1="90" y1="265.00" x2="930" y2="265.00" stroke="#e5e7eb" stroke-width="1"/>
<text x="80" y="270.00" font-size="12" text-anchor="end" fill="#555555">0.5050</text>
<line x1="90" y1="162.50" x2="930" y2="162.50" stroke="#e5e7eb" stroke-width="1"/>
<text x="80" y="167.50" font-size="12" text-anchor="end" fill="#555555">0.7929</text>
<line x1="90" y1="60.00" x2="930" y2="60.00" stroke="#e5e7eb" stroke-width="1"/>
<text x="80" y="65.00" font-size="12" text-anchor="end" fill="#555555">1.0808</text>
<line x1="90.00" y1="60" x2="90.00" y2="470" stroke="#f3f4f6" stroke-width="1"/>
<text x="90.00" y="492" font-size="12" text-anchor="middle" fill="#555555">1</text>
<line x1="107.14" y1="60" x2="107.14" y2="470" stroke="#f3f4f6" stroke-width="1"/>
<text x="107.14" y="492" font-size="12" text-anchor="middle" fill="#555555">2</text>
<line x1="124.29" y1="60" x2="124.29" y2="470" stroke="#f3f4f6" stroke-width="1"/>
<text x="124.29" y="492" font-size="12" text-anchor="middle" fill="#555555">3</text>
<line x1="141.43" y1="60" x2="141.43" y2="470" stroke="#f3f4f6" stroke-width="1"/>
<text x="141.43" y="492" font-size="12" text-anchor="middle" fill="#555555">4</text>
<line x1="158.57" y1="60" x2="158.57" y2="470" stroke="#f3f4f6" stroke-width="1"/>
<text x="158.57" y="492" font-size="12" text-anchor="middle" fill="#555555">5</text>
<line x1="175.71" y1="60" x2="175.71" y2="470" stroke="#f3f4f6" stroke-width="1"/>
<text x="175.71" y="492" font-size="12" text-anchor="middle" fill="#555555">6</text>
<line x1="192.86" y1="60" x2="192.86" y2="470" stroke="#f3f4f6" stroke-width="1"/>
<text x="192.86" y="492" font-size="12" text-anchor="middle" fill="#555555">7</text>
<line x1="210.00" y1="60" x2="210.00" y2="470" stroke="#f3f4f6" stroke-width="1"/>
<text x="210.00" y="492" font-size="12" text-anchor="middle" fill="#555555">8</text>
<line x1="227.14" y1="60" x2="227.14" y2="470" stroke="#f3f4f6" stroke-width="1"/>
<text x="227.14" y="492" font-size="12" text-anchor="middle" fill="#555555">9</text>
<line x1="244.29" y1="60" x2="244.29" y2="470" stroke="#f3f4f6" stroke-width="1"/>
<text x="244.29" y="492" font-size="12" text-anchor="middle" fill="#555555">10</text>
<line x1="261.43" y1="60" x2="261.43" y2="470" stroke="#f3f4f6" stroke-width="1"/>
<text x="261.43" y="492" font-size="12" text-anchor="middle" fill="#555555">11</text>
<line x1="278.57" y1="60" x2="278.57" y2="470" stroke="#f3f4f6" stroke-width="1"/>
<text x="278.57" y="492" font-size="12" text-anchor="middle" fill="#555555">12</text>
<line x1="295.71" y1="60" x2="295.71" y2="470" stroke="#f3f4f6" stroke-width="1"/>
<text x="295.71" y="492" font-size="12" text-anchor="middle" fill="#555555">13</text>
<line x1="312.86" y1="60" x2="312.86" y2="470" stroke="#f3f4f6" stroke-width="1"/>
<text x="312.86" y="492" font-size="12" text-anchor="middle" fill="#555555">14</text>
<line x1="330.00" y1="60" x2="330.00" y2="470" stroke="#f3f4f6" stroke-width="1"/>
<text x="330.00" y="492" font-size="12" text-anchor="middle" fill="#555555">15</text>
<line x1="347.14" y1="60" x2="347.14" y2="470" stroke="#f3f4f6" stroke-width="1"/>
<text x="347.14" y="492" font-size="12" text-anchor="middle" fill="#555555">16</text>
<line x1="364.29" y1="60" x2="364.29" y2="470" stroke="#f3f4f6" stroke-width="1"/>
<text x="364.29" y="492" font-size="12" text-anchor="middle" fill="#555555">17</text>
<line x1="381.43" y1="60" x2="381.43" y2="470" stroke="#f3f4f6" stroke-width="1"/>
<text x="381.43" y="492" font-size="12" text-anchor="middle" fill="#555555">18</text>
<line x1="398.57" y1="60" x2="398.57" y2="470" stroke="#f3f4f6" stroke-width="1"/>
<text x="398.57" y="492" font-size="12" text-anchor="middle" fill="#555555">19</text>
<line x1="415.71" y1="60" x2="415.71" y2="470" stroke="#f3f4f6" stroke-width="1"/>
<text x="415.71" y="492" font-size="12" text-anchor="middle" fill="#555555">20</text>
<line x1="432.86" y1="60" x2="432.86" y2="470" stroke="#f3f4f6" stroke-width="1"/>
<text x="432.86" y="492" font-size="12" text-anchor="middle" fill="#555555">21</text>
<line x1="450.00" y1="60" x2="450.00" y2="470" stroke="#f3f4f6" stroke-width="1"/>
<text x="450.00" y="492" font-size="12" text-anchor="middle" fill="#555555">22</text>
<line x1="467.14" y1="60" x2="467.14" y2="470" stroke="#f3f4f6" stroke-width="1"/>
<text x="467.14" y="492" font-size="12" text-anchor="middle" fill="#555555">23</text>
<line x1="484.29" y1="60" x2="484.29" y2="470" stroke="#f3f4f6" stroke-width="1"/>
<text x="484.29" y="492" font-size="12" text-anchor="middle" fill="#555555">24</text>
<line x1="501.43" y1="60" x2="501.43" y2="470" stroke="#f3f4f6" stroke-width="1"/>
<text x="501.43" y="492" font-size="12" text-anchor="middle" fill="#555555">25</text>
<line x1="518.57" y1="60" x2="518.57" y2="470" stroke="#f3f4f6" stroke-width="1"/>
<text x="518.57" y="492" font-size="12" text-anchor="middle" fill="#555555">26</text>
<line x1="535.71" y1="60" x2="535.71" y2="470" stroke="#f3f4f6" stroke-width="1"/>
<text x="535.71" y="492" font-size="12" text-anchor="middle" fill="#555555">27</text>
<line x1="552.86" y1="60" x2="552.86" y2="470" stroke="#f3f4f6" stroke-width="1"/>
<text x="552.86" y="492" font-size="12" text-anchor="middle" fill="#555555">28</text>
<line x1="570.00" y1="60" x2="570.00" y2="470" stroke="#f3f4f6" stroke-width="1"/>
<text x="570.00" y="492" font-size="12" text-anchor="middle" fill="#555555">29</text>
<line x1="587.14" y1="60" x2="587.14" y2="470" stroke="#f3f4f6" stroke-width="1"/>
<text x="587.14" y="492" font-size="12" text-anchor="middle" fill="#555555">30</text>
<line x1="604.29" y1="60" x2="604.29" y2="470" stroke="#f3f4f6" stroke-width="1"/>
<text x="604.29" y="492" font-size="12" text-anchor="middle" fill="#555555">31</text>
<line x1="621.43" y1="60" x2="621.43" y2="470" stroke="#f3f4f6" stroke-width="1"/>
<text x="621.43" y="492" font-size="12" text-anchor="middle" fill="#555555">32</text>
<line x1="638.57" y1="60" x2="638.57" y2="470" stroke="#f3f4f6" stroke-width="1"/>
<text x="638.57" y="492" font-size="12" text-anchor="middle" fill="#555555">33</text>
<line x1="655.71" y1="60" x2="655.71" y2="470" stroke="#f3f4f6" stroke-width="1"/>
<text x="655.71" y="492" font-size="12" text-anchor="middle" fill="#555555">34</text>
<line x1="672.86" y1="60" x2="672.86" y2="470" stroke="#f3f4f6" stroke-width="1"/>
<text x="672.86" y="492" font-size="12" text-anchor="middle" fill="#555555">35</text>
<line x1="690.00" y1="60" x2="690.00" y2="470" stroke="#f3f4f6" stroke-width="1"/>
<text x="690.00" y="492" font-size="12" text-anchor="middle" fill="#555555">36</text>
<line x1="707.14" y1="60" x2="707.14" y2="470" stroke="#f3f4f6" stroke-width="1"/>
<text x="707.14" y="492" font-size="12" text-anchor="middle" fill="#555555">37</text>
<line x1="724.29" y1="60" x2="724.29" y2="470" stroke="#f3f4f6" stroke-width="1"/>
<text x="724.29" y="492" font-size="12" text-anchor="middle" fill="#555555">38</text>
<line x1="741.43" y1="60" x2="741.43" y2="470" stroke="#f3f4f6" stroke-width="1"/>
<text x="741.43" y="492" font-size="12" text-anchor="middle" fill="#555555">39</text>
<line x1="758.57" y1="60" x2="758.57" y2="470" stroke="#f3f4f6" stroke-width="1"/>
<text x="758.57" y="492" font-size="12" text-anchor="middle" fill="#555555">40</text>
<line x1="775.71" y1="60" x2="775.71" y2="470" stroke="#f3f4f6" stroke-width="1"/>
<text x="775.71" y="492" font-size="12" text-anchor="middle" fill="#555555">41</text>
<line x1="792.86" y1="60" x2="792.86" y2="470" stroke="#f3f4f6" stroke-width="1"/>
<text x="792.86" y="492" font-size="12" text-anchor="middle" fill="#555555">42</text>
<line x1="810.00" y1="60" x2="810.00" y2="470" stroke="#f3f4f6" stroke-width="1"/>
<text x="810.00" y="492" font-size="12" text-anchor="middle" fill="#555555">43</text>
<line x1="827.14" y1="60" x2="827.14" y2="470" stroke="#f3f4f6" stroke-width="1"/>
<text x="827.14" y="492" font-size="12" text-anchor="middle" fill="#555555">44</text>
<line x1="844.29" y1="60" x2="844.29" y2="470" stroke="#f3f4f6" stroke-width="1"/>
<text x="844.29" y="492" font-size="12" text-anchor="middle" fill="#555555">45</text>
<line x1="861.43" y1="60" x2="861.43" y2="470" stroke="#f3f4f6" stroke-width="1"/>
<text x="861.43" y="492" font-size="12" text-anchor="middle" fill="#555555">46</text>
<line x1="878.57" y1="60" x2="878.57" y2="470" stroke="#f3f4f6" stroke-width="1"/>
<text x="878.57" y="492" font-size="12" text-anchor="middle" fill="#555555">47</text>
<line x1="895.71" y1="60" x2="895.71" y2="470" stroke="#f3f4f6" stroke-width="1"/>
<text x="895.71" y="492" font-size="12" text-anchor="middle" fill="#555555">48</text>
<line x1="912.86" y1="60" x2="912.86" y2="470" stroke="#f3f4f6" stroke-width="1"/>
<text x="912.86" y="492" font-size="12" text-anchor="middle" fill="#555555">49</text>
<line x1="930.00" y1="60" x2="930.00" y2="470" stroke="#f3f4f6" stroke-width="1"/>
<text x="930.00" y="492" font-size="12" text-anchor="middle" fill="#555555">50</text>
<polyline fill="none" stroke="#d97706" stroke-width="3" points="90.00,435.22 107.14,434.69 124.29,110.76 141.43,102.38 158.57,101.64 175.71,105.99 192.86,100.36 210.00,101.31 227.14,100.72 244.29,100.88 261.43,114.34 278.57,100.46 295.71,100.77 312.86,100.10 330.00,100.43 347.14,100.98 364.29,101.34 381.43,98.23 398.57,100.88 415.71,100.46 432.86,100.55 450.00,100.34 467.14,110.10 484.29,97.89 501.43,97.21 518.57,100.41 535.71,110.71 552.86,100.10 570.00,99.58 587.14,100.29 604.29,99.03 621.43,99.39 638.57,95.57 655.71,94.95 672.86,94.57 690.00,98.08 707.14,96.97 724.29,99.96 741.43,95.59 758.57,95.78 775.71,94.62 792.86,97.96 810.00,96.07 827.14,98.06 844.29,96.71 861.43,96.54 878.57,97.42 895.71,94.17 912.86,96.66 930.00,95.97"/>
<circle cx="90.00" cy="435.22" r="4.5" fill="#d97706" fill-opacity="0.9"/>
<circle cx="107.14" cy="434.69" r="4.5" fill="#d97706" fill-opacity="0.9"/>
<circle cx="124.29" cy="110.76" r="4.5" fill="#d97706" fill-opacity="0.9"/>
<circle cx="141.43" cy="102.38" r="4.5" fill="#d97706" fill-opacity="0.9"/>
<circle cx="158.57" cy="101.64" r="4.5" fill="#d97706" fill-opacity="0.9"/>
<circle cx="175.71" cy="105.99" r="4.5" fill="#d97706" fill-opacity="0.9"/>
<circle cx="192.86" cy="100.36" r="4.5" fill="#d97706" fill-opacity="0.9"/>
<circle cx="210.00" cy="101.31" r="4.5" fill="#d97706" fill-opacity="0.9"/>
<circle cx="227.14" cy="100.72" r="4.5" fill="#d97706" fill-opacity="0.9"/>
<circle cx="244.29" cy="100.88" r="4.5" fill="#d97706" fill-opacity="0.9"/>
<circle cx="261.43" cy="114.34" r="4.5" fill="#d97706" fill-opacity="0.9"/>
<circle cx="278.57" cy="100.46" r="4.5" fill="#d97706" fill-opacity="0.9"/>
<circle cx="295.71" cy="100.77" r="4.5" fill="#d97706" fill-opacity="0.9"/>
<circle cx="312.86" cy="100.10" r="4.5" fill="#d97706" fill-opacity="0.9"/>
<circle cx="330.00" cy="100.43" r="4.5" fill="#d97706" fill-opacity="0.9"/>
<circle cx="347.14" cy="100.98" r="4.5" fill="#d97706" fill-opacity="0.9"/>
<circle cx="364.29" cy="101.34" r="4.5" fill="#d97706" fill-opacity="0.9"/>
<circle cx="381.43" cy="98.23" r="4.5" fill="#d97706" fill-opacity="0.9"/>
<circle cx="398.57" cy="100.88" r="4.5" fill="#d97706" fill-opacity="0.9"/>
<circle cx="415.71" cy="100.46" r="4.5" fill="#d97706" fill-opacity="0.9"/>
<circle cx="432.86" cy="100.55" r="4.5" fill="#d97706" fill-opacity="0.9"/>
<circle cx="450.00" cy="100.34" r="4.5" fill="#d97706" fill-opacity="0.9"/>
<circle cx="467.14" cy="110.10" r="4.5" fill="#d97706" fill-opacity="0.9"/>
<circle cx="484.29" cy="97.89" r="4.5" fill="#d97706" fill-opacity="0.9"/>
<circle cx="501.43" cy="97.21" r="4.5" fill="#d97706" fill-opacity="0.9"/>
<circle cx="518.57" cy="100.41" r="4.5" fill="#d97706" fill-opacity="0.9"/>
<circle cx="535.71" cy="110.71" r="4.5" fill="#d97706" fill-opacity="0.9"/>
<circle cx="552.86" cy="100.10" r="4.5" fill="#d97706" fill-opacity="0.9"/>
<circle cx="570.00" cy="99.58" r="4.5" fill="#d97706" fill-opacity="0.9"/>
<circle cx="587.14" cy="100.29" r="4.5" fill="#d97706" fill-opacity="0.9"/>
<circle cx="604.29" cy="99.03" r="4.5" fill="#d97706" fill-opacity="0.9"/>
<circle cx="621.43" cy="99.39" r="4.5" fill="#d97706" fill-opacity="0.9"/>
<circle cx="638.57" cy="95.57" r="4.5" fill="#d97706" fill-opacity="0.9"/>
<circle cx="655.71" cy="94.95" r="4.5" fill="#d97706" fill-opacity="0.9"/>
<circle cx="672.86" cy="94.57" r="4.5" fill="#d97706" fill-opacity="0.9"/>
<circle cx="690.00" cy="98.08" r="4.5" fill="#d97706" fill-opacity="0.9"/>
<circle cx="707.14" cy="96.97" r="4.5" fill="#d97706" fill-opacity="0.9"/>
<circle cx="724.29" cy="99.96" r="4.5" fill="#d97706" fill-opacity="0.9"/>
<circle cx="741.43" cy="95.59" r="4.5" fill="#d97706" fill-opacity="0.9"/>
<circle cx="758.57" cy="95.78" r="4.5" fill="#d97706" fill-opacity="0.9"/>
<circle cx="775.71" cy="94.62" r="4.5" fill="#d97706" fill-opacity="0.9"/>
<circle cx="792.86" cy="97.96" r="4.5" fill="#d97706" fill-opacity="0.9"/>
<circle cx="810.00" cy="96.07" r="4.5" fill="#d97706" fill-opacity="0.9"/>
<circle cx="827.14" cy="98.06" r="4.5" fill="#d97706" fill-opacity="0.9"/>
<circle cx="844.29" cy="96.71" r="4.5" fill="#d97706" fill-opacity="0.9"/>
<circle cx="861.43" cy="96.54" r="4.5" fill="#d97706" fill-opacity="0.9"/>
<circle cx="878.57" cy="97.42" r="4.5" fill="#d97706" fill-opacity="0.9"/>
<circle cx="895.71" cy="94.17" r="4.5" fill="#d97706" fill-opacity="0.9"/>
<circle cx="912.86" cy="96.66" r="4.5" fill="#d97706" fill-opacity="0.9"/>
<circle cx="930.00" cy="95.97" r="4.5" fill="#d97706" fill-opacity="0.9"/>
<rect x="90" y="32" width="18" height="6" fill="#d97706"/>
<text x="114" y="38" font-size="13" fill="#333333">val</text>
<polyline fill="none" stroke="#059669" stroke-width="3" points="90.00,435.07 107.14,435.83 124.29,111.47 141.43,103.59 158.57,102.81 175.71,107.27 192.86,100.93 210.00,102.64 227.14,101.53 244.29,101.60 261.43,114.77 278.57,101.50 295.71,101.81 312.86,101.17 330.00,101.07 347.14,101.74 364.29,101.83 381.43,98.53 398.57,101.83 415.71,100.98 432.86,100.88 450.00,101.34 467.14,111.09 484.29,98.13 501.43,98.23 518.57,100.50 535.71,111.57 552.86,100.74 570.00,100.24 587.14,101.15 604.29,100.10 621.43,100.36 638.57,96.30 655.71,95.33 672.86,95.42 690.00,99.08 707.14,97.68 724.29,100.72 741.43,96.75 758.57,96.59 775.71,95.42 792.86,99.32 810.00,95.88 827.14,99.08 844.29,97.94 861.43,97.56 878.57,98.87 895.71,94.57 912.86,97.56 930.00,96.85"/>
<circle cx="90.00" cy="435.07" r="4.5" fill="#059669" fill-opacity="0.9"/>
<circle cx="107.14" cy="435.83" r="4.5" fill="#059669" fill-opacity="0.9"/>
<circle cx="124.29" cy="111.47" r="4.5" fill="#059669" fill-opacity="0.9"/>
<circle cx="141.43" cy="103.59" r="4.5" fill="#059669" fill-opacity="0.9"/>
<circle cx="158.57" cy="102.81" r="4.5" fill="#059669" fill-opacity="0.9"/>
<circle cx="175.71" cy="107.27" r="4.5" fill="#059669" fill-opacity="0.9"/>
<circle cx="192.86" cy="100.93" r="4.5" fill="#059669" fill-opacity="0.9"/>
<circle cx="210.00" cy="102.64" r="4.5" fill="#059669" fill-opacity="0.9"/>
<circle cx="227.14" cy="101.53" r="4.5" fill="#059669" fill-opacity="0.9"/>
<circle cx="244.29" cy="101.60" r="4.5" fill="#059669" fill-opacity="0.9"/>
<circle cx="261.43" cy="114.77" r="4.5" fill="#059669" fill-opacity="0.9"/>
<circle cx="278.57" cy="101.50" r="4.5" fill="#059669" fill-opacity="0.9"/>
<circle cx="295.71" cy="101.81" r="4.5" fill="#059669" fill-opacity="0.9"/>
<circle cx="312.86" cy="101.17" r="4.5" fill="#059669" fill-opacity="0.9"/>
<circle cx="330.00" cy="101.07" r="4.5" fill="#059669" fill-opacity="0.9"/>
<circle cx="347.14" cy="101.74" r="4.5" fill="#059669" fill-opacity="0.9"/>
<circle cx="364.29" cy="101.83" r="4.5" fill="#059669" fill-opacity="0.9"/>
<circle cx="381.43" cy="98.53" r="4.5" fill="#059669" fill-opacity="0.9"/>
<circle cx="398.57" cy="101.83" r="4.5" fill="#059669" fill-opacity="0.9"/>
<circle cx="415.71" cy="100.98" r="4.5" fill="#059669" fill-opacity="0.9"/>
<circle cx="432.86" cy="100.88" r="4.5" fill="#059669" fill-opacity="0.9"/>
<circle cx="450.00" cy="101.34" r="4.5" fill="#059669" fill-opacity="0.9"/>
<circle cx="467.14" cy="111.09" r="4.5" fill="#059669" fill-opacity="0.9"/>
<circle cx="484.29" cy="98.13" r="4.5" fill="#059669" fill-opacity="0.9"/>
<circle cx="501.43" cy="98.23" r="4.5" fill="#059669" fill-opacity="0.9"/>
<circle cx="518.57" cy="100.50" r="4.5" fill="#059669" fill-opacity="0.9"/>
<circle cx="535.71" cy="111.57" r="4.5" fill="#059669" fill-opacity="0.9"/>
<circle cx="552.86" cy="100.74" r="4.5" fill="#059669" fill-opacity="0.9"/>
<circle cx="570.00" cy="100.24" r="4.5" fill="#059669" fill-opacity="0.9"/>
<circle cx="587.14" cy="101.15" r="4.5" fill="#059669" fill-opacity="0.9"/>
<circle cx="604.29" cy="100.10" r="4.5" fill="#059669" fill-opacity="0.9"/>
<circle cx="621.43" cy="100.36" r="4.5" fill="#059669" fill-opacity="0.9"/>
<circle cx="638.57" cy="96.30" r="4.5" fill="#059669" fill-opacity="0.9"/>
<circle cx="655.71" cy="95.33" r="4.5" fill="#059669" fill-opacity="0.9"/>
<circle cx="672.86" cy="95.42" r="4.5" fill="#059669" fill-opacity="0.9"/>
<circle cx="690.00" cy="99.08" r="4.5" fill="#059669" fill-opacity="0.9"/>
<circle cx="707.14" cy="97.68" r="4.5" fill="#059669" fill-opacity="0.9"/>
<circle cx="724.29" cy="100.72" r="4.5" fill="#059669" fill-opacity="0.9"/>
<circle cx="741.43" cy="96.75" r="4.5" fill="#059669" fill-opacity="0.9"/>
<circle cx="758.57" cy="96.59" r="4.5" fill="#059669" fill-opacity="0.9"/>
<circle cx="775.71" cy="95.42" r="4.5" fill="#059669" fill-opacity="0.9"/>
<circle cx="792.86" cy="99.32" r="4.5" fill="#059669" fill-opacity="0.9"/>
<circle cx="810.00" cy="95.88" r="4.5" fill="#059669" fill-opacity="0.9"/>
<circle cx="827.14" cy="99.08" r="4.5" fill="#059669" fill-opacity="0.9"/>
<circle cx="844.29" cy="97.94" r="4.5" fill="#059669" fill-opacity="0.9"/>
<circle cx="861.43" cy="97.56" r="4.5" fill="#059669" fill-opacity="0.9"/>
<circle cx="878.57" cy="98.87" r="4.5" fill="#059669" fill-opacity="0.9"/>
<circle cx="895.71" cy="94.57" r="4.5" fill="#059669" fill-opacity="0.9"/>
<circle cx="912.86" cy="97.56" r="4.5" fill="#059669" fill-opacity="0.9"/>
<circle cx="930.00" cy="96.85" r="4.5" fill="#059669" fill-opacity="0.9"/>
<rect x="270" y="32" width="18" height="6" fill="#059669"/>
<text x="294" y="38" font-size="13" fill="#333333">test</text>
</svg>