<svg xmlns="http://www.w3.org/2000/svg" width="960" height="540">
<rect width="100%" height="100%" fill="#ffffff"/>
<text x="480.0" y="30" font-size="22" text-anchor="middle" fill="#111111">Pseudo Label Count</text>
<text x="20" y="270.0" font-size="16" transform="rotate(-90 20,270.0)" text-anchor="middle" fill="#333333">Count</text>
<text x="480.0" y="520" font-size="16" text-anchor="middle" fill="#333333">Epoch</text>
<line x1="90" y1="60" x2="90" y2="470" stroke="#333333" stroke-width="2"/>
<line x1="90" y1="470" x2="930" y2="470" stroke="#333333" stroke-width="2"/>
<line x1="90" y1="470.00" x2="930" y2="470.00" stroke="#e5e7eb" stroke-width="1"/>
<text x="80" y="475.00" font-size="12" text-anchor="end" fill="#555555">12721.8000</text>
<line x1="90" y1="367.50" x2="930" y2="367.50" stroke="#e5e7eb" stroke-width="1"/>
<text x="80" y="372.50" font-size="12" text-anchor="end" fill="#555555">14798.4000</text>
<line x1="90" y1="265.00" x2="930" y2="265.00" stroke="#e5e7eb" stroke-width="1"/>
<text x="80" y="270.00" font-size="12" text-anchor="end" fill="#555555">16875.0000</text>
<line x1="90" y1="162.50" x2="930" y2="162.50" stroke="#e5e7eb" stroke-width="1"/>
<text x="80" y="167.50" font-size="12" text-anchor="end" fill="#555555">18951.6000</text>
<line x1="90" y1="60.00" x2="930" y2="60.00" stroke="#e5e7eb" stroke-width="1"/>
<text x="80" y="65.00" font-size="12" text-anchor="end" fill="#555555">21028.2000</text>
<line x1="90.00" y1="60" x2="90.00" y2="470" stroke="#f3f4f6" stroke-width="1"/>
<text x="90.00" y="492" font-size="12" text-anchor="middle" fill="#555555">1</text>
<line x1="107.14" y1="60" x2="107.14" y2="470" stroke="#f3f4f6" stroke-width="1"/>
<text x="107.14" y="492" font-size="12" text-anchor="middle" fill="#555555">2</text>
<line x1="124.29" y1="60" x2="124.29" y2="470" stroke="#f3f4f6" stroke-width="1"/>
<text x="124.29" y="492" font-size="12" text-anchor="middle" fill="#555555">3</text>
<line x1="141.43" y1="60" x2="141.43" y2="470" stroke="#f3f4f6" stroke-width="1"/>
<text x="141.43" y="492" font-size="12" text-anchor="middle" fill="#555555">4</text>
<line x1="158.57" y1="60" x2="158.57" y2="470" stroke="#f3f4f6" stroke-width="1"/>
<text x="158.57" y="492" font-size="12" text-anchor="middle" fill="#555555">5</text>
<line x1="175.71" y1="60" x2="175.71" y2="470" stroke="#f3f4f6" stroke-width="1"/>
<text x="175.71" y="492" font-size="12" text-anchor="middle" fill="#555555">6</text>
<line x1="192.86" y1="60" x2="192.86" y2="470" stroke="#f3f4f6" stroke-width="1"/>
<text x="192.86" y="492" font-size="12" text-anchor="middle" fill="#555555">7</text>
<line x1="210.00" y1="60" x2="210.00" y2="470" stroke="#f3f4f6" stroke-width="1"/>
<text x="210.00" y="492" font-size="12" text-anchor="middle" fill="#555555">8</text>
<line x1="227.14" y1="60" x2="227.14" y2="470" stroke="#f3f4f6" stroke-width="1"/>
<text x="227.14" y="492" font-size="12" text-anchor="middle" fill="#555555">9</text>
<line x1="244.29" y1="60" x2="244.29" y2="470" stroke="#f3f4f6" stroke-width="1"/>
<text x="244.29" y="492" font-size="12" text-anchor="middle" fill="#555555">10</text>
<line x1="261.43" y1="60" x2="261.43" y2="470" stroke="#f3f4f6" stroke-width="1"/>
<text x="261.43" y="492" font-size="12" text-anchor="middle" fill="#555555">11</text>
<line x1="278.57" y1="60" x2="278.57" y2="470" stroke="#f3f4f6" stroke-width="1"/>
<text x="278.57" y="492" font-size="12" text-anchor="middle" fill="#555555">12</text>
<line x1="295.71" y1="60" x2="295.71" y2="470" stroke="#f3f4f6" stroke-width="1"/>
<text x="295.71" y="492" font-size="12" text-anchor="middle" fill="#555555">13</text>
<line x1="312.86" y1="60" x2="312.86" y2="470" stroke="#f3f4f6" stroke-width="1"/>
<text x="312.86" y="492" font-size="12" text-anchor="middle" fill="#555555">14</text>
<line x1="330.00" y1="60" x2="330.00" y2="470" stroke="#f3f4f6" stroke-width="1"/>
<text x="330.00" y="492" font-size="12" text-anchor="middle" fill="#555555">15</text>
<line x1="347.14" y1="60" x2="347.14" y2="470" stroke="#f3f4f6" stroke-width="1"/>
<text x="347.14" y="492" font-size="12" text-anchor="middle" fill="#555555">16</text>
<line x1="364.29" y1="60" x2="364.29" y2="470" stroke="#f3f4f6" stroke-width="1"/>
<text x="364.29" y="492" font-size="12" text-anchor="middle" fill="#555555">17</text>
<line x1="381.43" y1="60" x2="381.43" y2="470" stroke="#f3f4f6" stroke-width="1"/>
<text x="381.43" y="492" font-size="12" text-anchor="middle" fill="#555555">18</text>
<line x1="398.57" y1="60" x2="398.57" y2="470" stroke="#f3f4f6" stroke-width="1"/>
<text x="398.57" y="492" font-size="12" text-anchor="middle" fill="#555555">19</text>
<line x1="415.71" y1="60" x2="415.71" y2="470" stroke="#f3f4f6" stroke-width="1"/>
<text x="415.71" y="492" font-size="12" text-anchor="middle" fill="#555555">20</text>
<line x1="432.86" y1="60" x2="432.86" y2="470" stroke="#f3f4f6" stroke-width="1"/>
<text x="432.86" y="492" font-size="12" text-anchor="middle" fill="#555555">21</text>
<line x1="450.00" y1="60" x2="450.00" y2="470" stroke="#f3f4f6" stroke-width="1"/>
<text x="450.00" y="492" font-size="12" text-anchor="middle" fill="#555555">22</text>
<line x1="467.14" y1="60" x2="467.14" y2="470" stroke="#f3f4f6" stroke-width="1"/>
<text x="467.14" y="492" font-size="12" text-anchor="middle" fill="#555555">23</text>
<line x1="484.29" y1="60" x2="484.29" y2="470" stroke="#f3f4f6" stroke-width="1"/>
<text x="484.29" y="492" font-size="12" text-anchor="middle" fill="#555555">24</text>
<line x1="501.43" y1="60" x2="501.43" y2="470" stroke="#f3f4f6" stroke-width="1"/>
<text x="501.43" y="492" font-size="12" text-anchor="middle" fill="#555555">25</text>
<line x1="518.57" y1="60" x2="518.57" y2="470" stroke="#f3f4f6" stroke-width="1"/>
<text x="518.57" y="492" font-size="12" text-anchor="middle" fill="#555555">26</text>
<line x1="535.71" y1="60" x2="535.71" y2="470" stroke="#f3f4f6" stroke-width="1"/>
<text x="535.71" y="492" font-size="12" text-anchor="middle" fill="#555555">27</text>
<line x1="552.86" y1="60" x2="552.86" y2="470" stroke="#f3f4f6" stroke-width="1"/>
<text x="552.86" y="492" font-size="12" text-anchor="middle" fill="#555555">28</text>
<line x1="570.00" y1="60" x2="570.00" y2="470" stroke="#f3f4f6" stroke-width="1"/>
<text x="570.00" y="492" font-size="12" text-anchor="middle" fill="#555555">29</text>
<line x1="587.14" y1="60" x2="587.14" y2="470" stroke="#f3f4f6" stroke-width="1"/>
<text x="587.14" y="492" font-size="12" text-anchor="middle" fill="#555555">30</text>
<line x1="604.29" y1="60" x2="604.29" y2="470" stroke="#f3f4f6" stroke-width="1"/>
<text x="604.29" y="492" font-size="12" text-anchor="middle" fill="#555555">31</text>
<line x1="621.43" y1="60" x2="621.43" y2="470" stroke="#f3f4f6" stroke-width="1"/>
<text x="621.43" y="492" font-size="12" text-anchor="middle" fill="#555555">32</text>
<line x1="638.57" y1="60" x2="638.57" y2="470" stroke="#f3f4f6" stroke-width="1"/>
<text x="638.57" y="492" font-size="12" text-anchor="middle" fill="#555555">33</text>
<line x1="655.71" y1="60" x2="655.71" y2="470" stroke="#f3f4f6" stroke-width="1"/>
<text x="655.71" y="492" font-size="12" text-anchor="middle" fill="#555555">34</text>
<line x1="672.86" y1="60" x2="672.86" y2="470" stroke="#f3f4f6" stroke-width="1"/>
<text x="672.86" y="492" font-size="12" text-anchor="middle" fill="#555555">35</text>
<line x1="690.00" y1="60" x2="690.00" y2="470" stroke="#f3f4f6" stroke-width="1"/>
<text x="690.00" y="492" font-size="12" text-anchor="middle" fill="#555555">36</text>
<line x1="707.14" y1="60" x2="707.14" y2="470" stroke="#f3f4f6" stroke-width="1"/>
<text x="707.14" y="492" font-size="12" text-anchor="middle" fill="#555555">37</text>
<line x1="724.29" y1="60" x2="724.29" y2="470" stroke="#f3f4f6" stroke-width="1"/>
<text x="724.29" y="492" font-size="12" text-anchor="middle" fill="#555555">38</text>
<line x1="741.43" y1="60" x2="741.43" y2="470" stroke="#f3f4f6" stroke-width="1"/>
<text x="741.43" y="492" font-size="12" text-anchor="middle" fill="#555555">39</text>
<line x1="758.57" y1="60" x2="758.57" y2="470" stroke="#f3f4f6" stroke-width="1"/>
<text x="758.57" y="492" font-size="12" text-anchor="middle" fill="#555555">40</text>
<line x1="775.71" y1="60" x2="775.71" y2="470" stroke="#f3f4f6" stroke-width="1"/>
<text x="775.71" y="492" font-size="12" text-anchor="middle" fill="#555555">41</text>
<line x1="792.86" y1="60" x2="792.86" y2="470" stroke="#f3f4f6" stroke-width="1"/>
<text x="792.86" y="492" font-size="12" text-anchor="middle" fill="#555555">42</text>
<line x1="810.00" y1="60" x2="810.00" y2="470" stroke="#f3f4f6" stroke-width="1"/>
<text x="810.00" y="492" font-size="12" text-anchor="middle" fill="#555555">43</text>
<line x1="827.14" y1="60" x2="827.14" y2="470" stroke="#f3f4f6" stroke-width="1"/>
<text x="827.14" y="492" font-size="12" text-anchor="middle" fill="#555555">44</text>
<line x1="844.29" y1="60" x2="844.29" y2="470" stroke="#f3f4f6" stroke-width="1"/>
<text x="844.29" y="492" font-size="12" text-anchor="middle" fill="#555555">45</text>
<line x1="861.43" y1="60" x2="861.43" y2="470" stroke="#f3f4f6" stroke-width="1"/>
<text x="861.43" y="492" font-size="12" text-anchor="middle" fill="#555555">46</text>
<line x1="878.57" y1="60" x2="878.57" y2="470" stroke="#f3f4f6" stroke-width="1"/>
<text x="878.57" y="492" font-size="12" text-anchor="middle" fill="#555555">47</text>
<line x1="895.71" y1="60" x2="895.71" y2="470" stroke="#f3f4f6" stroke-width="1"/>
<text x="895.71" y="492" font-size="12" text-anchor="middle" fill="#555555">48</text>
<line x1="912.86" y1="60" x2="912.86" y2="470" stroke="#f3f4f6" stroke-width="1"/>
<text x="912.86" y="492" font-size="12" text-anchor="middle" fill="#555555">49</text>
<line x1="930.00" y1="60" x2="930.00" y2="470" stroke="#f3f4f6" stroke-width="1"/>
<text x="930.00" y="492" font-size="12" text-anchor="middle" fill="#555555">50</text>
<polyline fill="none" stroke="#7c3aed" stroke-width="3" points="90.00,399.46 107.14,377.54 124.29,435.83 141.43,268.85 158.57,210.01 175.71,185.68 192.86,164.55 210.00,185.63 227.14,133.51 244.29,144.27 261.43,144.81 278.57,116.67 295.71,135.33 312.86,147.28 330.00,107.49 347.14,109.17 364.29,109.57 381.43,128.08 398.57,112.78 415.71,114.45 432.86,129.11 450.00,125.26 467.14,118.65 484.29,133.36 501.43,128.72 518.57,94.17 535.71,111.59 552.86,98.31 570.00,119.88 587.14,95.89 604.29,111.74 621.43,118.16 638.57,124.18 655.71,120.57 672.86,110.55 690.00,114.31 707.14,110.85 724.29,114.11 741.43,107.35 758.57,114.60 775.71,113.42 792.86,108.04 810.00,111.79 827.14,109.32 844.29,111.54 861.43,108.38 878.57,110.70 895.71,106.70 912.86,100.68 930.00,101.82"/>
<circle cx="90.00" cy="399.46" r="4.5" fill="#7c3aed" fill-opacity="0.9"/>
<circle cx="107.14" cy="377.54" r="4.5" fill="#7c3aed" fill-opacity="0.9"/>
<circle cx="124.29" cy="435.83" r="4.5" fill="#7c3aed" fill-opacity="0.9"/>
<circle cx="141.43" cy="268.85" r="4.5" fill="#7c3aed" fill-opacity="0.9"/>
<circle cx="158.57" cy="210.01" r="4.5" fill="#7c3aed" fill-opacity="0.9"/>
<circle cx="175.71" cy="185.68" r="4.5" fill="#7c3aed" fill-opacity="0.9"/>
<circle cx="192.86" cy="164.55" r="4.5" fill="#7c3aed" fill-opacity="0.9"/>
<circle cx="210.00" cy="185.63" r="4.5" fill="#7c3aed" fill-opacity="0.9"/>
<circle cx="227.14" cy="133.51" r="4.5" fill="#7c3aed" fill-opacity="0.9"/>
<circle cx="244.29" cy="144.27" r="4.5" fill="#7c3aed" fill-opacity="0.9"/>
<circle cx="261.43" cy="144.81" r="4.5" fill="#7c3aed" fill-opacity="0.9"/>
<circle cx="278.57" cy="116.67" r="4.5" fill="#7c3aed" fill-opacity="0.9"/>
<circle cx="295.71" cy="135.33" r="4.5" fill="#7c3aed" fill-opacity="0.9"/>
<circle cx="312.86" cy="147.28" r="4.5" fill="#7c3aed" fill-opacity="0.9"/>
<circle cx="330.00" cy="107.49" r="4.5" fill="#7c3aed" fill-opacity="0.9"/>
<circle cx="347.14" cy="109.17" r="4.5" fill="#7c3aed" fill-opacity="0.9"/>
<circle cx="364.29" cy="109.57" r="4.5" fill="#7c3aed" fill-opacity="0.9"/>
<circle cx="381.43" cy="128.08" r="4.5" fill="#7c3aed" fill-opacity="0.9"/>
<circle cx="398.57" cy="112.78" r="4.5" fill="#7c3aed" fill-opacity="0.9"/>
<circle cx="415.71" cy="114.45" r="4.5" fill="#7c3aed" fill-opacity="0.9"/>
<circle cx="432.86" cy="129.11" r="4.5" fill="#7c3aed" fill-opacity="0.9"/>
<circle cx="450.00" cy="125.26" r="4.5" fill="#7c3aed" fill-opacity="0.9"/>
<circle cx="467.14" cy="118.65" r="4.5" fill="#7c3aed" fill-opacity="0.9"/>
<circle cx="484.29" cy="133.36" r="4.5" fill="#7c3aed" fill-opacity="0.9"/>
<circle cx="501.43" cy="128.72" r="4.5" fill="#7c3aed" fill-opacity="0.9"/>
<circle cx="518.57" cy="94.17" r="4.5" fill="#7c3aed" fill-opacity="0.9"/>
<circle cx="535.71" cy="111.59" r="4.5" fill="#7c3aed" fill-opacity="0.9"/>
<circle cx="552.86" cy="98.31" r="4.5" fill="#7c3aed" fill-opacity="0.9"/>
<circle cx="570.00" cy="119.88" r="4.5" fill="#7c3aed" fill-opacity="0.9"/>
<circle cx="587.14" cy="95.89" r="4.5" fill="#7c3aed" fill-opacity="0.9"/>
<circle cx="604.29" cy="111.74" r="4.5" fill="#7c3aed" fill-opacity="0.9"/>
<circle cx="621.43" cy="118.16" r="4.5" fill="#7c3aed" fill-opacity="0.9"/>
<circle cx="638.57" cy="124.18" r="4.5" fill="#7c3aed" fill-opacity="0.9"/>
<circle cx="655.71" cy="120.57" r="4.5" fill="#7c3aed" fill-opacity="0.9"/>
<circle cx="672.86" cy="110.55" r="4.5" fill="#7c3aed" fill-opacity="0.9"/>
<circle cx="690.00" cy="114.31" r="4.5" fill="#7c3aed" fill-opacity="0.9"/>
<circle cx="707.14" cy="110.85" r="4.5" fill="#7c3aed" fill-opacity="0.9"/>
<circle cx="724.29" cy="114.11" r="4.5" fill="#7c3aed" fill-opacity="0.9"/>
<circle cx="741.43" cy="107.35" r="4.5" fill="#7c3aed" fill-opacity="0.9"/>
<circle cx="758.57" cy="114.60" r="4.5" fill="#7c3aed" fill-opacity="0.9"/>
<circle cx="775.71" cy="113.42" r="4.5" fill="#7c3aed" fill-opacity="0.9"/>
<circle cx="792.86" cy="108.04" r="4.5" fill="#7c3aed" fill-opacity="0.9"/>
<circle cx="810.00" cy="111.79" r="4.5" fill="#7c3aed" fill-opacity="0.9"/>
<circle cx="827.14" cy="109.32" r="4.5" fill="#7c3aed" fill-opacity="0.9"/>
<circle cx="844.29" cy="111.54" r="4.5" fill="#7c3aed" fill-opacity="0.9"/>
<circle cx="861.43" cy="108.38" r="4.5" fill="#7c3aed" fill-opacity="0.9"/>
<circle cx="878.57" cy="110.70" r="4.5" fill="#7c3aed" fill-opacity="0.9"/>
<circle cx="895.71" cy="106.70" r="4.5" fill="#7c3aed" fill-opacity="0.9"/>
<circle cx="912.86" cy="100.68" r="4.5" fill="#7c3aed" fill-opacity="0.9"/>
<circle cx="930.00" cy="101.82" r="4.5" fill="#7c3aed" fill-opacity="0.9"/>
<rect x="90" y="32" width="18" height="6" fill="#7c3aed"/>
<text x="114" y="38" font-size="13" fill="#333333">accepted</text>
</svg>