<svg xmlns="http://www.w3.org/2000/svg" width="960" height="540">
<rect width="100%" height="100%" fill="#ffffff"/>
<text x="480.0" y="30" font-size="22" text-anchor="middle" fill="#111111">Sequence Accuracy</text>
<text x="20" y="270.0" font-size="16" transform="rotate(-90 20,270.0)" text-anchor="middle" fill="#333333">Accuracy</text>
<text x="480.0" y="520" font-size="16" text-anchor="middle" fill="#333333">Epoch</text>
<line x1="90" y1="60" x2="90" y2="470" stroke="#333333" stroke-width="2"/>
<line x1="90" y1="470" x2="930" y2="470" stroke="#333333" stroke-width="2"/>
<line x1="90" y1="470.00" x2="930" y2="470.00" stroke="#e5e7eb" stroke-width="1"/>
<text x="80" y="475.00" font-size="12" text-anchor="end" fill="#555555">-0.0934</text>
<line x1="90" y1="367.50" x2="930" y2="367.50" stroke="#e5e7eb" stroke-width="1"/>
<text x="80" y="372.50" font-size="12" text-anchor="end" fill="#555555">0.1869</text>
<line x1="90" y1="265.00" x2="930" y2="265.00" stroke="#e5e7eb" stroke-width="1"/>
<text x="80" y="270.00" font-size="12" text-anchor="end" fill="#555555">0.4671</text>
<line x1="90" y1="162.50" x2="930" y2="162.50" stroke="#e5e7eb" stroke-width="1"/>
<text x="80" y="167.50" font-size="12" text-anchor="end" fill="#555555">0.7474</text>
<line x1="90" y1="60.00" x2="930" y2="60.00" stroke="#e5e7eb" stroke-width="1"/>
<text x="80" y="65.00" font-size="12" text-anchor="end" fill="#555555">1.0277</text>
<line x1="90.00" y1="60" x2="90.00" y2="470" stroke="#f3f4f6" stroke-width="1"/>
<text x="90.00" y="492" font-size="12" text-anchor="middle" fill="#555555">1</text>
<line x1="107.14" y1="60" x2="107.14" y2="470" stroke="#f3f4f6" stroke-width="1"/>
<text x="107.14" y="492" font-size="12" text-anchor="middle" fill="#555555">2</text>
<line x1="124.29" y1="60" x2="124.29" y2="470" stroke="#f3f4f6" stroke-width="1"/>
<text x="124.29" y="492" font-size="12" text-anchor="middle" fill="#555555">3</text>
<line x1="141.43" y1="60" x2="141.43" y2="470" stroke="#f3f4f6" stroke-width="1"/>
<text x="141.43" y="492" font-size="12" text-anchor="middle" fill="#555555">4</text>
<line x1="158.57" y1="60" x2="158.57" y2="470" stroke="#f3f4f6" stroke-width="1"/>
<text x="158.57" y="492" font-size="12" text-anchor="middle" fill="#555555">5</text>
<line x1="175.71" y1="60" x2="175.71" y2="470" stroke="#f3f4f6" stroke-width="1"/>
<text x="175.71" y="492" font-size="12" text-anchor="middle" fill="#555555">6</text>
<line x1="192.86" y1="60" x2="192.86" y2="470" stroke="#f3f4f6" stroke-width="1"/>
<text x="192.86" y="492" font-size="12" text-anchor="middle" fill="#555555">7</text>
<line x1="210.00" y1="60" x2="210.00" y2="470" stroke="#f3f4f6" stroke-width="1"/>
<text x="210.00" y="492" font-size="12" text-anchor="middle" fill="#555555">8</text>
<line x1="227.14" y1="60" x2="227.14" y2="470" stroke="#f3f4f6" stroke-width="1"/>
<text x="227.14" y="492" font-size="12" text-anchor="middle" fill="#555555">9</text>
<line x1="244.29" y1="60" x2="244.29" y2="470" stroke="#f3f4f6" stroke-width="1"/>
<text x="244.29" y="492" font-size="12" text-anchor="middle" fill="#555555">10</text>
<line x1="261.43" y1="60" x2="261.43" y2="470" stroke="#f3f4f6" stroke-width="1"/>
<text x="261.43" y="492" font-size="12" text-anchor="middle" fill="#555555">11</text>
<line x1="278.57" y1="60" x2="278.57" y2="470" stroke="#f3f4f6" stroke-width="1"/>
<text x="278.57" y="492" font-size="12" text-anchor="middle" fill="#555555">12</text>
<line x1="295.71" y1="60" x2="295.71" y2="470" stroke="#f3f4f6" stroke-width="1"/>
<text x="295.71" y="492" font-size="12" text-anchor="middle" fill="#555555">13</text>
<line x1="312.86" y1="60" x2="312.86" y2="470" stroke="#f3f4f6" stroke-width="1"/>
<text x="312.86" y="492" font-size="12" text-anchor="middle" fill="#555555">14</text>
<line x1="330.00" y1="60" x2="330.00" y2="470" stroke="#f3f4f6" stroke-width="1"/>
<text x="330.00" y="492" font-size="12" text-anchor="middle" fill="#555555">15</text>
<line x1="347.14" y1="60" x2="347.14" y2="470" stroke="#f3f4f6" stroke-width="1"/>
<text x="347.14" y="492" font-size="12" text-anchor="middle" fill="#555555">16</text>
<line x1="364.29" y1="60" x2="364.29" y2="470" stroke="#f3f4f6" stroke-width="1"/>
<text x="364.29" y="492" font-size="12" text-anchor="middle" fill="#555555">17</text>
<line x1="381.43" y1="60" x2="381.43" y2="470" stroke="#f3f4f6" stroke-width="1"/>
<text x="381.43" y="492" font-size="12" text-anchor="middle" fill="#555555">18</text>
<line x1="398.57" y1="60" x2="398.57" y2="470" stroke="#f3f4f6" stroke-width="1"/>
<text x="398.57" y="492" font-size="12" text-anchor="middle" fill="#555555">19</text>
<line x1="415.71" y1="60" x2="415.71" y2="470" stroke="#f3f4f6" stroke-width="1"/>
<text x="415.71" y="492" font-size="12" text-anchor="middle" fill="#555555">20</text>
<line x1="432.86" y1="60" x2="432.86" y2="470" stroke="#f3f4f6" stroke-width="1"/>
<text x="432.86" y="492" font-size="12" text-anchor="middle" fill="#555555">21</text>
<line x1="450.00" y1="60" x2="450.00" y2="470" stroke="#f3f4f6" stroke-width="1"/>
<text x="450.00" y="492" font-size="12" text-anchor="middle" fill="#555555">22</text>
<line x1="467.14" y1="60" x2="467.14" y2="470" stroke="#f3f4f6" stroke-width="1"/>
<text x="467.14" y="492" font-size="12" text-anchor="middle" fill="#555555">23</text>
<line x1="484.29" y1="60" x2="484.29" y2="470" stroke="#f3f4f6" stroke-width="1"/>
<text x="484.29" y="492" font-size="12" text-anchor="middle" fill="#555555">24</text>
<line x1="501.43" y1="60" x2="501.43" y2="470" stroke="#f3f4f6" stroke-width="1"/>
<text x="501.43" y="492" font-size="12" text-anchor="middle" fill="#555555">25</text>
<line x1="518.57" y1="60" x2="518.57" y2="470" stroke="#f3f4f6" stroke-width="1"/>
<text x="518.57" y="492" font-size="12" text-anchor="middle" fill="#555555">26</text>
<line x1="535.71" y1="60" x2="535.71" y2="470" stroke="#f3f4f6" stroke-width="1"/>
<text x="535.71" y="492" font-size="12" text-anchor="middle" fill="#555555">27</text>
<line x1="552.86" y1="60" x2="552.86" y2="470" stroke="#f3f4f6" stroke-width="1"/>
<text x="552.86" y="492" font-size="12" text-anchor="middle" fill="#555555">28</text>
<line x1="570.00" y1="60" x2="570.00" y2="470" stroke="#f3f4f6" stroke-width="1"/>
<text x="570.00" y="492" font-size="12" text-anchor="middle" fill="#555555">29</text>
<line x1="587.14" y1="60" x2="587.14" y2="470" stroke="#f3f4f6" stroke-width="1"/>
<text x="587.14" y="492" font-size="12" text-anchor="middle" fill="#555555">30</text>
<line x1="604.29" y1="60" x2="604.29" y2="470" stroke="#f3f4f6" stroke-width="1"/>
<text x="604.29" y="492" font-size="12" text-anchor="middle" fill="#555555">31</text>
<line x1="621.43" y1="60" x2="621.43" y2="470" stroke="#f3f4f6" stroke-width="1"/>
<text x="621.43" y="492" font-size="12" text-anchor="middle" fill="#555555">32</text>
<line x1="638.57" y1="60" x2="638.57" y2="470" stroke="#f3f4f6" stroke-width="1"/>
<text x="638.57" y="492" font-size="12" text-anchor="middle" fill="#555555">33</text>
<line x1="655.71" y1="60" x2="655.71" y2="470" stroke="#f3f4f6" stroke-width="1"/>
<text x="655.71" y="492" font-size="12" text-anchor="middle" fill="#555555">34</text>
<line x1="672.86" y1="60" x2="672.86" y2="470" stroke="#f3f4f6" stroke-width="1"/>
<text x="672.86" y="492" font-size="12" text-anchor="middle" fill="#555555">35</text>
<line x1="690.00" y1="60" x2="690.00" y2="470" stroke="#f3f4f6" stroke-width="1"/>
<text x="690.00" y="492" font-size="12" text-anchor="middle" fill="#555555">36</text>
<line x1="707.14" y1="60" x2="707.14" y2="470" stroke="#f3f4f6" stroke-width="1"/>
<text x="707.14" y="492" font-size="12" text-anchor="middle" fill="#555555">37</text>
<line x1="724.29" y1="60" x2="724.29" y2="470" stroke="#f3f4f6" stroke-width="1"/>
<text x="724.29" y="492" font-size="12" text-anchor="middle" fill="#555555">38</text>
<line x1="741.43" y1="60" x2="741.43" y2="470" stroke="#f3f4f6" stroke-width="1"/>
<text x="741.43" y="492" font-size="12" text-anchor="middle" fill="#555555">39</text>
<line x1="758.57" y1="60" x2="758.57" y2="470" stroke="#f3f4f6" stroke-width="1"/>
<text x="758.57" y="492" font-size="12" text-anchor="middle" fill="#555555">40</text>
<line x1="775.71" y1="60" x2="775.71" y2="470" stroke="#f3f4f6" stroke-width="1"/>
<text x="775.71" y="492" font-size="12" text-anchor="middle" fill="#555555">41</text>
<line x1="792.86" y1="60" x2="792.86" y2="470" stroke="#f3f4f6" stroke-width="1"/>
<text x="792.86" y="492" font-size="12" text-anchor="middle" fill="#555555">42</text>
<line x1="810.00" y1="60" x2="810.00" y2="470" stroke="#f3f4f6" stroke-width="1"/>
<text x="810.00" y="492" font-size="12" text-anchor="middle" fill="#555555">43</text>
<line x1="827.14" y1="60" x2="827.14" y2="470" stroke="#f3f4f6" stroke-width="1"/>
<text x="827.14" y="492" font-size="12" text-anchor="middle" fill="#555555">44</text>
<line x1="844.29" y1="60" x2="844.29" y2="470" stroke="#f3f4f6" stroke-width="1"/>
<text x="844.29" y="492" font-size="12" text-anchor="middle" fill="#555555">45</text>
<line x1="861.43" y1="60" x2="861.43" y2="470" stroke="#f3f4f6" stroke-width="1"/>
<text x="861.43" y="492" font-size="12" text-anchor="middle" fill="#555555">46</text>
<line x1="878.57" y1="60" x2="878.57" y2="470" stroke="#f3f4f6" stroke-width="1"/>
<text x="878.57" y="492" font-size="12" text-anchor="middle" fill="#555555">47</text>
<line x1="895.71" y1="60" x2="895.71" y2="470" stroke="#f3f4f6" stroke-width="1"/>
<text x="895.71" y="492" font-size="12" text-anchor="middle" fill="#555555">48</text>
<line x1="912.86" y1="60" x2="912.86" y2="470" stroke="#f3f4f6" stroke-width="1"/>
<text x="912.86" y="492" font-size="12" text-anchor="middle" fill="#555555">49</text>
<line x1="930.00" y1="60" x2="930.00" y2="470" stroke="#f3f4f6" stroke-width="1"/>
<text x="930.00" y="492" font-size="12" text-anchor="middle" fill="#555555">50</text>
<polyline fill="none" stroke="#d97706" stroke-width="3" points="90.00,435.83 107.14,435.83 124.29,153.36 141.43,127.52 158.57,125.96 175.71,135.86 192.86,122.96 210.00,124.64 227.14,123.47 244.29,123.94 261.43,175.38 278.57,122.16 295.71,122.11 312.86,121.96 330.00,122.06 347.14,125.11 364.29,124.30 381.43,116.13 398.57,123.45 415.71,121.81 432.86,120.33 450.00,120.77 467.14,150.97 484.29,109.43 501.43,106.97 518.57,121.28 535.71,196.42 552.86,120.99 570.00,118.55 587.14,121.30 604.29,116.18 621.43,114.96 638.57,101.31 655.71,101.21 672.86,99.99 690.00,114.18 707.14,107.38 724.29,122.40 741.43,104.48 758.57,99.26 775.71,98.63 792.86,105.11 810.00,102.14 827.14,111.33 844.29,107.45 861.43,104.09 878.57,109.04 895.71,94.34 912.86,105.11 930.00,99.70"/>
<circle cx="90.00" cy="435.83" r="4.5" fill="#d97706" fill-opacity="0.9"/>
<circle cx="107.14" cy="435.83" r="4.5" fill="#d97706" fill-opacity="0.9"/>
<circle cx="124.29" cy="153.36" r="4.5" fill="#d97706" fill-opacity="0.9"/>
<circle cx="141.43" cy="127.52" r="4.5" fill="#d97706" fill-opacity="0.9"/>
<circle cx="158.57" cy="125.96" r="4.5" fill="#d97706" fill-opacity="0.9"/>
<circle cx="175.71" cy="135.86" r="4.5" fill="#d97706" fill-opacity="0.9"/>
<circle cx="192.86" cy="122.96" r="4.5" fill="#d97706" fill-opacity="0.9"/>
<circle cx="210.00" cy="124.64" r="4.5" fill="#d97706" fill-opacity="0.9"/>
<circle cx="227.14" cy="123.47" r="4.5" fill="#d97706" fill-opacity="0.9"/>
<circle cx="244.29" cy="123.94" r="4.5" fill="#d97706" fill-opacity="0.9"/>
<circle cx="261.43" cy="175.38" r="4.5" fill="#d97706" fill-opacity="0.9"/>
<circle cx="278.57" cy="122.16" r="4.5" fill="#d97706" fill-opacity="0.9"/>
<circle cx="295.71" cy="122.11" r="4.5" fill="#d97706" fill-opacity="0.9"/>
<circle cx="312.86" cy="121.96" r="4.5" fill="#d97706" fill-opacity="0.9"/>
<circle cx="330.00" cy="122.06" r="4.5" fill="#d97706" fill-opacity="0.9"/>
<circle cx="347.14" cy="125.11" r="4.5" fill="#d97706" fill-opacity="0.9"/>
<circle cx="364.29" cy="124.30" r="4.5" fill="#d97706" fill-opacity="0.9"/>
<circle cx="381.43" cy="116.13" r="4.5" fill="#d97706" fill-opacity="0.9"/>
<circle cx="398.57" cy="123.45" r="4.5" fill="#d97706" fill-opacity="0.9"/>
<circle cx="415.71" cy="121.81" r="4.5" fill="#d97706" fill-opacity="0.9"/>
<circle cx="432.86" cy="120.33" r="4.5" fill="#d97706" fill-opacity="0.9"/>
<circle cx="450.00" cy="120.77" r="4.5" fill="#d97706" fill-opacity="0.9"/>
<circle cx="467.14" cy="150.97" r="4.5" fill="#d97706" fill-opacity="0.9"/>
<circle cx="484.29" cy="109.43" r="4.5" fill="#d97706" fill-opacity="0.9"/>
<circle cx="501.43" cy="106.97" r="4.5" fill="#d97706" fill-opacity="0.9"/>
<circle cx="518.57" cy="121.28" r="4.5" fill="#d97706" fill-opacity="0.9"/>
<circle cx="535.71" cy="196.42" r="4.5" fill="#d97706" fill-opacity="0.9"/>
<circle cx="552.86" cy="120.99" r="4.5" fill="#d97706" fill-opacity="0.9"/>
<circle cx="570.00" cy="118.55" r="4.5" fill="#d97706" fill-opacity="0.9"/>
<circle cx="587.14" cy="121.30" r="4.5" fill="#d97706" fill-opacity="0.9"/>
<circle cx="604.29" cy="116.18" r="4.5" fill="#d97706" fill-opacity="0.9"/>
<circle cx="621.43" cy="114.96" r="4.5" fill="#d97706" fill-opacity="0.9"/>
<circle cx="638.57" cy="101.31" r="4.5" fill="#d97706" fill-opacity="0.9"/>
<circle cx="655.71" cy="101.21" r="4.5" fill="#d97706" fill-opacity="0.9"/>
<circle cx="672.86" cy="99.99" r="4.5" fill="#d97706" fill-opacity="0.9"/>
<circle cx="690.00" cy="114.18" r="4.5" fill="#d97706" fill-opacity="0.9"/>
<circle cx="707.14" cy="107.38" r="4.5" fill="#d97706" fill-opacity="0.9"/>
<circle cx="724.29" cy="122.40" r="4.5" fill="#d97706" fill-opacity="0.9"/>
<circle cx="741.43" cy="104.48" r="4.5" fill="#d97706" fill-opacity="0.9"/>
<circle cx="758.57" cy="99.26" r="4.5" fill="#d97706" fill-opacity="0.9"/>
<circle cx="775.71" cy="98.63" r="4.5" fill="#d97706" fill-opacity="0.9"/>
<circle cx="792.86" cy="105.11" r="4.5" fill="#d97706" fill-opacity="0.9"/>
<circle cx="810.00" cy="102.14" r="4.5" fill="#d97706" fill-opacity="0.9"/>
<circle cx="827.14" cy="111.33" r="4.5" fill="#d97706" fill-opacity="0.9"/>
<circle cx="844.29" cy="107.45" r="4.5" fill="#d97706" fill-opacity="0.9"/>
<circle cx="861.43" cy="104.09" r="4.5" fill="#d97706" fill-opacity="0.9"/>
<circle cx="878.57" cy="109.04" r="4.5" fill="#d97706" fill-opacity="0.9"/>
<circle cx="895.71" cy="94.34" r="4.5" fill="#d97706" fill-opacity="0.9"/>
<circle cx="912.86" cy="105.11" r="4.5" fill="#d97706" fill-opacity="0.9"/>
<circle cx="930.00" cy="99.70" r="4.5" fill="#d97706" fill-opacity="0.9"/>
<rect x="90" y="32" width="18" height="6" fill="#d97706"/>
<text x="114" y="38" font-size="13" fill="#333333">val</text>
<polyline fill="none" stroke="#059669" stroke-width="3" points="90.00,435.83 107.14,435.83 124.29,152.97 141.43,130.32 158.57,128.23 175.71,136.93 192.86,125.37 210.00,126.57 227.14,124.81 244.29,125.40 261.43,175.11 278.57,123.89 295.71,124.79 312.86,123.47 330.00,122.89 347.14,126.28 364.29,125.86 381.43,117.11 398.57,124.89 415.71,123.40 432.86,121.35 450.00,123.42 467.14,152.27 484.29,110.28 501.43,107.41 518.57,122.16 535.71,198.12 552.86,122.55 570.00,119.42 587.14,122.74 604.29,117.72 621.43,115.50 638.57,102.16 655.71,102.09 672.86,101.24 690.00,116.57 707.14,107.38 724.29,122.94 741.43,107.14 758.57,100.72 775.71,99.12 792.86,106.99 810.00,101.77 827.14,114.09 844.29,108.50 861.43,105.65 878.57,110.21 895.71,94.17 912.86,106.06 930.00,99.65"/>
<circle cx="90.00" cy="435.83" r="4.5" fill="#059669" fill-opacity="0.9"/>
<circle cx="107.14" cy="435.83" r="4.5" fill="#059669" fill-opacity="0.9"/>
<circle cx="124.29" cy="152.97" r="4.5" fill="#059669" fill-opacity="0.9"/>
<circle cx="141.43" cy="130.32" r="4.5" fill="#059669" fill-opacity="0.9"/>
<circle cx="158.57" cy="128.23" r="4.5" fill="#059669" fill-opacity="0.9"/>
<circle cx="175.71" cy="136.93" r="4.5" fill="#059669" fill-opacity="0.9"/>
<circle cx="192.86" cy="125.37" r="4.5" fill="#059669" fill-opacity="0.9"/>
<circle cx="210.00" cy="126.57" r="4.5" fill="#059669" fill-opacity="0.9"/>
<circle cx="227.14" cy="124.81" r="4.5" fill="#059669" fill-opacity="0.9"/>
<circle cx="244.29" cy="125.40" r="4.5" fill="#059669" fill-opacity="0.9"/>
<circle cx="261.43" cy="175.11" r="4.5" fill="#059669" fill-opacity="0.9"/>
<circle cx="278.57" cy="123.89" r="4.5" fill="#059669" fill-opacity="0.9"/>
<circle cx="295.71" cy="124.79" r="4.5" fill="#059669" fill-opacity="0.9"/>
<circle cx="312.86" cy="123.47" r="4.5" fill="#059669" fill-opacity="0.9"/>
<circle cx="330.00" cy="122.89" r="4.5" fill="#059669" fill-opacity="0.9"/>
<circle cx="347.14" cy="126.28" r="4.5" fill="#059669" fill-opacity="0.9"/>
<circle cx="364.29" cy="125.86" r="4.5" fill="#059669" fill-opacity="0.9"/>
<circle cx="381.43" cy="117.11" r="4.5" fill="#059669" fill-opacity="0.9"/>
<circle cx="398.57" cy="124.89" r="4.5" fill="#059669" fill-opacity="0.9"/>
<circle cx="415.71" cy="123.40" r="4.5" fill="#059669" fill-opacity="0.9"/>
<circle cx="432.86" cy="121.35" r="4.5" fill="#059669" fill-opacity="0.9"/>
<circle cx="450.00" cy="123.42" r="4.5" fill="#059669" fill-opacity="0.9"/>
<circle cx="467.14" cy="152.27" r="4.5" fill="#059669" fill-opacity="0.9"/>
<circle cx="484.29" cy="110.28" r="4.5" fill="#059669" fill-opacity="0.9"/>
<circle cx="501.43" cy="107.41" r="4.5" fill="#059669" fill-opacity="0.9"/>
<circle cx="518.57" cy="122.16" r="4.5" fill="#059669" fill-opacity="0.9"/>
<circle cx="535.71" cy="198.12" r="4.5" fill="#059669" fill-opacity="0.9"/>
<circle cx="552.86" cy="122.55" r="4.5" fill="#059669" fill-opacity="0.9"/>
<circle cx="570.00" cy="119.42" r="4.5" fill="#059669" fill-opacity="0.9"/>
<circle cx="587.14" cy="122.74" r="4.5" fill="#059669" fill-opacity="0.9"/>
<circle cx="604.29" cy="117.72" r="4.5" fill="#059669" fill-opacity="0.9"/>
<circle cx="621.43" cy="115.50" r="4.5" fill="#059669" fill-opacity="0.9"/>
<circle cx="638.57" cy="102.16" r="4.5" fill="#059669" fill-opacity="0.9"/>
<circle cx="655.71" cy="102.09" r="4.5" fill="#059669" fill-opacity="0.9"/>
<circle cx="672.86" cy="101.24" r="4.5" fill="#059669" fill-opacity="0.9"/>
<circle cx="690.00" cy="116.57" r="4.5" fill="#059669" fill-opacity="0.9"/>
<circle cx="707.14" cy="107.38" r="4.5" fill="#059669" fill-opacity="0.9"/>
<circle cx="724.29" cy="122.94" r="4.5" fill="#059669" fill-opacity="0.9"/>
<circle cx="741.43" cy="107.14" r="4.5" fill="#059669" fill-opacity="0.9"/>
<circle cx="758.57" cy="100.72" r="4.5" fill="#059669" fill-opacity="0.9"/>
<circle cx="775.71" cy="99.12" r="4.5" fill="#059669" fill-opacity="0.9"/>
<circle cx="792.86" cy="106.99" r="4.5" fill="#059669" fill-opacity="0.9"/>
<circle cx="810.00" cy="101.77" r="4.5" fill="#059669" fill-opacity="0.9"/>
<circle cx="827.14" cy="114.09" r="4.5" fill="#059669" fill-opacity="0.9"/>
<circle cx="844.29" cy="108.50" r="4.5" fill="#059669" fill-opacity="0.9"/>
<circle cx="861.43" cy="105.65" r="4.5" fill="#059669" fill-opacity="0.9"/>
<circle cx="878.57" cy="110.21" r="4.5" fill="#059669" fill-opacity="0.9"/>
<circle cx="895.71" cy="94.17" r="4.5" fill="#059669" fill-opacity="0.9"/>
<circle cx="912.86" cy="106.06" r="4.5" fill="#059669" fill-opacity="0.9"/>
<circle cx="930.00" cy="99.65" r="4.5" fill="#059669" fill-opacity="0.9"/>
<rect x="270" y="32" width="18" height="6" fill="#059669"/>
<text x="294" y="38" font-size="13" fill="#333333">test</text>
</svg>