<svg xmlns="http://www.w3.org/2000/svg" width="960" height="540">
<rect width="100%" height="100%" fill="#ffffff"/>
<text x="480.0" y="30" font-size="22" text-anchor="middle" fill="#111111">Sequence Accuracy</text>
<text x="20" y="270.0" font-size="16" transform="rotate(-90 20,270.0)" text-anchor="middle" fill="#333333">Accuracy</text>
<text x="480.0" y="520" font-size="16" text-anchor="middle" fill="#333333">Epoch</text>
<line x1="90" y1="60" x2="90" y2="470" stroke="#333333" stroke-width="2"/>
<line x1="90" y1="470" x2="930" y2="470" stroke="#333333" stroke-width="2"/>
<line x1="90" y1="470.00" x2="930" y2="470.00" stroke="#e5e7eb" stroke-width="1"/>
<text x="80" y="475.00" font-size="12" text-anchor="end" fill="#555555">-0.0900</text>
<line x1="90" y1="367.50" x2="930" y2="367.50" stroke="#e5e7eb" stroke-width="1"/>
<text x="80" y="372.50" font-size="12" text-anchor="end" fill="#555555">0.1969</text>
<line x1="90" y1="265.00" x2="930" y2="265.00" stroke="#e5e7eb" stroke-width="1"/>
<text x="80" y="270.00" font-size="12" text-anchor="end" fill="#555555">0.4838</text>
<line x1="90" y1="162.50" x2="930" y2="162.50" stroke="#e5e7eb" stroke-width="1"/>
<text x="80" y="167.50" font-size="12" text-anchor="end" fill="#555555">0.7706</text>
<line x1="90" y1="60.00" x2="930" y2="60.00" stroke="#e5e7eb" stroke-width="1"/>
<text x="80" y="65.00" font-size="12" text-anchor="end" fill="#555555">1.0575</text>
<line x1="90.00" y1="60" x2="90.00" y2="470" stroke="#f3f4f6" stroke-width="1"/>
<text x="90.00" y="492" font-size="12" text-anchor="middle" fill="#555555">1</text>
<line x1="98.48" y1="60" x2="98.48" y2="470" stroke="#f3f4f6" stroke-width="1"/>
<text x="98.48" y="492" font-size="12" text-anchor="middle" fill="#555555">2</text>
<line x1="106.97" y1="60" x2="106.97" y2="470" stroke="#f3f4f6" stroke-width="1"/>
<text x="106.97" y="492" font-size="12" text-anchor="middle" fill="#555555">3</text>
<line x1="115.45" y1="60" x2="115.45" y2="470" stroke="#f3f4f6" stroke-width="1"/>
<text x="115.45" y="492" font-size="12" text-anchor="middle" fill="#555555">4</text>
<line x1="123.94" y1="60" x2="123.94" y2="470" stroke="#f3f4f6" stroke-width="1"/>
<text x="123.94" y="492" font-size="12" text-anchor="middle" fill="#555555">5</text>
<line x1="132.42" y1="60" x2="132.42" y2="470" stroke="#f3f4f6" stroke-width="1"/>
<text x="132.42" y="492" font-size="12" text-anchor="middle" fill="#555555">6</text>
<line x1="140.91" y1="60" x2="140.91" y2="470" stroke="#f3f4f6" stroke-width="1"/>
<text x="140.91" y="492" font-size="12" text-anchor="middle" fill="#555555">7</text>
<line x1="149.39" y1="60" x2="149.39" y2="470" stroke="#f3f4f6" stroke-width="1"/>
<text x="149.39" y="492" font-size="12" text-anchor="middle" fill="#555555">8</text>
<line x1="157.88" y1="60" x2="157.88" y2="470" stroke="#f3f4f6" stroke-width="1"/>
<text x="157.88" y="492" font-size="12" text-anchor="middle" fill="#555555">9</text>
<line x1="166.36" y1="60" x2="166.36" y2="470" stroke="#f3f4f6" stroke-width="1"/>
<text x="166.36" y="492" font-size="12" text-anchor="middle" fill="#555555">10</text>
<line x1="174.85" y1="60" x2="174.85" y2="470" stroke="#f3f4f6" stroke-width="1"/>
<text x="174.85" y="492" font-size="12" text-anchor="middle" fill="#555555">11</text>
<line x1="183.33" y1="60" x2="183.33" y2="470" stroke="#f3f4f6" stroke-width="1"/>
<text x="183.33" y="492" font-size="12" text-anchor="middle" fill="#555555">12</text>
<line x1="191.82" y1="60" x2="191.82" y2="470" stroke="#f3f4f6" stroke-width="1"/>
<text x="191.82" y="492" font-size="12" text-anchor="middle" fill="#555555">13</text>
<line x1="200.30" y1="60" x2="200.30" y2="470" stroke="#f3f4f6" stroke-width="1"/>
<text x="200.30" y="492" font-size="12" text-anchor="middle" fill="#555555">14</text>
<line x1="208.79" y1="60" x2="208.79" y2="470" stroke="#f3f4f6" stroke-width="1"/>
<text x="208.79" y="492" font-size="12" text-anchor="middle" fill="#555555">15</text>
<line x1="217.27" y1="60" x2="217.27" y2="470" stroke="#f3f4f6" stroke-width="1"/>
<text x="217.27" y="492" font-size="12" text-anchor="middle" fill="#555555">16</text>
<line x1="225.76" y1="60" x2="225.76" y2="470" stroke="#f3f4f6" stroke-width="1"/>
<text x="225.76" y="492" font-size="12" text-anchor="middle" fill="#555555">17</text>
<line x1="234.24" y1="60" x2="234.24" y2="470" stroke="#f3f4f6" stroke-width="1"/>
<text x="234.24" y="492" font-size="12" text-anchor="middle" fill="#555555">18</text>
<line x1="242.73" y1="60" x2="242.73" y2="470" stroke="#f3f4f6" stroke-width="1"/>
<text x="242.73" y="492" font-size="12" text-anchor="middle" fill="#555555">19</text>
<line x1="251.21" y1="60" x2="251.21" y2="470" stroke="#f3f4f6" stroke-width="1"/>
<text x="251.21" y="492" font-size="12" text-anchor="middle" fill="#555555">20</text>
<line x1="259.70" y1="60" x2="259.70" y2="470" stroke="#f3f4f6" stroke-width="1"/>
<text x="259.70" y="492" font-size="12" text-anchor="middle" fill="#555555">21</text>
<line x1="268.18" y1="60" x2="268.18" y2="470" stroke="#f3f4f6" stroke-width="1"/>
<text x="268.18" y="492" font-size="12" text-anchor="middle" fill="#555555">22</text>
<line x1="276.67" y1="60" x2="276.67" y2="470" stroke="#f3f4f6" stroke-width="1"/>
<text x="276.67" y="492" font-size="12" text-anchor="middle" fill="#555555">23</text>
<line x1="285.15" y1="60" x2="285.15" y2="470" stroke="#f3f4f6" stroke-width="1"/>
<text x="285.15" y="492" font-size="12" text-anchor="middle" fill="#555555">24</text>
<line x1="293.64" y1="60" x2="293.64" y2="470" stroke="#f3f4f6" stroke-width="1"/>
<text x="293.64" y="492" font-size="12" text-anchor="middle" fill="#555555">25</text>
<line x1="302.12" y1="60" x2="302.12" y2="470" stroke="#f3f4f6" stroke-width="1"/>
<text x="302.12" y="492" font-size="12" text-anchor="middle" fill="#555555">26</text>
<line x1="310.61" y1="60" x2="310.61" y2="470" stroke="#f3f4f6" stroke-width="1"/>
<text x="310.61" y="492" font-size="12" text-anchor="middle" fill="#555555">27</text>
<line x1="319.09" y1="60" x2="319.09" y2="470" stroke="#f3f4f6" stroke-width="1"/>
<text x="319.09" y="492" font-size="12" text-anchor="middle" fill="#555555">28</text>
<line x1="327.58" y1="60" x2="327.58" y2="470" stroke="#f3f4f6" stroke-width="1"/>
<text x="327.58" y="492" font-size="12" text-anchor="middle" fill="#555555">29</text>
<line x1="336.06" y1="60" x2="336.06" y2="470" stroke="#f3f4f6" stroke-width="1"/>
<text x="336.06" y="492" font-size="12" text-anchor="middle" fill="#555555">30</text>
<line x1="344.55" y1="60" x2="344.55" y2="470" stroke="#f3f4f6" stroke-width="1"/>
<text x="344.55" y="492" font-size="12" text-anchor="middle" fill="#555555">31</text>
<line x1="353.03" y1="60" x2="353.03" y2="470" stroke="#f3f4f6" stroke-width="1"/>
<text x="353.03" y="492" font-size="12" text-anchor="middle" fill="#555555">32</text>
<line x1="361.52" y1="60" x2="361.52" y2="470" stroke="#f3f4f6" stroke-width="1"/>
<text x="361.52" y="492" font-size="12" text-anchor="middle" fill="#555555">33</text>
<line x1="370.00" y1="60" x2="370.00" y2="470" stroke="#f3f4f6" stroke-width="1"/>
<text x="370.00" y="492" font-size="12" text-anchor="middle" fill="#555555">34</text>
<line x1="378.48" y1="60" x2="378.48" y2="470" stroke="#f3f4f6" stroke-width="1"/>
<text x="378.48" y="492" font-size="12" text-anchor="middle" fill="#555555">35</text>
<line x1="386.97" y1="60" x2="386.97" y2="470" stroke="#f3f4f6" stroke-width="1"/>
<text x="386.97" y="492" font-size="12" text-anchor="middle" fill="#555555">36</text>
<line x1="395.45" y1="60" x2="395.45" y2="470" stroke="#f3f4f6" stroke-width="1"/>
<text x="395.45" y="492" font-size="12" text-anchor="middle" fill="#555555">37</text>
<line x1="403.94" y1="60" x2="403.94" y2="470" stroke="#f3f4f6" stroke-width="1"/>
<text x="403.94" y="492" font-size="12" text-anchor="middle" fill="#555555">38</text>
<line x1="412.42" y1="60" x2="412.42" y2="470" stroke="#f3f4f6" stroke-width="1"/>
<text x="412.42" y="492" font-size="12" text-anchor="middle" fill="#555555">39</text>
<line x1="420.91" y1="60" x2="420.91" y2="470" stroke="#f3f4f6" stroke-width="1"/>
<text x="420.91" y="492" font-size="12" text-anchor="middle" fill="#555555">40</text>
<line x1="429.39" y1="60" x2="429.39" y2="470" stroke="#f3f4f6" stroke-width="1"/>
<text x="429.39" y="492" font-size="12" text-anchor="middle" fill="#555555">41</text>
<line x1="437.88" y1="60" x2="437.88" y2="470" stroke="#f3f4f6" stroke-width="1"/>
<text x="437.88" y="492" font-size="12" text-anchor="middle" fill="#555555">42</text>
<line x1="446.36" y1="60" x2="446.36" y2="470" stroke="#f3f4f6" stroke-width="1"/>
<text x="446.36" y="492" font-size="12" text-anchor="middle" fill="#555555">43</text>
<line x1="454.85" y1="60" x2="454.85" y2="470" stroke="#f3f4f6" stroke-width="1"/>
<text x="454.85" y="492" font-size="12" text-anchor="middle" fill="#555555">44</text>
<line x1="463.33" y1="60" x2="463.33" y2="470" stroke="#f3f4f6" stroke-width="1"/>
<text x="463.33" y="492" font-size="12" text-anchor="middle" fill="#555555">45</text>
<line x1="471.82" y1="60" x2="471.82" y2="470" stroke="#f3f4f6" stroke-width="1"/>
<text x="471.82" y="492" font-size="12" text-anchor="middle" fill="#555555">46</text>
<line x1="480.30" y1="60" x2="480.30" y2="470" stroke="#f3f4f6" stroke-width="1"/>
<text x="480.30" y="492" font-size="12" text-anchor="middle" fill="#555555">47</text>
<line x1="488.79" y1="60" x2="488.79" y2="470" stroke="#f3f4f6" stroke-width="1"/>
<text x="488.79" y="492" font-size="12" text-anchor="middle" fill="#555555">48</text>
<line x1="497.27" y1="60" x2="497.27" y2="470" stroke="#f3f4f6" stroke-width="1"/>
<text x="497.27" y="492" font-size="12" text-anchor="middle" fill="#555555">49</text>
<line x1="505.76" y1="60" x2="505.76" y2="470" stroke="#f3f4f6" stroke-width="1"/>
<text x="505.76" y="492" font-size="12" text-anchor="middle" fill="#555555">50</text>
<line x1="514.24" y1="60" x2="514.24" y2="470" stroke="#f3f4f6" stroke-width="1"/>
<text x="514.24" y="492" font-size="12" text-anchor="middle" fill="#555555">51</text>
<line x1="522.73" y1="60" x2="522.73" y2="470" stroke="#f3f4f6" stroke-width="1"/>
<text x="522.73" y="492" font-size="12" text-anchor="middle" fill="#555555">52</text>
<line x1="531.21" y1="60" x2="531.21" y2="470" stroke="#f3f4f6" stroke-width="1"/>
<text x="531.21" y="492" font-size="12" text-anchor="middle" fill="#555555">53</text>
<line x1="539.70" y1="60" x2="539.70" y2="470" stroke="#f3f4f6" stroke-width="1"/>
<text x="539.70" y="492" font-size="12" text-anchor="middle" fill="#555555">54</text>
<line x1="548.18" y1="60" x2="548.18" y2="470" stroke="#f3f4f6" stroke-width="1"/>
<text x="548.18" y="492" font-size="12" text-anchor="middle" fill="#555555">55</text>
<line x1="556.67" y1="60" x2="556.67" y2="470" stroke="#f3f4f6" stroke-width="1"/>
<text x="556.67" y="492" font-size="12" text-anchor="middle" fill="#555555">56</text>
<line x1="565.15" y1="60" x2="565.15" y2="470" stroke="#f3f4f6" stroke-width="1"/>
<text x="565.15" y="492" font-size="12" text-anchor="middle" fill="#555555">57</text>
<line x1="573.64" y1="60" x2="573.64" y2="470" stroke="#f3f4f6" stroke-width="1"/>
<text x="573.64" y="492" font-size="12" text-anchor="middle" fill="#555555">58</text>
<line x1="582.12" y1="60" x2="582.12" y2="470" stroke="#f3f4f6" stroke-width="1"/>
<text x="582.12" y="492" font-size="12" text-anchor="middle" fill="#555555">59</text>
<line x1="590.61" y1="60" x2="590.61" y2="470" stroke="#f3f4f6" stroke-width="1"/>
<text x="590.61" y="492" font-size="12" text-anchor="middle" fill="#555555">60</text>
<line x1="599.09" y1="60" x2="599.09" y2="470" stroke="#f3f4f6" stroke-width="1"/>
<text x="599.09" y="492" font-size="12" text-anchor="middle" fill="#555555">61</text>
<line x1="607.58" y1="60" x2="607.58" y2="470" stroke="#f3f4f6" stroke-width="1"/>
<text x="607.58" y="492" font-size="12" text-anchor="middle" fill="#555555">62</text>
<line x1="616.06" y1="60" x2="616.06" y2="470" stroke="#f3f4f6" stroke-width="1"/>
<text x="616.06" y="492" font-size="12" text-anchor="middle" fill="#555555">63</text>
<line x1="624.55" y1="60" x2="624.55" y2="470" stroke="#f3f4f6" stroke-width="1"/>
<text x="624.55" y="492" font-size="12" text-anchor="middle" fill="#555555">64</text>
<line x1="633.03" y1="60" x2="633.03" y2="470" stroke="#f3f4f6" stroke-width="1"/>
<text x="633.03" y="492" font-size="12" text-anchor="middle" fill="#555555">65</text>
<line x1="641.52" y1="60" x2="641.52" y2="470" stroke="#f3f4f6" stroke-width="1"/>
<text x="641.52" y="492" font-size="12" text-anchor="middle" fill="#555555">66</text>
<line x1="650.00" y1="60" x2="650.00" y2="470" stroke="#f3f4f6" stroke-width="1"/>
<text x="650.00" y="492" font-size="12" text-anchor="middle" fill="#555555">67</text>
<line x1="658.48" y1="60" x2="658.48" y2="470" stroke="#f3f4f6" stroke-width="1"/>
<text x="658.48" y="492" font-size="12" text-anchor="middle" fill="#555555">68</text>
<line x1="666.97" y1="60" x2="666.97" y2="470" stroke="#f3f4f6" stroke-width="1"/>
<text x="666.97" y="492" font-size="12" text-anchor="middle" fill="#555555">69</text>
<line x1="675.45" y1="60" x2="675.45" y2="470" stroke="#f3f4f6" stroke-width="1"/>
<text x="675.45" y="492" font-size="12" text-anchor="middle" fill="#555555">70</text>
<line x1="683.94" y1="60" x2="683.94" y2="470" stroke="#f3f4f6" stroke-width="1"/>
<text x="683.94" y="492" font-size="12" text-anchor="middle" fill="#555555">71</text>
<line x1="692.42" y1="60" x2="692.42" y2="470" stroke="#f3f4f6" stroke-width="1"/>
<text x="692.42" y="492" font-size="12" text-anchor="middle" fill="#555555">72</text>
<line x1="700.91" y1="60" x2="700.91" y2="470" stroke="#f3f4f6" stroke-width="1"/>
<text x="700.91" y="492" font-size="12" text-anchor="middle" fill="#555555">73</text>
<line x1="709.39" y1="60" x2="709.39" y2="470" stroke="#f3f4f6" stroke-width="1"/>
<text x="709.39" y="492" font-size="12" text-anchor="middle" fill="#555555">74</text>
<line x1="717.88" y1="60" x2="717.88" y2="470" stroke="#f3f4f6" stroke-width="1"/>
<text x="717.88" y="492" font-size="12" text-anchor="middle" fill="#555555">75</text>
<line x1="726.36" y1="60" x2="726.36" y2="470" stroke="#f3f4f6" stroke-width="1"/>
<text x="726.36" y="492" font-size="12" text-anchor="middle" fill="#555555">76</text>
<line x1="734.85" y1="60" x2="734.85" y2="470" stroke="#f3f4f6" stroke-width="1"/>
<text x="734.85" y="492" font-size="12" text-anchor="middle" fill="#555555">77</text>
<line x1="743.33" y1="60" x2="743.33" y2="470" stroke="#f3f4f6" stroke-width="1"/>
<text x="743.33" y="492" font-size="12" text-anchor="middle" fill="#555555">78</text>
<line x1="751.82" y1="60" x2="751.82" y2="470" stroke="#f3f4f6" stroke-width="1"/>
<text x="751.82" y="492" font-size="12" text-anchor="middle" fill="#555555">79</text>
<line x1="760.30" y1="60" x2="760.30" y2="470" stroke="#f3f4f6" stroke-width="1"/>
<text x="760.30" y="492" font-size="12" text-anchor="middle" fill="#555555">80</text>
<line x1="768.79" y1="60" x2="768.79" y2="470" stroke="#f3f4f6" stroke-width="1"/>
<text x="768.79" y="492" font-size="12" text-anchor="middle" fill="#555555">81</text>
<line x1="777.27" y1="60" x2="777.27" y2="470" stroke="#f3f4f6" stroke-width="1"/>
<text x="777.27" y="492" font-size="12" text-anchor="middle" fill="#555555">82</text>
<line x1="785.76" y1="60" x2="785.76" y2="470" stroke="#f3f4f6" stroke-width="1"/>
<text x="785.76" y="492" font-size="12" text-anchor="middle" fill="#555555">83</text>
<line x1="794.24" y1="60" x2="794.24" y2="470" stroke="#f3f4f6" stroke-width="1"/>
<text x="794.24" y="492" font-size="12" text-anchor="middle" fill="#555555">84</text>
<line x1="802.73" y1="60" x2="802.73" y2="470" stroke="#f3f4f6" stroke-width="1"/>
<text x="802.73" y="492" font-size="12" text-anchor="middle" fill="#555555">85</text>
<line x1="811.21" y1="60" x2="811.21" y2="470" stroke="#f3f4f6" stroke-width="1"/>
<text x="811.21" y="492" font-size="12" text-anchor="middle" fill="#555555">86</text>
<line x1="819.70" y1="60" x2="819.70" y2="470" stroke="#f3f4f6" stroke-width="1"/>
<text x="819.70" y="492" font-size="12" text-anchor="middle" fill="#555555">87</text>
<line x1="828.18" y1="60" x2="828.18" y2="470" stroke="#f3f4f6" stroke-width="1"/>
<text x="828.18" y="492" font-size="12" text-anchor="middle" fill="#555555">88</text>
<line x1="836.67" y1="60" x2="836.67" y2="470" stroke="#f3f4f6" stroke-width="1"/>
<text x="836.67" y="492" font-size="12" text-anchor="middle" fill="#555555">89</text>
<line x1="845.15" y1="60" x2="845.15" y2="470" stroke="#f3f4f6" stroke-width="1"/>
<text x="845.15" y="492" font-size="12" text-anchor="middle" fill="#555555">90</text>
<line x1="853.64" y1="60" x2="853.64" y2="470" stroke="#f3f4f6" stroke-width="1"/>
<text x="853.64" y="492" font-size="12" text-anchor="middle" fill="#555555">91</text>
<line x1="862.12" y1="60" x2="862.12" y2="470" stroke="#f3f4f6" stroke-width="1"/>
<text x="862.12" y="492" font-size="12" text-anchor="middle" fill="#555555">92</text>
<line x1="870.61" y1="60" x2="870.61" y2="470" stroke="#f3f4f6" stroke-width="1"/>
<text x="870.61" y="492" font-size="12" text-anchor="middle" fill="#555555">93</text>
<line x1="879.09" y1="60" x2="879.09" y2="470" stroke="#f3f4f6" stroke-width="1"/>
<text x="879.09" y="492" font-size="12" text-anchor="middle" fill="#555555">94</text>
<line x1="887.58" y1="60" x2="887.58" y2="470" stroke="#f3f4f6" stroke-width="1"/>
<text x="887.58" y="492" font-size="12" text-anchor="middle" fill="#555555">95</text>
<line x1="896.06" y1="60" x2="896.06" y2="470" stroke="#f3f4f6" stroke-width="1"/>
<text x="896.06" y="492" font-size="12" text-anchor="middle" fill="#555555">96</text>
<line x1="904.55" y1="60" x2="904.55" y2="470" stroke="#f3f4f6" stroke-width="1"/>
<text x="904.55" y="492" font-size="12" text-anchor="middle" fill="#555555">97</text>
<line x1="913.03" y1="60" x2="913.03" y2="470" stroke="#f3f4f6" stroke-width="1"/>
<text x="913.03" y="492" font-size="12" text-anchor="middle" fill="#555555">98</text>
<line x1="921.52" y1="60" x2="921.52" y2="470" stroke="#f3f4f6" stroke-width="1"/>
<text x="921.52" y="492" font-size="12" text-anchor="middle" fill="#555555">99</text>
<line x1="930.00" y1="60" x2="930.00" y2="470" stroke="#f3f4f6" stroke-width="1"/>
<text x="930.00" y="492" font-size="12" text-anchor="middle" fill="#555555">100</text>
<polyline fill="none" stroke="#d97706" stroke-width="3" points="90.00,435.76 98.48,167.20 106.97,128.59 115.45,131.64 123.94,114.08 132.42,115.56 140.91,110.65 149.39,250.98 157.88,108.60 166.36,144.26 174.85,105.03 183.33,104.53 191.82,103.24 200.30,101.62 208.79,106.20 217.27,108.89 225.76,103.29 234.24,104.15 242.73,118.61 251.21,100.86 259.70,99.79 268.18,99.62 276.67,105.29 285.15,116.73 293.64,106.01 302.12,99.96 310.61,99.05 319.09,106.79 327.58,99.76 336.06,102.81 344.55,98.14 353.03,101.07 361.52,99.67 370.00,102.58 378.48,99.50 386.97,99.98 395.45,100.69 403.94,98.31 412.42,102.31 420.91,101.38 429.39,101.00 437.88,100.10 446.36,101.17 454.85,99.76 463.33,100.10 471.82,104.05 480.30,100.07 488.79,101.17 497.27,100.57 505.76,99.12 514.24,96.36 522.73,96.02 531.21,95.69 539.70,95.72 548.18,95.62 556.67,95.83 565.15,95.67 573.64,95.57 582.12,95.55 590.61,95.19 599.09,95.24 607.58,95.12 616.06,94.79 624.55,95.10 633.03,95.17 641.52,95.83 650.00,95.60 658.48,95.29 666.97,95.07 675.45,94.64 683.94,95.07 692.42,95.02 700.91,94.91 709.39,94.83 717.88,95.07 726.36,94.79 734.85,94.71 743.33,95.24 751.82,95.64 760.30,95.76 768.79,95.07 777.27,95.29 785.76,95.45 794.24,94.95 802.73,95.98 811.21,95.88 819.70,95.48 828.18,95.52 836.67,95.81 845.15,95.45 853.64,95.48 862.12,95.21 870.61,95.31 879.09,95.19 887.58,95.45 896.06,96.00 904.55,95.57 913.03,95.43 921.52,95.10 930.00,95.93"/>
<circle cx="90.00" cy="435.76" r="4.5" fill="#d97706" fill-opacity="0.9"/>
<circle cx="98.48" cy="167.20" r="4.5" fill="#d97706" fill-opacity="0.9"/>
<circle cx="106.97" cy="128.59" r="4.5" fill="#d97706" fill-opacity="0.9"/>
<circle cx="115.45" cy="131.64" r="4.5" fill="#d97706" fill-opacity="0.9"/>
<circle cx="123.94" cy="114.08" r="4.5" fill="#d97706" fill-opacity="0.9"/>
<circle cx="132.42" cy="115.56" r="4.5" fill="#d97706" fill-opacity="0.9"/>
<circle cx="140.91" cy="110.65" r="4.5" fill="#d97706" fill-opacity="0.9"/>
<circle cx="149.39" cy="250.98" r="4.5" fill="#d97706" fill-opacity="0.9"/>
<circle cx="157.88" cy="108.60" r="4.5" fill="#d97706" fill-opacity="0.9"/>
<circle cx="166.36" cy="144.26" r="4.5" fill="#d97706" fill-opacity="0.9"/>
<circle cx="174.85" cy="105.03" r="4.5" fill="#d97706" fill-opacity="0.9"/>
<circle cx="183.33" cy="104.53" r="4.5" fill="#d97706" fill-opacity="0.9"/>
<circle cx="191.82" cy="103.24" r="4.5" fill="#d97706" fill-opacity="0.9"/>
<circle cx="200.30" cy="101.62" r="4.5" fill="#d97706" fill-opacity="0.9"/>
<circle cx="208.79" cy="106.20" r="4.5" fill="#d97706" fill-opacity="0.9"/>
<circle cx="217.27" cy="108.89" r="4.5" fill="#d97706" fill-opacity="0.9"/>
<circle cx="225.76" cy="103.29" r="4.5" fill="#d97706" fill-opacity="0.9"/>
<circle cx="234.24" cy="104.15" r="4.5" fill="#d97706" fill-opacity="0.9"/>
<circle cx="242.73" cy="118.61" r="4.5" fill="#d97706" fill-opacity="0.9"/>
<circle cx="251.21" cy="100.86" r="4.5" fill="#d97706" fill-opacity="0.9"/>
<circle cx="259.70" cy="99.79" r="4.5" fill="#d97706" fill-opacity="0.9"/>
<circle cx="268.18" cy="99.62" r="4.5" fill="#d97706" fill-opacity="0.9"/>
<circle cx="276.67" cy="105.29" r="4.5" fill="#d97706" fill-opacity="0.9"/>
<circle cx="285.15" cy="116.73" r="4.5" fill="#d97706" fill-opacity="0.9"/>
<circle cx="293.64" cy="106.01" r="4.5" fill="#d97706" fill-opacity="0.9"/>
<circle cx="302.12" cy="99.96" r="4.5" fill="#d97706" fill-opacity="0.9"/>
<circle cx="310.61" cy="99.05" r="4.5" fill="#d97706" fill-opacity="0.9"/>
<circle cx="319.09" cy="106.79" r="4.5" fill="#d97706" fill-opacity="0.9"/>
<circle cx="327.58" cy="99.76" r="4.5" fill="#d97706" fill-opacity="0.9"/>
<circle cx="336.06" cy="102.81" r="4.5" fill="#d97706" fill-opacity="0.9"/>
<circle cx="344.55" cy="98.14" r="4.5" fill="#d97706" fill-opacity="0.9"/>
<circle cx="353.03" cy="101.07" r="4.5" fill="#d97706" fill-opacity="0.9"/>
<circle cx="361.52" cy="99.67" r="4.5" fill="#d97706" fill-opacity="0.9"/>
<circle cx="370.00" cy="102.58" r="4.5" fill="#d97706" fill-opacity="0.9"/>
<circle cx="378.48" cy="99.50" r="4.5" fill="#d97706" fill-opacity="0.9"/>
<circle cx="386.97" cy="99.98" r="4.5" fill="#d97706" fill-opacity="0.9"/>
<circle cx="395.45" cy="100.69" r="4.5" fill="#d97706" fill-opacity="0.9"/>
<circle cx="403.94" cy="98.31" r="4.5" fill="#d97706" fill-opacity="0.9"/>
<circle cx="412.42" cy="102.31" r="4.5" fill="#d97706" fill-opacity="0.9"/>
<circle cx="420.91" cy="101.38" r="4.5" fill="#d97706" fill-opacity="0.9"/>
<circle cx="429.39" cy="101.00" r="4.5" fill="#d97706" fill-opacity="0.9"/>
<circle cx="437.88" cy="100.10" r="4.5" fill="#d97706" fill-opacity="0.9"/>
<circle cx="446.36" cy="101.17" r="4.5" fill="#d97706" fill-opacity="0.9"/>
<circle cx="454.85" cy="99.76" r="4.5" fill="#d97706" fill-opacity="0.9"/>
<circle cx="463.33" cy="100.10" r="4.5" fill="#d97706" fill-opacity="0.9"/>
<circle cx="471.82" cy="104.05" r="4.5" fill="#d97706" fill-opacity="0.9"/>
<circle cx="480.30" cy="100.07" r="4.5" fill="#d97706" fill-opacity="0.9"/>
<circle cx="488.79" cy="101.17" r="4.5" fill="#d97706" fill-opacity="0.9"/>
<circle cx="497.27" cy="100.57" r="4.5" fill="#d97706" fill-opacity="0.9"/>
<circle cx="505.76" cy="99.12" r="4.5" fill="#d97706" fill-opacity="0.9"/>
<circle cx="514.24" cy="96.36" r="4.5" fill="#d97706" fill-opacity="0.9"/>
<circle cx="522.73" cy="96.02" r="4.5" fill="#d97706" fill-opacity="0.9"/>
<circle cx="531.21" cy="95.69" r="4.5" fill="#d97706" fill-opacity="0.9"/>
<circle cx="539.70" cy="95.72" r="4.5" fill="#d97706" fill-opacity="0.9"/>
<circle cx="548.18" cy="95.62" r="4.5" fill="#d97706" fill-opacity="0.9"/>
<circle cx="556.67" cy="95.83" r="4.5" fill="#d97706" fill-opacity="0.9"/>
<circle cx="565.15" cy="95.67" r="4.5" fill="#d97706" fill-opacity="0.9"/>
<circle cx="573.64" cy="95.57" r="4.5" fill="#d97706" fill-opacity="0.9"/>
<circle cx="582.12" cy="95.55" r="4.5" fill="#d97706" fill-opacity="0.9"/>
<circle cx="590.61" cy="95.19" r="4.5" fill="#d97706" fill-opacity="0.9"/>
<circle cx="599.09" cy="95.24" r="4.5" fill="#d97706" fill-opacity="0.9"/>
<circle cx="607.58" cy="95.12" r="4.5" fill="#d97706" fill-opacity="0.9"/>
<circle cx="616.06" cy="94.79" r="4.5" fill="#d97706" fill-opacity="0.9"/>
<circle cx="624.55" cy="95.10" r="4.5" fill="#d97706" fill-opacity="0.9"/>
<circle cx="633.03" cy="95.17" r="4.5" fill="#d97706" fill-opacity="0.9"/>
<circle cx="641.52" cy="95.83" r="4.5" fill="#d97706" fill-opacity="0.9"/>
<circle cx="650.00" cy="95.60" r="4.5" fill="#d97706" fill-opacity="0.9"/>
<circle cx="658.48" cy="95.29" r="4.5" fill="#d97706" fill-opacity="0.9"/>
<circle cx="666.97" cy="95.07" r="4.5" fill="#d97706" fill-opacity="0.9"/>
<circle cx="675.45" cy="94.64" r="4.5" fill="#d97706" fill-opacity="0.9"/>
<circle cx="683.94" cy="95.07" r="4.5" fill="#d97706" fill-opacity="0.9"/>
<circle cx="692.42" cy="95.02" r="4.5" fill="#d97706" fill-opacity="0.9"/>
<circle cx="700.91" cy="94.91" r="4.5" fill="#d97706" fill-opacity="0.9"/>
<circle cx="709.39" cy="94.83" r="4.5" fill="#d97706" fill-opacity="0.9"/>
<circle cx="717.88" cy="95.07" r="4.5" fill="#d97706" fill-opacity="0.9"/>
<circle cx="726.36" cy="94.79" r="4.5" fill="#d97706" fill-opacity="0.9"/>
<circle cx="734.85" cy="94.71" r="4.5" fill="#d97706" fill-opacity="0.9"/>
<circle cx="743.33" cy="95.24" r="4.5" fill="#d97706" fill-opacity="0.9"/>
<circle cx="751.82" cy="95.64" r="4.5" fill="#d97706" fill-opacity="0.9"/>
<circle cx="760.30" cy="95.76" r="4.5" fill="#d97706" fill-opacity="0.9"/>
<circle cx="768.79" cy="95.07" r="4.5" fill="#d97706" fill-opacity="0.9"/>
<circle cx="777.27" cy="95.29" r="4.5" fill="#d97706" fill-opacity="0.9"/>
<circle cx="785.76" cy="95.45" r="4.5" fill="#d97706" fill-opacity="0.9"/>
<circle cx="794.24" cy="94.95" r="4.5" fill="#d97706" fill-opacity="0.9"/>
<circle cx="802.73" cy="95.98" r="4.5" fill="#d97706" fill-opacity="0.9"/>
<circle cx="811.21" cy="95.88" r="4.5" fill="#d97706" fill-opacity="0.9"/>
<circle cx="819.70" cy="95.48" r="4.5" fill="#d97706" fill-opacity="0.9"/>
<circle cx="828.18" cy="95.52" r="4.5" fill="#d97706" fill-opacity="0.9"/>
<circle cx="836.67" cy="95.81" r="4.5" fill="#d97706" fill-opacity="0.9"/>
<circle cx="845.15" cy="95.45" r="4.5" fill="#d97706" fill-opacity="0.9"/>
<circle cx="853.64" cy="95.48" r="4.5" fill="#d97706" fill-opacity="0.9"/>
<circle cx="862.12" cy="95.21" r="4.5" fill="#d97706" fill-opacity="0.9"/>
<circle cx="870.61" cy="95.31" r="4.5" fill="#d97706" fill-opacity="0.9"/>
<circle cx="879.09" cy="95.19" r="4.5" fill="#d97706" fill-opacity="0.9"/>
<circle cx="887.58" cy="95.45" r="4.5" fill="#d97706" fill-opacity="0.9"/>
<circle cx="896.06" cy="96.00" r="4.5" fill="#d97706" fill-opacity="0.9"/>
<circle cx="904.55" cy="95.57" r="4.5" fill="#d97706" fill-opacity="0.9"/>
<circle cx="913.03" cy="95.43" r="4.5" fill="#d97706" fill-opacity="0.9"/>
<circle cx="921.52" cy="95.10" r="4.5" fill="#d97706" fill-opacity="0.9"/>
<circle cx="930.00" cy="95.93" r="4.5" fill="#d97706" fill-opacity="0.9"/>
<rect x="90" y="32" width="18" height="6" fill="#d97706"/>
<text x="114" y="38" font-size="13" fill="#333333">val</text>
<polyline fill="none" stroke="#059669" stroke-width="3" points="90.00,435.83 98.48,169.27 106.97,129.52 115.45,133.19 123.94,113.96 132.42,117.82 140.91,111.77 149.39,252.65 157.88,108.39 166.36,145.07 174.85,105.31 183.33,105.43 191.82,101.74 200.30,102.77 208.79,108.01 217.27,109.29 225.76,103.50 234.24,105.74 242.73,118.87 251.21,101.17 259.70,99.53 268.18,99.50 276.67,105.48 285.15,115.96 293.64,104.70 302.12,99.38 310.61,99.38 319.09,107.01 327.58,100.53 336.06,102.48 344.55,98.53 353.03,100.43 361.52,99.31 370.00,101.79 378.48,99.38 386.97,99.31 395.45,101.60 403.94,99.36 412.42,102.10 420.91,100.55 429.39,100.79 437.88,99.26 446.36,101.86 454.85,100.53 463.33,99.67 471.82,104.00 480.30,101.07 488.79,100.74 497.27,100.07 505.76,98.50 514.24,95.88 522.73,95.76 531.21,95.60 539.70,96.10 548.18,95.43 556.67,95.17 565.15,95.38 573.64,95.00 582.12,95.12 590.61,94.50 599.09,94.86 607.58,94.91 616.06,95.10 624.55,94.74 633.03,94.67 641.52,95.07 650.00,94.83 658.48,94.52 666.97,94.79 675.45,94.40 683.94,94.29 692.42,94.93 700.91,95.02 709.39,94.88 717.88,94.88 726.36,95.21 734.85,95.00 743.33,94.81 751.82,94.57 760.30,95.36 768.79,95.19 777.27,94.93 785.76,94.76 794.24,95.05 802.73,95.88 811.21,95.45 819.70,95.00 828.18,95.05 836.67,95.24 845.15,94.88 853.64,94.88 862.12,94.76 870.61,94.83 879.09,94.95 887.58,94.95 896.06,95.24 904.55,94.24 913.03,94.52 921.52,94.17 930.00,95.38"/>
<circle cx="90.00" cy="435.83" r="4.5" fill="#059669" fill-opacity="0.9"/>
<circle cx="98.48" cy="169.27" r="4.5" fill="#059669" fill-opacity="0.9"/>
<circle cx="106.97" cy="129.52" r="4.5" fill="#059669" fill-opacity="0.9"/>
<circle cx="115.45" cy="133.19" r="4.5" fill="#059669" fill-opacity="0.9"/>
<circle cx="123.94" cy="113.96" r="4.5" fill="#059669" fill-opacity="0.9"/>
<circle cx="132.42" cy="117.82" r="4.5" fill="#059669" fill-opacity="0.9"/>
<circle cx="140.91" cy="111.77" r="4.5" fill="#059669" fill-opacity="0.9"/>
<circle cx="149.39" cy="252.65" r="4.5" fill="#059669" fill-opacity="0.9"/>
<circle cx="157.88" cy="108.39" r="4.5" fill="#059669" fill-opacity="0.9"/>
<circle cx="166.36" cy="145.07" r="4.5" fill="#059669" fill-opacity="0.9"/>
<circle cx="174.85" cy="105.31" r="4.5" fill="#059669" fill-opacity="0.9"/>
<circle cx="183.33" cy="105.43" r="4.5" fill="#059669" fill-opacity="0.9"/>
<circle cx="191.82" cy="101.74" r="4.5" fill="#059669" fill-opacity="0.9"/>
<circle cx="200.30" cy="102.77" r="4.5" fill="#059669" fill-opacity="0.9"/>
<circle cx="208.79" cy="108.01" r="4.5" fill="#059669" fill-opacity="0.9"/>
<circle cx="217.27" cy="109.29" r="4.5" fill="#059669" fill-opacity="0.9"/>
<circle cx="225.76" cy="103.50" r="4.5" fill="#059669" fill-opacity="0.9"/>
<circle cx="234.24" cy="105.74" r="4.5" fill="#059669" fill-opacity="0.9"/>
<circle cx="242.73" cy="118.87" r="4.5" fill="#059669" fill-opacity="0.9"/>
<circle cx="251.21" cy="101.17" r="4.5" fill="#059669" fill-opacity="0.9"/>
<circle cx="259.70" cy="99.53" r="4.5" fill="#059669" fill-opacity="0.9"/>
<circle cx="268.18" cy="99.50" r="4.5" fill="#059669" fill-opacity="0.9"/>
<circle cx="276.67" cy="105.48" r="4.5" fill="#059669" fill-opacity="0.9"/>
<circle cx="285.15" cy="115.96" r="4.5" fill="#059669" fill-opacity="0.9"/>
<circle cx="293.64" cy="104.70" r="4.5" fill="#059669" fill-opacity="0.9"/>
<circle cx="302.12" cy="99.38" r="4.5" fill="#059669" fill-opacity="0.9"/>
<circle cx="310.61" cy="99.38" r="4.5" fill="#059669" fill-opacity="0.9"/>
<circle cx="319.09" cy="107.01" r="4.5" fill="#059669" fill-opacity="0.9"/>
<circle cx="327.58" cy="100.53" r="4.5" fill="#059669" fill-opacity="0.9"/>
<circle cx="336.06" cy="102.48" r="4.5" fill="#059669" fill-opacity="0.9"/>
<circle cx="344.55" cy="98.53" r="4.5" fill="#059669" fill-opacity="0.9"/>
<circle cx="353.03" cy="100.43" r="4.5" fill="#059669" fill-opacity="0.9"/>
<circle cx="361.52" cy="99.31" r="4.5" fill="#059669" fill-opacity="0.9"/>
<circle cx="370.00" cy="101.79" r="4.5" fill="#059669" fill-opacity="0.9"/>
<circle cx="378.48" cy="99.38" r="4.5" fill="#059669" fill-opacity="0.9"/>
<circle cx="386.97" cy="99.31" r="4.5" fill="#059669" fill-opacity="0.9"/>
<circle cx="395.45" cy="101.60" r="4.5" fill="#059669" fill-opacity="0.9"/>
<circle cx="403.94" cy="99.36" r="4.5" fill="#059669" fill-opacity="0.9"/>
<circle cx="412.42" cy="102.10" r="4.5" fill="#059669" fill-opacity="0.9"/>
<circle cx="420.91" cy="100.55" r="4.5" fill="#059669" fill-opacity="0.9"/>
<circle cx="429.39" cy="100.79" r="4.5" fill="#059669" fill-opacity="0.9"/>
<circle cx="437.88" cy="99.26" r="4.5" fill="#059669" fill-opacity="0.9"/>
<circle cx="446.36" cy="101.86" r="4.5" fill="#059669" fill-opacity="0.9"/>
<circle cx="454.85" cy="100.53" r="4.5" fill="#059669" fill-opacity="0.9"/>
<circle cx="463.33" cy="99.67" r="4.5" fill="#059669" fill-opacity="0.9"/>
<circle cx="471.82" cy="104.00" r="4.5" fill="#059669" fill-opacity="0.9"/>
<circle cx="480.30" cy="101.07" r="4.5" fill="#059669" fill-opacity="0.9"/>
<circle cx="488.79" cy="100.74" r="4.5" fill="#059669" fill-opacity="0.9"/>
<circle cx="497.27" cy="100.07" r="4.5" fill="#059669" fill-opacity="0.9"/>
<circle cx="505.76" cy="98.50" r="4.5" fill="#059669" fill-opacity="0.9"/>
<circle cx="514.24" cy="95.88" r="4.5" fill="#059669" fill-opacity="0.9"/>
<circle cx="522.73" cy="95.76" r="4.5" fill="#059669" fill-opacity="0.9"/>
<circle cx="531.21" cy="95.60" r="4.5" fill="#059669" fill-opacity="0.9"/>
<circle cx="539.70" cy="96.10" r="4.5" fill="#059669" fill-opacity="0.9"/>
<circle cx="548.18" cy="95.43" r="4.5" fill="#059669" fill-opacity="0.9"/>
<circle cx="556.67" cy="95.17" r="4.5" fill="#059669" fill-opacity="0.9"/>
<circle cx="565.15" cy="95.38" r="4.5" fill="#059669" fill-opacity="0.9"/>
<circle cx="573.64" cy="95.00" r="4.5" fill="#059669" fill-opacity="0.9"/>
<circle cx="582.12" cy="95.12" r="4.5" fill="#059669" fill-opacity="0.9"/>
<circle cx="590.61" cy="94.50" r="4.5" fill="#059669" fill-opacity="0.9"/>
<circle cx="599.09" cy="94.86" r="4.5" fill="#059669" fill-opacity="0.9"/>
<circle cx="607.58" cy="94.91" r="4.5" fill="#059669" fill-opacity="0.9"/>
<circle cx="616.06" cy="95.10" r="4.5" fill="#059669" fill-opacity="0.9"/>
<circle cx="624.55" cy="94.74" r="4.5" fill="#059669" fill-opacity="0.9"/>
<circle cx="633.03" cy="94.67" r="4.5" fill="#059669" fill-opacity="0.9"/>
<circle cx="641.52" cy="95.07" r="4.5" fill="#059669" fill-opacity="0.9"/>
<circle cx="650.00" cy="94.83" r="4.5" fill="#059669" fill-opacity="0.9"/>
<circle cx="658.48" cy="94.52" r="4.5" fill="#059669" fill-opacity="0.9"/>
<circle cx="666.97" cy="94.79" r="4.5" fill="#059669" fill-opacity="0.9"/>
<circle cx="675.45" cy="94.40" r="4.5" fill="#059669" fill-opacity="0.9"/>
<circle cx="683.94" cy="94.29" r="4.5" fill="#059669" fill-opacity="0.9"/>
<circle cx="692.42" cy="94.93" r="4.5" fill="#059669" fill-opacity="0.9"/>
<circle cx="700.91" cy="95.02" r="4.5" fill="#059669" fill-opacity="0.9"/>
<circle cx="709.39" cy="94.88" r="4.5" fill="#059669" fill-opacity="0.9"/>
<circle cx="717.88" cy="94.88" r="4.5" fill="#059669" fill-opacity="0.9"/>
<circle cx="726.36" cy="95.21" r="4.5" fill="#059669" fill-opacity="0.9"/>
<circle cx="734.85" cy="95.00" r="4.5" fill="#059669" fill-opacity="0.9"/>
<circle cx="743.33" cy="94.81" r="4.5" fill="#059669" fill-opacity="0.9"/>
<circle cx="751.82" cy="94.57" r="4.5" fill="#059669" fill-opacity="0.9"/>
<circle cx="760.30" cy="95.36" r="4.5" fill="#059669" fill-opacity="0.9"/>
<circle cx="768.79" cy="95.19" r="4.5" fill="#059669" fill-opacity="0.9"/>
<circle cx="777.27" cy="94.93" r="4.5" fill="#059669" fill-opacity="0.9"/>
<circle cx="785.76" cy="94.76" r="4.5" fill="#059669" fill-opacity="0.9"/>
<circle cx="794.24" cy="95.05" r="4.5" fill="#059669" fill-opacity="0.9"/>
<circle cx="802.73" cy="95.88" r="4.5" fill="#059669" fill-opacity="0.9"/>
<circle cx="811.21" cy="95.45" r="4.5" fill="#059669" fill-opacity="0.9"/>
<circle cx="819.70" cy="95.00" r="4.5" fill="#059669" fill-opacity="0.9"/>
<circle cx="828.18" cy="95.05" r="4.5" fill="#059669" fill-opacity="0.9"/>
<circle cx="836.67" cy="95.24" r="4.5" fill="#059669" fill-opacity="0.9"/>
<circle cx="845.15" cy="94.88" r="4.5" fill="#059669" fill-opacity="0.9"/>
<circle cx="853.64" cy="94.88" r="4.5" fill="#059669" fill-opacity="0.9"/>
<circle cx="862.12" cy="94.76" r="4.5" fill="#059669" fill-opacity="0.9"/>
<circle cx="870.61" cy="94.83" r="4.5" fill="#059669" fill-opacity="0.9"/>
<circle cx="879.09" cy="94.95" r="4.5" fill="#059669" fill-opacity="0.9"/>
<circle cx="887.58" cy="94.95" r="4.5" fill="#059669" fill-opacity="0.9"/>
<circle cx="896.06" cy="95.24" r="4.5" fill="#059669" fill-opacity="0.9"/>
<circle cx="904.55" cy="94.24" r="4.5" fill="#059669" fill-opacity="0.9"/>
<circle cx="913.03" cy="94.52" r="4.5" fill="#059669" fill-opacity="0.9"/>
<circle cx="921.52" cy="94.17" r="4.5" fill="#059669" fill-opacity="0.9"/>
<circle cx="930.00" cy="95.38" r="4.5" fill="#059669" fill-opacity="0.9"/>
<rect x="270" y="32" width="18" height="6" fill="#059669"/>
<text x="294" y="38" font-size="13" fill="#333333">test</text>
</svg>