<svg xmlns="http://www.w3.org/2000/svg" width="960" height="540">
<rect width="100%" height="100%" fill="#ffffff"/>
<text x="480.0" y="30" font-size="22" text-anchor="middle" fill="#111111">Edit Distance</text>
<text x="20" y="270.0" font-size="16" transform="rotate(-90 20,270.0)" text-anchor="middle" fill="#333333">Distance</text>
<text x="480.0" y="520" font-size="16" text-anchor="middle" fill="#333333">Epoch</text>
<line x1="90" y1="60" x2="90" y2="470" stroke="#333333" stroke-width="2"/>
<line x1="90" y1="470" x2="930" y2="470" stroke="#333333" stroke-width="2"/>
<line x1="90" y1="470.00" x2="930" y2="470.00" stroke="#e5e7eb" stroke-width="1"/>
<text x="80" y="475.00" font-size="12" text-anchor="end" fill="#555555">-0.4348</text>
<line x1="90" y1="367.50" x2="930" y2="367.50" stroke="#e5e7eb" stroke-width="1"/>
<text x="80" y="372.50" font-size="12" text-anchor="end" fill="#555555">1.0070</text>
<line x1="90" y1="265.00" x2="930" y2="265.00" stroke="#e5e7eb" stroke-width="1"/>
<text x="80" y="270.00" font-size="12" text-anchor="end" fill="#555555">2.4488</text>
<line x1="90" y1="162.50" x2="930" y2="162.50" stroke="#e5e7eb" stroke-width="1"/>
<text x="80" y="167.50" font-size="12" text-anchor="end" fill="#555555">3.8907</text>
<line x1="90" y1="60.00" x2="930" y2="60.00" stroke="#e5e7eb" stroke-width="1"/>
<text x="80" y="65.00" font-size="12" text-anchor="end" fill="#555555">5.3325</text>
<line x1="90.00" y1="60" x2="90.00" y2="470" stroke="#f3f4f6" stroke-width="1"/>
<text x="90.00" y="492" font-size="12" text-anchor="middle" fill="#555555">1</text>
<line x1="98.48" y1="60" x2="98.48" y2="470" stroke="#f3f4f6" stroke-width="1"/>
<text x="98.48" y="492" font-size="12" text-anchor="middle" fill="#555555">2</text>
<line x1="106.97" y1="60" x2="106.97" y2="470" stroke="#f3f4f6" stroke-width="1"/>
<text x="106.97" y="492" font-size="12" text-anchor="middle" fill="#555555">3</text>
<line x1="115.45" y1="60" x2="115.45" y2="470" stroke="#f3f4f6" stroke-width="1"/>
<text x="115.45" y="492" font-size="12" text-anchor="middle" fill="#555555">4</text>
<line x1="123.94" y1="60" x2="123.94" y2="470" stroke="#f3f4f6" stroke-width="1"/>
<text x="123.94" y="492" font-size="12" text-anchor="middle" fill="#555555">5</text>
<line x1="132.42" y1="60" x2="132.42" y2="470" stroke="#f3f4f6" stroke-width="1"/>
<text x="132.42" y="492" font-size="12" text-anchor="middle" fill="#555555">6</text>
<line x1="140.91" y1="60" x2="140.91" y2="470" stroke="#f3f4f6" stroke-width="1"/>
<text x="140.91" y="492" font-size="12" text-anchor="middle" fill="#555555">7</text>
<line x1="149.39" y1="60" x2="149.39" y2="470" stroke="#f3f4f6" stroke-width="1"/>
<text x="149.39" y="492" font-size="12" text-anchor="middle" fill="#555555">8</text>
<line x1="157.88" y1="60" x2="157.88" y2="470" stroke="#f3f4f6" stroke-width="1"/>
<text x="157.88" y="492" font-size="12" text-anchor="middle" fill="#555555">9</text>
<line x1="166.36" y1="60" x2="166.36" y2="470" stroke="#f3f4f6" stroke-width="1"/>
<text x="166.36" y="492" font-size="12" text-anchor="middle" fill="#555555">10</text>
<line x1="174.85" y1="60" x2="174.85" y2="470" stroke="#f3f4f6" stroke-width="1"/>
<text x="174.85" y="492" font-size="12" text-anchor="middle" fill="#555555">11</text>
<line x1="183.33" y1="60" x2="183.33" y2="470" stroke="#f3f4f6" stroke-width="1"/>
<text x="183.33" y="492" font-size="12" text-anchor="middle" fill="#555555">12</text>
<line x1="191.82" y1="60" x2="191.82" y2="470" stroke="#f3f4f6" stroke-width="1"/>
<text x="191.82" y="492" font-size="12" text-anchor="middle" fill="#555555">13</text>
<line x1="200.30" y1="60" x2="200.30" y2="470" stroke="#f3f4f6" stroke-width="1"/>
<text x="200.30" y="492" font-size="12" text-anchor="middle" fill="#555555">14</text>
<line x1="208.79" y1="60" x2="208.79" y2="470" stroke="#f3f4f6" stroke-width="1"/>
<text x="208.79" y="492" font-size="12" text-anchor="middle" fill="#555555">15</text>
<line x1="217.27" y1="60" x2="217.27" y2="470" stroke="#f3f4f6" stroke-width="1"/>
<text x="217.27" y="492" font-size="12" text-anchor="middle" fill="#555555">16</text>
<line x1="225.76" y1="60" x2="225.76" y2="470" stroke="#f3f4f6" stroke-width="1"/>
<text x="225.76" y="492" font-size="12" text-anchor="middle" fill="#555555">17</text>
<line x1="234.24" y1="60" x2="234.24" y2="470" stroke="#f3f4f6" stroke-width="1"/>
<text x="234.24" y="492" font-size="12" text-anchor="middle" fill="#555555">18</text>
<line x1="242.73" y1="60" x2="242.73" y2="470" stroke="#f3f4f6" stroke-width="1"/>
<text x="242.73" y="492" font-size="12" text-anchor="middle" fill="#555555">19</text>
<line x1="251.21" y1="60" x2="251.21" y2="470" stroke="#f3f4f6" stroke-width="1"/>
<text x="251.21" y="492" font-size="12" text-anchor="middle" fill="#555555">20</text>
<line x1="259.70" y1="60" x2="259.70" y2="470" stroke="#f3f4f6" stroke-width="1"/>
<text x="259.70" y="492" font-size="12" text-anchor="middle" fill="#555555">21</text>
<line x1="268.18" y1="60" x2="268.18" y2="470" stroke="#f3f4f6" stroke-width="1"/>
<text x="268.18" y="492" font-size="12" text-anchor="middle" fill="#555555">22</text>
<line x1="276.67" y1="60" x2="276.67" y2="470" stroke="#f3f4f6" stroke-width="1"/>
<text x="276.67" y="492" font-size="12" text-anchor="middle" fill="#555555">23</text>
<line x1="285.15" y1="60" x2="285.15" y2="470" stroke="#f3f4f6" stroke-width="1"/>
<text x="285.15" y="492" font-size="12" text-anchor="middle" fill="#555555">24</text>
<line x1="293.64" y1="60" x2="293.64" y2="470" stroke="#f3f4f6" stroke-width="1"/>
<text x="293.64" y="492" font-size="12" text-anchor="middle" fill="#555555">25</text>
<line x1="302.12" y1="60" x2="302.12" y2="470" stroke="#f3f4f6" stroke-width="1"/>
<text x="302.12" y="492" font-size="12" text-anchor="middle" fill="#555555">26</text>
<line x1="310.61" y1="60" x2="310.61" y2="470" stroke="#f3f4f6" stroke-width="1"/>
<text x="310.61" y="492" font-size="12" text-anchor="middle" fill="#555555">27</text>
<line x1="319.09" y1="60" x2="319.09" y2="470" stroke="#f3f4f6" stroke-width="1"/>
<text x="319.09" y="492" font-size="12" text-anchor="middle" fill="#555555">28</text>
<line x1="327.58" y1="60" x2="327.58" y2="470" stroke="#f3f4f6" stroke-width="1"/>
<text x="327.58" y="492" font-size="12" text-anchor="middle" fill="#555555">29</text>
<line x1="336.06" y1="60" x2="336.06" y2="470" stroke="#f3f4f6" stroke-width="1"/>
<text x="336.06" y="492" font-size="12" text-anchor="middle" fill="#555555">30</text>
<line x1="344.55" y1="60" x2="344.55" y2="470" stroke="#f3f4f6" stroke-width="1"/>
<text x="344.55" y="492" font-size="12" text-anchor="middle" fill="#555555">31</text>
<line x1="353.03" y1="60" x2="353.03" y2="470" stroke="#f3f4f6" stroke-width="1"/>
<text x="353.03" y="492" font-size="12" text-anchor="middle" fill="#555555">32</text>
<line x1="361.52" y1="60" x2="361.52" y2="470" stroke="#f3f4f6" stroke-width="1"/>
<text x="361.52" y="492" font-size="12" text-anchor="middle" fill="#555555">33</text>
<line x1="370.00" y1="60" x2="370.00" y2="470" stroke="#f3f4f6" stroke-width="1"/>
<text x="370.00" y="492" font-size="12" text-anchor="middle" fill="#555555">34</text>
<line x1="378.48" y1="60" x2="378.48" y2="470" stroke="#f3f4f6" stroke-width="1"/>
<text x="378.48" y="492" font-size="12" text-anchor="middle" fill="#555555">35</text>
<line x1="386.97" y1="60" x2="386.97" y2="470" stroke="#f3f4f6" stroke-width="1"/>
<text x="386.97" y="492" font-size="12" text-anchor="middle" fill="#555555">36</text>
<line x1="395.45" y1="60" x2="395.45" y2="470" stroke="#f3f4f6" stroke-width="1"/>
<text x="395.45" y="492" font-size="12" text-anchor="middle" fill="#555555">37</text>
<line x1="403.94" y1="60" x2="403.94" y2="470" stroke="#f3f4f6" stroke-width="1"/>
<text x="403.94" y="492" font-size="12" text-anchor="middle" fill="#555555">38</text>
<line x1="412.42" y1="60" x2="412.42" y2="470" stroke="#f3f4f6" stroke-width="1"/>
<text x="412.42" y="492" font-size="12" text-anchor="middle" fill="#555555">39</text>
<line x1="420.91" y1="60" x2="420.91" y2="470" stroke="#f3f4f6" stroke-width="1"/>
<text x="420.91" y="492" font-size="12" text-anchor="middle" fill="#555555">40</text>
<line x1="429.39" y1="60" x2="429.39" y2="470" stroke="#f3f4f6" stroke-width="1"/>
<text x="429.39" y="492" font-size="12" text-anchor="middle" fill="#555555">41</text>
<line x1="437.88" y1="60" x2="437.88" y2="470" stroke="#f3f4f6" stroke-width="1"/>
<text x="437.88" y="492" font-size="12" text-anchor="middle" fill="#555555">42</text>
<line x1="446.36" y1="60" x2="446.36" y2="470" stroke="#f3f4f6" stroke-width="1"/>
<text x="446.36" y="492" font-size="12" text-anchor="middle" fill="#555555">43</text>
<line x1="454.85" y1="60" x2="454.85" y2="470" stroke="#f3f4f6" stroke-width="1"/>
<text x="454.85" y="492" font-size="12" text-anchor="middle" fill="#555555">44</text>
<line x1="463.33" y1="60" x2="463.33" y2="470" stroke="#f3f4f6" stroke-width="1"/>
<text x="463.33" y="492" font-size="12" text-anchor="middle" fill="#555555">45</text>
<line x1="471.82" y1="60" x2="471.82" y2="470" stroke="#f3f4f6" stroke-width="1"/>
<text x="471.82" y="492" font-size="12" text-anchor="middle" fill="#555555">46</text>
<line x1="480.30" y1="60" x2="480.30" y2="470" stroke="#f3f4f6" stroke-width="1"/>
<text x="480.30" y="492" font-size="12" text-anchor="middle" fill="#555555">47</text>
<line x1="488.79" y1="60" x2="488.79" y2="470" stroke="#f3f4f6" stroke-width="1"/>
<text x="488.79" y="492" font-size="12" text-anchor="middle" fill="#555555">48</text>
<line x1="497.27" y1="60" x2="497.27" y2="470" stroke="#f3f4f6" stroke-width="1"/>
<text x="497.27" y="492" font-size="12" text-anchor="middle" fill="#555555">49</text>
<line x1="505.76" y1="60" x2="505.76" y2="470" stroke="#f3f4f6" stroke-width="1"/>
<text x="505.76" y="492" font-size="12" text-anchor="middle" fill="#555555">50</text>
<line x1="514.24" y1="60" x2="514.24" y2="470" stroke="#f3f4f6" stroke-width="1"/>
<text x="514.24" y="492" font-size="12" text-anchor="middle" fill="#555555">51</text>
<line x1="522.73" y1="60" x2="522.73" y2="470" stroke="#f3f4f6" stroke-width="1"/>
<text x="522.73" y="492" font-size="12" text-anchor="middle" fill="#555555">52</text>
<line x1="531.21" y1="60" x2="531.21" y2="470" stroke="#f3f4f6" stroke-width="1"/>
<text x="531.21" y="492" font-size="12" text-anchor="middle" fill="#555555">53</text>
<line x1="539.70" y1="60" x2="539.70" y2="470" stroke="#f3f4f6" stroke-width="1"/>
<text x="539.70" y="492" font-size="12" text-anchor="middle" fill="#555555">54</text>
<line x1="548.18" y1="60" x2="548.18" y2="470" stroke="#f3f4f6" stroke-width="1"/>
<text x="548.18" y="492" font-size="12" text-anchor="middle" fill="#555555">55</text>
<line x1="556.67" y1="60" x2="556.67" y2="470" stroke="#f3f4f6" stroke-width="1"/>
<text x="556.67" y="492" font-size="12" text-anchor="middle" fill="#555555">56</text>
<line x1="565.15" y1="60" x2="565.15" y2="470" stroke="#f3f4f6" stroke-width="1"/>
<text x="565.15" y="492" font-size="12" text-anchor="middle" fill="#555555">57</text>
<line x1="573.64" y1="60" x2="573.64" y2="470" stroke="#f3f4f6" stroke-width="1"/>
<text x="573.64" y="492" font-size="12" text-anchor="middle" fill="#555555">58</text>
<line x1="582.12" y1="60" x2="582.12" y2="470" stroke="#f3f4f6" stroke-width="1"/>
<text x="582.12" y="492" font-size="12" text-anchor="middle" fill="#555555">59</text>
<line x1="590.61" y1="60" x2="590.61" y2="470" stroke="#f3f4f6" stroke-width="1"/>
<text x="590.61" y="492" font-size="12" text-anchor="middle" fill="#555555">60</text>
<line x1="599.09" y1="60" x2="599.09" y2="470" stroke="#f3f4f6" stroke-width="1"/>
<text x="599.09" y="492" font-size="12" text-anchor="middle" fill="#555555">61</text>
<line x1="607.58" y1="60" x2="607.58" y2="470" stroke="#f3f4f6" stroke-width="1"/>
<text x="607.58" y="492" font-size="12" text-anchor="middle" fill="#555555">62</text>
<line x1="616.06" y1="60" x2="616.06" y2="470" stroke="#f3f4f6" stroke-width="1"/>
<text x="616.06" y="492" font-size="12" text-anchor="middle" fill="#555555">63</text>
<line x1="624.55" y1="60" x2="624.55" y2="470" stroke="#f3f4f6" stroke-width="1"/>
<text x="624.55" y="492" font-size="12" text-anchor="middle" fill="#555555">64</text>
<line x1="633.03" y1="60" x2="633.03" y2="470" stroke="#f3f4f6" stroke-width="1"/>
<text x="633.03" y="492" font-size="12" text-anchor="middle" fill="#555555">65</text>
<line x1="641.52" y1="60" x2="641.52" y2="470" stroke="#f3f4f6" stroke-width="1"/>
<text x="641.52" y="492" font-size="12" text-anchor="middle" fill="#555555">66</text>
<line x1="650.00" y1="60" x2="650.00" y2="470" stroke="#f3f4f6" stroke-width="1"/>
<text x="650.00" y="492" font-size="12" text-anchor="middle" fill="#555555">67</text>
<line x1="658.48" y1="60" x2="658.48" y2="470" stroke="#f3f4f6" stroke-width="1"/>
<text x="658.48" y="492" font-size="12" text-anchor="middle" fill="#555555">68</text>
<line x1="666.97" y1="60" x2="666.97" y2="470" stroke="#f3f4f6" stroke-width="1"/>
<text x="666.97" y="492" font-size="12" text-anchor="middle" fill="#555555">69</text>
<line x1="675.45" y1="60" x2="675.45" y2="470" stroke="#f3f4f6" stroke-width="1"/>
<text x="675.45" y="492" font-size="12" text-anchor="middle" fill="#555555">70</text>
<line x1="683.94" y1="60" x2="683.94" y2="470" stroke="#f3f4f6" stroke-width="1"/>
<text x="683.94" y="492" font-size="12" text-anchor="middle" fill="#555555">71</text>
<line x1="692.42" y1="60" x2="692.42" y2="470" stroke="#f3f4f6" stroke-width="1"/>
<text x="692.42" y="492" font-size="12" text-anchor="middle" fill="#555555">72</text>
<line x1="700.91" y1="60" x2="700.91" y2="470" stroke="#f3f4f6" stroke-width="1"/>
<text x="700.91" y="492" font-size="12" text-anchor="middle" fill="#555555">73</text>
<line x1="709.39" y1="60" x2="709.39" y2="470" stroke="#f3f4f6" stroke-width="1"/>
<text x="709.39" y="492" font-size="12" text-anchor="middle" fill="#555555">74</text>
<line x1="717.88" y1="60" x2="717.88" y2="470" stroke="#f3f4f6" stroke-width="1"/>
<text x="717.88" y="492" font-size="12" text-anchor="middle" fill="#555555">75</text>
<line x1="726.36" y1="60" x2="726.36" y2="470" stroke="#f3f4f6" stroke-width="1"/>
<text x="726.36" y="492" font-size="12" text-anchor="middle" fill="#555555">76</text>
<line x1="734.85" y1="60" x2="734.85" y2="470" stroke="#f3f4f6" stroke-width="1"/>
<text x="734.85" y="492" font-size="12" text-anchor="middle" fill="#555555">77</text>
<line x1="743.33" y1="60" x2="743.33" y2="470" stroke="#f3f4f6" stroke-width="1"/>
<text x="743.33" y="492" font-size="12" text-anchor="middle" fill="#555555">78</text>
<line x1="751.82" y1="60" x2="751.82" y2="470" stroke="#f3f4f6" stroke-width="1"/>
<text x="751.82" y="492" font-size="12" text-anchor="middle" fill="#555555">79</text>
<line x1="760.30" y1="60" x2="760.30" y2="470" stroke="#f3f4f6" stroke-width="1"/>
<text x="760.30" y="492" font-size="12" text-anchor="middle" fill="#555555">80</text>
<line x1="768.79" y1="60" x2="768.79" y2="470" stroke="#f3f4f6" stroke-width="1"/>
<text x="768.79" y="492" font-size="12" text-anchor="middle" fill="#555555">81</text>
<line x1="777.27" y1="60" x2="777.27" y2="470" stroke="#f3f4f6" stroke-width="1"/>
<text x="777.27" y="492" font-size="12" text-anchor="middle" fill="#555555">82</text>
<line x1="785.76" y1="60" x2="785.76" y2="470" stroke="#f3f4f6" stroke-width="1"/>
<text x="785.76" y="492" font-size="12" text-anchor="middle" fill="#555555">83</text>
<line x1="794.24" y1="60" x2="794.24" y2="470" stroke="#f3f4f6" stroke-width="1"/>
<text x="794.24" y="492" font-size="12" text-anchor="middle" fill="#555555">84</text>
<line x1="802.73" y1="60" x2="802.73" y2="470" stroke="#f3f4f6" stroke-width="1"/>
<text x="802.73" y="492" font-size="12" text-anchor="middle" fill="#555555">85</text>
<line x1="811.21" y1="60" x2="811.21" y2="470" stroke="#f3f4f6" stroke-width="1"/>
<text x="811.21" y="492" font-size="12" text-anchor="middle" fill="#555555">86</text>
<line x1="819.70" y1="60" x2="819.70" y2="470" stroke="#f3f4f6" stroke-width="1"/>
<text x="819.70" y="492" font-size="12" text-anchor="middle" fill="#555555">87</text>
<line x1="828.18" y1="60" x2="828.18" y2="470" stroke="#f3f4f6" stroke-width="1"/>
<text x="828.18" y="492" font-size="12" text-anchor="middle" fill="#555555">88</text>
<line x1="836.67" y1="60" x2="836.67" y2="470" stroke="#f3f4f6" stroke-width="1"/>
<text x="836.67" y="492" font-size="12" text-anchor="middle" fill="#555555">89</text>
<line x1="845.15" y1="60" x2="845.15" y2="470" stroke="#f3f4f6" stroke-width="1"/>
<text x="845.15" y="492" font-size="12" text-anchor="middle" fill="#555555">90</text>
<line x1="853.64" y1="60" x2="853.64" y2="470" stroke="#f3f4f6" stroke-width="1"/>
<text x="853.64" y="492" font-size="12" text-anchor="middle" fill="#555555">91</text>
<line x1="862.12" y1="60" x2="862.12" y2="470" stroke="#f3f4f6" stroke-width="1"/>
<text x="862.12" y="492" font-size="12" text-anchor="middle" fill="#555555">92</text>
<line x1="870.61" y1="60" x2="870.61" y2="470" stroke="#f3f4f6" stroke-width="1"/>
<text x="870.61" y="492" font-size="12" text-anchor="middle" fill="#555555">93</text>
<line x1="879.09" y1="60" x2="879.09" y2="470" stroke="#f3f4f6" stroke-width="1"/>
<text x="879.09" y="492" font-size="12" text-anchor="middle" fill="#555555">94</text>
<line x1="887.58" y1="60" x2="887.58" y2="470" stroke="#f3f4f6" stroke-width="1"/>
<text x="887.58" y="492" font-size="12" text-anchor="middle" fill="#555555">95</text>
<line x1="896.06" y1="60" x2="896.06" y2="470" stroke="#f3f4f6" stroke-width="1"/>
<text x="896.06" y="492" font-size="12" text-anchor="middle" fill="#555555">96</text>
<line x1="904.55" y1="60" x2="904.55" y2="470" stroke="#f3f4f6" stroke-width="1"/>
<text x="904.55" y="492" font-size="12" text-anchor="middle" fill="#555555">97</text>
<line x1="913.03" y1="60" x2="913.03" y2="470" stroke="#f3f4f6" stroke-width="1"/>
<text x="913.03" y="492" font-size="12" text-anchor="middle" fill="#555555">98</text>
<line x1="921.52" y1="60" x2="921.52" y2="470" stroke="#f3f4f6" stroke-width="1"/>
<text x="921.52" y="492" font-size="12" text-anchor="middle" fill="#555555">99</text>
<line x1="930.00" y1="60" x2="930.00" y2="470" stroke="#f3f4f6" stroke-width="1"/>
<text x="930.00" y="492" font-size="12" text-anchor="middle" fill="#555555">100</text>
<polyline fill="none" stroke="#d97706" stroke-width="3" points="90.00,94.17 98.48,94.85 106.97,420.75 115.45,427.12 123.94,427.51 132.42,424.88 140.91,428.10 149.39,427.76 157.88,428.06 166.36,427.95 174.85,415.39 183.33,428.36 191.82,428.31 200.30,428.40 208.79,428.38 217.27,427.62 225.76,427.84 234.24,429.66 242.73,428.01 251.21,428.42 259.70,428.78 268.18,428.63 276.67,419.28 285.15,431.09 293.64,431.65 302.12,428.54 310.61,403.99 319.09,428.62 327.58,429.14 336.06,428.55 344.55,429.63 353.03,429.92 361.52,432.88 370.00,432.85 378.48,433.13 386.97,430.10 395.45,431.55 403.94,428.38 412.42,432.11 420.91,433.25 429.39,433.38 437.88,432.07 446.36,432.66 454.85,430.70 463.33,431.54 471.82,432.22 480.30,431.20 488.79,434.25 497.27,432.05 505.76,433.15 514.24,435.44 522.73,435.32 531.21,435.33 539.70,435.57 548.18,435.43 556.67,435.54 565.15,435.47 573.64,435.29 582.12,435.53 590.61,435.80 599.09,435.54 607.58,435.57 616.06,435.56 624.55,435.66 633.03,435.66 641.52,435.71 650.00,435.67 658.48,435.76 666.97,435.53 675.45,435.79 683.94,435.64 692.42,435.65 700.91,435.59 709.39,435.59 717.88,435.53 726.36,435.83 734.85,435.63 743.33,435.60 751.82,435.58 760.30,435.71 768.79,435.61 777.27,435.73 785.76,435.74 794.24,435.66 802.73,435.74 811.21,435.58 819.70,435.61 828.18,435.59 836.67,435.61 845.15,435.58 853.64,435.49 862.12,435.34 870.61,435.46 879.09,435.46 887.58,435.36 896.06,435.31 904.55,435.42 913.03,435.50 921.52,435.48 930.00,435.53"/>
<circle cx="90.00" cy="94.17" r="4.5" fill="#d97706" fill-opacity="0.9"/>
<circle cx="98.48" cy="94.85" r="4.5" fill="#d97706" fill-opacity="0.9"/>
<circle cx="106.97" cy="420.75" r="4.5" fill="#d97706" fill-opacity="0.9"/>
<circle cx="115.45" cy="427.12" r="4.5" fill="#d97706" fill-opacity="0.9"/>
<circle cx="123.94" cy="427.51" r="4.5" fill="#d97706" fill-opacity="0.9"/>
<circle cx="132.42" cy="424.88" r="4.5" fill="#d97706" fill-opacity="0.9"/>
<circle cx="140.91" cy="428.10" r="4.5" fill="#d97706" fill-opacity="0.9"/>
<circle cx="149.39" cy="427.76" r="4.5" fill="#d97706" fill-opacity="0.9"/>
<circle cx="157.88" cy="428.06" r="4.5" fill="#d97706" fill-opacity="0.9"/>
<circle cx="166.36" cy="427.95" r="4.5" fill="#d97706" fill-opacity="0.9"/>
<circle cx="174.85" cy="415.39" r="4.5" fill="#d97706" fill-opacity="0.9"/>
<circle cx="183.33" cy="428.36" r="4.5" fill="#d97706" fill-opacity="0.9"/>
<circle cx="191.82" cy="428.31" r="4.5" fill="#d97706" fill-opacity="0.9"/>
<circle cx="200.30" cy="428.40" r="4.5" fill="#d97706" fill-opacity="0.9"/>
<circle cx="208.79" cy="428.38" r="4.5" fill="#d97706" fill-opacity="0.9"/>
<circle cx="217.27" cy="427.62" r="4.5" fill="#d97706" fill-opacity="0.9"/>
<circle cx="225.76" cy="427.84" r="4.5" fill="#d97706" fill-opacity="0.9"/>
<circle cx="234.24" cy="429.66" r="4.5" fill="#d97706" fill-opacity="0.9"/>
<circle cx="242.73" cy="428.01" r="4.5" fill="#d97706" fill-opacity="0.9"/>
<circle cx="251.21" cy="428.42" r="4.5" fill="#d97706" fill-opacity="0.9"/>
<circle cx="259.70" cy="428.78" r="4.5" fill="#d97706" fill-opacity="0.9"/>
<circle cx="268.18" cy="428.63" r="4.5" fill="#d97706" fill-opacity="0.9"/>
<circle cx="276.67" cy="419.28" r="4.5" fill="#d97706" fill-opacity="0.9"/>
<circle cx="285.15" cy="431.09" r="4.5" fill="#d97706" fill-opacity="0.9"/>
<circle cx="293.64" cy="431.65" r="4.5" fill="#d97706" fill-opacity="0.9"/>
<circle cx="302.12" cy="428.54" r="4.5" fill="#d97706" fill-opacity="0.9"/>
<circle cx="310.61" cy="403.99" r="4.5" fill="#d97706" fill-opacity="0.9"/>
<circle cx="319.09" cy="428.62" r="4.5" fill="#d97706" fill-opacity="0.9"/>
<circle cx="327.58" cy="429.14" r="4.5" fill="#d97706" fill-opacity="0.9"/>
<circle cx="336.06" cy="428.55" r="4.5" fill="#d97706" fill-opacity="0.9"/>
<circle cx="344.55" cy="429.63" r="4.5" fill="#d97706" fill-opacity="0.9"/>
<circle cx="353.03" cy="429.92" r="4.5" fill="#d97706" fill-opacity="0.9"/>
<circle cx="361.52" cy="432.88" r="4.5" fill="#d97706" fill-opacity="0.9"/>
<circle cx="370.00" cy="432.85" r="4.5" fill="#d97706" fill-opacity="0.9"/>
<circle cx="378.48" cy="433.13" r="4.5" fill="#d97706" fill-opacity="0.9"/>
<circle cx="386.97" cy="430.10" r="4.5" fill="#d97706" fill-opacity="0.9"/>
<circle cx="395.45" cy="431.55" r="4.5" fill="#d97706" fill-opacity="0.9"/>
<circle cx="403.94" cy="428.38" r="4.5" fill="#d97706" fill-opacity="0.9"/>
<circle cx="412.42" cy="432.11" r="4.5" fill="#d97706" fill-opacity="0.9"/>
<circle cx="420.91" cy="433.25" r="4.5" fill="#d97706" fill-opacity="0.9"/>
<circle cx="429.39" cy="433.38" r="4.5" fill="#d97706" fill-opacity="0.9"/>
<circle cx="437.88" cy="432.07" r="4.5" fill="#d97706" fill-opacity="0.9"/>
<circle cx="446.36" cy="432.66" r="4.5" fill="#d97706" fill-opacity="0.9"/>
<circle cx="454.85" cy="430.70" r="4.5" fill="#d97706" fill-opacity="0.9"/>
<circle cx="463.33" cy="431.54" r="4.5" fill="#d97706" fill-opacity="0.9"/>
<circle cx="471.82" cy="432.22" r="4.5" fill="#d97706" fill-opacity="0.9"/>
<circle cx="480.30" cy="431.20" r="4.5" fill="#d97706" fill-opacity="0.9"/>
<circle cx="488.79" cy="434.25" r="4.5" fill="#d97706" fill-opacity="0.9"/>
<circle cx="497.27" cy="432.05" r="4.5" fill="#d97706" fill-opacity="0.9"/>
<circle cx="505.76" cy="433.15" r="4.5" fill="#d97706" fill-opacity="0.9"/>
<circle cx="514.24" cy="435.44" r="4.5" fill="#d97706" fill-opacity="0.9"/>
<circle cx="522.73" cy="435.32" r="4.5" fill="#d97706" fill-opacity="0.9"/>
<circle cx="531.21" cy="435.33" r="4.5" fill="#d97706" fill-opacity="0.9"/>
<circle cx="539.70" cy="435.57" r="4.5" fill="#d97706" fill-opacity="0.9"/>
<circle cx="548.18" cy="435.43" r="4.5" fill="#d97706" fill-opacity="0.9"/>
<circle cx="556.67" cy="435.54" r="4.5" fill="#d97706" fill-opacity="0.9"/>
<circle cx="565.15" cy="435.47" r="4.5" fill="#d97706" fill-opacity="0.9"/>
<circle cx="573.64" cy="435.29" r="4.5" fill="#d97706" fill-opacity="0.9"/>
<circle cx="582.12" cy="435.53" r="4.5" fill="#d97706" fill-opacity="0.9"/>
<circle cx="590.61" cy="435.80" r="4.5" fill="#d97706" fill-opacity="0.9"/>
<circle cx="599.09" cy="435.54" r="4.5" fill="#d97706" fill-opacity="0.9"/>
<circle cx="607.58" cy="435.57" r="4.5" fill="#d97706" fill-opacity="0.9"/>
<circle cx="616.06" cy="435.56" r="4.5" fill="#d97706" fill-opacity="0.9"/>
<circle cx="624.55" cy="435.66" r="4.5" fill="#d97706" fill-opacity="0.9"/>
<circle cx="633.03" cy="435.66" r="4.5" fill="#d97706" fill-opacity="0.9"/>
<circle cx="641.52" cy="435.71" r="4.5" fill="#d97706" fill-opacity="0.9"/>
<circle cx="650.00" cy="435.67" r="4.5" fill="#d97706" fill-opacity="0.9"/>
<circle cx="658.48" cy="435.76" r="4.5" fill="#d97706" fill-opacity="0.9"/>
<circle cx="666.97" cy="435.53" r="4.5" fill="#d97706" fill-opacity="0.9"/>
<circle cx="675.45" cy="435.79" r="4.5" fill="#d97706" fill-opacity="0.9"/>
<circle cx="683.94" cy="435.64" r="4.5" fill="#d97706" fill-opacity="0.9"/>
<circle cx="692.42" cy="435.65" r="4.5" fill="#d97706" fill-opacity="0.9"/>
<circle cx="700.91" cy="435.59" r="4.5" fill="#d97706" fill-opacity="0.9"/>
<circle cx="709.39" cy="435.59" r="4.5" fill="#d97706" fill-opacity="0.9"/>
<circle cx="717.88" cy="435.53" r="4.5" fill="#d97706" fill-opacity="0.9"/>
<circle cx="726.36" cy="435.83" r="4.5" fill="#d97706" fill-opacity="0.9"/>
<circle cx="734.85" cy="435.63" r="4.5" fill="#d97706" fill-opacity="0.9"/>
<circle cx="743.33" cy="435.60" r="4.5" fill="#d97706" fill-opacity="0.9"/>
<circle cx="751.82" cy="435.58" r="4.5" fill="#d97706" fill-opacity="0.9"/>
<circle cx="760.30" cy="435.71" r="4.5" fill="#d97706" fill-opacity="0.9"/>
<circle cx="768.79" cy="435.61" r="4.5" fill="#d97706" fill-opacity="0.9"/>
<circle cx="777.27" cy="435.73" r="4.5" fill="#d97706" fill-opacity="0.9"/>
<circle cx="785.76" cy="435.74" r="4.5" fill="#d97706" fill-opacity="0.9"/>
<circle cx="794.24" cy="435.66" r="4.5" fill="#d97706" fill-opacity="0.9"/>
<circle cx="802.73" cy="435.74" r="4.5" fill="#d97706" fill-opacity="0.9"/>
<circle cx="811.21" cy="435.58" r="4.5" fill="#d97706" fill-opacity="0.9"/>
<circle cx="819.70" cy="435.61" r="4.5" fill="#d97706" fill-opacity="0.9"/>
<circle cx="828.18" cy="435.59" r="4.5" fill="#d97706" fill-opacity="0.9"/>
<circle cx="836.67" cy="435.61" r="4.5" fill="#d97706" fill-opacity="0.9"/>
<circle cx="845.15" cy="435.58" r="4.5" fill="#d97706" fill-opacity="0.9"/>
<circle cx="853.64" cy="435.49" r="4.5" fill="#d97706" fill-opacity="0.9"/>
<circle cx="862.12" cy="435.34" r="4.5" fill="#d97706" fill-opacity="0.9"/>
<circle cx="870.61" cy="435.46" r="4.5" fill="#d97706" fill-opacity="0.9"/>
<circle cx="879.09" cy="435.46" r="4.5" fill="#d97706" fill-opacity="0.9"/>
<circle cx="887.58" cy="435.36" r="4.5" fill="#d97706" fill-opacity="0.9"/>
<circle cx="896.06" cy="435.31" r="4.5" fill="#d97706" fill-opacity="0.9"/>
<circle cx="904.55" cy="435.42" r="4.5" fill="#d97706" fill-opacity="0.9"/>
<circle cx="913.03" cy="435.50" r="4.5" fill="#d97706" fill-opacity="0.9"/>
<circle cx="921.52" cy="435.48" r="4.5" fill="#d97706" fill-opacity="0.9"/>
<circle cx="930.00" cy="435.53" r="4.5" fill="#d97706" fill-opacity="0.9"/>
<rect x="90" y="32" width="18" height="6" fill="#d97706"/>
<text x="114" y="38" font-size="13" fill="#333333">val</text>
<polyline fill="none" stroke="#059669" stroke-width="3" points="90.00,94.38 98.48,94.66 106.97,420.77 115.45,426.39 123.94,426.87 132.42,424.39 140.91,427.61 149.39,427.24 157.88,427.68 166.36,427.53 174.85,415.34 183.33,427.89 191.82,427.64 200.30,427.95 208.79,428.07 217.27,427.31 225.76,427.44 234.24,429.41 242.73,427.69 251.21,427.99 259.70,428.48 268.18,427.99 276.67,418.85 285.15,430.93 293.64,431.53 302.12,428.28 310.61,403.24 319.09,428.22 327.58,428.90 336.06,428.11 344.55,429.24 353.03,429.75 361.52,432.67 370.00,432.62 378.48,432.80 386.97,429.52 395.45,431.52 403.94,428.21 412.42,431.58 420.91,432.92 429.39,433.26 437.88,431.57 446.36,432.68 454.85,430.08 463.33,431.29 471.82,431.84 480.30,430.90 488.79,434.27 497.27,431.78 505.76,433.15 514.24,435.39 522.73,435.44 531.21,435.48 539.70,435.73 548.18,435.44 556.67,435.69 565.15,435.61 573.64,435.37 582.12,435.60 590.61,435.71 599.09,435.60 607.58,435.71 616.06,435.64 624.55,435.74 633.03,435.72 641.52,435.61 650.00,435.72 658.48,435.77 666.97,435.60 675.45,435.76 683.94,435.61 692.42,435.64 700.91,435.64 709.39,435.60 717.88,435.58 726.36,435.70 734.85,435.68 743.33,435.59 751.82,435.60 760.30,435.69 768.79,435.64 777.27,435.64 785.76,435.70 794.24,435.71 802.73,435.74 811.21,435.70 819.70,435.70 828.18,435.75 836.67,435.62 845.15,435.64 853.64,435.59 862.12,435.49 870.61,435.42 879.09,435.61 887.58,435.44 896.06,435.46 904.55,435.56 913.03,435.72 921.52,435.55 930.00,435.59"/>
<circle cx="90.00" cy="94.38" r="4.5" fill="#059669" fill-opacity="0.9"/>
<circle cx="98.48" cy="94.66" r="4.5" fill="#059669" fill-opacity="0.9"/>
<circle cx="106.97" cy="420.77" r="4.5" fill="#059669" fill-opacity="0.9"/>
<circle cx="115.45" cy="426.39" r="4.5" fill="#059669" fill-opacity="0.9"/>
<circle cx="123.94" cy="426.87" r="4.5" fill="#059669" fill-opacity="0.9"/>
<circle cx="132.42" cy="424.39" r="4.5" fill="#059669" fill-opacity="0.9"/>
<circle cx="140.91" cy="427.61" r="4.5" fill="#059669" fill-opacity="0.9"/>
<circle cx="149.39" cy="427.24" r="4.5" fill="#059669" fill-opacity="0.9"/>
<circle cx="157.88" cy="427.68" r="4.5" fill="#059669" fill-opacity="0.9"/>
<circle cx="166.36" cy="427.53" r="4.5" fill="#059669" fill-opacity="0.9"/>
<circle cx="174.85" cy="415.34" r="4.5" fill="#059669" fill-opacity="0.9"/>
<circle cx="183.33" cy="427.89" r="4.5" fill="#059669" fill-opacity="0.9"/>
<circle cx="191.82" cy="427.64" r="4.5" fill="#059669" fill-opacity="0.9"/>
<circle cx="200.30" cy="427.95" r="4.5" fill="#059669" fill-opacity="0.9"/>
<circle cx="208.79" cy="428.07" r="4.5" fill="#059669" fill-opacity="0.9"/>
<circle cx="217.27" cy="427.31" r="4.5" fill="#059669" fill-opacity="0.9"/>
<circle cx="225.76" cy="427.44" r="4.5" fill="#059669" fill-opacity="0.9"/>
<circle cx="234.24" cy="429.41" r="4.5" fill="#059669" fill-opacity="0.9"/>
<circle cx="242.73" cy="427.69" r="4.5" fill="#059669" fill-opacity="0.9"/>
<circle cx="251.21" cy="427.99" r="4.5" fill="#059669" fill-opacity="0.9"/>
<circle cx="259.70" cy="428.48" r="4.5" fill="#059669" fill-opacity="0.9"/>
<circle cx="268.18" cy="427.99" r="4.5" fill="#059669" fill-opacity="0.9"/>
<circle cx="276.67" cy="418.85" r="4.5" fill="#059669" fill-opacity="0.9"/>
<circle cx="285.15" cy="430.93" r="4.5" fill="#059669" fill-opacity="0.9"/>
<circle cx="293.64" cy="431.53" r="4.5" fill="#059669" fill-opacity="0.9"/>
<circle cx="302.12" cy="428.28" r="4.5" fill="#059669" fill-opacity="0.9"/>
<circle cx="310.61" cy="403.24" r="4.5" fill="#059669" fill-opacity="0.9"/>
<circle cx="319.09" cy="428.22" r="4.5" fill="#059669" fill-opacity="0.9"/>
<circle cx="327.58" cy="428.90" r="4.5" fill="#059669" fill-opacity="0.9"/>
<circle cx="336.06" cy="428.11" r="4.5" fill="#059669" fill-opacity="0.9"/>
<circle cx="344.55" cy="429.24" r="4.5" fill="#059669" fill-opacity="0.9"/>
<circle cx="353.03" cy="429.75" r="4.5" fill="#059669" fill-opacity="0.9"/>
<circle cx="361.52" cy="432.67" r="4.5" fill="#059669" fill-opacity="0.9"/>
<circle cx="370.00" cy="432.62" r="4.5" fill="#059669" fill-opacity="0.9"/>
<circle cx="378.48" cy="432.80" r="4.5" fill="#059669" fill-opacity="0.9"/>
<circle cx="386.97" cy="429.52" r="4.5" fill="#059669" fill-opacity="0.9"/>
<circle cx="395.45" cy="431.52" r="4.5" fill="#059669" fill-opacity="0.9"/>
<circle cx="403.94" cy="428.21" r="4.5" fill="#059669" fill-opacity="0.9"/>
<circle cx="412.42" cy="431.58" r="4.5" fill="#059669" fill-opacity="0.9"/>
<circle cx="420.91" cy="432.92" r="4.5" fill="#059669" fill-opacity="0.9"/>
<circle cx="429.39" cy="433.26" r="4.5" fill="#059669" fill-opacity="0.9"/>
<circle cx="437.88" cy="431.57" r="4.5" fill="#059669" fill-opacity="0.9"/>
<circle cx="446.36" cy="432.68" r="4.5" fill="#059669" fill-opacity="0.9"/>
<circle cx="454.85" cy="430.08" r="4.5" fill="#059669" fill-opacity="0.9"/>
<circle cx="463.33" cy="431.29" r="4.5" fill="#059669" fill-opacity="0.9"/>
<circle cx="471.82" cy="431.84" r="4.5" fill="#059669" fill-opacity="0.9"/>
<circle cx="480.30" cy="430.90" r="4.5" fill="#059669" fill-opacity="0.9"/>
<circle cx="488.79" cy="434.27" r="4.5" fill="#059669" fill-opacity="0.9"/>
<circle cx="497.27" cy="431.78" r="4.5" fill="#059669" fill-opacity="0.9"/>
<circle cx="505.76" cy="433.15" r="4.5" fill="#059669" fill-opacity="0.9"/>
<circle cx="514.24" cy="435.39" r="4.5" fill="#059669" fill-opacity="0.9"/>
<circle cx="522.73" cy="435.44" r="4.5" fill="#059669" fill-opacity="0.9"/>
<circle cx="531.21" cy="435.48" r="4.5" fill="#059669" fill-opacity="0.9"/>
<circle cx="539.70" cy="435.73" r="4.5" fill="#059669" fill-opacity="0.9"/>
<circle cx="548.18" cy="435.44" r="4.5" fill="#059669" fill-opacity="0.9"/>
<circle cx="556.67" cy="435.69" r="4.5" fill="#059669" fill-opacity="0.9"/>
<circle cx="565.15" cy="435.61" r="4.5" fill="#059669" fill-opacity="0.9"/>
<circle cx="573.64" cy="435.37" r="4.5" fill="#059669" fill-opacity="0.9"/>
<circle cx="582.12" cy="435.60" r="4.5" fill="#059669" fill-opacity="0.9"/>
<circle cx="590.61" cy="435.71" r="4.5" fill="#059669" fill-opacity="0.9"/>
<circle cx="599.09" cy="435.60" r="4.5" fill="#059669" fill-opacity="0.9"/>
<circle cx="607.58" cy="435.71" r="4.5" fill="#059669" fill-opacity="0.9"/>
<circle cx="616.06" cy="435.64" r="4.5" fill="#059669" fill-opacity="0.9"/>
<circle cx="624.55" cy="435.74" r="4.5" fill="#059669" fill-opacity="0.9"/>
<circle cx="633.03" cy="435.72" r="4.5" fill="#059669" fill-opacity="0.9"/>
<circle cx="641.52" cy="435.61" r="4.5" fill="#059669" fill-opacity="0.9"/>
<circle cx="650.00" cy="435.72" r="4.5" fill="#059669" fill-opacity="0.9"/>
<circle cx="658.48" cy="435.77" r="4.5" fill="#059669" fill-opacity="0.9"/>
<circle cx="666.97" cy="435.60" r="4.5" fill="#059669" fill-opacity="0.9"/>
<circle cx="675.45" cy="435.76" r="4.5" fill="#059669" fill-opacity="0.9"/>
<circle cx="683.94" cy="435.61" r="4.5" fill="#059669" fill-opacity="0.9"/>
<circle cx="692.42" cy="435.64" r="4.5" fill="#059669" fill-opacity="0.9"/>
<circle cx="700.91" cy="435.64" r="4.5" fill="#059669" fill-opacity="0.9"/>
<circle cx="709.39" cy="435.60" r="4.5" fill="#059669" fill-opacity="0.9"/>
<circle cx="717.88" cy="435.58" r="4.5" fill="#059669" fill-opacity="0.9"/>
<circle cx="726.36" cy="435.70" r="4.5" fill="#059669" fill-opacity="0.9"/>
<circle cx="734.85" cy="435.68" r="4.5" fill="#059669" fill-opacity="0.9"/>
<circle cx="743.33" cy="435.59" r="4.5" fill="#059669" fill-opacity="0.9"/>
<circle cx="751.82" cy="435.60" r="4.5" fill="#059669" fill-opacity="0.9"/>
<circle cx="760.30" cy="435.69" r="4.5" fill="#059669" fill-opacity="0.9"/>
<circle cx="768.79" cy="435.64" r="4.5" fill="#059669" fill-opacity="0.9"/>
<circle cx="777.27" cy="435.64" r="4.5" fill="#059669" fill-opacity="0.9"/>
<circle cx="785.76" cy="435.70" r="4.5" fill="#059669" fill-opacity="0.9"/>
<circle cx="794.24" cy="435.71" r="4.5" fill="#059669" fill-opacity="0.9"/>
<circle cx="802.73" cy="435.74" r="4.5" fill="#059669" fill-opacity="0.9"/>
<circle cx="811.21" cy="435.70" r="4.5" fill="#059669" fill-opacity="0.9"/>
<circle cx="819.70" cy="435.70" r="4.5" fill="#059669" fill-opacity="0.9"/>
<circle cx="828.18" cy="435.75" r="4.5" fill="#059669" fill-opacity="0.9"/>
<circle cx="836.67" cy="435.62" r="4.5" fill="#059669" fill-opacity="0.9"/>
<circle cx="845.15" cy="435.64" r="4.5" fill="#059669" fill-opacity="0.9"/>
<circle cx="853.64" cy="435.59" r="4.5" fill="#059669" fill-opacity="0.9"/>
<circle cx="862.12" cy="435.49" r="4.5" fill="#059669" fill-opacity="0.9"/>
<circle cx="870.61" cy="435.42" r="4.5" fill="#059669" fill-opacity="0.9"/>
<circle cx="879.09" cy="435.61" r="4.5" fill="#059669" fill-opacity="0.9"/>
<circle cx="887.58" cy="435.44" r="4.5" fill="#059669" fill-opacity="0.9"/>
<circle cx="896.06" cy="435.46" r="4.5" fill="#059669" fill-opacity="0.9"/>
<circle cx="904.55" cy="435.56" r="4.5" fill="#059669" fill-opacity="0.9"/>
<circle cx="913.03" cy="435.72" r="4.5" fill="#059669" fill-opacity="0.9"/>
<circle cx="921.52" cy="435.55" r="4.5" fill="#059669" fill-opacity="0.9"/>
<circle cx="930.00" cy="435.59" r="4.5" fill="#059669" fill-opacity="0.9"/>
<rect x="270" y="32" width="18" height="6" fill="#059669"/>
<text x="294" y="38" font-size="13" fill="#333333">test</text>
</svg>