<svg xmlns="http://www.w3.org/2000/svg" width="960" height="540">
<rect width="100%" height="100%" fill="#ffffff"/>
<text x="480.0" y="30" font-size="22" text-anchor="middle" fill="#111111">Loss</text>
<text x="20" y="270.0" font-size="16" transform="rotate(-90 20,270.0)" text-anchor="middle" fill="#333333">Loss</text>
<text x="480.0" y="520" font-size="16" text-anchor="middle" fill="#333333">Epoch</text>
<line x1="90" y1="60" x2="90" y2="470" stroke="#333333" stroke-width="2"/>
<line x1="90" y1="470" x2="930" y2="470" stroke="#333333" stroke-width="2"/>
<line x1="90" y1="470.00" x2="930" y2="470.00" stroke="#e5e7eb" stroke-width="1"/>
<text x="80" y="475.00" font-size="12" text-anchor="end" fill="#555555">-10.4891</text>
<line x1="90" y1="367.50" x2="930" y2="367.50" stroke="#e5e7eb" stroke-width="1"/>
<text x="80" y="372.50" font-size="12" text-anchor="end" fill="#555555">21.0098</text>
<line x1="90" y1="265.00" x2="930" y2="265.00" stroke="#e5e7eb" stroke-width="1"/>
<text x="80" y="270.00" font-size="12" text-anchor="end" fill="#555555">52.5088</text>
<line x1="90" y1="162.50" x2="930" y2="162.50" stroke="#e5e7eb" stroke-width="1"/>
<text x="80" y="167.50" font-size="12" text-anchor="end" fill="#555555">84.0077</text>
<line x1="90" y1="60.00" x2="930" y2="60.00" stroke="#e5e7eb" stroke-width="1"/>
<text x="80" y="65.00" font-size="12" text-anchor="end" fill="#555555">115.5067</text>
<line x1="90.00" y1="60" x2="90.00" y2="470" stroke="#f3f4f6" stroke-width="1"/>
<text x="90.00" y="492" font-size="12" text-anchor="middle" fill="#555555">1</text>
<line x1="98.48" y1="60" x2="98.48" y2="470" stroke="#f3f4f6" stroke-width="1"/>
<text x="98.48" y="492" font-size="12" text-anchor="middle" fill="#555555">2</text>
<line x1="106.97" y1="60" x2="106.97" y2="470" stroke="#f3f4f6" stroke-width="1"/>
<text x="106.97" y="492" font-size="12" text-anchor="middle" fill="#555555">3</text>
<line x1="115.45" y1="60" x2="115.45" y2="470" stroke="#f3f4f6" stroke-width="1"/>
<text x="115.45" y="492" font-size="12" text-anchor="middle" fill="#555555">4</text>
<line x1="123.94" y1="60" x2="123.94" y2="470" stroke="#f3f4f6" stroke-width="1"/>
<text x="123.94" y="492" font-size="12" text-anchor="middle" fill="#555555">5</text>
<line x1="132.42" y1="60" x2="132.42" y2="470" stroke="#f3f4f6" stroke-width="1"/>
<text x="132.42" y="492" font-size="12" text-anchor="middle" fill="#555555">6</text>
<line x1="140.91" y1="60" x2="140.91" y2="470" stroke="#f3f4f6" stroke-width="1"/>
<text x="140.91" y="492" font-size="12" text-anchor="middle" fill="#555555">7</text>
<line x1="149.39" y1="60" x2="149.39" y2="470" stroke="#f3f4f6" stroke-width="1"/>
<text x="149.39" y="492" font-size="12" text-anchor="middle" fill="#555555">8</text>
<line x1="157.88" y1="60" x2="157.88" y2="470" stroke="#f3f4f6" stroke-width="1"/>
<text x="157.88" y="492" font-size="12" text-anchor="middle" fill="#555555">9</text>
<line x1="166.36" y1="60" x2="166.36" y2="470" stroke="#f3f4f6" stroke-width="1"/>
<text x="166.36" y="492" font-size="12" text-anchor="middle" fill="#555555">10</text>
<line x1="174.85" y1="60" x2="174.85" y2="470" stroke="#f3f4f6" stroke-width="1"/>
<text x="174.85" y="492" font-size="12" text-anchor="middle" fill="#555555">11</text>
<line x1="183.33" y1="60" x2="183.33" y2="470" stroke="#f3f4f6" stroke-width="1"/>
<text x="183.33" y="492" font-size="12" text-anchor="middle" fill="#555555">12</text>
<line x1="191.82" y1="60" x2="191.82" y2="470" stroke="#f3f4f6" stroke-width="1"/>
<text x="191.82" y="492" font-size="12" text-anchor="middle" fill="#555555">13</text>
<line x1="200.30" y1="60" x2="200.30" y2="470" stroke="#f3f4f6" stroke-width="1"/>
<text x="200.30" y="492" font-size="12" text-anchor="middle" fill="#555555">14</text>
<line x1="208.79" y1="60" x2="208.79" y2="470" stroke="#f3f4f6" stroke-width="1"/>
<text x="208.79" y="492" font-size="12" text-anchor="middle" fill="#555555">15</text>
<line x1="217.27" y1="60" x2="217.27" y2="470" stroke="#f3f4f6" stroke-width="1"/>
<text x="217.27" y="492" font-size="12" text-anchor="middle" fill="#555555">16</text>
<line x1="225.76" y1="60" x2="225.76" y2="470" stroke="#f3f4f6" stroke-width="1"/>
<text x="225.76" y="492" font-size="12" text-anchor="middle" fill="#555555">17</text>
<line x1="234.24" y1="60" x2="234.24" y2="470" stroke="#f3f4f6" stroke-width="1"/>
<text x="234.24" y="492" font-size="12" text-anchor="middle" fill="#555555">18</text>
<line x1="242.73" y1="60" x2="242.73" y2="470" stroke="#f3f4f6" stroke-width="1"/>
<text x="242.73" y="492" font-size="12" text-anchor="middle" fill="#555555">19</text>
<line x1="251.21" y1="60" x2="251.21" y2="470" stroke="#f3f4f6" stroke-width="1"/>
<text x="251.21" y="492" font-size="12" text-anchor="middle" fill="#555555">20</text>
<line x1="259.70" y1="60" x2="259.70" y2="470" stroke="#f3f4f6" stroke-width="1"/>
<text x="259.70" y="492" font-size="12" text-anchor="middle" fill="#555555">21</text>
<line x1="268.18" y1="60" x2="268.18" y2="470" stroke="#f3f4f6" stroke-width="1"/>
<text x="268.18" y="492" font-size="12" text-anchor="middle" fill="#555555">22</text>
<line x1="276.67" y1="60" x2="276.67" y2="470" stroke="#f3f4f6" stroke-width="1"/>
<text x="276.67" y="492" font-size="12" text-anchor="middle" fill="#555555">23</text>
<line x1="285.15" y1="60" x2="285.15" y2="470" stroke="#f3f4f6" stroke-width="1"/>
<text x="285.15" y="492" font-size="12" text-anchor="middle" fill="#555555">24</text>
<line x1="293.64" y1="60" x2="293.64" y2="470" stroke="#f3f4f6" stroke-width="1"/>
<text x="293.64" y="492" font-size="12" text-anchor="middle" fill="#555555">25</text>
<line x1="302.12" y1="60" x2="302.12" y2="470" stroke="#f3f4f6" stroke-width="1"/>
<text x="302.12" y="492" font-size="12" text-anchor="middle" fill="#555555">26</text>
<line x1="310.61" y1="60" x2="310.61" y2="470" stroke="#f3f4f6" stroke-width="1"/>
<text x="310.61" y="492" font-size="12" text-anchor="middle" fill="#555555">27</text>
<line x1="319.09" y1="60" x2="319.09" y2="470" stroke="#f3f4f6" stroke-width="1"/>
<text x="319.09" y="492" font-size="12" text-anchor="middle" fill="#555555">28</text>
<line x1="327.58" y1="60" x2="327.58" y2="470" stroke="#f3f4f6" stroke-width="1"/>
<text x="327.58" y="492" font-size="12" text-anchor="middle" fill="#555555">29</text>
<line x1="336.06" y1="60" x2="336.06" y2="470" stroke="#f3f4f6" stroke-width="1"/>
<text x="336.06" y="492" font-size="12" text-anchor="middle" fill="#555555">30</text>
<line x1="344.55" y1="60" x2="344.55" y2="470" stroke="#f3f4f6" stroke-width="1"/>
<text x="344.55" y="492" font-size="12" text-anchor="middle" fill="#555555">31</text>
<line x1="353.03" y1="60" x2="353.03" y2="470" stroke="#f3f4f6" stroke-width="1"/>
<text x="353.03" y="492" font-size="12" text-anchor="middle" fill="#555555">32</text>
<line x1="361.52" y1="60" x2="361.52" y2="470" stroke="#f3f4f6" stroke-width="1"/>
<text x="361.52" y="492" font-size="12" text-anchor="middle" fill="#555555">33</text>
<line x1="370.00" y1="60" x2="370.00" y2="470" stroke="#f3f4f6" stroke-width="1"/>
<text x="370.00" y="492" font-size="12" text-anchor="middle" fill="#555555">34</text>
<line x1="378.48" y1="60" x2="378.48" y2="470" stroke="#f3f4f6" stroke-width="1"/>
<text x="378.48" y="492" font-size="12" text-anchor="middle" fill="#555555">35</text>
<line x1="386.97" y1="60" x2="386.97" y2="470" stroke="#f3f4f6" stroke-width="1"/>
<text x="386.97" y="492" font-size="12" text-anchor="middle" fill="#555555">36</text>
<line x1="395.45" y1="60" x2="395.45" y2="470" stroke="#f3f4f6" stroke-width="1"/>
<text x="395.45" y="492" font-size="12" text-anchor="middle" fill="#555555">37</text>
<line x1="403.94" y1="60" x2="403.94" y2="470" stroke="#f3f4f6" stroke-width="1"/>
<text x="403.94" y="492" font-size="12" text-anchor="middle" fill="#555555">38</text>
<line x1="412.42" y1="60" x2="412.42" y2="470" stroke="#f3f4f6" stroke-width="1"/>
<text x="412.42" y="492" font-size="12" text-anchor="middle" fill="#555555">39</text>
<line x1="420.91" y1="60" x2="420.91" y2="470" stroke="#f3f4f6" stroke-width="1"/>
<text x="420.91" y="492" font-size="12" text-anchor="middle" fill="#555555">40</text>
<line x1="429.39" y1="60" x2="429.39" y2="470" stroke="#f3f4f6" stroke-width="1"/>
<text x="429.39" y="492" font-size="12" text-anchor="middle" fill="#555555">41</text>
<line x1="437.88" y1="60" x2="437.88" y2="470" stroke="#f3f4f6" stroke-width="1"/>
<text x="437.88" y="492" font-size="12" text-anchor="middle" fill="#555555">42</text>
<line x1="446.36" y1="60" x2="446.36" y2="470" stroke="#f3f4f6" stroke-width="1"/>
<text x="446.36" y="492" font-size="12" text-anchor="middle" fill="#555555">43</text>
<line x1="454.85" y1="60" x2="454.85" y2="470" stroke="#f3f4f6" stroke-width="1"/>
<text x="454.85" y="492" font-size="12" text-anchor="middle" fill="#555555">44</text>
<line x1="463.33" y1="60" x2="463.33" y2="470" stroke="#f3f4f6" stroke-width="1"/>
<text x="463.33" y="492" font-size="12" text-anchor="middle" fill="#555555">45</text>
<line x1="471.82" y1="60" x2="471.82" y2="470" stroke="#f3f4f6" stroke-width="1"/>
<text x="471.82" y="492" font-size="12" text-anchor="middle" fill="#555555">46</text>
<line x1="480.30" y1="60" x2="480.30" y2="470" stroke="#f3f4f6" stroke-width="1"/>
<text x="480.30" y="492" font-size="12" text-anchor="middle" fill="#555555">47</text>
<line x1="488.79" y1="60" x2="488.79" y2="470" stroke="#f3f4f6" stroke-width="1"/>
<text x="488.79" y="492" font-size="12" text-anchor="middle" fill="#555555">48</text>
<line x1="497.27" y1="60" x2="497.27" y2="470" stroke="#f3f4f6" stroke-width="1"/>
<text x="497.27" y="492" font-size="12" text-anchor="middle" fill="#555555">49</text>
<line x1="505.76" y1="60" x2="505.76" y2="470" stroke="#f3f4f6" stroke-width="1"/>
<text x="505.76" y="492" font-size="12" text-anchor="middle" fill="#555555">50</text>
<line x1="514.24" y1="60" x2="514.24" y2="470" stroke="#f3f4f6" stroke-width="1"/>
<text x="514.24" y="492" font-size="12" text-anchor="middle" fill="#555555">51</text>
<line x1="522.73" y1="60" x2="522.73" y2="470" stroke="#f3f4f6" stroke-width="1"/>
<text x="522.73" y="492" font-size="12" text-anchor="middle" fill="#555555">52</text>
<line x1="531.21" y1="60" x2="531.21" y2="470" stroke="#f3f4f6" stroke-width="1"/>
<text x="531.21" y="492" font-size="12" text-anchor="middle" fill="#555555">53</text>
<line x1="539.70" y1="60" x2="539.70" y2="470" stroke="#f3f4f6" stroke-width="1"/>
<text x="539.70" y="492" font-size="12" text-anchor="middle" fill="#555555">54</text>
<line x1="548.18" y1="60" x2="548.18" y2="470" stroke="#f3f4f6" stroke-width="1"/>
<text x="548.18" y="492" font-size="12" text-anchor="middle" fill="#555555">55</text>
<line x1="556.67" y1="60" x2="556.67" y2="470" stroke="#f3f4f6" stroke-width="1"/>
<text x="556.67" y="492" font-size="12" text-anchor="middle" fill="#555555">56</text>
<line x1="565.15" y1="60" x2="565.15" y2="470" stroke="#f3f4f6" stroke-width="1"/>
<text x="565.15" y="492" font-size="12" text-anchor="middle" fill="#555555">57</text>
<line x1="573.64" y1="60" x2="573.64" y2="470" stroke="#f3f4f6" stroke-width="1"/>
<text x="573.64" y="492" font-size="12" text-anchor="middle" fill="#555555">58</text>
<line x1="582.12" y1="60" x2="582.12" y2="470" stroke="#f3f4f6" stroke-width="1"/>
<text x="582.12" y="492" font-size="12" text-anchor="middle" fill="#555555">59</text>
<line x1="590.61" y1="60" x2="590.61" y2="470" stroke="#f3f4f6" stroke-width="1"/>
<text x="590.61" y="492" font-size="12" text-anchor="middle" fill="#555555">60</text>
<line x1="599.09" y1="60" x2="599.09" y2="470" stroke="#f3f4f6" stroke-width="1"/>
<text x="599.09" y="492" font-size="12" text-anchor="middle" fill="#555555">61</text>
<line x1="607.58" y1="60" x2="607.58" y2="470" stroke="#f3f4f6" stroke-width="1"/>
<text x="607.58" y="492" font-size="12" text-anchor="middle" fill="#555555">62</text>
<line x1="616.06" y1="60" x2="616.06" y2="470" stroke="#f3f4f6" stroke-width="1"/>
<text x="616.06" y="492" font-size="12" text-anchor="middle" fill="#555555">63</text>
<line x1="624.55" y1="60" x2="624.55" y2="470" stroke="#f3f4f6" stroke-width="1"/>
<text x="624.55" y="492" font-size="12" text-anchor="middle" fill="#555555">64</text>
<line x1="633.03" y1="60" x2="633.03" y2="470" stroke="#f3f4f6" stroke-width="1"/>
<text x="633.03" y="492" font-size="12" text-anchor="middle" fill="#555555">65</text>
<line x1="641.52" y1="60" x2="641.52" y2="470" stroke="#f3f4f6" stroke-width="1"/>
<text x="641.52" y="492" font-size="12" text-anchor="middle" fill="#555555">66</text>
<line x1="650.00" y1="60" x2="650.00" y2="470" stroke="#f3f4f6" stroke-width="1"/>
<text x="650.00" y="492" font-size="12" text-anchor="middle" fill="#555555">67</text>
<line x1="658.48" y1="60" x2="658.48" y2="470" stroke="#f3f4f6" stroke-width="1"/>
<text x="658.48" y="492" font-size="12" text-anchor="middle" fill="#555555">68</text>
<line x1="666.97" y1="60" x2="666.97" y2="470" stroke="#f3f4f6" stroke-width="1"/>
<text x="666.97" y="492" font-size="12" text-anchor="middle" fill="#555555">69</text>
<line x1="675.45" y1="60" x2="675.45" y2="470" stroke="#f3f4f6" stroke-width="1"/>
<text x="675.45" y="492" font-size="12" text-anchor="middle" fill="#555555">70</text>
<line x1="683.94" y1="60" x2="683.94" y2="470" stroke="#f3f4f6" stroke-width="1"/>
<text x="683.94" y="492" font-size="12" text-anchor="middle" fill="#555555">71</text>
<line x1="692.42" y1="60" x2="692.42" y2="470" stroke="#f3f4f6" stroke-width="1"/>
<text x="692.42" y="492" font-size="12" text-anchor="middle" fill="#555555">72</text>
<line x1="700.91" y1="60" x2="700.91" y2="470" stroke="#f3f4f6" stroke-width="1"/>
<text x="700.91" y="492" font-size="12" text-anchor="middle" fill="#555555">73</text>
<line x1="709.39" y1="60" x2="709.39" y2="470" stroke="#f3f4f6" stroke-width="1"/>
<text x="709.39" y="492" font-size="12" text-anchor="middle" fill="#555555">74</text>
<line x1="717.88" y1="60" x2="717.88" y2="470" stroke="#f3f4f6" stroke-width="1"/>
<text x="717.88" y="492" font-size="12" text-anchor="middle" fill="#555555">75</text>
<line x1="726.36" y1="60" x2="726.36" y2="470" stroke="#f3f4f6" stroke-width="1"/>
<text x="726.36" y="492" font-size="12" text-anchor="middle" fill="#555555">76</text>
<line x1="734.85" y1="60" x2="734.85" y2="470" stroke="#f3f4f6" stroke-width="1"/>
<text x="734.85" y="492" font-size="12" text-anchor="middle" fill="#555555">77</text>
<line x1="743.33" y1="60" x2="743.33" y2="470" stroke="#f3f4f6" stroke-width="1"/>
<text x="743.33" y="492" font-size="12" text-anchor="middle" fill="#555555">78</text>
<line x1="751.82" y1="60" x2="751.82" y2="470" stroke="#f3f4f6" stroke-width="1"/>
<text x="751.82" y="492" font-size="12" text-anchor="middle" fill="#555555">79</text>
<line x1="760.30" y1="60" x2="760.30" y2="470" stroke="#f3f4f6" stroke-width="1"/>
<text x="760.30" y="492" font-size="12" text-anchor="middle" fill="#555555">80</text>
<line x1="768.79" y1="60" x2="768.79" y2="470" stroke="#f3f4f6" stroke-width="1"/>
<text x="768.79" y="492" font-size="12" text-anchor="middle" fill="#555555">81</text>
<line x1="777.27" y1="60" x2="777.27" y2="470" stroke="#f3f4f6" stroke-width="1"/>
<text x="777.27" y="492" font-size="12" text-anchor="middle" fill="#555555">82</text>
<line x1="785.76" y1="60" x2="785.76" y2="470" stroke="#f3f4f6" stroke-width="1"/>
<text x="785.76" y="492" font-size="12" text-anchor="middle" fill="#555555">83</text>
<line x1="794.24" y1="60" x2="794.24" y2="470" stroke="#f3f4f6" stroke-width="1"/>
<text x="794.24" y="492" font-size="12" text-anchor="middle" fill="#555555">84</text>
<line x1="802.73" y1="60" x2="802.73" y2="470" stroke="#f3f4f6" stroke-width="1"/>
<text x="802.73" y="492" font-size="12" text-anchor="middle" fill="#555555">85</text>
<line x1="811.21" y1="60" x2="811.21" y2="470" stroke="#f3f4f6" stroke-width="1"/>
<text x="811.21" y="492" font-size="12" text-anchor="middle" fill="#555555">86</text>
<line x1="819.70" y1="60" x2="819.70" y2="470" stroke="#f3f4f6" stroke-width="1"/>
<text x="819.70" y="492" font-size="12" text-anchor="middle" fill="#555555">87</text>
<line x1="828.18" y1="60" x2="828.18" y2="470" stroke="#f3f4f6" stroke-width="1"/>
<text x="828.18" y="492" font-size="12" text-anchor="middle" fill="#555555">88</text>
<line x1="836.67" y1="60" x2="836.67" y2="470" stroke="#f3f4f6" stroke-width="1"/>
<text x="836.67" y="492" font-size="12" text-anchor="middle" fill="#555555">89</text>
<line x1="845.15" y1="60" x2="845.15" y2="470" stroke="#f3f4f6" stroke-width="1"/>
<text x="845.15" y="492" font-size="12" text-anchor="middle" fill="#555555">90</text>
<line x1="853.64" y1="60" x2="853.64" y2="470" stroke="#f3f4f6" stroke-width="1"/>
<text x="853.64" y="492" font-size="12" text-anchor="middle" fill="#555555">91</text>
<line x1="862.12" y1="60" x2="862.12" y2="470" stroke="#f3f4f6" stroke-width="1"/>
<text x="862.12" y="492" font-size="12" text-anchor="middle" fill="#555555">92</text>
<line x1="870.61" y1="60" x2="870.61" y2="470" stroke="#f3f4f6" stroke-width="1"/>
<text x="870.61" y="492" font-size="12" text-anchor="middle" fill="#555555">93</text>
<line x1="879.09" y1="60" x2="879.09" y2="470" stroke="#f3f4f6" stroke-width="1"/>
<text x="879.09" y="492" font-size="12" text-anchor="middle" fill="#555555">94</text>
<line x1="887.58" y1="60" x2="887.58" y2="470" stroke="#f3f4f6" stroke-width="1"/>
<text x="887.58" y="492" font-size="12" text-anchor="middle" fill="#555555">95</text>
<line x1="896.06" y1="60" x2="896.06" y2="470" stroke="#f3f4f6" stroke-width="1"/>
<text x="896.06" y="492" font-size="12" text-anchor="middle" fill="#555555">96</text>
<line x1="904.55" y1="60" x2="904.55" y2="470" stroke="#f3f4f6" stroke-width="1"/>
<text x="904.55" y="492" font-size="12" text-anchor="middle" fill="#555555">97</text>
<line x1="913.03" y1="60" x2="913.03" y2="470" stroke="#f3f4f6" stroke-width="1"/>
<text x="913.03" y="492" font-size="12" text-anchor="middle" fill="#555555">98</text>
<line x1="921.52" y1="60" x2="921.52" y2="470" stroke="#f3f4f6" stroke-width="1"/>
<text x="921.52" y="492" font-size="12" text-anchor="middle" fill="#555555">99</text>
<line x1="930.00" y1="60" x2="930.00" y2="470" stroke="#f3f4f6" stroke-width="1"/>
<text x="930.00" y="492" font-size="12" text-anchor="middle" fill="#555555">100</text>
<polyline fill="none" stroke="#1d4ed8" stroke-width="3" points="90.00,409.42 98.48,418.91 106.97,431.63 115.45,433.96 123.94,434.20 132.42,434.46 140.91,434.55 149.39,434.68 157.88,434.81 166.36,434.87 174.85,434.92 183.33,434.98 191.82,435.06 200.30,435.12 208.79,435.15 217.27,435.19 225.76,435.24 234.24,435.29 242.73,435.31 251.21,435.34 259.70,435.37 268.18,435.39 276.67,435.36 285.15,435.42 293.64,435.47 302.12,435.46 310.61,435.47 319.09,435.51 327.58,435.46 336.06,435.54 344.55,435.50 353.03,435.50 361.52,435.55 370.00,435.54 378.48,435.57 386.97,435.57 395.45,435.57 403.94,435.58 412.42,435.61 420.91,435.58 429.39,435.61 437.88,435.62 446.36,435.62 454.85,435.61 463.33,435.60 471.82,435.61 480.30,435.62 488.79,435.61 497.27,435.65 505.76,435.67 514.24,435.72 522.73,435.76 531.21,435.76 539.70,435.77 548.18,435.77 556.67,435.78 565.15,435.78 573.64,435.79 582.12,435.79 590.61,435.78 599.09,435.80 607.58,435.80 616.06,435.81 624.55,435.80 633.03,435.79 641.52,435.81 650.00,435.80 658.48,435.81 666.97,435.81 675.45,435.81 683.94,435.81 692.42,435.81 700.91,435.81 709.39,435.81 717.88,435.81 726.36,435.82 734.85,435.81 743.33,435.82 751.82,435.81 760.30,435.82 768.79,435.82 777.27,435.82 785.76,435.82 794.24,435.82 802.73,435.81 811.21,435.82 819.70,435.82 828.18,435.81 836.67,435.82 845.15,435.82 853.64,435.82 862.12,435.82 870.61,435.82 879.09,435.83 887.58,435.82 896.06,435.83 904.55,435.83 913.03,435.82 921.52,435.83 930.00,435.83"/>
<circle cx="90.00" cy="409.42" r="4.5" fill="#1d4ed8" fill-opacity="0.9"/>
<circle cx="98.48" cy="418.91" r="4.5" fill="#1d4ed8" fill-opacity="0.9"/>
<circle cx="106.97" cy="431.63" r="4.5" fill="#1d4ed8" fill-opacity="0.9"/>
<circle cx="115.45" cy="433.96" r="4.5" fill="#1d4ed8" fill-opacity="0.9"/>
<circle cx="123.94" cy="434.20" r="4.5" fill="#1d4ed8" fill-opacity="0.9"/>
<circle cx="132.42" cy="434.46" r="4.5" fill="#1d4ed8" fill-opacity="0.9"/>
<circle cx="140.91" cy="434.55" r="4.5" fill="#1d4ed8" fill-opacity="0.9"/>
<circle cx="149.39" cy="434.68" r="4.5" fill="#1d4ed8" fill-opacity="0.9"/>
<circle cx="157.88" cy="434.81" r="4.5" fill="#1d4ed8" fill-opacity="0.9"/>
<circle cx="166.36" cy="434.87" r="4.5" fill="#1d4ed8" fill-opacity="0.9"/>
<circle cx="174.85" cy="434.92" r="4.5" fill="#1d4ed8" fill-opacity="0.9"/>
<circle cx="183.33" cy="434.98" r="4.5" fill="#1d4ed8" fill-opacity="0.9"/>
<circle cx="191.82" cy="435.06" r="4.5" fill="#1d4ed8" fill-opacity="0.9"/>
<circle cx="200.30" cy="435.12" r="4.5" fill="#1d4ed8" fill-opacity="0.9"/>
<circle cx="208.79" cy="435.15" r="4.5" fill="#1d4ed8" fill-opacity="0.9"/>
<circle cx="217.27" cy="435.19" r="4.5" fill="#1d4ed8" fill-opacity="0.9"/>
<circle cx="225.76" cy="435.24" r="4.5" fill="#1d4ed8" fill-opacity="0.9"/>
<circle cx="234.24" cy="435.29" r="4.5" fill="#1d4ed8" fill-opacity="0.9"/>
<circle cx="242.73" cy="435.31" r="4.5" fill="#1d4ed8" fill-opacity="0.9"/>
<circle cx="251.21" cy="435.34" r="4.5" fill="#1d4ed8" fill-opacity="0.9"/>
<circle cx="259.70" cy="435.37" r="4.5" fill="#1d4ed8" fill-opacity="0.9"/>
<circle cx="268.18" cy="435.39" r="4.5" fill="#1d4ed8" fill-opacity="0.9"/>
<circle cx="276.67" cy="435.36" r="4.5" fill="#1d4ed8" fill-opacity="0.9"/>
<circle cx="285.15" cy="435.42" r="4.5" fill="#1d4ed8" fill-opacity="0.9"/>
<circle cx="293.64" cy="435.47" r="4.5" fill="#1d4ed8" fill-opacity="0.9"/>
<circle cx="302.12" cy="435.46" r="4.5" fill="#1d4ed8" fill-opacity="0.9"/>
<circle cx="310.61" cy="435.47" r="4.5" fill="#1d4ed8" fill-opacity="0.9"/>
<circle cx="319.09" cy="435.51" r="4.5" fill="#1d4ed8" fill-opacity="0.9"/>
<circle cx="327.58" cy="435.46" r="4.5" fill="#1d4ed8" fill-opacity="0.9"/>
<circle cx="336.06" cy="435.54" r="4.5" fill="#1d4ed8" fill-opacity="0.9"/>
<circle cx="344.55" cy="435.50" r="4.5" fill="#1d4ed8" fill-opacity="0.9"/>
<circle cx="353.03" cy="435.50" r="4.5" fill="#1d4ed8" fill-opacity="0.9"/>
<circle cx="361.52" cy="435.55" r="4.5" fill="#1d4ed8" fill-opacity="0.9"/>
<circle cx="370.00" cy="435.54" r="4.5" fill="#1d4ed8" fill-opacity="0.9"/>
<circle cx="378.48" cy="435.57" r="4.5" fill="#1d4ed8" fill-opacity="0.9"/>
<circle cx="386.97" cy="435.57" r="4.5" fill="#1d4ed8" fill-opacity="0.9"/>
<circle cx="395.45" cy="435.57" r="4.5" fill="#1d4ed8" fill-opacity="0.9"/>
<circle cx="403.94" cy="435.58" r="4.5" fill="#1d4ed8" fill-opacity="0.9"/>
<circle cx="412.42" cy="435.61" r="4.5" fill="#1d4ed8" fill-opacity="0.9"/>
<circle cx="420.91" cy="435.58" r="4.5" fill="#1d4ed8" fill-opacity="0.9"/>
<circle cx="429.39" cy="435.61" r="4.5" fill="#1d4ed8" fill-opacity="0.9"/>
<circle cx="437.88" cy="435.62" r="4.5" fill="#1d4ed8" fill-opacity="0.9"/>
<circle cx="446.36" cy="435.62" r="4.5" fill="#1d4ed8" fill-opacity="0.9"/>
<circle cx="454.85" cy="435.61" r="4.5" fill="#1d4ed8" fill-opacity="0.9"/>
<circle cx="463.33" cy="435.60" r="4.5" fill="#1d4ed8" fill-opacity="0.9"/>
<circle cx="471.82" cy="435.61" r="4.5" fill="#1d4ed8" fill-opacity="0.9"/>
<circle cx="480.30" cy="435.62" r="4.5" fill="#1d4ed8" fill-opacity="0.9"/>
<circle cx="488.79" cy="435.61" r="4.5" fill="#1d4ed8" fill-opacity="0.9"/>
<circle cx="497.27" cy="435.65" r="4.5" fill="#1d4ed8" fill-opacity="0.9"/>
<circle cx="505.76" cy="435.67" r="4.5" fill="#1d4ed8" fill-opacity="0.9"/>
<circle cx="514.24" cy="435.72" r="4.5" fill="#1d4ed8" fill-opacity="0.9"/>
<circle cx="522.73" cy="435.76" r="4.5" fill="#1d4ed8" fill-opacity="0.9"/>
<circle cx="531.21" cy="435.76" r="4.5" fill="#1d4ed8" fill-opacity="0.9"/>
<circle cx="539.70" cy="435.77" r="4.5" fill="#1d4ed8" fill-opacity="0.9"/>
<circle cx="548.18" cy="435.77" r="4.5" fill="#1d4ed8" fill-opacity="0.9"/>
<circle cx="556.67" cy="435.78" r="4.5" fill="#1d4ed8" fill-opacity="0.9"/>
<circle cx="565.15" cy="435.78" r="4.5" fill="#1d4ed8" fill-opacity="0.9"/>
<circle cx="573.64" cy="435.79" r="4.5" fill="#1d4ed8" fill-opacity="0.9"/>
<circle cx="582.12" cy="435.79" r="4.5" fill="#1d4ed8" fill-opacity="0.9"/>
<circle cx="590.61" cy="435.78" r="4.5" fill="#1d4ed8" fill-opacity="0.9"/>
<circle cx="599.09" cy="435.80" r="4.5" fill="#1d4ed8" fill-opacity="0.9"/>
<circle cx="607.58" cy="435.80" r="4.5" fill="#1d4ed8" fill-opacity="0.9"/>
<circle cx="616.06" cy="435.81" r="4.5" fill="#1d4ed8" fill-opacity="0.9"/>
<circle cx="624.55" cy="435.80" r="4.5" fill="#1d4ed8" fill-opacity="0.9"/>
<circle cx="633.03" cy="435.79" r="4.5" fill="#1d4ed8" fill-opacity="0.9"/>
<circle cx="641.52" cy="435.81" r="4.5" fill="#1d4ed8" fill-opacity="0.9"/>
<circle cx="650.00" cy="435.80" r="4.5" fill="#1d4ed8" fill-opacity="0.9"/>
<circle cx="658.48" cy="435.81" r="4.5" fill="#1d4ed8" fill-opacity="0.9"/>
<circle cx="666.97" cy="435.81" r="4.5" fill="#1d4ed8" fill-opacity="0.9"/>
<circle cx="675.45" cy="435.81" r="4.5" fill="#1d4ed8" fill-opacity="0.9"/>
<circle cx="683.94" cy="435.81" r="4.5" fill="#1d4ed8" fill-opacity="0.9"/>
<circle cx="692.42" cy="435.81" r="4.5" fill="#1d4ed8" fill-opacity="0.9"/>
<circle cx="700.91" cy="435.81" r="4.5" fill="#1d4ed8" fill-opacity="0.9"/>
<circle cx="709.39" cy="435.81" r="4.5" fill="#1d4ed8" fill-opacity="0.9"/>
<circle cx="717.88" cy="435.81" r="4.5" fill="#1d4ed8" fill-opacity="0.9"/>
<circle cx="726.36" cy="435.82" r="4.5" fill="#1d4ed8" fill-opacity="0.9"/>
<circle cx="734.85" cy="435.81" r="4.5" fill="#1d4ed8" fill-opacity="0.9"/>
<circle cx="743.33" cy="435.82" r="4.5" fill="#1d4ed8" fill-opacity="0.9"/>
<circle cx="751.82" cy="435.81" r="4.5" fill="#1d4ed8" fill-opacity="0.9"/>
<circle cx="760.30" cy="435.82" r="4.5" fill="#1d4ed8" fill-opacity="0.9"/>
<circle cx="768.79" cy="435.82" r="4.5" fill="#1d4ed8" fill-opacity="0.9"/>
<circle cx="777.27" cy="435.82" r="4.5" fill="#1d4ed8" fill-opacity="0.9"/>
<circle cx="785.76" cy="435.82" r="4.5" fill="#1d4ed8" fill-opacity="0.9"/>
<circle cx="794.24" cy="435.82" r="4.5" fill="#1d4ed8" fill-opacity="0.9"/>
<circle cx="802.73" cy="435.81" r="4.5" fill="#1d4ed8" fill-opacity="0.9"/>
<circle cx="811.21" cy="435.82" r="4.5" fill="#1d4ed8" fill-opacity="0.9"/>
<circle cx="819.70" cy="435.82" r="4.5" fill="#1d4ed8" fill-opacity="0.9"/>
<circle cx="828.18" cy="435.81" r="4.5" fill="#1d4ed8" fill-opacity="0.9"/>
<circle cx="836.67" cy="435.82" r="4.5" fill="#1d4ed8" fill-opacity="0.9"/>
<circle cx="845.15" cy="435.82" r="4.5" fill="#1d4ed8" fill-opacity="0.9"/>
<circle cx="853.64" cy="435.82" r="4.5" fill="#1d4ed8" fill-opacity="0.9"/>
<circle cx="862.12" cy="435.82" r="4.5" fill="#1d4ed8" fill-opacity="0.9"/>
<circle cx="870.61" cy="435.82" r="4.5" fill="#1d4ed8" fill-opacity="0.9"/>
<circle cx="879.09" cy="435.83" r="4.5" fill="#1d4ed8" fill-opacity="0.9"/>
<circle cx="887.58" cy="435.82" r="4.5" fill="#1d4ed8" fill-opacity="0.9"/>
<circle cx="896.06" cy="435.83" r="4.5" fill="#1d4ed8" fill-opacity="0.9"/>
<circle cx="904.55" cy="435.83" r="4.5" fill="#1d4ed8" fill-opacity="0.9"/>
<circle cx="913.03" cy="435.82" r="4.5" fill="#1d4ed8" fill-opacity="0.9"/>
<circle cx="921.52" cy="435.83" r="4.5" fill="#1d4ed8" fill-opacity="0.9"/>
<circle cx="930.00" cy="435.83" r="4.5" fill="#1d4ed8" fill-opacity="0.9"/>
<rect x="90" y="32" width="18" height="6" fill="#1d4ed8"/>
<text x="114" y="38" font-size="13" fill="#333333">train</text>
<polyline fill="none" stroke="#d97706" stroke-width="3" points="90.00,94.17 98.48,165.66 106.97,432.92 115.45,433.25 123.94,433.18 132.42,432.37 140.91,433.39 149.39,433.04 157.88,432.75 166.36,433.17 174.85,423.78 183.33,432.72 191.82,432.93 200.30,432.95 208.79,431.72 217.27,431.91 225.76,431.94 234.24,433.83 242.73,432.06 251.21,432.42 259.70,433.22 268.18,432.76 276.67,429.06 285.15,434.17 293.64,434.40 302.12,431.75 310.61,423.14 319.09,431.46 327.58,432.99 336.06,431.05 344.55,432.87 353.03,433.49 361.52,434.80 370.00,434.80 378.48,434.64 386.97,433.39 395.45,434.03 403.94,432.85 412.42,434.32 420.91,434.83 429.39,434.81 437.88,434.18 446.36,434.61 454.85,433.62 463.33,434.01 471.82,434.39 480.30,433.92 488.79,434.99 497.27,434.24 505.76,434.57 514.24,435.14 522.73,435.13 531.21,435.16 539.70,435.22 548.18,435.21 556.67,435.24 565.15,435.19 573.64,435.13 582.12,435.23 590.61,435.24 599.09,435.19 607.58,435.22 616.06,435.21 624.55,435.23 633.03,435.21 641.52,435.22 650.00,435.18 658.48,435.20 666.97,435.15 675.45,435.20 683.94,435.18 692.42,435.14 700.91,435.13 709.39,435.17 717.88,435.16 726.36,435.19 734.85,435.14 743.33,435.15 751.82,435.16 760.30,435.15 768.79,435.11 777.27,435.12 785.76,435.14 794.24,435.12 802.73,435.13 811.21,435.11 819.70,435.10 828.18,435.10 836.67,435.10 845.15,435.08 853.64,435.08 862.12,435.05 870.61,435.03 879.09,435.06 887.58,435.02 896.06,434.99 904.55,435.03 913.03,435.03 921.52,435.02 930.00,435.05"/>
<circle cx="90.00" cy="94.17" r="4.5" fill="#d97706" fill-opacity="0.9"/>
<circle cx="98.48" cy="165.66" r="4.5" fill="#d97706" fill-opacity="0.9"/>
<circle cx="106.97" cy="432.92" r="4.5" fill="#d97706" fill-opacity="0.9"/>
<circle cx="115.45" cy="433.25" r="4.5" fill="#d97706" fill-opacity="0.9"/>
<circle cx="123.94" cy="433.18" r="4.5" fill="#d97706" fill-opacity="0.9"/>
<circle cx="132.42" cy="432.37" r="4.5" fill="#d97706" fill-opacity="0.9"/>
<circle cx="140.91" cy="433.39" r="4.5" fill="#d97706" fill-opacity="0.9"/>
<circle cx="149.39" cy="433.04" r="4.5" fill="#d97706" fill-opacity="0.9"/>
<circle cx="157.88" cy="432.75" r="4.5" fill="#d97706" fill-opacity="0.9"/>
<circle cx="166.36" cy="433.17" r="4.5" fill="#d97706" fill-opacity="0.9"/>
<circle cx="174.85" cy="423.78" r="4.5" fill="#d97706" fill-opacity="0.9"/>
<circle cx="183.33" cy="432.72" r="4.5" fill="#d97706" fill-opacity="0.9"/>
<circle cx="191.82" cy="432.93" r="4.5" fill="#d97706" fill-opacity="0.9"/>
<circle cx="200.30" cy="432.95" r="4.5" fill="#d97706" fill-opacity="0.9"/>
<circle cx="208.79" cy="431.72" r="4.5" fill="#d97706" fill-opacity="0.9"/>
<circle cx="217.27" cy="431.91" r="4.5" fill="#d97706" fill-opacity="0.9"/>
<circle cx="225.76" cy="431.94" r="4.5" fill="#d97706" fill-opacity="0.9"/>
<circle cx="234.24" cy="433.83" r="4.5" fill="#d97706" fill-opacity="0.9"/>
<circle cx="242.73" cy="432.06" r="4.5" fill="#d97706" fill-opacity="0.9"/>
<circle cx="251.21" cy="432.42" r="4.5" fill="#d97706" fill-opacity="0.9"/>
<circle cx="259.70" cy="433.22" r="4.5" fill="#d97706" fill-opacity="0.9"/>
<circle cx="268.18" cy="432.76" r="4.5" fill="#d97706" fill-opacity="0.9"/>
<circle cx="276.67" cy="429.06" r="4.5" fill="#d97706" fill-opacity="0.9"/>
<circle cx="285.15" cy="434.17" r="4.5" fill="#d97706" fill-opacity="0.9"/>
<circle cx="293.64" cy="434.40" r="4.5" fill="#d97706" fill-opacity="0.9"/>
<circle cx="302.12" cy="431.75" r="4.5" fill="#d97706" fill-opacity="0.9"/>
<circle cx="310.61" cy="423.14" r="4.5" fill="#d97706" fill-opacity="0.9"/>
<circle cx="319.09" cy="431.46" r="4.5" fill="#d97706" fill-opacity="0.9"/>
<circle cx="327.58" cy="432.99" r="4.5" fill="#d97706" fill-opacity="0.9"/>
<circle cx="336.06" cy="431.05" r="4.5" fill="#d97706" fill-opacity="0.9"/>
<circle cx="344.55" cy="432.87" r="4.5" fill="#d97706" fill-opacity="0.9"/>
<circle cx="353.03" cy="433.49" r="4.5" fill="#d97706" fill-opacity="0.9"/>
<circle cx="361.52" cy="434.80" r="4.5" fill="#d97706" fill-opacity="0.9"/>
<circle cx="370.00" cy="434.80" r="4.5" fill="#d97706" fill-opacity="0.9"/>
<circle cx="378.48" cy="434.64" r="4.5" fill="#d97706" fill-opacity="0.9"/>
<circle cx="386.97" cy="433.39" r="4.5" fill="#d97706" fill-opacity="0.9"/>
<circle cx="395.45" cy="434.03" r="4.5" fill="#d97706" fill-opacity="0.9"/>
<circle cx="403.94" cy="432.85" r="4.5" fill="#d97706" fill-opacity="0.9"/>
<circle cx="412.42" cy="434.32" r="4.5" fill="#d97706" fill-opacity="0.9"/>
<circle cx="420.91" cy="434.83" r="4.5" fill="#d97706" fill-opacity="0.9"/>
<circle cx="429.39" cy="434.81" r="4.5" fill="#d97706" fill-opacity="0.9"/>
<circle cx="437.88" cy="434.18" r="4.5" fill="#d97706" fill-opacity="0.9"/>
<circle cx="446.36" cy="434.61" r="4.5" fill="#d97706" fill-opacity="0.9"/>
<circle cx="454.85" cy="433.62" r="4.5" fill="#d97706" fill-opacity="0.9"/>
<circle cx="463.33" cy="434.01" r="4.5" fill="#d97706" fill-opacity="0.9"/>
<circle cx="471.82" cy="434.39" r="4.5" fill="#d97706" fill-opacity="0.9"/>
<circle cx="480.30" cy="433.92" r="4.5" fill="#d97706" fill-opacity="0.9"/>
<circle cx="488.79" cy="434.99" r="4.5" fill="#d97706" fill-opacity="0.9"/>
<circle cx="497.27" cy="434.24" r="4.5" fill="#d97706" fill-opacity="0.9"/>
<circle cx="505.76" cy="434.57" r="4.5" fill="#d97706" fill-opacity="0.9"/>
<circle cx="514.24" cy="435.14" r="4.5" fill="#d97706" fill-opacity="0.9"/>
<circle cx="522.73" cy="435.13" r="4.5" fill="#d97706" fill-opacity="0.9"/>
<circle cx="531.21" cy="435.16" r="4.5" fill="#d97706" fill-opacity="0.9"/>
<circle cx="539.70" cy="435.22" r="4.5" fill="#d97706" fill-opacity="0.9"/>
<circle cx="548.18" cy="435.21" r="4.5" fill="#d97706" fill-opacity="0.9"/>
<circle cx="556.67" cy="435.24" r="4.5" fill="#d97706" fill-opacity="0.9"/>
<circle cx="565.15" cy="435.19" r="4.5" fill="#d97706" fill-opacity="0.9"/>
<circle cx="573.64" cy="435.13" r="4.5" fill="#d97706" fill-opacity="0.9"/>
<circle cx="582.12" cy="435.23" r="4.5" fill="#d97706" fill-opacity="0.9"/>
<circle cx="590.61" cy="435.24" r="4.5" fill="#d97706" fill-opacity="0.9"/>
<circle cx="599.09" cy="435.19" r="4.5" fill="#d97706" fill-opacity="0.9"/>
<circle cx="607.58" cy="435.22" r="4.5" fill="#d97706" fill-opacity="0.9"/>
<circle cx="616.06" cy="435.21" r="4.5" fill="#d97706" fill-opacity="0.9"/>
<circle cx="624.55" cy="435.23" r="4.5" fill="#d97706" fill-opacity="0.9"/>
<circle cx="633.03" cy="435.21" r="4.5" fill="#d97706" fill-opacity="0.9"/>
<circle cx="641.52" cy="435.22" r="4.5" fill="#d97706" fill-opacity="0.9"/>
<circle cx="650.00" cy="435.18" r="4.5" fill="#d97706" fill-opacity="0.9"/>
<circle cx="658.48" cy="435.20" r="4.5" fill="#d97706" fill-opacity="0.9"/>
<circle cx="666.97" cy="435.15" r="4.5" fill="#d97706" fill-opacity="0.9"/>
<circle cx="675.45" cy="435.20" r="4.5" fill="#d97706" fill-opacity="0.9"/>
<circle cx="683.94" cy="435.18" r="4.5" fill="#d97706" fill-opacity="0.9"/>
<circle cx="692.42" cy="435.14" r="4.5" fill="#d97706" fill-opacity="0.9"/>
<circle cx="700.91" cy="435.13" r="4.5" fill="#d97706" fill-opacity="0.9"/>
<circle cx="709.39" cy="435.17" r="4.5" fill="#d97706" fill-opacity="0.9"/>
<circle cx="717.88" cy="435.16" r="4.5" fill="#d97706" fill-opacity="0.9"/>
<circle cx="726.36" cy="435.19" r="4.5" fill="#d97706" fill-opacity="0.9"/>
<circle cx="734.85" cy="435.14" r="4.5" fill="#d97706" fill-opacity="0.9"/>
<circle cx="743.33" cy="435.15" r="4.5" fill="#d97706" fill-opacity="0.9"/>
<circle cx="751.82" cy="435.16" r="4.5" fill="#d97706" fill-opacity="0.9"/>
<circle cx="760.30" cy="435.15" r="4.5" fill="#d97706" fill-opacity="0.9"/>
<circle cx="768.79" cy="435.11" r="4.5" fill="#d97706" fill-opacity="0.9"/>
<circle cx="777.27" cy="435.12" r="4.5" fill="#d97706" fill-opacity="0.9"/>
<circle cx="785.76" cy="435.14" r="4.5" fill="#d97706" fill-opacity="0.9"/>
<circle cx="794.24" cy="435.12" r="4.5" fill="#d97706" fill-opacity="0.9"/>
<circle cx="802.73" cy="435.13" r="4.5" fill="#d97706" fill-opacity="0.9"/>
<circle cx="811.21" cy="435.11" r="4.5" fill="#d97706" fill-opacity="0.9"/>
<circle cx="819.70" cy="435.10" r="4.5" fill="#d97706" fill-opacity="0.9"/>
<circle cx="828.18" cy="435.10" r="4.5" fill="#d97706" fill-opacity="0.9"/>
<circle cx="836.67" cy="435.10" r="4.5" fill="#d97706" fill-opacity="0.9"/>
<circle cx="845.15" cy="435.08" r="4.5" fill="#d97706" fill-opacity="0.9"/>
<circle cx="853.64" cy="435.08" r="4.5" fill="#d97706" fill-opacity="0.9"/>
<circle cx="862.12" cy="435.05" r="4.5" fill="#d97706" fill-opacity="0.9"/>
<circle cx="870.61" cy="435.03" r="4.5" fill="#d97706" fill-opacity="0.9"/>
<circle cx="879.09" cy="435.06" r="4.5" fill="#d97706" fill-opacity="0.9"/>
<circle cx="887.58" cy="435.02" r="4.5" fill="#d97706" fill-opacity="0.9"/>
<circle cx="896.06" cy="434.99" r="4.5" fill="#d97706" fill-opacity="0.9"/>
<circle cx="904.55" cy="435.03" r="4.5" fill="#d97706" fill-opacity="0.9"/>
<circle cx="913.03" cy="435.03" r="4.5" fill="#d97706" fill-opacity="0.9"/>
<circle cx="921.52" cy="435.02" r="4.5" fill="#d97706" fill-opacity="0.9"/>
<circle cx="930.00" cy="435.05" r="4.5" fill="#d97706" fill-opacity="0.9"/>
<rect x="270" y="32" width="18" height="6" fill="#d97706"/>
<text x="294" y="38" font-size="13" fill="#333333">val</text>
<polyline fill="none" stroke="#059669" stroke-width="3" points="90.00,94.32 98.48,166.70 106.97,432.90 115.45,433.13 123.94,433.07 132.42,432.29 140.91,433.36 149.39,432.96 157.88,432.63 166.36,433.04 174.85,423.82 183.33,432.61 191.82,432.81 200.30,432.86 208.79,431.51 217.27,431.77 225.76,431.79 234.24,433.79 242.73,431.92 251.21,432.29 259.70,433.18 268.18,432.64 276.67,428.81 285.15,434.18 293.64,434.42 302.12,431.68 310.61,422.88 319.09,431.31 327.58,433.02 336.06,430.84 344.55,432.83 353.03,433.47 361.52,434.74 370.00,434.79 378.48,434.64 386.97,433.28 395.45,434.02 403.94,432.84 412.42,434.20 420.91,434.75 429.39,434.82 437.88,434.09 446.36,434.63 454.85,433.44 463.33,434.01 471.82,434.33 480.30,433.78 488.79,435.03 497.27,434.21 505.76,434.62 514.24,435.18 522.73,435.16 531.21,435.19 539.70,435.23 548.18,435.22 556.67,435.24 565.15,435.20 573.64,435.15 582.12,435.23 590.61,435.22 599.09,435.22 607.58,435.24 616.06,435.22 624.55,435.22 633.03,435.22 641.52,435.22 650.00,435.21 658.48,435.22 666.97,435.19 675.45,435.20 683.94,435.20 692.42,435.17 700.91,435.16 709.39,435.19 717.88,435.18 726.36,435.19 734.85,435.16 743.33,435.14 751.82,435.17 760.30,435.15 768.79,435.13 777.27,435.13 785.76,435.14 794.24,435.12 802.73,435.13 811.21,435.11 819.70,435.09 828.18,435.12 836.67,435.09 845.15,435.10 853.64,435.10 862.12,435.06 870.61,435.04 879.09,435.06 887.58,435.05 896.06,435.03 904.55,435.06 913.03,435.05 921.52,435.05 930.00,435.06"/>
<circle cx="90.00" cy="94.32" r="4.5" fill="#059669" fill-opacity="0.9"/>
<circle cx="98.48" cy="166.70" r="4.5" fill="#059669" fill-opacity="0.9"/>
<circle cx="106.97" cy="432.90" r="4.5" fill="#059669" fill-opacity="0.9"/>
<circle cx="115.45" cy="433.13" r="4.5" fill="#059669" fill-opacity="0.9"/>
<circle cx="123.94" cy="433.07" r="4.5" fill="#059669" fill-opacity="0.9"/>
<circle cx="132.42" cy="432.29" r="4.5" fill="#059669" fill-opacity="0.9"/>
<circle cx="140.91" cy="433.36" r="4.5" fill="#059669" fill-opacity="0.9"/>
<circle cx="149.39" cy="432.96" r="4.5" fill="#059669" fill-opacity="0.9"/>
<circle cx="157.88" cy="432.63" r="4.5" fill="#059669" fill-opacity="0.9"/>
<circle cx="166.36" cy="433.04" r="4.5" fill="#059669" fill-opacity="0.9"/>
<circle cx="174.85" cy="423.82" r="4.5" fill="#059669" fill-opacity="0.9"/>
<circle cx="183.33" cy="432.61" r="4.5" fill="#059669" fill-opacity="0.9"/>
<circle cx="191.82" cy="432.81" r="4.5" fill="#059669" fill-opacity="0.9"/>
<circle cx="200.30" cy="432.86" r="4.5" fill="#059669" fill-opacity="0.9"/>
<circle cx="208.79" cy="431.51" r="4.5" fill="#059669" fill-opacity="0.9"/>
<circle cx="217.27" cy="431.77" r="4.5" fill="#059669" fill-opacity="0.9"/>
<circle cx="225.76" cy="431.79" r="4.5" fill="#059669" fill-opacity="0.9"/>
<circle cx="234.24" cy="433.79" r="4.5" fill="#059669" fill-opacity="0.9"/>
<circle cx="242.73" cy="431.92" r="4.5" fill="#059669" fill-opacity="0.9"/>
<circle cx="251.21" cy="432.29" r="4.5" fill="#059669" fill-opacity="0.9"/>
<circle cx="259.70" cy="433.18" r="4.5" fill="#059669" fill-opacity="0.9"/>
<circle cx="268.18" cy="432.64" r="4.5" fill="#059669" fill-opacity="0.9"/>
<circle cx="276.67" cy="428.81" r="4.5" fill="#059669" fill-opacity="0.9"/>
<circle cx="285.15" cy="434.18" r="4.5" fill="#059669" fill-opacity="0.9"/>
<circle cx="293.64" cy="434.42" r="4.5" fill="#059669" fill-opacity="0.9"/>
<circle cx="302.12" cy="431.68" r="4.5" fill="#059669" fill-opacity="0.9"/>
<circle cx="310.61" cy="422.88" r="4.5" fill="#059669" fill-opacity="0.9"/>
<circle cx="319.09" cy="431.31" r="4.5" fill="#059669" fill-opacity="0.9"/>
<circle cx="327.58" cy="433.02" r="4.5" fill="#059669" fill-opacity="0.9"/>
<circle cx="336.06" cy="430.84" r="4.5" fill="#059669" fill-opacity="0.9"/>
<circle cx="344.55" cy="432.83" r="4.5" fill="#059669" fill-opacity="0.9"/>
<circle cx="353.03" cy="433.47" r="4.5" fill="#059669" fill-opacity="0.9"/>
<circle cx="361.52" cy="434.74" r="4.5" fill="#059669" fill-opacity="0.9"/>
<circle cx="370.00" cy="434.79" r="4.5" fill="#059669" fill-opacity="0.9"/>
<circle cx="378.48" cy="434.64" r="4.5" fill="#059669" fill-opacity="0.9"/>
<circle cx="386.97" cy="433.28" r="4.5" fill="#059669" fill-opacity="0.9"/>
<circle cx="395.45" cy="434.02" r="4.5" fill="#059669" fill-opacity="0.9"/>
<circle cx="403.94" cy="432.84" r="4.5" fill="#059669" fill-opacity="0.9"/>
<circle cx="412.42" cy="434.20" r="4.5" fill="#059669" fill-opacity="0.9"/>
<circle cx="420.91" cy="434.75" r="4.5" fill="#059669" fill-opacity="0.9"/>
<circle cx="429.39" cy="434.82" r="4.5" fill="#059669" fill-opacity="0.9"/>
<circle cx="437.88" cy="434.09" r="4.5" fill="#059669" fill-opacity="0.9"/>
<circle cx="446.36" cy="434.63" r="4.5" fill="#059669" fill-opacity="0.9"/>
<circle cx="454.85" cy="433.44" r="4.5" fill="#059669" fill-opacity="0.9"/>
<circle cx="463.33" cy="434.01" r="4.5" fill="#059669" fill-opacity="0.9"/>
<circle cx="471.82" cy="434.33" r="4.5" fill="#059669" fill-opacity="0.9"/>
<circle cx="480.30" cy="433.78" r="4.5" fill="#059669" fill-opacity="0.9"/>
<circle cx="488.79" cy="435.03" r="4.5" fill="#059669" fill-opacity="0.9"/>
<circle cx="497.27" cy="434.21" r="4.5" fill="#059669" fill-opacity="0.9"/>
<circle cx="505.76" cy="434.62" r="4.5" fill="#059669" fill-opacity="0.9"/>
<circle cx="514.24" cy="435.18" r="4.5" fill="#059669" fill-opacity="0.9"/>
<circle cx="522.73" cy="435.16" r="4.5" fill="#059669" fill-opacity="0.9"/>
<circle cx="531.21" cy="435.19" r="4.5" fill="#059669" fill-opacity="0.9"/>
<circle cx="539.70" cy="435.23" r="4.5" fill="#059669" fill-opacity="0.9"/>
<circle cx="548.18" cy="435.22" r="4.5" fill="#059669" fill-opacity="0.9"/>
<circle cx="556.67" cy="435.24" r="4.5" fill="#059669" fill-opacity="0.9"/>
<circle cx="565.15" cy="435.20" r="4.5" fill="#059669" fill-opacity="0.9"/>
<circle cx="573.64" cy="435.15" r="4.5" fill="#059669" fill-opacity="0.9"/>
<circle cx="582.12" cy="435.23" r="4.5" fill="#059669" fill-opacity="0.9"/>
<circle cx="590.61" cy="435.22" r="4.5" fill="#059669" fill-opacity="0.9"/>
<circle cx="599.09" cy="435.22" r="4.5" fill="#059669" fill-opacity="0.9"/>
<circle cx="607.58" cy="435.24" r="4.5" fill="#059669" fill-opacity="0.9"/>
<circle cx="616.06" cy="435.22" r="4.5" fill="#059669" fill-opacity="0.9"/>
<circle cx="624.55" cy="435.22" r="4.5" fill="#059669" fill-opacity="0.9"/>
<circle cx="633.03" cy="435.22" r="4.5" fill="#059669" fill-opacity="0.9"/>
<circle cx="641.52" cy="435.22" r="4.5" fill="#059669" fill-opacity="0.9"/>
<circle cx="650.00" cy="435.21" r="4.5" fill="#059669" fill-opacity="0.9"/>
<circle cx="658.48" cy="435.22" r="4.5" fill="#059669" fill-opacity="0.9"/>
<circle cx="666.97" cy="435.19" r="4.5" fill="#059669" fill-opacity="0.9"/>
<circle cx="675.45" cy="435.20" r="4.5" fill="#059669" fill-opacity="0.9"/>
<circle cx="683.94" cy="435.20" r="4.5" fill="#059669" fill-opacity="0.9"/>
<circle cx="692.42" cy="435.17" r="4.5" fill="#059669" fill-opacity="0.9"/>
<circle cx="700.91" cy="435.16" r="4.5" fill="#059669" fill-opacity="0.9"/>
<circle cx="709.39" cy="435.19" r="4.5" fill="#059669" fill-opacity="0.9"/>
<circle cx="717.88" cy="435.18" r="4.5" fill="#059669" fill-opacity="0.9"/>
<circle cx="726.36" cy="435.19" r="4.5" fill="#059669" fill-opacity="0.9"/>
<circle cx="734.85" cy="435.16" r="4.5" fill="#059669" fill-opacity="0.9"/>
<circle cx="743.33" cy="435.14" r="4.5" fill="#059669" fill-opacity="0.9"/>
<circle cx="751.82" cy="435.17" r="4.5" fill="#059669" fill-opacity="0.9"/>
<circle cx="760.30" cy="435.15" r="4.5" fill="#059669" fill-opacity="0.9"/>
<circle cx="768.79" cy="435.13" r="4.5" fill="#059669" fill-opacity="0.9"/>
<circle cx="777.27" cy="435.13" r="4.5" fill="#059669" fill-opacity="0.9"/>
<circle cx="785.76" cy="435.14" r="4.5" fill="#059669" fill-opacity="0.9"/>
<circle cx="794.24" cy="435.12" r="4.5" fill="#059669" fill-opacity="0.9"/>
<circle cx="802.73" cy="435.13" r="4.5" fill="#059669" fill-opacity="0.9"/>
<circle cx="811.21" cy="435.11" r="4.5" fill="#059669" fill-opacity="0.9"/>
<circle cx="819.70" cy="435.09" r="4.5" fill="#059669" fill-opacity="0.9"/>
<circle cx="828.18" cy="435.12" r="4.5" fill="#059669" fill-opacity="0.9"/>
<circle cx="836.67" cy="435.09" r="4.5" fill="#059669" fill-opacity="0.9"/>
<circle cx="845.15" cy="435.10" r="4.5" fill="#059669" fill-opacity="0.9"/>
<circle cx="853.64" cy="435.10" r="4.5" fill="#059669" fill-opacity="0.9"/>
<circle cx="862.12" cy="435.06" r="4.5" fill="#059669" fill-opacity="0.9"/>
<circle cx="870.61" cy="435.04" r="4.5" fill="#059669" fill-opacity="0.9"/>
<circle cx="879.09" cy="435.06" r="4.5" fill="#059669" fill-opacity="0.9"/>
<circle cx="887.58" cy="435.05" r="4.5" fill="#059669" fill-opacity="0.9"/>
<circle cx="896.06" cy="435.03" r="4.5" fill="#059669" fill-opacity="0.9"/>
<circle cx="904.55" cy="435.06" r="4.5" fill="#059669" fill-opacity="0.9"/>
<circle cx="913.03" cy="435.05" r="4.5" fill="#059669" fill-opacity="0.9"/>
<circle cx="921.52" cy="435.05" r="4.5" fill="#059669" fill-opacity="0.9"/>
<circle cx="930.00" cy="435.06" r="4.5" fill="#059669" fill-opacity="0.9"/>
<rect x="450" y="32" width="18" height="6" fill="#059669"/>
<text x="474" y="38" font-size="13" fill="#333333">test</text>
</svg>