<svg xmlns="http://www.w3.org/2000/svg" width="960" height="540">
<rect width="100%" height="100%" fill="#ffffff"/>
<text x="480.0" y="30" font-size="22" text-anchor="middle" fill="#111111">Sequence Accuracy</text>
<text x="20" y="270.0" font-size="16" transform="rotate(-90 20,270.0)" text-anchor="middle" fill="#333333">Accuracy</text>
<text x="480.0" y="520" font-size="16" text-anchor="middle" fill="#333333">Epoch</text>
<line x1="90" y1="60" x2="90" y2="470" stroke="#333333" stroke-width="2"/>
<line x1="90" y1="470" x2="930" y2="470" stroke="#333333" stroke-width="2"/>
<line x1="90" y1="470.00" x2="930" y2="470.00" stroke="#e5e7eb" stroke-width="1"/>
<text x="80" y="475.00" font-size="12" text-anchor="end" fill="#555555">-0.0955</text>
<line x1="90" y1="367.50" x2="930" y2="367.50" stroke="#e5e7eb" stroke-width="1"/>
<text x="80" y="372.50" font-size="12" text-anchor="end" fill="#555555">0.1910</text>
<line x1="90" y1="265.00" x2="930" y2="265.00" stroke="#e5e7eb" stroke-width="1"/>
<text x="80" y="270.00" font-size="12" text-anchor="end" fill="#555555">0.4775</text>
<line x1="90" y1="162.50" x2="930" y2="162.50" stroke="#e5e7eb" stroke-width="1"/>
<text x="80" y="167.50" font-size="12" text-anchor="end" fill="#555555">0.7639</text>
<line x1="90" y1="60.00" x2="930" y2="60.00" stroke="#e5e7eb" stroke-width="1"/>
<text x="80" y="65.00" font-size="12" text-anchor="end" fill="#555555">1.0504</text>
<line x1="90.00" y1="60" x2="90.00" y2="470" stroke="#f3f4f6" stroke-width="1"/>
<text x="90.00" y="492" font-size="12" text-anchor="middle" fill="#555555">1</text>
<line x1="98.48" y1="60" x2="98.48" y2="470" stroke="#f3f4f6" stroke-width="1"/>
<text x="98.48" y="492" font-size="12" text-anchor="middle" fill="#555555">2</text>
<line x1="106.97" y1="60" x2="106.97" y2="470" stroke="#f3f4f6" stroke-width="1"/>
<text x="106.97" y="492" font-size="12" text-anchor="middle" fill="#555555">3</text>
<line x1="115.45" y1="60" x2="115.45" y2="470" stroke="#f3f4f6" stroke-width="1"/>
<text x="115.45" y="492" font-size="12" text-anchor="middle" fill="#555555">4</text>
<line x1="123.94" y1="60" x2="123.94" y2="470" stroke="#f3f4f6" stroke-width="1"/>
<text x="123.94" y="492" font-size="12" text-anchor="middle" fill="#555555">5</text>
<line x1="132.42" y1="60" x2="132.42" y2="470" stroke="#f3f4f6" stroke-width="1"/>
<text x="132.42" y="492" font-size="12" text-anchor="middle" fill="#555555">6</text>
<line x1="140.91" y1="60" x2="140.91" y2="470" stroke="#f3f4f6" stroke-width="1"/>
<text x="140.91" y="492" font-size="12" text-anchor="middle" fill="#555555">7</text>
<line x1="149.39" y1="60" x2="149.39" y2="470" stroke="#f3f4f6" stroke-width="1"/>
<text x="149.39" y="492" font-size="12" text-anchor="middle" fill="#555555">8</text>
<line x1="157.88" y1="60" x2="157.88" y2="470" stroke="#f3f4f6" stroke-width="1"/>
<text x="157.88" y="492" font-size="12" text-anchor="middle" fill="#555555">9</text>
<line x1="166.36" y1="60" x2="166.36" y2="470" stroke="#f3f4f6" stroke-width="1"/>
<text x="166.36" y="492" font-size="12" text-anchor="middle" fill="#555555">10</text>
<line x1="174.85" y1="60" x2="174.85" y2="470" stroke="#f3f4f6" stroke-width="1"/>
<text x="174.85" y="492" font-size="12" text-anchor="middle" fill="#555555">11</text>
<line x1="183.33" y1="60" x2="183.33" y2="470" stroke="#f3f4f6" stroke-width="1"/>
<text x="183.33" y="492" font-size="12" text-anchor="middle" fill="#555555">12</text>
<line x1="191.82" y1="60" x2="191.82" y2="470" stroke="#f3f4f6" stroke-width="1"/>
<text x="191.82" y="492" font-size="12" text-anchor="middle" fill="#555555">13</text>
<line x1="200.30" y1="60" x2="200.30" y2="470" stroke="#f3f4f6" stroke-width="1"/>
<text x="200.30" y="492" font-size="12" text-anchor="middle" fill="#555555">14</text>
<line x1="208.79" y1="60" x2="208.79" y2="470" stroke="#f3f4f6" stroke-width="1"/>
<text x="208.79" y="492" font-size="12" text-anchor="middle" fill="#555555">15</text>
<line x1="217.27" y1="60" x2="217.27" y2="470" stroke="#f3f4f6" stroke-width="1"/>
<text x="217.27" y="492" font-size="12" text-anchor="middle" fill="#555555">16</text>
<line x1="225.76" y1="60" x2="225.76" y2="470" stroke="#f3f4f6" stroke-width="1"/>
<text x="225.76" y="492" font-size="12" text-anchor="middle" fill="#555555">17</text>
<line x1="234.24" y1="60" x2="234.24" y2="470" stroke="#f3f4f6" stroke-width="1"/>
<text x="234.24" y="492" font-size="12" text-anchor="middle" fill="#555555">18</text>
<line x1="242.73" y1="60" x2="242.73" y2="470" stroke="#f3f4f6" stroke-width="1"/>
<text x="242.73" y="492" font-size="12" text-anchor="middle" fill="#555555">19</text>
<line x1="251.21" y1="60" x2="251.21" y2="470" stroke="#f3f4f6" stroke-width="1"/>
<text x="251.21" y="492" font-size="12" text-anchor="middle" fill="#555555">20</text>
<line x1="259.70" y1="60" x2="259.70" y2="470" stroke="#f3f4f6" stroke-width="1"/>
<text x="259.70" y="492" font-size="12" text-anchor="middle" fill="#555555">21</text>
<line x1="268.18" y1="60" x2="268.18" y2="470" stroke="#f3f4f6" stroke-width="1"/>
<text x="268.18" y="492" font-size="12" text-anchor="middle" fill="#555555">22</text>
<line x1="276.67" y1="60" x2="276.67" y2="470" stroke="#f3f4f6" stroke-width="1"/>
<text x="276.67" y="492" font-size="12" text-anchor="middle" fill="#555555">23</text>
<line x1="285.15" y1="60" x2="285.15" y2="470" stroke="#f3f4f6" stroke-width="1"/>
<text x="285.15" y="492" font-size="12" text-anchor="middle" fill="#555555">24</text>
<line x1="293.64" y1="60" x2="293.64" y2="470" stroke="#f3f4f6" stroke-width="1"/>
<text x="293.64" y="492" font-size="12" text-anchor="middle" fill="#555555">25</text>
<line x1="302.12" y1="60" x2="302.12" y2="470" stroke="#f3f4f6" stroke-width="1"/>
<text x="302.12" y="492" font-size="12" text-anchor="middle" fill="#555555">26</text>
<line x1="310.61" y1="60" x2="310.61" y2="470" stroke="#f3f4f6" stroke-width="1"/>
<text x="310.61" y="492" font-size="12" text-anchor="middle" fill="#555555">27</text>
<line x1="319.09" y1="60" x2="319.09" y2="470" stroke="#f3f4f6" stroke-width="1"/>
<text x="319.09" y="492" font-size="12" text-anchor="middle" fill="#555555">28</text>
<line x1="327.58" y1="60" x2="327.58" y2="470" stroke="#f3f4f6" stroke-width="1"/>
<text x="327.58" y="492" font-size="12" text-anchor="middle" fill="#555555">29</text>
<line x1="336.06" y1="60" x2="336.06" y2="470" stroke="#f3f4f6" stroke-width="1"/>
<text x="336.06" y="492" font-size="12" text-anchor="middle" fill="#555555">30</text>
<line x1="344.55" y1="60" x2="344.55" y2="470" stroke="#f3f4f6" stroke-width="1"/>
<text x="344.55" y="492" font-size="12" text-anchor="middle" fill="#555555">31</text>
<line x1="353.03" y1="60" x2="353.03" y2="470" stroke="#f3f4f6" stroke-width="1"/>
<text x="353.03" y="492" font-size="12" text-anchor="middle" fill="#555555">32</text>
<line x1="361.52" y1="60" x2="361.52" y2="470" stroke="#f3f4f6" stroke-width="1"/>
<text x="361.52" y="492" font-size="12" text-anchor="middle" fill="#555555">33</text>
<line x1="370.00" y1="60" x2="370.00" y2="470" stroke="#f3f4f6" stroke-width="1"/>
<text x="370.00" y="492" font-size="12" text-anchor="middle" fill="#555555">34</text>
<line x1="378.48" y1="60" x2="378.48" y2="470" stroke="#f3f4f6" stroke-width="1"/>
<text x="378.48" y="492" font-size="12" text-anchor="middle" fill="#555555">35</text>
<line x1="386.97" y1="60" x2="386.97" y2="470" stroke="#f3f4f6" stroke-width="1"/>
<text x="386.97" y="492" font-size="12" text-anchor="middle" fill="#555555">36</text>
<line x1="395.45" y1="60" x2="395.45" y2="470" stroke="#f3f4f6" stroke-width="1"/>
<text x="395.45" y="492" font-size="12" text-anchor="middle" fill="#555555">37</text>
<line x1="403.94" y1="60" x2="403.94" y2="470" stroke="#f3f4f6" stroke-width="1"/>
<text x="403.94" y="492" font-size="12" text-anchor="middle" fill="#555555">38</text>
<line x1="412.42" y1="60" x2="412.42" y2="470" stroke="#f3f4f6" stroke-width="1"/>
<text x="412.42" y="492" font-size="12" text-anchor="middle" fill="#555555">39</text>
<line x1="420.91" y1="60" x2="420.91" y2="470" stroke="#f3f4f6" stroke-width="1"/>
<text x="420.91" y="492" font-size="12" text-anchor="middle" fill="#555555">40</text>
<line x1="429.39" y1="60" x2="429.39" y2="470" stroke="#f3f4f6" stroke-width="1"/>
<text x="429.39" y="492" font-size="12" text-anchor="middle" fill="#555555">41</text>
<line x1="437.88" y1="60" x2="437.88" y2="470" stroke="#f3f4f6" stroke-width="1"/>
<text x="437.88" y="492" font-size="12" text-anchor="middle" fill="#555555">42</text>
<line x1="446.36" y1="60" x2="446.36" y2="470" stroke="#f3f4f6" stroke-width="1"/>
<text x="446.36" y="492" font-size="12" text-anchor="middle" fill="#555555">43</text>
<line x1="454.85" y1="60" x2="454.85" y2="470" stroke="#f3f4f6" stroke-width="1"/>
<text x="454.85" y="492" font-size="12" text-anchor="middle" fill="#555555">44</text>
<line x1="463.33" y1="60" x2="463.33" y2="470" stroke="#f3f4f6" stroke-width="1"/>
<text x="463.33" y="492" font-size="12" text-anchor="middle" fill="#555555">45</text>
<line x1="471.82" y1="60" x2="471.82" y2="470" stroke="#f3f4f6" stroke-width="1"/>
<text x="471.82" y="492" font-size="12" text-anchor="middle" fill="#555555">46</text>
<line x1="480.30" y1="60" x2="480.30" y2="470" stroke="#f3f4f6" stroke-width="1"/>
<text x="480.30" y="492" font-size="12" text-anchor="middle" fill="#555555">47</text>
<line x1="488.79" y1="60" x2="488.79" y2="470" stroke="#f3f4f6" stroke-width="1"/>
<text x="488.79" y="492" font-size="12" text-anchor="middle" fill="#555555">48</text>
<line x1="497.27" y1="60" x2="497.27" y2="470" stroke="#f3f4f6" stroke-width="1"/>
<text x="497.27" y="492" font-size="12" text-anchor="middle" fill="#555555">49</text>
<line x1="505.76" y1="60" x2="505.76" y2="470" stroke="#f3f4f6" stroke-width="1"/>
<text x="505.76" y="492" font-size="12" text-anchor="middle" fill="#555555">50</text>
<line x1="514.24" y1="60" x2="514.24" y2="470" stroke="#f3f4f6" stroke-width="1"/>
<text x="514.24" y="492" font-size="12" text-anchor="middle" fill="#555555">51</text>
<line x1="522.73" y1="60" x2="522.73" y2="470" stroke="#f3f4f6" stroke-width="1"/>
<text x="522.73" y="492" font-size="12" text-anchor="middle" fill="#555555">52</text>
<line x1="531.21" y1="60" x2="531.21" y2="470" stroke="#f3f4f6" stroke-width="1"/>
<text x="531.21" y="492" font-size="12" text-anchor="middle" fill="#555555">53</text>
<line x1="539.70" y1="60" x2="539.70" y2="470" stroke="#f3f4f6" stroke-width="1"/>
<text x="539.70" y="492" font-size="12" text-anchor="middle" fill="#555555">54</text>
<line x1="548.18" y1="60" x2="548.18" y2="470" stroke="#f3f4f6" stroke-width="1"/>
<text x="548.18" y="492" font-size="12" text-anchor="middle" fill="#555555">55</text>
<line x1="556.67" y1="60" x2="556.67" y2="470" stroke="#f3f4f6" stroke-width="1"/>
<text x="556.67" y="492" font-size="12" text-anchor="middle" fill="#555555">56</text>
<line x1="565.15" y1="60" x2="565.15" y2="470" stroke="#f3f4f6" stroke-width="1"/>
<text x="565.15" y="492" font-size="12" text-anchor="middle" fill="#555555">57</text>
<line x1="573.64" y1="60" x2="573.64" y2="470" stroke="#f3f4f6" stroke-width="1"/>
<text x="573.64" y="492" font-size="12" text-anchor="middle" fill="#555555">58</text>
<line x1="582.12" y1="60" x2="582.12" y2="470" stroke="#f3f4f6" stroke-width="1"/>
<text x="582.12" y="492" font-size="12" text-anchor="middle" fill="#555555">59</text>
<line x1="590.61" y1="60" x2="590.61" y2="470" stroke="#f3f4f6" stroke-width="1"/>
<text x="590.61" y="492" font-size="12" text-anchor="middle" fill="#555555">60</text>
<line x1="599.09" y1="60" x2="599.09" y2="470" stroke="#f3f4f6" stroke-width="1"/>
<text x="599.09" y="492" font-size="12" text-anchor="middle" fill="#555555">61</text>
<line x1="607.58" y1="60" x2="607.58" y2="470" stroke="#f3f4f6" stroke-width="1"/>
<text x="607.58" y="492" font-size="12" text-anchor="middle" fill="#555555">62</text>
<line x1="616.06" y1="60" x2="616.06" y2="470" stroke="#f3f4f6" stroke-width="1"/>
<text x="616.06" y="492" font-size="12" text-anchor="middle" fill="#555555">63</text>
<line x1="624.55" y1="60" x2="624.55" y2="470" stroke="#f3f4f6" stroke-width="1"/>
<text x="624.55" y="492" font-size="12" text-anchor="middle" fill="#555555">64</text>
<line x1="633.03" y1="60" x2="633.03" y2="470" stroke="#f3f4f6" stroke-width="1"/>
<text x="633.03" y="492" font-size="12" text-anchor="middle" fill="#555555">65</text>
<line x1="641.52" y1="60" x2="641.52" y2="470" stroke="#f3f4f6" stroke-width="1"/>
<text x="641.52" y="492" font-size="12" text-anchor="middle" fill="#555555">66</text>
<line x1="650.00" y1="60" x2="650.00" y2="470" stroke="#f3f4f6" stroke-width="1"/>
<text x="650.00" y="492" font-size="12" text-anchor="middle" fill="#555555">67</text>
<line x1="658.48" y1="60" x2="658.48" y2="470" stroke="#f3f4f6" stroke-width="1"/>
<text x="658.48" y="492" font-size="12" text-anchor="middle" fill="#555555">68</text>
<line x1="666.97" y1="60" x2="666.97" y2="470" stroke="#f3f4f6" stroke-width="1"/>
<text x="666.97" y="492" font-size="12" text-anchor="middle" fill="#555555">69</text>
<line x1="675.45" y1="60" x2="675.45" y2="470" stroke="#f3f4f6" stroke-width="1"/>
<text x="675.45" y="492" font-size="12" text-anchor="middle" fill="#555555">70</text>
<line x1="683.94" y1="60" x2="683.94" y2="470" stroke="#f3f4f6" stroke-width="1"/>
<text x="683.94" y="492" font-size="12" text-anchor="middle" fill="#555555">71</text>
<line x1="692.42" y1="60" x2="692.42" y2="470" stroke="#f3f4f6" stroke-width="1"/>
<text x="692.42" y="492" font-size="12" text-anchor="middle" fill="#555555">72</text>
<line x1="700.91" y1="60" x2="700.91" y2="470" stroke="#f3f4f6" stroke-width="1"/>
<text x="700.91" y="492" font-size="12" text-anchor="middle" fill="#555555">73</text>
<line x1="709.39" y1="60" x2="709.39" y2="470" stroke="#f3f4f6" stroke-width="1"/>
<text x="709.39" y="492" font-size="12" text-anchor="middle" fill="#555555">74</text>
<line x1="717.88" y1="60" x2="717.88" y2="470" stroke="#f3f4f6" stroke-width="1"/>
<text x="717.88" y="492" font-size="12" text-anchor="middle" fill="#555555">75</text>
<line x1="726.36" y1="60" x2="726.36" y2="470" stroke="#f3f4f6" stroke-width="1"/>
<text x="726.36" y="492" font-size="12" text-anchor="middle" fill="#555555">76</text>
<line x1="734.85" y1="60" x2="734.85" y2="470" stroke="#f3f4f6" stroke-width="1"/>
<text x="734.85" y="492" font-size="12" text-anchor="middle" fill="#555555">77</text>
<line x1="743.33" y1="60" x2="743.33" y2="470" stroke="#f3f4f6" stroke-width="1"/>
<text x="743.33" y="492" font-size="12" text-anchor="middle" fill="#555555">78</text>
<line x1="751.82" y1="60" x2="751.82" y2="470" stroke="#f3f4f6" stroke-width="1"/>
<text x="751.82" y="492" font-size="12" text-anchor="middle" fill="#555555">79</text>
<line x1="760.30" y1="60" x2="760.30" y2="470" stroke="#f3f4f6" stroke-width="1"/>
<text x="760.30" y="492" font-size="12" text-anchor="middle" fill="#555555">80</text>
<line x1="768.79" y1="60" x2="768.79" y2="470" stroke="#f3f4f6" stroke-width="1"/>
<text x="768.79" y="492" font-size="12" text-anchor="middle" fill="#555555">81</text>
<line x1="777.27" y1="60" x2="777.27" y2="470" stroke="#f3f4f6" stroke-width="1"/>
<text x="777.27" y="492" font-size="12" text-anchor="middle" fill="#555555">82</text>
<line x1="785.76" y1="60" x2="785.76" y2="470" stroke="#f3f4f6" stroke-width="1"/>
<text x="785.76" y="492" font-size="12" text-anchor="middle" fill="#555555">83</text>
<line x1="794.24" y1="60" x2="794.24" y2="470" stroke="#f3f4f6" stroke-width="1"/>
<text x="794.24" y="492" font-size="12" text-anchor="middle" fill="#555555">84</text>
<line x1="802.73" y1="60" x2="802.73" y2="470" stroke="#f3f4f6" stroke-width="1"/>
<text x="802.73" y="492" font-size="12" text-anchor="middle" fill="#555555">85</text>
<line x1="811.21" y1="60" x2="811.21" y2="470" stroke="#f3f4f6" stroke-width="1"/>
<text x="811.21" y="492" font-size="12" text-anchor="middle" fill="#555555">86</text>
<line x1="819.70" y1="60" x2="819.70" y2="470" stroke="#f3f4f6" stroke-width="1"/>
<text x="819.70" y="492" font-size="12" text-anchor="middle" fill="#555555">87</text>
<line x1="828.18" y1="60" x2="828.18" y2="470" stroke="#f3f4f6" stroke-width="1"/>
<text x="828.18" y="492" font-size="12" text-anchor="middle" fill="#555555">88</text>
<line x1="836.67" y1="60" x2="836.67" y2="470" stroke="#f3f4f6" stroke-width="1"/>
<text x="836.67" y="492" font-size="12" text-anchor="middle" fill="#555555">89</text>
<line x1="845.15" y1="60" x2="845.15" y2="470" stroke="#f3f4f6" stroke-width="1"/>
<text x="845.15" y="492" font-size="12" text-anchor="middle" fill="#555555">90</text>
<line x1="853.64" y1="60" x2="853.64" y2="470" stroke="#f3f4f6" stroke-width="1"/>
<text x="853.64" y="492" font-size="12" text-anchor="middle" fill="#555555">91</text>
<line x1="862.12" y1="60" x2="862.12" y2="470" stroke="#f3f4f6" stroke-width="1"/>
<text x="862.12" y="492" font-size="12" text-anchor="middle" fill="#555555">92</text>
<line x1="870.61" y1="60" x2="870.61" y2="470" stroke="#f3f4f6" stroke-width="1"/>
<text x="870.61" y="492" font-size="12" text-anchor="middle" fill="#555555">93</text>
<line x1="879.09" y1="60" x2="879.09" y2="470" stroke="#f3f4f6" stroke-width="1"/>
<text x="879.09" y="492" font-size="12" text-anchor="middle" fill="#555555">94</text>
<line x1="887.58" y1="60" x2="887.58" y2="470" stroke="#f3f4f6" stroke-width="1"/>
<text x="887.58" y="492" font-size="12" text-anchor="middle" fill="#555555">95</text>
<line x1="896.06" y1="60" x2="896.06" y2="470" stroke="#f3f4f6" stroke-width="1"/>
<text x="896.06" y="492" font-size="12" text-anchor="middle" fill="#555555">96</text>
<line x1="904.55" y1="60" x2="904.55" y2="470" stroke="#f3f4f6" stroke-width="1"/>
<text x="904.55" y="492" font-size="12" text-anchor="middle" fill="#555555">97</text>
<line x1="913.03" y1="60" x2="913.03" y2="470" stroke="#f3f4f6" stroke-width="1"/>
<text x="913.03" y="492" font-size="12" text-anchor="middle" fill="#555555">98</text>
<line x1="921.52" y1="60" x2="921.52" y2="470" stroke="#f3f4f6" stroke-width="1"/>
<text x="921.52" y="492" font-size="12" text-anchor="middle" fill="#555555">99</text>
<line x1="930.00" y1="60" x2="930.00" y2="470" stroke="#f3f4f6" stroke-width="1"/>
<text x="930.00" y="492" font-size="12" text-anchor="middle" fill="#555555">100</text>
<polyline fill="none" stroke="#d97706" stroke-width="3" points="90.00,435.83 98.48,435.83 106.97,159.48 115.45,134.19 123.94,132.66 132.42,142.35 140.91,129.73 149.39,131.38 157.88,130.23 166.36,130.69 174.85,181.01 183.33,128.94 191.82,128.90 200.30,128.75 208.79,128.85 217.27,131.83 225.76,131.04 234.24,123.05 242.73,130.21 251.21,128.61 259.70,127.16 268.18,127.58 276.67,157.14 285.15,116.49 293.64,114.08 302.12,128.09 310.61,201.60 319.09,127.80 327.58,125.41 336.06,128.11 344.55,123.10 353.03,121.91 361.52,108.55 370.00,108.45 378.48,107.26 386.97,121.14 395.45,114.49 403.94,129.18 412.42,111.65 420.91,106.55 429.39,105.93 437.88,112.27 446.36,109.36 454.85,118.35 463.33,114.56 471.82,111.27 480.30,116.11 488.79,101.73 497.27,112.27 505.76,106.98 514.24,96.22 522.73,96.84 531.21,96.70 539.70,95.55 548.18,96.10 556.67,95.62 565.15,96.00 573.64,96.89 582.12,95.72 590.61,94.43 599.09,95.69 607.58,95.57 616.06,95.53 624.55,94.98 633.03,95.10 641.52,94.83 650.00,95.03 658.48,94.57 666.97,95.69 675.45,94.36 683.94,95.19 692.42,95.12 700.91,95.29 709.39,95.48 717.88,95.67 726.36,94.17 734.85,95.17 743.33,95.38 751.82,95.31 760.30,94.67 768.79,95.29 777.27,94.69 785.76,94.69 794.24,95.10 802.73,94.69 811.21,95.50 819.70,95.31 828.18,95.41 836.67,95.31 845.15,95.48 853.64,95.93 862.12,96.72 870.61,96.05 879.09,96.00 887.58,96.41 896.06,96.79 904.55,96.15 913.03,95.81 921.52,95.91 930.00,95.76"/>
<circle cx="90.00" cy="435.83" r="4.5" fill="#d97706" fill-opacity="0.9"/>
<circle cx="98.48" cy="435.83" r="4.5" fill="#d97706" fill-opacity="0.9"/>
<circle cx="106.97" cy="159.48" r="4.5" fill="#d97706" fill-opacity="0.9"/>
<circle cx="115.45" cy="134.19" r="4.5" fill="#d97706" fill-opacity="0.9"/>
<circle cx="123.94" cy="132.66" r="4.5" fill="#d97706" fill-opacity="0.9"/>
<circle cx="132.42" cy="142.35" r="4.5" fill="#d97706" fill-opacity="0.9"/>
<circle cx="140.91" cy="129.73" r="4.5" fill="#d97706" fill-opacity="0.9"/>
<circle cx="149.39" cy="131.38" r="4.5" fill="#d97706" fill-opacity="0.9"/>
<circle cx="157.88" cy="130.23" r="4.5" fill="#d97706" fill-opacity="0.9"/>
<circle cx="166.36" cy="130.69" r="4.5" fill="#d97706" fill-opacity="0.9"/>
<circle cx="174.85" cy="181.01" r="4.5" fill="#d97706" fill-opacity="0.9"/>
<circle cx="183.33" cy="128.94" r="4.5" fill="#d97706" fill-opacity="0.9"/>
<circle cx="191.82" cy="128.90" r="4.5" fill="#d97706" fill-opacity="0.9"/>
<circle cx="200.30" cy="128.75" r="4.5" fill="#d97706" fill-opacity="0.9"/>
<circle cx="208.79" cy="128.85" r="4.5" fill="#d97706" fill-opacity="0.9"/>
<circle cx="217.27" cy="131.83" r="4.5" fill="#d97706" fill-opacity="0.9"/>
<circle cx="225.76" cy="131.04" r="4.5" fill="#d97706" fill-opacity="0.9"/>
<circle cx="234.24" cy="123.05" r="4.5" fill="#d97706" fill-opacity="0.9"/>
<circle cx="242.73" cy="130.21" r="4.5" fill="#d97706" fill-opacity="0.9"/>
<circle cx="251.21" cy="128.61" r="4.5" fill="#d97706" fill-opacity="0.9"/>
<circle cx="259.70" cy="127.16" r="4.5" fill="#d97706" fill-opacity="0.9"/>
<circle cx="268.18" cy="127.58" r="4.5" fill="#d97706" fill-opacity="0.9"/>
<circle cx="276.67" cy="157.14" r="4.5" fill="#d97706" fill-opacity="0.9"/>
<circle cx="285.15" cy="116.49" r="4.5" fill="#d97706" fill-opacity="0.9"/>
<circle cx="293.64" cy="114.08" r="4.5" fill="#d97706" fill-opacity="0.9"/>
<circle cx="302.12" cy="128.09" r="4.5" fill="#d97706" fill-opacity="0.9"/>
<circle cx="310.61" cy="201.60" r="4.5" fill="#d97706" fill-opacity="0.9"/>
<circle cx="319.09" cy="127.80" r="4.5" fill="#d97706" fill-opacity="0.9"/>
<circle cx="327.58" cy="125.41" r="4.5" fill="#d97706" fill-opacity="0.9"/>
<circle cx="336.06" cy="128.11" r="4.5" fill="#d97706" fill-opacity="0.9"/>
<circle cx="344.55" cy="123.10" r="4.5" fill="#d97706" fill-opacity="0.9"/>
<circle cx="353.03" cy="121.91" r="4.5" fill="#d97706" fill-opacity="0.9"/>
<circle cx="361.52" cy="108.55" r="4.5" fill="#d97706" fill-opacity="0.9"/>
<circle cx="370.00" cy="108.45" r="4.5" fill="#d97706" fill-opacity="0.9"/>
<circle cx="378.48" cy="107.26" r="4.5" fill="#d97706" fill-opacity="0.9"/>
<circle cx="386.97" cy="121.14" r="4.5" fill="#d97706" fill-opacity="0.9"/>
<circle cx="395.45" cy="114.49" r="4.5" fill="#d97706" fill-opacity="0.9"/>
<circle cx="403.94" cy="129.18" r="4.5" fill="#d97706" fill-opacity="0.9"/>
<circle cx="412.42" cy="111.65" r="4.5" fill="#d97706" fill-opacity="0.9"/>
<circle cx="420.91" cy="106.55" r="4.5" fill="#d97706" fill-opacity="0.9"/>
<circle cx="429.39" cy="105.93" r="4.5" fill="#d97706" fill-opacity="0.9"/>
<circle cx="437.88" cy="112.27" r="4.5" fill="#d97706" fill-opacity="0.9"/>
<circle cx="446.36" cy="109.36" r="4.5" fill="#d97706" fill-opacity="0.9"/>
<circle cx="454.85" cy="118.35" r="4.5" fill="#d97706" fill-opacity="0.9"/>
<circle cx="463.33" cy="114.56" r="4.5" fill="#d97706" fill-opacity="0.9"/>
<circle cx="471.82" cy="111.27" r="4.5" fill="#d97706" fill-opacity="0.9"/>
<circle cx="480.30" cy="116.11" r="4.5" fill="#d97706" fill-opacity="0.9"/>
<circle cx="488.79" cy="101.73" r="4.5" fill="#d97706" fill-opacity="0.9"/>
<circle cx="497.27" cy="112.27" r="4.5" fill="#d97706" fill-opacity="0.9"/>
<circle cx="505.76" cy="106.98" r="4.5" fill="#d97706" fill-opacity="0.9"/>
<circle cx="514.24" cy="96.22" r="4.5" fill="#d97706" fill-opacity="0.9"/>
<circle cx="522.73" cy="96.84" r="4.5" fill="#d97706" fill-opacity="0.9"/>
<circle cx="531.21" cy="96.70" r="4.5" fill="#d97706" fill-opacity="0.9"/>
<circle cx="539.70" cy="95.55" r="4.5" fill="#d97706" fill-opacity="0.9"/>
<circle cx="548.18" cy="96.10" r="4.5" fill="#d97706" fill-opacity="0.9"/>
<circle cx="556.67" cy="95.62" r="4.5" fill="#d97706" fill-opacity="0.9"/>
<circle cx="565.15" cy="96.00" r="4.5" fill="#d97706" fill-opacity="0.9"/>
<circle cx="573.64" cy="96.89" r="4.5" fill="#d97706" fill-opacity="0.9"/>
<circle cx="582.12" cy="95.72" r="4.5" fill="#d97706" fill-opacity="0.9"/>
<circle cx="590.61" cy="94.43" r="4.5" fill="#d97706" fill-opacity="0.9"/>
<circle cx="599.09" cy="95.69" r="4.5" fill="#d97706" fill-opacity="0.9"/>
<circle cx="607.58" cy="95.57" r="4.5" fill="#d97706" fill-opacity="0.9"/>
<circle cx="616.06" cy="95.53" r="4.5" fill="#d97706" fill-opacity="0.9"/>
<circle cx="624.55" cy="94.98" r="4.5" fill="#d97706" fill-opacity="0.9"/>
<circle cx="633.03" cy="95.10" r="4.5" fill="#d97706" fill-opacity="0.9"/>
<circle cx="641.52" cy="94.83" r="4.5" fill="#d97706" fill-opacity="0.9"/>
<circle cx="650.00" cy="95.03" r="4.5" fill="#d97706" fill-opacity="0.9"/>
<circle cx="658.48" cy="94.57" r="4.5" fill="#d97706" fill-opacity="0.9"/>
<circle cx="666.97" cy="95.69" r="4.5" fill="#d97706" fill-opacity="0.9"/>
<circle cx="675.45" cy="94.36" r="4.5" fill="#d97706" fill-opacity="0.9"/>
<circle cx="683.94" cy="95.19" r="4.5" fill="#d97706" fill-opacity="0.9"/>
<circle cx="692.42" cy="95.12" r="4.5" fill="#d97706" fill-opacity="0.9"/>
<circle cx="700.91" cy="95.29" r="4.5" fill="#d97706" fill-opacity="0.9"/>
<circle cx="709.39" cy="95.48" r="4.5" fill="#d97706" fill-opacity="0.9"/>
<circle cx="717.88" cy="95.67" r="4.5" fill="#d97706" fill-opacity="0.9"/>
<circle cx="726.36" cy="94.17" r="4.5" fill="#d97706" fill-opacity="0.9"/>
<circle cx="734.85" cy="95.17" r="4.5" fill="#d97706" fill-opacity="0.9"/>
<circle cx="743.33" cy="95.38" r="4.5" fill="#d97706" fill-opacity="0.9"/>
<circle cx="751.82" cy="95.31" r="4.5" fill="#d97706" fill-opacity="0.9"/>
<circle cx="760.30" cy="94.67" r="4.5" fill="#d97706" fill-opacity="0.9"/>
<circle cx="768.79" cy="95.29" r="4.5" fill="#d97706" fill-opacity="0.9"/>
<circle cx="777.27" cy="94.69" r="4.5" fill="#d97706" fill-opacity="0.9"/>
<circle cx="785.76" cy="94.69" r="4.5" fill="#d97706" fill-opacity="0.9"/>
<circle cx="794.24" cy="95.10" r="4.5" fill="#d97706" fill-opacity="0.9"/>
<circle cx="802.73" cy="94.69" r="4.5" fill="#d97706" fill-opacity="0.9"/>
<circle cx="811.21" cy="95.50" r="4.5" fill="#d97706" fill-opacity="0.9"/>
<circle cx="819.70" cy="95.31" r="4.5" fill="#d97706" fill-opacity="0.9"/>
<circle cx="828.18" cy="95.41" r="4.5" fill="#d97706" fill-opacity="0.9"/>
<circle cx="836.67" cy="95.31" r="4.5" fill="#d97706" fill-opacity="0.9"/>
<circle cx="845.15" cy="95.48" r="4.5" fill="#d97706" fill-opacity="0.9"/>
<circle cx="853.64" cy="95.93" r="4.5" fill="#d97706" fill-opacity="0.9"/>
<circle cx="862.12" cy="96.72" r="4.5" fill="#d97706" fill-opacity="0.9"/>
<circle cx="870.61" cy="96.05" r="4.5" fill="#d97706" fill-opacity="0.9"/>
<circle cx="879.09" cy="96.00" r="4.5" fill="#d97706" fill-opacity="0.9"/>
<circle cx="887.58" cy="96.41" r="4.5" fill="#d97706" fill-opacity="0.9"/>
<circle cx="896.06" cy="96.79" r="4.5" fill="#d97706" fill-opacity="0.9"/>
<circle cx="904.55" cy="96.15" r="4.5" fill="#d97706" fill-opacity="0.9"/>
<circle cx="913.03" cy="95.81" r="4.5" fill="#d97706" fill-opacity="0.9"/>
<circle cx="921.52" cy="95.91" r="4.5" fill="#d97706" fill-opacity="0.9"/>
<circle cx="930.00" cy="95.76" r="4.5" fill="#d97706" fill-opacity="0.9"/>
<rect x="90" y="32" width="18" height="6" fill="#d97706"/>
<text x="114" y="38" font-size="13" fill="#333333">val</text>
<polyline fill="none" stroke="#059669" stroke-width="3" points="90.00,435.83 98.48,435.83 106.97,159.09 115.45,136.93 123.94,134.88 132.42,143.40 140.91,132.09 149.39,133.26 157.88,131.54 166.36,132.12 174.85,180.75 183.33,130.64 191.82,131.52 200.30,130.23 208.79,129.66 217.27,132.98 225.76,132.57 234.24,124.01 242.73,131.62 251.21,130.16 259.70,128.16 268.18,130.18 276.67,158.40 285.15,117.33 293.64,114.51 302.12,128.94 310.61,203.27 319.09,129.33 327.58,126.27 336.06,129.52 344.55,124.60 353.03,122.43 361.52,109.38 370.00,109.31 378.48,108.48 386.97,123.48 395.45,114.49 403.94,129.71 412.42,114.25 420.91,107.98 429.39,106.40 437.88,114.11 446.36,109.00 454.85,121.05 463.33,115.59 471.82,112.80 480.30,117.26 488.79,101.56 497.27,113.20 505.76,106.93 514.24,96.17 522.73,95.98 531.21,95.86 539.70,94.50 548.18,95.88 556.67,94.62 565.15,95.03 573.64,96.22 582.12,94.93 590.61,94.60 599.09,95.07 607.58,94.60 616.06,94.86 624.55,94.36 633.03,94.55 641.52,95.03 650.00,94.50 658.48,94.29 666.97,95.12 675.45,94.33 683.94,95.07 692.42,94.91 700.91,94.95 709.39,95.00 717.88,95.12 726.36,94.57 734.85,94.55 743.33,95.00 751.82,95.10 760.30,94.69 768.79,94.79 777.27,94.76 785.76,94.50 794.24,94.38 802.73,94.38 811.21,94.60 819.70,94.62 828.18,94.36 836.67,94.93 845.15,94.91 853.64,95.17 862.12,95.60 870.61,95.91 879.09,95.05 887.58,95.93 896.06,95.76 904.55,95.36 913.03,94.52 921.52,95.41 930.00,95.17"/>
<circle cx="90.00" cy="435.83" r="4.5" fill="#059669" fill-opacity="0.9"/>
<circle cx="98.48" cy="435.83" r="4.5" fill="#059669" fill-opacity="0.9"/>
<circle cx="106.97" cy="159.09" r="4.5" fill="#059669" fill-opacity="0.9"/>
<circle cx="115.45" cy="136.93" r="4.5" fill="#059669" fill-opacity="0.9"/>
<circle cx="123.94" cy="134.88" r="4.5" fill="#059669" fill-opacity="0.9"/>
<circle cx="132.42" cy="143.40" r="4.5" fill="#059669" fill-opacity="0.9"/>
<circle cx="140.91" cy="132.09" r="4.5" fill="#059669" fill-opacity="0.9"/>
<circle cx="149.39" cy="133.26" r="4.5" fill="#059669" fill-opacity="0.9"/>
<circle cx="157.88" cy="131.54" r="4.5" fill="#059669" fill-opacity="0.9"/>
<circle cx="166.36" cy="132.12" r="4.5" fill="#059669" fill-opacity="0.9"/>
<circle cx="174.85" cy="180.75" r="4.5" fill="#059669" fill-opacity="0.9"/>
<circle cx="183.33" cy="130.64" r="4.5" fill="#059669" fill-opacity="0.9"/>
<circle cx="191.82" cy="131.52" r="4.5" fill="#059669" fill-opacity="0.9"/>
<circle cx="200.30" cy="130.23" r="4.5" fill="#059669" fill-opacity="0.9"/>
<circle cx="208.79" cy="129.66" r="4.5" fill="#059669" fill-opacity="0.9"/>
<circle cx="217.27" cy="132.98" r="4.5" fill="#059669" fill-opacity="0.9"/>
<circle cx="225.76" cy="132.57" r="4.5" fill="#059669" fill-opacity="0.9"/>
<circle cx="234.24" cy="124.01" r="4.5" fill="#059669" fill-opacity="0.9"/>
<circle cx="242.73" cy="131.62" r="4.5" fill="#059669" fill-opacity="0.9"/>
<circle cx="251.21" cy="130.16" r="4.5" fill="#059669" fill-opacity="0.9"/>
<circle cx="259.70" cy="128.16" r="4.5" fill="#059669" fill-opacity="0.9"/>
<circle cx="268.18" cy="130.18" r="4.5" fill="#059669" fill-opacity="0.9"/>
<circle cx="276.67" cy="158.40" r="4.5" fill="#059669" fill-opacity="0.9"/>
<circle cx="285.15" cy="117.33" r="4.5" fill="#059669" fill-opacity="0.9"/>
<circle cx="293.64" cy="114.51" r="4.5" fill="#059669" fill-opacity="0.9"/>
<circle cx="302.12" cy="128.94" r="4.5" fill="#059669" fill-opacity="0.9"/>
<circle cx="310.61" cy="203.27" r="4.5" fill="#059669" fill-opacity="0.9"/>
<circle cx="319.09" cy="129.33" r="4.5" fill="#059669" fill-opacity="0.9"/>
<circle cx="327.58" cy="126.27" r="4.5" fill="#059669" fill-opacity="0.9"/>
<circle cx="336.06" cy="129.52" r="4.5" fill="#059669" fill-opacity="0.9"/>
<circle cx="344.55" cy="124.60" r="4.5" fill="#059669" fill-opacity="0.9"/>
<circle cx="353.03" cy="122.43" r="4.5" fill="#059669" fill-opacity="0.9"/>
<circle cx="361.52" cy="109.38" r="4.5" fill="#059669" fill-opacity="0.9"/>
<circle cx="370.00" cy="109.31" r="4.5" fill="#059669" fill-opacity="0.9"/>
<circle cx="378.48" cy="108.48" r="4.5" fill="#059669" fill-opacity="0.9"/>
<circle cx="386.97" cy="123.48" r="4.5" fill="#059669" fill-opacity="0.9"/>
<circle cx="395.45" cy="114.49" r="4.5" fill="#059669" fill-opacity="0.9"/>
<circle cx="403.94" cy="129.71" r="4.5" fill="#059669" fill-opacity="0.9"/>
<circle cx="412.42" cy="114.25" r="4.5" fill="#059669" fill-opacity="0.9"/>
<circle cx="420.91" cy="107.98" r="4.5" fill="#059669" fill-opacity="0.9"/>
<circle cx="429.39" cy="106.40" r="4.5" fill="#059669" fill-opacity="0.9"/>
<circle cx="437.88" cy="114.11" r="4.5" fill="#059669" fill-opacity="0.9"/>
<circle cx="446.36" cy="109.00" r="4.5" fill="#059669" fill-opacity="0.9"/>
<circle cx="454.85" cy="121.05" r="4.5" fill="#059669" fill-opacity="0.9"/>
<circle cx="463.33" cy="115.59" r="4.5" fill="#059669" fill-opacity="0.9"/>
<circle cx="471.82" cy="112.80" r="4.5" fill="#059669" fill-opacity="0.9"/>
<circle cx="480.30" cy="117.26" r="4.5" fill="#059669" fill-opacity="0.9"/>
<circle cx="488.79" cy="101.56" r="4.5" fill="#059669" fill-opacity="0.9"/>
<circle cx="497.27" cy="113.20" r="4.5" fill="#059669" fill-opacity="0.9"/>
<circle cx="505.76" cy="106.93" r="4.5" fill="#059669" fill-opacity="0.9"/>
<circle cx="514.24" cy="96.17" r="4.5" fill="#059669" fill-opacity="0.9"/>
<circle cx="522.73" cy="95.98" r="4.5" fill="#059669" fill-opacity="0.9"/>
<circle cx="531.21" cy="95.86" r="4.5" fill="#059669" fill-opacity="0.9"/>
<circle cx="539.70" cy="94.50" r="4.5" fill="#059669" fill-opacity="0.9"/>
<circle cx="548.18" cy="95.88" r="4.5" fill="#059669" fill-opacity="0.9"/>
<circle cx="556.67" cy="94.62" r="4.5" fill="#059669" fill-opacity="0.9"/>
<circle cx="565.15" cy="95.03" r="4.5" fill="#059669" fill-opacity="0.9"/>
<circle cx="573.64" cy="96.22" r="4.5" fill="#059669" fill-opacity="0.9"/>
<circle cx="582.12" cy="94.93" r="4.5" fill="#059669" fill-opacity="0.9"/>
<circle cx="590.61" cy="94.60" r="4.5" fill="#059669" fill-opacity="0.9"/>
<circle cx="599.09" cy="95.07" r="4.5" fill="#059669" fill-opacity="0.9"/>
<circle cx="607.58" cy="94.60" r="4.5" fill="#059669" fill-opacity="0.9"/>
<circle cx="616.06" cy="94.86" r="4.5" fill="#059669" fill-opacity="0.9"/>
<circle cx="624.55" cy="94.36" r="4.5" fill="#059669" fill-opacity="0.9"/>
<circle cx="633.03" cy="94.55" r="4.5" fill="#059669" fill-opacity="0.9"/>
<circle cx="641.52" cy="95.03" r="4.5" fill="#059669" fill-opacity="0.9"/>
<circle cx="650.00" cy="94.50" r="4.5" fill="#059669" fill-opacity="0.9"/>
<circle cx="658.48" cy="94.29" r="4.5" fill="#059669" fill-opacity="0.9"/>
<circle cx="666.97" cy="95.12" r="4.5" fill="#059669" fill-opacity="0.9"/>
<circle cx="675.45" cy="94.33" r="4.5" fill="#059669" fill-opacity="0.9"/>
<circle cx="683.94" cy="95.07" r="4.5" fill="#059669" fill-opacity="0.9"/>
<circle cx="692.42" cy="94.91" r="4.5" fill="#059669" fill-opacity="0.9"/>
<circle cx="700.91" cy="94.95" r="4.5" fill="#059669" fill-opacity="0.9"/>
<circle cx="709.39" cy="95.00" r="4.5" fill="#059669" fill-opacity="0.9"/>
<circle cx="717.88" cy="95.12" r="4.5" fill="#059669" fill-opacity="0.9"/>
<circle cx="726.36" cy="94.57" r="4.5" fill="#059669" fill-opacity="0.9"/>
<circle cx="734.85" cy="94.55" r="4.5" fill="#059669" fill-opacity="0.9"/>
<circle cx="743.33" cy="95.00" r="4.5" fill="#059669" fill-opacity="0.9"/>
<circle cx="751.82" cy="95.10" r="4.5" fill="#059669" fill-opacity="0.9"/>
<circle cx="760.30" cy="94.69" r="4.5" fill="#059669" fill-opacity="0.9"/>
<circle cx="768.79" cy="94.79" r="4.5" fill="#059669" fill-opacity="0.9"/>
<circle cx="777.27" cy="94.76" r="4.5" fill="#059669" fill-opacity="0.9"/>
<circle cx="785.76" cy="94.50" r="4.5" fill="#059669" fill-opacity="0.9"/>
<circle cx="794.24" cy="94.38" r="4.5" fill="#059669" fill-opacity="0.9"/>
<circle cx="802.73" cy="94.38" r="4.5" fill="#059669" fill-opacity="0.9"/>
<circle cx="811.21" cy="94.60" r="4.5" fill="#059669" fill-opacity="0.9"/>
<circle cx="819.70" cy="94.62" r="4.5" fill="#059669" fill-opacity="0.9"/>
<circle cx="828.18" cy="94.36" r="4.5" fill="#059669" fill-opacity="0.9"/>
<circle cx="836.67" cy="94.93" r="4.5" fill="#059669" fill-opacity="0.9"/>
<circle cx="845.15" cy="94.91" r="4.5" fill="#059669" fill-opacity="0.9"/>
<circle cx="853.64" cy="95.17" r="4.5" fill="#059669" fill-opacity="0.9"/>
<circle cx="862.12" cy="95.60" r="4.5" fill="#059669" fill-opacity="0.9"/>
<circle cx="870.61" cy="95.91" r="4.5" fill="#059669" fill-opacity="0.9"/>
<circle cx="879.09" cy="95.05" r="4.5" fill="#059669" fill-opacity="0.9"/>
<circle cx="887.58" cy="95.93" r="4.5" fill="#059669" fill-opacity="0.9"/>
<circle cx="896.06" cy="95.76" r="4.5" fill="#059669" fill-opacity="0.9"/>
<circle cx="904.55" cy="95.36" r="4.5" fill="#059669" fill-opacity="0.9"/>
<circle cx="913.03" cy="94.52" r="4.5" fill="#059669" fill-opacity="0.9"/>
<circle cx="921.52" cy="95.41" r="4.5" fill="#059669" fill-opacity="0.9"/>
<circle cx="930.00" cy="95.17" r="4.5" fill="#059669" fill-opacity="0.9"/>
<rect x="270" y="32" width="18" height="6" fill="#059669"/>
<text x="294" y="38" font-size="13" fill="#333333">test</text>
</svg>