<svg xmlns="http://www.w3.org/2000/svg" width="960" height="540">
<rect width="100%" height="100%" fill="#ffffff"/>
<text x="480.0" y="30" font-size="22" text-anchor="middle" fill="#111111">Consistency Loss</text>
<text x="20" y="270.0" font-size="16" transform="rotate(-90 20,270.0)" text-anchor="middle" fill="#333333">Loss</text>
<text x="480.0" y="520" font-size="16" text-anchor="middle" fill="#333333">Epoch</text>
<line x1="90" y1="60" x2="90" y2="470" stroke="#333333" stroke-width="2"/>
<line x1="90" y1="470" x2="930" y2="470" stroke="#333333" stroke-width="2"/>
<line x1="90" y1="470.00" x2="930" y2="470.00" stroke="#e5e7eb" stroke-width="1"/>
<text x="80" y="475.00" font-size="12" text-anchor="end" fill="#555555">-0.0078</text>
<line x1="90" y1="367.50" x2="930" y2="367.50" stroke="#e5e7eb" stroke-width="1"/>
<text x="80" y="372.50" font-size="12" text-anchor="end" fill="#555555">0.0358</text>
<line x1="90" y1="265.00" x2="930" y2="265.00" stroke="#e5e7eb" stroke-width="1"/>
<text x="80" y="270.00" font-size="12" text-anchor="end" fill="#555555">0.0794</text>
<line x1="90" y1="162.50" x2="930" y2="162.50" stroke="#e5e7eb" stroke-width="1"/>
<text x="80" y="167.50" font-size="12" text-anchor="end" fill="#555555">0.1231</text>
<line x1="90" y1="60.00" x2="930" y2="60.00" stroke="#e5e7eb" stroke-width="1"/>
<text x="80" y="65.00" font-size="12" text-anchor="end" fill="#555555">0.1667</text>
<line x1="90.00" y1="60" x2="90.00" y2="470" stroke="#f3f4f6" stroke-width="1"/>
<text x="90.00" y="492" font-size="12" text-anchor="middle" fill="#555555">1</text>
<line x1="95.64" y1="60" x2="95.64" y2="470" stroke="#f3f4f6" stroke-width="1"/>
<text x="95.64" y="492" font-size="12" text-anchor="middle" fill="#555555">2</text>
<line x1="101.28" y1="60" x2="101.28" y2="470" stroke="#f3f4f6" stroke-width="1"/>
<text x="101.28" y="492" font-size="12" text-anchor="middle" fill="#555555">3</text>
<line x1="106.91" y1="60" x2="106.91" y2="470" stroke="#f3f4f6" stroke-width="1"/>
<text x="106.91" y="492" font-size="12" text-anchor="middle" fill="#555555">4</text>
<line x1="112.55" y1="60" x2="112.55" y2="470" stroke="#f3f4f6" stroke-width="1"/>
<text x="112.55" y="492" font-size="12" text-anchor="middle" fill="#555555">5</text>
<line x1="118.19" y1="60" x2="118.19" y2="470" stroke="#f3f4f6" stroke-width="1"/>
<text x="118.19" y="492" font-size="12" text-anchor="middle" fill="#555555">6</text>
<line x1="123.83" y1="60" x2="123.83" y2="470" stroke="#f3f4f6" stroke-width="1"/>
<text x="123.83" y="492" font-size="12" text-anchor="middle" fill="#555555">7</text>
<line x1="129.46" y1="60" x2="129.46" y2="470" stroke="#f3f4f6" stroke-width="1"/>
<text x="129.46" y="492" font-size="12" text-anchor="middle" fill="#555555">8</text>
<line x1="135.10" y1="60" x2="135.10" y2="470" stroke="#f3f4f6" stroke-width="1"/>
<text x="135.10" y="492" font-size="12" text-anchor="middle" fill="#555555">9</text>
<line x1="140.74" y1="60" x2="140.74" y2="470" stroke="#f3f4f6" stroke-width="1"/>
<text x="140.74" y="492" font-size="12" text-anchor="middle" fill="#555555">10</text>
<line x1="146.38" y1="60" x2="146.38" y2="470" stroke="#f3f4f6" stroke-width="1"/>
<text x="146.38" y="492" font-size="12" text-anchor="middle" fill="#555555">11</text>
<line x1="152.01" y1="60" x2="152.01" y2="470" stroke="#f3f4f6" stroke-width="1"/>
<text x="152.01" y="492" font-size="12" text-anchor="middle" fill="#555555">12</text>
<line x1="157.65" y1="60" x2="157.65" y2="470" stroke="#f3f4f6" stroke-width="1"/>
<text x="157.65" y="492" font-size="12" text-anchor="middle" fill="#555555">13</text>
<line x1="163.29" y1="60" x2="163.29" y2="470" stroke="#f3f4f6" stroke-width="1"/>
<text x="163.29" y="492" font-size="12" text-anchor="middle" fill="#555555">14</text>
<line x1="168.93" y1="60" x2="168.93" y2="470" stroke="#f3f4f6" stroke-width="1"/>
<text x="168.93" y="492" font-size="12" text-anchor="middle" fill="#555555">15</text>
<line x1="174.56" y1="60" x2="174.56" y2="470" stroke="#f3f4f6" stroke-width="1"/>
<text x="174.56" y="492" font-size="12" text-anchor="middle" fill="#555555">16</text>
<line x1="180.20" y1="60" x2="180.20" y2="470" stroke="#f3f4f6" stroke-width="1"/>
<text x="180.20" y="492" font-size="12" text-anchor="middle" fill="#555555">17</text>
<line x1="185.84" y1="60" x2="185.84" y2="470" stroke="#f3f4f6" stroke-width="1"/>
<text x="185.84" y="492" font-size="12" text-anchor="middle" fill="#555555">18</text>
<line x1="191.48" y1="60" x2="191.48" y2="470" stroke="#f3f4f6" stroke-width="1"/>
<text x="191.48" y="492" font-size="12" text-anchor="middle" fill="#555555">19</text>
<line x1="197.11" y1="60" x2="197.11" y2="470" stroke="#f3f4f6" stroke-width="1"/>
<text x="197.11" y="492" font-size="12" text-anchor="middle" fill="#555555">20</text>
<line x1="202.75" y1="60" x2="202.75" y2="470" stroke="#f3f4f6" stroke-width="1"/>
<text x="202.75" y="492" font-size="12" text-anchor="middle" fill="#555555">21</text>
<line x1="208.39" y1="60" x2="208.39" y2="470" stroke="#f3f4f6" stroke-width="1"/>
<text x="208.39" y="492" font-size="12" text-anchor="middle" fill="#555555">22</text>
<line x1="214.03" y1="60" x2="214.03" y2="470" stroke="#f3f4f6" stroke-width="1"/>
<text x="214.03" y="492" font-size="12" text-anchor="middle" fill="#555555">23</text>
<line x1="219.66" y1="60" x2="219.66" y2="470" stroke="#f3f4f6" stroke-width="1"/>
<text x="219.66" y="492" font-size="12" text-anchor="middle" fill="#555555">24</text>
<line x1="225.30" y1="60" x2="225.30" y2="470" stroke="#f3f4f6" stroke-width="1"/>
<text x="225.30" y="492" font-size="12" text-anchor="middle" fill="#555555">25</text>
<line x1="230.94" y1="60" x2="230.94" y2="470" stroke="#f3f4f6" stroke-width="1"/>
<text x="230.94" y="492" font-size="12" text-anchor="middle" fill="#555555">26</text>
<line x1="236.58" y1="60" x2="236.58" y2="470" stroke="#f3f4f6" stroke-width="1"/>
<text x="236.58" y="492" font-size="12" text-anchor="middle" fill="#555555">27</text>
<line x1="242.21" y1="60" x2="242.21" y2="470" stroke="#f3f4f6" stroke-width="1"/>
<text x="242.21" y="492" font-size="12" text-anchor="middle" fill="#555555">28</text>
<line x1="247.85" y1="60" x2="247.85" y2="470" stroke="#f3f4f6" stroke-width="1"/>
<text x="247.85" y="492" font-size="12" text-anchor="middle" fill="#555555">29</text>
<line x1="253.49" y1="60" x2="253.49" y2="470" stroke="#f3f4f6" stroke-width="1"/>
<text x="253.49" y="492" font-size="12" text-anchor="middle" fill="#555555">30</text>
<line x1="259.13" y1="60" x2="259.13" y2="470" stroke="#f3f4f6" stroke-width="1"/>
<text x="259.13" y="492" font-size="12" text-anchor="middle" fill="#555555">31</text>
<line x1="264.77" y1="60" x2="264.77" y2="470" stroke="#f3f4f6" stroke-width="1"/>
<text x="264.77" y="492" font-size="12" text-anchor="middle" fill="#555555">32</text>
<line x1="270.40" y1="60" x2="270.40" y2="470" stroke="#f3f4f6" stroke-width="1"/>
<text x="270.40" y="492" font-size="12" text-anchor="middle" fill="#555555">33</text>
<line x1="276.04" y1="60" x2="276.04" y2="470" stroke="#f3f4f6" stroke-width="1"/>
<text x="276.04" y="492" font-size="12" text-anchor="middle" fill="#555555">34</text>
<line x1="281.68" y1="60" x2="281.68" y2="470" stroke="#f3f4f6" stroke-width="1"/>
<text x="281.68" y="492" font-size="12" text-anchor="middle" fill="#555555">35</text>
<line x1="287.32" y1="60" x2="287.32" y2="470" stroke="#f3f4f6" stroke-width="1"/>
<text x="287.32" y="492" font-size="12" text-anchor="middle" fill="#555555">36</text>
<line x1="292.95" y1="60" x2="292.95" y2="470" stroke="#f3f4f6" stroke-width="1"/>
<text x="292.95" y="492" font-size="12" text-anchor="middle" fill="#555555">37</text>
<line x1="298.59" y1="60" x2="298.59" y2="470" stroke="#f3f4f6" stroke-width="1"/>
<text x="298.59" y="492" font-size="12" text-anchor="middle" fill="#555555">38</text>
<line x1="304.23" y1="60" x2="304.23" y2="470" stroke="#f3f4f6" stroke-width="1"/>
<text x="304.23" y="492" font-size="12" text-anchor="middle" fill="#555555">39</text>
<line x1="309.87" y1="60" x2="309.87" y2="470" stroke="#f3f4f6" stroke-width="1"/>
<text x="309.87" y="492" font-size="12" text-anchor="middle" fill="#555555">40</text>
<line x1="315.50" y1="60" x2="315.50" y2="470" stroke="#f3f4f6" stroke-width="1"/>
<text x="315.50" y="492" font-size="12" text-anchor="middle" fill="#555555">41</text>
<line x1="321.14" y1="60" x2="321.14" y2="470" stroke="#f3f4f6" stroke-width="1"/>
<text x="321.14" y="492" font-size="12" text-anchor="middle" fill="#555555">42</text>
<line x1="326.78" y1="60" x2="326.78" y2="470" stroke="#f3f4f6" stroke-width="1"/>
<text x="326.78" y="492" font-size="12" text-anchor="middle" fill="#555555">43</text>
<line x1="332.42" y1="60" x2="332.42" y2="470" stroke="#f3f4f6" stroke-width="1"/>
<text x="332.42" y="492" font-size="12" text-anchor="middle" fill="#555555">44</text>
<line x1="338.05" y1="60" x2="338.05" y2="470" stroke="#f3f4f6" stroke-width="1"/>
<text x="338.05" y="492" font-size="12" text-anchor="middle" fill="#555555">45</text>
<line x1="343.69" y1="60" x2="343.69" y2="470" stroke="#f3f4f6" stroke-width="1"/>
<text x="343.69" y="492" font-size="12" text-anchor="middle" fill="#555555">46</text>
<line x1="349.33" y1="60" x2="349.33" y2="470" stroke="#f3f4f6" stroke-width="1"/>
<text x="349.33" y="492" font-size="12" text-anchor="middle" fill="#555555">47</text>
<line x1="354.97" y1="60" x2="354.97" y2="470" stroke="#f3f4f6" stroke-width="1"/>
<text x="354.97" y="492" font-size="12" text-anchor="middle" fill="#555555">48</text>
<line x1="360.60" y1="60" x2="360.60" y2="470" stroke="#f3f4f6" stroke-width="1"/>
<text x="360.60" y="492" font-size="12" text-anchor="middle" fill="#555555">49</text>
<line x1="366.24" y1="60" x2="366.24" y2="470" stroke="#f3f4f6" stroke-width="1"/>
<text x="366.24" y="492" font-size="12" text-anchor="middle" fill="#555555">50</text>
<line x1="371.88" y1="60" x2="371.88" y2="470" stroke="#f3f4f6" stroke-width="1"/>
<text x="371.88" y="492" font-size="12" text-anchor="middle" fill="#555555">51</text>
<line x1="377.52" y1="60" x2="377.52" y2="470" stroke="#f3f4f6" stroke-width="1"/>
<text x="377.52" y="492" font-size="12" text-anchor="middle" fill="#555555">52</text>
<line x1="383.15" y1="60" x2="383.15" y2="470" stroke="#f3f4f6" stroke-width="1"/>
<text x="383.15" y="492" font-size="12" text-anchor="middle" fill="#555555">53</text>
<line x1="388.79" y1="60" x2="388.79" y2="470" stroke="#f3f4f6" stroke-width="1"/>
<text x="388.79" y="492" font-size="12" text-anchor="middle" fill="#555555">54</text>
<line x1="394.43" y1="60" x2="394.43" y2="470" stroke="#f3f4f6" stroke-width="1"/>
<text x="394.43" y="492" font-size="12" text-anchor="middle" fill="#555555">55</text>
<line x1="400.07" y1="60" x2="400.07" y2="470" stroke="#f3f4f6" stroke-width="1"/>
<text x="400.07" y="492" font-size="12" text-anchor="middle" fill="#555555">56</text>
<line x1="405.70" y1="60" x2="405.70" y2="470" stroke="#f3f4f6" stroke-width="1"/>
<text x="405.70" y="492" font-size="12" text-anchor="middle" fill="#555555">57</text>
<line x1="411.34" y1="60" x2="411.34" y2="470" stroke="#f3f4f6" stroke-width="1"/>
<text x="411.34" y="492" font-size="12" text-anchor="middle" fill="#555555">58</text>
<line x1="416.98" y1="60" x2="416.98" y2="470" stroke="#f3f4f6" stroke-width="1"/>
<text x="416.98" y="492" font-size="12" text-anchor="middle" fill="#555555">59</text>
<line x1="422.62" y1="60" x2="422.62" y2="470" stroke="#f3f4f6" stroke-width="1"/>
<text x="422.62" y="492" font-size="12" text-anchor="middle" fill="#555555">60</text>
<line x1="428.26" y1="60" x2="428.26" y2="470" stroke="#f3f4f6" stroke-width="1"/>
<text x="428.26" y="492" font-size="12" text-anchor="middle" fill="#555555">61</text>
<line x1="433.89" y1="60" x2="433.89" y2="470" stroke="#f3f4f6" stroke-width="1"/>
<text x="433.89" y="492" font-size="12" text-anchor="middle" fill="#555555">62</text>
<line x1="439.53" y1="60" x2="439.53" y2="470" stroke="#f3f4f6" stroke-width="1"/>
<text x="439.53" y="492" font-size="12" text-anchor="middle" fill="#555555">63</text>
<line x1="445.17" y1="60" x2="445.17" y2="470" stroke="#f3f4f6" stroke-width="1"/>
<text x="445.17" y="492" font-size="12" text-anchor="middle" fill="#555555">64</text>
<line x1="450.81" y1="60" x2="450.81" y2="470" stroke="#f3f4f6" stroke-width="1"/>
<text x="450.81" y="492" font-size="12" text-anchor="middle" fill="#555555">65</text>
<line x1="456.44" y1="60" x2="456.44" y2="470" stroke="#f3f4f6" stroke-width="1"/>
<text x="456.44" y="492" font-size="12" text-anchor="middle" fill="#555555">66</text>
<line x1="462.08" y1="60" x2="462.08" y2="470" stroke="#f3f4f6" stroke-width="1"/>
<text x="462.08" y="492" font-size="12" text-anchor="middle" fill="#555555">67</text>
<line x1="467.72" y1="60" x2="467.72" y2="470" stroke="#f3f4f6" stroke-width="1"/>
<text x="467.72" y="492" font-size="12" text-anchor="middle" fill="#555555">68</text>
<line x1="473.36" y1="60" x2="473.36" y2="470" stroke="#f3f4f6" stroke-width="1"/>
<text x="473.36" y="492" font-size="12" text-anchor="middle" fill="#555555">69</text>
<line x1="478.99" y1="60" x2="478.99" y2="470" stroke="#f3f4f6" stroke-width="1"/>
<text x="478.99" y="492" font-size="12" text-anchor="middle" fill="#555555">70</text>
<line x1="484.63" y1="60" x2="484.63" y2="470" stroke="#f3f4f6" stroke-width="1"/>
<text x="484.63" y="492" font-size="12" text-anchor="middle" fill="#555555">71</text>
<line x1="490.27" y1="60" x2="490.27" y2="470" stroke="#f3f4f6" stroke-width="1"/>
<text x="490.27" y="492" font-size="12" text-anchor="middle" fill="#555555">72</text>
<line x1="495.91" y1="60" x2="495.91" y2="470" stroke="#f3f4f6" stroke-width="1"/>
<text x="495.91" y="492" font-size="12" text-anchor="middle" fill="#555555">73</text>
<line x1="501.54" y1="60" x2="501.54" y2="470" stroke="#f3f4f6" stroke-width="1"/>
<text x="501.54" y="492" font-size="12" text-anchor="middle" fill="#555555">74</text>
<line x1="507.18" y1="60" x2="507.18" y2="470" stroke="#f3f4f6" stroke-width="1"/>
<text x="507.18" y="492" font-size="12" text-anchor="middle" fill="#555555">75</text>
<line x1="512.82" y1="60" x2="512.82" y2="470" stroke="#f3f4f6" stroke-width="1"/>
<text x="512.82" y="492" font-size="12" text-anchor="middle" fill="#555555">76</text>
<line x1="518.46" y1="60" x2="518.46" y2="470" stroke="#f3f4f6" stroke-width="1"/>
<text x="518.46" y="492" font-size="12" text-anchor="middle" fill="#555555">77</text>
<line x1="524.09" y1="60" x2="524.09" y2="470" stroke="#f3f4f6" stroke-width="1"/>
<text x="524.09" y="492" font-size="12" text-anchor="middle" fill="#555555">78</text>
<line x1="529.73" y1="60" x2="529.73" y2="470" stroke="#f3f4f6" stroke-width="1"/>
<text x="529.73" y="492" font-size="12" text-anchor="middle" fill="#555555">79</text>
<line x1="535.37" y1="60" x2="535.37" y2="470" stroke="#f3f4f6" stroke-width="1"/>
<text x="535.37" y="492" font-size="12" text-anchor="middle" fill="#555555">80</text>
<line x1="541.01" y1="60" x2="541.01" y2="470" stroke="#f3f4f6" stroke-width="1"/>
<text x="541.01" y="492" font-size="12" text-anchor="middle" fill="#555555">81</text>
<line x1="546.64" y1="60" x2="546.64" y2="470" stroke="#f3f4f6" stroke-width="1"/>
<text x="546.64" y="492" font-size="12" text-anchor="middle" fill="#555555">82</text>
<line x1="552.28" y1="60" x2="552.28" y2="470" stroke="#f3f4f6" stroke-width="1"/>
<text x="552.28" y="492" font-size="12" text-anchor="middle" fill="#555555">83</text>
<line x1="557.92" y1="60" x2="557.92" y2="470" stroke="#f3f4f6" stroke-width="1"/>
<text x="557.92" y="492" font-size="12" text-anchor="middle" fill="#555555">84</text>
<line x1="563.56" y1="60" x2="563.56" y2="470" stroke="#f3f4f6" stroke-width="1"/>
<text x="563.56" y="492" font-size="12" text-anchor="middle" fill="#555555">85</text>
<line x1="569.19" y1="60" x2="569.19" y2="470" stroke="#f3f4f6" stroke-width="1"/>
<text x="569.19" y="492" font-size="12" text-anchor="middle" fill="#555555">86</text>
<line x1="574.83" y1="60" x2="574.83" y2="470" stroke="#f3f4f6" stroke-width="1"/>
<text x="574.83" y="492" font-size="12" text-anchor="middle" fill="#555555">87</text>
<line x1="580.47" y1="60" x2="580.47" y2="470" stroke="#f3f4f6" stroke-width="1"/>
<text x="580.47" y="492" font-size="12" text-anchor="middle" fill="#555555">88</text>
<line x1="586.11" y1="60" x2="586.11" y2="470" stroke="#f3f4f6" stroke-width="1"/>
<text x="586.11" y="492" font-size="12" text-anchor="middle" fill="#555555">89</text>
<line x1="591.74" y1="60" x2="591.74" y2="470" stroke="#f3f4f6" stroke-width="1"/>
<text x="591.74" y="492" font-size="12" text-anchor="middle" fill="#555555">90</text>
<line x1="597.38" y1="60" x2="597.38" y2="470" stroke="#f3f4f6" stroke-width="1"/>
<text x="597.38" y="492" font-size="12" text-anchor="middle" fill="#555555">91</text>
<line x1="603.02" y1="60" x2="603.02" y2="470" stroke="#f3f4f6" stroke-width="1"/>
<text x="603.02" y="492" font-size="12" text-anchor="middle" fill="#555555">92</text>
<line x1="608.66" y1="60" x2="608.66" y2="470" stroke="#f3f4f6" stroke-width="1"/>
<text x="608.66" y="492" font-size="12" text-anchor="middle" fill="#555555">93</text>
<line x1="614.30" y1="60" x2="614.30" y2="470" stroke="#f3f4f6" stroke-width="1"/>
<text x="614.30" y="492" font-size="12" text-anchor="middle" fill="#555555">94</text>
<line x1="619.93" y1="60" x2="619.93" y2="470" stroke="#f3f4f6" stroke-width="1"/>
<text x="619.93" y="492" font-size="12" text-anchor="middle" fill="#555555">95</text>
<line x1="625.57" y1="60" x2="625.57" y2="470" stroke="#f3f4f6" stroke-width="1"/>
<text x="625.57" y="492" font-size="12" text-anchor="middle" fill="#555555">96</text>
<line x1="631.21" y1="60" x2="631.21" y2="470" stroke="#f3f4f6" stroke-width="1"/>
<text x="631.21" y="492" font-size="12" text-anchor="middle" fill="#555555">97</text>
<line x1="636.85" y1="60" x2="636.85" y2="470" stroke="#f3f4f6" stroke-width="1"/>
<text x="636.85" y="492" font-size="12" text-anchor="middle" fill="#555555">98</text>
<line x1="642.48" y1="60" x2="642.48" y2="470" stroke="#f3f4f6" stroke-width="1"/>
<text x="642.48" y="492" font-size="12" text-anchor="middle" fill="#555555">99</text>
<line x1="648.12" y1="60" x2="648.12" y2="470" stroke="#f3f4f6" stroke-width="1"/>
<text x="648.12" y="492" font-size="12" text-anchor="middle" fill="#555555">100</text>
<line x1="653.76" y1="60" x2="653.76" y2="470" stroke="#f3f4f6" stroke-width="1"/>
<text x="653.76" y="492" font-size="12" text-anchor="middle" fill="#555555">101</text>
<line x1="659.40" y1="60" x2="659.40" y2="470" stroke="#f3f4f6" stroke-width="1"/>
<text x="659.40" y="492" font-size="12" text-anchor="middle" fill="#555555">102</text>
<line x1="665.03" y1="60" x2="665.03" y2="470" stroke="#f3f4f6" stroke-width="1"/>
<text x="665.03" y="492" font-size="12" text-anchor="middle" fill="#555555">103</text>
<line x1="670.67" y1="60" x2="670.67" y2="470" stroke="#f3f4f6" stroke-width="1"/>
<text x="670.67" y="492" font-size="12" text-anchor="middle" fill="#555555">104</text>
<line x1="676.31" y1="60" x2="676.31" y2="470" stroke="#f3f4f6" stroke-width="1"/>
<text x="676.31" y="492" font-size="12" text-anchor="middle" fill="#555555">105</text>
<line x1="681.95" y1="60" x2="681.95" y2="470" stroke="#f3f4f6" stroke-width="1"/>
<text x="681.95" y="492" font-size="12" text-anchor="middle" fill="#555555">106</text>
<line x1="687.58" y1="60" x2="687.58" y2="470" stroke="#f3f4f6" stroke-width="1"/>
<text x="687.58" y="492" font-size="12" text-anchor="middle" fill="#555555">107</text>
<line x1="693.22" y1="60" x2="693.22" y2="470" stroke="#f3f4f6" stroke-width="1"/>
<text x="693.22" y="492" font-size="12" text-anchor="middle" fill="#555555">108</text>
<line x1="698.86" y1="60" x2="698.86" y2="470" stroke="#f3f4f6" stroke-width="1"/>
<text x="698.86" y="492" font-size="12" text-anchor="middle" fill="#555555">109</text>
<line x1="704.50" y1="60" x2="704.50" y2="470" stroke="#f3f4f6" stroke-width="1"/>
<text x="704.50" y="492" font-size="12" text-anchor="middle" fill="#555555">110</text>
<line x1="710.13" y1="60" x2="710.13" y2="470" stroke="#f3f4f6" stroke-width="1"/>
<text x="710.13" y="492" font-size="12" text-anchor="middle" fill="#555555">111</text>
<line x1="715.77" y1="60" x2="715.77" y2="470" stroke="#f3f4f6" stroke-width="1"/>
<text x="715.77" y="492" font-size="12" text-anchor="middle" fill="#555555">112</text>
<line x1="721.41" y1="60" x2="721.41" y2="470" stroke="#f3f4f6" stroke-width="1"/>
<text x="721.41" y="492" font-size="12" text-anchor="middle" fill="#555555">113</text>
<line x1="727.05" y1="60" x2="727.05" y2="470" stroke="#f3f4f6" stroke-width="1"/>
<text x="727.05" y="492" font-size="12" text-anchor="middle" fill="#555555">114</text>
<line x1="732.68" y1="60" x2="732.68" y2="470" stroke="#f3f4f6" stroke-width="1"/>
<text x="732.68" y="492" font-size="12" text-anchor="middle" fill="#555555">115</text>
<line x1="738.32" y1="60" x2="738.32" y2="470" stroke="#f3f4f6" stroke-width="1"/>
<text x="738.32" y="492" font-size="12" text-anchor="middle" fill="#555555">116</text>
<line x1="743.96" y1="60" x2="743.96" y2="470" stroke="#f3f4f6" stroke-width="1"/>
<text x="743.96" y="492" font-size="12" text-anchor="middle" fill="#555555">117</text>
<line x1="749.60" y1="60" x2="749.60" y2="470" stroke="#f3f4f6" stroke-width="1"/>
<text x="749.60" y="492" font-size="12" text-anchor="middle" fill="#555555">118</text>
<line x1="755.23" y1="60" x2="755.23" y2="470" stroke="#f3f4f6" stroke-width="1"/>
<text x="755.23" y="492" font-size="12" text-anchor="middle" fill="#555555">119</text>
<line x1="760.87" y1="60" x2="760.87" y2="470" stroke="#f3f4f6" stroke-width="1"/>
<text x="760.87" y="492" font-size="12" text-anchor="middle" fill="#555555">120</text>
<line x1="766.51" y1="60" x2="766.51" y2="470" stroke="#f3f4f6" stroke-width="1"/>
<text x="766.51" y="492" font-size="12" text-anchor="middle" fill="#555555">121</text>
<line x1="772.15" y1="60" x2="772.15" y2="470" stroke="#f3f4f6" stroke-width="1"/>
<text x="772.15" y="492" font-size="12" text-anchor="middle" fill="#555555">122</text>
<line x1="777.79" y1="60" x2="777.79" y2="470" stroke="#f3f4f6" stroke-width="1"/>
<text x="777.79" y="492" font-size="12" text-anchor="middle" fill="#555555">123</text>
<line x1="783.42" y1="60" x2="783.42" y2="470" stroke="#f3f4f6" stroke-width="1"/>
<text x="783.42" y="492" font-size="12" text-anchor="middle" fill="#555555">124</text>
<line x1="789.06" y1="60" x2="789.06" y2="470" stroke="#f3f4f6" stroke-width="1"/>
<text x="789.06" y="492" font-size="12" text-anchor="middle" fill="#555555">125</text>
<line x1="794.70" y1="60" x2="794.70" y2="470" stroke="#f3f4f6" stroke-width="1"/>
<text x="794.70" y="492" font-size="12" text-anchor="middle" fill="#555555">126</text>
<line x1="800.34" y1="60" x2="800.34" y2="470" stroke="#f3f4f6" stroke-width="1"/>
<text x="800.34" y="492" font-size="12" text-anchor="middle" fill="#555555">127</text>
<line x1="805.97" y1="60" x2="805.97" y2="470" stroke="#f3f4f6" stroke-width="1"/>
<text x="805.97" y="492" font-size="12" text-anchor="middle" fill="#555555">128</text>
<line x1="811.61" y1="60" x2="811.61" y2="470" stroke="#f3f4f6" stroke-width="1"/>
<text x="811.61" y="492" font-size="12" text-anchor="middle" fill="#555555">129</text>
<line x1="817.25" y1="60" x2="817.25" y2="470" stroke="#f3f4f6" stroke-width="1"/>
<text x="817.25" y="492" font-size="12" text-anchor="middle" fill="#555555">130</text>
<line x1="822.89" y1="60" x2="822.89" y2="470" stroke="#f3f4f6" stroke-width="1"/>
<text x="822.89" y="492" font-size="12" text-anchor="middle" fill="#555555">131</text>
<line x1="828.52" y1="60" x2="828.52" y2="470" stroke="#f3f4f6" stroke-width="1"/>
<text x="828.52" y="492" font-size="12" text-anchor="middle" fill="#555555">132</text>
<line x1="834.16" y1="60" x2="834.16" y2="470" stroke="#f3f4f6" stroke-width="1"/>
<text x="834.16" y="492" font-size="12" text-anchor="middle" fill="#555555">133</text>
<line x1="839.80" y1="60" x2="839.80" y2="470" stroke="#f3f4f6" stroke-width="1"/>
<text x="839.80" y="492" font-size="12" text-anchor="middle" fill="#555555">134</text>
<line x1="845.44" y1="60" x2="845.44" y2="470" stroke="#f3f4f6" stroke-width="1"/>
<text x="845.44" y="492" font-size="12" text-anchor="middle" fill="#555555">135</text>
<line x1="851.07" y1="60" x2="851.07" y2="470" stroke="#f3f4f6" stroke-width="1"/>
<text x="851.07" y="492" font-size="12" text-anchor="middle" fill="#555555">136</text>
<line x1="856.71" y1="60" x2="856.71" y2="470" stroke="#f3f4f6" stroke-width="1"/>
<text x="856.71" y="492" font-size="12" text-anchor="middle" fill="#555555">137</text>
<line x1="862.35" y1="60" x2="862.35" y2="470" stroke="#f3f4f6" stroke-width="1"/>
<text x="862.35" y="492" font-size="12" text-anchor="middle" fill="#555555">138</text>
<line x1="867.99" y1="60" x2="867.99" y2="470" stroke="#f3f4f6" stroke-width="1"/>
<text x="867.99" y="492" font-size="12" text-anchor="middle" fill="#555555">139</text>
<line x1="873.62" y1="60" x2="873.62" y2="470" stroke="#f3f4f6" stroke-width="1"/>
<text x="873.62" y="492" font-size="12" text-anchor="middle" fill="#555555">140</text>
<line x1="879.26" y1="60" x2="879.26" y2="470" stroke="#f3f4f6" stroke-width="1"/>
<text x="879.26" y="492" font-size="12" text-anchor="middle" fill="#555555">141</text>
<line x1="884.90" y1="60" x2="884.90" y2="470" stroke="#f3f4f6" stroke-width="1"/>
<text x="884.90" y="492" font-size="12" text-anchor="middle" fill="#555555">142</text>
<line x1="890.54" y1="60" x2="890.54" y2="470" stroke="#f3f4f6" stroke-width="1"/>
<text x="890.54" y="492" font-size="12" text-anchor="middle" fill="#555555">143</text>
<line x1="896.17" y1="60" x2="896.17" y2="470" stroke="#f3f4f6" stroke-width="1"/>
<text x="896.17" y="492" font-size="12" text-anchor="middle" fill="#555555">144</text>
<line x1="901.81" y1="60" x2="901.81" y2="470" stroke="#f3f4f6" stroke-width="1"/>
<text x="901.81" y="492" font-size="12" text-anchor="middle" fill="#555555">145</text>
<line x1="907.45" y1="60" x2="907.45" y2="470" stroke="#f3f4f6" stroke-width="1"/>
<text x="907.45" y="492" font-size="12" text-anchor="middle" fill="#555555">146</text>
<line x1="913.09" y1="60" x2="913.09" y2="470" stroke="#f3f4f6" stroke-width="1"/>
<text x="913.09" y="492" font-size="12" text-anchor="middle" fill="#555555">147</text>
<line x1="918.72" y1="60" x2="918.72" y2="470" stroke="#f3f4f6" stroke-width="1"/>
<text x="918.72" y="492" font-size="12" text-anchor="middle" fill="#555555">148</text>
<line x1="924.36" y1="60" x2="924.36" y2="470" stroke="#f3f4f6" stroke-width="1"/>
<text x="924.36" y="492" font-size="12" text-anchor="middle" fill="#555555">149</text>
<line x1="930.00" y1="60" x2="930.00" y2="470" stroke="#f3f4f6" stroke-width="1"/>
<text x="930.00" y="492" font-size="12" text-anchor="middle" fill="#555555">150</text>
<polyline fill="none" stroke="#dc2626" stroke-width="3" points="90.00,94.17 95.64,191.53 101.28,159.30 106.91,177.45 112.55,206.92 118.19,240.25 123.83,248.24 129.46,253.58 135.10,268.82 140.74,264.56 146.38,254.98 152.01,301.92 157.65,279.69 163.29,283.27 168.93,293.46 174.56,307.59 180.20,311.52 185.84,326.67 191.48,309.46 197.11,320.85 202.75,316.18 208.39,322.10 214.03,314.30 219.66,322.60 225.30,325.36 230.94,339.39 236.58,328.50 242.21,347.19 247.85,319.79 253.49,341.62 259.13,331.76 264.77,328.76 270.40,338.64 276.04,343.52 281.68,336.23 287.32,344.68 292.95,347.87 298.59,336.80 304.23,351.77 309.87,343.02 315.50,349.64 321.14,347.04 326.78,348.42 332.42,351.73 338.05,348.25 343.69,344.49 349.33,348.06 354.97,349.42 360.60,363.31 366.24,365.69 371.88,376.61 377.52,386.61 383.15,386.09 388.79,387.43 394.43,389.45 400.07,396.51 405.70,391.97 411.34,398.93 416.98,402.35 422.62,393.53 428.26,405.23 433.89,404.19 439.53,410.09 445.17,403.28 450.81,402.90 456.44,410.91 462.08,405.34 467.72,411.42 473.36,411.92 478.99,409.39 484.63,411.04 490.27,410.30 495.91,412.23 501.54,413.70 507.18,408.44 512.82,417.19 518.46,410.44 524.09,417.88 529.73,412.32 535.37,418.45 541.01,415.65 546.64,416.48 552.28,420.57 557.92,420.80 563.56,412.09 569.19,415.95 574.83,420.14 580.47,414.80 586.11,417.33 591.74,421.58 597.38,419.13 603.02,420.90 608.66,420.49 614.30,423.49 619.93,419.32 625.57,424.33 631.21,426.54 636.85,421.05 642.48,427.79 648.12,423.67 653.76,425.12 659.40,428.64 665.03,426.53 670.67,426.78 676.31,426.84 681.95,430.61 687.58,427.24 693.22,430.14 698.86,433.05 704.50,427.22 710.13,434.87 715.77,430.50 721.41,428.97 727.05,428.12 732.68,431.09 738.32,428.64 743.96,428.36 749.60,428.42 755.23,431.63 760.87,428.44 766.51,431.91 772.15,433.83 777.79,428.46 783.42,435.83 789.06,431.52 794.70,430.75 800.34,427.98 805.97,425.28 811.61,431.08 817.25,425.65 822.89,431.81 828.52,428.80 834.16,428.97 839.80,429.06 845.44,425.53 851.07,428.90 856.71,431.02 862.35,423.65 867.99,432.18 873.62,425.21 879.26,431.30 884.90,426.59 890.54,430.75 896.17,429.09 901.81,428.67 907.45,430.91 913.09,432.56 918.72,425.17 924.36,428.93 930.00,429.22"/>
<circle cx="90.00" cy="94.17" r="4.5" fill="#dc2626" fill-opacity="0.9"/>
<circle cx="95.64" cy="191.53" r="4.5" fill="#dc2626" fill-opacity="0.9"/>
<circle cx="101.28" cy="159.30" r="4.5" fill="#dc2626" fill-opacity="0.9"/>
<circle cx="106.91" cy="177.45" r="4.5" fill="#dc2626" fill-opacity="0.9"/>
<circle cx="112.55" cy="206.92" r="4.5" fill="#dc2626" fill-opacity="0.9"/>
<circle cx="118.19" cy="240.25" r="4.5" fill="#dc2626" fill-opacity="0.9"/>
<circle cx="123.83" cy="248.24" r="4.5" fill="#dc2626" fill-opacity="0.9"/>
<circle cx="129.46" cy="253.58" r="4.5" fill="#dc2626" fill-opacity="0.9"/>
<circle cx="135.10" cy="268.82" r="4.5" fill="#dc2626" fill-opacity="0.9"/>
<circle cx="140.74" cy="264.56" r="4.5" fill="#dc2626" fill-opacity="0.9"/>
<circle cx="146.38" cy="254.98" r="4.5" fill="#dc2626" fill-opacity="0.9"/>
<circle cx="152.01" cy="301.92" r="4.5" fill="#dc2626" fill-opacity="0.9"/>
<circle cx="157.65" cy="279.69" r="4.5" fill="#dc2626" fill-opacity="0.9"/>
<circle cx="163.29" cy="283.27" r="4.5" fill="#dc2626" fill-opacity="0.9"/>
<circle cx="168.93" cy="293.46" r="4.5" fill="#dc2626" fill-opacity="0.9"/>
<circle cx="174.56" cy="307.59" r="4.5" fill="#dc2626" fill-opacity="0.9"/>
<circle cx="180.20" cy="311.52" r="4.5" fill="#dc2626" fill-opacity="0.9"/>
<circle cx="185.84" cy="326.67" r="4.5" fill="#dc2626" fill-opacity="0.9"/>
<circle cx="191.48" cy="309.46" r="4.5" fill="#dc2626" fill-opacity="0.9"/>
<circle cx="197.11" cy="320.85" r="4.5" fill="#dc2626" fill-opacity="0.9"/>
<circle cx="202.75" cy="316.18" r="4.5" fill="#dc2626" fill-opacity="0.9"/>
<circle cx="208.39" cy="322.10" r="4.5" fill="#dc2626" fill-opacity="0.9"/>
<circle cx="214.03" cy="314.30" r="4.5" fill="#dc2626" fill-opacity="0.9"/>
<circle cx="219.66" cy="322.60" r="4.5" fill="#dc2626" fill-opacity="0.9"/>
<circle cx="225.30" cy="325.36" r="4.5" fill="#dc2626" fill-opacity="0.9"/>
<circle cx="230.94" cy="339.39" r="4.5" fill="#dc2626" fill-opacity="0.9"/>
<circle cx="236.58" cy="328.50" r="4.5" fill="#dc2626" fill-opacity="0.9"/>
<circle cx="242.21" cy="347.19" r="4.5" fill="#dc2626" fill-opacity="0.9"/>
<circle cx="247.85" cy="319.79" r="4.5" fill="#dc2626" fill-opacity="0.9"/>
<circle cx="253.49" cy="341.62" r="4.5" fill="#dc2626" fill-opacity="0.9"/>
<circle cx="259.13" cy="331.76" r="4.5" fill="#dc2626" fill-opacity="0.9"/>
<circle cx="264.77" cy="328.76" r="4.5" fill="#dc2626" fill-opacity="0.9"/>
<circle cx="270.40" cy="338.64" r="4.5" fill="#dc2626" fill-opacity="0.9"/>
<circle cx="276.04" cy="343.52" r="4.5" fill="#dc2626" fill-opacity="0.9"/>
<circle cx="281.68" cy="336.23" r="4.5" fill="#dc2626" fill-opacity="0.9"/>
<circle cx="287.32" cy="344.68" r="4.5" fill="#dc2626" fill-opacity="0.9"/>
<circle cx="292.95" cy="347.87" r="4.5" fill="#dc2626" fill-opacity="0.9"/>
<circle cx="298.59" cy="336.80" r="4.5" fill="#dc2626" fill-opacity="0.9"/>
<circle cx="304.23" cy="351.77" r="4.5" fill="#dc2626" fill-opacity="0.9"/>
<circle cx="309.87" cy="343.02" r="4.5" fill="#dc2626" fill-opacity="0.9"/>
<circle cx="315.50" cy="349.64" r="4.5" fill="#dc2626" fill-opacity="0.9"/>
<circle cx="321.14" cy="347.04" r="4.5" fill="#dc2626" fill-opacity="0.9"/>
<circle cx="326.78" cy="348.42" r="4.5" fill="#dc2626" fill-opacity="0.9"/>
<circle cx="332.42" cy="351.73" r="4.5" fill="#dc2626" fill-opacity="0.9"/>
<circle cx="338.05" cy="348.25" r="4.5" fill="#dc2626" fill-opacity="0.9"/>
<circle cx="343.69" cy="344.49" r="4.5" fill="#dc2626" fill-opacity="0.9"/>
<circle cx="349.33" cy="348.06" r="4.5" fill="#dc2626" fill-opacity="0.9"/>
<circle cx="354.97" cy="349.42" r="4.5" fill="#dc2626" fill-opacity="0.9"/>
<circle cx="360.60" cy="363.31" r="4.5" fill="#dc2626" fill-opacity="0.9"/>
<circle cx="366.24" cy="365.69" r="4.5" fill="#dc2626" fill-opacity="0.9"/>
<circle cx="371.88" cy="376.61" r="4.5" fill="#dc2626" fill-opacity="0.9"/>
<circle cx="377.52" cy="386.61" r="4.5" fill="#dc2626" fill-opacity="0.9"/>
<circle cx="383.15" cy="386.09" r="4.5" fill="#dc2626" fill-opacity="0.9"/>
<circle cx="388.79" cy="387.43" r="4.5" fill="#dc2626" fill-opacity="0.9"/>
<circle cx="394.43" cy="389.45" r="4.5" fill="#dc2626" fill-opacity="0.9"/>
<circle cx="400.07" cy="396.51" r="4.5" fill="#dc2626" fill-opacity="0.9"/>
<circle cx="405.70" cy="391.97" r="4.5" fill="#dc2626" fill-opacity="0.9"/>
<circle cx="411.34" cy="398.93" r="4.5" fill="#dc2626" fill-opacity="0.9"/>
<circle cx="416.98" cy="402.35" r="4.5" fill="#dc2626" fill-opacity="0.9"/>
<circle cx="422.62" cy="393.53" r="4.5" fill="#dc2626" fill-opacity="0.9"/>
<circle cx="428.26" cy="405.23" r="4.5" fill="#dc2626" fill-opacity="0.9"/>
<circle cx="433.89" cy="404.19" r="4.5" fill="#dc2626" fill-opacity="0.9"/>
<circle cx="439.53" cy="410.09" r="4.5" fill="#dc2626" fill-opacity="0.9"/>
<circle cx="445.17" cy="403.28" r="4.5" fill="#dc2626" fill-opacity="0.9"/>
<circle cx="450.81" cy="402.90" r="4.5" fill="#dc2626" fill-opacity="0.9"/>
<circle cx="456.44" cy="410.91" r="4.5" fill="#dc2626" fill-opacity="0.9"/>
<circle cx="462.08" cy="405.34" r="4.5" fill="#dc2626" fill-opacity="0.9"/>
<circle cx="467.72" cy="411.42" r="4.5" fill="#dc2626" fill-opacity="0.9"/>
<circle cx="473.36" cy="411.92" r="4.5" fill="#dc2626" fill-opacity="0.9"/>
<circle cx="478.99" cy="409.39" r="4.5" fill="#dc2626" fill-opacity="0.9"/>
<circle cx="484.63" cy="411.04" r="4.5" fill="#dc2626" fill-opacity="0.9"/>
<circle cx="490.27" cy="410.30" r="4.5" fill="#dc2626" fill-opacity="0.9"/>
<circle cx="495.91" cy="412.23" r="4.5" fill="#dc2626" fill-opacity="0.9"/>
<circle cx="501.54" cy="413.70" r="4.5" fill="#dc2626" fill-opacity="0.9"/>
<circle cx="507.18" cy="408.44" r="4.5" fill="#dc2626" fill-opacity="0.9"/>
<circle cx="512.82" cy="417.19" r="4.5" fill="#dc2626" fill-opacity="0.9"/>
<circle cx="518.46" cy="410.44" r="4.5" fill="#dc2626" fill-opacity="0.9"/>
<circle cx="524.09" cy="417.88" r="4.5" fill="#dc2626" fill-opacity="0.9"/>
<circle cx="529.73" cy="412.32" r="4.5" fill="#dc2626" fill-opacity="0.9"/>
<circle cx="535.37" cy="418.45" r="4.5" fill="#dc2626" fill-opacity="0.9"/>
<circle cx="541.01" cy="415.65" r="4.5" fill="#dc2626" fill-opacity="0.9"/>
<circle cx="546.64" cy="416.48" r="4.5" fill="#dc2626" fill-opacity="0.9"/>
<circle cx="552.28" cy="420.57" r="4.5" fill="#dc2626" fill-opacity="0.9"/>
<circle cx="557.92" cy="420.80" r="4.5" fill="#dc2626" fill-opacity="0.9"/>
<circle cx="563.56" cy="412.09" r="4.5" fill="#dc2626" fill-opacity="0.9"/>
<circle cx="569.19" cy="415.95" r="4.5" fill="#dc2626" fill-opacity="0.9"/>
<circle cx="574.83" cy="420.14" r="4.5" fill="#dc2626" fill-opacity="0.9"/>
<circle cx="580.47" cy="414.80" r="4.5" fill="#dc2626" fill-opacity="0.9"/>
<circle cx="586.11" cy="417.33" r="4.5" fill="#dc2626" fill-opacity="0.9"/>
<circle cx="591.74" cy="421.58" r="4.5" fill="#dc2626" fill-opacity="0.9"/>
<circle cx="597.38" cy="419.13" r="4.5" fill="#dc2626" fill-opacity="0.9"/>
<circle cx="603.02" cy="420.90" r="4.5" fill="#dc2626" fill-opacity="0.9"/>
<circle cx="608.66" cy="420.49" r="4.5" fill="#dc2626" fill-opacity="0.9"/>
<circle cx="614.30" cy="423.49" r="4.5" fill="#dc2626" fill-opacity="0.9"/>
<circle cx="619.93" cy="419.32" r="4.5" fill="#dc2626" fill-opacity="0.9"/>
<circle cx="625.57" cy="424.33" r="4.5" fill="#dc2626" fill-opacity="0.9"/>
<circle cx="631.21" cy="426.54" r="4.5" fill="#dc2626" fill-opacity="0.9"/>
<circle cx="636.85" cy="421.05" r="4.5" fill="#dc2626" fill-opacity="0.9"/>
<circle cx="642.48" cy="427.79" r="4.5" fill="#dc2626" fill-opacity="0.9"/>
<circle cx="648.12" cy="423.67" r="4.5" fill="#dc2626" fill-opacity="0.9"/>
<circle cx="653.76" cy="425.12" r="4.5" fill="#dc2626" fill-opacity="0.9"/>
<circle cx="659.40" cy="428.64" r="4.5" fill="#dc2626" fill-opacity="0.9"/>
<circle cx="665.03" cy="426.53" r="4.5" fill="#dc2626" fill-opacity="0.9"/>
<circle cx="670.67" cy="426.78" r="4.5" fill="#dc2626" fill-opacity="0.9"/>
<circle cx="676.31" cy="426.84" r="4.5" fill="#dc2626" fill-opacity="0.9"/>
<circle cx="681.95" cy="430.61" r="4.5" fill="#dc2626" fill-opacity="0.9"/>
<circle cx="687.58" cy="427.24" r="4.5" fill="#dc2626" fill-opacity="0.9"/>
<circle cx="693.22" cy="430.14" r="4.5" fill="#dc2626" fill-opacity="0.9"/>
<circle cx="698.86" cy="433.05" r="4.5" fill="#dc2626" fill-opacity="0.9"/>
<circle cx="704.50" cy="427.22" r="4.5" fill="#dc2626" fill-opacity="0.9"/>
<circle cx="710.13" cy="434.87" r="4.5" fill="#dc2626" fill-opacity="0.9"/>
<circle cx="715.77" cy="430.50" r="4.5" fill="#dc2626" fill-opacity="0.9"/>
<circle cx="721.41" cy="428.97" r="4.5" fill="#dc2626" fill-opacity="0.9"/>
<circle cx="727.05" cy="428.12" r="4.5" fill="#dc2626" fill-opacity="0.9"/>
<circle cx="732.68" cy="431.09" r="4.5" fill="#dc2626" fill-opacity="0.9"/>
<circle cx="738.32" cy="428.64" r="4.5" fill="#dc2626" fill-opacity="0.9"/>
<circle cx="743.96" cy="428.36" r="4.5" fill="#dc2626" fill-opacity="0.9"/>
<circle cx="749.60" cy="428.42" r="4.5" fill="#dc2626" fill-opacity="0.9"/>
<circle cx="755.23" cy="431.63" r="4.5" fill="#dc2626" fill-opacity="0.9"/>
<circle cx="760.87" cy="428.44" r="4.5" fill="#dc2626" fill-opacity="0.9"/>
<circle cx="766.51" cy="431.91" r="4.5" fill="#dc2626" fill-opacity="0.9"/>
<circle cx="772.15" cy="433.83" r="4.5" fill="#dc2626" fill-opacity="0.9"/>
<circle cx="777.79" cy="428.46" r="4.5" fill="#dc2626" fill-opacity="0.9"/>
<circle cx="783.42" cy="435.83" r="4.5" fill="#dc2626" fill-opacity="0.9"/>
<circle cx="789.06" cy="431.52" r="4.5" fill="#dc2626" fill-opacity="0.9"/>
<circle cx="794.70" cy="430.75" r="4.5" fill="#dc2626" fill-opacity="0.9"/>
<circle cx="800.34" cy="427.98" r="4.5" fill="#dc2626" fill-opacity="0.9"/>
<circle cx="805.97" cy="425.28" r="4.5" fill="#dc2626" fill-opacity="0.9"/>
<circle cx="811.61" cy="431.08" r="4.5" fill="#dc2626" fill-opacity="0.9"/>
<circle cx="817.25" cy="425.65" r="4.5" fill="#dc2626" fill-opacity="0.9"/>
<circle cx="822.89" cy="431.81" r="4.5" fill="#dc2626" fill-opacity="0.9"/>
<circle cx="828.52" cy="428.80" r="4.5" fill="#dc2626" fill-opacity="0.9"/>
<circle cx="834.16" cy="428.97" r="4.5" fill="#dc2626" fill-opacity="0.9"/>
<circle cx="839.80" cy="429.06" r="4.5" fill="#dc2626" fill-opacity="0.9"/>
<circle cx="845.44" cy="425.53" r="4.5" fill="#dc2626" fill-opacity="0.9"/>
<circle cx="851.07" cy="428.90" r="4.5" fill="#dc2626" fill-opacity="0.9"/>
<circle cx="856.71" cy="431.02" r="4.5" fill="#dc2626" fill-opacity="0.9"/>
<circle cx="862.35" cy="423.65" r="4.5" fill="#dc2626" fill-opacity="0.9"/>
<circle cx="867.99" cy="432.18" r="4.5" fill="#dc2626" fill-opacity="0.9"/>
<circle cx="873.62" cy="425.21" r="4.5" fill="#dc2626" fill-opacity="0.9"/>
<circle cx="879.26" cy="431.30" r="4.5" fill="#dc2626" fill-opacity="0.9"/>
<circle cx="884.90" cy="426.59" r="4.5" fill="#dc2626" fill-opacity="0.9"/>
<circle cx="890.54" cy="430.75" r="4.5" fill="#dc2626" fill-opacity="0.9"/>
<circle cx="896.17" cy="429.09" r="4.5" fill="#dc2626" fill-opacity="0.9"/>
<circle cx="901.81" cy="428.67" r="4.5" fill="#dc2626" fill-opacity="0.9"/>
<circle cx="907.45" cy="430.91" r="4.5" fill="#dc2626" fill-opacity="0.9"/>
<circle cx="913.09" cy="432.56" r="4.5" fill="#dc2626" fill-opacity="0.9"/>
<circle cx="918.72" cy="425.17" r="4.5" fill="#dc2626" fill-opacity="0.9"/>
<circle cx="924.36" cy="428.93" r="4.5" fill="#dc2626" fill-opacity="0.9"/>
<circle cx="930.00" cy="429.22" r="4.5" fill="#dc2626" fill-opacity="0.9"/>
<rect x="90" y="32" width="18" height="6" fill="#dc2626"/>
<text x="114" y="38" font-size="13" fill="#333333">train</text>
</svg>