<svg xmlns="http://www.w3.org/2000/svg" width="960" height="540">
<rect width="100%" height="100%" fill="#ffffff"/>
<text x="480.0" y="30" font-size="22" text-anchor="middle" fill="#111111">Edit Distance</text>
<text x="20" y="270.0" font-size="16" transform="rotate(-90 20,270.0)" text-anchor="middle" fill="#333333">Distance</text>
<text x="480.0" y="520" font-size="16" text-anchor="middle" fill="#333333">Epoch</text>
<line x1="90" y1="60" x2="90" y2="470" stroke="#333333" stroke-width="2"/>
<line x1="90" y1="470" x2="930" y2="470" stroke="#333333" stroke-width="2"/>
<line x1="90" y1="470.00" x2="930" y2="470.00" stroke="#e5e7eb" stroke-width="1"/>
<text x="80" y="475.00" font-size="12" text-anchor="end" fill="#555555">-0.2356</text>
<line x1="90" y1="367.50" x2="930" y2="367.50" stroke="#e5e7eb" stroke-width="1"/>
<text x="80" y="372.50" font-size="12" text-anchor="end" fill="#555555">0.6396</text>
<line x1="90" y1="265.00" x2="930" y2="265.00" stroke="#e5e7eb" stroke-width="1"/>
<text x="80" y="270.00" font-size="12" text-anchor="end" fill="#555555">1.5147</text>
<line x1="90" y1="162.50" x2="930" y2="162.50" stroke="#e5e7eb" stroke-width="1"/>
<text x="80" y="167.50" font-size="12" text-anchor="end" fill="#555555">2.3899</text>
<line x1="90" y1="60.00" x2="930" y2="60.00" stroke="#e5e7eb" stroke-width="1"/>
<text x="80" y="65.00" font-size="12" text-anchor="end" fill="#555555">3.2651</text>
<line x1="90.00" y1="60" x2="90.00" y2="470" stroke="#f3f4f6" stroke-width="1"/>
<text x="90.00" y="492" font-size="12" text-anchor="middle" fill="#555555">1</text>
<line x1="107.14" y1="60" x2="107.14" y2="470" stroke="#f3f4f6" stroke-width="1"/>
<text x="107.14" y="492" font-size="12" text-anchor="middle" fill="#555555">2</text>
<line x1="124.29" y1="60" x2="124.29" y2="470" stroke="#f3f4f6" stroke-width="1"/>
<text x="124.29" y="492" font-size="12" text-anchor="middle" fill="#555555">3</text>
<line x1="141.43" y1="60" x2="141.43" y2="470" stroke="#f3f4f6" stroke-width="1"/>
<text x="141.43" y="492" font-size="12" text-anchor="middle" fill="#555555">4</text>
<line x1="158.57" y1="60" x2="158.57" y2="470" stroke="#f3f4f6" stroke-width="1"/>
<text x="158.57" y="492" font-size="12" text-anchor="middle" fill="#555555">5</text>
<line x1="175.71" y1="60" x2="175.71" y2="470" stroke="#f3f4f6" stroke-width="1"/>
<text x="175.71" y="492" font-size="12" text-anchor="middle" fill="#555555">6</text>
<line x1="192.86" y1="60" x2="192.86" y2="470" stroke="#f3f4f6" stroke-width="1"/>
<text x="192.86" y="492" font-size="12" text-anchor="middle" fill="#555555">7</text>
<line x1="210.00" y1="60" x2="210.00" y2="470" stroke="#f3f4f6" stroke-width="1"/>
<text x="210.00" y="492" font-size="12" text-anchor="middle" fill="#555555">8</text>
<line x1="227.14" y1="60" x2="227.14" y2="470" stroke="#f3f4f6" stroke-width="1"/>
<text x="227.14" y="492" font-size="12" text-anchor="middle" fill="#555555">9</text>
<line x1="244.29" y1="60" x2="244.29" y2="470" stroke="#f3f4f6" stroke-width="1"/>
<text x="244.29" y="492" font-size="12" text-anchor="middle" fill="#555555">10</text>
<line x1="261.43" y1="60" x2="261.43" y2="470" stroke="#f3f4f6" stroke-width="1"/>
<text x="261.43" y="492" font-size="12" text-anchor="middle" fill="#555555">11</text>
<line x1="278.57" y1="60" x2="278.57" y2="470" stroke="#f3f4f6" stroke-width="1"/>
<text x="278.57" y="492" font-size="12" text-anchor="middle" fill="#555555">12</text>
<line x1="295.71" y1="60" x2="295.71" y2="470" stroke="#f3f4f6" stroke-width="1"/>
<text x="295.71" y="492" font-size="12" text-anchor="middle" fill="#555555">13</text>
<line x1="312.86" y1="60" x2="312.86" y2="470" stroke="#f3f4f6" stroke-width="1"/>
<text x="312.86" y="492" font-size="12" text-anchor="middle" fill="#555555">14</text>
<line x1="330.00" y1="60" x2="330.00" y2="470" stroke="#f3f4f6" stroke-width="1"/>
<text x="330.00" y="492" font-size="12" text-anchor="middle" fill="#555555">15</text>
<line x1="347.14" y1="60" x2="347.14" y2="470" stroke="#f3f4f6" stroke-width="1"/>
<text x="347.14" y="492" font-size="12" text-anchor="middle" fill="#555555">16</text>
<line x1="364.29" y1="60" x2="364.29" y2="470" stroke="#f3f4f6" stroke-width="1"/>
<text x="364.29" y="492" font-size="12" text-anchor="middle" fill="#555555">17</text>
<line x1="381.43" y1="60" x2="381.43" y2="470" stroke="#f3f4f6" stroke-width="1"/>
<text x="381.43" y="492" font-size="12" text-anchor="middle" fill="#555555">18</text>
<line x1="398.57" y1="60" x2="398.57" y2="470" stroke="#f3f4f6" stroke-width="1"/>
<text x="398.57" y="492" font-size="12" text-anchor="middle" fill="#555555">19</text>
<line x1="415.71" y1="60" x2="415.71" y2="470" stroke="#f3f4f6" stroke-width="1"/>
<text x="415.71" y="492" font-size="12" text-anchor="middle" fill="#555555">20</text>
<line x1="432.86" y1="60" x2="432.86" y2="470" stroke="#f3f4f6" stroke-width="1"/>
<text x="432.86" y="492" font-size="12" text-anchor="middle" fill="#555555">21</text>
<line x1="450.00" y1="60" x2="450.00" y2="470" stroke="#f3f4f6" stroke-width="1"/>
<text x="450.00" y="492" font-size="12" text-anchor="middle" fill="#555555">22</text>
<line x1="467.14" y1="60" x2="467.14" y2="470" stroke="#f3f4f6" stroke-width="1"/>
<text x="467.14" y="492" font-size="12" text-anchor="middle" fill="#555555">23</text>
<line x1="484.29" y1="60" x2="484.29" y2="470" stroke="#f3f4f6" stroke-width="1"/>
<text x="484.29" y="492" font-size="12" text-anchor="middle" fill="#555555">24</text>
<line x1="501.43" y1="60" x2="501.43" y2="470" stroke="#f3f4f6" stroke-width="1"/>
<text x="501.43" y="492" font-size="12" text-anchor="middle" fill="#555555">25</text>
<line x1="518.57" y1="60" x2="518.57" y2="470" stroke="#f3f4f6" stroke-width="1"/>
<text x="518.57" y="492" font-size="12" text-anchor="middle" fill="#555555">26</text>
<line x1="535.71" y1="60" x2="535.71" y2="470" stroke="#f3f4f6" stroke-width="1"/>
<text x="535.71" y="492" font-size="12" text-anchor="middle" fill="#555555">27</text>
<line x1="552.86" y1="60" x2="552.86" y2="470" stroke="#f3f4f6" stroke-width="1"/>
<text x="552.86" y="492" font-size="12" text-anchor="middle" fill="#555555">28</text>
<line x1="570.00" y1="60" x2="570.00" y2="470" stroke="#f3f4f6" stroke-width="1"/>
<text x="570.00" y="492" font-size="12" text-anchor="middle" fill="#555555">29</text>
<line x1="587.14" y1="60" x2="587.14" y2="470" stroke="#f3f4f6" stroke-width="1"/>
<text x="587.14" y="492" font-size="12" text-anchor="middle" fill="#555555">30</text>
<line x1="604.29" y1="60" x2="604.29" y2="470" stroke="#f3f4f6" stroke-width="1"/>
<text x="604.29" y="492" font-size="12" text-anchor="middle" fill="#555555">31</text>
<line x1="621.43" y1="60" x2="621.43" y2="470" stroke="#f3f4f6" stroke-width="1"/>
<text x="621.43" y="492" font-size="12" text-anchor="middle" fill="#555555">32</text>
<line x1="638.57" y1="60" x2="638.57" y2="470" stroke="#f3f4f6" stroke-width="1"/>
<text x="638.57" y="492" font-size="12" text-anchor="middle" fill="#555555">33</text>
<line x1="655.71" y1="60" x2="655.71" y2="470" stroke="#f3f4f6" stroke-width="1"/>
<text x="655.71" y="492" font-size="12" text-anchor="middle" fill="#555555">34</text>
<line x1="672.86" y1="60" x2="672.86" y2="470" stroke="#f3f4f6" stroke-width="1"/>
<text x="672.86" y="492" font-size="12" text-anchor="middle" fill="#555555">35</text>
<line x1="690.00" y1="60" x2="690.00" y2="470" stroke="#f3f4f6" stroke-width="1"/>
<text x="690.00" y="492" font-size="12" text-anchor="middle" fill="#555555">36</text>
<line x1="707.14" y1="60" x2="707.14" y2="470" stroke="#f3f4f6" stroke-width="1"/>
<text x="707.14" y="492" font-size="12" text-anchor="middle" fill="#555555">37</text>
<line x1="724.29" y1="60" x2="724.29" y2="470" stroke="#f3f4f6" stroke-width="1"/>
<text x="724.29" y="492" font-size="12" text-anchor="middle" fill="#555555">38</text>
<line x1="741.43" y1="60" x2="741.43" y2="470" stroke="#f3f4f6" stroke-width="1"/>
<text x="741.43" y="492" font-size="12" text-anchor="middle" fill="#555555">39</text>
<line x1="758.57" y1="60" x2="758.57" y2="470" stroke="#f3f4f6" stroke-width="1"/>
<text x="758.57" y="492" font-size="12" text-anchor="middle" fill="#555555">40</text>
<line x1="775.71" y1="60" x2="775.71" y2="470" stroke="#f3f4f6" stroke-width="1"/>
<text x="775.71" y="492" font-size="12" text-anchor="middle" fill="#555555">41</text>
<line x1="792.86" y1="60" x2="792.86" y2="470" stroke="#f3f4f6" stroke-width="1"/>
<text x="792.86" y="492" font-size="12" text-anchor="middle" fill="#555555">42</text>
<line x1="810.00" y1="60" x2="810.00" y2="470" stroke="#f3f4f6" stroke-width="1"/>
<text x="810.00" y="492" font-size="12" text-anchor="middle" fill="#555555">43</text>
<line x1="827.14" y1="60" x2="827.14" y2="470" stroke="#f3f4f6" stroke-width="1"/>
<text x="827.14" y="492" font-size="12" text-anchor="middle" fill="#555555">44</text>
<line x1="844.29" y1="60" x2="844.29" y2="470" stroke="#f3f4f6" stroke-width="1"/>
<text x="844.29" y="492" font-size="12" text-anchor="middle" fill="#555555">45</text>
<line x1="861.43" y1="60" x2="861.43" y2="470" stroke="#f3f4f6" stroke-width="1"/>
<text x="861.43" y="492" font-size="12" text-anchor="middle" fill="#555555">46</text>
<line x1="878.57" y1="60" x2="878.57" y2="470" stroke="#f3f4f6" stroke-width="1"/>
<text x="878.57" y="492" font-size="12" text-anchor="middle" fill="#555555">47</text>
<line x1="895.71" y1="60" x2="895.71" y2="470" stroke="#f3f4f6" stroke-width="1"/>
<text x="895.71" y="492" font-size="12" text-anchor="middle" fill="#555555">48</text>
<line x1="912.86" y1="60" x2="912.86" y2="470" stroke="#f3f4f6" stroke-width="1"/>
<text x="912.86" y="492" font-size="12" text-anchor="middle" fill="#555555">49</text>
<line x1="930.00" y1="60" x2="930.00" y2="470" stroke="#f3f4f6" stroke-width="1"/>
<text x="930.00" y="492" font-size="12" text-anchor="middle" fill="#555555">50</text>
<polyline fill="none" stroke="#d97706" stroke-width="3" points="90.00,94.96 107.14,352.55 124.29,316.78 141.43,429.75 158.57,427.88 175.71,427.17 192.86,429.54 210.00,416.06 227.14,369.28 244.29,427.28 261.43,431.96 278.57,427.24 295.71,429.85 312.86,427.83 330.00,417.30 347.14,432.03 364.29,431.80 381.43,432.17 398.57,434.67 415.71,427.26 432.86,370.35 450.00,431.59 467.14,372.90 484.29,431.02 501.43,422.61 518.57,433.42 535.71,431.70 552.86,434.80 570.00,364.82 587.14,435.15 604.29,433.40 621.43,432.63 638.57,433.44 655.71,408.99 672.86,393.22 690.00,432.51 707.14,421.05 724.29,434.15 741.43,435.01 758.57,433.90 775.71,435.34 792.86,425.11 810.00,435.16 827.14,435.10 844.29,434.63 861.43,435.79 878.57,435.54 895.71,434.64 912.86,435.39 930.00,434.79"/>
<circle cx="90.00" cy="94.96" r="4.5" fill="#d97706" fill-opacity="0.9"/>
<circle cx="107.14" cy="352.55" r="4.5" fill="#d97706" fill-opacity="0.9"/>
<circle cx="124.29" cy="316.78" r="4.5" fill="#d97706" fill-opacity="0.9"/>
<circle cx="141.43" cy="429.75" r="4.5" fill="#d97706" fill-opacity="0.9"/>
<circle cx="158.57" cy="427.88" r="4.5" fill="#d97706" fill-opacity="0.9"/>
<circle cx="175.71" cy="427.17" r="4.5" fill="#d97706" fill-opacity="0.9"/>
<circle cx="192.86" cy="429.54" r="4.5" fill="#d97706" fill-opacity="0.9"/>
<circle cx="210.00" cy="416.06" r="4.5" fill="#d97706" fill-opacity="0.9"/>
<circle cx="227.14" cy="369.28" r="4.5" fill="#d97706" fill-opacity="0.9"/>
<circle cx="244.29" cy="427.28" r="4.5" fill="#d97706" fill-opacity="0.9"/>
<circle cx="261.43" cy="431.96" r="4.5" fill="#d97706" fill-opacity="0.9"/>
<circle cx="278.57" cy="427.24" r="4.5" fill="#d97706" fill-opacity="0.9"/>
<circle cx="295.71" cy="429.85" r="4.5" fill="#d97706" fill-opacity="0.9"/>
<circle cx="312.86" cy="427.83" r="4.5" fill="#d97706" fill-opacity="0.9"/>
<circle cx="330.00" cy="417.30" r="4.5" fill="#d97706" fill-opacity="0.9"/>
<circle cx="347.14" cy="432.03" r="4.5" fill="#d97706" fill-opacity="0.9"/>
<circle cx="364.29" cy="431.80" r="4.5" fill="#d97706" fill-opacity="0.9"/>
<circle cx="381.43" cy="432.17" r="4.5" fill="#d97706" fill-opacity="0.9"/>
<circle cx="398.57" cy="434.67" r="4.5" fill="#d97706" fill-opacity="0.9"/>
<circle cx="415.71" cy="427.26" r="4.5" fill="#d97706" fill-opacity="0.9"/>
<circle cx="432.86" cy="370.35" r="4.5" fill="#d97706" fill-opacity="0.9"/>
<circle cx="450.00" cy="431.59" r="4.5" fill="#d97706" fill-opacity="0.9"/>
<circle cx="467.14" cy="372.90" r="4.5" fill="#d97706" fill-opacity="0.9"/>
<circle cx="484.29" cy="431.02" r="4.5" fill="#d97706" fill-opacity="0.9"/>
<circle cx="501.43" cy="422.61" r="4.5" fill="#d97706" fill-opacity="0.9"/>
<circle cx="518.57" cy="433.42" r="4.5" fill="#d97706" fill-opacity="0.9"/>
<circle cx="535.71" cy="431.70" r="4.5" fill="#d97706" fill-opacity="0.9"/>
<circle cx="552.86" cy="434.80" r="4.5" fill="#d97706" fill-opacity="0.9"/>
<circle cx="570.00" cy="364.82" r="4.5" fill="#d97706" fill-opacity="0.9"/>
<circle cx="587.14" cy="435.15" r="4.5" fill="#d97706" fill-opacity="0.9"/>
<circle cx="604.29" cy="433.40" r="4.5" fill="#d97706" fill-opacity="0.9"/>
<circle cx="621.43" cy="432.63" r="4.5" fill="#d97706" fill-opacity="0.9"/>
<circle cx="638.57" cy="433.44" r="4.5" fill="#d97706" fill-opacity="0.9"/>
<circle cx="655.71" cy="408.99" r="4.5" fill="#d97706" fill-opacity="0.9"/>
<circle cx="672.86" cy="393.22" r="4.5" fill="#d97706" fill-opacity="0.9"/>
<circle cx="690.00" cy="432.51" r="4.5" fill="#d97706" fill-opacity="0.9"/>
<circle cx="707.14" cy="421.05" r="4.5" fill="#d97706" fill-opacity="0.9"/>
<circle cx="724.29" cy="434.15" r="4.5" fill="#d97706" fill-opacity="0.9"/>
<circle cx="741.43" cy="435.01" r="4.5" fill="#d97706" fill-opacity="0.9"/>
<circle cx="758.57" cy="433.90" r="4.5" fill="#d97706" fill-opacity="0.9"/>
<circle cx="775.71" cy="435.34" r="4.5" fill="#d97706" fill-opacity="0.9"/>
<circle cx="792.86" cy="425.11" r="4.5" fill="#d97706" fill-opacity="0.9"/>
<circle cx="810.00" cy="435.16" r="4.5" fill="#d97706" fill-opacity="0.9"/>
<circle cx="827.14" cy="435.10" r="4.5" fill="#d97706" fill-opacity="0.9"/>
<circle cx="844.29" cy="434.63" r="4.5" fill="#d97706" fill-opacity="0.9"/>
<circle cx="861.43" cy="435.79" r="4.5" fill="#d97706" fill-opacity="0.9"/>
<circle cx="878.57" cy="435.54" r="4.5" fill="#d97706" fill-opacity="0.9"/>
<circle cx="895.71" cy="434.64" r="4.5" fill="#d97706" fill-opacity="0.9"/>
<circle cx="912.86" cy="435.39" r="4.5" fill="#d97706" fill-opacity="0.9"/>
<circle cx="930.00" cy="434.79" r="4.5" fill="#d97706" fill-opacity="0.9"/>
<rect x="90" y="32" width="18" height="6" fill="#d97706"/>
<text x="114" y="38" font-size="13" fill="#333333">val</text>
<polyline fill="none" stroke="#059669" stroke-width="3" points="90.00,94.17 107.14,352.22 124.29,317.92 141.43,429.36 158.57,427.38 175.71,426.41 192.86,429.53 210.00,415.69 227.14,369.06 244.29,426.47 261.43,431.67 278.57,427.45 295.71,429.71 312.86,427.64 330.00,417.91 347.14,431.83 364.29,431.70 381.43,432.50 398.57,434.51 415.71,428.18 432.86,371.74 450.00,431.41 467.14,373.12 484.29,430.91 501.43,423.29 518.57,433.76 535.71,431.48 552.86,434.79 570.00,364.46 587.14,435.18 604.29,433.50 621.43,432.30 638.57,433.59 655.71,410.86 672.86,393.39 690.00,432.37 707.14,421.18 724.29,434.17 741.43,434.99 758.57,433.76 775.71,435.35 792.86,425.17 810.00,435.42 827.14,435.23 844.29,435.06 861.43,435.58 878.57,435.83 895.71,434.66 912.86,435.40 930.00,434.77"/>
<circle cx="90.00" cy="94.17" r="4.5" fill="#059669" fill-opacity="0.9"/>
<circle cx="107.14" cy="352.22" r="4.5" fill="#059669" fill-opacity="0.9"/>
<circle cx="124.29" cy="317.92" r="4.5" fill="#059669" fill-opacity="0.9"/>
<circle cx="141.43" cy="429.36" r="4.5" fill="#059669" fill-opacity="0.9"/>
<circle cx="158.57" cy="427.38" r="4.5" fill="#059669" fill-opacity="0.9"/>
<circle cx="175.71" cy="426.41" r="4.5" fill="#059669" fill-opacity="0.9"/>
<circle cx="192.86" cy="429.53" r="4.5" fill="#059669" fill-opacity="0.9"/>
<circle cx="210.00" cy="415.69" r="4.5" fill="#059669" fill-opacity="0.9"/>
<circle cx="227.14" cy="369.06" r="4.5" fill="#059669" fill-opacity="0.9"/>
<circle cx="244.29" cy="426.47" r="4.5" fill="#059669" fill-opacity="0.9"/>
<circle cx="261.43" cy="431.67" r="4.5" fill="#059669" fill-opacity="0.9"/>
<circle cx="278.57" cy="427.45" r="4.5" fill="#059669" fill-opacity="0.9"/>
<circle cx="295.71" cy="429.71" r="4.5" fill="#059669" fill-opacity="0.9"/>
<circle cx="312.86" cy="427.64" r="4.5" fill="#059669" fill-opacity="0.9"/>
<circle cx="330.00" cy="417.91" r="4.5" fill="#059669" fill-opacity="0.9"/>
<circle cx="347.14" cy="431.83" r="4.5" fill="#059669" fill-opacity="0.9"/>
<circle cx="364.29" cy="431.70" r="4.5" fill="#059669" fill-opacity="0.9"/>
<circle cx="381.43" cy="432.50" r="4.5" fill="#059669" fill-opacity="0.9"/>
<circle cx="398.57" cy="434.51" r="4.5" fill="#059669" fill-opacity="0.9"/>
<circle cx="415.71" cy="428.18" r="4.5" fill="#059669" fill-opacity="0.9"/>
<circle cx="432.86" cy="371.74" r="4.5" fill="#059669" fill-opacity="0.9"/>
<circle cx="450.00" cy="431.41" r="4.5" fill="#059669" fill-opacity="0.9"/>
<circle cx="467.14" cy="373.12" r="4.5" fill="#059669" fill-opacity="0.9"/>
<circle cx="484.29" cy="430.91" r="4.5" fill="#059669" fill-opacity="0.9"/>
<circle cx="501.43" cy="423.29" r="4.5" fill="#059669" fill-opacity="0.9"/>
<circle cx="518.57" cy="433.76" r="4.5" fill="#059669" fill-opacity="0.9"/>
<circle cx="535.71" cy="431.48" r="4.5" fill="#059669" fill-opacity="0.9"/>
<circle cx="552.86" cy="434.79" r="4.5" fill="#059669" fill-opacity="0.9"/>
<circle cx="570.00" cy="364.46" r="4.5" fill="#059669" fill-opacity="0.9"/>
<circle cx="587.14" cy="435.18" r="4.5" fill="#059669" fill-opacity="0.9"/>
<circle cx="604.29" cy="433.50" r="4.5" fill="#059669" fill-opacity="0.9"/>
<circle cx="621.43" cy="432.30" r="4.5" fill="#059669" fill-opacity="0.9"/>
<circle cx="638.57" cy="433.59" r="4.5" fill="#059669" fill-opacity="0.9"/>
<circle cx="655.71" cy="410.86" r="4.5" fill="#059669" fill-opacity="0.9"/>
<circle cx="672.86" cy="393.39" r="4.5" fill="#059669" fill-opacity="0.9"/>
<circle cx="690.00" cy="432.37" r="4.5" fill="#059669" fill-opacity="0.9"/>
<circle cx="707.14" cy="421.18" r="4.5" fill="#059669" fill-opacity="0.9"/>
<circle cx="724.29" cy="434.17" r="4.5" fill="#059669" fill-opacity="0.9"/>
<circle cx="741.43" cy="434.99" r="4.5" fill="#059669" fill-opacity="0.9"/>
<circle cx="758.57" cy="433.76" r="4.5" fill="#059669" fill-opacity="0.9"/>
<circle cx="775.71" cy="435.35" r="4.5" fill="#059669" fill-opacity="0.9"/>
<circle cx="792.86" cy="425.17" r="4.5" fill="#059669" fill-opacity="0.9"/>
<circle cx="810.00" cy="435.42" r="4.5" fill="#059669" fill-opacity="0.9"/>
<circle cx="827.14" cy="435.23" r="4.5" fill="#059669" fill-opacity="0.9"/>
<circle cx="844.29" cy="435.06" r="4.5" fill="#059669" fill-opacity="0.9"/>
<circle cx="861.43" cy="435.58" r="4.5" fill="#059669" fill-opacity="0.9"/>
<circle cx="878.57" cy="435.83" r="4.5" fill="#059669" fill-opacity="0.9"/>
<circle cx="895.71" cy="434.66" r="4.5" fill="#059669" fill-opacity="0.9"/>
<circle cx="912.86" cy="435.40" r="4.5" fill="#059669" fill-opacity="0.9"/>
<circle cx="930.00" cy="434.77" r="4.5" fill="#059669" fill-opacity="0.9"/>
<rect x="270" y="32" width="18" height="6" fill="#059669"/>
<text x="294" y="38" font-size="13" fill="#333333">test</text>
</svg>