<svg xmlns="http://www.w3.org/2000/svg" width="960" height="540">
<rect width="100%" height="100%" fill="#ffffff"/>
<text x="480.0" y="30" font-size="22" text-anchor="middle" fill="#111111">Loss</text>
<text x="20" y="270.0" font-size="16" transform="rotate(-90 20,270.0)" text-anchor="middle" fill="#333333">Loss</text>
<text x="480.0" y="520" font-size="16" text-anchor="middle" fill="#333333">Epoch</text>
<line x1="90" y1="60" x2="90" y2="470" stroke="#333333" stroke-width="2"/>
<line x1="90" y1="470" x2="930" y2="470" stroke="#333333" stroke-width="2"/>
<line x1="90" y1="470.00" x2="930" y2="470.00" stroke="#e5e7eb" stroke-width="1"/>
<text x="80" y="475.00" font-size="12" text-anchor="end" fill="#555555">-1.2718</text>
<line x1="90" y1="367.50" x2="930" y2="367.50" stroke="#e5e7eb" stroke-width="1"/>
<text x="80" y="372.50" font-size="12" text-anchor="end" fill="#555555">2.6539</text>
<line x1="90" y1="265.00" x2="930" y2="265.00" stroke="#e5e7eb" stroke-width="1"/>
<text x="80" y="270.00" font-size="12" text-anchor="end" fill="#555555">6.5797</text>
<line x1="90" y1="162.50" x2="930" y2="162.50" stroke="#e5e7eb" stroke-width="1"/>
<text x="80" y="167.50" font-size="12" text-anchor="end" fill="#555555">10.5054</text>
<line x1="90" y1="60.00" x2="930" y2="60.00" stroke="#e5e7eb" stroke-width="1"/>
<text x="80" y="65.00" font-size="12" text-anchor="end" fill="#555555">14.4311</text>
<line x1="90.00" y1="60" x2="90.00" y2="470" stroke="#f3f4f6" stroke-width="1"/>
<text x="90.00" y="492" font-size="12" text-anchor="middle" fill="#555555">1</text>
<line x1="107.14" y1="60" x2="107.14" y2="470" stroke="#f3f4f6" stroke-width="1"/>
<text x="107.14" y="492" font-size="12" text-anchor="middle" fill="#555555">2</text>
<line x1="124.29" y1="60" x2="124.29" y2="470" stroke="#f3f4f6" stroke-width="1"/>
<text x="124.29" y="492" font-size="12" text-anchor="middle" fill="#555555">3</text>
<line x1="141.43" y1="60" x2="141.43" y2="470" stroke="#f3f4f6" stroke-width="1"/>
<text x="141.43" y="492" font-size="12" text-anchor="middle" fill="#555555">4</text>
<line x1="158.57" y1="60" x2="158.57" y2="470" stroke="#f3f4f6" stroke-width="1"/>
<text x="158.57" y="492" font-size="12" text-anchor="middle" fill="#555555">5</text>
<line x1="175.71" y1="60" x2="175.71" y2="470" stroke="#f3f4f6" stroke-width="1"/>
<text x="175.71" y="492" font-size="12" text-anchor="middle" fill="#555555">6</text>
<line x1="192.86" y1="60" x2="192.86" y2="470" stroke="#f3f4f6" stroke-width="1"/>
<text x="192.86" y="492" font-size="12" text-anchor="middle" fill="#555555">7</text>
<line x1="210.00" y1="60" x2="210.00" y2="470" stroke="#f3f4f6" stroke-width="1"/>
<text x="210.00" y="492" font-size="12" text-anchor="middle" fill="#555555">8</text>
<line x1="227.14" y1="60" x2="227.14" y2="470" stroke="#f3f4f6" stroke-width="1"/>
<text x="227.14" y="492" font-size="12" text-anchor="middle" fill="#555555">9</text>
<line x1="244.29" y1="60" x2="244.29" y2="470" stroke="#f3f4f6" stroke-width="1"/>
<text x="244.29" y="492" font-size="12" text-anchor="middle" fill="#555555">10</text>
<line x1="261.43" y1="60" x2="261.43" y2="470" stroke="#f3f4f6" stroke-width="1"/>
<text x="261.43" y="492" font-size="12" text-anchor="middle" fill="#555555">11</text>
<line x1="278.57" y1="60" x2="278.57" y2="470" stroke="#f3f4f6" stroke-width="1"/>
<text x="278.57" y="492" font-size="12" text-anchor="middle" fill="#555555">12</text>
<line x1="295.71" y1="60" x2="295.71" y2="470" stroke="#f3f4f6" stroke-width="1"/>
<text x="295.71" y="492" font-size="12" text-anchor="middle" fill="#555555">13</text>
<line x1="312.86" y1="60" x2="312.86" y2="470" stroke="#f3f4f6" stroke-width="1"/>
<text x="312.86" y="492" font-size="12" text-anchor="middle" fill="#555555">14</text>
<line x1="330.00" y1="60" x2="330.00" y2="470" stroke="#f3f4f6" stroke-width="1"/>
<text x="330.00" y="492" font-size="12" text-anchor="middle" fill="#555555">15</text>
<line x1="347.14" y1="60" x2="347.14" y2="470" stroke="#f3f4f6" stroke-width="1"/>
<text x="347.14" y="492" font-size="12" text-anchor="middle" fill="#555555">16</text>
<line x1="364.29" y1="60" x2="364.29" y2="470" stroke="#f3f4f6" stroke-width="1"/>
<text x="364.29" y="492" font-size="12" text-anchor="middle" fill="#555555">17</text>
<line x1="381.43" y1="60" x2="381.43" y2="470" stroke="#f3f4f6" stroke-width="1"/>
<text x="381.43" y="492" font-size="12" text-anchor="middle" fill="#555555">18</text>
<line x1="398.57" y1="60" x2="398.57" y2="470" stroke="#f3f4f6" stroke-width="1"/>
<text x="398.57" y="492" font-size="12" text-anchor="middle" fill="#555555">19</text>
<line x1="415.71" y1="60" x2="415.71" y2="470" stroke="#f3f4f6" stroke-width="1"/>
<text x="415.71" y="492" font-size="12" text-anchor="middle" fill="#555555">20</text>
<line x1="432.86" y1="60" x2="432.86" y2="470" stroke="#f3f4f6" stroke-width="1"/>
<text x="432.86" y="492" font-size="12" text-anchor="middle" fill="#555555">21</text>
<line x1="450.00" y1="60" x2="450.00" y2="470" stroke="#f3f4f6" stroke-width="1"/>
<text x="450.00" y="492" font-size="12" text-anchor="middle" fill="#555555">22</text>
<line x1="467.14" y1="60" x2="467.14" y2="470" stroke="#f3f4f6" stroke-width="1"/>
<text x="467.14" y="492" font-size="12" text-anchor="middle" fill="#555555">23</text>
<line x1="484.29" y1="60" x2="484.29" y2="470" stroke="#f3f4f6" stroke-width="1"/>
<text x="484.29" y="492" font-size="12" text-anchor="middle" fill="#555555">24</text>
<line x1="501.43" y1="60" x2="501.43" y2="470" stroke="#f3f4f6" stroke-width="1"/>
<text x="501.43" y="492" font-size="12" text-anchor="middle" fill="#555555">25</text>
<line x1="518.57" y1="60" x2="518.57" y2="470" stroke="#f3f4f6" stroke-width="1"/>
<text x="518.57" y="492" font-size="12" text-anchor="middle" fill="#555555">26</text>
<line x1="535.71" y1="60" x2="535.71" y2="470" stroke="#f3f4f6" stroke-width="1"/>
<text x="535.71" y="492" font-size="12" text-anchor="middle" fill="#555555">27</text>
<line x1="552.86" y1="60" x2="552.86" y2="470" stroke="#f3f4f6" stroke-width="1"/>
<text x="552.86" y="492" font-size="12" text-anchor="middle" fill="#555555">28</text>
<line x1="570.00" y1="60" x2="570.00" y2="470" stroke="#f3f4f6" stroke-width="1"/>
<text x="570.00" y="492" font-size="12" text-anchor="middle" fill="#555555">29</text>
<line x1="587.14" y1="60" x2="587.14" y2="470" stroke="#f3f4f6" stroke-width="1"/>
<text x="587.14" y="492" font-size="12" text-anchor="middle" fill="#555555">30</text>
<line x1="604.29" y1="60" x2="604.29" y2="470" stroke="#f3f4f6" stroke-width="1"/>
<text x="604.29" y="492" font-size="12" text-anchor="middle" fill="#555555">31</text>
<line x1="621.43" y1="60" x2="621.43" y2="470" stroke="#f3f4f6" stroke-width="1"/>
<text x="621.43" y="492" font-size="12" text-anchor="middle" fill="#555555">32</text>
<line x1="638.57" y1="60" x2="638.57" y2="470" stroke="#f3f4f6" stroke-width="1"/>
<text x="638.57" y="492" font-size="12" text-anchor="middle" fill="#555555">33</text>
<line x1="655.71" y1="60" x2="655.71" y2="470" stroke="#f3f4f6" stroke-width="1"/>
<text x="655.71" y="492" font-size="12" text-anchor="middle" fill="#555555">34</text>
<line x1="672.86" y1="60" x2="672.86" y2="470" stroke="#f3f4f6" stroke-width="1"/>
<text x="672.86" y="492" font-size="12" text-anchor="middle" fill="#555555">35</text>
<line x1="690.00" y1="60" x2="690.00" y2="470" stroke="#f3f4f6" stroke-width="1"/>
<text x="690.00" y="492" font-size="12" text-anchor="middle" fill="#555555">36</text>
<line x1="707.14" y1="60" x2="707.14" y2="470" stroke="#f3f4f6" stroke-width="1"/>
<text x="707.14" y="492" font-size="12" text-anchor="middle" fill="#555555">37</text>
<line x1="724.29" y1="60" x2="724.29" y2="470" stroke="#f3f4f6" stroke-width="1"/>
<text x="724.29" y="492" font-size="12" text-anchor="middle" fill="#555555">38</text>
<line x1="741.43" y1="60" x2="741.43" y2="470" stroke="#f3f4f6" stroke-width="1"/>
<text x="741.43" y="492" font-size="12" text-anchor="middle" fill="#555555">39</text>
<line x1="758.57" y1="60" x2="758.57" y2="470" stroke="#f3f4f6" stroke-width="1"/>
<text x="758.57" y="492" font-size="12" text-anchor="middle" fill="#555555">40</text>
<line x1="775.71" y1="60" x2="775.71" y2="470" stroke="#f3f4f6" stroke-width="1"/>
<text x="775.71" y="492" font-size="12" text-anchor="middle" fill="#555555">41</text>
<line x1="792.86" y1="60" x2="792.86" y2="470" stroke="#f3f4f6" stroke-width="1"/>
<text x="792.86" y="492" font-size="12" text-anchor="middle" fill="#555555">42</text>
<line x1="810.00" y1="60" x2="810.00" y2="470" stroke="#f3f4f6" stroke-width="1"/>
<text x="810.00" y="492" font-size="12" text-anchor="middle" fill="#555555">43</text>
<line x1="827.14" y1="60" x2="827.14" y2="470" stroke="#f3f4f6" stroke-width="1"/>
<text x="827.14" y="492" font-size="12" text-anchor="middle" fill="#555555">44</text>
<line x1="844.29" y1="60" x2="844.29" y2="470" stroke="#f3f4f6" stroke-width="1"/>
<text x="844.29" y="492" font-size="12" text-anchor="middle" fill="#555555">45</text>
<line x1="861.43" y1="60" x2="861.43" y2="470" stroke="#f3f4f6" stroke-width="1"/>
<text x="861.43" y="492" font-size="12" text-anchor="middle" fill="#555555">46</text>
<line x1="878.57" y1="60" x2="878.57" y2="470" stroke="#f3f4f6" stroke-width="1"/>
<text x="878.57" y="492" font-size="12" text-anchor="middle" fill="#555555">47</text>
<line x1="895.71" y1="60" x2="895.71" y2="470" stroke="#f3f4f6" stroke-width="1"/>
<text x="895.71" y="492" font-size="12" text-anchor="middle" fill="#555555">48</text>
<line x1="912.86" y1="60" x2="912.86" y2="470" stroke="#f3f4f6" stroke-width="1"/>
<text x="912.86" y="492" font-size="12" text-anchor="middle" fill="#555555">49</text>
<line x1="930.00" y1="60" x2="930.00" y2="470" stroke="#f3f4f6" stroke-width="1"/>
<text x="930.00" y="492" font-size="12" text-anchor="middle" fill="#555555">50</text>
<polyline fill="none" stroke="#1d4ed8" stroke-width="3" points="90.00,188.60 107.14,408.15 124.29,422.42 141.43,425.80 158.57,428.44 175.71,429.17 192.86,429.89 210.00,430.61 227.14,430.66 244.29,431.55 261.43,431.86 278.57,432.13 295.71,432.34 312.86,432.71 330.00,432.59 347.14,433.25 364.29,433.13 381.43,433.86 398.57,433.72 415.71,433.60 432.86,434.08 450.00,434.18 467.14,434.44 484.29,434.39 501.43,434.52 518.57,434.63 535.71,434.75 552.86,434.92 570.00,435.06 587.14,434.91 604.29,434.99 621.43,435.13 638.57,435.33 655.71,435.14 672.86,435.22 690.00,435.27 707.14,435.18 724.29,435.27 741.43,435.77 758.57,435.36 775.71,435.69 792.86,435.50 810.00,435.53 827.14,435.77 844.29,435.47 861.43,435.74 878.57,435.75 895.71,435.83 912.86,435.64 930.00,435.79"/>
<circle cx="90.00" cy="188.60" r="4.5" fill="#1d4ed8" fill-opacity="0.9"/>
<circle cx="107.14" cy="408.15" r="4.5" fill="#1d4ed8" fill-opacity="0.9"/>
<circle cx="124.29" cy="422.42" r="4.5" fill="#1d4ed8" fill-opacity="0.9"/>
<circle cx="141.43" cy="425.80" r="4.5" fill="#1d4ed8" fill-opacity="0.9"/>
<circle cx="158.57" cy="428.44" r="4.5" fill="#1d4ed8" fill-opacity="0.9"/>
<circle cx="175.71" cy="429.17" r="4.5" fill="#1d4ed8" fill-opacity="0.9"/>
<circle cx="192.86" cy="429.89" r="4.5" fill="#1d4ed8" fill-opacity="0.9"/>
<circle cx="210.00" cy="430.61" r="4.5" fill="#1d4ed8" fill-opacity="0.9"/>
<circle cx="227.14" cy="430.66" r="4.5" fill="#1d4ed8" fill-opacity="0.9"/>
<circle cx="244.29" cy="431.55" r="4.5" fill="#1d4ed8" fill-opacity="0.9"/>
<circle cx="261.43" cy="431.86" r="4.5" fill="#1d4ed8" fill-opacity="0.9"/>
<circle cx="278.57" cy="432.13" r="4.5" fill="#1d4ed8" fill-opacity="0.9"/>
<circle cx="295.71" cy="432.34" r="4.5" fill="#1d4ed8" fill-opacity="0.9"/>
<circle cx="312.86" cy="432.71" r="4.5" fill="#1d4ed8" fill-opacity="0.9"/>
<circle cx="330.00" cy="432.59" r="4.5" fill="#1d4ed8" fill-opacity="0.9"/>
<circle cx="347.14" cy="433.25" r="4.5" fill="#1d4ed8" fill-opacity="0.9"/>
<circle cx="364.29" cy="433.13" r="4.5" fill="#1d4ed8" fill-opacity="0.9"/>
<circle cx="381.43" cy="433.86" r="4.5" fill="#1d4ed8" fill-opacity="0.9"/>
<circle cx="398.57" cy="433.72" r="4.5" fill="#1d4ed8" fill-opacity="0.9"/>
<circle cx="415.71" cy="433.60" r="4.5" fill="#1d4ed8" fill-opacity="0.9"/>
<circle cx="432.86" cy="434.08" r="4.5" fill="#1d4ed8" fill-opacity="0.9"/>
<circle cx="450.00" cy="434.18" r="4.5" fill="#1d4ed8" fill-opacity="0.9"/>
<circle cx="467.14" cy="434.44" r="4.5" fill="#1d4ed8" fill-opacity="0.9"/>
<circle cx="484.29" cy="434.39" r="4.5" fill="#1d4ed8" fill-opacity="0.9"/>
<circle cx="501.43" cy="434.52" r="4.5" fill="#1d4ed8" fill-opacity="0.9"/>
<circle cx="518.57" cy="434.63" r="4.5" fill="#1d4ed8" fill-opacity="0.9"/>
<circle cx="535.71" cy="434.75" r="4.5" fill="#1d4ed8" fill-opacity="0.9"/>
<circle cx="552.86" cy="434.92" r="4.5" fill="#1d4ed8" fill-opacity="0.9"/>
<circle cx="570.00" cy="435.06" r="4.5" fill="#1d4ed8" fill-opacity="0.9"/>
<circle cx="587.14" cy="434.91" r="4.5" fill="#1d4ed8" fill-opacity="0.9"/>
<circle cx="604.29" cy="434.99" r="4.5" fill="#1d4ed8" fill-opacity="0.9"/>
<circle cx="621.43" cy="435.13" r="4.5" fill="#1d4ed8" fill-opacity="0.9"/>
<circle cx="638.57" cy="435.33" r="4.5" fill="#1d4ed8" fill-opacity="0.9"/>
<circle cx="655.71" cy="435.14" r="4.5" fill="#1d4ed8" fill-opacity="0.9"/>
<circle cx="672.86" cy="435.22" r="4.5" fill="#1d4ed8" fill-opacity="0.9"/>
<circle cx="690.00" cy="435.27" r="4.5" fill="#1d4ed8" fill-opacity="0.9"/>
<circle cx="707.14" cy="435.18" r="4.5" fill="#1d4ed8" fill-opacity="0.9"/>
<circle cx="724.29" cy="435.27" r="4.5" fill="#1d4ed8" fill-opacity="0.9"/>
<circle cx="741.43" cy="435.77" r="4.5" fill="#1d4ed8" fill-opacity="0.9"/>
<circle cx="758.57" cy="435.36" r="4.5" fill="#1d4ed8" fill-opacity="0.9"/>
<circle cx="775.71" cy="435.69" r="4.5" fill="#1d4ed8" fill-opacity="0.9"/>
<circle cx="792.86" cy="435.50" r="4.5" fill="#1d4ed8" fill-opacity="0.9"/>
<circle cx="810.00" cy="435.53" r="4.5" fill="#1d4ed8" fill-opacity="0.9"/>
<circle cx="827.14" cy="435.77" r="4.5" fill="#1d4ed8" fill-opacity="0.9"/>
<circle cx="844.29" cy="435.47" r="4.5" fill="#1d4ed8" fill-opacity="0.9"/>
<circle cx="861.43" cy="435.74" r="4.5" fill="#1d4ed8" fill-opacity="0.9"/>
<circle cx="878.57" cy="435.75" r="4.5" fill="#1d4ed8" fill-opacity="0.9"/>
<circle cx="895.71" cy="435.83" r="4.5" fill="#1d4ed8" fill-opacity="0.9"/>
<circle cx="912.86" cy="435.64" r="4.5" fill="#1d4ed8" fill-opacity="0.9"/>
<circle cx="930.00" cy="435.79" r="4.5" fill="#1d4ed8" fill-opacity="0.9"/>
<rect x="90" y="32" width="18" height="6" fill="#1d4ed8"/>
<text x="114" y="38" font-size="13" fill="#333333">train</text>
<polyline fill="none" stroke="#d97706" stroke-width="3" points="90.00,94.81 107.14,369.10 124.29,305.67 141.43,428.20 158.57,426.56 175.71,425.65 192.86,427.46 210.00,414.63 227.14,345.20 244.29,424.83 261.43,428.62 278.57,424.77 295.71,426.68 312.86,424.09 330.00,411.21 347.14,428.08 364.29,428.17 381.43,427.91 398.57,430.39 415.71,422.57 432.86,340.53 450.00,426.06 467.14,325.64 484.29,425.11 501.43,410.16 518.57,428.51 535.71,424.69 552.86,430.19 570.00,311.36 587.14,429.91 604.29,428.50 621.43,426.30 638.57,427.80 655.71,394.83 672.86,365.73 690.00,425.04 707.14,409.78 724.29,427.70 741.43,429.05 758.57,427.99 775.71,429.34 792.86,414.90 810.00,429.34 827.14,428.74 844.29,428.67 861.43,429.15 878.57,428.87 895.71,428.29 912.86,429.60 930.00,428.33"/>
<circle cx="90.00" cy="94.81" r="4.5" fill="#d97706" fill-opacity="0.9"/>
<circle cx="107.14" cy="369.10" r="4.5" fill="#d97706" fill-opacity="0.9"/>
<circle cx="124.29" cy="305.67" r="4.5" fill="#d97706" fill-opacity="0.9"/>
<circle cx="141.43" cy="428.20" r="4.5" fill="#d97706" fill-opacity="0.9"/>
<circle cx="158.57" cy="426.56" r="4.5" fill="#d97706" fill-opacity="0.9"/>
<circle cx="175.71" cy="425.65" r="4.5" fill="#d97706" fill-opacity="0.9"/>
<circle cx="192.86" cy="427.46" r="4.5" fill="#d97706" fill-opacity="0.9"/>
<circle cx="210.00" cy="414.63" r="4.5" fill="#d97706" fill-opacity="0.9"/>
<circle cx="227.14" cy="345.20" r="4.5" fill="#d97706" fill-opacity="0.9"/>
<circle cx="244.29" cy="424.83" r="4.5" fill="#d97706" fill-opacity="0.9"/>
<circle cx="261.43" cy="428.62" r="4.5" fill="#d97706" fill-opacity="0.9"/>
<circle cx="278.57" cy="424.77" r="4.5" fill="#d97706" fill-opacity="0.9"/>
<circle cx="295.71" cy="426.68" r="4.5" fill="#d97706" fill-opacity="0.9"/>
<circle cx="312.86" cy="424.09" r="4.5" fill="#d97706" fill-opacity="0.9"/>
<circle cx="330.00" cy="411.21" r="4.5" fill="#d97706" fill-opacity="0.9"/>
<circle cx="347.14" cy="428.08" r="4.5" fill="#d97706" fill-opacity="0.9"/>
<circle cx="364.29" cy="428.17" r="4.5" fill="#d97706" fill-opacity="0.9"/>
<circle cx="381.43" cy="427.91" r="4.5" fill="#d97706" fill-opacity="0.9"/>
<circle cx="398.57" cy="430.39" r="4.5" fill="#d97706" fill-opacity="0.9"/>
<circle cx="415.71" cy="422.57" r="4.5" fill="#d97706" fill-opacity="0.9"/>
<circle cx="432.86" cy="340.53" r="4.5" fill="#d97706" fill-opacity="0.9"/>
<circle cx="450.00" cy="426.06" r="4.5" fill="#d97706" fill-opacity="0.9"/>
<circle cx="467.14" cy="325.64" r="4.5" fill="#d97706" fill-opacity="0.9"/>
<circle cx="484.29" cy="425.11" r="4.5" fill="#d97706" fill-opacity="0.9"/>
<circle cx="501.43" cy="410.16" r="4.5" fill="#d97706" fill-opacity="0.9"/>
<circle cx="518.57" cy="428.51" r="4.5" fill="#d97706" fill-opacity="0.9"/>
<circle cx="535.71" cy="424.69" r="4.5" fill="#d97706" fill-opacity="0.9"/>
<circle cx="552.86" cy="430.19" r="4.5" fill="#d97706" fill-opacity="0.9"/>
<circle cx="570.00" cy="311.36" r="4.5" fill="#d97706" fill-opacity="0.9"/>
<circle cx="587.14" cy="429.91" r="4.5" fill="#d97706" fill-opacity="0.9"/>
<circle cx="604.29" cy="428.50" r="4.5" fill="#d97706" fill-opacity="0.9"/>
<circle cx="621.43" cy="426.30" r="4.5" fill="#d97706" fill-opacity="0.9"/>
<circle cx="638.57" cy="427.80" r="4.5" fill="#d97706" fill-opacity="0.9"/>
<circle cx="655.71" cy="394.83" r="4.5" fill="#d97706" fill-opacity="0.9"/>
<circle cx="672.86" cy="365.73" r="4.5" fill="#d97706" fill-opacity="0.9"/>
<circle cx="690.00" cy="425.04" r="4.5" fill="#d97706" fill-opacity="0.9"/>
<circle cx="707.14" cy="409.78" r="4.5" fill="#d97706" fill-opacity="0.9"/>
<circle cx="724.29" cy="427.70" r="4.5" fill="#d97706" fill-opacity="0.9"/>
<circle cx="741.43" cy="429.05" r="4.5" fill="#d97706" fill-opacity="0.9"/>
<circle cx="758.57" cy="427.99" r="4.5" fill="#d97706" fill-opacity="0.9"/>
<circle cx="775.71" cy="429.34" r="4.5" fill="#d97706" fill-opacity="0.9"/>
<circle cx="792.86" cy="414.90" r="4.5" fill="#d97706" fill-opacity="0.9"/>
<circle cx="810.00" cy="429.34" r="4.5" fill="#d97706" fill-opacity="0.9"/>
<circle cx="827.14" cy="428.74" r="4.5" fill="#d97706" fill-opacity="0.9"/>
<circle cx="844.29" cy="428.67" r="4.5" fill="#d97706" fill-opacity="0.9"/>
<circle cx="861.43" cy="429.15" r="4.5" fill="#d97706" fill-opacity="0.9"/>
<circle cx="878.57" cy="428.87" r="4.5" fill="#d97706" fill-opacity="0.9"/>
<circle cx="895.71" cy="428.29" r="4.5" fill="#d97706" fill-opacity="0.9"/>
<circle cx="912.86" cy="429.60" r="4.5" fill="#d97706" fill-opacity="0.9"/>
<circle cx="930.00" cy="428.33" r="4.5" fill="#d97706" fill-opacity="0.9"/>
<rect x="270" y="32" width="18" height="6" fill="#d97706"/>
<text x="294" y="38" font-size="13" fill="#333333">val</text>
<polyline fill="none" stroke="#059669" stroke-width="3" points="90.00,94.17 107.14,369.00 124.29,307.21 141.43,427.86 158.57,426.50 175.71,425.62 192.86,427.22 210.00,415.06 227.14,346.72 244.29,423.94 261.43,428.56 278.57,424.76 295.71,426.76 312.86,423.87 330.00,412.17 347.14,428.14 364.29,428.15 381.43,428.52 398.57,430.78 415.71,423.20 432.86,342.19 450.00,426.29 467.14,327.80 484.29,425.54 501.43,411.72 518.57,428.76 535.71,425.15 552.86,430.34 570.00,314.07 587.14,430.34 604.29,428.42 621.43,425.89 638.57,428.15 655.71,398.11 672.86,367.00 690.00,425.29 707.14,410.66 724.29,428.36 741.43,428.95 758.57,428.68 775.71,429.72 792.86,414.36 810.00,429.82 827.14,428.98 844.29,428.80 861.43,429.43 878.57,429.06 895.71,428.48 912.86,429.68 930.00,428.12"/>
<circle cx="90.00" cy="94.17" r="4.5" fill="#059669" fill-opacity="0.9"/>
<circle cx="107.14" cy="369.00" r="4.5" fill="#059669" fill-opacity="0.9"/>
<circle cx="124.29" cy="307.21" r="4.5" fill="#059669" fill-opacity="0.9"/>
<circle cx="141.43" cy="427.86" r="4.5" fill="#059669" fill-opacity="0.9"/>
<circle cx="158.57" cy="426.50" r="4.5" fill="#059669" fill-opacity="0.9"/>
<circle cx="175.71" cy="425.62" r="4.5" fill="#059669" fill-opacity="0.9"/>
<circle cx="192.86" cy="427.22" r="4.5" fill="#059669" fill-opacity="0.9"/>
<circle cx="210.00" cy="415.06" r="4.5" fill="#059669" fill-opacity="0.9"/>
<circle cx="227.14" cy="346.72" r="4.5" fill="#059669" fill-opacity="0.9"/>
<circle cx="244.29" cy="423.94" r="4.5" fill="#059669" fill-opacity="0.9"/>
<circle cx="261.43" cy="428.56" r="4.5" fill="#059669" fill-opacity="0.9"/>
<circle cx="278.57" cy="424.76" r="4.5" fill="#059669" fill-opacity="0.9"/>
<circle cx="295.71" cy="426.76" r="4.5" fill="#059669" fill-opacity="0.9"/>
<circle cx="312.86" cy="423.87" r="4.5" fill="#059669" fill-opacity="0.9"/>
<circle cx="330.00" cy="412.17" r="4.5" fill="#059669" fill-opacity="0.9"/>
<circle cx="347.14" cy="428.14" r="4.5" fill="#059669" fill-opacity="0.9"/>
<circle cx="364.29" cy="428.15" r="4.5" fill="#059669" fill-opacity="0.9"/>
<circle cx="381.43" cy="428.52" r="4.5" fill="#059669" fill-opacity="0.9"/>
<circle cx="398.57" cy="430.78" r="4.5" fill="#059669" fill-opacity="0.9"/>
<circle cx="415.71" cy="423.20" r="4.5" fill="#059669" fill-opacity="0.9"/>
<circle cx="432.86" cy="342.19" r="4.5" fill="#059669" fill-opacity="0.9"/>
<circle cx="450.00" cy="426.29" r="4.5" fill="#059669" fill-opacity="0.9"/>
<circle cx="467.14" cy="327.80" r="4.5" fill="#059669" fill-opacity="0.9"/>
<circle cx="484.29" cy="425.54" r="4.5" fill="#059669" fill-opacity="0.9"/>
<circle cx="501.43" cy="411.72" r="4.5" fill="#059669" fill-opacity="0.9"/>
<circle cx="518.57" cy="428.76" r="4.5" fill="#059669" fill-opacity="0.9"/>
<circle cx="535.71" cy="425.15" r="4.5" fill="#059669" fill-opacity="0.9"/>
<circle cx="552.86" cy="430.34" r="4.5" fill="#059669" fill-opacity="0.9"/>
<circle cx="570.00" cy="314.07" r="4.5" fill="#059669" fill-opacity="0.9"/>
<circle cx="587.14" cy="430.34" r="4.5" fill="#059669" fill-opacity="0.9"/>
<circle cx="604.29" cy="428.42" r="4.5" fill="#059669" fill-opacity="0.9"/>
<circle cx="621.43" cy="425.89" r="4.5" fill="#059669" fill-opacity="0.9"/>
<circle cx="638.57" cy="428.15" r="4.5" fill="#059669" fill-opacity="0.9"/>
<circle cx="655.71" cy="398.11" r="4.5" fill="#059669" fill-opacity="0.9"/>
<circle cx="672.86" cy="367.00" r="4.5" fill="#059669" fill-opacity="0.9"/>
<circle cx="690.00" cy="425.29" r="4.5" fill="#059669" fill-opacity="0.9"/>
<circle cx="707.14" cy="410.66" r="4.5" fill="#059669" fill-opacity="0.9"/>
<circle cx="724.29" cy="428.36" r="4.5" fill="#059669" fill-opacity="0.9"/>
<circle cx="741.43" cy="428.95" r="4.5" fill="#059669" fill-opacity="0.9"/>
<circle cx="758.57" cy="428.68" r="4.5" fill="#059669" fill-opacity="0.9"/>
<circle cx="775.71" cy="429.72" r="4.5" fill="#059669" fill-opacity="0.9"/>
<circle cx="792.86" cy="414.36" r="4.5" fill="#059669" fill-opacity="0.9"/>
<circle cx="810.00" cy="429.82" r="4.5" fill="#059669" fill-opacity="0.9"/>
<circle cx="827.14" cy="428.98" r="4.5" fill="#059669" fill-opacity="0.9"/>
<circle cx="844.29" cy="428.80" r="4.5" fill="#059669" fill-opacity="0.9"/>
<circle cx="861.43" cy="429.43" r="4.5" fill="#059669" fill-opacity="0.9"/>
<circle cx="878.57" cy="429.06" r="4.5" fill="#059669" fill-opacity="0.9"/>
<circle cx="895.71" cy="428.48" r="4.5" fill="#059669" fill-opacity="0.9"/>
<circle cx="912.86" cy="429.68" r="4.5" fill="#059669" fill-opacity="0.9"/>
<circle cx="930.00" cy="428.12" r="4.5" fill="#059669" fill-opacity="0.9"/>
<rect x="450" y="32" width="18" height="6" fill="#059669"/>
<text x="474" y="38" font-size="13" fill="#333333">test</text>
</svg>