<svg xmlns="http://www.w3.org/2000/svg" width="960" height="540">
<rect width="100%" height="100%" fill="#ffffff"/>
<text x="480.0" y="30" font-size="22" text-anchor="middle" fill="#111111">Position 1 Accuracy</text>
<text x="20" y="270.0" font-size="16" transform="rotate(-90 20,270.0)" text-anchor="middle" fill="#333333">Accuracy</text>
<text x="480.0" y="520" font-size="16" text-anchor="middle" fill="#333333">Epoch</text>
<line x1="90" y1="60" x2="90" y2="470" stroke="#333333" stroke-width="2"/>
<line x1="90" y1="470" x2="930" y2="470" stroke="#333333" stroke-width="2"/>
<line x1="90" y1="470.00" x2="930" y2="470.00" stroke="#e5e7eb" stroke-width="1"/>
<text x="80" y="475.00" font-size="12" text-anchor="end" fill="#555555">0.4020</text>
<line x1="90" y1="367.50" x2="930" y2="367.50" stroke="#e5e7eb" stroke-width="1"/>
<text x="80" y="372.50" font-size="12" text-anchor="end" fill="#555555">0.5628</text>
<line x1="90" y1="265.00" x2="930" y2="265.00" stroke="#e5e7eb" stroke-width="1"/>
<text x="80" y="270.00" font-size="12" text-anchor="end" fill="#555555">0.7235</text>
<line x1="90" y1="162.50" x2="930" y2="162.50" stroke="#e5e7eb" stroke-width="1"/>
<text x="80" y="167.50" font-size="12" text-anchor="end" fill="#555555">0.8842</text>
<line x1="90" y1="60.00" x2="930" y2="60.00" stroke="#e5e7eb" stroke-width="1"/>
<text x="80" y="65.00" font-size="12" text-anchor="end" fill="#555555">1.0450</text>
<line x1="90.00" y1="60" x2="90.00" y2="470" stroke="#f3f4f6" stroke-width="1"/>
<text x="90.00" y="492" font-size="12" text-anchor="middle" fill="#555555">1</text>
<line x1="107.14" y1="60" x2="107.14" y2="470" stroke="#f3f4f6" stroke-width="1"/>
<text x="107.14" y="492" font-size="12" text-anchor="middle" fill="#555555">2</text>
<line x1="124.29" y1="60" x2="124.29" y2="470" stroke="#f3f4f6" stroke-width="1"/>
<text x="124.29" y="492" font-size="12" text-anchor="middle" fill="#555555">3</text>
<line x1="141.43" y1="60" x2="141.43" y2="470" stroke="#f3f4f6" stroke-width="1"/>
<text x="141.43" y="492" font-size="12" text-anchor="middle" fill="#555555">4</text>
<line x1="158.57" y1="60" x2="158.57" y2="470" stroke="#f3f4f6" stroke-width="1"/>
<text x="158.57" y="492" font-size="12" text-anchor="middle" fill="#555555">5</text>
<line x1="175.71" y1="60" x2="175.71" y2="470" stroke="#f3f4f6" stroke-width="1"/>
<text x="175.71" y="492" font-size="12" text-anchor="middle" fill="#555555">6</text>
<line x1="192.86" y1="60" x2="192.86" y2="470" stroke="#f3f4f6" stroke-width="1"/>
<text x="192.86" y="492" font-size="12" text-anchor="middle" fill="#555555">7</text>
<line x1="210.00" y1="60" x2="210.00" y2="470" stroke="#f3f4f6" stroke-width="1"/>
<text x="210.00" y="492" font-size="12" text-anchor="middle" fill="#555555">8</text>
<line x1="227.14" y1="60" x2="227.14" y2="470" stroke="#f3f4f6" stroke-width="1"/>
<text x="227.14" y="492" font-size="12" text-anchor="middle" fill="#555555">9</text>
<line x1="244.29" y1="60" x2="244.29" y2="470" stroke="#f3f4f6" stroke-width="1"/>
<text x="244.29" y="492" font-size="12" text-anchor="middle" fill="#555555">10</text>
<line x1="261.43" y1="60" x2="261.43" y2="470" stroke="#f3f4f6" stroke-width="1"/>
<text x="261.43" y="492" font-size="12" text-anchor="middle" fill="#555555">11</text>
<line x1="278.57" y1="60" x2="278.57" y2="470" stroke="#f3f4f6" stroke-width="1"/>
<text x="278.57" y="492" font-size="12" text-anchor="middle" fill="#555555">12</text>
<line x1="295.71" y1="60" x2="295.71" y2="470" stroke="#f3f4f6" stroke-width="1"/>
<text x="295.71" y="492" font-size="12" text-anchor="middle" fill="#555555">13</text>
<line x1="312.86" y1="60" x2="312.86" y2="470" stroke="#f3f4f6" stroke-width="1"/>
<text x="312.86" y="492" font-size="12" text-anchor="middle" fill="#555555">14</text>
<line x1="330.00" y1="60" x2="330.00" y2="470" stroke="#f3f4f6" stroke-width="1"/>
<text x="330.00" y="492" font-size="12" text-anchor="middle" fill="#555555">15</text>
<line x1="347.14" y1="60" x2="347.14" y2="470" stroke="#f3f4f6" stroke-width="1"/>
<text x="347.14" y="492" font-size="12" text-anchor="middle" fill="#555555">16</text>
<line x1="364.29" y1="60" x2="364.29" y2="470" stroke="#f3f4f6" stroke-width="1"/>
<text x="364.29" y="492" font-size="12" text-anchor="middle" fill="#555555">17</text>
<line x1="381.43" y1="60" x2="381.43" y2="470" stroke="#f3f4f6" stroke-width="1"/>
<text x="381.43" y="492" font-size="12" text-anchor="middle" fill="#555555">18</text>
<line x1="398.57" y1="60" x2="398.57" y2="470" stroke="#f3f4f6" stroke-width="1"/>
<text x="398.57" y="492" font-size="12" text-anchor="middle" fill="#555555">19</text>
<line x1="415.71" y1="60" x2="415.71" y2="470" stroke="#f3f4f6" stroke-width="1"/>
<text x="415.71" y="492" font-size="12" text-anchor="middle" fill="#555555">20</text>
<line x1="432.86" y1="60" x2="432.86" y2="470" stroke="#f3f4f6" stroke-width="1"/>
<text x="432.86" y="492" font-size="12" text-anchor="middle" fill="#555555">21</text>
<line x1="450.00" y1="60" x2="450.00" y2="470" stroke="#f3f4f6" stroke-width="1"/>
<text x="450.00" y="492" font-size="12" text-anchor="middle" fill="#555555">22</text>
<line x1="467.14" y1="60" x2="467.14" y2="470" stroke="#f3f4f6" stroke-width="1"/>
<text x="467.14" y="492" font-size="12" text-anchor="middle" fill="#555555">23</text>
<line x1="484.29" y1="60" x2="484.29" y2="470" stroke="#f3f4f6" stroke-width="1"/>
<text x="484.29" y="492" font-size="12" text-anchor="middle" fill="#555555">24</text>
<line x1="501.43" y1="60" x2="501.43" y2="470" stroke="#f3f4f6" stroke-width="1"/>
<text x="501.43" y="492" font-size="12" text-anchor="middle" fill="#555555">25</text>
<line x1="518.57" y1="60" x2="518.57" y2="470" stroke="#f3f4f6" stroke-width="1"/>
<text x="518.57" y="492" font-size="12" text-anchor="middle" fill="#555555">26</text>
<line x1="535.71" y1="60" x2="535.71" y2="470" stroke="#f3f4f6" stroke-width="1"/>
<text x="535.71" y="492" font-size="12" text-anchor="middle" fill="#555555">27</text>
<line x1="552.86" y1="60" x2="552.86" y2="470" stroke="#f3f4f6" stroke-width="1"/>
<text x="552.86" y="492" font-size="12" text-anchor="middle" fill="#555555">28</text>
<line x1="570.00" y1="60" x2="570.00" y2="470" stroke="#f3f4f6" stroke-width="1"/>
<text x="570.00" y="492" font-size="12" text-anchor="middle" fill="#555555">29</text>
<line x1="587.14" y1="60" x2="587.14" y2="470" stroke="#f3f4f6" stroke-width="1"/>
<text x="587.14" y="492" font-size="12" text-anchor="middle" fill="#555555">30</text>
<line x1="604.29" y1="60" x2="604.29" y2="470" stroke="#f3f4f6" stroke-width="1"/>
<text x="604.29" y="492" font-size="12" text-anchor="middle" fill="#555555">31</text>
<line x1="621.43" y1="60" x2="621.43" y2="470" stroke="#f3f4f6" stroke-width="1"/>
<text x="621.43" y="492" font-size="12" text-anchor="middle" fill="#555555">32</text>
<line x1="638.57" y1="60" x2="638.57" y2="470" stroke="#f3f4f6" stroke-width="1"/>
<text x="638.57" y="492" font-size="12" text-anchor="middle" fill="#555555">33</text>
<line x1="655.71" y1="60" x2="655.71" y2="470" stroke="#f3f4f6" stroke-width="1"/>
<text x="655.71" y="492" font-size="12" text-anchor="middle" fill="#555555">34</text>
<line x1="672.86" y1="60" x2="672.86" y2="470" stroke="#f3f4f6" stroke-width="1"/>
<text x="672.86" y="492" font-size="12" text-anchor="middle" fill="#555555">35</text>
<line x1="690.00" y1="60" x2="690.00" y2="470" stroke="#f3f4f6" stroke-width="1"/>
<text x="690.00" y="492" font-size="12" text-anchor="middle" fill="#555555">36</text>
<line x1="707.14" y1="60" x2="707.14" y2="470" stroke="#f3f4f6" stroke-width="1"/>
<text x="707.14" y="492" font-size="12" text-anchor="middle" fill="#555555">37</text>
<line x1="724.29" y1="60" x2="724.29" y2="470" stroke="#f3f4f6" stroke-width="1"/>
<text x="724.29" y="492" font-size="12" text-anchor="middle" fill="#555555">38</text>
<line x1="741.43" y1="60" x2="741.43" y2="470" stroke="#f3f4f6" stroke-width="1"/>
<text x="741.43" y="492" font-size="12" text-anchor="middle" fill="#555555">39</text>
<line x1="758.57" y1="60" x2="758.57" y2="470" stroke="#f3f4f6" stroke-width="1"/>
<text x="758.57" y="492" font-size="12" text-anchor="middle" fill="#555555">40</text>
<line x1="775.71" y1="60" x2="775.71" y2="470" stroke="#f3f4f6" stroke-width="1"/>
<text x="775.71" y="492" font-size="12" text-anchor="middle" fill="#555555">41</text>
<line x1="792.86" y1="60" x2="792.86" y2="470" stroke="#f3f4f6" stroke-width="1"/>
<text x="792.86" y="492" font-size="12" text-anchor="middle" fill="#555555">42</text>
<line x1="810.00" y1="60" x2="810.00" y2="470" stroke="#f3f4f6" stroke-width="1"/>
<text x="810.00" y="492" font-size="12" text-anchor="middle" fill="#555555">43</text>
<line x1="827.14" y1="60" x2="827.14" y2="470" stroke="#f3f4f6" stroke-width="1"/>
<text x="827.14" y="492" font-size="12" text-anchor="middle" fill="#555555">44</text>
<line x1="844.29" y1="60" x2="844.29" y2="470" stroke="#f3f4f6" stroke-width="1"/>
<text x="844.29" y="492" font-size="12" text-anchor="middle" fill="#555555">45</text>
<line x1="861.43" y1="60" x2="861.43" y2="470" stroke="#f3f4f6" stroke-width="1"/>
<text x="861.43" y="492" font-size="12" text-anchor="middle" fill="#555555">46</text>
<line x1="878.57" y1="60" x2="878.57" y2="470" stroke="#f3f4f6" stroke-width="1"/>
<text x="878.57" y="492" font-size="12" text-anchor="middle" fill="#555555">47</text>
<line x1="895.71" y1="60" x2="895.71" y2="470" stroke="#f3f4f6" stroke-width="1"/>
<text x="895.71" y="492" font-size="12" text-anchor="middle" fill="#555555">48</text>
<line x1="912.86" y1="60" x2="912.86" y2="470" stroke="#f3f4f6" stroke-width="1"/>
<text x="912.86" y="492" font-size="12" text-anchor="middle" fill="#555555">49</text>
<line x1="930.00" y1="60" x2="930.00" y2="470" stroke="#f3f4f6" stroke-width="1"/>
<text x="930.00" y="492" font-size="12" text-anchor="middle" fill="#555555">50</text>
<polyline fill="none" stroke="#d97706" stroke-width="3" points="90.00,429.92 107.14,166.52 124.29,287.81 141.43,99.44 158.57,102.71 175.71,101.18 192.86,101.99 210.00,111.60 227.14,160.10 244.29,101.95 261.43,98.29 278.57,101.18 295.71,99.86 312.86,102.71 330.00,119.89 347.14,100.54 364.29,98.42 381.43,97.36 398.57,95.40 415.71,103.09 432.86,173.15 450.00,96.89 467.14,149.43 484.29,102.71 501.43,100.42 518.57,97.70 535.71,97.06 552.86,95.91 570.00,167.16 587.14,94.97 604.29,96.93 621.43,99.06 638.57,96.50 655.71,144.37 672.86,131.66 690.00,98.12 707.14,115.81 724.29,97.23 741.43,96.46 758.57,97.18 775.71,95.40 792.86,101.14 810.00,94.76 827.14,95.70 844.29,96.04 861.43,95.36 878.57,95.65 895.71,95.70 912.86,95.70 930.00,96.67"/>
<circle cx="90.00" cy="429.92" r="4.5" fill="#d97706" fill-opacity="0.9"/>
<circle cx="107.14" cy="166.52" r="4.5" fill="#d97706" fill-opacity="0.9"/>
<circle cx="124.29" cy="287.81" r="4.5" fill="#d97706" fill-opacity="0.9"/>
<circle cx="141.43" cy="99.44" r="4.5" fill="#d97706" fill-opacity="0.9"/>
<circle cx="158.57" cy="102.71" r="4.5" fill="#d97706" fill-opacity="0.9"/>
<circle cx="175.71" cy="101.18" r="4.5" fill="#d97706" fill-opacity="0.9"/>
<circle cx="192.86" cy="101.99" r="4.5" fill="#d97706" fill-opacity="0.9"/>
<circle cx="210.00" cy="111.60" r="4.5" fill="#d97706" fill-opacity="0.9"/>
<circle cx="227.14" cy="160.10" r="4.5" fill="#d97706" fill-opacity="0.9"/>
<circle cx="244.29" cy="101.95" r="4.5" fill="#d97706" fill-opacity="0.9"/>
<circle cx="261.43" cy="98.29" r="4.5" fill="#d97706" fill-opacity="0.9"/>
<circle cx="278.57" cy="101.18" r="4.5" fill="#d97706" fill-opacity="0.9"/>
<circle cx="295.71" cy="99.86" r="4.5" fill="#d97706" fill-opacity="0.9"/>
<circle cx="312.86" cy="102.71" r="4.5" fill="#d97706" fill-opacity="0.9"/>
<circle cx="330.00" cy="119.89" r="4.5" fill="#d97706" fill-opacity="0.9"/>
<circle cx="347.14" cy="100.54" r="4.5" fill="#d97706" fill-opacity="0.9"/>
<circle cx="364.29" cy="98.42" r="4.5" fill="#d97706" fill-opacity="0.9"/>
<circle cx="381.43" cy="97.36" r="4.5" fill="#d97706" fill-opacity="0.9"/>
<circle cx="398.57" cy="95.40" r="4.5" fill="#d97706" fill-opacity="0.9"/>
<circle cx="415.71" cy="103.09" r="4.5" fill="#d97706" fill-opacity="0.9"/>
<circle cx="432.86" cy="173.15" r="4.5" fill="#d97706" fill-opacity="0.9"/>
<circle cx="450.00" cy="96.89" r="4.5" fill="#d97706" fill-opacity="0.9"/>
<circle cx="467.14" cy="149.43" r="4.5" fill="#d97706" fill-opacity="0.9"/>
<circle cx="484.29" cy="102.71" r="4.5" fill="#d97706" fill-opacity="0.9"/>
<circle cx="501.43" cy="100.42" r="4.5" fill="#d97706" fill-opacity="0.9"/>
<circle cx="518.57" cy="97.70" r="4.5" fill="#d97706" fill-opacity="0.9"/>
<circle cx="535.71" cy="97.06" r="4.5" fill="#d97706" fill-opacity="0.9"/>
<circle cx="552.86" cy="95.91" r="4.5" fill="#d97706" fill-opacity="0.9"/>
<circle cx="570.00" cy="167.16" r="4.5" fill="#d97706" fill-opacity="0.9"/>
<circle cx="587.14" cy="94.97" r="4.5" fill="#d97706" fill-opacity="0.9"/>
<circle cx="604.29" cy="96.93" r="4.5" fill="#d97706" fill-opacity="0.9"/>
<circle cx="621.43" cy="99.06" r="4.5" fill="#d97706" fill-opacity="0.9"/>
<circle cx="638.57" cy="96.50" r="4.5" fill="#d97706" fill-opacity="0.9"/>
<circle cx="655.71" cy="144.37" r="4.5" fill="#d97706" fill-opacity="0.9"/>
<circle cx="672.86" cy="131.66" r="4.5" fill="#d97706" fill-opacity="0.9"/>
<circle cx="690.00" cy="98.12" r="4.5" fill="#d97706" fill-opacity="0.9"/>
<circle cx="707.14" cy="115.81" r="4.5" fill="#d97706" fill-opacity="0.9"/>
<circle cx="724.29" cy="97.23" r="4.5" fill="#d97706" fill-opacity="0.9"/>
<circle cx="741.43" cy="96.46" r="4.5" fill="#d97706" fill-opacity="0.9"/>
<circle cx="758.57" cy="97.18" r="4.5" fill="#d97706" fill-opacity="0.9"/>
<circle cx="775.71" cy="95.40" r="4.5" fill="#d97706" fill-opacity="0.9"/>
<circle cx="792.86" cy="101.14" r="4.5" fill="#d97706" fill-opacity="0.9"/>
<circle cx="810.00" cy="94.76" r="4.5" fill="#d97706" fill-opacity="0.9"/>
<circle cx="827.14" cy="95.70" r="4.5" fill="#d97706" fill-opacity="0.9"/>
<circle cx="844.29" cy="96.04" r="4.5" fill="#d97706" fill-opacity="0.9"/>
<circle cx="861.43" cy="95.36" r="4.5" fill="#d97706" fill-opacity="0.9"/>
<circle cx="878.57" cy="95.65" r="4.5" fill="#d97706" fill-opacity="0.9"/>
<circle cx="895.71" cy="95.70" r="4.5" fill="#d97706" fill-opacity="0.9"/>
<circle cx="912.86" cy="95.70" r="4.5" fill="#d97706" fill-opacity="0.9"/>
<circle cx="930.00" cy="96.67" r="4.5" fill="#d97706" fill-opacity="0.9"/>
<rect x="90" y="32" width="18" height="6" fill="#d97706"/>
<text x="114" y="38" font-size="13" fill="#333333">val</text>
<polyline fill="none" stroke="#059669" stroke-width="3" points="90.00,435.83 107.14,167.50 124.29,280.33 141.43,99.06 158.57,102.12 175.71,101.35 192.86,101.31 210.00,112.79 227.14,161.08 244.29,102.46 261.43,97.87 278.57,100.08 295.71,100.33 312.86,101.99 330.00,118.57 347.14,100.50 364.29,97.23 381.43,97.27 398.57,94.85 415.71,101.31 432.86,171.88 450.00,97.23 467.14,146.58 484.29,101.61 501.43,100.71 518.57,97.10 535.71,96.80 552.86,95.23 570.00,165.29 587.14,94.46 604.29,96.89 621.43,100.16 638.57,96.76 655.71,140.12 672.86,130.05 690.00,97.27 707.14,116.27 724.29,96.97 741.43,95.78 758.57,97.01 775.71,95.10 792.86,102.03 810.00,94.29 827.14,95.19 844.29,95.57 861.43,95.23 878.57,94.17 895.71,95.06 912.86,94.76 930.00,96.25"/>
<circle cx="90.00" cy="435.83" r="4.5" fill="#059669" fill-opacity="0.9"/>
<circle cx="107.14" cy="167.50" r="4.5" fill="#059669" fill-opacity="0.9"/>
<circle cx="124.29" cy="280.33" r="4.5" fill="#059669" fill-opacity="0.9"/>
<circle cx="141.43" cy="99.06" r="4.5" fill="#059669" fill-opacity="0.9"/>
<circle cx="158.57" cy="102.12" r="4.5" fill="#059669" fill-opacity="0.9"/>
<circle cx="175.71" cy="101.35" r="4.5" fill="#059669" fill-opacity="0.9"/>
<circle cx="192.86" cy="101.31" r="4.5" fill="#059669" fill-opacity="0.9"/>
<circle cx="210.00" cy="112.79" r="4.5" fill="#059669" fill-opacity="0.9"/>
<circle cx="227.14" cy="161.08" r="4.5" fill="#059669" fill-opacity="0.9"/>
<circle cx="244.29" cy="102.46" r="4.5" fill="#059669" fill-opacity="0.9"/>
<circle cx="261.43" cy="97.87" r="4.5" fill="#059669" fill-opacity="0.9"/>
<circle cx="278.57" cy="100.08" r="4.5" fill="#059669" fill-opacity="0.9"/>
<circle cx="295.71" cy="100.33" r="4.5" fill="#059669" fill-opacity="0.9"/>
<circle cx="312.86" cy="101.99" r="4.5" fill="#059669" fill-opacity="0.9"/>
<circle cx="330.00" cy="118.57" r="4.5" fill="#059669" fill-opacity="0.9"/>
<circle cx="347.14" cy="100.50" r="4.5" fill="#059669" fill-opacity="0.9"/>
<circle cx="364.29" cy="97.23" r="4.5" fill="#059669" fill-opacity="0.9"/>
<circle cx="381.43" cy="97.27" r="4.5" fill="#059669" fill-opacity="0.9"/>
<circle cx="398.57" cy="94.85" r="4.5" fill="#059669" fill-opacity="0.9"/>
<circle cx="415.71" cy="101.31" r="4.5" fill="#059669" fill-opacity="0.9"/>
<circle cx="432.86" cy="171.88" r="4.5" fill="#059669" fill-opacity="0.9"/>
<circle cx="450.00" cy="97.23" r="4.5" fill="#059669" fill-opacity="0.9"/>
<circle cx="467.14" cy="146.58" r="4.5" fill="#059669" fill-opacity="0.9"/>
<circle cx="484.29" cy="101.61" r="4.5" fill="#059669" fill-opacity="0.9"/>
<circle cx="501.43" cy="100.71" r="4.5" fill="#059669" fill-opacity="0.9"/>
<circle cx="518.57" cy="97.10" r="4.5" fill="#059669" fill-opacity="0.9"/>
<circle cx="535.71" cy="96.80" r="4.5" fill="#059669" fill-opacity="0.9"/>
<circle cx="552.86" cy="95.23" r="4.5" fill="#059669" fill-opacity="0.9"/>
<circle cx="570.00" cy="165.29" r="4.5" fill="#059669" fill-opacity="0.9"/>
<circle cx="587.14" cy="94.46" r="4.5" fill="#059669" fill-opacity="0.9"/>
<circle cx="604.29" cy="96.89" r="4.5" fill="#059669" fill-opacity="0.9"/>
<circle cx="621.43" cy="100.16" r="4.5" fill="#059669" fill-opacity="0.9"/>
<circle cx="638.57" cy="96.76" r="4.5" fill="#059669" fill-opacity="0.9"/>
<circle cx="655.71" cy="140.12" r="4.5" fill="#059669" fill-opacity="0.9"/>
<circle cx="672.86" cy="130.05" r="4.5" fill="#059669" fill-opacity="0.9"/>
<circle cx="690.00" cy="97.27" r="4.5" fill="#059669" fill-opacity="0.9"/>
<circle cx="707.14" cy="116.27" r="4.5" fill="#059669" fill-opacity="0.9"/>
<circle cx="724.29" cy="96.97" r="4.5" fill="#059669" fill-opacity="0.9"/>
<circle cx="741.43" cy="95.78" r="4.5" fill="#059669" fill-opacity="0.9"/>
<circle cx="758.57" cy="97.01" r="4.5" fill="#059669" fill-opacity="0.9"/>
<circle cx="775.71" cy="95.10" r="4.5" fill="#059669" fill-opacity="0.9"/>
<circle cx="792.86" cy="102.03" r="4.5" fill="#059669" fill-opacity="0.9"/>
<circle cx="810.00" cy="94.29" r="4.5" fill="#059669" fill-opacity="0.9"/>
<circle cx="827.14" cy="95.19" r="4.5" fill="#059669" fill-opacity="0.9"/>
<circle cx="844.29" cy="95.57" r="4.5" fill="#059669" fill-opacity="0.9"/>
<circle cx="861.43" cy="95.23" r="4.5" fill="#059669" fill-opacity="0.9"/>
<circle cx="878.57" cy="94.17" r="4.5" fill="#059669" fill-opacity="0.9"/>
<circle cx="895.71" cy="95.06" r="4.5" fill="#059669" fill-opacity="0.9"/>
<circle cx="912.86" cy="94.76" r="4.5" fill="#059669" fill-opacity="0.9"/>
<circle cx="930.00" cy="96.25" r="4.5" fill="#059669" fill-opacity="0.9"/>
<rect x="270" y="32" width="18" height="6" fill="#059669"/>
<text x="294" y="38" font-size="13" fill="#333333">test</text>
</svg>