<svg xmlns="http://www.w3.org/2000/svg" width="960" height="540">
<rect width="100%" height="100%" fill="#ffffff"/>
<text x="480.0" y="30" font-size="22" text-anchor="middle" fill="#111111">Position 4 Accuracy</text>
<text x="20" y="270.0" font-size="16" transform="rotate(-90 20,270.0)" text-anchor="middle" fill="#333333">Accuracy</text>
<text x="480.0" y="520" font-size="16" text-anchor="middle" fill="#333333">Epoch</text>
<line x1="90" y1="60" x2="90" y2="470" stroke="#333333" stroke-width="2"/>
<line x1="90" y1="470" x2="930" y2="470" stroke="#333333" stroke-width="2"/>
<line x1="90" y1="470.00" x2="930" y2="470.00" stroke="#e5e7eb" stroke-width="1"/>
<text x="80" y="475.00" font-size="12" text-anchor="end" fill="#555555">0.2716</text>
<line x1="90" y1="367.50" x2="930" y2="367.50" stroke="#e5e7eb" stroke-width="1"/>
<text x="80" y="372.50" font-size="12" text-anchor="end" fill="#555555">0.4672</text>
<line x1="90" y1="265.00" x2="930" y2="265.00" stroke="#e5e7eb" stroke-width="1"/>
<text x="80" y="270.00" font-size="12" text-anchor="end" fill="#555555">0.6627</text>
<line x1="90" y1="162.50" x2="930" y2="162.50" stroke="#e5e7eb" stroke-width="1"/>
<text x="80" y="167.50" font-size="12" text-anchor="end" fill="#555555">0.8582</text>
<line x1="90" y1="60.00" x2="930" y2="60.00" stroke="#e5e7eb" stroke-width="1"/>
<text x="80" y="65.00" font-size="12" text-anchor="end" fill="#555555">1.0538</text>
<line x1="90.00" y1="60" x2="90.00" y2="470" stroke="#f3f4f6" stroke-width="1"/>
<text x="90.00" y="492" font-size="12" text-anchor="middle" fill="#555555">1</text>
<line x1="107.14" y1="60" x2="107.14" y2="470" stroke="#f3f4f6" stroke-width="1"/>
<text x="107.14" y="492" font-size="12" text-anchor="middle" fill="#555555">2</text>
<line x1="124.29" y1="60" x2="124.29" y2="470" stroke="#f3f4f6" stroke-width="1"/>
<text x="124.29" y="492" font-size="12" text-anchor="middle" fill="#555555">3</text>
<line x1="141.43" y1="60" x2="141.43" y2="470" stroke="#f3f4f6" stroke-width="1"/>
<text x="141.43" y="492" font-size="12" text-anchor="middle" fill="#555555">4</text>
<line x1="158.57" y1="60" x2="158.57" y2="470" stroke="#f3f4f6" stroke-width="1"/>
<text x="158.57" y="492" font-size="12" text-anchor="middle" fill="#555555">5</text>
<line x1="175.71" y1="60" x2="175.71" y2="470" stroke="#f3f4f6" stroke-width="1"/>
<text x="175.71" y="492" font-size="12" text-anchor="middle" fill="#555555">6</text>
<line x1="192.86" y1="60" x2="192.86" y2="470" stroke="#f3f4f6" stroke-width="1"/>
<text x="192.86" y="492" font-size="12" text-anchor="middle" fill="#555555">7</text>
<line x1="210.00" y1="60" x2="210.00" y2="470" stroke="#f3f4f6" stroke-width="1"/>
<text x="210.00" y="492" font-size="12" text-anchor="middle" fill="#555555">8</text>
<line x1="227.14" y1="60" x2="227.14" y2="470" stroke="#f3f4f6" stroke-width="1"/>
<text x="227.14" y="492" font-size="12" text-anchor="middle" fill="#555555">9</text>
<line x1="244.29" y1="60" x2="244.29" y2="470" stroke="#f3f4f6" stroke-width="1"/>
<text x="244.29" y="492" font-size="12" text-anchor="middle" fill="#555555">10</text>
<line x1="261.43" y1="60" x2="261.43" y2="470" stroke="#f3f4f6" stroke-width="1"/>
<text x="261.43" y="492" font-size="12" text-anchor="middle" fill="#555555">11</text>
<line x1="278.57" y1="60" x2="278.57" y2="470" stroke="#f3f4f6" stroke-width="1"/>
<text x="278.57" y="492" font-size="12" text-anchor="middle" fill="#555555">12</text>
<line x1="295.71" y1="60" x2="295.71" y2="470" stroke="#f3f4f6" stroke-width="1"/>
<text x="295.71" y="492" font-size="12" text-anchor="middle" fill="#555555">13</text>
<line x1="312.86" y1="60" x2="312.86" y2="470" stroke="#f3f4f6" stroke-width="1"/>
<text x="312.86" y="492" font-size="12" text-anchor="middle" fill="#555555">14</text>
<line x1="330.00" y1="60" x2="330.00" y2="470" stroke="#f3f4f6" stroke-width="1"/>
<text x="330.00" y="492" font-size="12" text-anchor="middle" fill="#555555">15</text>
<line x1="347.14" y1="60" x2="347.14" y2="470" stroke="#f3f4f6" stroke-width="1"/>
<text x="347.14" y="492" font-size="12" text-anchor="middle" fill="#555555">16</text>
<line x1="364.29" y1="60" x2="364.29" y2="470" stroke="#f3f4f6" stroke-width="1"/>
<text x="364.29" y="492" font-size="12" text-anchor="middle" fill="#555555">17</text>
<line x1="381.43" y1="60" x2="381.43" y2="470" stroke="#f3f4f6" stroke-width="1"/>
<text x="381.43" y="492" font-size="12" text-anchor="middle" fill="#555555">18</text>
<line x1="398.57" y1="60" x2="398.57" y2="470" stroke="#f3f4f6" stroke-width="1"/>
<text x="398.57" y="492" font-size="12" text-anchor="middle" fill="#555555">19</text>
<line x1="415.71" y1="60" x2="415.71" y2="470" stroke="#f3f4f6" stroke-width="1"/>
<text x="415.71" y="492" font-size="12" text-anchor="middle" fill="#555555">20</text>
<line x1="432.86" y1="60" x2="432.86" y2="470" stroke="#f3f4f6" stroke-width="1"/>
<text x="432.86" y="492" font-size="12" text-anchor="middle" fill="#555555">21</text>
<line x1="450.00" y1="60" x2="450.00" y2="470" stroke="#f3f4f6" stroke-width="1"/>
<text x="450.00" y="492" font-size="12" text-anchor="middle" fill="#555555">22</text>
<line x1="467.14" y1="60" x2="467.14" y2="470" stroke="#f3f4f6" stroke-width="1"/>
<text x="467.14" y="492" font-size="12" text-anchor="middle" fill="#555555">23</text>
<line x1="484.29" y1="60" x2="484.29" y2="470" stroke="#f3f4f6" stroke-width="1"/>
<text x="484.29" y="492" font-size="12" text-anchor="middle" fill="#555555">24</text>
<line x1="501.43" y1="60" x2="501.43" y2="470" stroke="#f3f4f6" stroke-width="1"/>
<text x="501.43" y="492" font-size="12" text-anchor="middle" fill="#555555">25</text>
<line x1="518.57" y1="60" x2="518.57" y2="470" stroke="#f3f4f6" stroke-width="1"/>
<text x="518.57" y="492" font-size="12" text-anchor="middle" fill="#555555">26</text>
<line x1="535.71" y1="60" x2="535.71" y2="470" stroke="#f3f4f6" stroke-width="1"/>
<text x="535.71" y="492" font-size="12" text-anchor="middle" fill="#555555">27</text>
<line x1="552.86" y1="60" x2="552.86" y2="470" stroke="#f3f4f6" stroke-width="1"/>
<text x="552.86" y="492" font-size="12" text-anchor="middle" fill="#555555">28</text>
<line x1="570.00" y1="60" x2="570.00" y2="470" stroke="#f3f4f6" stroke-width="1"/>
<text x="570.00" y="492" font-size="12" text-anchor="middle" fill="#555555">29</text>
<line x1="587.14" y1="60" x2="587.14" y2="470" stroke="#f3f4f6" stroke-width="1"/>
<text x="587.14" y="492" font-size="12" text-anchor="middle" fill="#555555">30</text>
<line x1="604.29" y1="60" x2="604.29" y2="470" stroke="#f3f4f6" stroke-width="1"/>
<text x="604.29" y="492" font-size="12" text-anchor="middle" fill="#555555">31</text>
<line x1="621.43" y1="60" x2="621.43" y2="470" stroke="#f3f4f6" stroke-width="1"/>
<text x="621.43" y="492" font-size="12" text-anchor="middle" fill="#555555">32</text>
<line x1="638.57" y1="60" x2="638.57" y2="470" stroke="#f3f4f6" stroke-width="1"/>
<text x="638.57" y="492" font-size="12" text-anchor="middle" fill="#555555">33</text>
<line x1="655.71" y1="60" x2="655.71" y2="470" stroke="#f3f4f6" stroke-width="1"/>
<text x="655.71" y="492" font-size="12" text-anchor="middle" fill="#555555">34</text>
<line x1="672.86" y1="60" x2="672.86" y2="470" stroke="#f3f4f6" stroke-width="1"/>
<text x="672.86" y="492" font-size="12" text-anchor="middle" fill="#555555">35</text>
<line x1="690.00" y1="60" x2="690.00" y2="470" stroke="#f3f4f6" stroke-width="1"/>
<text x="690.00" y="492" font-size="12" text-anchor="middle" fill="#555555">36</text>
<line x1="707.14" y1="60" x2="707.14" y2="470" stroke="#f3f4f6" stroke-width="1"/>
<text x="707.14" y="492" font-size="12" text-anchor="middle" fill="#555555">37</text>
<line x1="724.29" y1="60" x2="724.29" y2="470" stroke="#f3f4f6" stroke-width="1"/>
<text x="724.29" y="492" font-size="12" text-anchor="middle" fill="#555555">38</text>
<line x1="741.43" y1="60" x2="741.43" y2="470" stroke="#f3f4f6" stroke-width="1"/>
<text x="741.43" y="492" font-size="12" text-anchor="middle" fill="#555555">39</text>
<line x1="758.57" y1="60" x2="758.57" y2="470" stroke="#f3f4f6" stroke-width="1"/>
<text x="758.57" y="492" font-size="12" text-anchor="middle" fill="#555555">40</text>
<line x1="775.71" y1="60" x2="775.71" y2="470" stroke="#f3f4f6" stroke-width="1"/>
<text x="775.71" y="492" font-size="12" text-anchor="middle" fill="#555555">41</text>
<line x1="792.86" y1="60" x2="792.86" y2="470" stroke="#f3f4f6" stroke-width="1"/>
<text x="792.86" y="492" font-size="12" text-anchor="middle" fill="#555555">42</text>
<line x1="810.00" y1="60" x2="810.00" y2="470" stroke="#f3f4f6" stroke-width="1"/>
<text x="810.00" y="492" font-size="12" text-anchor="middle" fill="#555555">43</text>
<line x1="827.14" y1="60" x2="827.14" y2="470" stroke="#f3f4f6" stroke-width="1"/>
<text x="827.14" y="492" font-size="12" text-anchor="middle" fill="#555555">44</text>
<line x1="844.29" y1="60" x2="844.29" y2="470" stroke="#f3f4f6" stroke-width="1"/>
<text x="844.29" y="492" font-size="12" text-anchor="middle" fill="#555555">45</text>
<line x1="861.43" y1="60" x2="861.43" y2="470" stroke="#f3f4f6" stroke-width="1"/>
<text x="861.43" y="492" font-size="12" text-anchor="middle" fill="#555555">46</text>
<line x1="878.57" y1="60" x2="878.57" y2="470" stroke="#f3f4f6" stroke-width="1"/>
<text x="878.57" y="492" font-size="12" text-anchor="middle" fill="#555555">47</text>
<line x1="895.71" y1="60" x2="895.71" y2="470" stroke="#f3f4f6" stroke-width="1"/>
<text x="895.71" y="492" font-size="12" text-anchor="middle" fill="#555555">48</text>
<line x1="912.86" y1="60" x2="912.86" y2="470" stroke="#f3f4f6" stroke-width="1"/>
<text x="912.86" y="492" font-size="12" text-anchor="middle" fill="#555555">49</text>
<line x1="930.00" y1="60" x2="930.00" y2="470" stroke="#f3f4f6" stroke-width="1"/>
<text x="930.00" y="492" font-size="12" text-anchor="middle" fill="#555555">50</text>
<polyline fill="none" stroke="#d97706" stroke-width="3" points="90.00,435.83 107.14,171.64 124.29,190.58 141.43,100.77 158.57,101.44 175.71,102.94 192.86,100.18 210.00,115.55 227.14,173.63 244.29,102.62 261.43,98.64 278.57,102.69 295.71,100.21 312.86,102.41 330.00,108.81 347.14,98.12 364.29,99.30 381.43,99.09 398.57,96.96 415.71,102.41 432.86,155.46 450.00,98.71 467.14,170.66 484.29,98.29 501.43,113.07 518.57,97.10 535.71,100.11 552.86,95.77 570.00,180.27 587.14,95.60 604.29,97.17 621.43,97.59 638.57,97.31 655.71,110.14 672.86,142.39 690.00,97.87 707.14,107.31 724.29,95.53 741.43,94.52 758.57,96.65 775.71,95.70 792.86,107.27 810.00,95.67 827.14,94.97 844.29,95.81 861.43,94.17 878.57,94.52 895.71,95.63 912.86,94.52 930.00,95.25"/>
<circle cx="90.00" cy="435.83" r="4.5" fill="#d97706" fill-opacity="0.9"/>
<circle cx="107.14" cy="171.64" r="4.5" fill="#d97706" fill-opacity="0.9"/>
<circle cx="124.29" cy="190.58" r="4.5" fill="#d97706" fill-opacity="0.9"/>
<circle cx="141.43" cy="100.77" r="4.5" fill="#d97706" fill-opacity="0.9"/>
<circle cx="158.57" cy="101.44" r="4.5" fill="#d97706" fill-opacity="0.9"/>
<circle cx="175.71" cy="102.94" r="4.5" fill="#d97706" fill-opacity="0.9"/>
<circle cx="192.86" cy="100.18" r="4.5" fill="#d97706" fill-opacity="0.9"/>
<circle cx="210.00" cy="115.55" r="4.5" fill="#d97706" fill-opacity="0.9"/>
<circle cx="227.14" cy="173.63" r="4.5" fill="#d97706" fill-opacity="0.9"/>
<circle cx="244.29" cy="102.62" r="4.5" fill="#d97706" fill-opacity="0.9"/>
<circle cx="261.43" cy="98.64" r="4.5" fill="#d97706" fill-opacity="0.9"/>
<circle cx="278.57" cy="102.69" r="4.5" fill="#d97706" fill-opacity="0.9"/>
<circle cx="295.71" cy="100.21" r="4.5" fill="#d97706" fill-opacity="0.9"/>
<circle cx="312.86" cy="102.41" r="4.5" fill="#d97706" fill-opacity="0.9"/>
<circle cx="330.00" cy="108.81" r="4.5" fill="#d97706" fill-opacity="0.9"/>
<circle cx="347.14" cy="98.12" r="4.5" fill="#d97706" fill-opacity="0.9"/>
<circle cx="364.29" cy="99.30" r="4.5" fill="#d97706" fill-opacity="0.9"/>
<circle cx="381.43" cy="99.09" r="4.5" fill="#d97706" fill-opacity="0.9"/>
<circle cx="398.57" cy="96.96" r="4.5" fill="#d97706" fill-opacity="0.9"/>
<circle cx="415.71" cy="102.41" r="4.5" fill="#d97706" fill-opacity="0.9"/>
<circle cx="432.86" cy="155.46" r="4.5" fill="#d97706" fill-opacity="0.9"/>
<circle cx="450.00" cy="98.71" r="4.5" fill="#d97706" fill-opacity="0.9"/>
<circle cx="467.14" cy="170.66" r="4.5" fill="#d97706" fill-opacity="0.9"/>
<circle cx="484.29" cy="98.29" r="4.5" fill="#d97706" fill-opacity="0.9"/>
<circle cx="501.43" cy="113.07" r="4.5" fill="#d97706" fill-opacity="0.9"/>
<circle cx="518.57" cy="97.10" r="4.5" fill="#d97706" fill-opacity="0.9"/>
<circle cx="535.71" cy="100.11" r="4.5" fill="#d97706" fill-opacity="0.9"/>
<circle cx="552.86" cy="95.77" r="4.5" fill="#d97706" fill-opacity="0.9"/>
<circle cx="570.00" cy="180.27" r="4.5" fill="#d97706" fill-opacity="0.9"/>
<circle cx="587.14" cy="95.60" r="4.5" fill="#d97706" fill-opacity="0.9"/>
<circle cx="604.29" cy="97.17" r="4.5" fill="#d97706" fill-opacity="0.9"/>
<circle cx="621.43" cy="97.59" r="4.5" fill="#d97706" fill-opacity="0.9"/>
<circle cx="638.57" cy="97.31" r="4.5" fill="#d97706" fill-opacity="0.9"/>
<circle cx="655.71" cy="110.14" r="4.5" fill="#d97706" fill-opacity="0.9"/>
<circle cx="672.86" cy="142.39" r="4.5" fill="#d97706" fill-opacity="0.9"/>
<circle cx="690.00" cy="97.87" r="4.5" fill="#d97706" fill-opacity="0.9"/>
<circle cx="707.14" cy="107.31" r="4.5" fill="#d97706" fill-opacity="0.9"/>
<circle cx="724.29" cy="95.53" r="4.5" fill="#d97706" fill-opacity="0.9"/>
<circle cx="741.43" cy="94.52" r="4.5" fill="#d97706" fill-opacity="0.9"/>
<circle cx="758.57" cy="96.65" r="4.5" fill="#d97706" fill-opacity="0.9"/>
<circle cx="775.71" cy="95.70" r="4.5" fill="#d97706" fill-opacity="0.9"/>
<circle cx="792.86" cy="107.27" r="4.5" fill="#d97706" fill-opacity="0.9"/>
<circle cx="810.00" cy="95.67" r="4.5" fill="#d97706" fill-opacity="0.9"/>
<circle cx="827.14" cy="94.97" r="4.5" fill="#d97706" fill-opacity="0.9"/>
<circle cx="844.29" cy="95.81" r="4.5" fill="#d97706" fill-opacity="0.9"/>
<circle cx="861.43" cy="94.17" r="4.5" fill="#d97706" fill-opacity="0.9"/>
<circle cx="878.57" cy="94.52" r="4.5" fill="#d97706" fill-opacity="0.9"/>
<circle cx="895.71" cy="95.63" r="4.5" fill="#d97706" fill-opacity="0.9"/>
<circle cx="912.86" cy="94.52" r="4.5" fill="#d97706" fill-opacity="0.9"/>
<circle cx="930.00" cy="95.25" r="4.5" fill="#d97706" fill-opacity="0.9"/>
<rect x="90" y="32" width="18" height="6" fill="#d97706"/>
<text x="114" y="38" font-size="13" fill="#333333">val</text>
<polyline fill="none" stroke="#059669" stroke-width="3" points="90.00,435.80 107.14,168.99 124.29,191.39 141.43,101.23 158.57,100.67 175.71,101.61 192.86,97.87 210.00,113.81 227.14,172.69 244.29,101.92 261.43,98.60 278.57,103.57 295.71,98.81 312.86,101.12 330.00,107.31 347.14,97.77 364.29,97.42 381.43,97.28 398.57,96.12 415.71,100.95 432.86,153.12 450.00,98.78 467.14,170.35 484.29,97.80 501.43,110.94 518.57,95.74 535.71,99.02 552.86,95.39 570.00,177.93 587.14,94.34 604.29,95.95 621.43,96.26 638.57,95.91 655.71,107.66 672.86,141.76 690.00,97.77 707.14,105.59 724.29,95.15 741.43,94.24 758.57,96.47 775.71,95.04 792.86,106.78 810.00,95.11 827.14,94.90 844.29,94.52 861.43,94.20 878.57,94.59 895.71,94.80 912.86,94.48 930.00,94.27"/>
<circle cx="90.00" cy="435.80" r="4.5" fill="#059669" fill-opacity="0.9"/>
<circle cx="107.14" cy="168.99" r="4.5" fill="#059669" fill-opacity="0.9"/>
<circle cx="124.29" cy="191.39" r="4.5" fill="#059669" fill-opacity="0.9"/>
<circle cx="141.43" cy="101.23" r="4.5" fill="#059669" fill-opacity="0.9"/>
<circle cx="158.57" cy="100.67" r="4.5" fill="#059669" fill-opacity="0.9"/>
<circle cx="175.71" cy="101.61" r="4.5" fill="#059669" fill-opacity="0.9"/>
<circle cx="192.86" cy="97.87" r="4.5" fill="#059669" fill-opacity="0.9"/>
<circle cx="210.00" cy="113.81" r="4.5" fill="#059669" fill-opacity="0.9"/>
<circle cx="227.14" cy="172.69" r="4.5" fill="#059669" fill-opacity="0.9"/>
<circle cx="244.29" cy="101.92" r="4.5" fill="#059669" fill-opacity="0.9"/>
<circle cx="261.43" cy="98.60" r="4.5" fill="#059669" fill-opacity="0.9"/>
<circle cx="278.57" cy="103.57" r="4.5" fill="#059669" fill-opacity="0.9"/>
<circle cx="295.71" cy="98.81" r="4.5" fill="#059669" fill-opacity="0.9"/>
<circle cx="312.86" cy="101.12" r="4.5" fill="#059669" fill-opacity="0.9"/>
<circle cx="330.00" cy="107.31" r="4.5" fill="#059669" fill-opacity="0.9"/>
<circle cx="347.14" cy="97.77" r="4.5" fill="#059669" fill-opacity="0.9"/>
<circle cx="364.29" cy="97.42" r="4.5" fill="#059669" fill-opacity="0.9"/>
<circle cx="381.43" cy="97.28" r="4.5" fill="#059669" fill-opacity="0.9"/>
<circle cx="398.57" cy="96.12" r="4.5" fill="#059669" fill-opacity="0.9"/>
<circle cx="415.71" cy="100.95" r="4.5" fill="#059669" fill-opacity="0.9"/>
<circle cx="432.86" cy="153.12" r="4.5" fill="#059669" fill-opacity="0.9"/>
<circle cx="450.00" cy="98.78" r="4.5" fill="#059669" fill-opacity="0.9"/>
<circle cx="467.14" cy="170.35" r="4.5" fill="#059669" fill-opacity="0.9"/>
<circle cx="484.29" cy="97.80" r="4.5" fill="#059669" fill-opacity="0.9"/>
<circle cx="501.43" cy="110.94" r="4.5" fill="#059669" fill-opacity="0.9"/>
<circle cx="518.57" cy="95.74" r="4.5" fill="#059669" fill-opacity="0.9"/>
<circle cx="535.71" cy="99.02" r="4.5" fill="#059669" fill-opacity="0.9"/>
<circle cx="552.86" cy="95.39" r="4.5" fill="#059669" fill-opacity="0.9"/>
<circle cx="570.00" cy="177.93" r="4.5" fill="#059669" fill-opacity="0.9"/>
<circle cx="587.14" cy="94.34" r="4.5" fill="#059669" fill-opacity="0.9"/>
<circle cx="604.29" cy="95.95" r="4.5" fill="#059669" fill-opacity="0.9"/>
<circle cx="621.43" cy="96.26" r="4.5" fill="#059669" fill-opacity="0.9"/>
<circle cx="638.57" cy="95.91" r="4.5" fill="#059669" fill-opacity="0.9"/>
<circle cx="655.71" cy="107.66" r="4.5" fill="#059669" fill-opacity="0.9"/>
<circle cx="672.86" cy="141.76" r="4.5" fill="#059669" fill-opacity="0.9"/>
<circle cx="690.00" cy="97.77" r="4.5" fill="#059669" fill-opacity="0.9"/>
<circle cx="707.14" cy="105.59" r="4.5" fill="#059669" fill-opacity="0.9"/>
<circle cx="724.29" cy="95.15" r="4.5" fill="#059669" fill-opacity="0.9"/>
<circle cx="741.43" cy="94.24" r="4.5" fill="#059669" fill-opacity="0.9"/>
<circle cx="758.57" cy="96.47" r="4.5" fill="#059669" fill-opacity="0.9"/>
<circle cx="775.71" cy="95.04" r="4.5" fill="#059669" fill-opacity="0.9"/>
<circle cx="792.86" cy="106.78" r="4.5" fill="#059669" fill-opacity="0.9"/>
<circle cx="810.00" cy="95.11" r="4.5" fill="#059669" fill-opacity="0.9"/>
<circle cx="827.14" cy="94.90" r="4.5" fill="#059669" fill-opacity="0.9"/>
<circle cx="844.29" cy="94.52" r="4.5" fill="#059669" fill-opacity="0.9"/>
<circle cx="861.43" cy="94.20" r="4.5" fill="#059669" fill-opacity="0.9"/>
<circle cx="878.57" cy="94.59" r="4.5" fill="#059669" fill-opacity="0.9"/>
<circle cx="895.71" cy="94.80" r="4.5" fill="#059669" fill-opacity="0.9"/>
<circle cx="912.86" cy="94.48" r="4.5" fill="#059669" fill-opacity="0.9"/>
<circle cx="930.00" cy="94.27" r="4.5" fill="#059669" fill-opacity="0.9"/>
<rect x="270" y="32" width="18" height="6" fill="#059669"/>
<text x="294" y="38" font-size="13" fill="#333333">test</text>
</svg>