<svg xmlns="http://www.w3.org/2000/svg" width="960" height="540">
<rect width="100%" height="100%" fill="#ffffff"/>
<text x="480.0" y="30" font-size="22" text-anchor="middle" fill="#111111">Position 5 Accuracy</text>
<text x="20" y="270.0" font-size="16" transform="rotate(-90 20,270.0)" text-anchor="middle" fill="#333333">Accuracy</text>
<text x="480.0" y="520" font-size="16" text-anchor="middle" fill="#333333">Epoch</text>
<line x1="90" y1="60" x2="90" y2="470" stroke="#333333" stroke-width="2"/>
<line x1="90" y1="470" x2="930" y2="470" stroke="#333333" stroke-width="2"/>
<line x1="90" y1="470.00" x2="930" y2="470.00" stroke="#e5e7eb" stroke-width="1"/>
<text x="80" y="475.00" font-size="12" text-anchor="end" fill="#555555">0.4462</text>
<line x1="90" y1="367.50" x2="930" y2="367.50" stroke="#e5e7eb" stroke-width="1"/>
<text x="80" y="372.50" font-size="12" text-anchor="end" fill="#555555">0.5948</text>
<line x1="90" y1="265.00" x2="930" y2="265.00" stroke="#e5e7eb" stroke-width="1"/>
<text x="80" y="270.00" font-size="12" text-anchor="end" fill="#555555">0.7435</text>
<line x1="90" y1="162.50" x2="930" y2="162.50" stroke="#e5e7eb" stroke-width="1"/>
<text x="80" y="167.50" font-size="12" text-anchor="end" fill="#555555">0.8921</text>
<line x1="90" y1="60.00" x2="930" y2="60.00" stroke="#e5e7eb" stroke-width="1"/>
<text x="80" y="65.00" font-size="12" text-anchor="end" fill="#555555">1.0407</text>
<line x1="90.00" y1="60" x2="90.00" y2="470" stroke="#f3f4f6" stroke-width="1"/>
<text x="90.00" y="492" font-size="12" text-anchor="middle" fill="#555555">1</text>
<line x1="107.14" y1="60" x2="107.14" y2="470" stroke="#f3f4f6" stroke-width="1"/>
<text x="107.14" y="492" font-size="12" text-anchor="middle" fill="#555555">2</text>
<line x1="124.29" y1="60" x2="124.29" y2="470" stroke="#f3f4f6" stroke-width="1"/>
<text x="124.29" y="492" font-size="12" text-anchor="middle" fill="#555555">3</text>
<line x1="141.43" y1="60" x2="141.43" y2="470" stroke="#f3f4f6" stroke-width="1"/>
<text x="141.43" y="492" font-size="12" text-anchor="middle" fill="#555555">4</text>
<line x1="158.57" y1="60" x2="158.57" y2="470" stroke="#f3f4f6" stroke-width="1"/>
<text x="158.57" y="492" font-size="12" text-anchor="middle" fill="#555555">5</text>
<line x1="175.71" y1="60" x2="175.71" y2="470" stroke="#f3f4f6" stroke-width="1"/>
<text x="175.71" y="492" font-size="12" text-anchor="middle" fill="#555555">6</text>
<line x1="192.86" y1="60" x2="192.86" y2="470" stroke="#f3f4f6" stroke-width="1"/>
<text x="192.86" y="492" font-size="12" text-anchor="middle" fill="#555555">7</text>
<line x1="210.00" y1="60" x2="210.00" y2="470" stroke="#f3f4f6" stroke-width="1"/>
<text x="210.00" y="492" font-size="12" text-anchor="middle" fill="#555555">8</text>
<line x1="227.14" y1="60" x2="227.14" y2="470" stroke="#f3f4f6" stroke-width="1"/>
<text x="227.14" y="492" font-size="12" text-anchor="middle" fill="#555555">9</text>
<line x1="244.29" y1="60" x2="244.29" y2="470" stroke="#f3f4f6" stroke-width="1"/>
<text x="244.29" y="492" font-size="12" text-anchor="middle" fill="#555555">10</text>
<line x1="261.43" y1="60" x2="261.43" y2="470" stroke="#f3f4f6" stroke-width="1"/>
<text x="261.43" y="492" font-size="12" text-anchor="middle" fill="#555555">11</text>
<line x1="278.57" y1="60" x2="278.57" y2="470" stroke="#f3f4f6" stroke-width="1"/>
<text x="278.57" y="492" font-size="12" text-anchor="middle" fill="#555555">12</text>
<line x1="295.71" y1="60" x2="295.71" y2="470" stroke="#f3f4f6" stroke-width="1"/>
<text x="295.71" y="492" font-size="12" text-anchor="middle" fill="#555555">13</text>
<line x1="312.86" y1="60" x2="312.86" y2="470" stroke="#f3f4f6" stroke-width="1"/>
<text x="312.86" y="492" font-size="12" text-anchor="middle" fill="#555555">14</text>
<line x1="330.00" y1="60" x2="330.00" y2="470" stroke="#f3f4f6" stroke-width="1"/>
<text x="330.00" y="492" font-size="12" text-anchor="middle" fill="#555555">15</text>
<line x1="347.14" y1="60" x2="347.14" y2="470" stroke="#f3f4f6" stroke-width="1"/>
<text x="347.14" y="492" font-size="12" text-anchor="middle" fill="#555555">16</text>
<line x1="364.29" y1="60" x2="364.29" y2="470" stroke="#f3f4f6" stroke-width="1"/>
<text x="364.29" y="492" font-size="12" text-anchor="middle" fill="#555555">17</text>
<line x1="381.43" y1="60" x2="381.43" y2="470" stroke="#f3f4f6" stroke-width="1"/>
<text x="381.43" y="492" font-size="12" text-anchor="middle" fill="#555555">18</text>
<line x1="398.57" y1="60" x2="398.57" y2="470" stroke="#f3f4f6" stroke-width="1"/>
<text x="398.57" y="492" font-size="12" text-anchor="middle" fill="#555555">19</text>
<line x1="415.71" y1="60" x2="415.71" y2="470" stroke="#f3f4f6" stroke-width="1"/>
<text x="415.71" y="492" font-size="12" text-anchor="middle" fill="#555555">20</text>
<line x1="432.86" y1="60" x2="432.86" y2="470" stroke="#f3f4f6" stroke-width="1"/>
<text x="432.86" y="492" font-size="12" text-anchor="middle" fill="#555555">21</text>
<line x1="450.00" y1="60" x2="450.00" y2="470" stroke="#f3f4f6" stroke-width="1"/>
<text x="450.00" y="492" font-size="12" text-anchor="middle" fill="#555555">22</text>
<line x1="467.14" y1="60" x2="467.14" y2="470" stroke="#f3f4f6" stroke-width="1"/>
<text x="467.14" y="492" font-size="12" text-anchor="middle" fill="#555555">23</text>
<line x1="484.29" y1="60" x2="484.29" y2="470" stroke="#f3f4f6" stroke-width="1"/>
<text x="484.29" y="492" font-size="12" text-anchor="middle" fill="#555555">24</text>
<line x1="501.43" y1="60" x2="501.43" y2="470" stroke="#f3f4f6" stroke-width="1"/>
<text x="501.43" y="492" font-size="12" text-anchor="middle" fill="#555555">25</text>
<line x1="518.57" y1="60" x2="518.57" y2="470" stroke="#f3f4f6" stroke-width="1"/>
<text x="518.57" y="492" font-size="12" text-anchor="middle" fill="#555555">26</text>
<line x1="535.71" y1="60" x2="535.71" y2="470" stroke="#f3f4f6" stroke-width="1"/>
<text x="535.71" y="492" font-size="12" text-anchor="middle" fill="#555555">27</text>
<line x1="552.86" y1="60" x2="552.86" y2="470" stroke="#f3f4f6" stroke-width="1"/>
<text x="552.86" y="492" font-size="12" text-anchor="middle" fill="#555555">28</text>
<line x1="570.00" y1="60" x2="570.00" y2="470" stroke="#f3f4f6" stroke-width="1"/>
<text x="570.00" y="492" font-size="12" text-anchor="middle" fill="#555555">29</text>
<line x1="587.14" y1="60" x2="587.14" y2="470" stroke="#f3f4f6" stroke-width="1"/>
<text x="587.14" y="492" font-size="12" text-anchor="middle" fill="#555555">30</text>
<line x1="604.29" y1="60" x2="604.29" y2="470" stroke="#f3f4f6" stroke-width="1"/>
<text x="604.29" y="492" font-size="12" text-anchor="middle" fill="#555555">31</text>
<line x1="621.43" y1="60" x2="621.43" y2="470" stroke="#f3f4f6" stroke-width="1"/>
<text x="621.43" y="492" font-size="12" text-anchor="middle" fill="#555555">32</text>
<line x1="638.57" y1="60" x2="638.57" y2="470" stroke="#f3f4f6" stroke-width="1"/>
<text x="638.57" y="492" font-size="12" text-anchor="middle" fill="#555555">33</text>
<line x1="655.71" y1="60" x2="655.71" y2="470" stroke="#f3f4f6" stroke-width="1"/>
<text x="655.71" y="492" font-size="12" text-anchor="middle" fill="#555555">34</text>
<line x1="672.86" y1="60" x2="672.86" y2="470" stroke="#f3f4f6" stroke-width="1"/>
<text x="672.86" y="492" font-size="12" text-anchor="middle" fill="#555555">35</text>
<line x1="690.00" y1="60" x2="690.00" y2="470" stroke="#f3f4f6" stroke-width="1"/>
<text x="690.00" y="492" font-size="12" text-anchor="middle" fill="#555555">36</text>
<line x1="707.14" y1="60" x2="707.14" y2="470" stroke="#f3f4f6" stroke-width="1"/>
<text x="707.14" y="492" font-size="12" text-anchor="middle" fill="#555555">37</text>
<line x1="724.29" y1="60" x2="724.29" y2="470" stroke="#f3f4f6" stroke-width="1"/>
<text x="724.29" y="492" font-size="12" text-anchor="middle" fill="#555555">38</text>
<line x1="741.43" y1="60" x2="741.43" y2="470" stroke="#f3f4f6" stroke-width="1"/>
<text x="741.43" y="492" font-size="12" text-anchor="middle" fill="#555555">39</text>
<line x1="758.57" y1="60" x2="758.57" y2="470" stroke="#f3f4f6" stroke-width="1"/>
<text x="758.57" y="492" font-size="12" text-anchor="middle" fill="#555555">40</text>
<line x1="775.71" y1="60" x2="775.71" y2="470" stroke="#f3f4f6" stroke-width="1"/>
<text x="775.71" y="492" font-size="12" text-anchor="middle" fill="#555555">41</text>
<line x1="792.86" y1="60" x2="792.86" y2="470" stroke="#f3f4f6" stroke-width="1"/>
<text x="792.86" y="492" font-size="12" text-anchor="middle" fill="#555555">42</text>
<line x1="810.00" y1="60" x2="810.00" y2="470" stroke="#f3f4f6" stroke-width="1"/>
<text x="810.00" y="492" font-size="12" text-anchor="middle" fill="#555555">43</text>
<line x1="827.14" y1="60" x2="827.14" y2="470" stroke="#f3f4f6" stroke-width="1"/>
<text x="827.14" y="492" font-size="12" text-anchor="middle" fill="#555555">44</text>
<line x1="844.29" y1="60" x2="844.29" y2="470" stroke="#f3f4f6" stroke-width="1"/>
<text x="844.29" y="492" font-size="12" text-anchor="middle" fill="#555555">45</text>
<line x1="861.43" y1="60" x2="861.43" y2="470" stroke="#f3f4f6" stroke-width="1"/>
<text x="861.43" y="492" font-size="12" text-anchor="middle" fill="#555555">46</text>
<line x1="878.57" y1="60" x2="878.57" y2="470" stroke="#f3f4f6" stroke-width="1"/>
<text x="878.57" y="492" font-size="12" text-anchor="middle" fill="#555555">47</text>
<line x1="895.71" y1="60" x2="895.71" y2="470" stroke="#f3f4f6" stroke-width="1"/>
<text x="895.71" y="492" font-size="12" text-anchor="middle" fill="#555555">48</text>
<line x1="912.86" y1="60" x2="912.86" y2="470" stroke="#f3f4f6" stroke-width="1"/>
<text x="912.86" y="492" font-size="12" text-anchor="middle" fill="#555555">49</text>
<line x1="930.00" y1="60" x2="930.00" y2="470" stroke="#f3f4f6" stroke-width="1"/>
<text x="930.00" y="492" font-size="12" text-anchor="middle" fill="#555555">50</text>
<polyline fill="none" stroke="#d97706" stroke-width="3" points="90.00,434.27 107.14,178.80 124.29,192.36 141.43,98.17 158.57,100.10 175.71,102.81 192.86,101.20 210.00,117.29 227.14,161.19 244.29,102.49 261.43,96.74 278.57,105.94 295.71,100.83 312.86,102.58 330.00,110.72 347.14,97.34 364.29,98.07 381.43,97.15 398.57,94.90 415.71,102.99 432.86,171.86 450.00,98.76 467.14,182.39 484.29,96.79 501.43,118.30 518.57,95.27 535.71,100.60 552.86,94.35 570.00,200.82 587.14,94.99 604.29,95.68 621.43,97.06 638.57,97.25 655.71,108.97 672.86,157.01 690.00,98.03 707.14,106.35 724.29,94.58 741.43,94.58 758.57,95.45 775.71,94.86 792.86,108.88 810.00,94.90 827.14,95.04 844.29,95.68 861.43,94.17 878.57,94.26 895.71,94.30 912.86,94.99 930.00,95.18"/>
<circle cx="90.00" cy="434.27" r="4.5" fill="#d97706" fill-opacity="0.9"/>
<circle cx="107.14" cy="178.80" r="4.5" fill="#d97706" fill-opacity="0.9"/>
<circle cx="124.29" cy="192.36" r="4.5" fill="#d97706" fill-opacity="0.9"/>
<circle cx="141.43" cy="98.17" r="4.5" fill="#d97706" fill-opacity="0.9"/>
<circle cx="158.57" cy="100.10" r="4.5" fill="#d97706" fill-opacity="0.9"/>
<circle cx="175.71" cy="102.81" r="4.5" fill="#d97706" fill-opacity="0.9"/>
<circle cx="192.86" cy="101.20" r="4.5" fill="#d97706" fill-opacity="0.9"/>
<circle cx="210.00" cy="117.29" r="4.5" fill="#d97706" fill-opacity="0.9"/>
<circle cx="227.14" cy="161.19" r="4.5" fill="#d97706" fill-opacity="0.9"/>
<circle cx="244.29" cy="102.49" r="4.5" fill="#d97706" fill-opacity="0.9"/>
<circle cx="261.43" cy="96.74" r="4.5" fill="#d97706" fill-opacity="0.9"/>
<circle cx="278.57" cy="105.94" r="4.5" fill="#d97706" fill-opacity="0.9"/>
<circle cx="295.71" cy="100.83" r="4.5" fill="#d97706" fill-opacity="0.9"/>
<circle cx="312.86" cy="102.58" r="4.5" fill="#d97706" fill-opacity="0.9"/>
<circle cx="330.00" cy="110.72" r="4.5" fill="#d97706" fill-opacity="0.9"/>
<circle cx="347.14" cy="97.34" r="4.5" fill="#d97706" fill-opacity="0.9"/>
<circle cx="364.29" cy="98.07" r="4.5" fill="#d97706" fill-opacity="0.9"/>
<circle cx="381.43" cy="97.15" r="4.5" fill="#d97706" fill-opacity="0.9"/>
<circle cx="398.57" cy="94.90" r="4.5" fill="#d97706" fill-opacity="0.9"/>
<circle cx="415.71" cy="102.99" r="4.5" fill="#d97706" fill-opacity="0.9"/>
<circle cx="432.86" cy="171.86" r="4.5" fill="#d97706" fill-opacity="0.9"/>
<circle cx="450.00" cy="98.76" r="4.5" fill="#d97706" fill-opacity="0.9"/>
<circle cx="467.14" cy="182.39" r="4.5" fill="#d97706" fill-opacity="0.9"/>
<circle cx="484.29" cy="96.79" r="4.5" fill="#d97706" fill-opacity="0.9"/>
<circle cx="501.43" cy="118.30" r="4.5" fill="#d97706" fill-opacity="0.9"/>
<circle cx="518.57" cy="95.27" r="4.5" fill="#d97706" fill-opacity="0.9"/>
<circle cx="535.71" cy="100.60" r="4.5" fill="#d97706" fill-opacity="0.9"/>
<circle cx="552.86" cy="94.35" r="4.5" fill="#d97706" fill-opacity="0.9"/>
<circle cx="570.00" cy="200.82" r="4.5" fill="#d97706" fill-opacity="0.9"/>
<circle cx="587.14" cy="94.99" r="4.5" fill="#d97706" fill-opacity="0.9"/>
<circle cx="604.29" cy="95.68" r="4.5" fill="#d97706" fill-opacity="0.9"/>
<circle cx="621.43" cy="97.06" r="4.5" fill="#d97706" fill-opacity="0.9"/>
<circle cx="638.57" cy="97.25" r="4.5" fill="#d97706" fill-opacity="0.9"/>
<circle cx="655.71" cy="108.97" r="4.5" fill="#d97706" fill-opacity="0.9"/>
<circle cx="672.86" cy="157.01" r="4.5" fill="#d97706" fill-opacity="0.9"/>
<circle cx="690.00" cy="98.03" r="4.5" fill="#d97706" fill-opacity="0.9"/>
<circle cx="707.14" cy="106.35" r="4.5" fill="#d97706" fill-opacity="0.9"/>
<circle cx="724.29" cy="94.58" r="4.5" fill="#d97706" fill-opacity="0.9"/>
<circle cx="741.43" cy="94.58" r="4.5" fill="#d97706" fill-opacity="0.9"/>
<circle cx="758.57" cy="95.45" r="4.5" fill="#d97706" fill-opacity="0.9"/>
<circle cx="775.71" cy="94.86" r="4.5" fill="#d97706" fill-opacity="0.9"/>
<circle cx="792.86" cy="108.88" r="4.5" fill="#d97706" fill-opacity="0.9"/>
<circle cx="810.00" cy="94.90" r="4.5" fill="#d97706" fill-opacity="0.9"/>
<circle cx="827.14" cy="95.04" r="4.5" fill="#d97706" fill-opacity="0.9"/>
<circle cx="844.29" cy="95.68" r="4.5" fill="#d97706" fill-opacity="0.9"/>
<circle cx="861.43" cy="94.17" r="4.5" fill="#d97706" fill-opacity="0.9"/>
<circle cx="878.57" cy="94.26" r="4.5" fill="#d97706" fill-opacity="0.9"/>
<circle cx="895.71" cy="94.30" r="4.5" fill="#d97706" fill-opacity="0.9"/>
<circle cx="912.86" cy="94.99" r="4.5" fill="#d97706" fill-opacity="0.9"/>
<circle cx="930.00" cy="95.18" r="4.5" fill="#d97706" fill-opacity="0.9"/>
<rect x="90" y="32" width="18" height="6" fill="#d97706"/>
<text x="114" y="38" font-size="13" fill="#333333">val</text>
<polyline fill="none" stroke="#059669" stroke-width="3" points="90.00,435.83 107.14,181.79 124.29,194.16 141.43,98.21 158.57,101.94 175.71,104.83 192.86,102.90 210.00,118.16 227.14,161.98 244.29,104.00 261.43,98.21 278.57,106.63 295.71,101.43 312.86,103.32 330.00,112.42 347.14,98.53 364.29,98.40 381.43,97.57 398.57,96.10 415.71,102.07 432.86,169.65 450.00,100.74 467.14,185.74 484.29,98.21 501.43,118.67 518.57,96.10 535.71,100.97 552.86,95.09 570.00,202.85 587.14,95.64 604.29,95.96 621.43,98.67 638.57,98.40 655.71,109.25 672.86,158.21 690.00,98.72 707.14,106.40 724.29,95.13 741.43,94.63 758.57,95.50 775.71,94.76 792.86,109.15 810.00,94.99 827.14,95.32 844.29,96.14 861.43,94.58 878.57,94.17 895.71,96.05 912.86,95.27 930.00,95.36"/>
<circle cx="90.00" cy="435.83" r="4.5" fill="#059669" fill-opacity="0.9"/>
<circle cx="107.14" cy="181.79" r="4.5" fill="#059669" fill-opacity="0.9"/>
<circle cx="124.29" cy="194.16" r="4.5" fill="#059669" fill-opacity="0.9"/>
<circle cx="141.43" cy="98.21" r="4.5" fill="#059669" fill-opacity="0.9"/>
<circle cx="158.57" cy="101.94" r="4.5" fill="#059669" fill-opacity="0.9"/>
<circle cx="175.71" cy="104.83" r="4.5" fill="#059669" fill-opacity="0.9"/>
<circle cx="192.86" cy="102.90" r="4.5" fill="#059669" fill-opacity="0.9"/>
<circle cx="210.00" cy="118.16" r="4.5" fill="#059669" fill-opacity="0.9"/>
<circle cx="227.14" cy="161.98" r="4.5" fill="#059669" fill-opacity="0.9"/>
<circle cx="244.29" cy="104.00" r="4.5" fill="#059669" fill-opacity="0.9"/>
<circle cx="261.43" cy="98.21" r="4.5" fill="#059669" fill-opacity="0.9"/>
<circle cx="278.57" cy="106.63" r="4.5" fill="#059669" fill-opacity="0.9"/>
<circle cx="295.71" cy="101.43" r="4.5" fill="#059669" fill-opacity="0.9"/>
<circle cx="312.86" cy="103.32" r="4.5" fill="#059669" fill-opacity="0.9"/>
<circle cx="330.00" cy="112.42" r="4.5" fill="#059669" fill-opacity="0.9"/>
<circle cx="347.14" cy="98.53" r="4.5" fill="#059669" fill-opacity="0.9"/>
<circle cx="364.29" cy="98.40" r="4.5" fill="#059669" fill-opacity="0.9"/>
<circle cx="381.43" cy="97.57" r="4.5" fill="#059669" fill-opacity="0.9"/>
<circle cx="398.57" cy="96.10" r="4.5" fill="#059669" fill-opacity="0.9"/>
<circle cx="415.71" cy="102.07" r="4.5" fill="#059669" fill-opacity="0.9"/>
<circle cx="432.86" cy="169.65" r="4.5" fill="#059669" fill-opacity="0.9"/>
<circle cx="450.00" cy="100.74" r="4.5" fill="#059669" fill-opacity="0.9"/>
<circle cx="467.14" cy="185.74" r="4.5" fill="#059669" fill-opacity="0.9"/>
<circle cx="484.29" cy="98.21" r="4.5" fill="#059669" fill-opacity="0.9"/>
<circle cx="501.43" cy="118.67" r="4.5" fill="#059669" fill-opacity="0.9"/>
<circle cx="518.57" cy="96.10" r="4.5" fill="#059669" fill-opacity="0.9"/>
<circle cx="535.71" cy="100.97" r="4.5" fill="#059669" fill-opacity="0.9"/>
<circle cx="552.86" cy="95.09" r="4.5" fill="#059669" fill-opacity="0.9"/>
<circle cx="570.00" cy="202.85" r="4.5" fill="#059669" fill-opacity="0.9"/>
<circle cx="587.14" cy="95.64" r="4.5" fill="#059669" fill-opacity="0.9"/>
<circle cx="604.29" cy="95.96" r="4.5" fill="#059669" fill-opacity="0.9"/>
<circle cx="621.43" cy="98.67" r="4.5" fill="#059669" fill-opacity="0.9"/>
<circle cx="638.57" cy="98.40" r="4.5" fill="#059669" fill-opacity="0.9"/>
<circle cx="655.71" cy="109.25" r="4.5" fill="#059669" fill-opacity="0.9"/>
<circle cx="672.86" cy="158.21" r="4.5" fill="#059669" fill-opacity="0.9"/>
<circle cx="690.00" cy="98.72" r="4.5" fill="#059669" fill-opacity="0.9"/>
<circle cx="707.14" cy="106.40" r="4.5" fill="#059669" fill-opacity="0.9"/>
<circle cx="724.29" cy="95.13" r="4.5" fill="#059669" fill-opacity="0.9"/>
<circle cx="741.43" cy="94.63" r="4.5" fill="#059669" fill-opacity="0.9"/>
<circle cx="758.57" cy="95.50" r="4.5" fill="#059669" fill-opacity="0.9"/>
<circle cx="775.71" cy="94.76" r="4.5" fill="#059669" fill-opacity="0.9"/>
<circle cx="792.86" cy="109.15" r="4.5" fill="#059669" fill-opacity="0.9"/>
<circle cx="810.00" cy="94.99" r="4.5" fill="#059669" fill-opacity="0.9"/>
<circle cx="827.14" cy="95.32" r="4.5" fill="#059669" fill-opacity="0.9"/>
<circle cx="844.29" cy="96.14" r="4.5" fill="#059669" fill-opacity="0.9"/>
<circle cx="861.43" cy="94.58" r="4.5" fill="#059669" fill-opacity="0.9"/>
<circle cx="878.57" cy="94.17" r="4.5" fill="#059669" fill-opacity="0.9"/>
<circle cx="895.71" cy="96.05" r="4.5" fill="#059669" fill-opacity="0.9"/>
<circle cx="912.86" cy="95.27" r="4.5" fill="#059669" fill-opacity="0.9"/>
<circle cx="930.00" cy="95.36" r="4.5" fill="#059669" fill-opacity="0.9"/>
<rect x="270" y="32" width="18" height="6" fill="#059669"/>
<text x="294" y="38" font-size="13" fill="#333333">test</text>
</svg>