<svg xmlns="http://www.w3.org/2000/svg" width="960" height="540">
<rect width="100%" height="100%" fill="#ffffff"/>
<text x="480.0" y="30" font-size="22" text-anchor="middle" fill="#111111">Position 3 Accuracy</text>
<text x="20" y="270.0" font-size="16" transform="rotate(-90 20,270.0)" text-anchor="middle" fill="#333333">Accuracy</text>
<text x="480.0" y="520" font-size="16" text-anchor="middle" fill="#333333">Epoch</text>
<line x1="90" y1="60" x2="90" y2="470" stroke="#333333" stroke-width="2"/>
<line x1="90" y1="470" x2="930" y2="470" stroke="#333333" stroke-width="2"/>
<line x1="90" y1="470.00" x2="930" y2="470.00" stroke="#e5e7eb" stroke-width="1"/>
<text x="80" y="475.00" font-size="12" text-anchor="end" fill="#555555">0.2842</text>
<line x1="90" y1="367.50" x2="930" y2="367.50" stroke="#e5e7eb" stroke-width="1"/>
<text x="80" y="372.50" font-size="12" text-anchor="end" fill="#555555">0.4764</text>
<line x1="90" y1="265.00" x2="930" y2="265.00" stroke="#e5e7eb" stroke-width="1"/>
<text x="80" y="270.00" font-size="12" text-anchor="end" fill="#555555">0.6687</text>
<line x1="90" y1="162.50" x2="930" y2="162.50" stroke="#e5e7eb" stroke-width="1"/>
<text x="80" y="167.50" font-size="12" text-anchor="end" fill="#555555">0.8609</text>
<line x1="90" y1="60.00" x2="930" y2="60.00" stroke="#e5e7eb" stroke-width="1"/>
<text x="80" y="65.00" font-size="12" text-anchor="end" fill="#555555">1.0531</text>
<line x1="90.00" y1="60" x2="90.00" y2="470" stroke="#f3f4f6" stroke-width="1"/>
<text x="90.00" y="492" font-size="12" text-anchor="middle" fill="#555555">1</text>
<line x1="107.14" y1="60" x2="107.14" y2="470" stroke="#f3f4f6" stroke-width="1"/>
<text x="107.14" y="492" font-size="12" text-anchor="middle" fill="#555555">2</text>
<line x1="124.29" y1="60" x2="124.29" y2="470" stroke="#f3f4f6" stroke-width="1"/>
<text x="124.29" y="492" font-size="12" text-anchor="middle" fill="#555555">3</text>
<line x1="141.43" y1="60" x2="141.43" y2="470" stroke="#f3f4f6" stroke-width="1"/>
<text x="141.43" y="492" font-size="12" text-anchor="middle" fill="#555555">4</text>
<line x1="158.57" y1="60" x2="158.57" y2="470" stroke="#f3f4f6" stroke-width="1"/>
<text x="158.57" y="492" font-size="12" text-anchor="middle" fill="#555555">5</text>
<line x1="175.71" y1="60" x2="175.71" y2="470" stroke="#f3f4f6" stroke-width="1"/>
<text x="175.71" y="492" font-size="12" text-anchor="middle" fill="#555555">6</text>
<line x1="192.86" y1="60" x2="192.86" y2="470" stroke="#f3f4f6" stroke-width="1"/>
<text x="192.86" y="492" font-size="12" text-anchor="middle" fill="#555555">7</text>
<line x1="210.00" y1="60" x2="210.00" y2="470" stroke="#f3f4f6" stroke-width="1"/>
<text x="210.00" y="492" font-size="12" text-anchor="middle" fill="#555555">8</text>
<line x1="227.14" y1="60" x2="227.14" y2="470" stroke="#f3f4f6" stroke-width="1"/>
<text x="227.14" y="492" font-size="12" text-anchor="middle" fill="#555555">9</text>
<line x1="244.29" y1="60" x2="244.29" y2="470" stroke="#f3f4f6" stroke-width="1"/>
<text x="244.29" y="492" font-size="12" text-anchor="middle" fill="#555555">10</text>
<line x1="261.43" y1="60" x2="261.43" y2="470" stroke="#f3f4f6" stroke-width="1"/>
<text x="261.43" y="492" font-size="12" text-anchor="middle" fill="#555555">11</text>
<line x1="278.57" y1="60" x2="278.57" y2="470" stroke="#f3f4f6" stroke-width="1"/>
<text x="278.57" y="492" font-size="12" text-anchor="middle" fill="#555555">12</text>
<line x1="295.71" y1="60" x2="295.71" y2="470" stroke="#f3f4f6" stroke-width="1"/>
<text x="295.71" y="492" font-size="12" text-anchor="middle" fill="#555555">13</text>
<line x1="312.86" y1="60" x2="312.86" y2="470" stroke="#f3f4f6" stroke-width="1"/>
<text x="312.86" y="492" font-size="12" text-anchor="middle" fill="#555555">14</text>
<line x1="330.00" y1="60" x2="330.00" y2="470" stroke="#f3f4f6" stroke-width="1"/>
<text x="330.00" y="492" font-size="12" text-anchor="middle" fill="#555555">15</text>
<line x1="347.14" y1="60" x2="347.14" y2="470" stroke="#f3f4f6" stroke-width="1"/>
<text x="347.14" y="492" font-size="12" text-anchor="middle" fill="#555555">16</text>
<line x1="364.29" y1="60" x2="364.29" y2="470" stroke="#f3f4f6" stroke-width="1"/>
<text x="364.29" y="492" font-size="12" text-anchor="middle" fill="#555555">17</text>
<line x1="381.43" y1="60" x2="381.43" y2="470" stroke="#f3f4f6" stroke-width="1"/>
<text x="381.43" y="492" font-size="12" text-anchor="middle" fill="#555555">18</text>
<line x1="398.57" y1="60" x2="398.57" y2="470" stroke="#f3f4f6" stroke-width="1"/>
<text x="398.57" y="492" font-size="12" text-anchor="middle" fill="#555555">19</text>
<line x1="415.71" y1="60" x2="415.71" y2="470" stroke="#f3f4f6" stroke-width="1"/>
<text x="415.71" y="492" font-size="12" text-anchor="middle" fill="#555555">20</text>
<line x1="432.86" y1="60" x2="432.86" y2="470" stroke="#f3f4f6" stroke-width="1"/>
<text x="432.86" y="492" font-size="12" text-anchor="middle" fill="#555555">21</text>
<line x1="450.00" y1="60" x2="450.00" y2="470" stroke="#f3f4f6" stroke-width="1"/>
<text x="450.00" y="492" font-size="12" text-anchor="middle" fill="#555555">22</text>
<line x1="467.14" y1="60" x2="467.14" y2="470" stroke="#f3f4f6" stroke-width="1"/>
<text x="467.14" y="492" font-size="12" text-anchor="middle" fill="#555555">23</text>
<line x1="484.29" y1="60" x2="484.29" y2="470" stroke="#f3f4f6" stroke-width="1"/>
<text x="484.29" y="492" font-size="12" text-anchor="middle" fill="#555555">24</text>
<line x1="501.43" y1="60" x2="501.43" y2="470" stroke="#f3f4f6" stroke-width="1"/>
<text x="501.43" y="492" font-size="12" text-anchor="middle" fill="#555555">25</text>
<line x1="518.57" y1="60" x2="518.57" y2="470" stroke="#f3f4f6" stroke-width="1"/>
<text x="518.57" y="492" font-size="12" text-anchor="middle" fill="#555555">26</text>
<line x1="535.71" y1="60" x2="535.71" y2="470" stroke="#f3f4f6" stroke-width="1"/>
<text x="535.71" y="492" font-size="12" text-anchor="middle" fill="#555555">27</text>
<line x1="552.86" y1="60" x2="552.86" y2="470" stroke="#f3f4f6" stroke-width="1"/>
<text x="552.86" y="492" font-size="12" text-anchor="middle" fill="#555555">28</text>
<line x1="570.00" y1="60" x2="570.00" y2="470" stroke="#f3f4f6" stroke-width="1"/>
<text x="570.00" y="492" font-size="12" text-anchor="middle" fill="#555555">29</text>
<line x1="587.14" y1="60" x2="587.14" y2="470" stroke="#f3f4f6" stroke-width="1"/>
<text x="587.14" y="492" font-size="12" text-anchor="middle" fill="#555555">30</text>
<line x1="604.29" y1="60" x2="604.29" y2="470" stroke="#f3f4f6" stroke-width="1"/>
<text x="604.29" y="492" font-size="12" text-anchor="middle" fill="#555555">31</text>
<line x1="621.43" y1="60" x2="621.43" y2="470" stroke="#f3f4f6" stroke-width="1"/>
<text x="621.43" y="492" font-size="12" text-anchor="middle" fill="#555555">32</text>
<line x1="638.57" y1="60" x2="638.57" y2="470" stroke="#f3f4f6" stroke-width="1"/>
<text x="638.57" y="492" font-size="12" text-anchor="middle" fill="#555555">33</text>
<line x1="655.71" y1="60" x2="655.71" y2="470" stroke="#f3f4f6" stroke-width="1"/>
<text x="655.71" y="492" font-size="12" text-anchor="middle" fill="#555555">34</text>
<line x1="672.86" y1="60" x2="672.86" y2="470" stroke="#f3f4f6" stroke-width="1"/>
<text x="672.86" y="492" font-size="12" text-anchor="middle" fill="#555555">35</text>
<line x1="690.00" y1="60" x2="690.00" y2="470" stroke="#f3f4f6" stroke-width="1"/>
<text x="690.00" y="492" font-size="12" text-anchor="middle" fill="#555555">36</text>
<line x1="707.14" y1="60" x2="707.14" y2="470" stroke="#f3f4f6" stroke-width="1"/>
<text x="707.14" y="492" font-size="12" text-anchor="middle" fill="#555555">37</text>
<line x1="724.29" y1="60" x2="724.29" y2="470" stroke="#f3f4f6" stroke-width="1"/>
<text x="724.29" y="492" font-size="12" text-anchor="middle" fill="#555555">38</text>
<line x1="741.43" y1="60" x2="741.43" y2="470" stroke="#f3f4f6" stroke-width="1"/>
<text x="741.43" y="492" font-size="12" text-anchor="middle" fill="#555555">39</text>
<line x1="758.57" y1="60" x2="758.57" y2="470" stroke="#f3f4f6" stroke-width="1"/>
<text x="758.57" y="492" font-size="12" text-anchor="middle" fill="#555555">40</text>
<line x1="775.71" y1="60" x2="775.71" y2="470" stroke="#f3f4f6" stroke-width="1"/>
<text x="775.71" y="492" font-size="12" text-anchor="middle" fill="#555555">41</text>
<line x1="792.86" y1="60" x2="792.86" y2="470" stroke="#f3f4f6" stroke-width="1"/>
<text x="792.86" y="492" font-size="12" text-anchor="middle" fill="#555555">42</text>
<line x1="810.00" y1="60" x2="810.00" y2="470" stroke="#f3f4f6" stroke-width="1"/>
<text x="810.00" y="492" font-size="12" text-anchor="middle" fill="#555555">43</text>
<line x1="827.14" y1="60" x2="827.14" y2="470" stroke="#f3f4f6" stroke-width="1"/>
<text x="827.14" y="492" font-size="12" text-anchor="middle" fill="#555555">44</text>
<line x1="844.29" y1="60" x2="844.29" y2="470" stroke="#f3f4f6" stroke-width="1"/>
<text x="844.29" y="492" font-size="12" text-anchor="middle" fill="#555555">45</text>
<line x1="861.43" y1="60" x2="861.43" y2="470" stroke="#f3f4f6" stroke-width="1"/>
<text x="861.43" y="492" font-size="12" text-anchor="middle" fill="#555555">46</text>
<line x1="878.57" y1="60" x2="878.57" y2="470" stroke="#f3f4f6" stroke-width="1"/>
<text x="878.57" y="492" font-size="12" text-anchor="middle" fill="#555555">47</text>
<line x1="895.71" y1="60" x2="895.71" y2="470" stroke="#f3f4f6" stroke-width="1"/>
<text x="895.71" y="492" font-size="12" text-anchor="middle" fill="#555555">48</text>
<line x1="912.86" y1="60" x2="912.86" y2="470" stroke="#f3f4f6" stroke-width="1"/>
<text x="912.86" y="492" font-size="12" text-anchor="middle" fill="#555555">49</text>
<line x1="930.00" y1="60" x2="930.00" y2="470" stroke="#f3f4f6" stroke-width="1"/>
<text x="930.00" y="492" font-size="12" text-anchor="middle" fill="#555555">50</text>
<polyline fill="none" stroke="#d97706" stroke-width="3" points="90.00,435.83 107.14,183.35 124.29,187.37 141.43,102.70 158.57,104.16 175.71,104.62 192.86,101.35 210.00,114.85 227.14,160.82 244.29,103.91 261.43,99.75 278.57,105.65 295.71,100.96 312.86,103.27 330.00,109.63 347.14,98.15 364.29,99.18 381.43,98.93 398.57,95.66 415.71,103.52 432.86,149.40 450.00,100.00 467.14,147.24 484.29,100.10 501.43,106.39 518.57,97.47 535.71,99.07 552.86,96.41 570.00,152.50 587.14,95.20 604.29,98.29 621.43,98.01 638.57,96.51 655.71,112.12 672.86,131.10 690.00,97.79 707.14,107.92 724.29,97.15 741.43,96.09 758.57,96.41 775.71,94.34 792.86,106.39 810.00,95.48 827.14,96.12 844.29,96.44 861.43,95.45 878.57,95.55 895.71,96.05 912.86,95.27 930.00,96.44"/>
<circle cx="90.00" cy="435.83" r="4.5" fill="#d97706" fill-opacity="0.9"/>
<circle cx="107.14" cy="183.35" r="4.5" fill="#d97706" fill-opacity="0.9"/>
<circle cx="124.29" cy="187.37" r="4.5" fill="#d97706" fill-opacity="0.9"/>
<circle cx="141.43" cy="102.70" r="4.5" fill="#d97706" fill-opacity="0.9"/>
<circle cx="158.57" cy="104.16" r="4.5" fill="#d97706" fill-opacity="0.9"/>
<circle cx="175.71" cy="104.62" r="4.5" fill="#d97706" fill-opacity="0.9"/>
<circle cx="192.86" cy="101.35" r="4.5" fill="#d97706" fill-opacity="0.9"/>
<circle cx="210.00" cy="114.85" r="4.5" fill="#d97706" fill-opacity="0.9"/>
<circle cx="227.14" cy="160.82" r="4.5" fill="#d97706" fill-opacity="0.9"/>
<circle cx="244.29" cy="103.91" r="4.5" fill="#d97706" fill-opacity="0.9"/>
<circle cx="261.43" cy="99.75" r="4.5" fill="#d97706" fill-opacity="0.9"/>
<circle cx="278.57" cy="105.65" r="4.5" fill="#d97706" fill-opacity="0.9"/>
<circle cx="295.71" cy="100.96" r="4.5" fill="#d97706" fill-opacity="0.9"/>
<circle cx="312.86" cy="103.27" r="4.5" fill="#d97706" fill-opacity="0.9"/>
<circle cx="330.00" cy="109.63" r="4.5" fill="#d97706" fill-opacity="0.9"/>
<circle cx="347.14" cy="98.15" r="4.5" fill="#d97706" fill-opacity="0.9"/>
<circle cx="364.29" cy="99.18" r="4.5" fill="#d97706" fill-opacity="0.9"/>
<circle cx="381.43" cy="98.93" r="4.5" fill="#d97706" fill-opacity="0.9"/>
<circle cx="398.57" cy="95.66" r="4.5" fill="#d97706" fill-opacity="0.9"/>
<circle cx="415.71" cy="103.52" r="4.5" fill="#d97706" fill-opacity="0.9"/>
<circle cx="432.86" cy="149.40" r="4.5" fill="#d97706" fill-opacity="0.9"/>
<circle cx="450.00" cy="100.00" r="4.5" fill="#d97706" fill-opacity="0.9"/>
<circle cx="467.14" cy="147.24" r="4.5" fill="#d97706" fill-opacity="0.9"/>
<circle cx="484.29" cy="100.10" r="4.5" fill="#d97706" fill-opacity="0.9"/>
<circle cx="501.43" cy="106.39" r="4.5" fill="#d97706" fill-opacity="0.9"/>
<circle cx="518.57" cy="97.47" r="4.5" fill="#d97706" fill-opacity="0.9"/>
<circle cx="535.71" cy="99.07" r="4.5" fill="#d97706" fill-opacity="0.9"/>
<circle cx="552.86" cy="96.41" r="4.5" fill="#d97706" fill-opacity="0.9"/>
<circle cx="570.00" cy="152.50" r="4.5" fill="#d97706" fill-opacity="0.9"/>
<circle cx="587.14" cy="95.20" r="4.5" fill="#d97706" fill-opacity="0.9"/>
<circle cx="604.29" cy="98.29" r="4.5" fill="#d97706" fill-opacity="0.9"/>
<circle cx="621.43" cy="98.01" r="4.5" fill="#d97706" fill-opacity="0.9"/>
<circle cx="638.57" cy="96.51" r="4.5" fill="#d97706" fill-opacity="0.9"/>
<circle cx="655.71" cy="112.12" r="4.5" fill="#d97706" fill-opacity="0.9"/>
<circle cx="672.86" cy="131.10" r="4.5" fill="#d97706" fill-opacity="0.9"/>
<circle cx="690.00" cy="97.79" r="4.5" fill="#d97706" fill-opacity="0.9"/>
<circle cx="707.14" cy="107.92" r="4.5" fill="#d97706" fill-opacity="0.9"/>
<circle cx="724.29" cy="97.15" r="4.5" fill="#d97706" fill-opacity="0.9"/>
<circle cx="741.43" cy="96.09" r="4.5" fill="#d97706" fill-opacity="0.9"/>
<circle cx="758.57" cy="96.41" r="4.5" fill="#d97706" fill-opacity="0.9"/>
<circle cx="775.71" cy="94.34" r="4.5" fill="#d97706" fill-opacity="0.9"/>
<circle cx="792.86" cy="106.39" r="4.5" fill="#d97706" fill-opacity="0.9"/>
<circle cx="810.00" cy="95.48" r="4.5" fill="#d97706" fill-opacity="0.9"/>
<circle cx="827.14" cy="96.12" r="4.5" fill="#d97706" fill-opacity="0.9"/>
<circle cx="844.29" cy="96.44" r="4.5" fill="#d97706" fill-opacity="0.9"/>
<circle cx="861.43" cy="95.45" r="4.5" fill="#d97706" fill-opacity="0.9"/>
<circle cx="878.57" cy="95.55" r="4.5" fill="#d97706" fill-opacity="0.9"/>
<circle cx="895.71" cy="96.05" r="4.5" fill="#d97706" fill-opacity="0.9"/>
<circle cx="912.86" cy="95.27" r="4.5" fill="#d97706" fill-opacity="0.9"/>
<circle cx="930.00" cy="96.44" r="4.5" fill="#d97706" fill-opacity="0.9"/>
<rect x="90" y="32" width="18" height="6" fill="#d97706"/>
<text x="114" y="38" font-size="13" fill="#333333">val</text>
<polyline fill="none" stroke="#059669" stroke-width="3" points="90.00,435.69 107.14,182.50 124.29,190.14 141.43,103.05 158.57,104.44 175.71,106.64 192.86,101.35 210.00,115.00 227.14,163.48 244.29,105.36 261.43,99.68 278.57,103.44 295.71,101.38 312.86,104.19 330.00,109.59 347.14,97.86 364.29,100.00 381.43,98.43 398.57,95.73 415.71,102.80 432.86,150.33 450.00,99.21 467.14,147.56 484.29,99.68 501.43,105.08 518.57,96.83 535.71,100.46 552.86,95.80 570.00,155.77 587.14,95.62 604.29,97.69 621.43,97.79 638.57,96.73 655.71,111.26 672.86,132.02 690.00,98.43 707.14,107.89 724.29,96.26 741.43,96.16 758.57,97.05 775.71,94.81 792.86,106.15 810.00,95.09 827.14,95.73 844.29,95.45 861.43,95.09 878.57,94.17 895.71,95.70 912.86,95.62 930.00,96.44"/>
<circle cx="90.00" cy="435.69" r="4.5" fill="#059669" fill-opacity="0.9"/>
<circle cx="107.14" cy="182.50" r="4.5" fill="#059669" fill-opacity="0.9"/>
<circle cx="124.29" cy="190.14" r="4.5" fill="#059669" fill-opacity="0.9"/>
<circle cx="141.43" cy="103.05" r="4.5" fill="#059669" fill-opacity="0.9"/>
<circle cx="158.57" cy="104.44" r="4.5" fill="#059669" fill-opacity="0.9"/>
<circle cx="175.71" cy="106.64" r="4.5" fill="#059669" fill-opacity="0.9"/>
<circle cx="192.86" cy="101.35" r="4.5" fill="#059669" fill-opacity="0.9"/>
<circle cx="210.00" cy="115.00" r="4.5" fill="#059669" fill-opacity="0.9"/>
<circle cx="227.14" cy="163.48" r="4.5" fill="#059669" fill-opacity="0.9"/>
<circle cx="244.29" cy="105.36" r="4.5" fill="#059669" fill-opacity="0.9"/>
<circle cx="261.43" cy="99.68" r="4.5" fill="#059669" fill-opacity="0.9"/>
<circle cx="278.57" cy="103.44" r="4.5" fill="#059669" fill-opacity="0.9"/>
<circle cx="295.71" cy="101.38" r="4.5" fill="#059669" fill-opacity="0.9"/>
<circle cx="312.86" cy="104.19" r="4.5" fill="#059669" fill-opacity="0.9"/>
<circle cx="330.00" cy="109.59" r="4.5" fill="#059669" fill-opacity="0.9"/>
<circle cx="347.14" cy="97.86" r="4.5" fill="#059669" fill-opacity="0.9"/>
<circle cx="364.29" cy="100.00" r="4.5" fill="#059669" fill-opacity="0.9"/>
<circle cx="381.43" cy="98.43" r="4.5" fill="#059669" fill-opacity="0.9"/>
<circle cx="398.57" cy="95.73" r="4.5" fill="#059669" fill-opacity="0.9"/>
<circle cx="415.71" cy="102.80" r="4.5" fill="#059669" fill-opacity="0.9"/>
<circle cx="432.86" cy="150.33" r="4.5" fill="#059669" fill-opacity="0.9"/>
<circle cx="450.00" cy="99.21" r="4.5" fill="#059669" fill-opacity="0.9"/>
<circle cx="467.14" cy="147.56" r="4.5" fill="#059669" fill-opacity="0.9"/>
<circle cx="484.29" cy="99.68" r="4.5" fill="#059669" fill-opacity="0.9"/>
<circle cx="501.43" cy="105.08" r="4.5" fill="#059669" fill-opacity="0.9"/>
<circle cx="518.57" cy="96.83" r="4.5" fill="#059669" fill-opacity="0.9"/>
<circle cx="535.71" cy="100.46" r="4.5" fill="#059669" fill-opacity="0.9"/>
<circle cx="552.86" cy="95.80" r="4.5" fill="#059669" fill-opacity="0.9"/>
<circle cx="570.00" cy="155.77" r="4.5" fill="#059669" fill-opacity="0.9"/>
<circle cx="587.14" cy="95.62" r="4.5" fill="#059669" fill-opacity="0.9"/>
<circle cx="604.29" cy="97.69" r="4.5" fill="#059669" fill-opacity="0.9"/>
<circle cx="621.43" cy="97.79" r="4.5" fill="#059669" fill-opacity="0.9"/>
<circle cx="638.57" cy="96.73" r="4.5" fill="#059669" fill-opacity="0.9"/>
<circle cx="655.71" cy="111.26" r="4.5" fill="#059669" fill-opacity="0.9"/>
<circle cx="672.86" cy="132.02" r="4.5" fill="#059669" fill-opacity="0.9"/>
<circle cx="690.00" cy="98.43" r="4.5" fill="#059669" fill-opacity="0.9"/>
<circle cx="707.14" cy="107.89" r="4.5" fill="#059669" fill-opacity="0.9"/>
<circle cx="724.29" cy="96.26" r="4.5" fill="#059669" fill-opacity="0.9"/>
<circle cx="741.43" cy="96.16" r="4.5" fill="#059669" fill-opacity="0.9"/>
<circle cx="758.57" cy="97.05" r="4.5" fill="#059669" fill-opacity="0.9"/>
<circle cx="775.71" cy="94.81" r="4.5" fill="#059669" fill-opacity="0.9"/>
<circle cx="792.86" cy="106.15" r="4.5" fill="#059669" fill-opacity="0.9"/>
<circle cx="810.00" cy="95.09" r="4.5" fill="#059669" fill-opacity="0.9"/>
<circle cx="827.14" cy="95.73" r="4.5" fill="#059669" fill-opacity="0.9"/>
<circle cx="844.29" cy="95.45" r="4.5" fill="#059669" fill-opacity="0.9"/>
<circle cx="861.43" cy="95.09" r="4.5" fill="#059669" fill-opacity="0.9"/>
<circle cx="878.57" cy="94.17" r="4.5" fill="#059669" fill-opacity="0.9"/>
<circle cx="895.71" cy="95.70" r="4.5" fill="#059669" fill-opacity="0.9"/>
<circle cx="912.86" cy="95.62" r="4.5" fill="#059669" fill-opacity="0.9"/>
<circle cx="930.00" cy="96.44" r="4.5" fill="#059669" fill-opacity="0.9"/>
<rect x="270" y="32" width="18" height="6" fill="#059669"/>
<text x="294" y="38" font-size="13" fill="#333333">test</text>
</svg>