<svg xmlns="http://www.w3.org/2000/svg" width="960" height="540">
<rect width="100%" height="100%" fill="#ffffff"/>
<text x="480.0" y="30" font-size="22" text-anchor="middle" fill="#111111">Sequence Accuracy</text>
<text x="20" y="270.0" font-size="16" transform="rotate(-90 20,270.0)" text-anchor="middle" fill="#333333">Accuracy</text>
<text x="480.0" y="520" font-size="16" text-anchor="middle" fill="#333333">Epoch</text>
<line x1="90" y1="60" x2="90" y2="470" stroke="#333333" stroke-width="2"/>
<line x1="90" y1="470" x2="930" y2="470" stroke="#333333" stroke-width="2"/>
<line x1="90" y1="470.00" x2="930" y2="470.00" stroke="#e5e7eb" stroke-width="1"/>
<text x="80" y="475.00" font-size="12" text-anchor="end" fill="#555555">-0.0746</text>
<line x1="90" y1="367.50" x2="930" y2="367.50" stroke="#e5e7eb" stroke-width="1"/>
<text x="80" y="372.50" font-size="12" text-anchor="end" fill="#555555">0.2038</text>
<line x1="90" y1="265.00" x2="930" y2="265.00" stroke="#e5e7eb" stroke-width="1"/>
<text x="80" y="270.00" font-size="12" text-anchor="end" fill="#555555">0.4821</text>
<line x1="90" y1="162.50" x2="930" y2="162.50" stroke="#e5e7eb" stroke-width="1"/>
<text x="80" y="167.50" font-size="12" text-anchor="end" fill="#555555">0.7605</text>
<line x1="90" y1="60.00" x2="930" y2="60.00" stroke="#e5e7eb" stroke-width="1"/>
<text x="80" y="65.00" font-size="12" text-anchor="end" fill="#555555">1.0389</text>
<line x1="90.00" y1="60" x2="90.00" y2="470" stroke="#f3f4f6" stroke-width="1"/>
<text x="90.00" y="492" font-size="12" text-anchor="middle" fill="#555555">1</text>
<line x1="107.14" y1="60" x2="107.14" y2="470" stroke="#f3f4f6" stroke-width="1"/>
<text x="107.14" y="492" font-size="12" text-anchor="middle" fill="#555555">2</text>
<line x1="124.29" y1="60" x2="124.29" y2="470" stroke="#f3f4f6" stroke-width="1"/>
<text x="124.29" y="492" font-size="12" text-anchor="middle" fill="#555555">3</text>
<line x1="141.43" y1="60" x2="141.43" y2="470" stroke="#f3f4f6" stroke-width="1"/>
<text x="141.43" y="492" font-size="12" text-anchor="middle" fill="#555555">4</text>
<line x1="158.57" y1="60" x2="158.57" y2="470" stroke="#f3f4f6" stroke-width="1"/>
<text x="158.57" y="492" font-size="12" text-anchor="middle" fill="#555555">5</text>
<line x1="175.71" y1="60" x2="175.71" y2="470" stroke="#f3f4f6" stroke-width="1"/>
<text x="175.71" y="492" font-size="12" text-anchor="middle" fill="#555555">6</text>
<line x1="192.86" y1="60" x2="192.86" y2="470" stroke="#f3f4f6" stroke-width="1"/>
<text x="192.86" y="492" font-size="12" text-anchor="middle" fill="#555555">7</text>
<line x1="210.00" y1="60" x2="210.00" y2="470" stroke="#f3f4f6" stroke-width="1"/>
<text x="210.00" y="492" font-size="12" text-anchor="middle" fill="#555555">8</text>
<line x1="227.14" y1="60" x2="227.14" y2="470" stroke="#f3f4f6" stroke-width="1"/>
<text x="227.14" y="492" font-size="12" text-anchor="middle" fill="#555555">9</text>
<line x1="244.29" y1="60" x2="244.29" y2="470" stroke="#f3f4f6" stroke-width="1"/>
<text x="244.29" y="492" font-size="12" text-anchor="middle" fill="#555555">10</text>
<line x1="261.43" y1="60" x2="261.43" y2="470" stroke="#f3f4f6" stroke-width="1"/>
<text x="261.43" y="492" font-size="12" text-anchor="middle" fill="#555555">11</text>
<line x1="278.57" y1="60" x2="278.57" y2="470" stroke="#f3f4f6" stroke-width="1"/>
<text x="278.57" y="492" font-size="12" text-anchor="middle" fill="#555555">12</text>
<line x1="295.71" y1="60" x2="295.71" y2="470" stroke="#f3f4f6" stroke-width="1"/>
<text x="295.71" y="492" font-size="12" text-anchor="middle" fill="#555555">13</text>
<line x1="312.86" y1="60" x2="312.86" y2="470" stroke="#f3f4f6" stroke-width="1"/>
<text x="312.86" y="492" font-size="12" text-anchor="middle" fill="#555555">14</text>
<line x1="330.00" y1="60" x2="330.00" y2="470" stroke="#f3f4f6" stroke-width="1"/>
<text x="330.00" y="492" font-size="12" text-anchor="middle" fill="#555555">15</text>
<line x1="347.14" y1="60" x2="347.14" y2="470" stroke="#f3f4f6" stroke-width="1"/>
<text x="347.14" y="492" font-size="12" text-anchor="middle" fill="#555555">16</text>
<line x1="364.29" y1="60" x2="364.29" y2="470" stroke="#f3f4f6" stroke-width="1"/>
<text x="364.29" y="492" font-size="12" text-anchor="middle" fill="#555555">17</text>
<line x1="381.43" y1="60" x2="381.43" y2="470" stroke="#f3f4f6" stroke-width="1"/>
<text x="381.43" y="492" font-size="12" text-anchor="middle" fill="#555555">18</text>
<line x1="398.57" y1="60" x2="398.57" y2="470" stroke="#f3f4f6" stroke-width="1"/>
<text x="398.57" y="492" font-size="12" text-anchor="middle" fill="#555555">19</text>
<line x1="415.71" y1="60" x2="415.71" y2="470" stroke="#f3f4f6" stroke-width="1"/>
<text x="415.71" y="492" font-size="12" text-anchor="middle" fill="#555555">20</text>
<line x1="432.86" y1="60" x2="432.86" y2="470" stroke="#f3f4f6" stroke-width="1"/>
<text x="432.86" y="492" font-size="12" text-anchor="middle" fill="#555555">21</text>
<line x1="450.00" y1="60" x2="450.00" y2="470" stroke="#f3f4f6" stroke-width="1"/>
<text x="450.00" y="492" font-size="12" text-anchor="middle" fill="#555555">22</text>
<line x1="467.14" y1="60" x2="467.14" y2="470" stroke="#f3f4f6" stroke-width="1"/>
<text x="467.14" y="492" font-size="12" text-anchor="middle" fill="#555555">23</text>
<line x1="484.29" y1="60" x2="484.29" y2="470" stroke="#f3f4f6" stroke-width="1"/>
<text x="484.29" y="492" font-size="12" text-anchor="middle" fill="#555555">24</text>
<line x1="501.43" y1="60" x2="501.43" y2="470" stroke="#f3f4f6" stroke-width="1"/>
<text x="501.43" y="492" font-size="12" text-anchor="middle" fill="#555555">25</text>
<line x1="518.57" y1="60" x2="518.57" y2="470" stroke="#f3f4f6" stroke-width="1"/>
<text x="518.57" y="492" font-size="12" text-anchor="middle" fill="#555555">26</text>
<line x1="535.71" y1="60" x2="535.71" y2="470" stroke="#f3f4f6" stroke-width="1"/>
<text x="535.71" y="492" font-size="12" text-anchor="middle" fill="#555555">27</text>
<line x1="552.86" y1="60" x2="552.86" y2="470" stroke="#f3f4f6" stroke-width="1"/>
<text x="552.86" y="492" font-size="12" text-anchor="middle" fill="#555555">28</text>
<line x1="570.00" y1="60" x2="570.00" y2="470" stroke="#f3f4f6" stroke-width="1"/>
<text x="570.00" y="492" font-size="12" text-anchor="middle" fill="#555555">29</text>
<line x1="587.14" y1="60" x2="587.14" y2="470" stroke="#f3f4f6" stroke-width="1"/>
<text x="587.14" y="492" font-size="12" text-anchor="middle" fill="#555555">30</text>
<line x1="604.29" y1="60" x2="604.29" y2="470" stroke="#f3f4f6" stroke-width="1"/>
<text x="604.29" y="492" font-size="12" text-anchor="middle" fill="#555555">31</text>
<line x1="621.43" y1="60" x2="621.43" y2="470" stroke="#f3f4f6" stroke-width="1"/>
<text x="621.43" y="492" font-size="12" text-anchor="middle" fill="#555555">32</text>
<line x1="638.57" y1="60" x2="638.57" y2="470" stroke="#f3f4f6" stroke-width="1"/>
<text x="638.57" y="492" font-size="12" text-anchor="middle" fill="#555555">33</text>
<line x1="655.71" y1="60" x2="655.71" y2="470" stroke="#f3f4f6" stroke-width="1"/>
<text x="655.71" y="492" font-size="12" text-anchor="middle" fill="#555555">34</text>
<line x1="672.86" y1="60" x2="672.86" y2="470" stroke="#f3f4f6" stroke-width="1"/>
<text x="672.86" y="492" font-size="12" text-anchor="middle" fill="#555555">35</text>
<line x1="690.00" y1="60" x2="690.00" y2="470" stroke="#f3f4f6" stroke-width="1"/>
<text x="690.00" y="492" font-size="12" text-anchor="middle" fill="#555555">36</text>
<line x1="707.14" y1="60" x2="707.14" y2="470" stroke="#f3f4f6" stroke-width="1"/>
<text x="707.14" y="492" font-size="12" text-anchor="middle" fill="#555555">37</text>
<line x1="724.29" y1="60" x2="724.29" y2="470" stroke="#f3f4f6" stroke-width="1"/>
<text x="724.29" y="492" font-size="12" text-anchor="middle" fill="#555555">38</text>
<line x1="741.43" y1="60" x2="741.43" y2="470" stroke="#f3f4f6" stroke-width="1"/>
<text x="741.43" y="492" font-size="12" text-anchor="middle" fill="#555555">39</text>
<line x1="758.57" y1="60" x2="758.57" y2="470" stroke="#f3f4f6" stroke-width="1"/>
<text x="758.57" y="492" font-size="12" text-anchor="middle" fill="#555555">40</text>
<line x1="775.71" y1="60" x2="775.71" y2="470" stroke="#f3f4f6" stroke-width="1"/>
<text x="775.71" y="492" font-size="12" text-anchor="middle" fill="#555555">41</text>
<line x1="792.86" y1="60" x2="792.86" y2="470" stroke="#f3f4f6" stroke-width="1"/>
<text x="792.86" y="492" font-size="12" text-anchor="middle" fill="#555555">42</text>
<line x1="810.00" y1="60" x2="810.00" y2="470" stroke="#f3f4f6" stroke-width="1"/>
<text x="810.00" y="492" font-size="12" text-anchor="middle" fill="#555555">43</text>
<line x1="827.14" y1="60" x2="827.14" y2="470" stroke="#f3f4f6" stroke-width="1"/>
<text x="827.14" y="492" font-size="12" text-anchor="middle" fill="#555555">44</text>
<line x1="844.29" y1="60" x2="844.29" y2="470" stroke="#f3f4f6" stroke-width="1"/>
<text x="844.29" y="492" font-size="12" text-anchor="middle" fill="#555555">45</text>
<line x1="861.43" y1="60" x2="861.43" y2="470" stroke="#f3f4f6" stroke-width="1"/>
<text x="861.43" y="492" font-size="12" text-anchor="middle" fill="#555555">46</text>
<line x1="878.57" y1="60" x2="878.57" y2="470" stroke="#f3f4f6" stroke-width="1"/>
<text x="878.57" y="492" font-size="12" text-anchor="middle" fill="#555555">47</text>
<line x1="895.71" y1="60" x2="895.71" y2="470" stroke="#f3f4f6" stroke-width="1"/>
<text x="895.71" y="492" font-size="12" text-anchor="middle" fill="#555555">48</text>
<line x1="912.86" y1="60" x2="912.86" y2="470" stroke="#f3f4f6" stroke-width="1"/>
<text x="912.86" y="492" font-size="12" text-anchor="middle" fill="#555555">49</text>
<line x1="930.00" y1="60" x2="930.00" y2="470" stroke="#f3f4f6" stroke-width="1"/>
<text x="930.00" y="492" font-size="12" text-anchor="middle" fill="#555555">50</text>
<polyline fill="none" stroke="#d97706" stroke-width="3" points="90.00,435.02 107.14,246.47 124.29,301.55 141.43,111.82 158.57,115.89 175.71,117.59 192.86,111.33 210.00,139.93 227.14,222.11 244.29,116.38 261.43,105.07 278.57,115.77 295.71,109.80 312.86,114.52 330.00,135.95 347.14,105.36 364.29,104.04 381.43,104.48 398.57,97.46 415.71,115.30 432.86,220.13 450.00,105.14 467.14,213.40 484.29,108.01 501.43,122.03 518.57,101.14 535.71,104.85 552.86,97.24 570.00,227.98 587.14,95.81 604.29,100.60 621.43,103.40 638.57,101.26 655.71,151.36 672.86,180.70 690.00,102.34 707.14,126.25 724.29,98.59 741.43,96.67 758.57,99.81 775.71,95.81 792.86,118.08 810.00,96.11 827.14,96.28 844.29,97.70 861.43,94.17 878.57,95.05 895.71,97.75 912.86,95.64 930.00,97.46"/>
<circle cx="90.00" cy="435.02" r="4.5" fill="#d97706" fill-opacity="0.9"/>
<circle cx="107.14" cy="246.47" r="4.5" fill="#d97706" fill-opacity="0.9"/>
<circle cx="124.29" cy="301.55" r="4.5" fill="#d97706" fill-opacity="0.9"/>
<circle cx="141.43" cy="111.82" r="4.5" fill="#d97706" fill-opacity="0.9"/>
<circle cx="158.57" cy="115.89" r="4.5" fill="#d97706" fill-opacity="0.9"/>
<circle cx="175.71" cy="117.59" r="4.5" fill="#d97706" fill-opacity="0.9"/>
<circle cx="192.86" cy="111.33" r="4.5" fill="#d97706" fill-opacity="0.9"/>
<circle cx="210.00" cy="139.93" r="4.5" fill="#d97706" fill-opacity="0.9"/>
<circle cx="227.14" cy="222.11" r="4.5" fill="#d97706" fill-opacity="0.9"/>
<circle cx="244.29" cy="116.38" r="4.5" fill="#d97706" fill-opacity="0.9"/>
<circle cx="261.43" cy="105.07" r="4.5" fill="#d97706" fill-opacity="0.9"/>
<circle cx="278.57" cy="115.77" r="4.5" fill="#d97706" fill-opacity="0.9"/>
<circle cx="295.71" cy="109.80" r="4.5" fill="#d97706" fill-opacity="0.9"/>
<circle cx="312.86" cy="114.52" r="4.5" fill="#d97706" fill-opacity="0.9"/>
<circle cx="330.00" cy="135.95" r="4.5" fill="#d97706" fill-opacity="0.9"/>
<circle cx="347.14" cy="105.36" r="4.5" fill="#d97706" fill-opacity="0.9"/>
<circle cx="364.29" cy="104.04" r="4.5" fill="#d97706" fill-opacity="0.9"/>
<circle cx="381.43" cy="104.48" r="4.5" fill="#d97706" fill-opacity="0.9"/>
<circle cx="398.57" cy="97.46" r="4.5" fill="#d97706" fill-opacity="0.9"/>
<circle cx="415.71" cy="115.30" r="4.5" fill="#d97706" fill-opacity="0.9"/>
<circle cx="432.86" cy="220.13" r="4.5" fill="#d97706" fill-opacity="0.9"/>
<circle cx="450.00" cy="105.14" r="4.5" fill="#d97706" fill-opacity="0.9"/>
<circle cx="467.14" cy="213.40" r="4.5" fill="#d97706" fill-opacity="0.9"/>
<circle cx="484.29" cy="108.01" r="4.5" fill="#d97706" fill-opacity="0.9"/>
<circle cx="501.43" cy="122.03" r="4.5" fill="#d97706" fill-opacity="0.9"/>
<circle cx="518.57" cy="101.14" r="4.5" fill="#d97706" fill-opacity="0.9"/>
<circle cx="535.71" cy="104.85" r="4.5" fill="#d97706" fill-opacity="0.9"/>
<circle cx="552.86" cy="97.24" r="4.5" fill="#d97706" fill-opacity="0.9"/>
<circle cx="570.00" cy="227.98" r="4.5" fill="#d97706" fill-opacity="0.9"/>
<circle cx="587.14" cy="95.81" r="4.5" fill="#d97706" fill-opacity="0.9"/>
<circle cx="604.29" cy="100.60" r="4.5" fill="#d97706" fill-opacity="0.9"/>
<circle cx="621.43" cy="103.40" r="4.5" fill="#d97706" fill-opacity="0.9"/>
<circle cx="638.57" cy="101.26" r="4.5" fill="#d97706" fill-opacity="0.9"/>
<circle cx="655.71" cy="151.36" r="4.5" fill="#d97706" fill-opacity="0.9"/>
<circle cx="672.86" cy="180.70" r="4.5" fill="#d97706" fill-opacity="0.9"/>
<circle cx="690.00" cy="102.34" r="4.5" fill="#d97706" fill-opacity="0.9"/>
<circle cx="707.14" cy="126.25" r="4.5" fill="#d97706" fill-opacity="0.9"/>
<circle cx="724.29" cy="98.59" r="4.5" fill="#d97706" fill-opacity="0.9"/>
<circle cx="741.43" cy="96.67" r="4.5" fill="#d97706" fill-opacity="0.9"/>
<circle cx="758.57" cy="99.81" r="4.5" fill="#d97706" fill-opacity="0.9"/>
<circle cx="775.71" cy="95.81" r="4.5" fill="#d97706" fill-opacity="0.9"/>
<circle cx="792.86" cy="118.08" r="4.5" fill="#d97706" fill-opacity="0.9"/>
<circle cx="810.00" cy="96.11" r="4.5" fill="#d97706" fill-opacity="0.9"/>
<circle cx="827.14" cy="96.28" r="4.5" fill="#d97706" fill-opacity="0.9"/>
<circle cx="844.29" cy="97.70" r="4.5" fill="#d97706" fill-opacity="0.9"/>
<circle cx="861.43" cy="94.17" r="4.5" fill="#d97706" fill-opacity="0.9"/>
<circle cx="878.57" cy="95.05" r="4.5" fill="#d97706" fill-opacity="0.9"/>
<circle cx="895.71" cy="97.75" r="4.5" fill="#d97706" fill-opacity="0.9"/>
<circle cx="912.86" cy="95.64" r="4.5" fill="#d97706" fill-opacity="0.9"/>
<circle cx="930.00" cy="97.46" r="4.5" fill="#d97706" fill-opacity="0.9"/>
<rect x="90" y="32" width="18" height="6" fill="#d97706"/>
<text x="114" y="38" font-size="13" fill="#333333">val</text>
<polyline fill="none" stroke="#059669" stroke-width="3" points="90.00,435.83 107.14,247.13 124.29,300.06 141.43,112.80 158.57,117.32 175.71,120.21 192.86,111.62 210.00,141.64 227.14,221.35 244.29,118.91 261.43,106.05 278.57,115.20 295.71,110.81 312.86,115.03 330.00,134.79 347.14,105.83 364.29,105.07 381.43,103.62 398.57,97.90 415.71,113.46 432.86,220.15 450.00,105.85 467.14,212.56 484.29,108.04 501.43,120.80 518.57,100.35 535.71,105.58 552.86,97.38 570.00,228.05 587.14,95.74 604.29,100.55 621.43,104.38 638.57,101.04 655.71,147.98 672.86,179.13 690.00,103.27 707.14,125.47 724.29,98.90 741.43,96.82 758.57,100.52 775.71,95.66 792.86,117.14 810.00,95.52 827.14,96.01 844.29,96.67 861.43,95.00 878.57,94.26 895.71,97.55 912.86,95.62 930.00,97.43"/>
<circle cx="90.00" cy="435.83" r="4.5" fill="#059669" fill-opacity="0.9"/>
<circle cx="107.14" cy="247.13" r="4.5" fill="#059669" fill-opacity="0.9"/>
<circle cx="124.29" cy="300.06" r="4.5" fill="#059669" fill-opacity="0.9"/>
<circle cx="141.43" cy="112.80" r="4.5" fill="#059669" fill-opacity="0.9"/>
<circle cx="158.57" cy="117.32" r="4.5" fill="#059669" fill-opacity="0.9"/>
<circle cx="175.71" cy="120.21" r="4.5" fill="#059669" fill-opacity="0.9"/>
<circle cx="192.86" cy="111.62" r="4.5" fill="#059669" fill-opacity="0.9"/>
<circle cx="210.00" cy="141.64" r="4.5" fill="#059669" fill-opacity="0.9"/>
<circle cx="227.14" cy="221.35" r="4.5" fill="#059669" fill-opacity="0.9"/>
<circle cx="244.29" cy="118.91" r="4.5" fill="#059669" fill-opacity="0.9"/>
<circle cx="261.43" cy="106.05" r="4.5" fill="#059669" fill-opacity="0.9"/>
<circle cx="278.57" cy="115.20" r="4.5" fill="#059669" fill-opacity="0.9"/>
<circle cx="295.71" cy="110.81" r="4.5" fill="#059669" fill-opacity="0.9"/>
<circle cx="312.86" cy="115.03" r="4.5" fill="#059669" fill-opacity="0.9"/>
<circle cx="330.00" cy="134.79" r="4.5" fill="#059669" fill-opacity="0.9"/>
<circle cx="347.14" cy="105.83" r="4.5" fill="#059669" fill-opacity="0.9"/>
<circle cx="364.29" cy="105.07" r="4.5" fill="#059669" fill-opacity="0.9"/>
<circle cx="381.43" cy="103.62" r="4.5" fill="#059669" fill-opacity="0.9"/>
<circle cx="398.57" cy="97.90" r="4.5" fill="#059669" fill-opacity="0.9"/>
<circle cx="415.71" cy="113.46" r="4.5" fill="#059669" fill-opacity="0.9"/>
<circle cx="432.86" cy="220.15" r="4.5" fill="#059669" fill-opacity="0.9"/>
<circle cx="450.00" cy="105.85" r="4.5" fill="#059669" fill-opacity="0.9"/>
<circle cx="467.14" cy="212.56" r="4.5" fill="#059669" fill-opacity="0.9"/>
<circle cx="484.29" cy="108.04" r="4.5" fill="#059669" fill-opacity="0.9"/>
<circle cx="501.43" cy="120.80" r="4.5" fill="#059669" fill-opacity="0.9"/>
<circle cx="518.57" cy="100.35" r="4.5" fill="#059669" fill-opacity="0.9"/>
<circle cx="535.71" cy="105.58" r="4.5" fill="#059669" fill-opacity="0.9"/>
<circle cx="552.86" cy="97.38" r="4.5" fill="#059669" fill-opacity="0.9"/>
<circle cx="570.00" cy="228.05" r="4.5" fill="#059669" fill-opacity="0.9"/>
<circle cx="587.14" cy="95.74" r="4.5" fill="#059669" fill-opacity="0.9"/>
<circle cx="604.29" cy="100.55" r="4.5" fill="#059669" fill-opacity="0.9"/>
<circle cx="621.43" cy="104.38" r="4.5" fill="#059669" fill-opacity="0.9"/>
<circle cx="638.57" cy="101.04" r="4.5" fill="#059669" fill-opacity="0.9"/>
<circle cx="655.71" cy="147.98" r="4.5" fill="#059669" fill-opacity="0.9"/>
<circle cx="672.86" cy="179.13" r="4.5" fill="#059669" fill-opacity="0.9"/>
<circle cx="690.00" cy="103.27" r="4.5" fill="#059669" fill-opacity="0.9"/>
<circle cx="707.14" cy="125.47" r="4.5" fill="#059669" fill-opacity="0.9"/>
<circle cx="724.29" cy="98.90" r="4.5" fill="#059669" fill-opacity="0.9"/>
<circle cx="741.43" cy="96.82" r="4.5" fill="#059669" fill-opacity="0.9"/>
<circle cx="758.57" cy="100.52" r="4.5" fill="#059669" fill-opacity="0.9"/>
<circle cx="775.71" cy="95.66" r="4.5" fill="#059669" fill-opacity="0.9"/>
<circle cx="792.86" cy="117.14" r="4.5" fill="#059669" fill-opacity="0.9"/>
<circle cx="810.00" cy="95.52" r="4.5" fill="#059669" fill-opacity="0.9"/>
<circle cx="827.14" cy="96.01" r="4.5" fill="#059669" fill-opacity="0.9"/>
<circle cx="844.29" cy="96.67" r="4.5" fill="#059669" fill-opacity="0.9"/>
<circle cx="861.43" cy="95.00" r="4.5" fill="#059669" fill-opacity="0.9"/>
<circle cx="878.57" cy="94.26" r="4.5" fill="#059669" fill-opacity="0.9"/>
<circle cx="895.71" cy="97.55" r="4.5" fill="#059669" fill-opacity="0.9"/>
<circle cx="912.86" cy="95.62" r="4.5" fill="#059669" fill-opacity="0.9"/>
<circle cx="930.00" cy="97.43" r="4.5" fill="#059669" fill-opacity="0.9"/>
<rect x="270" y="32" width="18" height="6" fill="#059669"/>
<text x="294" y="38" font-size="13" fill="#333333">test</text>
</svg>