<svg xmlns="http://www.w3.org/2000/svg" width="960" height="540">
<rect width="100%" height="100%" fill="#ffffff"/>
<text x="480.0" y="30" font-size="22" text-anchor="middle" fill="#111111">Character Accuracy</text>
<text x="20" y="270.0" font-size="16" transform="rotate(-90 20,270.0)" text-anchor="middle" fill="#333333">Accuracy</text>
<text x="480.0" y="520" font-size="16" text-anchor="middle" fill="#333333">Epoch</text>
<line x1="90" y1="60" x2="90" y2="470" stroke="#333333" stroke-width="2"/>
<line x1="90" y1="470" x2="930" y2="470" stroke="#333333" stroke-width="2"/>
<line x1="90" y1="470.00" x2="930" y2="470.00" stroke="#e5e7eb" stroke-width="1"/>
<text x="80" y="475.00" font-size="12" text-anchor="end" fill="#555555">0.9006</text>
<line x1="90" y1="367.50" x2="930" y2="367.50" stroke="#e5e7eb" stroke-width="1"/>
<text x="80" y="372.50" font-size="12" text-anchor="end" fill="#555555">0.9255</text>
<line x1="90" y1="265.00" x2="930" y2="265.00" stroke="#e5e7eb" stroke-width="1"/>
<text x="80" y="270.00" font-size="12" text-anchor="end" fill="#555555">0.9505</text>
<line x1="90" y1="162.50" x2="930" y2="162.50" stroke="#e5e7eb" stroke-width="1"/>
<text x="80" y="167.50" font-size="12" text-anchor="end" fill="#555555">0.9755</text>
<line x1="90" y1="60.00" x2="930" y2="60.00" stroke="#e5e7eb" stroke-width="1"/>
<text x="80" y="65.00" font-size="12" text-anchor="end" fill="#555555">1.0005</text>
<line x1="90.00" y1="60" x2="90.00" y2="470" stroke="#f3f4f6" stroke-width="1"/>
<text x="90.00" y="492" font-size="12" text-anchor="middle" fill="#555555">1</text>
<line x1="98.48" y1="60" x2="98.48" y2="470" stroke="#f3f4f6" stroke-width="1"/>
<text x="98.48" y="492" font-size="12" text-anchor="middle" fill="#555555">2</text>
<line x1="106.97" y1="60" x2="106.97" y2="470" stroke="#f3f4f6" stroke-width="1"/>
<text x="106.97" y="492" font-size="12" text-anchor="middle" fill="#555555">3</text>
<line x1="115.45" y1="60" x2="115.45" y2="470" stroke="#f3f4f6" stroke-width="1"/>
<text x="115.45" y="492" font-size="12" text-anchor="middle" fill="#555555">4</text>
<line x1="123.94" y1="60" x2="123.94" y2="470" stroke="#f3f4f6" stroke-width="1"/>
<text x="123.94" y="492" font-size="12" text-anchor="middle" fill="#555555">5</text>
<line x1="132.42" y1="60" x2="132.42" y2="470" stroke="#f3f4f6" stroke-width="1"/>
<text x="132.42" y="492" font-size="12" text-anchor="middle" fill="#555555">6</text>
<line x1="140.91" y1="60" x2="140.91" y2="470" stroke="#f3f4f6" stroke-width="1"/>
<text x="140.91" y="492" font-size="12" text-anchor="middle" fill="#555555">7</text>
<line x1="149.39" y1="60" x2="149.39" y2="470" stroke="#f3f4f6" stroke-width="1"/>
<text x="149.39" y="492" font-size="12" text-anchor="middle" fill="#555555">8</text>
<line x1="157.88" y1="60" x2="157.88" y2="470" stroke="#f3f4f6" stroke-width="1"/>
<text x="157.88" y="492" font-size="12" text-anchor="middle" fill="#555555">9</text>
<line x1="166.36" y1="60" x2="166.36" y2="470" stroke="#f3f4f6" stroke-width="1"/>
<text x="166.36" y="492" font-size="12" text-anchor="middle" fill="#555555">10</text>
<line x1="174.85" y1="60" x2="174.85" y2="470" stroke="#f3f4f6" stroke-width="1"/>
<text x="174.85" y="492" font-size="12" text-anchor="middle" fill="#555555">11</text>
<line x1="183.33" y1="60" x2="183.33" y2="470" stroke="#f3f4f6" stroke-width="1"/>
<text x="183.33" y="492" font-size="12" text-anchor="middle" fill="#555555">12</text>
<line x1="191.82" y1="60" x2="191.82" y2="470" stroke="#f3f4f6" stroke-width="1"/>
<text x="191.82" y="492" font-size="12" text-anchor="middle" fill="#555555">13</text>
<line x1="200.30" y1="60" x2="200.30" y2="470" stroke="#f3f4f6" stroke-width="1"/>
<text x="200.30" y="492" font-size="12" text-anchor="middle" fill="#555555">14</text>
<line x1="208.79" y1="60" x2="208.79" y2="470" stroke="#f3f4f6" stroke-width="1"/>
<text x="208.79" y="492" font-size="12" text-anchor="middle" fill="#555555">15</text>
<line x1="217.27" y1="60" x2="217.27" y2="470" stroke="#f3f4f6" stroke-width="1"/>
<text x="217.27" y="492" font-size="12" text-anchor="middle" fill="#555555">16</text>
<line x1="225.76" y1="60" x2="225.76" y2="470" stroke="#f3f4f6" stroke-width="1"/>
<text x="225.76" y="492" font-size="12" text-anchor="middle" fill="#555555">17</text>
<line x1="234.24" y1="60" x2="234.24" y2="470" stroke="#f3f4f6" stroke-width="1"/>
<text x="234.24" y="492" font-size="12" text-anchor="middle" fill="#555555">18</text>
<line x1="242.73" y1="60" x2="242.73" y2="470" stroke="#f3f4f6" stroke-width="1"/>
<text x="242.73" y="492" font-size="12" text-anchor="middle" fill="#555555">19</text>
<line x1="251.21" y1="60" x2="251.21" y2="470" stroke="#f3f4f6" stroke-width="1"/>
<text x="251.21" y="492" font-size="12" text-anchor="middle" fill="#555555">20</text>
<line x1="259.70" y1="60" x2="259.70" y2="470" stroke="#f3f4f6" stroke-width="1"/>
<text x="259.70" y="492" font-size="12" text-anchor="middle" fill="#555555">21</text>
<line x1="268.18" y1="60" x2="268.18" y2="470" stroke="#f3f4f6" stroke-width="1"/>
<text x="268.18" y="492" font-size="12" text-anchor="middle" fill="#555555">22</text>
<line x1="276.67" y1="60" x2="276.67" y2="470" stroke="#f3f4f6" stroke-width="1"/>
<text x="276.67" y="492" font-size="12" text-anchor="middle" fill="#555555">23</text>
<line x1="285.15" y1="60" x2="285.15" y2="470" stroke="#f3f4f6" stroke-width="1"/>
<text x="285.15" y="492" font-size="12" text-anchor="middle" fill="#555555">24</text>
<line x1="293.64" y1="60" x2="293.64" y2="470" stroke="#f3f4f6" stroke-width="1"/>
<text x="293.64" y="492" font-size="12" text-anchor="middle" fill="#555555">25</text>
<line x1="302.12" y1="60" x2="302.12" y2="470" stroke="#f3f4f6" stroke-width="1"/>
<text x="302.12" y="492" font-size="12" text-anchor="middle" fill="#555555">26</text>
<line x1="310.61" y1="60" x2="310.61" y2="470" stroke="#f3f4f6" stroke-width="1"/>
<text x="310.61" y="492" font-size="12" text-anchor="middle" fill="#555555">27</text>
<line x1="319.09" y1="60" x2="319.09" y2="470" stroke="#f3f4f6" stroke-width="1"/>
<text x="319.09" y="492" font-size="12" text-anchor="middle" fill="#555555">28</text>
<line x1="327.58" y1="60" x2="327.58" y2="470" stroke="#f3f4f6" stroke-width="1"/>
<text x="327.58" y="492" font-size="12" text-anchor="middle" fill="#555555">29</text>
<line x1="336.06" y1="60" x2="336.06" y2="470" stroke="#f3f4f6" stroke-width="1"/>
<text x="336.06" y="492" font-size="12" text-anchor="middle" fill="#555555">30</text>
<line x1="344.55" y1="60" x2="344.55" y2="470" stroke="#f3f4f6" stroke-width="1"/>
<text x="344.55" y="492" font-size="12" text-anchor="middle" fill="#555555">31</text>
<line x1="353.03" y1="60" x2="353.03" y2="470" stroke="#f3f4f6" stroke-width="1"/>
<text x="353.03" y="492" font-size="12" text-anchor="middle" fill="#555555">32</text>
<line x1="361.52" y1="60" x2="361.52" y2="470" stroke="#f3f4f6" stroke-width="1"/>
<text x="361.52" y="492" font-size="12" text-anchor="middle" fill="#555555">33</text>
<line x1="370.00" y1="60" x2="370.00" y2="470" stroke="#f3f4f6" stroke-width="1"/>
<text x="370.00" y="492" font-size="12" text-anchor="middle" fill="#555555">34</text>
<line x1="378.48" y1="60" x2="378.48" y2="470" stroke="#f3f4f6" stroke-width="1"/>
<text x="378.48" y="492" font-size="12" text-anchor="middle" fill="#555555">35</text>
<line x1="386.97" y1="60" x2="386.97" y2="470" stroke="#f3f4f6" stroke-width="1"/>
<text x="386.97" y="492" font-size="12" text-anchor="middle" fill="#555555">36</text>
<line x1="395.45" y1="60" x2="395.45" y2="470" stroke="#f3f4f6" stroke-width="1"/>
<text x="395.45" y="492" font-size="12" text-anchor="middle" fill="#555555">37</text>
<line x1="403.94" y1="60" x2="403.94" y2="470" stroke="#f3f4f6" stroke-width="1"/>
<text x="403.94" y="492" font-size="12" text-anchor="middle" fill="#555555">38</text>
<line x1="412.42" y1="60" x2="412.42" y2="470" stroke="#f3f4f6" stroke-width="1"/>
<text x="412.42" y="492" font-size="12" text-anchor="middle" fill="#555555">39</text>
<line x1="420.91" y1="60" x2="420.91" y2="470" stroke="#f3f4f6" stroke-width="1"/>
<text x="420.91" y="492" font-size="12" text-anchor="middle" fill="#555555">40</text>
<line x1="429.39" y1="60" x2="429.39" y2="470" stroke="#f3f4f6" stroke-width="1"/>
<text x="429.39" y="492" font-size="12" text-anchor="middle" fill="#555555">41</text>
<line x1="437.88" y1="60" x2="437.88" y2="470" stroke="#f3f4f6" stroke-width="1"/>
<text x="437.88" y="492" font-size="12" text-anchor="middle" fill="#555555">42</text>
<line x1="446.36" y1="60" x2="446.36" y2="470" stroke="#f3f4f6" stroke-width="1"/>
<text x="446.36" y="492" font-size="12" text-anchor="middle" fill="#555555">43</text>
<line x1="454.85" y1="60" x2="454.85" y2="470" stroke="#f3f4f6" stroke-width="1"/>
<text x="454.85" y="492" font-size="12" text-anchor="middle" fill="#555555">44</text>
<line x1="463.33" y1="60" x2="463.33" y2="470" stroke="#f3f4f6" stroke-width="1"/>
<text x="463.33" y="492" font-size="12" text-anchor="middle" fill="#555555">45</text>
<line x1="471.82" y1="60" x2="471.82" y2="470" stroke="#f3f4f6" stroke-width="1"/>
<text x="471.82" y="492" font-size="12" text-anchor="middle" fill="#555555">46</text>
<line x1="480.30" y1="60" x2="480.30" y2="470" stroke="#f3f4f6" stroke-width="1"/>
<text x="480.30" y="492" font-size="12" text-anchor="middle" fill="#555555">47</text>
<line x1="488.79" y1="60" x2="488.79" y2="470" stroke="#f3f4f6" stroke-width="1"/>
<text x="488.79" y="492" font-size="12" text-anchor="middle" fill="#555555">48</text>
<line x1="497.27" y1="60" x2="497.27" y2="470" stroke="#f3f4f6" stroke-width="1"/>
<text x="497.27" y="492" font-size="12" text-anchor="middle" fill="#555555">49</text>
<line x1="505.76" y1="60" x2="505.76" y2="470" stroke="#f3f4f6" stroke-width="1"/>
<text x="505.76" y="492" font-size="12" text-anchor="middle" fill="#555555">50</text>
<line x1="514.24" y1="60" x2="514.24" y2="470" stroke="#f3f4f6" stroke-width="1"/>
<text x="514.24" y="492" font-size="12" text-anchor="middle" fill="#555555">51</text>
<line x1="522.73" y1="60" x2="522.73" y2="470" stroke="#f3f4f6" stroke-width="1"/>
<text x="522.73" y="492" font-size="12" text-anchor="middle" fill="#555555">52</text>
<line x1="531.21" y1="60" x2="531.21" y2="470" stroke="#f3f4f6" stroke-width="1"/>
<text x="531.21" y="492" font-size="12" text-anchor="middle" fill="#555555">53</text>
<line x1="539.70" y1="60" x2="539.70" y2="470" stroke="#f3f4f6" stroke-width="1"/>
<text x="539.70" y="492" font-size="12" text-anchor="middle" fill="#555555">54</text>
<line x1="548.18" y1="60" x2="548.18" y2="470" stroke="#f3f4f6" stroke-width="1"/>
<text x="548.18" y="492" font-size="12" text-anchor="middle" fill="#555555">55</text>
<line x1="556.67" y1="60" x2="556.67" y2="470" stroke="#f3f4f6" stroke-width="1"/>
<text x="556.67" y="492" font-size="12" text-anchor="middle" fill="#555555">56</text>
<line x1="565.15" y1="60" x2="565.15" y2="470" stroke="#f3f4f6" stroke-width="1"/>
<text x="565.15" y="492" font-size="12" text-anchor="middle" fill="#555555">57</text>
<line x1="573.64" y1="60" x2="573.64" y2="470" stroke="#f3f4f6" stroke-width="1"/>
<text x="573.64" y="492" font-size="12" text-anchor="middle" fill="#555555">58</text>
<line x1="582.12" y1="60" x2="582.12" y2="470" stroke="#f3f4f6" stroke-width="1"/>
<text x="582.12" y="492" font-size="12" text-anchor="middle" fill="#555555">59</text>
<line x1="590.61" y1="60" x2="590.61" y2="470" stroke="#f3f4f6" stroke-width="1"/>
<text x="590.61" y="492" font-size="12" text-anchor="middle" fill="#555555">60</text>
<line x1="599.09" y1="60" x2="599.09" y2="470" stroke="#f3f4f6" stroke-width="1"/>
<text x="599.09" y="492" font-size="12" text-anchor="middle" fill="#555555">61</text>
<line x1="607.58" y1="60" x2="607.58" y2="470" stroke="#f3f4f6" stroke-width="1"/>
<text x="607.58" y="492" font-size="12" text-anchor="middle" fill="#555555">62</text>
<line x1="616.06" y1="60" x2="616.06" y2="470" stroke="#f3f4f6" stroke-width="1"/>
<text x="616.06" y="492" font-size="12" text-anchor="middle" fill="#555555">63</text>
<line x1="624.55" y1="60" x2="624.55" y2="470" stroke="#f3f4f6" stroke-width="1"/>
<text x="624.55" y="492" font-size="12" text-anchor="middle" fill="#555555">64</text>
<line x1="633.03" y1="60" x2="633.03" y2="470" stroke="#f3f4f6" stroke-width="1"/>
<text x="633.03" y="492" font-size="12" text-anchor="middle" fill="#555555">65</text>
<line x1="641.52" y1="60" x2="641.52" y2="470" stroke="#f3f4f6" stroke-width="1"/>
<text x="641.52" y="492" font-size="12" text-anchor="middle" fill="#555555">66</text>
<line x1="650.00" y1="60" x2="650.00" y2="470" stroke="#f3f4f6" stroke-width="1"/>
<text x="650.00" y="492" font-size="12" text-anchor="middle" fill="#555555">67</text>
<line x1="658.48" y1="60" x2="658.48" y2="470" stroke="#f3f4f6" stroke-width="1"/>
<text x="658.48" y="492" font-size="12" text-anchor="middle" fill="#555555">68</text>
<line x1="666.97" y1="60" x2="666.97" y2="470" stroke="#f3f4f6" stroke-width="1"/>
<text x="666.97" y="492" font-size="12" text-anchor="middle" fill="#555555">69</text>
<line x1="675.45" y1="60" x2="675.45" y2="470" stroke="#f3f4f6" stroke-width="1"/>
<text x="675.45" y="492" font-size="12" text-anchor="middle" fill="#555555">70</text>
<line x1="683.94" y1="60" x2="683.94" y2="470" stroke="#f3f4f6" stroke-width="1"/>
<text x="683.94" y="492" font-size="12" text-anchor="middle" fill="#555555">71</text>
<line x1="692.42" y1="60" x2="692.42" y2="470" stroke="#f3f4f6" stroke-width="1"/>
<text x="692.42" y="492" font-size="12" text-anchor="middle" fill="#555555">72</text>
<line x1="700.91" y1="60" x2="700.91" y2="470" stroke="#f3f4f6" stroke-width="1"/>
<text x="700.91" y="492" font-size="12" text-anchor="middle" fill="#555555">73</text>
<line x1="709.39" y1="60" x2="709.39" y2="470" stroke="#f3f4f6" stroke-width="1"/>
<text x="709.39" y="492" font-size="12" text-anchor="middle" fill="#555555">74</text>
<line x1="717.88" y1="60" x2="717.88" y2="470" stroke="#f3f4f6" stroke-width="1"/>
<text x="717.88" y="492" font-size="12" text-anchor="middle" fill="#555555">75</text>
<line x1="726.36" y1="60" x2="726.36" y2="470" stroke="#f3f4f6" stroke-width="1"/>
<text x="726.36" y="492" font-size="12" text-anchor="middle" fill="#555555">76</text>
<line x1="734.85" y1="60" x2="734.85" y2="470" stroke="#f3f4f6" stroke-width="1"/>
<text x="734.85" y="492" font-size="12" text-anchor="middle" fill="#555555">77</text>
<line x1="743.33" y1="60" x2="743.33" y2="470" stroke="#f3f4f6" stroke-width="1"/>
<text x="743.33" y="492" font-size="12" text-anchor="middle" fill="#555555">78</text>
<line x1="751.82" y1="60" x2="751.82" y2="470" stroke="#f3f4f6" stroke-width="1"/>
<text x="751.82" y="492" font-size="12" text-anchor="middle" fill="#555555">79</text>
<line x1="760.30" y1="60" x2="760.30" y2="470" stroke="#f3f4f6" stroke-width="1"/>
<text x="760.30" y="492" font-size="12" text-anchor="middle" fill="#555555">80</text>
<line x1="768.79" y1="60" x2="768.79" y2="470" stroke="#f3f4f6" stroke-width="1"/>
<text x="768.79" y="492" font-size="12" text-anchor="middle" fill="#555555">81</text>
<line x1="777.27" y1="60" x2="777.27" y2="470" stroke="#f3f4f6" stroke-width="1"/>
<text x="777.27" y="492" font-size="12" text-anchor="middle" fill="#555555">82</text>
<line x1="785.76" y1="60" x2="785.76" y2="470" stroke="#f3f4f6" stroke-width="1"/>
<text x="785.76" y="492" font-size="12" text-anchor="middle" fill="#555555">83</text>
<line x1="794.24" y1="60" x2="794.24" y2="470" stroke="#f3f4f6" stroke-width="1"/>
<text x="794.24" y="492" font-size="12" text-anchor="middle" fill="#555555">84</text>
<line x1="802.73" y1="60" x2="802.73" y2="470" stroke="#f3f4f6" stroke-width="1"/>
<text x="802.73" y="492" font-size="12" text-anchor="middle" fill="#555555">85</text>
<line x1="811.21" y1="60" x2="811.21" y2="470" stroke="#f3f4f6" stroke-width="1"/>
<text x="811.21" y="492" font-size="12" text-anchor="middle" fill="#555555">86</text>
<line x1="819.70" y1="60" x2="819.70" y2="470" stroke="#f3f4f6" stroke-width="1"/>
<text x="819.70" y="492" font-size="12" text-anchor="middle" fill="#555555">87</text>
<line x1="828.18" y1="60" x2="828.18" y2="470" stroke="#f3f4f6" stroke-width="1"/>
<text x="828.18" y="492" font-size="12" text-anchor="middle" fill="#555555">88</text>
<line x1="836.67" y1="60" x2="836.67" y2="470" stroke="#f3f4f6" stroke-width="1"/>
<text x="836.67" y="492" font-size="12" text-anchor="middle" fill="#555555">89</text>
<line x1="845.15" y1="60" x2="845.15" y2="470" stroke="#f3f4f6" stroke-width="1"/>
<text x="845.15" y="492" font-size="12" text-anchor="middle" fill="#555555">90</text>
<line x1="853.64" y1="60" x2="853.64" y2="470" stroke="#f3f4f6" stroke-width="1"/>
<text x="853.64" y="492" font-size="12" text-anchor="middle" fill="#555555">91</text>
<line x1="862.12" y1="60" x2="862.12" y2="470" stroke="#f3f4f6" stroke-width="1"/>
<text x="862.12" y="492" font-size="12" text-anchor="middle" fill="#555555">92</text>
<line x1="870.61" y1="60" x2="870.61" y2="470" stroke="#f3f4f6" stroke-width="1"/>
<text x="870.61" y="492" font-size="12" text-anchor="middle" fill="#555555">93</text>
<line x1="879.09" y1="60" x2="879.09" y2="470" stroke="#f3f4f6" stroke-width="1"/>
<text x="879.09" y="492" font-size="12" text-anchor="middle" fill="#555555">94</text>
<line x1="887.58" y1="60" x2="887.58" y2="470" stroke="#f3f4f6" stroke-width="1"/>
<text x="887.58" y="492" font-size="12" text-anchor="middle" fill="#555555">95</text>
<line x1="896.06" y1="60" x2="896.06" y2="470" stroke="#f3f4f6" stroke-width="1"/>
<text x="896.06" y="492" font-size="12" text-anchor="middle" fill="#555555">96</text>
<line x1="904.55" y1="60" x2="904.55" y2="470" stroke="#f3f4f6" stroke-width="1"/>
<text x="904.55" y="492" font-size="12" text-anchor="middle" fill="#555555">97</text>
<line x1="913.03" y1="60" x2="913.03" y2="470" stroke="#f3f4f6" stroke-width="1"/>
<text x="913.03" y="492" font-size="12" text-anchor="middle" fill="#555555">98</text>
<line x1="921.52" y1="60" x2="921.52" y2="470" stroke="#f3f4f6" stroke-width="1"/>
<text x="921.52" y="492" font-size="12" text-anchor="middle" fill="#555555">99</text>
<line x1="930.00" y1="60" x2="930.00" y2="470" stroke="#f3f4f6" stroke-width="1"/>
<text x="930.00" y="492" font-size="12" text-anchor="middle" fill="#555555">100</text>
<polyline fill="none" stroke="#d97706" stroke-width="3" points="90.00,427.74 98.48,221.24 106.97,229.72 115.45,372.93 123.94,192.14 132.42,143.34 140.91,152.31 149.39,131.80 157.88,196.46 166.36,151.17 174.85,133.00 183.33,124.74 191.82,116.27 200.30,137.33 208.79,138.37 217.27,138.42 225.76,116.32 234.24,121.35 242.73,116.59 251.21,115.77 259.70,108.99 268.18,107.51 276.67,109.15 285.15,111.62 293.64,110.41 302.12,114.46 310.61,112.44 319.09,110.58 327.58,117.80 336.06,113.31 344.55,111.73 353.03,117.14 361.52,106.47 370.00,116.54 378.48,110.58 386.97,109.37 395.45,114.73 403.94,106.69 412.42,174.41 420.91,104.01 429.39,108.83 437.88,109.87 446.36,108.22 454.85,103.25 463.33,111.73 471.82,123.05 480.30,105.54 488.79,107.73 497.27,106.86 505.76,116.10 514.24,97.78 522.73,97.67 531.21,96.41 539.70,96.68 548.18,96.30 556.67,95.59 565.15,95.21 573.64,96.14 582.12,95.32 590.61,96.35 599.09,95.42 607.58,95.37 616.06,95.21 624.55,95.86 633.03,96.57 641.52,94.82 650.00,96.14 658.48,95.53 666.97,96.19 675.45,95.48 683.94,96.74 692.42,94.82 700.91,94.99 709.39,96.57 717.88,96.68 726.36,95.21 734.85,96.03 743.33,96.19 751.82,94.99 760.30,96.35 768.79,95.42 777.27,95.59 785.76,95.04 794.24,95.10 802.73,95.64 811.21,94.49 819.70,94.88 828.18,95.04 836.67,94.99 845.15,96.46 853.64,96.14 862.12,94.77 870.61,95.37 879.09,94.99 887.58,95.42 896.06,94.17 904.55,95.86 913.03,94.22 921.52,95.59 930.00,96.25"/>
<circle cx="90.00" cy="427.74" r="4.5" fill="#d97706" fill-opacity="0.9"/>
<circle cx="98.48" cy="221.24" r="4.5" fill="#d97706" fill-opacity="0.9"/>
<circle cx="106.97" cy="229.72" r="4.5" fill="#d97706" fill-opacity="0.9"/>
<circle cx="115.45" cy="372.93" r="4.5" fill="#d97706" fill-opacity="0.9"/>
<circle cx="123.94" cy="192.14" r="4.5" fill="#d97706" fill-opacity="0.9"/>
<circle cx="132.42" cy="143.34" r="4.5" fill="#d97706" fill-opacity="0.9"/>
<circle cx="140.91" cy="152.31" r="4.5" fill="#d97706" fill-opacity="0.9"/>
<circle cx="149.39" cy="131.80" r="4.5" fill="#d97706" fill-opacity="0.9"/>
<circle cx="157.88" cy="196.46" r="4.5" fill="#d97706" fill-opacity="0.9"/>
<circle cx="166.36" cy="151.17" r="4.5" fill="#d97706" fill-opacity="0.9"/>
<circle cx="174.85" cy="133.00" r="4.5" fill="#d97706" fill-opacity="0.9"/>
<circle cx="183.33" cy="124.74" r="4.5" fill="#d97706" fill-opacity="0.9"/>
<circle cx="191.82" cy="116.27" r="4.5" fill="#d97706" fill-opacity="0.9"/>
<circle cx="200.30" cy="137.33" r="4.5" fill="#d97706" fill-opacity="0.9"/>
<circle cx="208.79" cy="138.37" r="4.5" fill="#d97706" fill-opacity="0.9"/>
<circle cx="217.27" cy="138.42" r="4.5" fill="#d97706" fill-opacity="0.9"/>
<circle cx="225.76" cy="116.32" r="4.5" fill="#d97706" fill-opacity="0.9"/>
<circle cx="234.24" cy="121.35" r="4.5" fill="#d97706" fill-opacity="0.9"/>
<circle cx="242.73" cy="116.59" r="4.5" fill="#d97706" fill-opacity="0.9"/>
<circle cx="251.21" cy="115.77" r="4.5" fill="#d97706" fill-opacity="0.9"/>
<circle cx="259.70" cy="108.99" r="4.5" fill="#d97706" fill-opacity="0.9"/>
<circle cx="268.18" cy="107.51" r="4.5" fill="#d97706" fill-opacity="0.9"/>
<circle cx="276.67" cy="109.15" r="4.5" fill="#d97706" fill-opacity="0.9"/>
<circle cx="285.15" cy="111.62" r="4.5" fill="#d97706" fill-opacity="0.9"/>
<circle cx="293.64" cy="110.41" r="4.5" fill="#d97706" fill-opacity="0.9"/>
<circle cx="302.12" cy="114.46" r="4.5" fill="#d97706" fill-opacity="0.9"/>
<circle cx="310.61" cy="112.44" r="4.5" fill="#d97706" fill-opacity="0.9"/>
<circle cx="319.09" cy="110.58" r="4.5" fill="#d97706" fill-opacity="0.9"/>
<circle cx="327.58" cy="117.80" r="4.5" fill="#d97706" fill-opacity="0.9"/>
<circle cx="336.06" cy="113.31" r="4.5" fill="#d97706" fill-opacity="0.9"/>
<circle cx="344.55" cy="111.73" r="4.5" fill="#d97706" fill-opacity="0.9"/>
<circle cx="353.03" cy="117.14" r="4.5" fill="#d97706" fill-opacity="0.9"/>
<circle cx="361.52" cy="106.47" r="4.5" fill="#d97706" fill-opacity="0.9"/>
<circle cx="370.00" cy="116.54" r="4.5" fill="#d97706" fill-opacity="0.9"/>
<circle cx="378.48" cy="110.58" r="4.5" fill="#d97706" fill-opacity="0.9"/>
<circle cx="386.97" cy="109.37" r="4.5" fill="#d97706" fill-opacity="0.9"/>
<circle cx="395.45" cy="114.73" r="4.5" fill="#d97706" fill-opacity="0.9"/>
<circle cx="403.94" cy="106.69" r="4.5" fill="#d97706" fill-opacity="0.9"/>
<circle cx="412.42" cy="174.41" r="4.5" fill="#d97706" fill-opacity="0.9"/>
<circle cx="420.91" cy="104.01" r="4.5" fill="#d97706" fill-opacity="0.9"/>
<circle cx="429.39" cy="108.83" r="4.5" fill="#d97706" fill-opacity="0.9"/>
<circle cx="437.88" cy="109.87" r="4.5" fill="#d97706" fill-opacity="0.9"/>
<circle cx="446.36" cy="108.22" r="4.5" fill="#d97706" fill-opacity="0.9"/>
<circle cx="454.85" cy="103.25" r="4.5" fill="#d97706" fill-opacity="0.9"/>
<circle cx="463.33" cy="111.73" r="4.5" fill="#d97706" fill-opacity="0.9"/>
<circle cx="471.82" cy="123.05" r="4.5" fill="#d97706" fill-opacity="0.9"/>
<circle cx="480.30" cy="105.54" r="4.5" fill="#d97706" fill-opacity="0.9"/>
<circle cx="488.79" cy="107.73" r="4.5" fill="#d97706" fill-opacity="0.9"/>
<circle cx="497.27" cy="106.86" r="4.5" fill="#d97706" fill-opacity="0.9"/>
<circle cx="505.76" cy="116.10" r="4.5" fill="#d97706" fill-opacity="0.9"/>
<circle cx="514.24" cy="97.78" r="4.5" fill="#d97706" fill-opacity="0.9"/>
<circle cx="522.73" cy="97.67" r="4.5" fill="#d97706" fill-opacity="0.9"/>
<circle cx="531.21" cy="96.41" r="4.5" fill="#d97706" fill-opacity="0.9"/>
<circle cx="539.70" cy="96.68" r="4.5" fill="#d97706" fill-opacity="0.9"/>
<circle cx="548.18" cy="96.30" r="4.5" fill="#d97706" fill-opacity="0.9"/>
<circle cx="556.67" cy="95.59" r="4.5" fill="#d97706" fill-opacity="0.9"/>
<circle cx="565.15" cy="95.21" r="4.5" fill="#d97706" fill-opacity="0.9"/>
<circle cx="573.64" cy="96.14" r="4.5" fill="#d97706" fill-opacity="0.9"/>
<circle cx="582.12" cy="95.32" r="4.5" fill="#d97706" fill-opacity="0.9"/>
<circle cx="590.61" cy="96.35" r="4.5" fill="#d97706" fill-opacity="0.9"/>
<circle cx="599.09" cy="95.42" r="4.5" fill="#d97706" fill-opacity="0.9"/>
<circle cx="607.58" cy="95.37" r="4.5" fill="#d97706" fill-opacity="0.9"/>
<circle cx="616.06" cy="95.21" r="4.5" fill="#d97706" fill-opacity="0.9"/>
<circle cx="624.55" cy="95.86" r="4.5" fill="#d97706" fill-opacity="0.9"/>
<circle cx="633.03" cy="96.57" r="4.5" fill="#d97706" fill-opacity="0.9"/>
<circle cx="641.52" cy="94.82" r="4.5" fill="#d97706" fill-opacity="0.9"/>
<circle cx="650.00" cy="96.14" r="4.5" fill="#d97706" fill-opacity="0.9"/>
<circle cx="658.48" cy="95.53" r="4.5" fill="#d97706" fill-opacity="0.9"/>
<circle cx="666.97" cy="96.19" r="4.5" fill="#d97706" fill-opacity="0.9"/>
<circle cx="675.45" cy="95.48" r="4.5" fill="#d97706" fill-opacity="0.9"/>
<circle cx="683.94" cy="96.74" r="4.5" fill="#d97706" fill-opacity="0.9"/>
<circle cx="692.42" cy="94.82" r="4.5" fill="#d97706" fill-opacity="0.9"/>
<circle cx="700.91" cy="94.99" r="4.5" fill="#d97706" fill-opacity="0.9"/>
<circle cx="709.39" cy="96.57" r="4.5" fill="#d97706" fill-opacity="0.9"/>
<circle cx="717.88" cy="96.68" r="4.5" fill="#d97706" fill-opacity="0.9"/>
<circle cx="726.36" cy="95.21" r="4.5" fill="#d97706" fill-opacity="0.9"/>
<circle cx="734.85" cy="96.03" r="4.5" fill="#d97706" fill-opacity="0.9"/>
<circle cx="743.33" cy="96.19" r="4.5" fill="#d97706" fill-opacity="0.9"/>
<circle cx="751.82" cy="94.99" r="4.5" fill="#d97706" fill-opacity="0.9"/>
<circle cx="760.30" cy="96.35" r="4.5" fill="#d97706" fill-opacity="0.9"/>
<circle cx="768.79" cy="95.42" r="4.5" fill="#d97706" fill-opacity="0.9"/>
<circle cx="777.27" cy="95.59" r="4.5" fill="#d97706" fill-opacity="0.9"/>
<circle cx="785.76" cy="95.04" r="4.5" fill="#d97706" fill-opacity="0.9"/>
<circle cx="794.24" cy="95.10" r="4.5" fill="#d97706" fill-opacity="0.9"/>
<circle cx="802.73" cy="95.64" r="4.5" fill="#d97706" fill-opacity="0.9"/>
<circle cx="811.21" cy="94.49" r="4.5" fill="#d97706" fill-opacity="0.9"/>
<circle cx="819.70" cy="94.88" r="4.5" fill="#d97706" fill-opacity="0.9"/>
<circle cx="828.18" cy="95.04" r="4.5" fill="#d97706" fill-opacity="0.9"/>
<circle cx="836.67" cy="94.99" r="4.5" fill="#d97706" fill-opacity="0.9"/>
<circle cx="845.15" cy="96.46" r="4.5" fill="#d97706" fill-opacity="0.9"/>
<circle cx="853.64" cy="96.14" r="4.5" fill="#d97706" fill-opacity="0.9"/>
<circle cx="862.12" cy="94.77" r="4.5" fill="#d97706" fill-opacity="0.9"/>
<circle cx="870.61" cy="95.37" r="4.5" fill="#d97706" fill-opacity="0.9"/>
<circle cx="879.09" cy="94.99" r="4.5" fill="#d97706" fill-opacity="0.9"/>
<circle cx="887.58" cy="95.42" r="4.5" fill="#d97706" fill-opacity="0.9"/>
<circle cx="896.06" cy="94.17" r="4.5" fill="#d97706" fill-opacity="0.9"/>
<circle cx="904.55" cy="95.86" r="4.5" fill="#d97706" fill-opacity="0.9"/>
<circle cx="913.03" cy="94.22" r="4.5" fill="#d97706" fill-opacity="0.9"/>
<circle cx="921.52" cy="95.59" r="4.5" fill="#d97706" fill-opacity="0.9"/>
<circle cx="930.00" cy="96.25" r="4.5" fill="#d97706" fill-opacity="0.9"/>
<rect x="90" y="32" width="18" height="6" fill="#d97706"/>
<text x="114" y="38" font-size="13" fill="#333333">val</text>
<polyline fill="none" stroke="#059669" stroke-width="3" points="90.00,435.83 98.48,221.29 106.97,226.87 115.45,367.62 123.94,190.06 132.42,143.12 140.91,149.74 149.39,133.66 157.88,194.71 166.36,147.66 174.85,135.30 183.33,124.25 191.82,118.07 200.30,138.69 208.79,134.86 217.27,140.33 225.76,116.21 234.24,120.15 242.73,116.16 251.21,116.92 259.70,109.98 268.18,106.64 276.67,104.56 285.15,110.63 293.64,110.91 302.12,116.48 310.61,108.50 319.09,107.57 327.58,116.70 336.06,113.09 344.55,110.74 353.03,117.47 361.52,107.95 370.00,117.14 378.48,112.38 386.97,108.22 395.45,115.34 403.94,107.62 412.42,173.76 420.91,106.97 429.39,108.77 437.88,111.12 446.36,110.03 454.85,104.72 463.33,112.16 471.82,122.45 480.30,107.30 488.79,108.50 497.27,107.30 505.76,118.67 514.24,98.54 522.73,98.71 531.21,96.25 539.70,96.25 548.18,96.68 556.67,97.72 565.15,95.75 573.64,96.14 582.12,95.75 590.61,96.90 599.09,96.52 607.58,95.86 616.06,95.86 624.55,96.30 633.03,97.18 641.52,95.37 650.00,96.30 658.48,97.72 666.97,98.00 675.45,95.81 683.94,96.74 692.42,95.10 700.91,94.77 709.39,97.61 717.88,98.00 726.36,96.63 734.85,96.57 743.33,96.52 751.82,94.77 760.30,95.86 768.79,95.81 777.27,95.42 785.76,95.81 794.24,95.32 802.73,96.46 811.21,95.21 819.70,94.44 828.18,96.41 836.67,95.59 845.15,97.61 853.64,96.68 862.12,95.70 870.61,95.92 879.09,96.25 887.58,97.01 896.06,95.86 904.55,96.08 913.03,95.26 921.52,96.96 930.00,96.85"/>
<circle cx="90.00" cy="435.83" r="4.5" fill="#059669" fill-opacity="0.9"/>
<circle cx="98.48" cy="221.29" r="4.5" fill="#059669" fill-opacity="0.9"/>
<circle cx="106.97" cy="226.87" r="4.5" fill="#059669" fill-opacity="0.9"/>
<circle cx="115.45" cy="367.62" r="4.5" fill="#059669" fill-opacity="0.9"/>
<circle cx="123.94" cy="190.06" r="4.5" fill="#059669" fill-opacity="0.9"/>
<circle cx="132.42" cy="143.12" r="4.5" fill="#059669" fill-opacity="0.9"/>
<circle cx="140.91" cy="149.74" r="4.5" fill="#059669" fill-opacity="0.9"/>
<circle cx="149.39" cy="133.66" r="4.5" fill="#059669" fill-opacity="0.9"/>
<circle cx="157.88" cy="194.71" r="4.5" fill="#059669" fill-opacity="0.9"/>
<circle cx="166.36" cy="147.66" r="4.5" fill="#059669" fill-opacity="0.9"/>
<circle cx="174.85" cy="135.30" r="4.5" fill="#059669" fill-opacity="0.9"/>
<circle cx="183.33" cy="124.25" r="4.5" fill="#059669" fill-opacity="0.9"/>
<circle cx="191.82" cy="118.07" r="4.5" fill="#059669" fill-opacity="0.9"/>
<circle cx="200.30" cy="138.69" r="4.5" fill="#059669" fill-opacity="0.9"/>
<circle cx="208.79" cy="134.86" r="4.5" fill="#059669" fill-opacity="0.9"/>
<circle cx="217.27" cy="140.33" r="4.5" fill="#059669" fill-opacity="0.9"/>
<circle cx="225.76" cy="116.21" r="4.5" fill="#059669" fill-opacity="0.9"/>
<circle cx="234.24" cy="120.15" r="4.5" fill="#059669" fill-opacity="0.9"/>
<circle cx="242.73" cy="116.16" r="4.5" fill="#059669" fill-opacity="0.9"/>
<circle cx="251.21" cy="116.92" r="4.5" fill="#059669" fill-opacity="0.9"/>
<circle cx="259.70" cy="109.98" r="4.5" fill="#059669" fill-opacity="0.9"/>
<circle cx="268.18" cy="106.64" r="4.5" fill="#059669" fill-opacity="0.9"/>
<circle cx="276.67" cy="104.56" r="4.5" fill="#059669" fill-opacity="0.9"/>
<circle cx="285.15" cy="110.63" r="4.5" fill="#059669" fill-opacity="0.9"/>
<circle cx="293.64" cy="110.91" r="4.5" fill="#059669" fill-opacity="0.9"/>
<circle cx="302.12" cy="116.48" r="4.5" fill="#059669" fill-opacity="0.9"/>
<circle cx="310.61" cy="108.50" r="4.5" fill="#059669" fill-opacity="0.9"/>
<circle cx="319.09" cy="107.57" r="4.5" fill="#059669" fill-opacity="0.9"/>
<circle cx="327.58" cy="116.70" r="4.5" fill="#059669" fill-opacity="0.9"/>
<circle cx="336.06" cy="113.09" r="4.5" fill="#059669" fill-opacity="0.9"/>
<circle cx="344.55" cy="110.74" r="4.5" fill="#059669" fill-opacity="0.9"/>
<circle cx="353.03" cy="117.47" r="4.5" fill="#059669" fill-opacity="0.9"/>
<circle cx="361.52" cy="107.95" r="4.5" fill="#059669" fill-opacity="0.9"/>
<circle cx="370.00" cy="117.14" r="4.5" fill="#059669" fill-opacity="0.9"/>
<circle cx="378.48" cy="112.38" r="4.5" fill="#059669" fill-opacity="0.9"/>
<circle cx="386.97" cy="108.22" r="4.5" fill="#059669" fill-opacity="0.9"/>
<circle cx="395.45" cy="115.34" r="4.5" fill="#059669" fill-opacity="0.9"/>
<circle cx="403.94" cy="107.62" r="4.5" fill="#059669" fill-opacity="0.9"/>
<circle cx="412.42" cy="173.76" r="4.5" fill="#059669" fill-opacity="0.9"/>
<circle cx="420.91" cy="106.97" r="4.5" fill="#059669" fill-opacity="0.9"/>
<circle cx="429.39" cy="108.77" r="4.5" fill="#059669" fill-opacity="0.9"/>
<circle cx="437.88" cy="111.12" r="4.5" fill="#059669" fill-opacity="0.9"/>
<circle cx="446.36" cy="110.03" r="4.5" fill="#059669" fill-opacity="0.9"/>
<circle cx="454.85" cy="104.72" r="4.5" fill="#059669" fill-opacity="0.9"/>
<circle cx="463.33" cy="112.16" r="4.5" fill="#059669" fill-opacity="0.9"/>
<circle cx="471.82" cy="122.45" r="4.5" fill="#059669" fill-opacity="0.9"/>
<circle cx="480.30" cy="107.30" r="4.5" fill="#059669" fill-opacity="0.9"/>
<circle cx="488.79" cy="108.50" r="4.5" fill="#059669" fill-opacity="0.9"/>
<circle cx="497.27" cy="107.30" r="4.5" fill="#059669" fill-opacity="0.9"/>
<circle cx="505.76" cy="118.67" r="4.5" fill="#059669" fill-opacity="0.9"/>
<circle cx="514.24" cy="98.54" r="4.5" fill="#059669" fill-opacity="0.9"/>
<circle cx="522.73" cy="98.71" r="4.5" fill="#059669" fill-opacity="0.9"/>
<circle cx="531.21" cy="96.25" r="4.5" fill="#059669" fill-opacity="0.9"/>
<circle cx="539.70" cy="96.25" r="4.5" fill="#059669" fill-opacity="0.9"/>
<circle cx="548.18" cy="96.68" r="4.5" fill="#059669" fill-opacity="0.9"/>
<circle cx="556.67" cy="97.72" r="4.5" fill="#059669" fill-opacity="0.9"/>
<circle cx="565.15" cy="95.75" r="4.5" fill="#059669" fill-opacity="0.9"/>
<circle cx="573.64" cy="96.14" r="4.5" fill="#059669" fill-opacity="0.9"/>
<circle cx="582.12" cy="95.75" r="4.5" fill="#059669" fill-opacity="0.9"/>
<circle cx="590.61" cy="96.90" r="4.5" fill="#059669" fill-opacity="0.9"/>
<circle cx="599.09" cy="96.52" r="4.5" fill="#059669" fill-opacity="0.9"/>
<circle cx="607.58" cy="95.86" r="4.5" fill="#059669" fill-opacity="0.9"/>
<circle cx="616.06" cy="95.86" r="4.5" fill="#059669" fill-opacity="0.9"/>
<circle cx="624.55" cy="96.30" r="4.5" fill="#059669" fill-opacity="0.9"/>
<circle cx="633.03" cy="97.18" r="4.5" fill="#059669" fill-opacity="0.9"/>
<circle cx="641.52" cy="95.37" r="4.5" fill="#059669" fill-opacity="0.9"/>
<circle cx="650.00" cy="96.30" r="4.5" fill="#059669" fill-opacity="0.9"/>
<circle cx="658.48" cy="97.72" r="4.5" fill="#059669" fill-opacity="0.9"/>
<circle cx="666.97" cy="98.00" r="4.5" fill="#059669" fill-opacity="0.9"/>
<circle cx="675.45" cy="95.81" r="4.5" fill="#059669" fill-opacity="0.9"/>
<circle cx="683.94" cy="96.74" r="4.5" fill="#059669" fill-opacity="0.9"/>
<circle cx="692.42" cy="95.10" r="4.5" fill="#059669" fill-opacity="0.9"/>
<circle cx="700.91" cy="94.77" r="4.5" fill="#059669" fill-opacity="0.9"/>
<circle cx="709.39" cy="97.61" r="4.5" fill="#059669" fill-opacity="0.9"/>
<circle cx="717.88" cy="98.00" r="4.5" fill="#059669" fill-opacity="0.9"/>
<circle cx="726.36" cy="96.63" r="4.5" fill="#059669" fill-opacity="0.9"/>
<circle cx="734.85" cy="96.57" r="4.5" fill="#059669" fill-opacity="0.9"/>
<circle cx="743.33" cy="96.52" r="4.5" fill="#059669" fill-opacity="0.9"/>
<circle cx="751.82" cy="94.77" r="4.5" fill="#059669" fill-opacity="0.9"/>
<circle cx="760.30" cy="95.86" r="4.5" fill="#059669" fill-opacity="0.9"/>
<circle cx="768.79" cy="95.81" r="4.5" fill="#059669" fill-opacity="0.9"/>
<circle cx="777.27" cy="95.42" r="4.5" fill="#059669" fill-opacity="0.9"/>
<circle cx="785.76" cy="95.81" r="4.5" fill="#059669" fill-opacity="0.9"/>
<circle cx="794.24" cy="95.32" r="4.5" fill="#059669" fill-opacity="0.9"/>
<circle cx="802.73" cy="96.46" r="4.5" fill="#059669" fill-opacity="0.9"/>
<circle cx="811.21" cy="95.21" r="4.5" fill="#059669" fill-opacity="0.9"/>
<circle cx="819.70" cy="94.44" r="4.5" fill="#059669" fill-opacity="0.9"/>
<circle cx="828.18" cy="96.41" r="4.5" fill="#059669" fill-opacity="0.9"/>
<circle cx="836.67" cy="95.59" r="4.5" fill="#059669" fill-opacity="0.9"/>
<circle cx="845.15" cy="97.61" r="4.5" fill="#059669" fill-opacity="0.9"/>
<circle cx="853.64" cy="96.68" r="4.5" fill="#059669" fill-opacity="0.9"/>
<circle cx="862.12" cy="95.70" r="4.5" fill="#059669" fill-opacity="0.9"/>
<circle cx="870.61" cy="95.92" r="4.5" fill="#059669" fill-opacity="0.9"/>
<circle cx="879.09" cy="96.25" r="4.5" fill="#059669" fill-opacity="0.9"/>
<circle cx="887.58" cy="97.01" r="4.5" fill="#059669" fill-opacity="0.9"/>
<circle cx="896.06" cy="95.86" r="4.5" fill="#059669" fill-opacity="0.9"/>
<circle cx="904.55" cy="96.08" r="4.5" fill="#059669" fill-opacity="0.9"/>
<circle cx="913.03" cy="95.26" r="4.5" fill="#059669" fill-opacity="0.9"/>
<circle cx="921.52" cy="96.96" r="4.5" fill="#059669" fill-opacity="0.9"/>
<circle cx="930.00" cy="96.85" r="4.5" fill="#059669" fill-opacity="0.9"/>
<rect x="270" y="32" width="18" height="6" fill="#059669"/>
<text x="294" y="38" font-size="13" fill="#333333">test</text>
</svg>