<svg xmlns="http://www.w3.org/2000/svg" width="960" height="540">
<rect width="100%" height="100%" fill="#ffffff"/>
<text x="480.0" y="30" font-size="22" text-anchor="middle" fill="#111111">Position 1 Accuracy</text>
<text x="20" y="270.0" font-size="16" transform="rotate(-90 20,270.0)" text-anchor="middle" fill="#333333">Accuracy</text>
<text x="480.0" y="520" font-size="16" text-anchor="middle" fill="#333333">Epoch</text>
<line x1="90" y1="60" x2="90" y2="470" stroke="#333333" stroke-width="2"/>
<line x1="90" y1="470" x2="930" y2="470" stroke="#333333" stroke-width="2"/>
<line x1="90" y1="470.00" x2="930" y2="470.00" stroke="#e5e7eb" stroke-width="1"/>
<text x="80" y="475.00" font-size="12" text-anchor="end" fill="#555555">0.8910</text>
<line x1="90" y1="367.50" x2="930" y2="367.50" stroke="#e5e7eb" stroke-width="1"/>
<text x="80" y="372.50" font-size="12" text-anchor="end" fill="#555555">0.9190</text>
<line x1="90" y1="265.00" x2="930" y2="265.00" stroke="#e5e7eb" stroke-width="1"/>
<text x="80" y="270.00" font-size="12" text-anchor="end" fill="#555555">0.9469</text>
<line x1="90" y1="162.50" x2="930" y2="162.50" stroke="#e5e7eb" stroke-width="1"/>
<text x="80" y="167.50" font-size="12" text-anchor="end" fill="#555555">0.9748</text>
<line x1="90" y1="60.00" x2="930" y2="60.00" stroke="#e5e7eb" stroke-width="1"/>
<text x="80" y="65.00" font-size="12" text-anchor="end" fill="#555555">1.0028</text>
<line x1="90.00" y1="60" x2="90.00" y2="470" stroke="#f3f4f6" stroke-width="1"/>
<text x="90.00" y="492" font-size="12" text-anchor="middle" fill="#555555">1</text>
<line x1="98.48" y1="60" x2="98.48" y2="470" stroke="#f3f4f6" stroke-width="1"/>
<text x="98.48" y="492" font-size="12" text-anchor="middle" fill="#555555">2</text>
<line x1="106.97" y1="60" x2="106.97" y2="470" stroke="#f3f4f6" stroke-width="1"/>
<text x="106.97" y="492" font-size="12" text-anchor="middle" fill="#555555">3</text>
<line x1="115.45" y1="60" x2="115.45" y2="470" stroke="#f3f4f6" stroke-width="1"/>
<text x="115.45" y="492" font-size="12" text-anchor="middle" fill="#555555">4</text>
<line x1="123.94" y1="60" x2="123.94" y2="470" stroke="#f3f4f6" stroke-width="1"/>
<text x="123.94" y="492" font-size="12" text-anchor="middle" fill="#555555">5</text>
<line x1="132.42" y1="60" x2="132.42" y2="470" stroke="#f3f4f6" stroke-width="1"/>
<text x="132.42" y="492" font-size="12" text-anchor="middle" fill="#555555">6</text>
<line x1="140.91" y1="60" x2="140.91" y2="470" stroke="#f3f4f6" stroke-width="1"/>
<text x="140.91" y="492" font-size="12" text-anchor="middle" fill="#555555">7</text>
<line x1="149.39" y1="60" x2="149.39" y2="470" stroke="#f3f4f6" stroke-width="1"/>
<text x="149.39" y="492" font-size="12" text-anchor="middle" fill="#555555">8</text>
<line x1="157.88" y1="60" x2="157.88" y2="470" stroke="#f3f4f6" stroke-width="1"/>
<text x="157.88" y="492" font-size="12" text-anchor="middle" fill="#555555">9</text>
<line x1="166.36" y1="60" x2="166.36" y2="470" stroke="#f3f4f6" stroke-width="1"/>
<text x="166.36" y="492" font-size="12" text-anchor="middle" fill="#555555">10</text>
<line x1="174.85" y1="60" x2="174.85" y2="470" stroke="#f3f4f6" stroke-width="1"/>
<text x="174.85" y="492" font-size="12" text-anchor="middle" fill="#555555">11</text>
<line x1="183.33" y1="60" x2="183.33" y2="470" stroke="#f3f4f6" stroke-width="1"/>
<text x="183.33" y="492" font-size="12" text-anchor="middle" fill="#555555">12</text>
<line x1="191.82" y1="60" x2="191.82" y2="470" stroke="#f3f4f6" stroke-width="1"/>
<text x="191.82" y="492" font-size="12" text-anchor="middle" fill="#555555">13</text>
<line x1="200.30" y1="60" x2="200.30" y2="470" stroke="#f3f4f6" stroke-width="1"/>
<text x="200.30" y="492" font-size="12" text-anchor="middle" fill="#555555">14</text>
<line x1="208.79" y1="60" x2="208.79" y2="470" stroke="#f3f4f6" stroke-width="1"/>
<text x="208.79" y="492" font-size="12" text-anchor="middle" fill="#555555">15</text>
<line x1="217.27" y1="60" x2="217.27" y2="470" stroke="#f3f4f6" stroke-width="1"/>
<text x="217.27" y="492" font-size="12" text-anchor="middle" fill="#555555">16</text>
<line x1="225.76" y1="60" x2="225.76" y2="470" stroke="#f3f4f6" stroke-width="1"/>
<text x="225.76" y="492" font-size="12" text-anchor="middle" fill="#555555">17</text>
<line x1="234.24" y1="60" x2="234.24" y2="470" stroke="#f3f4f6" stroke-width="1"/>
<text x="234.24" y="492" font-size="12" text-anchor="middle" fill="#555555">18</text>
<line x1="242.73" y1="60" x2="242.73" y2="470" stroke="#f3f4f6" stroke-width="1"/>
<text x="242.73" y="492" font-size="12" text-anchor="middle" fill="#555555">19</text>
<line x1="251.21" y1="60" x2="251.21" y2="470" stroke="#f3f4f6" stroke-width="1"/>
<text x="251.21" y="492" font-size="12" text-anchor="middle" fill="#555555">20</text>
<line x1="259.70" y1="60" x2="259.70" y2="470" stroke="#f3f4f6" stroke-width="1"/>
<text x="259.70" y="492" font-size="12" text-anchor="middle" fill="#555555">21</text>
<line x1="268.18" y1="60" x2="268.18" y2="470" stroke="#f3f4f6" stroke-width="1"/>
<text x="268.18" y="492" font-size="12" text-anchor="middle" fill="#555555">22</text>
<line x1="276.67" y1="60" x2="276.67" y2="470" stroke="#f3f4f6" stroke-width="1"/>
<text x="276.67" y="492" font-size="12" text-anchor="middle" fill="#555555">23</text>
<line x1="285.15" y1="60" x2="285.15" y2="470" stroke="#f3f4f6" stroke-width="1"/>
<text x="285.15" y="492" font-size="12" text-anchor="middle" fill="#555555">24</text>
<line x1="293.64" y1="60" x2="293.64" y2="470" stroke="#f3f4f6" stroke-width="1"/>
<text x="293.64" y="492" font-size="12" text-anchor="middle" fill="#555555">25</text>
<line x1="302.12" y1="60" x2="302.12" y2="470" stroke="#f3f4f6" stroke-width="1"/>
<text x="302.12" y="492" font-size="12" text-anchor="middle" fill="#555555">26</text>
<line x1="310.61" y1="60" x2="310.61" y2="470" stroke="#f3f4f6" stroke-width="1"/>
<text x="310.61" y="492" font-size="12" text-anchor="middle" fill="#555555">27</text>
<line x1="319.09" y1="60" x2="319.09" y2="470" stroke="#f3f4f6" stroke-width="1"/>
<text x="319.09" y="492" font-size="12" text-anchor="middle" fill="#555555">28</text>
<line x1="327.58" y1="60" x2="327.58" y2="470" stroke="#f3f4f6" stroke-width="1"/>
<text x="327.58" y="492" font-size="12" text-anchor="middle" fill="#555555">29</text>
<line x1="336.06" y1="60" x2="336.06" y2="470" stroke="#f3f4f6" stroke-width="1"/>
<text x="336.06" y="492" font-size="12" text-anchor="middle" fill="#555555">30</text>
<line x1="344.55" y1="60" x2="344.55" y2="470" stroke="#f3f4f6" stroke-width="1"/>
<text x="344.55" y="492" font-size="12" text-anchor="middle" fill="#555555">31</text>
<line x1="353.03" y1="60" x2="353.03" y2="470" stroke="#f3f4f6" stroke-width="1"/>
<text x="353.03" y="492" font-size="12" text-anchor="middle" fill="#555555">32</text>
<line x1="361.52" y1="60" x2="361.52" y2="470" stroke="#f3f4f6" stroke-width="1"/>
<text x="361.52" y="492" font-size="12" text-anchor="middle" fill="#555555">33</text>
<line x1="370.00" y1="60" x2="370.00" y2="470" stroke="#f3f4f6" stroke-width="1"/>
<text x="370.00" y="492" font-size="12" text-anchor="middle" fill="#555555">34</text>
<line x1="378.48" y1="60" x2="378.48" y2="470" stroke="#f3f4f6" stroke-width="1"/>
<text x="378.48" y="492" font-size="12" text-anchor="middle" fill="#555555">35</text>
<line x1="386.97" y1="60" x2="386.97" y2="470" stroke="#f3f4f6" stroke-width="1"/>
<text x="386.97" y="492" font-size="12" text-anchor="middle" fill="#555555">36</text>
<line x1="395.45" y1="60" x2="395.45" y2="470" stroke="#f3f4f6" stroke-width="1"/>
<text x="395.45" y="492" font-size="12" text-anchor="middle" fill="#555555">37</text>
<line x1="403.94" y1="60" x2="403.94" y2="470" stroke="#f3f4f6" stroke-width="1"/>
<text x="403.94" y="492" font-size="12" text-anchor="middle" fill="#555555">38</text>
<line x1="412.42" y1="60" x2="412.42" y2="470" stroke="#f3f4f6" stroke-width="1"/>
<text x="412.42" y="492" font-size="12" text-anchor="middle" fill="#555555">39</text>
<line x1="420.91" y1="60" x2="420.91" y2="470" stroke="#f3f4f6" stroke-width="1"/>
<text x="420.91" y="492" font-size="12" text-anchor="middle" fill="#555555">40</text>
<line x1="429.39" y1="60" x2="429.39" y2="470" stroke="#f3f4f6" stroke-width="1"/>
<text x="429.39" y="492" font-size="12" text-anchor="middle" fill="#555555">41</text>
<line x1="437.88" y1="60" x2="437.88" y2="470" stroke="#f3f4f6" stroke-width="1"/>
<text x="437.88" y="492" font-size="12" text-anchor="middle" fill="#555555">42</text>
<line x1="446.36" y1="60" x2="446.36" y2="470" stroke="#f3f4f6" stroke-width="1"/>
<text x="446.36" y="492" font-size="12" text-anchor="middle" fill="#555555">43</text>
<line x1="454.85" y1="60" x2="454.85" y2="470" stroke="#f3f4f6" stroke-width="1"/>
<text x="454.85" y="492" font-size="12" text-anchor="middle" fill="#555555">44</text>
<line x1="463.33" y1="60" x2="463.33" y2="470" stroke="#f3f4f6" stroke-width="1"/>
<text x="463.33" y="492" font-size="12" text-anchor="middle" fill="#555555">45</text>
<line x1="471.82" y1="60" x2="471.82" y2="470" stroke="#f3f4f6" stroke-width="1"/>
<text x="471.82" y="492" font-size="12" text-anchor="middle" fill="#555555">46</text>
<line x1="480.30" y1="60" x2="480.30" y2="470" stroke="#f3f4f6" stroke-width="1"/>
<text x="480.30" y="492" font-size="12" text-anchor="middle" fill="#555555">47</text>
<line x1="488.79" y1="60" x2="488.79" y2="470" stroke="#f3f4f6" stroke-width="1"/>
<text x="488.79" y="492" font-size="12" text-anchor="middle" fill="#555555">48</text>
<line x1="497.27" y1="60" x2="497.27" y2="470" stroke="#f3f4f6" stroke-width="1"/>
<text x="497.27" y="492" font-size="12" text-anchor="middle" fill="#555555">49</text>
<line x1="505.76" y1="60" x2="505.76" y2="470" stroke="#f3f4f6" stroke-width="1"/>
<text x="505.76" y="492" font-size="12" text-anchor="middle" fill="#555555">50</text>
<line x1="514.24" y1="60" x2="514.24" y2="470" stroke="#f3f4f6" stroke-width="1"/>
<text x="514.24" y="492" font-size="12" text-anchor="middle" fill="#555555">51</text>
<line x1="522.73" y1="60" x2="522.73" y2="470" stroke="#f3f4f6" stroke-width="1"/>
<text x="522.73" y="492" font-size="12" text-anchor="middle" fill="#555555">52</text>
<line x1="531.21" y1="60" x2="531.21" y2="470" stroke="#f3f4f6" stroke-width="1"/>
<text x="531.21" y="492" font-size="12" text-anchor="middle" fill="#555555">53</text>
<line x1="539.70" y1="60" x2="539.70" y2="470" stroke="#f3f4f6" stroke-width="1"/>
<text x="539.70" y="492" font-size="12" text-anchor="middle" fill="#555555">54</text>
<line x1="548.18" y1="60" x2="548.18" y2="470" stroke="#f3f4f6" stroke-width="1"/>
<text x="548.18" y="492" font-size="12" text-anchor="middle" fill="#555555">55</text>
<line x1="556.67" y1="60" x2="556.67" y2="470" stroke="#f3f4f6" stroke-width="1"/>
<text x="556.67" y="492" font-size="12" text-anchor="middle" fill="#555555">56</text>
<line x1="565.15" y1="60" x2="565.15" y2="470" stroke="#f3f4f6" stroke-width="1"/>
<text x="565.15" y="492" font-size="12" text-anchor="middle" fill="#555555">57</text>
<line x1="573.64" y1="60" x2="573.64" y2="470" stroke="#f3f4f6" stroke-width="1"/>
<text x="573.64" y="492" font-size="12" text-anchor="middle" fill="#555555">58</text>
<line x1="582.12" y1="60" x2="582.12" y2="470" stroke="#f3f4f6" stroke-width="1"/>
<text x="582.12" y="492" font-size="12" text-anchor="middle" fill="#555555">59</text>
<line x1="590.61" y1="60" x2="590.61" y2="470" stroke="#f3f4f6" stroke-width="1"/>
<text x="590.61" y="492" font-size="12" text-anchor="middle" fill="#555555">60</text>
<line x1="599.09" y1="60" x2="599.09" y2="470" stroke="#f3f4f6" stroke-width="1"/>
<text x="599.09" y="492" font-size="12" text-anchor="middle" fill="#555555">61</text>
<line x1="607.58" y1="60" x2="607.58" y2="470" stroke="#f3f4f6" stroke-width="1"/>
<text x="607.58" y="492" font-size="12" text-anchor="middle" fill="#555555">62</text>
<line x1="616.06" y1="60" x2="616.06" y2="470" stroke="#f3f4f6" stroke-width="1"/>
<text x="616.06" y="492" font-size="12" text-anchor="middle" fill="#555555">63</text>
<line x1="624.55" y1="60" x2="624.55" y2="470" stroke="#f3f4f6" stroke-width="1"/>
<text x="624.55" y="492" font-size="12" text-anchor="middle" fill="#555555">64</text>
<line x1="633.03" y1="60" x2="633.03" y2="470" stroke="#f3f4f6" stroke-width="1"/>
<text x="633.03" y="492" font-size="12" text-anchor="middle" fill="#555555">65</text>
<line x1="641.52" y1="60" x2="641.52" y2="470" stroke="#f3f4f6" stroke-width="1"/>
<text x="641.52" y="492" font-size="12" text-anchor="middle" fill="#555555">66</text>
<line x1="650.00" y1="60" x2="650.00" y2="470" stroke="#f3f4f6" stroke-width="1"/>
<text x="650.00" y="492" font-size="12" text-anchor="middle" fill="#555555">67</text>
<line x1="658.48" y1="60" x2="658.48" y2="470" stroke="#f3f4f6" stroke-width="1"/>
<text x="658.48" y="492" font-size="12" text-anchor="middle" fill="#555555">68</text>
<line x1="666.97" y1="60" x2="666.97" y2="470" stroke="#f3f4f6" stroke-width="1"/>
<text x="666.97" y="492" font-size="12" text-anchor="middle" fill="#555555">69</text>
<line x1="675.45" y1="60" x2="675.45" y2="470" stroke="#f3f4f6" stroke-width="1"/>
<text x="675.45" y="492" font-size="12" text-anchor="middle" fill="#555555">70</text>
<line x1="683.94" y1="60" x2="683.94" y2="470" stroke="#f3f4f6" stroke-width="1"/>
<text x="683.94" y="492" font-size="12" text-anchor="middle" fill="#555555">71</text>
<line x1="692.42" y1="60" x2="692.42" y2="470" stroke="#f3f4f6" stroke-width="1"/>
<text x="692.42" y="492" font-size="12" text-anchor="middle" fill="#555555">72</text>
<line x1="700.91" y1="60" x2="700.91" y2="470" stroke="#f3f4f6" stroke-width="1"/>
<text x="700.91" y="492" font-size="12" text-anchor="middle" fill="#555555">73</text>
<line x1="709.39" y1="60" x2="709.39" y2="470" stroke="#f3f4f6" stroke-width="1"/>
<text x="709.39" y="492" font-size="12" text-anchor="middle" fill="#555555">74</text>
<line x1="717.88" y1="60" x2="717.88" y2="470" stroke="#f3f4f6" stroke-width="1"/>
<text x="717.88" y="492" font-size="12" text-anchor="middle" fill="#555555">75</text>
<line x1="726.36" y1="60" x2="726.36" y2="470" stroke="#f3f4f6" stroke-width="1"/>
<text x="726.36" y="492" font-size="12" text-anchor="middle" fill="#555555">76</text>
<line x1="734.85" y1="60" x2="734.85" y2="470" stroke="#f3f4f6" stroke-width="1"/>
<text x="734.85" y="492" font-size="12" text-anchor="middle" fill="#555555">77</text>
<line x1="743.33" y1="60" x2="743.33" y2="470" stroke="#f3f4f6" stroke-width="1"/>
<text x="743.33" y="492" font-size="12" text-anchor="middle" fill="#555555">78</text>
<line x1="751.82" y1="60" x2="751.82" y2="470" stroke="#f3f4f6" stroke-width="1"/>
<text x="751.82" y="492" font-size="12" text-anchor="middle" fill="#555555">79</text>
<line x1="760.30" y1="60" x2="760.30" y2="470" stroke="#f3f4f6" stroke-width="1"/>
<text x="760.30" y="492" font-size="12" text-anchor="middle" fill="#555555">80</text>
<line x1="768.79" y1="60" x2="768.79" y2="470" stroke="#f3f4f6" stroke-width="1"/>
<text x="768.79" y="492" font-size="12" text-anchor="middle" fill="#555555">81</text>
<line x1="777.27" y1="60" x2="777.27" y2="470" stroke="#f3f4f6" stroke-width="1"/>
<text x="777.27" y="492" font-size="12" text-anchor="middle" fill="#555555">82</text>
<line x1="785.76" y1="60" x2="785.76" y2="470" stroke="#f3f4f6" stroke-width="1"/>
<text x="785.76" y="492" font-size="12" text-anchor="middle" fill="#555555">83</text>
<line x1="794.24" y1="60" x2="794.24" y2="470" stroke="#f3f4f6" stroke-width="1"/>
<text x="794.24" y="492" font-size="12" text-anchor="middle" fill="#555555">84</text>
<line x1="802.73" y1="60" x2="802.73" y2="470" stroke="#f3f4f6" stroke-width="1"/>
<text x="802.73" y="492" font-size="12" text-anchor="middle" fill="#555555">85</text>
<line x1="811.21" y1="60" x2="811.21" y2="470" stroke="#f3f4f6" stroke-width="1"/>
<text x="811.21" y="492" font-size="12" text-anchor="middle" fill="#555555">86</text>
<line x1="819.70" y1="60" x2="819.70" y2="470" stroke="#f3f4f6" stroke-width="1"/>
<text x="819.70" y="492" font-size="12" text-anchor="middle" fill="#555555">87</text>
<line x1="828.18" y1="60" x2="828.18" y2="470" stroke="#f3f4f6" stroke-width="1"/>
<text x="828.18" y="492" font-size="12" text-anchor="middle" fill="#555555">88</text>
<line x1="836.67" y1="60" x2="836.67" y2="470" stroke="#f3f4f6" stroke-width="1"/>
<text x="836.67" y="492" font-size="12" text-anchor="middle" fill="#555555">89</text>
<line x1="845.15" y1="60" x2="845.15" y2="470" stroke="#f3f4f6" stroke-width="1"/>
<text x="845.15" y="492" font-size="12" text-anchor="middle" fill="#555555">90</text>
<line x1="853.64" y1="60" x2="853.64" y2="470" stroke="#f3f4f6" stroke-width="1"/>
<text x="853.64" y="492" font-size="12" text-anchor="middle" fill="#555555">91</text>
<line x1="862.12" y1="60" x2="862.12" y2="470" stroke="#f3f4f6" stroke-width="1"/>
<text x="862.12" y="492" font-size="12" text-anchor="middle" fill="#555555">92</text>
<line x1="870.61" y1="60" x2="870.61" y2="470" stroke="#f3f4f6" stroke-width="1"/>
<text x="870.61" y="492" font-size="12" text-anchor="middle" fill="#555555">93</text>
<line x1="879.09" y1="60" x2="879.09" y2="470" stroke="#f3f4f6" stroke-width="1"/>
<text x="879.09" y="492" font-size="12" text-anchor="middle" fill="#555555">94</text>
<line x1="887.58" y1="60" x2="887.58" y2="470" stroke="#f3f4f6" stroke-width="1"/>
<text x="887.58" y="492" font-size="12" text-anchor="middle" fill="#555555">95</text>
<line x1="896.06" y1="60" x2="896.06" y2="470" stroke="#f3f4f6" stroke-width="1"/>
<text x="896.06" y="492" font-size="12" text-anchor="middle" fill="#555555">96</text>
<line x1="904.55" y1="60" x2="904.55" y2="470" stroke="#f3f4f6" stroke-width="1"/>
<text x="904.55" y="492" font-size="12" text-anchor="middle" fill="#555555">97</text>
<line x1="913.03" y1="60" x2="913.03" y2="470" stroke="#f3f4f6" stroke-width="1"/>
<text x="913.03" y="492" font-size="12" text-anchor="middle" fill="#555555">98</text>
<line x1="921.52" y1="60" x2="921.52" y2="470" stroke="#f3f4f6" stroke-width="1"/>
<text x="921.52" y="492" font-size="12" text-anchor="middle" fill="#555555">99</text>
<line x1="930.00" y1="60" x2="930.00" y2="470" stroke="#f3f4f6" stroke-width="1"/>
<text x="930.00" y="492" font-size="12" text-anchor="middle" fill="#555555">100</text>
<polyline fill="none" stroke="#d97706" stroke-width="3" points="90.00,432.65 98.48,193.46 106.97,160.93 115.45,333.36 123.94,154.09 132.42,126.21 140.91,138.92 149.39,118.62 157.88,164.11 166.36,162.16 174.85,118.62 183.33,118.13 191.82,109.33 200.30,114.22 208.79,123.76 217.27,126.69 225.76,105.91 234.24,121.07 242.73,109.09 251.21,110.31 259.70,108.84 268.18,102.73 276.67,109.09 285.15,106.15 293.64,109.82 302.12,103.95 310.61,110.55 319.09,123.52 327.58,118.87 336.06,114.22 344.55,107.62 353.03,119.11 361.52,108.11 370.00,113.49 378.48,104.68 386.97,104.19 395.45,114.22 403.94,104.93 412.42,163.87 420.91,102.48 429.39,101.75 437.88,106.15 446.36,102.24 454.85,101.26 463.33,109.57 471.82,117.89 480.30,104.44 488.79,106.64 497.27,109.09 505.76,112.75 514.24,103.22 522.73,101.50 531.21,102.48 539.70,100.77 548.18,101.26 556.67,99.55 565.15,100.53 573.64,99.79 582.12,101.50 590.61,101.99 599.09,100.53 607.58,100.28 616.06,99.06 624.55,99.79 633.03,102.73 641.52,100.53 650.00,99.06 658.48,101.26 666.97,102.97 675.45,101.01 683.94,100.04 692.42,98.32 700.91,97.84 709.39,98.08 717.88,100.04 726.36,99.06 734.85,101.26 743.33,99.06 751.82,97.84 760.30,98.08 768.79,98.08 777.27,98.32 785.76,97.84 794.24,98.32 802.73,99.55 811.21,97.10 819.70,98.81 828.18,99.30 836.67,99.30 845.15,100.53 853.64,100.04 862.12,97.59 870.61,98.08 879.09,99.06 887.58,98.81 896.06,97.35 904.55,98.57 913.03,99.06 921.52,99.55 930.00,101.50"/>
<circle cx="90.00" cy="432.65" r="4.5" fill="#d97706" fill-opacity="0.9"/>
<circle cx="98.48" cy="193.46" r="4.5" fill="#d97706" fill-opacity="0.9"/>
<circle cx="106.97" cy="160.93" r="4.5" fill="#d97706" fill-opacity="0.9"/>
<circle cx="115.45" cy="333.36" r="4.5" fill="#d97706" fill-opacity="0.9"/>
<circle cx="123.94" cy="154.09" r="4.5" fill="#d97706" fill-opacity="0.9"/>
<circle cx="132.42" cy="126.21" r="4.5" fill="#d97706" fill-opacity="0.9"/>
<circle cx="140.91" cy="138.92" r="4.5" fill="#d97706" fill-opacity="0.9"/>
<circle cx="149.39" cy="118.62" r="4.5" fill="#d97706" fill-opacity="0.9"/>
<circle cx="157.88" cy="164.11" r="4.5" fill="#d97706" fill-opacity="0.9"/>
<circle cx="166.36" cy="162.16" r="4.5" fill="#d97706" fill-opacity="0.9"/>
<circle cx="174.85" cy="118.62" r="4.5" fill="#d97706" fill-opacity="0.9"/>
<circle cx="183.33" cy="118.13" r="4.5" fill="#d97706" fill-opacity="0.9"/>
<circle cx="191.82" cy="109.33" r="4.5" fill="#d97706" fill-opacity="0.9"/>
<circle cx="200.30" cy="114.22" r="4.5" fill="#d97706" fill-opacity="0.9"/>
<circle cx="208.79" cy="123.76" r="4.5" fill="#d97706" fill-opacity="0.9"/>
<circle cx="217.27" cy="126.69" r="4.5" fill="#d97706" fill-opacity="0.9"/>
<circle cx="225.76" cy="105.91" r="4.5" fill="#d97706" fill-opacity="0.9"/>
<circle cx="234.24" cy="121.07" r="4.5" fill="#d97706" fill-opacity="0.9"/>
<circle cx="242.73" cy="109.09" r="4.5" fill="#d97706" fill-opacity="0.9"/>
<circle cx="251.21" cy="110.31" r="4.5" fill="#d97706" fill-opacity="0.9"/>
<circle cx="259.70" cy="108.84" r="4.5" fill="#d97706" fill-opacity="0.9"/>
<circle cx="268.18" cy="102.73" r="4.5" fill="#d97706" fill-opacity="0.9"/>
<circle cx="276.67" cy="109.09" r="4.5" fill="#d97706" fill-opacity="0.9"/>
<circle cx="285.15" cy="106.15" r="4.5" fill="#d97706" fill-opacity="0.9"/>
<circle cx="293.64" cy="109.82" r="4.5" fill="#d97706" fill-opacity="0.9"/>
<circle cx="302.12" cy="103.95" r="4.5" fill="#d97706" fill-opacity="0.9"/>
<circle cx="310.61" cy="110.55" r="4.5" fill="#d97706" fill-opacity="0.9"/>
<circle cx="319.09" cy="123.52" r="4.5" fill="#d97706" fill-opacity="0.9"/>
<circle cx="327.58" cy="118.87" r="4.5" fill="#d97706" fill-opacity="0.9"/>
<circle cx="336.06" cy="114.22" r="4.5" fill="#d97706" fill-opacity="0.9"/>
<circle cx="344.55" cy="107.62" r="4.5" fill="#d97706" fill-opacity="0.9"/>
<circle cx="353.03" cy="119.11" r="4.5" fill="#d97706" fill-opacity="0.9"/>
<circle cx="361.52" cy="108.11" r="4.5" fill="#d97706" fill-opacity="0.9"/>
<circle cx="370.00" cy="113.49" r="4.5" fill="#d97706" fill-opacity="0.9"/>
<circle cx="378.48" cy="104.68" r="4.5" fill="#d97706" fill-opacity="0.9"/>
<circle cx="386.97" cy="104.19" r="4.5" fill="#d97706" fill-opacity="0.9"/>
<circle cx="395.45" cy="114.22" r="4.5" fill="#d97706" fill-opacity="0.9"/>
<circle cx="403.94" cy="104.93" r="4.5" fill="#d97706" fill-opacity="0.9"/>
<circle cx="412.42" cy="163.87" r="4.5" fill="#d97706" fill-opacity="0.9"/>
<circle cx="420.91" cy="102.48" r="4.5" fill="#d97706" fill-opacity="0.9"/>
<circle cx="429.39" cy="101.75" r="4.5" fill="#d97706" fill-opacity="0.9"/>
<circle cx="437.88" cy="106.15" r="4.5" fill="#d97706" fill-opacity="0.9"/>
<circle cx="446.36" cy="102.24" r="4.5" fill="#d97706" fill-opacity="0.9"/>
<circle cx="454.85" cy="101.26" r="4.5" fill="#d97706" fill-opacity="0.9"/>
<circle cx="463.33" cy="109.57" r="4.5" fill="#d97706" fill-opacity="0.9"/>
<circle cx="471.82" cy="117.89" r="4.5" fill="#d97706" fill-opacity="0.9"/>
<circle cx="480.30" cy="104.44" r="4.5" fill="#d97706" fill-opacity="0.9"/>
<circle cx="488.79" cy="106.64" r="4.5" fill="#d97706" fill-opacity="0.9"/>
<circle cx="497.27" cy="109.09" r="4.5" fill="#d97706" fill-opacity="0.9"/>
<circle cx="505.76" cy="112.75" r="4.5" fill="#d97706" fill-opacity="0.9"/>
<circle cx="514.24" cy="103.22" r="4.5" fill="#d97706" fill-opacity="0.9"/>
<circle cx="522.73" cy="101.50" r="4.5" fill="#d97706" fill-opacity="0.9"/>
<circle cx="531.21" cy="102.48" r="4.5" fill="#d97706" fill-opacity="0.9"/>
<circle cx="539.70" cy="100.77" r="4.5" fill="#d97706" fill-opacity="0.9"/>
<circle cx="548.18" cy="101.26" r="4.5" fill="#d97706" fill-opacity="0.9"/>
<circle cx="556.67" cy="99.55" r="4.5" fill="#d97706" fill-opacity="0.9"/>
<circle cx="565.15" cy="100.53" r="4.5" fill="#d97706" fill-opacity="0.9"/>
<circle cx="573.64" cy="99.79" r="4.5" fill="#d97706" fill-opacity="0.9"/>
<circle cx="582.12" cy="101.50" r="4.5" fill="#d97706" fill-opacity="0.9"/>
<circle cx="590.61" cy="101.99" r="4.5" fill="#d97706" fill-opacity="0.9"/>
<circle cx="599.09" cy="100.53" r="4.5" fill="#d97706" fill-opacity="0.9"/>
<circle cx="607.58" cy="100.28" r="4.5" fill="#d97706" fill-opacity="0.9"/>
<circle cx="616.06" cy="99.06" r="4.5" fill="#d97706" fill-opacity="0.9"/>
<circle cx="624.55" cy="99.79" r="4.5" fill="#d97706" fill-opacity="0.9"/>
<circle cx="633.03" cy="102.73" r="4.5" fill="#d97706" fill-opacity="0.9"/>
<circle cx="641.52" cy="100.53" r="4.5" fill="#d97706" fill-opacity="0.9"/>
<circle cx="650.00" cy="99.06" r="4.5" fill="#d97706" fill-opacity="0.9"/>
<circle cx="658.48" cy="101.26" r="4.5" fill="#d97706" fill-opacity="0.9"/>
<circle cx="666.97" cy="102.97" r="4.5" fill="#d97706" fill-opacity="0.9"/>
<circle cx="675.45" cy="101.01" r="4.5" fill="#d97706" fill-opacity="0.9"/>
<circle cx="683.94" cy="100.04" r="4.5" fill="#d97706" fill-opacity="0.9"/>
<circle cx="692.42" cy="98.32" r="4.5" fill="#d97706" fill-opacity="0.9"/>
<circle cx="700.91" cy="97.84" r="4.5" fill="#d97706" fill-opacity="0.9"/>
<circle cx="709.39" cy="98.08" r="4.5" fill="#d97706" fill-opacity="0.9"/>
<circle cx="717.88" cy="100.04" r="4.5" fill="#d97706" fill-opacity="0.9"/>
<circle cx="726.36" cy="99.06" r="4.5" fill="#d97706" fill-opacity="0.9"/>
<circle cx="734.85" cy="101.26" r="4.5" fill="#d97706" fill-opacity="0.9"/>
<circle cx="743.33" cy="99.06" r="4.5" fill="#d97706" fill-opacity="0.9"/>
<circle cx="751.82" cy="97.84" r="4.5" fill="#d97706" fill-opacity="0.9"/>
<circle cx="760.30" cy="98.08" r="4.5" fill="#d97706" fill-opacity="0.9"/>
<circle cx="768.79" cy="98.08" r="4.5" fill="#d97706" fill-opacity="0.9"/>
<circle cx="777.27" cy="98.32" r="4.5" fill="#d97706" fill-opacity="0.9"/>
<circle cx="785.76" cy="97.84" r="4.5" fill="#d97706" fill-opacity="0.9"/>
<circle cx="794.24" cy="98.32" r="4.5" fill="#d97706" fill-opacity="0.9"/>
<circle cx="802.73" cy="99.55" r="4.5" fill="#d97706" fill-opacity="0.9"/>
<circle cx="811.21" cy="97.10" r="4.5" fill="#d97706" fill-opacity="0.9"/>
<circle cx="819.70" cy="98.81" r="4.5" fill="#d97706" fill-opacity="0.9"/>
<circle cx="828.18" cy="99.30" r="4.5" fill="#d97706" fill-opacity="0.9"/>
<circle cx="836.67" cy="99.30" r="4.5" fill="#d97706" fill-opacity="0.9"/>
<circle cx="845.15" cy="100.53" r="4.5" fill="#d97706" fill-opacity="0.9"/>
<circle cx="853.64" cy="100.04" r="4.5" fill="#d97706" fill-opacity="0.9"/>
<circle cx="862.12" cy="97.59" r="4.5" fill="#d97706" fill-opacity="0.9"/>
<circle cx="870.61" cy="98.08" r="4.5" fill="#d97706" fill-opacity="0.9"/>
<circle cx="879.09" cy="99.06" r="4.5" fill="#d97706" fill-opacity="0.9"/>
<circle cx="887.58" cy="98.81" r="4.5" fill="#d97706" fill-opacity="0.9"/>
<circle cx="896.06" cy="97.35" r="4.5" fill="#d97706" fill-opacity="0.9"/>
<circle cx="904.55" cy="98.57" r="4.5" fill="#d97706" fill-opacity="0.9"/>
<circle cx="913.03" cy="99.06" r="4.5" fill="#d97706" fill-opacity="0.9"/>
<circle cx="921.52" cy="99.55" r="4.5" fill="#d97706" fill-opacity="0.9"/>
<circle cx="930.00" cy="101.50" r="4.5" fill="#d97706" fill-opacity="0.9"/>
<rect x="90" y="32" width="18" height="6" fill="#d97706"/>
<text x="114" y="38" font-size="13" fill="#333333">val</text>
<polyline fill="none" stroke="#059669" stroke-width="3" points="90.00,435.83 98.48,192.48 106.97,161.42 115.45,308.66 123.94,152.86 132.42,122.78 140.91,138.43 149.39,118.13 157.88,162.65 166.36,156.53 174.85,117.89 183.33,114.96 191.82,103.46 200.30,116.91 208.79,115.69 217.27,124.00 225.76,103.70 234.24,120.58 242.73,104.93 251.21,105.17 259.70,110.55 268.18,95.88 276.67,97.59 285.15,103.22 293.64,106.88 302.12,101.01 310.61,101.75 319.09,114.47 327.58,109.33 336.06,108.84 344.55,100.53 353.03,116.18 361.52,99.79 370.00,110.06 378.48,102.24 386.97,101.99 395.45,106.15 403.94,102.48 412.42,168.52 420.91,98.08 429.39,98.32 437.88,104.19 446.36,99.55 454.85,99.79 463.33,106.15 471.82,120.58 480.30,106.88 488.79,109.09 497.27,105.17 505.76,113.24 514.24,96.37 522.73,97.10 531.21,95.39 539.70,95.63 548.18,97.10 556.67,96.86 565.15,97.10 573.64,96.37 582.12,97.10 590.61,98.08 599.09,97.84 607.58,97.10 616.06,96.12 624.55,97.10 633.03,100.77 641.52,96.86 650.00,98.08 658.48,100.53 666.97,100.28 675.45,97.84 683.94,96.37 692.42,94.41 700.91,95.88 709.39,99.30 717.88,96.37 726.36,95.63 734.85,97.59 743.33,96.61 751.82,96.37 760.30,97.35 768.79,96.61 777.27,95.88 785.76,97.84 794.24,97.59 802.73,95.39 811.21,95.14 819.70,96.37 828.18,96.37 836.67,96.37 845.15,97.59 853.64,97.59 862.12,95.63 870.61,94.17 879.09,96.61 887.58,96.61 896.06,96.37 904.55,95.14 913.03,95.14 921.52,96.37 930.00,96.37"/>
<circle cx="90.00" cy="435.83" r="4.5" fill="#059669" fill-opacity="0.9"/>
<circle cx="98.48" cy="192.48" r="4.5" fill="#059669" fill-opacity="0.9"/>
<circle cx="106.97" cy="161.42" r="4.5" fill="#059669" fill-opacity="0.9"/>
<circle cx="115.45" cy="308.66" r="4.5" fill="#059669" fill-opacity="0.9"/>
<circle cx="123.94" cy="152.86" r="4.5" fill="#059669" fill-opacity="0.9"/>
<circle cx="132.42" cy="122.78" r="4.5" fill="#059669" fill-opacity="0.9"/>
<circle cx="140.91" cy="138.43" r="4.5" fill="#059669" fill-opacity="0.9"/>
<circle cx="149.39" cy="118.13" r="4.5" fill="#059669" fill-opacity="0.9"/>
<circle cx="157.88" cy="162.65" r="4.5" fill="#059669" fill-opacity="0.9"/>
<circle cx="166.36" cy="156.53" r="4.5" fill="#059669" fill-opacity="0.9"/>
<circle cx="174.85" cy="117.89" r="4.5" fill="#059669" fill-opacity="0.9"/>
<circle cx="183.33" cy="114.96" r="4.5" fill="#059669" fill-opacity="0.9"/>
<circle cx="191.82" cy="103.46" r="4.5" fill="#059669" fill-opacity="0.9"/>
<circle cx="200.30" cy="116.91" r="4.5" fill="#059669" fill-opacity="0.9"/>
<circle cx="208.79" cy="115.69" r="4.5" fill="#059669" fill-opacity="0.9"/>
<circle cx="217.27" cy="124.00" r="4.5" fill="#059669" fill-opacity="0.9"/>
<circle cx="225.76" cy="103.70" r="4.5" fill="#059669" fill-opacity="0.9"/>
<circle cx="234.24" cy="120.58" r="4.5" fill="#059669" fill-opacity="0.9"/>
<circle cx="242.73" cy="104.93" r="4.5" fill="#059669" fill-opacity="0.9"/>
<circle cx="251.21" cy="105.17" r="4.5" fill="#059669" fill-opacity="0.9"/>
<circle cx="259.70" cy="110.55" r="4.5" fill="#059669" fill-opacity="0.9"/>
<circle cx="268.18" cy="95.88" r="4.5" fill="#059669" fill-opacity="0.9"/>
<circle cx="276.67" cy="97.59" r="4.5" fill="#059669" fill-opacity="0.9"/>
<circle cx="285.15" cy="103.22" r="4.5" fill="#059669" fill-opacity="0.9"/>
<circle cx="293.64" cy="106.88" r="4.5" fill="#059669" fill-opacity="0.9"/>
<circle cx="302.12" cy="101.01" r="4.5" fill="#059669" fill-opacity="0.9"/>
<circle cx="310.61" cy="101.75" r="4.5" fill="#059669" fill-opacity="0.9"/>
<circle cx="319.09" cy="114.47" r="4.5" fill="#059669" fill-opacity="0.9"/>
<circle cx="327.58" cy="109.33" r="4.5" fill="#059669" fill-opacity="0.9"/>
<circle cx="336.06" cy="108.84" r="4.5" fill="#059669" fill-opacity="0.9"/>
<circle cx="344.55" cy="100.53" r="4.5" fill="#059669" fill-opacity="0.9"/>
<circle cx="353.03" cy="116.18" r="4.5" fill="#059669" fill-opacity="0.9"/>
<circle cx="361.52" cy="99.79" r="4.5" fill="#059669" fill-opacity="0.9"/>
<circle cx="370.00" cy="110.06" r="4.5" fill="#059669" fill-opacity="0.9"/>
<circle cx="378.48" cy="102.24" r="4.5" fill="#059669" fill-opacity="0.9"/>
<circle cx="386.97" cy="101.99" r="4.5" fill="#059669" fill-opacity="0.9"/>
<circle cx="395.45" cy="106.15" r="4.5" fill="#059669" fill-opacity="0.9"/>
<circle cx="403.94" cy="102.48" r="4.5" fill="#059669" fill-opacity="0.9"/>
<circle cx="412.42" cy="168.52" r="4.5" fill="#059669" fill-opacity="0.9"/>
<circle cx="420.91" cy="98.08" r="4.5" fill="#059669" fill-opacity="0.9"/>
<circle cx="429.39" cy="98.32" r="4.5" fill="#059669" fill-opacity="0.9"/>
<circle cx="437.88" cy="104.19" r="4.5" fill="#059669" fill-opacity="0.9"/>
<circle cx="446.36" cy="99.55" r="4.5" fill="#059669" fill-opacity="0.9"/>
<circle cx="454.85" cy="99.79" r="4.5" fill="#059669" fill-opacity="0.9"/>
<circle cx="463.33" cy="106.15" r="4.5" fill="#059669" fill-opacity="0.9"/>
<circle cx="471.82" cy="120.58" r="4.5" fill="#059669" fill-opacity="0.9"/>
<circle cx="480.30" cy="106.88" r="4.5" fill="#059669" fill-opacity="0.9"/>
<circle cx="488.79" cy="109.09" r="4.5" fill="#059669" fill-opacity="0.9"/>
<circle cx="497.27" cy="105.17" r="4.5" fill="#059669" fill-opacity="0.9"/>
<circle cx="505.76" cy="113.24" r="4.5" fill="#059669" fill-opacity="0.9"/>
<circle cx="514.24" cy="96.37" r="4.5" fill="#059669" fill-opacity="0.9"/>
<circle cx="522.73" cy="97.10" r="4.5" fill="#059669" fill-opacity="0.9"/>
<circle cx="531.21" cy="95.39" r="4.5" fill="#059669" fill-opacity="0.9"/>
<circle cx="539.70" cy="95.63" r="4.5" fill="#059669" fill-opacity="0.9"/>
<circle cx="548.18" cy="97.10" r="4.5" fill="#059669" fill-opacity="0.9"/>
<circle cx="556.67" cy="96.86" r="4.5" fill="#059669" fill-opacity="0.9"/>
<circle cx="565.15" cy="97.10" r="4.5" fill="#059669" fill-opacity="0.9"/>
<circle cx="573.64" cy="96.37" r="4.5" fill="#059669" fill-opacity="0.9"/>
<circle cx="582.12" cy="97.10" r="4.5" fill="#059669" fill-opacity="0.9"/>
<circle cx="590.61" cy="98.08" r="4.5" fill="#059669" fill-opacity="0.9"/>
<circle cx="599.09" cy="97.84" r="4.5" fill="#059669" fill-opacity="0.9"/>
<circle cx="607.58" cy="97.10" r="4.5" fill="#059669" fill-opacity="0.9"/>
<circle cx="616.06" cy="96.12" r="4.5" fill="#059669" fill-opacity="0.9"/>
<circle cx="624.55" cy="97.10" r="4.5" fill="#059669" fill-opacity="0.9"/>
<circle cx="633.03" cy="100.77" r="4.5" fill="#059669" fill-opacity="0.9"/>
<circle cx="641.52" cy="96.86" r="4.5" fill="#059669" fill-opacity="0.9"/>
<circle cx="650.00" cy="98.08" r="4.5" fill="#059669" fill-opacity="0.9"/>
<circle cx="658.48" cy="100.53" r="4.5" fill="#059669" fill-opacity="0.9"/>
<circle cx="666.97" cy="100.28" r="4.5" fill="#059669" fill-opacity="0.9"/>
<circle cx="675.45" cy="97.84" r="4.5" fill="#059669" fill-opacity="0.9"/>
<circle cx="683.94" cy="96.37" r="4.5" fill="#059669" fill-opacity="0.9"/>
<circle cx="692.42" cy="94.41" r="4.5" fill="#059669" fill-opacity="0.9"/>
<circle cx="700.91" cy="95.88" r="4.5" fill="#059669" fill-opacity="0.9"/>
<circle cx="709.39" cy="99.30" r="4.5" fill="#059669" fill-opacity="0.9"/>
<circle cx="717.88" cy="96.37" r="4.5" fill="#059669" fill-opacity="0.9"/>
<circle cx="726.36" cy="95.63" r="4.5" fill="#059669" fill-opacity="0.9"/>
<circle cx="734.85" cy="97.59" r="4.5" fill="#059669" fill-opacity="0.9"/>
<circle cx="743.33" cy="96.61" r="4.5" fill="#059669" fill-opacity="0.9"/>
<circle cx="751.82" cy="96.37" r="4.5" fill="#059669" fill-opacity="0.9"/>
<circle cx="760.30" cy="97.35" r="4.5" fill="#059669" fill-opacity="0.9"/>
<circle cx="768.79" cy="96.61" r="4.5" fill="#059669" fill-opacity="0.9"/>
<circle cx="777.27" cy="95.88" r="4.5" fill="#059669" fill-opacity="0.9"/>
<circle cx="785.76" cy="97.84" r="4.5" fill="#059669" fill-opacity="0.9"/>
<circle cx="794.24" cy="97.59" r="4.5" fill="#059669" fill-opacity="0.9"/>
<circle cx="802.73" cy="95.39" r="4.5" fill="#059669" fill-opacity="0.9"/>
<circle cx="811.21" cy="95.14" r="4.5" fill="#059669" fill-opacity="0.9"/>
<circle cx="819.70" cy="96.37" r="4.5" fill="#059669" fill-opacity="0.9"/>
<circle cx="828.18" cy="96.37" r="4.5" fill="#059669" fill-opacity="0.9"/>
<circle cx="836.67" cy="96.37" r="4.5" fill="#059669" fill-opacity="0.9"/>
<circle cx="845.15" cy="97.59" r="4.5" fill="#059669" fill-opacity="0.9"/>
<circle cx="853.64" cy="97.59" r="4.5" fill="#059669" fill-opacity="0.9"/>
<circle cx="862.12" cy="95.63" r="4.5" fill="#059669" fill-opacity="0.9"/>
<circle cx="870.61" cy="94.17" r="4.5" fill="#059669" fill-opacity="0.9"/>
<circle cx="879.09" cy="96.61" r="4.5" fill="#059669" fill-opacity="0.9"/>
<circle cx="887.58" cy="96.61" r="4.5" fill="#059669" fill-opacity="0.9"/>
<circle cx="896.06" cy="96.37" r="4.5" fill="#059669" fill-opacity="0.9"/>
<circle cx="904.55" cy="95.14" r="4.5" fill="#059669" fill-opacity="0.9"/>
<circle cx="913.03" cy="95.14" r="4.5" fill="#059669" fill-opacity="0.9"/>
<circle cx="921.52" cy="96.37" r="4.5" fill="#059669" fill-opacity="0.9"/>
<circle cx="930.00" cy="96.37" r="4.5" fill="#059669" fill-opacity="0.9"/>
<rect x="270" y="32" width="18" height="6" fill="#059669"/>
<text x="294" y="38" font-size="13" fill="#333333">test</text>
</svg>