<svg xmlns="http://www.w3.org/2000/svg" width="960" height="540">
<rect width="100%" height="100%" fill="#ffffff"/>
<text x="480.0" y="30" font-size="22" text-anchor="middle" fill="#111111">Position 3 Accuracy</text>
<text x="20" y="270.0" font-size="16" transform="rotate(-90 20,270.0)" text-anchor="middle" fill="#333333">Accuracy</text>
<text x="480.0" y="520" font-size="16" text-anchor="middle" fill="#333333">Epoch</text>
<line x1="90" y1="60" x2="90" y2="470" stroke="#333333" stroke-width="2"/>
<line x1="90" y1="470" x2="930" y2="470" stroke="#333333" stroke-width="2"/>
<line x1="90" y1="470.00" x2="930" y2="470.00" stroke="#e5e7eb" stroke-width="1"/>
<text x="80" y="475.00" font-size="12" text-anchor="end" fill="#555555">0.8799</text>
<line x1="90" y1="367.50" x2="930" y2="367.50" stroke="#e5e7eb" stroke-width="1"/>
<text x="80" y="372.50" font-size="12" text-anchor="end" fill="#555555">0.9107</text>
<line x1="90" y1="265.00" x2="930" y2="265.00" stroke="#e5e7eb" stroke-width="1"/>
<text x="80" y="270.00" font-size="12" text-anchor="end" fill="#555555">0.9415</text>
<line x1="90" y1="162.50" x2="930" y2="162.50" stroke="#e5e7eb" stroke-width="1"/>
<text x="80" y="167.50" font-size="12" text-anchor="end" fill="#555555">0.9723</text>
<line x1="90" y1="60.00" x2="930" y2="60.00" stroke="#e5e7eb" stroke-width="1"/>
<text x="80" y="65.00" font-size="12" text-anchor="end" fill="#555555">1.0031</text>
<line x1="90.00" y1="60" x2="90.00" y2="470" stroke="#f3f4f6" stroke-width="1"/>
<text x="90.00" y="492" font-size="12" text-anchor="middle" fill="#555555">1</text>
<line x1="98.48" y1="60" x2="98.48" y2="470" stroke="#f3f4f6" stroke-width="1"/>
<text x="98.48" y="492" font-size="12" text-anchor="middle" fill="#555555">2</text>
<line x1="106.97" y1="60" x2="106.97" y2="470" stroke="#f3f4f6" stroke-width="1"/>
<text x="106.97" y="492" font-size="12" text-anchor="middle" fill="#555555">3</text>
<line x1="115.45" y1="60" x2="115.45" y2="470" stroke="#f3f4f6" stroke-width="1"/>
<text x="115.45" y="492" font-size="12" text-anchor="middle" fill="#555555">4</text>
<line x1="123.94" y1="60" x2="123.94" y2="470" stroke="#f3f4f6" stroke-width="1"/>
<text x="123.94" y="492" font-size="12" text-anchor="middle" fill="#555555">5</text>
<line x1="132.42" y1="60" x2="132.42" y2="470" stroke="#f3f4f6" stroke-width="1"/>
<text x="132.42" y="492" font-size="12" text-anchor="middle" fill="#555555">6</text>
<line x1="140.91" y1="60" x2="140.91" y2="470" stroke="#f3f4f6" stroke-width="1"/>
<text x="140.91" y="492" font-size="12" text-anchor="middle" fill="#555555">7</text>
<line x1="149.39" y1="60" x2="149.39" y2="470" stroke="#f3f4f6" stroke-width="1"/>
<text x="149.39" y="492" font-size="12" text-anchor="middle" fill="#555555">8</text>
<line x1="157.88" y1="60" x2="157.88" y2="470" stroke="#f3f4f6" stroke-width="1"/>
<text x="157.88" y="492" font-size="12" text-anchor="middle" fill="#555555">9</text>
<line x1="166.36" y1="60" x2="166.36" y2="470" stroke="#f3f4f6" stroke-width="1"/>
<text x="166.36" y="492" font-size="12" text-anchor="middle" fill="#555555">10</text>
<line x1="174.85" y1="60" x2="174.85" y2="470" stroke="#f3f4f6" stroke-width="1"/>
<text x="174.85" y="492" font-size="12" text-anchor="middle" fill="#555555">11</text>
<line x1="183.33" y1="60" x2="183.33" y2="470" stroke="#f3f4f6" stroke-width="1"/>
<text x="183.33" y="492" font-size="12" text-anchor="middle" fill="#555555">12</text>
<line x1="191.82" y1="60" x2="191.82" y2="470" stroke="#f3f4f6" stroke-width="1"/>
<text x="191.82" y="492" font-size="12" text-anchor="middle" fill="#555555">13</text>
<line x1="200.30" y1="60" x2="200.30" y2="470" stroke="#f3f4f6" stroke-width="1"/>
<text x="200.30" y="492" font-size="12" text-anchor="middle" fill="#555555">14</text>
<line x1="208.79" y1="60" x2="208.79" y2="470" stroke="#f3f4f6" stroke-width="1"/>
<text x="208.79" y="492" font-size="12" text-anchor="middle" fill="#555555">15</text>
<line x1="217.27" y1="60" x2="217.27" y2="470" stroke="#f3f4f6" stroke-width="1"/>
<text x="217.27" y="492" font-size="12" text-anchor="middle" fill="#555555">16</text>
<line x1="225.76" y1="60" x2="225.76" y2="470" stroke="#f3f4f6" stroke-width="1"/>
<text x="225.76" y="492" font-size="12" text-anchor="middle" fill="#555555">17</text>
<line x1="234.24" y1="60" x2="234.24" y2="470" stroke="#f3f4f6" stroke-width="1"/>
<text x="234.24" y="492" font-size="12" text-anchor="middle" fill="#555555">18</text>
<line x1="242.73" y1="60" x2="242.73" y2="470" stroke="#f3f4f6" stroke-width="1"/>
<text x="242.73" y="492" font-size="12" text-anchor="middle" fill="#555555">19</text>
<line x1="251.21" y1="60" x2="251.21" y2="470" stroke="#f3f4f6" stroke-width="1"/>
<text x="251.21" y="492" font-size="12" text-anchor="middle" fill="#555555">20</text>
<line x1="259.70" y1="60" x2="259.70" y2="470" stroke="#f3f4f6" stroke-width="1"/>
<text x="259.70" y="492" font-size="12" text-anchor="middle" fill="#555555">21</text>
<line x1="268.18" y1="60" x2="268.18" y2="470" stroke="#f3f4f6" stroke-width="1"/>
<text x="268.18" y="492" font-size="12" text-anchor="middle" fill="#555555">22</text>
<line x1="276.67" y1="60" x2="276.67" y2="470" stroke="#f3f4f6" stroke-width="1"/>
<text x="276.67" y="492" font-size="12" text-anchor="middle" fill="#555555">23</text>
<line x1="285.15" y1="60" x2="285.15" y2="470" stroke="#f3f4f6" stroke-width="1"/>
<text x="285.15" y="492" font-size="12" text-anchor="middle" fill="#555555">24</text>
<line x1="293.64" y1="60" x2="293.64" y2="470" stroke="#f3f4f6" stroke-width="1"/>
<text x="293.64" y="492" font-size="12" text-anchor="middle" fill="#555555">25</text>
<line x1="302.12" y1="60" x2="302.12" y2="470" stroke="#f3f4f6" stroke-width="1"/>
<text x="302.12" y="492" font-size="12" text-anchor="middle" fill="#555555">26</text>
<line x1="310.61" y1="60" x2="310.61" y2="470" stroke="#f3f4f6" stroke-width="1"/>
<text x="310.61" y="492" font-size="12" text-anchor="middle" fill="#555555">27</text>
<line x1="319.09" y1="60" x2="319.09" y2="470" stroke="#f3f4f6" stroke-width="1"/>
<text x="319.09" y="492" font-size="12" text-anchor="middle" fill="#555555">28</text>
<line x1="327.58" y1="60" x2="327.58" y2="470" stroke="#f3f4f6" stroke-width="1"/>
<text x="327.58" y="492" font-size="12" text-anchor="middle" fill="#555555">29</text>
<line x1="336.06" y1="60" x2="336.06" y2="470" stroke="#f3f4f6" stroke-width="1"/>
<text x="336.06" y="492" font-size="12" text-anchor="middle" fill="#555555">30</text>
<line x1="344.55" y1="60" x2="344.55" y2="470" stroke="#f3f4f6" stroke-width="1"/>
<text x="344.55" y="492" font-size="12" text-anchor="middle" fill="#555555">31</text>
<line x1="353.03" y1="60" x2="353.03" y2="470" stroke="#f3f4f6" stroke-width="1"/>
<text x="353.03" y="492" font-size="12" text-anchor="middle" fill="#555555">32</text>
<line x1="361.52" y1="60" x2="361.52" y2="470" stroke="#f3f4f6" stroke-width="1"/>
<text x="361.52" y="492" font-size="12" text-anchor="middle" fill="#555555">33</text>
<line x1="370.00" y1="60" x2="370.00" y2="470" stroke="#f3f4f6" stroke-width="1"/>
<text x="370.00" y="492" font-size="12" text-anchor="middle" fill="#555555">34</text>
<line x1="378.48" y1="60" x2="378.48" y2="470" stroke="#f3f4f6" stroke-width="1"/>
<text x="378.48" y="492" font-size="12" text-anchor="middle" fill="#555555">35</text>
<line x1="386.97" y1="60" x2="386.97" y2="470" stroke="#f3f4f6" stroke-width="1"/>
<text x="386.97" y="492" font-size="12" text-anchor="middle" fill="#555555">36</text>
<line x1="395.45" y1="60" x2="395.45" y2="470" stroke="#f3f4f6" stroke-width="1"/>
<text x="395.45" y="492" font-size="12" text-anchor="middle" fill="#555555">37</text>
<line x1="403.94" y1="60" x2="403.94" y2="470" stroke="#f3f4f6" stroke-width="1"/>
<text x="403.94" y="492" font-size="12" text-anchor="middle" fill="#555555">38</text>
<line x1="412.42" y1="60" x2="412.42" y2="470" stroke="#f3f4f6" stroke-width="1"/>
<text x="412.42" y="492" font-size="12" text-anchor="middle" fill="#555555">39</text>
<line x1="420.91" y1="60" x2="420.91" y2="470" stroke="#f3f4f6" stroke-width="1"/>
<text x="420.91" y="492" font-size="12" text-anchor="middle" fill="#555555">40</text>
<line x1="429.39" y1="60" x2="429.39" y2="470" stroke="#f3f4f6" stroke-width="1"/>
<text x="429.39" y="492" font-size="12" text-anchor="middle" fill="#555555">41</text>
<line x1="437.88" y1="60" x2="437.88" y2="470" stroke="#f3f4f6" stroke-width="1"/>
<text x="437.88" y="492" font-size="12" text-anchor="middle" fill="#555555">42</text>
<line x1="446.36" y1="60" x2="446.36" y2="470" stroke="#f3f4f6" stroke-width="1"/>
<text x="446.36" y="492" font-size="12" text-anchor="middle" fill="#555555">43</text>
<line x1="454.85" y1="60" x2="454.85" y2="470" stroke="#f3f4f6" stroke-width="1"/>
<text x="454.85" y="492" font-size="12" text-anchor="middle" fill="#555555">44</text>
<line x1="463.33" y1="60" x2="463.33" y2="470" stroke="#f3f4f6" stroke-width="1"/>
<text x="463.33" y="492" font-size="12" text-anchor="middle" fill="#555555">45</text>
<line x1="471.82" y1="60" x2="471.82" y2="470" stroke="#f3f4f6" stroke-width="1"/>
<text x="471.82" y="492" font-size="12" text-anchor="middle" fill="#555555">46</text>
<line x1="480.30" y1="60" x2="480.30" y2="470" stroke="#f3f4f6" stroke-width="1"/>
<text x="480.30" y="492" font-size="12" text-anchor="middle" fill="#555555">47</text>
<line x1="488.79" y1="60" x2="488.79" y2="470" stroke="#f3f4f6" stroke-width="1"/>
<text x="488.79" y="492" font-size="12" text-anchor="middle" fill="#555555">48</text>
<line x1="497.27" y1="60" x2="497.27" y2="470" stroke="#f3f4f6" stroke-width="1"/>
<text x="497.27" y="492" font-size="12" text-anchor="middle" fill="#555555">49</text>
<line x1="505.76" y1="60" x2="505.76" y2="470" stroke="#f3f4f6" stroke-width="1"/>
<text x="505.76" y="492" font-size="12" text-anchor="middle" fill="#555555">50</text>
<line x1="514.24" y1="60" x2="514.24" y2="470" stroke="#f3f4f6" stroke-width="1"/>
<text x="514.24" y="492" font-size="12" text-anchor="middle" fill="#555555">51</text>
<line x1="522.73" y1="60" x2="522.73" y2="470" stroke="#f3f4f6" stroke-width="1"/>
<text x="522.73" y="492" font-size="12" text-anchor="middle" fill="#555555">52</text>
<line x1="531.21" y1="60" x2="531.21" y2="470" stroke="#f3f4f6" stroke-width="1"/>
<text x="531.21" y="492" font-size="12" text-anchor="middle" fill="#555555">53</text>
<line x1="539.70" y1="60" x2="539.70" y2="470" stroke="#f3f4f6" stroke-width="1"/>
<text x="539.70" y="492" font-size="12" text-anchor="middle" fill="#555555">54</text>
<line x1="548.18" y1="60" x2="548.18" y2="470" stroke="#f3f4f6" stroke-width="1"/>
<text x="548.18" y="492" font-size="12" text-anchor="middle" fill="#555555">55</text>
<line x1="556.67" y1="60" x2="556.67" y2="470" stroke="#f3f4f6" stroke-width="1"/>
<text x="556.67" y="492" font-size="12" text-anchor="middle" fill="#555555">56</text>
<line x1="565.15" y1="60" x2="565.15" y2="470" stroke="#f3f4f6" stroke-width="1"/>
<text x="565.15" y="492" font-size="12" text-anchor="middle" fill="#555555">57</text>
<line x1="573.64" y1="60" x2="573.64" y2="470" stroke="#f3f4f6" stroke-width="1"/>
<text x="573.64" y="492" font-size="12" text-anchor="middle" fill="#555555">58</text>
<line x1="582.12" y1="60" x2="582.12" y2="470" stroke="#f3f4f6" stroke-width="1"/>
<text x="582.12" y="492" font-size="12" text-anchor="middle" fill="#555555">59</text>
<line x1="590.61" y1="60" x2="590.61" y2="470" stroke="#f3f4f6" stroke-width="1"/>
<text x="590.61" y="492" font-size="12" text-anchor="middle" fill="#555555">60</text>
<line x1="599.09" y1="60" x2="599.09" y2="470" stroke="#f3f4f6" stroke-width="1"/>
<text x="599.09" y="492" font-size="12" text-anchor="middle" fill="#555555">61</text>
<line x1="607.58" y1="60" x2="607.58" y2="470" stroke="#f3f4f6" stroke-width="1"/>
<text x="607.58" y="492" font-size="12" text-anchor="middle" fill="#555555">62</text>
<line x1="616.06" y1="60" x2="616.06" y2="470" stroke="#f3f4f6" stroke-width="1"/>
<text x="616.06" y="492" font-size="12" text-anchor="middle" fill="#555555">63</text>
<line x1="624.55" y1="60" x2="624.55" y2="470" stroke="#f3f4f6" stroke-width="1"/>
<text x="624.55" y="492" font-size="12" text-anchor="middle" fill="#555555">64</text>
<line x1="633.03" y1="60" x2="633.03" y2="470" stroke="#f3f4f6" stroke-width="1"/>
<text x="633.03" y="492" font-size="12" text-anchor="middle" fill="#555555">65</text>
<line x1="641.52" y1="60" x2="641.52" y2="470" stroke="#f3f4f6" stroke-width="1"/>
<text x="641.52" y="492" font-size="12" text-anchor="middle" fill="#555555">66</text>
<line x1="650.00" y1="60" x2="650.00" y2="470" stroke="#f3f4f6" stroke-width="1"/>
<text x="650.00" y="492" font-size="12" text-anchor="middle" fill="#555555">67</text>
<line x1="658.48" y1="60" x2="658.48" y2="470" stroke="#f3f4f6" stroke-width="1"/>
<text x="658.48" y="492" font-size="12" text-anchor="middle" fill="#555555">68</text>
<line x1="666.97" y1="60" x2="666.97" y2="470" stroke="#f3f4f6" stroke-width="1"/>
<text x="666.97" y="492" font-size="12" text-anchor="middle" fill="#555555">69</text>
<line x1="675.45" y1="60" x2="675.45" y2="470" stroke="#f3f4f6" stroke-width="1"/>
<text x="675.45" y="492" font-size="12" text-anchor="middle" fill="#555555">70</text>
<line x1="683.94" y1="60" x2="683.94" y2="470" stroke="#f3f4f6" stroke-width="1"/>
<text x="683.94" y="492" font-size="12" text-anchor="middle" fill="#555555">71</text>
<line x1="692.42" y1="60" x2="692.42" y2="470" stroke="#f3f4f6" stroke-width="1"/>
<text x="692.42" y="492" font-size="12" text-anchor="middle" fill="#555555">72</text>
<line x1="700.91" y1="60" x2="700.91" y2="470" stroke="#f3f4f6" stroke-width="1"/>
<text x="700.91" y="492" font-size="12" text-anchor="middle" fill="#555555">73</text>
<line x1="709.39" y1="60" x2="709.39" y2="470" stroke="#f3f4f6" stroke-width="1"/>
<text x="709.39" y="492" font-size="12" text-anchor="middle" fill="#555555">74</text>
<line x1="717.88" y1="60" x2="717.88" y2="470" stroke="#f3f4f6" stroke-width="1"/>
<text x="717.88" y="492" font-size="12" text-anchor="middle" fill="#555555">75</text>
<line x1="726.36" y1="60" x2="726.36" y2="470" stroke="#f3f4f6" stroke-width="1"/>
<text x="726.36" y="492" font-size="12" text-anchor="middle" fill="#555555">76</text>
<line x1="734.85" y1="60" x2="734.85" y2="470" stroke="#f3f4f6" stroke-width="1"/>
<text x="734.85" y="492" font-size="12" text-anchor="middle" fill="#555555">77</text>
<line x1="743.33" y1="60" x2="743.33" y2="470" stroke="#f3f4f6" stroke-width="1"/>
<text x="743.33" y="492" font-size="12" text-anchor="middle" fill="#555555">78</text>
<line x1="751.82" y1="60" x2="751.82" y2="470" stroke="#f3f4f6" stroke-width="1"/>
<text x="751.82" y="492" font-size="12" text-anchor="middle" fill="#555555">79</text>
<line x1="760.30" y1="60" x2="760.30" y2="470" stroke="#f3f4f6" stroke-width="1"/>
<text x="760.30" y="492" font-size="12" text-anchor="middle" fill="#555555">80</text>
<line x1="768.79" y1="60" x2="768.79" y2="470" stroke="#f3f4f6" stroke-width="1"/>
<text x="768.79" y="492" font-size="12" text-anchor="middle" fill="#555555">81</text>
<line x1="777.27" y1="60" x2="777.27" y2="470" stroke="#f3f4f6" stroke-width="1"/>
<text x="777.27" y="492" font-size="12" text-anchor="middle" fill="#555555">82</text>
<line x1="785.76" y1="60" x2="785.76" y2="470" stroke="#f3f4f6" stroke-width="1"/>
<text x="785.76" y="492" font-size="12" text-anchor="middle" fill="#555555">83</text>
<line x1="794.24" y1="60" x2="794.24" y2="470" stroke="#f3f4f6" stroke-width="1"/>
<text x="794.24" y="492" font-size="12" text-anchor="middle" fill="#555555">84</text>
<line x1="802.73" y1="60" x2="802.73" y2="470" stroke="#f3f4f6" stroke-width="1"/>
<text x="802.73" y="492" font-size="12" text-anchor="middle" fill="#555555">85</text>
<line x1="811.21" y1="60" x2="811.21" y2="470" stroke="#f3f4f6" stroke-width="1"/>
<text x="811.21" y="492" font-size="12" text-anchor="middle" fill="#555555">86</text>
<line x1="819.70" y1="60" x2="819.70" y2="470" stroke="#f3f4f6" stroke-width="1"/>
<text x="819.70" y="492" font-size="12" text-anchor="middle" fill="#555555">87</text>
<line x1="828.18" y1="60" x2="828.18" y2="470" stroke="#f3f4f6" stroke-width="1"/>
<text x="828.18" y="492" font-size="12" text-anchor="middle" fill="#555555">88</text>
<line x1="836.67" y1="60" x2="836.67" y2="470" stroke="#f3f4f6" stroke-width="1"/>
<text x="836.67" y="492" font-size="12" text-anchor="middle" fill="#555555">89</text>
<line x1="845.15" y1="60" x2="845.15" y2="470" stroke="#f3f4f6" stroke-width="1"/>
<text x="845.15" y="492" font-size="12" text-anchor="middle" fill="#555555">90</text>
<line x1="853.64" y1="60" x2="853.64" y2="470" stroke="#f3f4f6" stroke-width="1"/>
<text x="853.64" y="492" font-size="12" text-anchor="middle" fill="#555555">91</text>
<line x1="862.12" y1="60" x2="862.12" y2="470" stroke="#f3f4f6" stroke-width="1"/>
<text x="862.12" y="492" font-size="12" text-anchor="middle" fill="#555555">92</text>
<line x1="870.61" y1="60" x2="870.61" y2="470" stroke="#f3f4f6" stroke-width="1"/>
<text x="870.61" y="492" font-size="12" text-anchor="middle" fill="#555555">93</text>
<line x1="879.09" y1="60" x2="879.09" y2="470" stroke="#f3f4f6" stroke-width="1"/>
<text x="879.09" y="492" font-size="12" text-anchor="middle" fill="#555555">94</text>
<line x1="887.58" y1="60" x2="887.58" y2="470" stroke="#f3f4f6" stroke-width="1"/>
<text x="887.58" y="492" font-size="12" text-anchor="middle" fill="#555555">95</text>
<line x1="896.06" y1="60" x2="896.06" y2="470" stroke="#f3f4f6" stroke-width="1"/>
<text x="896.06" y="492" font-size="12" text-anchor="middle" fill="#555555">96</text>
<line x1="904.55" y1="60" x2="904.55" y2="470" stroke="#f3f4f6" stroke-width="1"/>
<text x="904.55" y="492" font-size="12" text-anchor="middle" fill="#555555">97</text>
<line x1="913.03" y1="60" x2="913.03" y2="470" stroke="#f3f4f6" stroke-width="1"/>
<text x="913.03" y="492" font-size="12" text-anchor="middle" fill="#555555">98</text>
<line x1="921.52" y1="60" x2="921.52" y2="470" stroke="#f3f4f6" stroke-width="1"/>
<text x="921.52" y="492" font-size="12" text-anchor="middle" fill="#555555">99</text>
<line x1="930.00" y1="60" x2="930.00" y2="470" stroke="#f3f4f6" stroke-width="1"/>
<text x="930.00" y="492" font-size="12" text-anchor="middle" fill="#555555">100</text>
<polyline fill="none" stroke="#d97706" stroke-width="3" points="90.00,416.32 98.48,210.35 106.97,275.75 115.45,383.29 123.94,190.61 132.42,143.83 140.91,154.47 149.39,131.42 157.88,186.84 166.36,138.95 174.85,143.39 183.33,121.44 191.82,120.99 200.30,136.51 208.79,136.29 217.27,146.49 225.76,120.33 234.24,120.33 242.73,122.10 251.21,119.89 259.70,112.13 268.18,117.00 276.67,111.90 285.15,115.01 293.64,111.02 302.12,120.33 310.61,113.01 319.09,111.68 327.58,117.89 336.06,111.24 344.55,111.46 353.03,113.23 361.52,106.58 370.00,113.68 378.48,115.45 386.97,112.57 395.45,110.80 403.94,110.13 412.42,158.46 420.91,103.26 429.39,109.91 437.88,109.02 446.36,111.90 454.85,109.69 463.33,112.35 471.82,121.88 480.30,105.03 488.79,109.69 497.27,106.14 505.76,125.43 514.24,98.60 522.73,97.05 531.21,97.27 539.70,97.49 548.18,97.49 556.67,95.94 565.15,94.17 573.64,97.49 582.12,96.83 590.61,97.27 599.09,95.94 607.58,97.05 616.06,97.05 624.55,96.61 633.03,97.71 641.52,95.50 650.00,97.94 658.48,95.28 666.97,96.83 675.45,97.27 683.94,98.60 692.42,98.82 700.91,97.94 709.39,99.27 717.88,97.71 726.36,98.16 734.85,96.83 743.33,96.61 751.82,96.16 760.30,97.05 768.79,96.83 777.27,97.49 785.76,96.38 794.24,97.05 802.73,97.49 811.21,96.61 819.70,97.27 828.18,97.05 836.67,98.38 845.15,97.71 853.64,98.60 862.12,96.38 870.61,98.82 879.09,97.05 887.58,98.38 896.06,96.38 904.55,98.16 913.03,96.83 921.52,99.93 930.00,98.60"/>
<circle cx="90.00" cy="416.32" r="4.5" fill="#d97706" fill-opacity="0.9"/>
<circle cx="98.48" cy="210.35" r="4.5" fill="#d97706" fill-opacity="0.9"/>
<circle cx="106.97" cy="275.75" r="4.5" fill="#d97706" fill-opacity="0.9"/>
<circle cx="115.45" cy="383.29" r="4.5" fill="#d97706" fill-opacity="0.9"/>
<circle cx="123.94" cy="190.61" r="4.5" fill="#d97706" fill-opacity="0.9"/>
<circle cx="132.42" cy="143.83" r="4.5" fill="#d97706" fill-opacity="0.9"/>
<circle cx="140.91" cy="154.47" r="4.5" fill="#d97706" fill-opacity="0.9"/>
<circle cx="149.39" cy="131.42" r="4.5" fill="#d97706" fill-opacity="0.9"/>
<circle cx="157.88" cy="186.84" r="4.5" fill="#d97706" fill-opacity="0.9"/>
<circle cx="166.36" cy="138.95" r="4.5" fill="#d97706" fill-opacity="0.9"/>
<circle cx="174.85" cy="143.39" r="4.5" fill="#d97706" fill-opacity="0.9"/>
<circle cx="183.33" cy="121.44" r="4.5" fill="#d97706" fill-opacity="0.9"/>
<circle cx="191.82" cy="120.99" r="4.5" fill="#d97706" fill-opacity="0.9"/>
<circle cx="200.30" cy="136.51" r="4.5" fill="#d97706" fill-opacity="0.9"/>
<circle cx="208.79" cy="136.29" r="4.5" fill="#d97706" fill-opacity="0.9"/>
<circle cx="217.27" cy="146.49" r="4.5" fill="#d97706" fill-opacity="0.9"/>
<circle cx="225.76" cy="120.33" r="4.5" fill="#d97706" fill-opacity="0.9"/>
<circle cx="234.24" cy="120.33" r="4.5" fill="#d97706" fill-opacity="0.9"/>
<circle cx="242.73" cy="122.10" r="4.5" fill="#d97706" fill-opacity="0.9"/>
<circle cx="251.21" cy="119.89" r="4.5" fill="#d97706" fill-opacity="0.9"/>
<circle cx="259.70" cy="112.13" r="4.5" fill="#d97706" fill-opacity="0.9"/>
<circle cx="268.18" cy="117.00" r="4.5" fill="#d97706" fill-opacity="0.9"/>
<circle cx="276.67" cy="111.90" r="4.5" fill="#d97706" fill-opacity="0.9"/>
<circle cx="285.15" cy="115.01" r="4.5" fill="#d97706" fill-opacity="0.9"/>
<circle cx="293.64" cy="111.02" r="4.5" fill="#d97706" fill-opacity="0.9"/>
<circle cx="302.12" cy="120.33" r="4.5" fill="#d97706" fill-opacity="0.9"/>
<circle cx="310.61" cy="113.01" r="4.5" fill="#d97706" fill-opacity="0.9"/>
<circle cx="319.09" cy="111.68" r="4.5" fill="#d97706" fill-opacity="0.9"/>
<circle cx="327.58" cy="117.89" r="4.5" fill="#d97706" fill-opacity="0.9"/>
<circle cx="336.06" cy="111.24" r="4.5" fill="#d97706" fill-opacity="0.9"/>
<circle cx="344.55" cy="111.46" r="4.5" fill="#d97706" fill-opacity="0.9"/>
<circle cx="353.03" cy="113.23" r="4.5" fill="#d97706" fill-opacity="0.9"/>
<circle cx="361.52" cy="106.58" r="4.5" fill="#d97706" fill-opacity="0.9"/>
<circle cx="370.00" cy="113.68" r="4.5" fill="#d97706" fill-opacity="0.9"/>
<circle cx="378.48" cy="115.45" r="4.5" fill="#d97706" fill-opacity="0.9"/>
<circle cx="386.97" cy="112.57" r="4.5" fill="#d97706" fill-opacity="0.9"/>
<circle cx="395.45" cy="110.80" r="4.5" fill="#d97706" fill-opacity="0.9"/>
<circle cx="403.94" cy="110.13" r="4.5" fill="#d97706" fill-opacity="0.9"/>
<circle cx="412.42" cy="158.46" r="4.5" fill="#d97706" fill-opacity="0.9"/>
<circle cx="420.91" cy="103.26" r="4.5" fill="#d97706" fill-opacity="0.9"/>
<circle cx="429.39" cy="109.91" r="4.5" fill="#d97706" fill-opacity="0.9"/>
<circle cx="437.88" cy="109.02" r="4.5" fill="#d97706" fill-opacity="0.9"/>
<circle cx="446.36" cy="111.90" r="4.5" fill="#d97706" fill-opacity="0.9"/>
<circle cx="454.85" cy="109.69" r="4.5" fill="#d97706" fill-opacity="0.9"/>
<circle cx="463.33" cy="112.35" r="4.5" fill="#d97706" fill-opacity="0.9"/>
<circle cx="471.82" cy="121.88" r="4.5" fill="#d97706" fill-opacity="0.9"/>
<circle cx="480.30" cy="105.03" r="4.5" fill="#d97706" fill-opacity="0.9"/>
<circle cx="488.79" cy="109.69" r="4.5" fill="#d97706" fill-opacity="0.9"/>
<circle cx="497.27" cy="106.14" r="4.5" fill="#d97706" fill-opacity="0.9"/>
<circle cx="505.76" cy="125.43" r="4.5" fill="#d97706" fill-opacity="0.9"/>
<circle cx="514.24" cy="98.60" r="4.5" fill="#d97706" fill-opacity="0.9"/>
<circle cx="522.73" cy="97.05" r="4.5" fill="#d97706" fill-opacity="0.9"/>
<circle cx="531.21" cy="97.27" r="4.5" fill="#d97706" fill-opacity="0.9"/>
<circle cx="539.70" cy="97.49" r="4.5" fill="#d97706" fill-opacity="0.9"/>
<circle cx="548.18" cy="97.49" r="4.5" fill="#d97706" fill-opacity="0.9"/>
<circle cx="556.67" cy="95.94" r="4.5" fill="#d97706" fill-opacity="0.9"/>
<circle cx="565.15" cy="94.17" r="4.5" fill="#d97706" fill-opacity="0.9"/>
<circle cx="573.64" cy="97.49" r="4.5" fill="#d97706" fill-opacity="0.9"/>
<circle cx="582.12" cy="96.83" r="4.5" fill="#d97706" fill-opacity="0.9"/>
<circle cx="590.61" cy="97.27" r="4.5" fill="#d97706" fill-opacity="0.9"/>
<circle cx="599.09" cy="95.94" r="4.5" fill="#d97706" fill-opacity="0.9"/>
<circle cx="607.58" cy="97.05" r="4.5" fill="#d97706" fill-opacity="0.9"/>
<circle cx="616.06" cy="97.05" r="4.5" fill="#d97706" fill-opacity="0.9"/>
<circle cx="624.55" cy="96.61" r="4.5" fill="#d97706" fill-opacity="0.9"/>
<circle cx="633.03" cy="97.71" r="4.5" fill="#d97706" fill-opacity="0.9"/>
<circle cx="641.52" cy="95.50" r="4.5" fill="#d97706" fill-opacity="0.9"/>
<circle cx="650.00" cy="97.94" r="4.5" fill="#d97706" fill-opacity="0.9"/>
<circle cx="658.48" cy="95.28" r="4.5" fill="#d97706" fill-opacity="0.9"/>
<circle cx="666.97" cy="96.83" r="4.5" fill="#d97706" fill-opacity="0.9"/>
<circle cx="675.45" cy="97.27" r="4.5" fill="#d97706" fill-opacity="0.9"/>
<circle cx="683.94" cy="98.60" r="4.5" fill="#d97706" fill-opacity="0.9"/>
<circle cx="692.42" cy="98.82" r="4.5" fill="#d97706" fill-opacity="0.9"/>
<circle cx="700.91" cy="97.94" r="4.5" fill="#d97706" fill-opacity="0.9"/>
<circle cx="709.39" cy="99.27" r="4.5" fill="#d97706" fill-opacity="0.9"/>
<circle cx="717.88" cy="97.71" r="4.5" fill="#d97706" fill-opacity="0.9"/>
<circle cx="726.36" cy="98.16" r="4.5" fill="#d97706" fill-opacity="0.9"/>
<circle cx="734.85" cy="96.83" r="4.5" fill="#d97706" fill-opacity="0.9"/>
<circle cx="743.33" cy="96.61" r="4.5" fill="#d97706" fill-opacity="0.9"/>
<circle cx="751.82" cy="96.16" r="4.5" fill="#d97706" fill-opacity="0.9"/>
<circle cx="760.30" cy="97.05" r="4.5" fill="#d97706" fill-opacity="0.9"/>
<circle cx="768.79" cy="96.83" r="4.5" fill="#d97706" fill-opacity="0.9"/>
<circle cx="777.27" cy="97.49" r="4.5" fill="#d97706" fill-opacity="0.9"/>
<circle cx="785.76" cy="96.38" r="4.5" fill="#d97706" fill-opacity="0.9"/>
<circle cx="794.24" cy="97.05" r="4.5" fill="#d97706" fill-opacity="0.9"/>
<circle cx="802.73" cy="97.49" r="4.5" fill="#d97706" fill-opacity="0.9"/>
<circle cx="811.21" cy="96.61" r="4.5" fill="#d97706" fill-opacity="0.9"/>
<circle cx="819.70" cy="97.27" r="4.5" fill="#d97706" fill-opacity="0.9"/>
<circle cx="828.18" cy="97.05" r="4.5" fill="#d97706" fill-opacity="0.9"/>
<circle cx="836.67" cy="98.38" r="4.5" fill="#d97706" fill-opacity="0.9"/>
<circle cx="845.15" cy="97.71" r="4.5" fill="#d97706" fill-opacity="0.9"/>
<circle cx="853.64" cy="98.60" r="4.5" fill="#d97706" fill-opacity="0.9"/>
<circle cx="862.12" cy="96.38" r="4.5" fill="#d97706" fill-opacity="0.9"/>
<circle cx="870.61" cy="98.82" r="4.5" fill="#d97706" fill-opacity="0.9"/>
<circle cx="879.09" cy="97.05" r="4.5" fill="#d97706" fill-opacity="0.9"/>
<circle cx="887.58" cy="98.38" r="4.5" fill="#d97706" fill-opacity="0.9"/>
<circle cx="896.06" cy="96.38" r="4.5" fill="#d97706" fill-opacity="0.9"/>
<circle cx="904.55" cy="98.16" r="4.5" fill="#d97706" fill-opacity="0.9"/>
<circle cx="913.03" cy="96.83" r="4.5" fill="#d97706" fill-opacity="0.9"/>
<circle cx="921.52" cy="99.93" r="4.5" fill="#d97706" fill-opacity="0.9"/>
<circle cx="930.00" cy="98.60" r="4.5" fill="#d97706" fill-opacity="0.9"/>
<rect x="90" y="32" width="18" height="6" fill="#d97706"/>
<text x="114" y="38" font-size="13" fill="#333333">val</text>
<polyline fill="none" stroke="#059669" stroke-width="3" points="90.00,435.83 98.48,211.46 106.97,263.34 115.45,370.20 123.94,186.18 132.42,146.71 140.91,150.70 149.39,136.96 157.88,180.41 166.36,135.63 174.85,139.62 183.33,125.21 191.82,126.32 200.30,139.62 208.79,135.85 217.27,151.37 225.76,122.32 234.24,122.99 242.73,122.77 251.21,123.43 259.70,112.79 268.18,115.01 276.67,111.02 285.15,116.34 293.64,116.12 302.12,124.10 310.61,111.68 319.09,113.01 327.58,125.87 336.06,112.57 344.55,114.79 353.03,118.11 361.52,113.23 370.00,119.22 378.48,118.56 386.97,111.68 395.45,119.66 403.94,110.13 412.42,152.48 420.91,111.68 429.39,116.12 437.88,116.12 446.36,117.23 454.85,111.68 463.33,114.12 471.82,121.44 480.30,107.47 488.79,109.47 497.27,111.90 505.76,124.32 514.24,102.81 522.73,101.93 531.21,100.60 539.70,100.60 548.18,100.37 556.67,100.15 565.15,98.82 573.64,99.27 582.12,97.94 590.61,99.93 599.09,99.04 607.58,99.27 616.06,97.27 624.55,97.71 633.03,99.04 641.52,98.60 650.00,98.82 658.48,99.71 666.97,100.37 675.45,98.60 683.94,100.82 692.42,98.82 700.91,99.04 709.39,99.71 717.88,102.37 726.36,99.93 734.85,100.15 743.33,99.04 751.82,98.16 760.30,99.71 768.79,100.60 777.27,99.04 785.76,99.04 794.24,98.60 802.73,99.04 811.21,99.04 819.70,96.83 828.18,97.71 836.67,97.49 845.15,99.71 853.64,97.49 862.12,97.27 870.61,98.16 879.09,97.71 887.58,98.60 896.06,99.71 904.55,98.16 913.03,96.83 921.52,99.04 930.00,98.16"/>
<circle cx="90.00" cy="435.83" r="4.5" fill="#059669" fill-opacity="0.9"/>
<circle cx="98.48" cy="211.46" r="4.5" fill="#059669" fill-opacity="0.9"/>
<circle cx="106.97" cy="263.34" r="4.5" fill="#059669" fill-opacity="0.9"/>
<circle cx="115.45" cy="370.20" r="4.5" fill="#059669" fill-opacity="0.9"/>
<circle cx="123.94" cy="186.18" r="4.5" fill="#059669" fill-opacity="0.9"/>
<circle cx="132.42" cy="146.71" r="4.5" fill="#059669" fill-opacity="0.9"/>
<circle cx="140.91" cy="150.70" r="4.5" fill="#059669" fill-opacity="0.9"/>
<circle cx="149.39" cy="136.96" r="4.5" fill="#059669" fill-opacity="0.9"/>
<circle cx="157.88" cy="180.41" r="4.5" fill="#059669" fill-opacity="0.9"/>
<circle cx="166.36" cy="135.63" r="4.5" fill="#059669" fill-opacity="0.9"/>
<circle cx="174.85" cy="139.62" r="4.5" fill="#059669" fill-opacity="0.9"/>
<circle cx="183.33" cy="125.21" r="4.5" fill="#059669" fill-opacity="0.9"/>
<circle cx="191.82" cy="126.32" r="4.5" fill="#059669" fill-opacity="0.9"/>
<circle cx="200.30" cy="139.62" r="4.5" fill="#059669" fill-opacity="0.9"/>
<circle cx="208.79" cy="135.85" r="4.5" fill="#059669" fill-opacity="0.9"/>
<circle cx="217.27" cy="151.37" r="4.5" fill="#059669" fill-opacity="0.9"/>
<circle cx="225.76" cy="122.32" r="4.5" fill="#059669" fill-opacity="0.9"/>
<circle cx="234.24" cy="122.99" r="4.5" fill="#059669" fill-opacity="0.9"/>
<circle cx="242.73" cy="122.77" r="4.5" fill="#059669" fill-opacity="0.9"/>
<circle cx="251.21" cy="123.43" r="4.5" fill="#059669" fill-opacity="0.9"/>
<circle cx="259.70" cy="112.79" r="4.5" fill="#059669" fill-opacity="0.9"/>
<circle cx="268.18" cy="115.01" r="4.5" fill="#059669" fill-opacity="0.9"/>
<circle cx="276.67" cy="111.02" r="4.5" fill="#059669" fill-opacity="0.9"/>
<circle cx="285.15" cy="116.34" r="4.5" fill="#059669" fill-opacity="0.9"/>
<circle cx="293.64" cy="116.12" r="4.5" fill="#059669" fill-opacity="0.9"/>
<circle cx="302.12" cy="124.10" r="4.5" fill="#059669" fill-opacity="0.9"/>
<circle cx="310.61" cy="111.68" r="4.5" fill="#059669" fill-opacity="0.9"/>
<circle cx="319.09" cy="113.01" r="4.5" fill="#059669" fill-opacity="0.9"/>
<circle cx="327.58" cy="125.87" r="4.5" fill="#059669" fill-opacity="0.9"/>
<circle cx="336.06" cy="112.57" r="4.5" fill="#059669" fill-opacity="0.9"/>
<circle cx="344.55" cy="114.79" r="4.5" fill="#059669" fill-opacity="0.9"/>
<circle cx="353.03" cy="118.11" r="4.5" fill="#059669" fill-opacity="0.9"/>
<circle cx="361.52" cy="113.23" r="4.5" fill="#059669" fill-opacity="0.9"/>
<circle cx="370.00" cy="119.22" r="4.5" fill="#059669" fill-opacity="0.9"/>
<circle cx="378.48" cy="118.56" r="4.5" fill="#059669" fill-opacity="0.9"/>
<circle cx="386.97" cy="111.68" r="4.5" fill="#059669" fill-opacity="0.9"/>
<circle cx="395.45" cy="119.66" r="4.5" fill="#059669" fill-opacity="0.9"/>
<circle cx="403.94" cy="110.13" r="4.5" fill="#059669" fill-opacity="0.9"/>
<circle cx="412.42" cy="152.48" r="4.5" fill="#059669" fill-opacity="0.9"/>
<circle cx="420.91" cy="111.68" r="4.5" fill="#059669" fill-opacity="0.9"/>
<circle cx="429.39" cy="116.12" r="4.5" fill="#059669" fill-opacity="0.9"/>
<circle cx="437.88" cy="116.12" r="4.5" fill="#059669" fill-opacity="0.9"/>
<circle cx="446.36" cy="117.23" r="4.5" fill="#059669" fill-opacity="0.9"/>
<circle cx="454.85" cy="111.68" r="4.5" fill="#059669" fill-opacity="0.9"/>
<circle cx="463.33" cy="114.12" r="4.5" fill="#059669" fill-opacity="0.9"/>
<circle cx="471.82" cy="121.44" r="4.5" fill="#059669" fill-opacity="0.9"/>
<circle cx="480.30" cy="107.47" r="4.5" fill="#059669" fill-opacity="0.9"/>
<circle cx="488.79" cy="109.47" r="4.5" fill="#059669" fill-opacity="0.9"/>
<circle cx="497.27" cy="111.90" r="4.5" fill="#059669" fill-opacity="0.9"/>
<circle cx="505.76" cy="124.32" r="4.5" fill="#059669" fill-opacity="0.9"/>
<circle cx="514.24" cy="102.81" r="4.5" fill="#059669" fill-opacity="0.9"/>
<circle cx="522.73" cy="101.93" r="4.5" fill="#059669" fill-opacity="0.9"/>
<circle cx="531.21" cy="100.60" r="4.5" fill="#059669" fill-opacity="0.9"/>
<circle cx="539.70" cy="100.60" r="4.5" fill="#059669" fill-opacity="0.9"/>
<circle cx="548.18" cy="100.37" r="4.5" fill="#059669" fill-opacity="0.9"/>
<circle cx="556.67" cy="100.15" r="4.5" fill="#059669" fill-opacity="0.9"/>
<circle cx="565.15" cy="98.82" r="4.5" fill="#059669" fill-opacity="0.9"/>
<circle cx="573.64" cy="99.27" r="4.5" fill="#059669" fill-opacity="0.9"/>
<circle cx="582.12" cy="97.94" r="4.5" fill="#059669" fill-opacity="0.9"/>
<circle cx="590.61" cy="99.93" r="4.5" fill="#059669" fill-opacity="0.9"/>
<circle cx="599.09" cy="99.04" r="4.5" fill="#059669" fill-opacity="0.9"/>
<circle cx="607.58" cy="99.27" r="4.5" fill="#059669" fill-opacity="0.9"/>
<circle cx="616.06" cy="97.27" r="4.5" fill="#059669" fill-opacity="0.9"/>
<circle cx="624.55" cy="97.71" r="4.5" fill="#059669" fill-opacity="0.9"/>
<circle cx="633.03" cy="99.04" r="4.5" fill="#059669" fill-opacity="0.9"/>
<circle cx="641.52" cy="98.60" r="4.5" fill="#059669" fill-opacity="0.9"/>
<circle cx="650.00" cy="98.82" r="4.5" fill="#059669" fill-opacity="0.9"/>
<circle cx="658.48" cy="99.71" r="4.5" fill="#059669" fill-opacity="0.9"/>
<circle cx="666.97" cy="100.37" r="4.5" fill="#059669" fill-opacity="0.9"/>
<circle cx="675.45" cy="98.60" r="4.5" fill="#059669" fill-opacity="0.9"/>
<circle cx="683.94" cy="100.82" r="4.5" fill="#059669" fill-opacity="0.9"/>
<circle cx="692.42" cy="98.82" r="4.5" fill="#059669" fill-opacity="0.9"/>
<circle cx="700.91" cy="99.04" r="4.5" fill="#059669" fill-opacity="0.9"/>
<circle cx="709.39" cy="99.71" r="4.5" fill="#059669" fill-opacity="0.9"/>
<circle cx="717.88" cy="102.37" r="4.5" fill="#059669" fill-opacity="0.9"/>
<circle cx="726.36" cy="99.93" r="4.5" fill="#059669" fill-opacity="0.9"/>
<circle cx="734.85" cy="100.15" r="4.5" fill="#059669" fill-opacity="0.9"/>
<circle cx="743.33" cy="99.04" r="4.5" fill="#059669" fill-opacity="0.9"/>
<circle cx="751.82" cy="98.16" r="4.5" fill="#059669" fill-opacity="0.9"/>
<circle cx="760.30" cy="99.71" r="4.5" fill="#059669" fill-opacity="0.9"/>
<circle cx="768.79" cy="100.60" r="4.5" fill="#059669" fill-opacity="0.9"/>
<circle cx="777.27" cy="99.04" r="4.5" fill="#059669" fill-opacity="0.9"/>
<circle cx="785.76" cy="99.04" r="4.5" fill="#059669" fill-opacity="0.9"/>
<circle cx="794.24" cy="98.60" r="4.5" fill="#059669" fill-opacity="0.9"/>
<circle cx="802.73" cy="99.04" r="4.5" fill="#059669" fill-opacity="0.9"/>
<circle cx="811.21" cy="99.04" r="4.5" fill="#059669" fill-opacity="0.9"/>
<circle cx="819.70" cy="96.83" r="4.5" fill="#059669" fill-opacity="0.9"/>
<circle cx="828.18" cy="97.71" r="4.5" fill="#059669" fill-opacity="0.9"/>
<circle cx="836.67" cy="97.49" r="4.5" fill="#059669" fill-opacity="0.9"/>
<circle cx="845.15" cy="99.71" r="4.5" fill="#059669" fill-opacity="0.9"/>
<circle cx="853.64" cy="97.49" r="4.5" fill="#059669" fill-opacity="0.9"/>
<circle cx="862.12" cy="97.27" r="4.5" fill="#059669" fill-opacity="0.9"/>
<circle cx="870.61" cy="98.16" r="4.5" fill="#059669" fill-opacity="0.9"/>
<circle cx="879.09" cy="97.71" r="4.5" fill="#059669" fill-opacity="0.9"/>
<circle cx="887.58" cy="98.60" r="4.5" fill="#059669" fill-opacity="0.9"/>
<circle cx="896.06" cy="99.71" r="4.5" fill="#059669" fill-opacity="0.9"/>
<circle cx="904.55" cy="98.16" r="4.5" fill="#059669" fill-opacity="0.9"/>
<circle cx="913.03" cy="96.83" r="4.5" fill="#059669" fill-opacity="0.9"/>
<circle cx="921.52" cy="99.04" r="4.5" fill="#059669" fill-opacity="0.9"/>
<circle cx="930.00" cy="98.16" r="4.5" fill="#059669" fill-opacity="0.9"/>
<rect x="270" y="32" width="18" height="6" fill="#059669"/>
<text x="294" y="38" font-size="13" fill="#333333">test</text>
</svg>