<svg xmlns="http://www.w3.org/2000/svg" width="960" height="540">
<rect width="100%" height="100%" fill="#ffffff"/>
<text x="480.0" y="30" font-size="22" text-anchor="middle" fill="#111111">Position 2 Accuracy</text>
<text x="20" y="270.0" font-size="16" transform="rotate(-90 20,270.0)" text-anchor="middle" fill="#333333">Accuracy</text>
<text x="480.0" y="520" font-size="16" text-anchor="middle" fill="#333333">Epoch</text>
<line x1="90" y1="60" x2="90" y2="470" stroke="#333333" stroke-width="2"/>
<line x1="90" y1="470" x2="930" y2="470" stroke="#333333" stroke-width="2"/>
<line x1="90" y1="470.00" x2="930" y2="470.00" stroke="#e5e7eb" stroke-width="1"/>
<text x="80" y="475.00" font-size="12" text-anchor="end" fill="#555555">0.8734</text>
<line x1="90" y1="367.50" x2="930" y2="367.50" stroke="#e5e7eb" stroke-width="1"/>
<text x="80" y="372.50" font-size="12" text-anchor="end" fill="#555555">0.9056</text>
<line x1="90" y1="265.00" x2="930" y2="265.00" stroke="#e5e7eb" stroke-width="1"/>
<text x="80" y="270.00" font-size="12" text-anchor="end" fill="#555555">0.9378</text>
<line x1="90" y1="162.50" x2="930" y2="162.50" stroke="#e5e7eb" stroke-width="1"/>
<text x="80" y="167.50" font-size="12" text-anchor="end" fill="#555555">0.9700</text>
<line x1="90" y1="60.00" x2="930" y2="60.00" stroke="#e5e7eb" stroke-width="1"/>
<text x="80" y="65.00" font-size="12" text-anchor="end" fill="#555555">1.0022</text>
<line x1="90.00" y1="60" x2="90.00" y2="470" stroke="#f3f4f6" stroke-width="1"/>
<text x="90.00" y="492" font-size="12" text-anchor="middle" fill="#555555">1</text>
<line x1="98.48" y1="60" x2="98.48" y2="470" stroke="#f3f4f6" stroke-width="1"/>
<text x="98.48" y="492" font-size="12" text-anchor="middle" fill="#555555">2</text>
<line x1="106.97" y1="60" x2="106.97" y2="470" stroke="#f3f4f6" stroke-width="1"/>
<text x="106.97" y="492" font-size="12" text-anchor="middle" fill="#555555">3</text>
<line x1="115.45" y1="60" x2="115.45" y2="470" stroke="#f3f4f6" stroke-width="1"/>
<text x="115.45" y="492" font-size="12" text-anchor="middle" fill="#555555">4</text>
<line x1="123.94" y1="60" x2="123.94" y2="470" stroke="#f3f4f6" stroke-width="1"/>
<text x="123.94" y="492" font-size="12" text-anchor="middle" fill="#555555">5</text>
<line x1="132.42" y1="60" x2="132.42" y2="470" stroke="#f3f4f6" stroke-width="1"/>
<text x="132.42" y="492" font-size="12" text-anchor="middle" fill="#555555">6</text>
<line x1="140.91" y1="60" x2="140.91" y2="470" stroke="#f3f4f6" stroke-width="1"/>
<text x="140.91" y="492" font-size="12" text-anchor="middle" fill="#555555">7</text>
<line x1="149.39" y1="60" x2="149.39" y2="470" stroke="#f3f4f6" stroke-width="1"/>
<text x="149.39" y="492" font-size="12" text-anchor="middle" fill="#555555">8</text>
<line x1="157.88" y1="60" x2="157.88" y2="470" stroke="#f3f4f6" stroke-width="1"/>
<text x="157.88" y="492" font-size="12" text-anchor="middle" fill="#555555">9</text>
<line x1="166.36" y1="60" x2="166.36" y2="470" stroke="#f3f4f6" stroke-width="1"/>
<text x="166.36" y="492" font-size="12" text-anchor="middle" fill="#555555">10</text>
<line x1="174.85" y1="60" x2="174.85" y2="470" stroke="#f3f4f6" stroke-width="1"/>
<text x="174.85" y="492" font-size="12" text-anchor="middle" fill="#555555">11</text>
<line x1="183.33" y1="60" x2="183.33" y2="470" stroke="#f3f4f6" stroke-width="1"/>
<text x="183.33" y="492" font-size="12" text-anchor="middle" fill="#555555">12</text>
<line x1="191.82" y1="60" x2="191.82" y2="470" stroke="#f3f4f6" stroke-width="1"/>
<text x="191.82" y="492" font-size="12" text-anchor="middle" fill="#555555">13</text>
<line x1="200.30" y1="60" x2="200.30" y2="470" stroke="#f3f4f6" stroke-width="1"/>
<text x="200.30" y="492" font-size="12" text-anchor="middle" fill="#555555">14</text>
<line x1="208.79" y1="60" x2="208.79" y2="470" stroke="#f3f4f6" stroke-width="1"/>
<text x="208.79" y="492" font-size="12" text-anchor="middle" fill="#555555">15</text>
<line x1="217.27" y1="60" x2="217.27" y2="470" stroke="#f3f4f6" stroke-width="1"/>
<text x="217.27" y="492" font-size="12" text-anchor="middle" fill="#555555">16</text>
<line x1="225.76" y1="60" x2="225.76" y2="470" stroke="#f3f4f6" stroke-width="1"/>
<text x="225.76" y="492" font-size="12" text-anchor="middle" fill="#555555">17</text>
<line x1="234.24" y1="60" x2="234.24" y2="470" stroke="#f3f4f6" stroke-width="1"/>
<text x="234.24" y="492" font-size="12" text-anchor="middle" fill="#555555">18</text>
<line x1="242.73" y1="60" x2="242.73" y2="470" stroke="#f3f4f6" stroke-width="1"/>
<text x="242.73" y="492" font-size="12" text-anchor="middle" fill="#555555">19</text>
<line x1="251.21" y1="60" x2="251.21" y2="470" stroke="#f3f4f6" stroke-width="1"/>
<text x="251.21" y="492" font-size="12" text-anchor="middle" fill="#555555">20</text>
<line x1="259.70" y1="60" x2="259.70" y2="470" stroke="#f3f4f6" stroke-width="1"/>
<text x="259.70" y="492" font-size="12" text-anchor="middle" fill="#555555">21</text>
<line x1="268.18" y1="60" x2="268.18" y2="470" stroke="#f3f4f6" stroke-width="1"/>
<text x="268.18" y="492" font-size="12" text-anchor="middle" fill="#555555">22</text>
<line x1="276.67" y1="60" x2="276.67" y2="470" stroke="#f3f4f6" stroke-width="1"/>
<text x="276.67" y="492" font-size="12" text-anchor="middle" fill="#555555">23</text>
<line x1="285.15" y1="60" x2="285.15" y2="470" stroke="#f3f4f6" stroke-width="1"/>
<text x="285.15" y="492" font-size="12" text-anchor="middle" fill="#555555">24</text>
<line x1="293.64" y1="60" x2="293.64" y2="470" stroke="#f3f4f6" stroke-width="1"/>
<text x="293.64" y="492" font-size="12" text-anchor="middle" fill="#555555">25</text>
<line x1="302.12" y1="60" x2="302.12" y2="470" stroke="#f3f4f6" stroke-width="1"/>
<text x="302.12" y="492" font-size="12" text-anchor="middle" fill="#555555">26</text>
<line x1="310.61" y1="60" x2="310.61" y2="470" stroke="#f3f4f6" stroke-width="1"/>
<text x="310.61" y="492" font-size="12" text-anchor="middle" fill="#555555">27</text>
<line x1="319.09" y1="60" x2="319.09" y2="470" stroke="#f3f4f6" stroke-width="1"/>
<text x="319.09" y="492" font-size="12" text-anchor="middle" fill="#555555">28</text>
<line x1="327.58" y1="60" x2="327.58" y2="470" stroke="#f3f4f6" stroke-width="1"/>
<text x="327.58" y="492" font-size="12" text-anchor="middle" fill="#555555">29</text>
<line x1="336.06" y1="60" x2="336.06" y2="470" stroke="#f3f4f6" stroke-width="1"/>
<text x="336.06" y="492" font-size="12" text-anchor="middle" fill="#555555">30</text>
<line x1="344.55" y1="60" x2="344.55" y2="470" stroke="#f3f4f6" stroke-width="1"/>
<text x="344.55" y="492" font-size="12" text-anchor="middle" fill="#555555">31</text>
<line x1="353.03" y1="60" x2="353.03" y2="470" stroke="#f3f4f6" stroke-width="1"/>
<text x="353.03" y="492" font-size="12" text-anchor="middle" fill="#555555">32</text>
<line x1="361.52" y1="60" x2="361.52" y2="470" stroke="#f3f4f6" stroke-width="1"/>
<text x="361.52" y="492" font-size="12" text-anchor="middle" fill="#555555">33</text>
<line x1="370.00" y1="60" x2="370.00" y2="470" stroke="#f3f4f6" stroke-width="1"/>
<text x="370.00" y="492" font-size="12" text-anchor="middle" fill="#555555">34</text>
<line x1="378.48" y1="60" x2="378.48" y2="470" stroke="#f3f4f6" stroke-width="1"/>
<text x="378.48" y="492" font-size="12" text-anchor="middle" fill="#555555">35</text>
<line x1="386.97" y1="60" x2="386.97" y2="470" stroke="#f3f4f6" stroke-width="1"/>
<text x="386.97" y="492" font-size="12" text-anchor="middle" fill="#555555">36</text>
<line x1="395.45" y1="60" x2="395.45" y2="470" stroke="#f3f4f6" stroke-width="1"/>
<text x="395.45" y="492" font-size="12" text-anchor="middle" fill="#555555">37</text>
<line x1="403.94" y1="60" x2="403.94" y2="470" stroke="#f3f4f6" stroke-width="1"/>
<text x="403.94" y="492" font-size="12" text-anchor="middle" fill="#555555">38</text>
<line x1="412.42" y1="60" x2="412.42" y2="470" stroke="#f3f4f6" stroke-width="1"/>
<text x="412.42" y="492" font-size="12" text-anchor="middle" fill="#555555">39</text>
<line x1="420.91" y1="60" x2="420.91" y2="470" stroke="#f3f4f6" stroke-width="1"/>
<text x="420.91" y="492" font-size="12" text-anchor="middle" fill="#555555">40</text>
<line x1="429.39" y1="60" x2="429.39" y2="470" stroke="#f3f4f6" stroke-width="1"/>
<text x="429.39" y="492" font-size="12" text-anchor="middle" fill="#555555">41</text>
<line x1="437.88" y1="60" x2="437.88" y2="470" stroke="#f3f4f6" stroke-width="1"/>
<text x="437.88" y="492" font-size="12" text-anchor="middle" fill="#555555">42</text>
<line x1="446.36" y1="60" x2="446.36" y2="470" stroke="#f3f4f6" stroke-width="1"/>
<text x="446.36" y="492" font-size="12" text-anchor="middle" fill="#555555">43</text>
<line x1="454.85" y1="60" x2="454.85" y2="470" stroke="#f3f4f6" stroke-width="1"/>
<text x="454.85" y="492" font-size="12" text-anchor="middle" fill="#555555">44</text>
<line x1="463.33" y1="60" x2="463.33" y2="470" stroke="#f3f4f6" stroke-width="1"/>
<text x="463.33" y="492" font-size="12" text-anchor="middle" fill="#555555">45</text>
<line x1="471.82" y1="60" x2="471.82" y2="470" stroke="#f3f4f6" stroke-width="1"/>
<text x="471.82" y="492" font-size="12" text-anchor="middle" fill="#555555">46</text>
<line x1="480.30" y1="60" x2="480.30" y2="470" stroke="#f3f4f6" stroke-width="1"/>
<text x="480.30" y="492" font-size="12" text-anchor="middle" fill="#555555">47</text>
<line x1="488.79" y1="60" x2="488.79" y2="470" stroke="#f3f4f6" stroke-width="1"/>
<text x="488.79" y="492" font-size="12" text-anchor="middle" fill="#555555">48</text>
<line x1="497.27" y1="60" x2="497.27" y2="470" stroke="#f3f4f6" stroke-width="1"/>
<text x="497.27" y="492" font-size="12" text-anchor="middle" fill="#555555">49</text>
<line x1="505.76" y1="60" x2="505.76" y2="470" stroke="#f3f4f6" stroke-width="1"/>
<text x="505.76" y="492" font-size="12" text-anchor="middle" fill="#555555">50</text>
<line x1="514.24" y1="60" x2="514.24" y2="470" stroke="#f3f4f6" stroke-width="1"/>
<text x="514.24" y="492" font-size="12" text-anchor="middle" fill="#555555">51</text>
<line x1="522.73" y1="60" x2="522.73" y2="470" stroke="#f3f4f6" stroke-width="1"/>
<text x="522.73" y="492" font-size="12" text-anchor="middle" fill="#555555">52</text>
<line x1="531.21" y1="60" x2="531.21" y2="470" stroke="#f3f4f6" stroke-width="1"/>
<text x="531.21" y="492" font-size="12" text-anchor="middle" fill="#555555">53</text>
<line x1="539.70" y1="60" x2="539.70" y2="470" stroke="#f3f4f6" stroke-width="1"/>
<text x="539.70" y="492" font-size="12" text-anchor="middle" fill="#555555">54</text>
<line x1="548.18" y1="60" x2="548.18" y2="470" stroke="#f3f4f6" stroke-width="1"/>
<text x="548.18" y="492" font-size="12" text-anchor="middle" fill="#555555">55</text>
<line x1="556.67" y1="60" x2="556.67" y2="470" stroke="#f3f4f6" stroke-width="1"/>
<text x="556.67" y="492" font-size="12" text-anchor="middle" fill="#555555">56</text>
<line x1="565.15" y1="60" x2="565.15" y2="470" stroke="#f3f4f6" stroke-width="1"/>
<text x="565.15" y="492" font-size="12" text-anchor="middle" fill="#555555">57</text>
<line x1="573.64" y1="60" x2="573.64" y2="470" stroke="#f3f4f6" stroke-width="1"/>
<text x="573.64" y="492" font-size="12" text-anchor="middle" fill="#555555">58</text>
<line x1="582.12" y1="60" x2="582.12" y2="470" stroke="#f3f4f6" stroke-width="1"/>
<text x="582.12" y="492" font-size="12" text-anchor="middle" fill="#555555">59</text>
<line x1="590.61" y1="60" x2="590.61" y2="470" stroke="#f3f4f6" stroke-width="1"/>
<text x="590.61" y="492" font-size="12" text-anchor="middle" fill="#555555">60</text>
<line x1="599.09" y1="60" x2="599.09" y2="470" stroke="#f3f4f6" stroke-width="1"/>
<text x="599.09" y="492" font-size="12" text-anchor="middle" fill="#555555">61</text>
<line x1="607.58" y1="60" x2="607.58" y2="470" stroke="#f3f4f6" stroke-width="1"/>
<text x="607.58" y="492" font-size="12" text-anchor="middle" fill="#555555">62</text>
<line x1="616.06" y1="60" x2="616.06" y2="470" stroke="#f3f4f6" stroke-width="1"/>
<text x="616.06" y="492" font-size="12" text-anchor="middle" fill="#555555">63</text>
<line x1="624.55" y1="60" x2="624.55" y2="470" stroke="#f3f4f6" stroke-width="1"/>
<text x="624.55" y="492" font-size="12" text-anchor="middle" fill="#555555">64</text>
<line x1="633.03" y1="60" x2="633.03" y2="470" stroke="#f3f4f6" stroke-width="1"/>
<text x="633.03" y="492" font-size="12" text-anchor="middle" fill="#555555">65</text>
<line x1="641.52" y1="60" x2="641.52" y2="470" stroke="#f3f4f6" stroke-width="1"/>
<text x="641.52" y="492" font-size="12" text-anchor="middle" fill="#555555">66</text>
<line x1="650.00" y1="60" x2="650.00" y2="470" stroke="#f3f4f6" stroke-width="1"/>
<text x="650.00" y="492" font-size="12" text-anchor="middle" fill="#555555">67</text>
<line x1="658.48" y1="60" x2="658.48" y2="470" stroke="#f3f4f6" stroke-width="1"/>
<text x="658.48" y="492" font-size="12" text-anchor="middle" fill="#555555">68</text>
<line x1="666.97" y1="60" x2="666.97" y2="470" stroke="#f3f4f6" stroke-width="1"/>
<text x="666.97" y="492" font-size="12" text-anchor="middle" fill="#555555">69</text>
<line x1="675.45" y1="60" x2="675.45" y2="470" stroke="#f3f4f6" stroke-width="1"/>
<text x="675.45" y="492" font-size="12" text-anchor="middle" fill="#555555">70</text>
<line x1="683.94" y1="60" x2="683.94" y2="470" stroke="#f3f4f6" stroke-width="1"/>
<text x="683.94" y="492" font-size="12" text-anchor="middle" fill="#555555">71</text>
<line x1="692.42" y1="60" x2="692.42" y2="470" stroke="#f3f4f6" stroke-width="1"/>
<text x="692.42" y="492" font-size="12" text-anchor="middle" fill="#555555">72</text>
<line x1="700.91" y1="60" x2="700.91" y2="470" stroke="#f3f4f6" stroke-width="1"/>
<text x="700.91" y="492" font-size="12" text-anchor="middle" fill="#555555">73</text>
<line x1="709.39" y1="60" x2="709.39" y2="470" stroke="#f3f4f6" stroke-width="1"/>
<text x="709.39" y="492" font-size="12" text-anchor="middle" fill="#555555">74</text>
<line x1="717.88" y1="60" x2="717.88" y2="470" stroke="#f3f4f6" stroke-width="1"/>
<text x="717.88" y="492" font-size="12" text-anchor="middle" fill="#555555">75</text>
<line x1="726.36" y1="60" x2="726.36" y2="470" stroke="#f3f4f6" stroke-width="1"/>
<text x="726.36" y="492" font-size="12" text-anchor="middle" fill="#555555">76</text>
<line x1="734.85" y1="60" x2="734.85" y2="470" stroke="#f3f4f6" stroke-width="1"/>
<text x="734.85" y="492" font-size="12" text-anchor="middle" fill="#555555">77</text>
<line x1="743.33" y1="60" x2="743.33" y2="470" stroke="#f3f4f6" stroke-width="1"/>
<text x="743.33" y="492" font-size="12" text-anchor="middle" fill="#555555">78</text>
<line x1="751.82" y1="60" x2="751.82" y2="470" stroke="#f3f4f6" stroke-width="1"/>
<text x="751.82" y="492" font-size="12" text-anchor="middle" fill="#555555">79</text>
<line x1="760.30" y1="60" x2="760.30" y2="470" stroke="#f3f4f6" stroke-width="1"/>
<text x="760.30" y="492" font-size="12" text-anchor="middle" fill="#555555">80</text>
<line x1="768.79" y1="60" x2="768.79" y2="470" stroke="#f3f4f6" stroke-width="1"/>
<text x="768.79" y="492" font-size="12" text-anchor="middle" fill="#555555">81</text>
<line x1="777.27" y1="60" x2="777.27" y2="470" stroke="#f3f4f6" stroke-width="1"/>
<text x="777.27" y="492" font-size="12" text-anchor="middle" fill="#555555">82</text>
<line x1="785.76" y1="60" x2="785.76" y2="470" stroke="#f3f4f6" stroke-width="1"/>
<text x="785.76" y="492" font-size="12" text-anchor="middle" fill="#555555">83</text>
<line x1="794.24" y1="60" x2="794.24" y2="470" stroke="#f3f4f6" stroke-width="1"/>
<text x="794.24" y="492" font-size="12" text-anchor="middle" fill="#555555">84</text>
<line x1="802.73" y1="60" x2="802.73" y2="470" stroke="#f3f4f6" stroke-width="1"/>
<text x="802.73" y="492" font-size="12" text-anchor="middle" fill="#555555">85</text>
<line x1="811.21" y1="60" x2="811.21" y2="470" stroke="#f3f4f6" stroke-width="1"/>
<text x="811.21" y="492" font-size="12" text-anchor="middle" fill="#555555">86</text>
<line x1="819.70" y1="60" x2="819.70" y2="470" stroke="#f3f4f6" stroke-width="1"/>
<text x="819.70" y="492" font-size="12" text-anchor="middle" fill="#555555">87</text>
<line x1="828.18" y1="60" x2="828.18" y2="470" stroke="#f3f4f6" stroke-width="1"/>
<text x="828.18" y="492" font-size="12" text-anchor="middle" fill="#555555">88</text>
<line x1="836.67" y1="60" x2="836.67" y2="470" stroke="#f3f4f6" stroke-width="1"/>
<text x="836.67" y="492" font-size="12" text-anchor="middle" fill="#555555">89</text>
<line x1="845.15" y1="60" x2="845.15" y2="470" stroke="#f3f4f6" stroke-width="1"/>
<text x="845.15" y="492" font-size="12" text-anchor="middle" fill="#555555">90</text>
<line x1="853.64" y1="60" x2="853.64" y2="470" stroke="#f3f4f6" stroke-width="1"/>
<text x="853.64" y="492" font-size="12" text-anchor="middle" fill="#555555">91</text>
<line x1="862.12" y1="60" x2="862.12" y2="470" stroke="#f3f4f6" stroke-width="1"/>
<text x="862.12" y="492" font-size="12" text-anchor="middle" fill="#555555">92</text>
<line x1="870.61" y1="60" x2="870.61" y2="470" stroke="#f3f4f6" stroke-width="1"/>
<text x="870.61" y="492" font-size="12" text-anchor="middle" fill="#555555">93</text>
<line x1="879.09" y1="60" x2="879.09" y2="470" stroke="#f3f4f6" stroke-width="1"/>
<text x="879.09" y="492" font-size="12" text-anchor="middle" fill="#555555">94</text>
<line x1="887.58" y1="60" x2="887.58" y2="470" stroke="#f3f4f6" stroke-width="1"/>
<text x="887.58" y="492" font-size="12" text-anchor="middle" fill="#555555">95</text>
<line x1="896.06" y1="60" x2="896.06" y2="470" stroke="#f3f4f6" stroke-width="1"/>
<text x="896.06" y="492" font-size="12" text-anchor="middle" fill="#555555">96</text>
<line x1="904.55" y1="60" x2="904.55" y2="470" stroke="#f3f4f6" stroke-width="1"/>
<text x="904.55" y="492" font-size="12" text-anchor="middle" fill="#555555">97</text>
<line x1="913.03" y1="60" x2="913.03" y2="470" stroke="#f3f4f6" stroke-width="1"/>
<text x="913.03" y="492" font-size="12" text-anchor="middle" fill="#555555">98</text>
<line x1="921.52" y1="60" x2="921.52" y2="470" stroke="#f3f4f6" stroke-width="1"/>
<text x="921.52" y="492" font-size="12" text-anchor="middle" fill="#555555">99</text>
<line x1="930.00" y1="60" x2="930.00" y2="470" stroke="#f3f4f6" stroke-width="1"/>
<text x="930.00" y="492" font-size="12" text-anchor="middle" fill="#555555">100</text>
<polyline fill="none" stroke="#d97706" stroke-width="3" points="90.00,388.72 98.48,201.76 106.97,207.28 115.45,435.83 123.94,193.06 132.42,139.16 140.91,155.71 149.39,132.79 157.88,174.17 166.36,134.49 174.85,135.76 183.33,123.66 191.82,114.33 200.30,147.43 208.79,132.15 217.27,135.34 225.76,119.42 234.24,118.36 242.73,113.69 251.21,114.33 259.70,109.45 268.18,103.50 276.67,114.11 285.15,110.30 293.64,108.81 302.12,115.60 310.61,112.20 319.09,107.32 327.58,116.24 336.06,111.57 344.55,110.93 353.03,117.09 361.52,105.63 370.00,118.15 378.48,110.93 386.97,110.30 395.45,113.48 403.94,102.23 412.42,160.80 420.91,104.57 429.39,111.99 437.88,114.33 446.36,107.11 454.85,104.99 463.33,108.39 471.82,115.18 480.30,104.78 488.79,108.81 497.27,104.35 505.76,112.63 514.24,98.41 522.73,98.62 531.21,96.50 539.70,96.93 548.18,96.50 556.67,96.93 565.15,96.08 573.64,97.14 582.12,94.59 590.61,95.86 599.09,95.86 607.58,95.23 616.06,94.38 624.55,96.50 633.03,96.71 641.52,95.86 650.00,97.77 658.48,97.35 666.97,97.56 675.45,96.08 683.94,98.62 692.42,96.08 700.91,95.86 709.39,97.99 717.88,97.56 726.36,95.02 734.85,97.35 743.33,97.14 751.82,97.56 760.30,99.47 768.79,96.93 777.27,97.35 785.76,96.93 794.24,96.50 802.73,97.35 811.21,96.71 819.70,95.44 828.18,96.71 836.67,95.65 845.15,96.50 853.64,95.65 862.12,95.02 870.61,96.50 879.09,95.65 887.58,96.29 896.06,95.02 904.55,97.35 913.03,94.17 921.52,96.29 930.00,97.77"/>
<circle cx="90.00" cy="388.72" r="4.5" fill="#d97706" fill-opacity="0.9"/>
<circle cx="98.48" cy="201.76" r="4.5" fill="#d97706" fill-opacity="0.9"/>
<circle cx="106.97" cy="207.28" r="4.5" fill="#d97706" fill-opacity="0.9"/>
<circle cx="115.45" cy="435.83" r="4.5" fill="#d97706" fill-opacity="0.9"/>
<circle cx="123.94" cy="193.06" r="4.5" fill="#d97706" fill-opacity="0.9"/>
<circle cx="132.42" cy="139.16" r="4.5" fill="#d97706" fill-opacity="0.9"/>
<circle cx="140.91" cy="155.71" r="4.5" fill="#d97706" fill-opacity="0.9"/>
<circle cx="149.39" cy="132.79" r="4.5" fill="#d97706" fill-opacity="0.9"/>
<circle cx="157.88" cy="174.17" r="4.5" fill="#d97706" fill-opacity="0.9"/>
<circle cx="166.36" cy="134.49" r="4.5" fill="#d97706" fill-opacity="0.9"/>
<circle cx="174.85" cy="135.76" r="4.5" fill="#d97706" fill-opacity="0.9"/>
<circle cx="183.33" cy="123.66" r="4.5" fill="#d97706" fill-opacity="0.9"/>
<circle cx="191.82" cy="114.33" r="4.5" fill="#d97706" fill-opacity="0.9"/>
<circle cx="200.30" cy="147.43" r="4.5" fill="#d97706" fill-opacity="0.9"/>
<circle cx="208.79" cy="132.15" r="4.5" fill="#d97706" fill-opacity="0.9"/>
<circle cx="217.27" cy="135.34" r="4.5" fill="#d97706" fill-opacity="0.9"/>
<circle cx="225.76" cy="119.42" r="4.5" fill="#d97706" fill-opacity="0.9"/>
<circle cx="234.24" cy="118.36" r="4.5" fill="#d97706" fill-opacity="0.9"/>
<circle cx="242.73" cy="113.69" r="4.5" fill="#d97706" fill-opacity="0.9"/>
<circle cx="251.21" cy="114.33" r="4.5" fill="#d97706" fill-opacity="0.9"/>
<circle cx="259.70" cy="109.45" r="4.5" fill="#d97706" fill-opacity="0.9"/>
<circle cx="268.18" cy="103.50" r="4.5" fill="#d97706" fill-opacity="0.9"/>
<circle cx="276.67" cy="114.11" r="4.5" fill="#d97706" fill-opacity="0.9"/>
<circle cx="285.15" cy="110.30" r="4.5" fill="#d97706" fill-opacity="0.9"/>
<circle cx="293.64" cy="108.81" r="4.5" fill="#d97706" fill-opacity="0.9"/>
<circle cx="302.12" cy="115.60" r="4.5" fill="#d97706" fill-opacity="0.9"/>
<circle cx="310.61" cy="112.20" r="4.5" fill="#d97706" fill-opacity="0.9"/>
<circle cx="319.09" cy="107.32" r="4.5" fill="#d97706" fill-opacity="0.9"/>
<circle cx="327.58" cy="116.24" r="4.5" fill="#d97706" fill-opacity="0.9"/>
<circle cx="336.06" cy="111.57" r="4.5" fill="#d97706" fill-opacity="0.9"/>
<circle cx="344.55" cy="110.93" r="4.5" fill="#d97706" fill-opacity="0.9"/>
<circle cx="353.03" cy="117.09" r="4.5" fill="#d97706" fill-opacity="0.9"/>
<circle cx="361.52" cy="105.63" r="4.5" fill="#d97706" fill-opacity="0.9"/>
<circle cx="370.00" cy="118.15" r="4.5" fill="#d97706" fill-opacity="0.9"/>
<circle cx="378.48" cy="110.93" r="4.5" fill="#d97706" fill-opacity="0.9"/>
<circle cx="386.97" cy="110.30" r="4.5" fill="#d97706" fill-opacity="0.9"/>
<circle cx="395.45" cy="113.48" r="4.5" fill="#d97706" fill-opacity="0.9"/>
<circle cx="403.94" cy="102.23" r="4.5" fill="#d97706" fill-opacity="0.9"/>
<circle cx="412.42" cy="160.80" r="4.5" fill="#d97706" fill-opacity="0.9"/>
<circle cx="420.91" cy="104.57" r="4.5" fill="#d97706" fill-opacity="0.9"/>
<circle cx="429.39" cy="111.99" r="4.5" fill="#d97706" fill-opacity="0.9"/>
<circle cx="437.88" cy="114.33" r="4.5" fill="#d97706" fill-opacity="0.9"/>
<circle cx="446.36" cy="107.11" r="4.5" fill="#d97706" fill-opacity="0.9"/>
<circle cx="454.85" cy="104.99" r="4.5" fill="#d97706" fill-opacity="0.9"/>
<circle cx="463.33" cy="108.39" r="4.5" fill="#d97706" fill-opacity="0.9"/>
<circle cx="471.82" cy="115.18" r="4.5" fill="#d97706" fill-opacity="0.9"/>
<circle cx="480.30" cy="104.78" r="4.5" fill="#d97706" fill-opacity="0.9"/>
<circle cx="488.79" cy="108.81" r="4.5" fill="#d97706" fill-opacity="0.9"/>
<circle cx="497.27" cy="104.35" r="4.5" fill="#d97706" fill-opacity="0.9"/>
<circle cx="505.76" cy="112.63" r="4.5" fill="#d97706" fill-opacity="0.9"/>
<circle cx="514.24" cy="98.41" r="4.5" fill="#d97706" fill-opacity="0.9"/>
<circle cx="522.73" cy="98.62" r="4.5" fill="#d97706" fill-opacity="0.9"/>
<circle cx="531.21" cy="96.50" r="4.5" fill="#d97706" fill-opacity="0.9"/>
<circle cx="539.70" cy="96.93" r="4.5" fill="#d97706" fill-opacity="0.9"/>
<circle cx="548.18" cy="96.50" r="4.5" fill="#d97706" fill-opacity="0.9"/>
<circle cx="556.67" cy="96.93" r="4.5" fill="#d97706" fill-opacity="0.9"/>
<circle cx="565.15" cy="96.08" r="4.5" fill="#d97706" fill-opacity="0.9"/>
<circle cx="573.64" cy="97.14" r="4.5" fill="#d97706" fill-opacity="0.9"/>
<circle cx="582.12" cy="94.59" r="4.5" fill="#d97706" fill-opacity="0.9"/>
<circle cx="590.61" cy="95.86" r="4.5" fill="#d97706" fill-opacity="0.9"/>
<circle cx="599.09" cy="95.86" r="4.5" fill="#d97706" fill-opacity="0.9"/>
<circle cx="607.58" cy="95.23" r="4.5" fill="#d97706" fill-opacity="0.9"/>
<circle cx="616.06" cy="94.38" r="4.5" fill="#d97706" fill-opacity="0.9"/>
<circle cx="624.55" cy="96.50" r="4.5" fill="#d97706" fill-opacity="0.9"/>
<circle cx="633.03" cy="96.71" r="4.5" fill="#d97706" fill-opacity="0.9"/>
<circle cx="641.52" cy="95.86" r="4.5" fill="#d97706" fill-opacity="0.9"/>
<circle cx="650.00" cy="97.77" r="4.5" fill="#d97706" fill-opacity="0.9"/>
<circle cx="658.48" cy="97.35" r="4.5" fill="#d97706" fill-opacity="0.9"/>
<circle cx="666.97" cy="97.56" r="4.5" fill="#d97706" fill-opacity="0.9"/>
<circle cx="675.45" cy="96.08" r="4.5" fill="#d97706" fill-opacity="0.9"/>
<circle cx="683.94" cy="98.62" r="4.5" fill="#d97706" fill-opacity="0.9"/>
<circle cx="692.42" cy="96.08" r="4.5" fill="#d97706" fill-opacity="0.9"/>
<circle cx="700.91" cy="95.86" r="4.5" fill="#d97706" fill-opacity="0.9"/>
<circle cx="709.39" cy="97.99" r="4.5" fill="#d97706" fill-opacity="0.9"/>
<circle cx="717.88" cy="97.56" r="4.5" fill="#d97706" fill-opacity="0.9"/>
<circle cx="726.36" cy="95.02" r="4.5" fill="#d97706" fill-opacity="0.9"/>
<circle cx="734.85" cy="97.35" r="4.5" fill="#d97706" fill-opacity="0.9"/>
<circle cx="743.33" cy="97.14" r="4.5" fill="#d97706" fill-opacity="0.9"/>
<circle cx="751.82" cy="97.56" r="4.5" fill="#d97706" fill-opacity="0.9"/>
<circle cx="760.30" cy="99.47" r="4.5" fill="#d97706" fill-opacity="0.9"/>
<circle cx="768.79" cy="96.93" r="4.5" fill="#d97706" fill-opacity="0.9"/>
<circle cx="777.27" cy="97.35" r="4.5" fill="#d97706" fill-opacity="0.9"/>
<circle cx="785.76" cy="96.93" r="4.5" fill="#d97706" fill-opacity="0.9"/>
<circle cx="794.24" cy="96.50" r="4.5" fill="#d97706" fill-opacity="0.9"/>
<circle cx="802.73" cy="97.35" r="4.5" fill="#d97706" fill-opacity="0.9"/>
<circle cx="811.21" cy="96.71" r="4.5" fill="#d97706" fill-opacity="0.9"/>
<circle cx="819.70" cy="95.44" r="4.5" fill="#d97706" fill-opacity="0.9"/>
<circle cx="828.18" cy="96.71" r="4.5" fill="#d97706" fill-opacity="0.9"/>
<circle cx="836.67" cy="95.65" r="4.5" fill="#d97706" fill-opacity="0.9"/>
<circle cx="845.15" cy="96.50" r="4.5" fill="#d97706" fill-opacity="0.9"/>
<circle cx="853.64" cy="95.65" r="4.5" fill="#d97706" fill-opacity="0.9"/>
<circle cx="862.12" cy="95.02" r="4.5" fill="#d97706" fill-opacity="0.9"/>
<circle cx="870.61" cy="96.50" r="4.5" fill="#d97706" fill-opacity="0.9"/>
<circle cx="879.09" cy="95.65" r="4.5" fill="#d97706" fill-opacity="0.9"/>
<circle cx="887.58" cy="96.29" r="4.5" fill="#d97706" fill-opacity="0.9"/>
<circle cx="896.06" cy="95.02" r="4.5" fill="#d97706" fill-opacity="0.9"/>
<circle cx="904.55" cy="97.35" r="4.5" fill="#d97706" fill-opacity="0.9"/>
<circle cx="913.03" cy="94.17" r="4.5" fill="#d97706" fill-opacity="0.9"/>
<circle cx="921.52" cy="96.29" r="4.5" fill="#d97706" fill-opacity="0.9"/>
<circle cx="930.00" cy="97.77" r="4.5" fill="#d97706" fill-opacity="0.9"/>
<rect x="90" y="32" width="18" height="6" fill="#d97706"/>
<text x="114" y="38" font-size="13" fill="#333333">val</text>
<polyline fill="none" stroke="#059669" stroke-width="3" points="90.00,395.09 98.48,208.98 106.97,217.89 115.45,434.77 123.94,194.76 132.42,144.25 140.91,152.95 149.39,133.64 157.88,177.99 166.36,139.16 174.85,138.73 183.33,123.45 191.82,123.45 200.30,153.37 208.79,134.49 217.27,140.43 225.76,122.82 234.24,118.78 242.73,118.78 251.21,118.57 259.70,113.69 268.18,110.51 276.67,109.02 285.15,115.18 293.64,113.48 302.12,120.27 310.61,112.42 319.09,106.05 327.58,115.39 336.06,118.78 344.55,116.45 353.03,116.66 361.52,112.20 370.00,120.27 378.48,119.00 386.97,111.57 395.45,116.66 403.94,107.54 412.42,166.32 420.91,112.20 429.39,113.90 437.88,117.51 446.36,111.99 454.85,107.54 463.33,113.27 471.82,114.96 480.30,108.81 488.79,110.30 497.27,109.23 505.76,116.66 514.24,104.35 522.73,104.35 531.21,99.68 539.70,100.32 548.18,101.38 556.67,102.23 565.15,99.05 573.64,101.59 582.12,100.32 590.61,99.47 599.09,99.90 607.58,98.20 616.06,100.53 624.55,98.84 633.03,100.32 641.52,97.14 650.00,98.84 658.48,101.59 666.97,100.32 675.45,97.14 683.94,99.26 692.42,99.68 700.91,97.35 709.39,99.68 717.88,100.53 726.36,98.84 734.85,99.26 743.33,99.68 751.82,95.44 760.30,98.84 768.79,99.26 777.27,99.05 785.76,98.84 794.24,98.41 802.73,99.68 811.21,98.62 819.70,98.20 828.18,100.75 836.67,99.68 845.15,100.96 853.64,99.90 862.12,98.41 870.61,101.17 879.09,100.53 887.58,99.68 896.06,98.84 904.55,99.90 913.03,99.05 921.52,101.59 930.00,102.02"/>
<circle cx="90.00" cy="395.09" r="4.5" fill="#059669" fill-opacity="0.9"/>
<circle cx="98.48" cy="208.98" r="4.5" fill="#059669" fill-opacity="0.9"/>
<circle cx="106.97" cy="217.89" r="4.5" fill="#059669" fill-opacity="0.9"/>
<circle cx="115.45" cy="434.77" r="4.5" fill="#059669" fill-opacity="0.9"/>
<circle cx="123.94" cy="194.76" r="4.5" fill="#059669" fill-opacity="0.9"/>
<circle cx="132.42" cy="144.25" r="4.5" fill="#059669" fill-opacity="0.9"/>
<circle cx="140.91" cy="152.95" r="4.5" fill="#059669" fill-opacity="0.9"/>
<circle cx="149.39" cy="133.64" r="4.5" fill="#059669" fill-opacity="0.9"/>
<circle cx="157.88" cy="177.99" r="4.5" fill="#059669" fill-opacity="0.9"/>
<circle cx="166.36" cy="139.16" r="4.5" fill="#059669" fill-opacity="0.9"/>
<circle cx="174.85" cy="138.73" r="4.5" fill="#059669" fill-opacity="0.9"/>
<circle cx="183.33" cy="123.45" r="4.5" fill="#059669" fill-opacity="0.9"/>
<circle cx="191.82" cy="123.45" r="4.5" fill="#059669" fill-opacity="0.9"/>
<circle cx="200.30" cy="153.37" r="4.5" fill="#059669" fill-opacity="0.9"/>
<circle cx="208.79" cy="134.49" r="4.5" fill="#059669" fill-opacity="0.9"/>
<circle cx="217.27" cy="140.43" r="4.5" fill="#059669" fill-opacity="0.9"/>
<circle cx="225.76" cy="122.82" r="4.5" fill="#059669" fill-opacity="0.9"/>
<circle cx="234.24" cy="118.78" r="4.5" fill="#059669" fill-opacity="0.9"/>
<circle cx="242.73" cy="118.78" r="4.5" fill="#059669" fill-opacity="0.9"/>
<circle cx="251.21" cy="118.57" r="4.5" fill="#059669" fill-opacity="0.9"/>
<circle cx="259.70" cy="113.69" r="4.5" fill="#059669" fill-opacity="0.9"/>
<circle cx="268.18" cy="110.51" r="4.5" fill="#059669" fill-opacity="0.9"/>
<circle cx="276.67" cy="109.02" r="4.5" fill="#059669" fill-opacity="0.9"/>
<circle cx="285.15" cy="115.18" r="4.5" fill="#059669" fill-opacity="0.9"/>
<circle cx="293.64" cy="113.48" r="4.5" fill="#059669" fill-opacity="0.9"/>
<circle cx="302.12" cy="120.27" r="4.5" fill="#059669" fill-opacity="0.9"/>
<circle cx="310.61" cy="112.42" r="4.5" fill="#059669" fill-opacity="0.9"/>
<circle cx="319.09" cy="106.05" r="4.5" fill="#059669" fill-opacity="0.9"/>
<circle cx="327.58" cy="115.39" r="4.5" fill="#059669" fill-opacity="0.9"/>
<circle cx="336.06" cy="118.78" r="4.5" fill="#059669" fill-opacity="0.9"/>
<circle cx="344.55" cy="116.45" r="4.5" fill="#059669" fill-opacity="0.9"/>
<circle cx="353.03" cy="116.66" r="4.5" fill="#059669" fill-opacity="0.9"/>
<circle cx="361.52" cy="112.20" r="4.5" fill="#059669" fill-opacity="0.9"/>
<circle cx="370.00" cy="120.27" r="4.5" fill="#059669" fill-opacity="0.9"/>
<circle cx="378.48" cy="119.00" r="4.5" fill="#059669" fill-opacity="0.9"/>
<circle cx="386.97" cy="111.57" r="4.5" fill="#059669" fill-opacity="0.9"/>
<circle cx="395.45" cy="116.66" r="4.5" fill="#059669" fill-opacity="0.9"/>
<circle cx="403.94" cy="107.54" r="4.5" fill="#059669" fill-opacity="0.9"/>
<circle cx="412.42" cy="166.32" r="4.5" fill="#059669" fill-opacity="0.9"/>
<circle cx="420.91" cy="112.20" r="4.5" fill="#059669" fill-opacity="0.9"/>
<circle cx="429.39" cy="113.90" r="4.5" fill="#059669" fill-opacity="0.9"/>
<circle cx="437.88" cy="117.51" r="4.5" fill="#059669" fill-opacity="0.9"/>
<circle cx="446.36" cy="111.99" r="4.5" fill="#059669" fill-opacity="0.9"/>
<circle cx="454.85" cy="107.54" r="4.5" fill="#059669" fill-opacity="0.9"/>
<circle cx="463.33" cy="113.27" r="4.5" fill="#059669" fill-opacity="0.9"/>
<circle cx="471.82" cy="114.96" r="4.5" fill="#059669" fill-opacity="0.9"/>
<circle cx="480.30" cy="108.81" r="4.5" fill="#059669" fill-opacity="0.9"/>
<circle cx="488.79" cy="110.30" r="4.5" fill="#059669" fill-opacity="0.9"/>
<circle cx="497.27" cy="109.23" r="4.5" fill="#059669" fill-opacity="0.9"/>
<circle cx="505.76" cy="116.66" r="4.5" fill="#059669" fill-opacity="0.9"/>
<circle cx="514.24" cy="104.35" r="4.5" fill="#059669" fill-opacity="0.9"/>
<circle cx="522.73" cy="104.35" r="4.5" fill="#059669" fill-opacity="0.9"/>
<circle cx="531.21" cy="99.68" r="4.5" fill="#059669" fill-opacity="0.9"/>
<circle cx="539.70" cy="100.32" r="4.5" fill="#059669" fill-opacity="0.9"/>
<circle cx="548.18" cy="101.38" r="4.5" fill="#059669" fill-opacity="0.9"/>
<circle cx="556.67" cy="102.23" r="4.5" fill="#059669" fill-opacity="0.9"/>
<circle cx="565.15" cy="99.05" r="4.5" fill="#059669" fill-opacity="0.9"/>
<circle cx="573.64" cy="101.59" r="4.5" fill="#059669" fill-opacity="0.9"/>
<circle cx="582.12" cy="100.32" r="4.5" fill="#059669" fill-opacity="0.9"/>
<circle cx="590.61" cy="99.47" r="4.5" fill="#059669" fill-opacity="0.9"/>
<circle cx="599.09" cy="99.90" r="4.5" fill="#059669" fill-opacity="0.9"/>
<circle cx="607.58" cy="98.20" r="4.5" fill="#059669" fill-opacity="0.9"/>
<circle cx="616.06" cy="100.53" r="4.5" fill="#059669" fill-opacity="0.9"/>
<circle cx="624.55" cy="98.84" r="4.5" fill="#059669" fill-opacity="0.9"/>
<circle cx="633.03" cy="100.32" r="4.5" fill="#059669" fill-opacity="0.9"/>
<circle cx="641.52" cy="97.14" r="4.5" fill="#059669" fill-opacity="0.9"/>
<circle cx="650.00" cy="98.84" r="4.5" fill="#059669" fill-opacity="0.9"/>
<circle cx="658.48" cy="101.59" r="4.5" fill="#059669" fill-opacity="0.9"/>
<circle cx="666.97" cy="100.32" r="4.5" fill="#059669" fill-opacity="0.9"/>
<circle cx="675.45" cy="97.14" r="4.5" fill="#059669" fill-opacity="0.9"/>
<circle cx="683.94" cy="99.26" r="4.5" fill="#059669" fill-opacity="0.9"/>
<circle cx="692.42" cy="99.68" r="4.5" fill="#059669" fill-opacity="0.9"/>
<circle cx="700.91" cy="97.35" r="4.5" fill="#059669" fill-opacity="0.9"/>
<circle cx="709.39" cy="99.68" r="4.5" fill="#059669" fill-opacity="0.9"/>
<circle cx="717.88" cy="100.53" r="4.5" fill="#059669" fill-opacity="0.9"/>
<circle cx="726.36" cy="98.84" r="4.5" fill="#059669" fill-opacity="0.9"/>
<circle cx="734.85" cy="99.26" r="4.5" fill="#059669" fill-opacity="0.9"/>
<circle cx="743.33" cy="99.68" r="4.5" fill="#059669" fill-opacity="0.9"/>
<circle cx="751.82" cy="95.44" r="4.5" fill="#059669" fill-opacity="0.9"/>
<circle cx="760.30" cy="98.84" r="4.5" fill="#059669" fill-opacity="0.9"/>
<circle cx="768.79" cy="99.26" r="4.5" fill="#059669" fill-opacity="0.9"/>
<circle cx="777.27" cy="99.05" r="4.5" fill="#059669" fill-opacity="0.9"/>
<circle cx="785.76" cy="98.84" r="4.5" fill="#059669" fill-opacity="0.9"/>
<circle cx="794.24" cy="98.41" r="4.5" fill="#059669" fill-opacity="0.9"/>
<circle cx="802.73" cy="99.68" r="4.5" fill="#059669" fill-opacity="0.9"/>
<circle cx="811.21" cy="98.62" r="4.5" fill="#059669" fill-opacity="0.9"/>
<circle cx="819.70" cy="98.20" r="4.5" fill="#059669" fill-opacity="0.9"/>
<circle cx="828.18" cy="100.75" r="4.5" fill="#059669" fill-opacity="0.9"/>
<circle cx="836.67" cy="99.68" r="4.5" fill="#059669" fill-opacity="0.9"/>
<circle cx="845.15" cy="100.96" r="4.5" fill="#059669" fill-opacity="0.9"/>
<circle cx="853.64" cy="99.90" r="4.5" fill="#059669" fill-opacity="0.9"/>
<circle cx="862.12" cy="98.41" r="4.5" fill="#059669" fill-opacity="0.9"/>
<circle cx="870.61" cy="101.17" r="4.5" fill="#059669" fill-opacity="0.9"/>
<circle cx="879.09" cy="100.53" r="4.5" fill="#059669" fill-opacity="0.9"/>
<circle cx="887.58" cy="99.68" r="4.5" fill="#059669" fill-opacity="0.9"/>
<circle cx="896.06" cy="98.84" r="4.5" fill="#059669" fill-opacity="0.9"/>
<circle cx="904.55" cy="99.90" r="4.5" fill="#059669" fill-opacity="0.9"/>
<circle cx="913.03" cy="99.05" r="4.5" fill="#059669" fill-opacity="0.9"/>
<circle cx="921.52" cy="101.59" r="4.5" fill="#059669" fill-opacity="0.9"/>
<circle cx="930.00" cy="102.02" r="4.5" fill="#059669" fill-opacity="0.9"/>
<rect x="270" y="32" width="18" height="6" fill="#059669"/>
<text x="294" y="38" font-size="13" fill="#333333">test</text>
</svg>