<svg xmlns="http://www.w3.org/2000/svg" width="960" height="540">
<rect width="100%" height="100%" fill="#ffffff"/>
<text x="480.0" y="30" font-size="22" text-anchor="middle" fill="#111111">Position 4 Accuracy</text>
<text x="20" y="270.0" font-size="16" transform="rotate(-90 20,270.0)" text-anchor="middle" fill="#333333">Accuracy</text>
<text x="480.0" y="520" font-size="16" text-anchor="middle" fill="#333333">Epoch</text>
<line x1="90" y1="60" x2="90" y2="470" stroke="#333333" stroke-width="2"/>
<line x1="90" y1="470" x2="930" y2="470" stroke="#333333" stroke-width="2"/>
<line x1="90" y1="470.00" x2="930" y2="470.00" stroke="#e5e7eb" stroke-width="1"/>
<text x="80" y="475.00" font-size="12" text-anchor="end" fill="#555555">0.9087</text>
<line x1="90" y1="367.50" x2="930" y2="367.50" stroke="#e5e7eb" stroke-width="1"/>
<text x="80" y="372.50" font-size="12" text-anchor="end" fill="#555555">0.9316</text>
<line x1="90" y1="265.00" x2="930" y2="265.00" stroke="#e5e7eb" stroke-width="1"/>
<text x="80" y="270.00" font-size="12" text-anchor="end" fill="#555555">0.9544</text>
<line x1="90" y1="162.50" x2="930" y2="162.50" stroke="#e5e7eb" stroke-width="1"/>
<text x="80" y="167.50" font-size="12" text-anchor="end" fill="#555555">0.9773</text>
<line x1="90" y1="60.00" x2="930" y2="60.00" stroke="#e5e7eb" stroke-width="1"/>
<text x="80" y="65.00" font-size="12" text-anchor="end" fill="#555555">1.0002</text>
<line x1="90.00" y1="60" x2="90.00" y2="470" stroke="#f3f4f6" stroke-width="1"/>
<text x="90.00" y="492" font-size="12" text-anchor="middle" fill="#555555">1</text>
<line x1="98.48" y1="60" x2="98.48" y2="470" stroke="#f3f4f6" stroke-width="1"/>
<text x="98.48" y="492" font-size="12" text-anchor="middle" fill="#555555">2</text>
<line x1="106.97" y1="60" x2="106.97" y2="470" stroke="#f3f4f6" stroke-width="1"/>
<text x="106.97" y="492" font-size="12" text-anchor="middle" fill="#555555">3</text>
<line x1="115.45" y1="60" x2="115.45" y2="470" stroke="#f3f4f6" stroke-width="1"/>
<text x="115.45" y="492" font-size="12" text-anchor="middle" fill="#555555">4</text>
<line x1="123.94" y1="60" x2="123.94" y2="470" stroke="#f3f4f6" stroke-width="1"/>
<text x="123.94" y="492" font-size="12" text-anchor="middle" fill="#555555">5</text>
<line x1="132.42" y1="60" x2="132.42" y2="470" stroke="#f3f4f6" stroke-width="1"/>
<text x="132.42" y="492" font-size="12" text-anchor="middle" fill="#555555">6</text>
<line x1="140.91" y1="60" x2="140.91" y2="470" stroke="#f3f4f6" stroke-width="1"/>
<text x="140.91" y="492" font-size="12" text-anchor="middle" fill="#555555">7</text>
<line x1="149.39" y1="60" x2="149.39" y2="470" stroke="#f3f4f6" stroke-width="1"/>
<text x="149.39" y="492" font-size="12" text-anchor="middle" fill="#555555">8</text>
<line x1="157.88" y1="60" x2="157.88" y2="470" stroke="#f3f4f6" stroke-width="1"/>
<text x="157.88" y="492" font-size="12" text-anchor="middle" fill="#555555">9</text>
<line x1="166.36" y1="60" x2="166.36" y2="470" stroke="#f3f4f6" stroke-width="1"/>
<text x="166.36" y="492" font-size="12" text-anchor="middle" fill="#555555">10</text>
<line x1="174.85" y1="60" x2="174.85" y2="470" stroke="#f3f4f6" stroke-width="1"/>
<text x="174.85" y="492" font-size="12" text-anchor="middle" fill="#555555">11</text>
<line x1="183.33" y1="60" x2="183.33" y2="470" stroke="#f3f4f6" stroke-width="1"/>
<text x="183.33" y="492" font-size="12" text-anchor="middle" fill="#555555">12</text>
<line x1="191.82" y1="60" x2="191.82" y2="470" stroke="#f3f4f6" stroke-width="1"/>
<text x="191.82" y="492" font-size="12" text-anchor="middle" fill="#555555">13</text>
<line x1="200.30" y1="60" x2="200.30" y2="470" stroke="#f3f4f6" stroke-width="1"/>
<text x="200.30" y="492" font-size="12" text-anchor="middle" fill="#555555">14</text>
<line x1="208.79" y1="60" x2="208.79" y2="470" stroke="#f3f4f6" stroke-width="1"/>
<text x="208.79" y="492" font-size="12" text-anchor="middle" fill="#555555">15</text>
<line x1="217.27" y1="60" x2="217.27" y2="470" stroke="#f3f4f6" stroke-width="1"/>
<text x="217.27" y="492" font-size="12" text-anchor="middle" fill="#555555">16</text>
<line x1="225.76" y1="60" x2="225.76" y2="470" stroke="#f3f4f6" stroke-width="1"/>
<text x="225.76" y="492" font-size="12" text-anchor="middle" fill="#555555">17</text>
<line x1="234.24" y1="60" x2="234.24" y2="470" stroke="#f3f4f6" stroke-width="1"/>
<text x="234.24" y="492" font-size="12" text-anchor="middle" fill="#555555">18</text>
<line x1="242.73" y1="60" x2="242.73" y2="470" stroke="#f3f4f6" stroke-width="1"/>
<text x="242.73" y="492" font-size="12" text-anchor="middle" fill="#555555">19</text>
<line x1="251.21" y1="60" x2="251.21" y2="470" stroke="#f3f4f6" stroke-width="1"/>
<text x="251.21" y="492" font-size="12" text-anchor="middle" fill="#555555">20</text>
<line x1="259.70" y1="60" x2="259.70" y2="470" stroke="#f3f4f6" stroke-width="1"/>
<text x="259.70" y="492" font-size="12" text-anchor="middle" fill="#555555">21</text>
<line x1="268.18" y1="60" x2="268.18" y2="470" stroke="#f3f4f6" stroke-width="1"/>
<text x="268.18" y="492" font-size="12" text-anchor="middle" fill="#555555">22</text>
<line x1="276.67" y1="60" x2="276.67" y2="470" stroke="#f3f4f6" stroke-width="1"/>
<text x="276.67" y="492" font-size="12" text-anchor="middle" fill="#555555">23</text>
<line x1="285.15" y1="60" x2="285.15" y2="470" stroke="#f3f4f6" stroke-width="1"/>
<text x="285.15" y="492" font-size="12" text-anchor="middle" fill="#555555">24</text>
<line x1="293.64" y1="60" x2="293.64" y2="470" stroke="#f3f4f6" stroke-width="1"/>
<text x="293.64" y="492" font-size="12" text-anchor="middle" fill="#555555">25</text>
<line x1="302.12" y1="60" x2="302.12" y2="470" stroke="#f3f4f6" stroke-width="1"/>
<text x="302.12" y="492" font-size="12" text-anchor="middle" fill="#555555">26</text>
<line x1="310.61" y1="60" x2="310.61" y2="470" stroke="#f3f4f6" stroke-width="1"/>
<text x="310.61" y="492" font-size="12" text-anchor="middle" fill="#555555">27</text>
<line x1="319.09" y1="60" x2="319.09" y2="470" stroke="#f3f4f6" stroke-width="1"/>
<text x="319.09" y="492" font-size="12" text-anchor="middle" fill="#555555">28</text>
<line x1="327.58" y1="60" x2="327.58" y2="470" stroke="#f3f4f6" stroke-width="1"/>
<text x="327.58" y="492" font-size="12" text-anchor="middle" fill="#555555">29</text>
<line x1="336.06" y1="60" x2="336.06" y2="470" stroke="#f3f4f6" stroke-width="1"/>
<text x="336.06" y="492" font-size="12" text-anchor="middle" fill="#555555">30</text>
<line x1="344.55" y1="60" x2="344.55" y2="470" stroke="#f3f4f6" stroke-width="1"/>
<text x="344.55" y="492" font-size="12" text-anchor="middle" fill="#555555">31</text>
<line x1="353.03" y1="60" x2="353.03" y2="470" stroke="#f3f4f6" stroke-width="1"/>
<text x="353.03" y="492" font-size="12" text-anchor="middle" fill="#555555">32</text>
<line x1="361.52" y1="60" x2="361.52" y2="470" stroke="#f3f4f6" stroke-width="1"/>
<text x="361.52" y="492" font-size="12" text-anchor="middle" fill="#555555">33</text>
<line x1="370.00" y1="60" x2="370.00" y2="470" stroke="#f3f4f6" stroke-width="1"/>
<text x="370.00" y="492" font-size="12" text-anchor="middle" fill="#555555">34</text>
<line x1="378.48" y1="60" x2="378.48" y2="470" stroke="#f3f4f6" stroke-width="1"/>
<text x="378.48" y="492" font-size="12" text-anchor="middle" fill="#555555">35</text>
<line x1="386.97" y1="60" x2="386.97" y2="470" stroke="#f3f4f6" stroke-width="1"/>
<text x="386.97" y="492" font-size="12" text-anchor="middle" fill="#555555">36</text>
<line x1="395.45" y1="60" x2="395.45" y2="470" stroke="#f3f4f6" stroke-width="1"/>
<text x="395.45" y="492" font-size="12" text-anchor="middle" fill="#555555">37</text>
<line x1="403.94" y1="60" x2="403.94" y2="470" stroke="#f3f4f6" stroke-width="1"/>
<text x="403.94" y="492" font-size="12" text-anchor="middle" fill="#555555">38</text>
<line x1="412.42" y1="60" x2="412.42" y2="470" stroke="#f3f4f6" stroke-width="1"/>
<text x="412.42" y="492" font-size="12" text-anchor="middle" fill="#555555">39</text>
<line x1="420.91" y1="60" x2="420.91" y2="470" stroke="#f3f4f6" stroke-width="1"/>
<text x="420.91" y="492" font-size="12" text-anchor="middle" fill="#555555">40</text>
<line x1="429.39" y1="60" x2="429.39" y2="470" stroke="#f3f4f6" stroke-width="1"/>
<text x="429.39" y="492" font-size="12" text-anchor="middle" fill="#555555">41</text>
<line x1="437.88" y1="60" x2="437.88" y2="470" stroke="#f3f4f6" stroke-width="1"/>
<text x="437.88" y="492" font-size="12" text-anchor="middle" fill="#555555">42</text>
<line x1="446.36" y1="60" x2="446.36" y2="470" stroke="#f3f4f6" stroke-width="1"/>
<text x="446.36" y="492" font-size="12" text-anchor="middle" fill="#555555">43</text>
<line x1="454.85" y1="60" x2="454.85" y2="470" stroke="#f3f4f6" stroke-width="1"/>
<text x="454.85" y="492" font-size="12" text-anchor="middle" fill="#555555">44</text>
<line x1="463.33" y1="60" x2="463.33" y2="470" stroke="#f3f4f6" stroke-width="1"/>
<text x="463.33" y="492" font-size="12" text-anchor="middle" fill="#555555">45</text>
<line x1="471.82" y1="60" x2="471.82" y2="470" stroke="#f3f4f6" stroke-width="1"/>
<text x="471.82" y="492" font-size="12" text-anchor="middle" fill="#555555">46</text>
<line x1="480.30" y1="60" x2="480.30" y2="470" stroke="#f3f4f6" stroke-width="1"/>
<text x="480.30" y="492" font-size="12" text-anchor="middle" fill="#555555">47</text>
<line x1="488.79" y1="60" x2="488.79" y2="470" stroke="#f3f4f6" stroke-width="1"/>
<text x="488.79" y="492" font-size="12" text-anchor="middle" fill="#555555">48</text>
<line x1="497.27" y1="60" x2="497.27" y2="470" stroke="#f3f4f6" stroke-width="1"/>
<text x="497.27" y="492" font-size="12" text-anchor="middle" fill="#555555">49</text>
<line x1="505.76" y1="60" x2="505.76" y2="470" stroke="#f3f4f6" stroke-width="1"/>
<text x="505.76" y="492" font-size="12" text-anchor="middle" fill="#555555">50</text>
<line x1="514.24" y1="60" x2="514.24" y2="470" stroke="#f3f4f6" stroke-width="1"/>
<text x="514.24" y="492" font-size="12" text-anchor="middle" fill="#555555">51</text>
<line x1="522.73" y1="60" x2="522.73" y2="470" stroke="#f3f4f6" stroke-width="1"/>
<text x="522.73" y="492" font-size="12" text-anchor="middle" fill="#555555">52</text>
<line x1="531.21" y1="60" x2="531.21" y2="470" stroke="#f3f4f6" stroke-width="1"/>
<text x="531.21" y="492" font-size="12" text-anchor="middle" fill="#555555">53</text>
<line x1="539.70" y1="60" x2="539.70" y2="470" stroke="#f3f4f6" stroke-width="1"/>
<text x="539.70" y="492" font-size="12" text-anchor="middle" fill="#555555">54</text>
<line x1="548.18" y1="60" x2="548.18" y2="470" stroke="#f3f4f6" stroke-width="1"/>
<text x="548.18" y="492" font-size="12" text-anchor="middle" fill="#555555">55</text>
<line x1="556.67" y1="60" x2="556.67" y2="470" stroke="#f3f4f6" stroke-width="1"/>
<text x="556.67" y="492" font-size="12" text-anchor="middle" fill="#555555">56</text>
<line x1="565.15" y1="60" x2="565.15" y2="470" stroke="#f3f4f6" stroke-width="1"/>
<text x="565.15" y="492" font-size="12" text-anchor="middle" fill="#555555">57</text>
<line x1="573.64" y1="60" x2="573.64" y2="470" stroke="#f3f4f6" stroke-width="1"/>
<text x="573.64" y="492" font-size="12" text-anchor="middle" fill="#555555">58</text>
<line x1="582.12" y1="60" x2="582.12" y2="470" stroke="#f3f4f6" stroke-width="1"/>
<text x="582.12" y="492" font-size="12" text-anchor="middle" fill="#555555">59</text>
<line x1="590.61" y1="60" x2="590.61" y2="470" stroke="#f3f4f6" stroke-width="1"/>
<text x="590.61" y="492" font-size="12" text-anchor="middle" fill="#555555">60</text>
<line x1="599.09" y1="60" x2="599.09" y2="470" stroke="#f3f4f6" stroke-width="1"/>
<text x="599.09" y="492" font-size="12" text-anchor="middle" fill="#555555">61</text>
<line x1="607.58" y1="60" x2="607.58" y2="470" stroke="#f3f4f6" stroke-width="1"/>
<text x="607.58" y="492" font-size="12" text-anchor="middle" fill="#555555">62</text>
<line x1="616.06" y1="60" x2="616.06" y2="470" stroke="#f3f4f6" stroke-width="1"/>
<text x="616.06" y="492" font-size="12" text-anchor="middle" fill="#555555">63</text>
<line x1="624.55" y1="60" x2="624.55" y2="470" stroke="#f3f4f6" stroke-width="1"/>
<text x="624.55" y="492" font-size="12" text-anchor="middle" fill="#555555">64</text>
<line x1="633.03" y1="60" x2="633.03" y2="470" stroke="#f3f4f6" stroke-width="1"/>
<text x="633.03" y="492" font-size="12" text-anchor="middle" fill="#555555">65</text>
<line x1="641.52" y1="60" x2="641.52" y2="470" stroke="#f3f4f6" stroke-width="1"/>
<text x="641.52" y="492" font-size="12" text-anchor="middle" fill="#555555">66</text>
<line x1="650.00" y1="60" x2="650.00" y2="470" stroke="#f3f4f6" stroke-width="1"/>
<text x="650.00" y="492" font-size="12" text-anchor="middle" fill="#555555">67</text>
<line x1="658.48" y1="60" x2="658.48" y2="470" stroke="#f3f4f6" stroke-width="1"/>
<text x="658.48" y="492" font-size="12" text-anchor="middle" fill="#555555">68</text>
<line x1="666.97" y1="60" x2="666.97" y2="470" stroke="#f3f4f6" stroke-width="1"/>
<text x="666.97" y="492" font-size="12" text-anchor="middle" fill="#555555">69</text>
<line x1="675.45" y1="60" x2="675.45" y2="470" stroke="#f3f4f6" stroke-width="1"/>
<text x="675.45" y="492" font-size="12" text-anchor="middle" fill="#555555">70</text>
<line x1="683.94" y1="60" x2="683.94" y2="470" stroke="#f3f4f6" stroke-width="1"/>
<text x="683.94" y="492" font-size="12" text-anchor="middle" fill="#555555">71</text>
<line x1="692.42" y1="60" x2="692.42" y2="470" stroke="#f3f4f6" stroke-width="1"/>
<text x="692.42" y="492" font-size="12" text-anchor="middle" fill="#555555">72</text>
<line x1="700.91" y1="60" x2="700.91" y2="470" stroke="#f3f4f6" stroke-width="1"/>
<text x="700.91" y="492" font-size="12" text-anchor="middle" fill="#555555">73</text>
<line x1="709.39" y1="60" x2="709.39" y2="470" stroke="#f3f4f6" stroke-width="1"/>
<text x="709.39" y="492" font-size="12" text-anchor="middle" fill="#555555">74</text>
<line x1="717.88" y1="60" x2="717.88" y2="470" stroke="#f3f4f6" stroke-width="1"/>
<text x="717.88" y="492" font-size="12" text-anchor="middle" fill="#555555">75</text>
<line x1="726.36" y1="60" x2="726.36" y2="470" stroke="#f3f4f6" stroke-width="1"/>
<text x="726.36" y="492" font-size="12" text-anchor="middle" fill="#555555">76</text>
<line x1="734.85" y1="60" x2="734.85" y2="470" stroke="#f3f4f6" stroke-width="1"/>
<text x="734.85" y="492" font-size="12" text-anchor="middle" fill="#555555">77</text>
<line x1="743.33" y1="60" x2="743.33" y2="470" stroke="#f3f4f6" stroke-width="1"/>
<text x="743.33" y="492" font-size="12" text-anchor="middle" fill="#555555">78</text>
<line x1="751.82" y1="60" x2="751.82" y2="470" stroke="#f3f4f6" stroke-width="1"/>
<text x="751.82" y="492" font-size="12" text-anchor="middle" fill="#555555">79</text>
<line x1="760.30" y1="60" x2="760.30" y2="470" stroke="#f3f4f6" stroke-width="1"/>
<text x="760.30" y="492" font-size="12" text-anchor="middle" fill="#555555">80</text>
<line x1="768.79" y1="60" x2="768.79" y2="470" stroke="#f3f4f6" stroke-width="1"/>
<text x="768.79" y="492" font-size="12" text-anchor="middle" fill="#555555">81</text>
<line x1="777.27" y1="60" x2="777.27" y2="470" stroke="#f3f4f6" stroke-width="1"/>
<text x="777.27" y="492" font-size="12" text-anchor="middle" fill="#555555">82</text>
<line x1="785.76" y1="60" x2="785.76" y2="470" stroke="#f3f4f6" stroke-width="1"/>
<text x="785.76" y="492" font-size="12" text-anchor="middle" fill="#555555">83</text>
<line x1="794.24" y1="60" x2="794.24" y2="470" stroke="#f3f4f6" stroke-width="1"/>
<text x="794.24" y="492" font-size="12" text-anchor="middle" fill="#555555">84</text>
<line x1="802.73" y1="60" x2="802.73" y2="470" stroke="#f3f4f6" stroke-width="1"/>
<text x="802.73" y="492" font-size="12" text-anchor="middle" fill="#555555">85</text>
<line x1="811.21" y1="60" x2="811.21" y2="470" stroke="#f3f4f6" stroke-width="1"/>
<text x="811.21" y="492" font-size="12" text-anchor="middle" fill="#555555">86</text>
<line x1="819.70" y1="60" x2="819.70" y2="470" stroke="#f3f4f6" stroke-width="1"/>
<text x="819.70" y="492" font-size="12" text-anchor="middle" fill="#555555">87</text>
<line x1="828.18" y1="60" x2="828.18" y2="470" stroke="#f3f4f6" stroke-width="1"/>
<text x="828.18" y="492" font-size="12" text-anchor="middle" fill="#555555">88</text>
<line x1="836.67" y1="60" x2="836.67" y2="470" stroke="#f3f4f6" stroke-width="1"/>
<text x="836.67" y="492" font-size="12" text-anchor="middle" fill="#555555">89</text>
<line x1="845.15" y1="60" x2="845.15" y2="470" stroke="#f3f4f6" stroke-width="1"/>
<text x="845.15" y="492" font-size="12" text-anchor="middle" fill="#555555">90</text>
<line x1="853.64" y1="60" x2="853.64" y2="470" stroke="#f3f4f6" stroke-width="1"/>
<text x="853.64" y="492" font-size="12" text-anchor="middle" fill="#555555">91</text>
<line x1="862.12" y1="60" x2="862.12" y2="470" stroke="#f3f4f6" stroke-width="1"/>
<text x="862.12" y="492" font-size="12" text-anchor="middle" fill="#555555">92</text>
<line x1="870.61" y1="60" x2="870.61" y2="470" stroke="#f3f4f6" stroke-width="1"/>
<text x="870.61" y="492" font-size="12" text-anchor="middle" fill="#555555">93</text>
<line x1="879.09" y1="60" x2="879.09" y2="470" stroke="#f3f4f6" stroke-width="1"/>
<text x="879.09" y="492" font-size="12" text-anchor="middle" fill="#555555">94</text>
<line x1="887.58" y1="60" x2="887.58" y2="470" stroke="#f3f4f6" stroke-width="1"/>
<text x="887.58" y="492" font-size="12" text-anchor="middle" fill="#555555">95</text>
<line x1="896.06" y1="60" x2="896.06" y2="470" stroke="#f3f4f6" stroke-width="1"/>
<text x="896.06" y="492" font-size="12" text-anchor="middle" fill="#555555">96</text>
<line x1="904.55" y1="60" x2="904.55" y2="470" stroke="#f3f4f6" stroke-width="1"/>
<text x="904.55" y="492" font-size="12" text-anchor="middle" fill="#555555">97</text>
<line x1="913.03" y1="60" x2="913.03" y2="470" stroke="#f3f4f6" stroke-width="1"/>
<text x="913.03" y="492" font-size="12" text-anchor="middle" fill="#555555">98</text>
<line x1="921.52" y1="60" x2="921.52" y2="470" stroke="#f3f4f6" stroke-width="1"/>
<text x="921.52" y="492" font-size="12" text-anchor="middle" fill="#555555">99</text>
<line x1="930.00" y1="60" x2="930.00" y2="470" stroke="#f3f4f6" stroke-width="1"/>
<text x="930.00" y="492" font-size="12" text-anchor="middle" fill="#555555">100</text>
<polyline fill="none" stroke="#d97706" stroke-width="3" points="90.00,430.75 98.48,231.67 106.97,265.75 115.45,320.75 123.94,212.84 132.42,163.52 140.91,154.25 149.39,151.56 157.88,225.39 166.36,177.27 174.85,135.72 183.33,133.33 191.82,122.86 200.30,144.98 208.79,159.93 217.27,148.87 225.76,133.33 234.24,133.92 242.73,126.45 251.21,126.45 259.70,115.09 268.18,118.08 276.67,112.10 285.15,121.07 293.64,123.46 302.12,124.96 310.61,125.25 319.09,115.09 327.58,132.43 336.06,119.28 344.55,124.66 353.03,127.05 361.52,115.09 370.00,128.54 378.48,121.97 386.97,115.99 395.45,119.28 403.94,120.77 412.42,195.50 420.91,115.09 429.39,115.39 437.88,117.78 446.36,118.08 454.85,106.72 463.33,125.25 471.82,136.61 480.30,116.88 488.79,114.79 497.27,113.90 505.76,124.66 514.24,100.15 522.73,102.54 531.21,98.35 539.70,99.25 548.18,98.35 556.67,98.05 565.15,98.05 573.64,98.95 582.12,96.26 590.61,98.95 599.09,96.86 607.58,97.16 616.06,96.56 624.55,98.05 633.03,97.45 641.52,96.26 650.00,97.45 658.48,96.26 666.97,95.66 675.45,94.47 683.94,96.26 692.42,95.96 700.91,97.45 709.39,99.25 717.88,99.85 726.36,97.16 734.85,98.05 743.33,101.34 751.82,96.86 760.30,99.25 768.79,99.25 777.27,98.35 785.76,97.45 794.24,98.35 802.73,98.65 811.21,97.45 819.70,96.56 828.18,95.66 836.67,95.36 845.15,99.55 853.64,98.05 862.12,98.95 870.61,98.05 879.09,96.26 887.58,97.75 896.06,96.26 904.55,98.05 913.03,97.75 921.52,96.26 930.00,97.75"/>
<circle cx="90.00" cy="430.75" r="4.5" fill="#d97706" fill-opacity="0.9"/>
<circle cx="98.48" cy="231.67" r="4.5" fill="#d97706" fill-opacity="0.9"/>
<circle cx="106.97" cy="265.75" r="4.5" fill="#d97706" fill-opacity="0.9"/>
<circle cx="115.45" cy="320.75" r="4.5" fill="#d97706" fill-opacity="0.9"/>
<circle cx="123.94" cy="212.84" r="4.5" fill="#d97706" fill-opacity="0.9"/>
<circle cx="132.42" cy="163.52" r="4.5" fill="#d97706" fill-opacity="0.9"/>
<circle cx="140.91" cy="154.25" r="4.5" fill="#d97706" fill-opacity="0.9"/>
<circle cx="149.39" cy="151.56" r="4.5" fill="#d97706" fill-opacity="0.9"/>
<circle cx="157.88" cy="225.39" r="4.5" fill="#d97706" fill-opacity="0.9"/>
<circle cx="166.36" cy="177.27" r="4.5" fill="#d97706" fill-opacity="0.9"/>
<circle cx="174.85" cy="135.72" r="4.5" fill="#d97706" fill-opacity="0.9"/>
<circle cx="183.33" cy="133.33" r="4.5" fill="#d97706" fill-opacity="0.9"/>
<circle cx="191.82" cy="122.86" r="4.5" fill="#d97706" fill-opacity="0.9"/>
<circle cx="200.30" cy="144.98" r="4.5" fill="#d97706" fill-opacity="0.9"/>
<circle cx="208.79" cy="159.93" r="4.5" fill="#d97706" fill-opacity="0.9"/>
<circle cx="217.27" cy="148.87" r="4.5" fill="#d97706" fill-opacity="0.9"/>
<circle cx="225.76" cy="133.33" r="4.5" fill="#d97706" fill-opacity="0.9"/>
<circle cx="234.24" cy="133.92" r="4.5" fill="#d97706" fill-opacity="0.9"/>
<circle cx="242.73" cy="126.45" r="4.5" fill="#d97706" fill-opacity="0.9"/>
<circle cx="251.21" cy="126.45" r="4.5" fill="#d97706" fill-opacity="0.9"/>
<circle cx="259.70" cy="115.09" r="4.5" fill="#d97706" fill-opacity="0.9"/>
<circle cx="268.18" cy="118.08" r="4.5" fill="#d97706" fill-opacity="0.9"/>
<circle cx="276.67" cy="112.10" r="4.5" fill="#d97706" fill-opacity="0.9"/>
<circle cx="285.15" cy="121.07" r="4.5" fill="#d97706" fill-opacity="0.9"/>
<circle cx="293.64" cy="123.46" r="4.5" fill="#d97706" fill-opacity="0.9"/>
<circle cx="302.12" cy="124.96" r="4.5" fill="#d97706" fill-opacity="0.9"/>
<circle cx="310.61" cy="125.25" r="4.5" fill="#d97706" fill-opacity="0.9"/>
<circle cx="319.09" cy="115.09" r="4.5" fill="#d97706" fill-opacity="0.9"/>
<circle cx="327.58" cy="132.43" r="4.5" fill="#d97706" fill-opacity="0.9"/>
<circle cx="336.06" cy="119.28" r="4.5" fill="#d97706" fill-opacity="0.9"/>
<circle cx="344.55" cy="124.66" r="4.5" fill="#d97706" fill-opacity="0.9"/>
<circle cx="353.03" cy="127.05" r="4.5" fill="#d97706" fill-opacity="0.9"/>
<circle cx="361.52" cy="115.09" r="4.5" fill="#d97706" fill-opacity="0.9"/>
<circle cx="370.00" cy="128.54" r="4.5" fill="#d97706" fill-opacity="0.9"/>
<circle cx="378.48" cy="121.97" r="4.5" fill="#d97706" fill-opacity="0.9"/>
<circle cx="386.97" cy="115.99" r="4.5" fill="#d97706" fill-opacity="0.9"/>
<circle cx="395.45" cy="119.28" r="4.5" fill="#d97706" fill-opacity="0.9"/>
<circle cx="403.94" cy="120.77" r="4.5" fill="#d97706" fill-opacity="0.9"/>
<circle cx="412.42" cy="195.50" r="4.5" fill="#d97706" fill-opacity="0.9"/>
<circle cx="420.91" cy="115.09" r="4.5" fill="#d97706" fill-opacity="0.9"/>
<circle cx="429.39" cy="115.39" r="4.5" fill="#d97706" fill-opacity="0.9"/>
<circle cx="437.88" cy="117.78" r="4.5" fill="#d97706" fill-opacity="0.9"/>
<circle cx="446.36" cy="118.08" r="4.5" fill="#d97706" fill-opacity="0.9"/>
<circle cx="454.85" cy="106.72" r="4.5" fill="#d97706" fill-opacity="0.9"/>
<circle cx="463.33" cy="125.25" r="4.5" fill="#d97706" fill-opacity="0.9"/>
<circle cx="471.82" cy="136.61" r="4.5" fill="#d97706" fill-opacity="0.9"/>
<circle cx="480.30" cy="116.88" r="4.5" fill="#d97706" fill-opacity="0.9"/>
<circle cx="488.79" cy="114.79" r="4.5" fill="#d97706" fill-opacity="0.9"/>
<circle cx="497.27" cy="113.90" r="4.5" fill="#d97706" fill-opacity="0.9"/>
<circle cx="505.76" cy="124.66" r="4.5" fill="#d97706" fill-opacity="0.9"/>
<circle cx="514.24" cy="100.15" r="4.5" fill="#d97706" fill-opacity="0.9"/>
<circle cx="522.73" cy="102.54" r="4.5" fill="#d97706" fill-opacity="0.9"/>
<circle cx="531.21" cy="98.35" r="4.5" fill="#d97706" fill-opacity="0.9"/>
<circle cx="539.70" cy="99.25" r="4.5" fill="#d97706" fill-opacity="0.9"/>
<circle cx="548.18" cy="98.35" r="4.5" fill="#d97706" fill-opacity="0.9"/>
<circle cx="556.67" cy="98.05" r="4.5" fill="#d97706" fill-opacity="0.9"/>
<circle cx="565.15" cy="98.05" r="4.5" fill="#d97706" fill-opacity="0.9"/>
<circle cx="573.64" cy="98.95" r="4.5" fill="#d97706" fill-opacity="0.9"/>
<circle cx="582.12" cy="96.26" r="4.5" fill="#d97706" fill-opacity="0.9"/>
<circle cx="590.61" cy="98.95" r="4.5" fill="#d97706" fill-opacity="0.9"/>
<circle cx="599.09" cy="96.86" r="4.5" fill="#d97706" fill-opacity="0.9"/>
<circle cx="607.58" cy="97.16" r="4.5" fill="#d97706" fill-opacity="0.9"/>
<circle cx="616.06" cy="96.56" r="4.5" fill="#d97706" fill-opacity="0.9"/>
<circle cx="624.55" cy="98.05" r="4.5" fill="#d97706" fill-opacity="0.9"/>
<circle cx="633.03" cy="97.45" r="4.5" fill="#d97706" fill-opacity="0.9"/>
<circle cx="641.52" cy="96.26" r="4.5" fill="#d97706" fill-opacity="0.9"/>
<circle cx="650.00" cy="97.45" r="4.5" fill="#d97706" fill-opacity="0.9"/>
<circle cx="658.48" cy="96.26" r="4.5" fill="#d97706" fill-opacity="0.9"/>
<circle cx="666.97" cy="95.66" r="4.5" fill="#d97706" fill-opacity="0.9"/>
<circle cx="675.45" cy="94.47" r="4.5" fill="#d97706" fill-opacity="0.9"/>
<circle cx="683.94" cy="96.26" r="4.5" fill="#d97706" fill-opacity="0.9"/>
<circle cx="692.42" cy="95.96" r="4.5" fill="#d97706" fill-opacity="0.9"/>
<circle cx="700.91" cy="97.45" r="4.5" fill="#d97706" fill-opacity="0.9"/>
<circle cx="709.39" cy="99.25" r="4.5" fill="#d97706" fill-opacity="0.9"/>
<circle cx="717.88" cy="99.85" r="4.5" fill="#d97706" fill-opacity="0.9"/>
<circle cx="726.36" cy="97.16" r="4.5" fill="#d97706" fill-opacity="0.9"/>
<circle cx="734.85" cy="98.05" r="4.5" fill="#d97706" fill-opacity="0.9"/>
<circle cx="743.33" cy="101.34" r="4.5" fill="#d97706" fill-opacity="0.9"/>
<circle cx="751.82" cy="96.86" r="4.5" fill="#d97706" fill-opacity="0.9"/>
<circle cx="760.30" cy="99.25" r="4.5" fill="#d97706" fill-opacity="0.9"/>
<circle cx="768.79" cy="99.25" r="4.5" fill="#d97706" fill-opacity="0.9"/>
<circle cx="777.27" cy="98.35" r="4.5" fill="#d97706" fill-opacity="0.9"/>
<circle cx="785.76" cy="97.45" r="4.5" fill="#d97706" fill-opacity="0.9"/>
<circle cx="794.24" cy="98.35" r="4.5" fill="#d97706" fill-opacity="0.9"/>
<circle cx="802.73" cy="98.65" r="4.5" fill="#d97706" fill-opacity="0.9"/>
<circle cx="811.21" cy="97.45" r="4.5" fill="#d97706" fill-opacity="0.9"/>
<circle cx="819.70" cy="96.56" r="4.5" fill="#d97706" fill-opacity="0.9"/>
<circle cx="828.18" cy="95.66" r="4.5" fill="#d97706" fill-opacity="0.9"/>
<circle cx="836.67" cy="95.36" r="4.5" fill="#d97706" fill-opacity="0.9"/>
<circle cx="845.15" cy="99.55" r="4.5" fill="#d97706" fill-opacity="0.9"/>
<circle cx="853.64" cy="98.05" r="4.5" fill="#d97706" fill-opacity="0.9"/>
<circle cx="862.12" cy="98.95" r="4.5" fill="#d97706" fill-opacity="0.9"/>
<circle cx="870.61" cy="98.05" r="4.5" fill="#d97706" fill-opacity="0.9"/>
<circle cx="879.09" cy="96.26" r="4.5" fill="#d97706" fill-opacity="0.9"/>
<circle cx="887.58" cy="97.75" r="4.5" fill="#d97706" fill-opacity="0.9"/>
<circle cx="896.06" cy="96.26" r="4.5" fill="#d97706" fill-opacity="0.9"/>
<circle cx="904.55" cy="98.05" r="4.5" fill="#d97706" fill-opacity="0.9"/>
<circle cx="913.03" cy="97.75" r="4.5" fill="#d97706" fill-opacity="0.9"/>
<circle cx="921.52" cy="96.26" r="4.5" fill="#d97706" fill-opacity="0.9"/>
<circle cx="930.00" cy="97.75" r="4.5" fill="#d97706" fill-opacity="0.9"/>
<rect x="90" y="32" width="18" height="6" fill="#d97706"/>
<text x="114" y="38" font-size="13" fill="#333333">val</text>
<polyline fill="none" stroke="#059669" stroke-width="3" points="90.00,435.83 98.48,215.53 106.97,253.79 115.45,309.99 123.94,200.28 132.42,155.15 140.91,148.57 149.39,144.98 157.88,219.12 166.36,166.51 174.85,141.10 183.33,129.44 191.82,118.98 200.30,136.02 208.79,146.18 217.27,141.40 225.76,125.25 234.24,120.47 242.73,114.19 251.21,117.78 259.70,110.01 268.18,108.81 276.67,109.41 285.15,114.49 293.64,111.21 302.12,121.67 310.61,114.79 319.09,105.23 327.58,126.45 336.06,113.90 344.55,109.11 353.03,121.67 361.52,112.10 370.00,121.37 378.48,115.39 386.97,106.72 395.45,114.79 403.94,115.99 412.42,187.73 420.91,111.50 429.39,106.42 437.88,110.01 446.36,113.60 454.85,106.12 463.33,118.08 471.82,132.73 480.30,110.61 488.79,109.41 497.27,107.02 505.76,125.55 514.24,99.55 522.73,101.04 531.21,98.65 539.70,95.66 548.18,96.86 556.67,99.85 565.15,95.06 573.64,94.47 582.12,95.66 590.61,95.96 599.09,96.86 607.58,97.75 616.06,96.26 624.55,98.05 633.03,97.75 641.52,97.75 650.00,98.95 658.48,97.45 666.97,97.45 675.45,96.86 683.94,95.66 692.42,95.96 700.91,94.17 709.39,98.05 717.88,96.86 726.36,99.85 734.85,98.05 743.33,99.55 751.82,98.65 760.30,96.26 768.79,96.56 777.27,96.86 785.76,96.26 794.24,95.36 802.73,98.65 811.21,94.76 819.70,94.47 828.18,96.86 836.67,96.26 845.15,98.65 853.64,97.45 862.12,98.05 870.61,97.45 879.09,98.35 887.58,99.25 896.06,96.26 904.55,98.95 913.03,96.26 921.52,98.35 930.00,98.35"/>
<circle cx="90.00" cy="435.83" r="4.5" fill="#059669" fill-opacity="0.9"/>
<circle cx="98.48" cy="215.53" r="4.5" fill="#059669" fill-opacity="0.9"/>
<circle cx="106.97" cy="253.79" r="4.5" fill="#059669" fill-opacity="0.9"/>
<circle cx="115.45" cy="309.99" r="4.5" fill="#059669" fill-opacity="0.9"/>
<circle cx="123.94" cy="200.28" r="4.5" fill="#059669" fill-opacity="0.9"/>
<circle cx="132.42" cy="155.15" r="4.5" fill="#059669" fill-opacity="0.9"/>
<circle cx="140.91" cy="148.57" r="4.5" fill="#059669" fill-opacity="0.9"/>
<circle cx="149.39" cy="144.98" r="4.5" fill="#059669" fill-opacity="0.9"/>
<circle cx="157.88" cy="219.12" r="4.5" fill="#059669" fill-opacity="0.9"/>
<circle cx="166.36" cy="166.51" r="4.5" fill="#059669" fill-opacity="0.9"/>
<circle cx="174.85" cy="141.10" r="4.5" fill="#059669" fill-opacity="0.9"/>
<circle cx="183.33" cy="129.44" r="4.5" fill="#059669" fill-opacity="0.9"/>
<circle cx="191.82" cy="118.98" r="4.5" fill="#059669" fill-opacity="0.9"/>
<circle cx="200.30" cy="136.02" r="4.5" fill="#059669" fill-opacity="0.9"/>
<circle cx="208.79" cy="146.18" r="4.5" fill="#059669" fill-opacity="0.9"/>
<circle cx="217.27" cy="141.40" r="4.5" fill="#059669" fill-opacity="0.9"/>
<circle cx="225.76" cy="125.25" r="4.5" fill="#059669" fill-opacity="0.9"/>
<circle cx="234.24" cy="120.47" r="4.5" fill="#059669" fill-opacity="0.9"/>
<circle cx="242.73" cy="114.19" r="4.5" fill="#059669" fill-opacity="0.9"/>
<circle cx="251.21" cy="117.78" r="4.5" fill="#059669" fill-opacity="0.9"/>
<circle cx="259.70" cy="110.01" r="4.5" fill="#059669" fill-opacity="0.9"/>
<circle cx="268.18" cy="108.81" r="4.5" fill="#059669" fill-opacity="0.9"/>
<circle cx="276.67" cy="109.41" r="4.5" fill="#059669" fill-opacity="0.9"/>
<circle cx="285.15" cy="114.49" r="4.5" fill="#059669" fill-opacity="0.9"/>
<circle cx="293.64" cy="111.21" r="4.5" fill="#059669" fill-opacity="0.9"/>
<circle cx="302.12" cy="121.67" r="4.5" fill="#059669" fill-opacity="0.9"/>
<circle cx="310.61" cy="114.79" r="4.5" fill="#059669" fill-opacity="0.9"/>
<circle cx="319.09" cy="105.23" r="4.5" fill="#059669" fill-opacity="0.9"/>
<circle cx="327.58" cy="126.45" r="4.5" fill="#059669" fill-opacity="0.9"/>
<circle cx="336.06" cy="113.90" r="4.5" fill="#059669" fill-opacity="0.9"/>
<circle cx="344.55" cy="109.11" r="4.5" fill="#059669" fill-opacity="0.9"/>
<circle cx="353.03" cy="121.67" r="4.5" fill="#059669" fill-opacity="0.9"/>
<circle cx="361.52" cy="112.10" r="4.5" fill="#059669" fill-opacity="0.9"/>
<circle cx="370.00" cy="121.37" r="4.5" fill="#059669" fill-opacity="0.9"/>
<circle cx="378.48" cy="115.39" r="4.5" fill="#059669" fill-opacity="0.9"/>
<circle cx="386.97" cy="106.72" r="4.5" fill="#059669" fill-opacity="0.9"/>
<circle cx="395.45" cy="114.79" r="4.5" fill="#059669" fill-opacity="0.9"/>
<circle cx="403.94" cy="115.99" r="4.5" fill="#059669" fill-opacity="0.9"/>
<circle cx="412.42" cy="187.73" r="4.5" fill="#059669" fill-opacity="0.9"/>
<circle cx="420.91" cy="111.50" r="4.5" fill="#059669" fill-opacity="0.9"/>
<circle cx="429.39" cy="106.42" r="4.5" fill="#059669" fill-opacity="0.9"/>
<circle cx="437.88" cy="110.01" r="4.5" fill="#059669" fill-opacity="0.9"/>
<circle cx="446.36" cy="113.60" r="4.5" fill="#059669" fill-opacity="0.9"/>
<circle cx="454.85" cy="106.12" r="4.5" fill="#059669" fill-opacity="0.9"/>
<circle cx="463.33" cy="118.08" r="4.5" fill="#059669" fill-opacity="0.9"/>
<circle cx="471.82" cy="132.73" r="4.5" fill="#059669" fill-opacity="0.9"/>
<circle cx="480.30" cy="110.61" r="4.5" fill="#059669" fill-opacity="0.9"/>
<circle cx="488.79" cy="109.41" r="4.5" fill="#059669" fill-opacity="0.9"/>
<circle cx="497.27" cy="107.02" r="4.5" fill="#059669" fill-opacity="0.9"/>
<circle cx="505.76" cy="125.55" r="4.5" fill="#059669" fill-opacity="0.9"/>
<circle cx="514.24" cy="99.55" r="4.5" fill="#059669" fill-opacity="0.9"/>
<circle cx="522.73" cy="101.04" r="4.5" fill="#059669" fill-opacity="0.9"/>
<circle cx="531.21" cy="98.65" r="4.5" fill="#059669" fill-opacity="0.9"/>
<circle cx="539.70" cy="95.66" r="4.5" fill="#059669" fill-opacity="0.9"/>
<circle cx="548.18" cy="96.86" r="4.5" fill="#059669" fill-opacity="0.9"/>
<circle cx="556.67" cy="99.85" r="4.5" fill="#059669" fill-opacity="0.9"/>
<circle cx="565.15" cy="95.06" r="4.5" fill="#059669" fill-opacity="0.9"/>
<circle cx="573.64" cy="94.47" r="4.5" fill="#059669" fill-opacity="0.9"/>
<circle cx="582.12" cy="95.66" r="4.5" fill="#059669" fill-opacity="0.9"/>
<circle cx="590.61" cy="95.96" r="4.5" fill="#059669" fill-opacity="0.9"/>
<circle cx="599.09" cy="96.86" r="4.5" fill="#059669" fill-opacity="0.9"/>
<circle cx="607.58" cy="97.75" r="4.5" fill="#059669" fill-opacity="0.9"/>
<circle cx="616.06" cy="96.26" r="4.5" fill="#059669" fill-opacity="0.9"/>
<circle cx="624.55" cy="98.05" r="4.5" fill="#059669" fill-opacity="0.9"/>
<circle cx="633.03" cy="97.75" r="4.5" fill="#059669" fill-opacity="0.9"/>
<circle cx="641.52" cy="97.75" r="4.5" fill="#059669" fill-opacity="0.9"/>
<circle cx="650.00" cy="98.95" r="4.5" fill="#059669" fill-opacity="0.9"/>
<circle cx="658.48" cy="97.45" r="4.5" fill="#059669" fill-opacity="0.9"/>
<circle cx="666.97" cy="97.45" r="4.5" fill="#059669" fill-opacity="0.9"/>
<circle cx="675.45" cy="96.86" r="4.5" fill="#059669" fill-opacity="0.9"/>
<circle cx="683.94" cy="95.66" r="4.5" fill="#059669" fill-opacity="0.9"/>
<circle cx="692.42" cy="95.96" r="4.5" fill="#059669" fill-opacity="0.9"/>
<circle cx="700.91" cy="94.17" r="4.5" fill="#059669" fill-opacity="0.9"/>
<circle cx="709.39" cy="98.05" r="4.5" fill="#059669" fill-opacity="0.9"/>
<circle cx="717.88" cy="96.86" r="4.5" fill="#059669" fill-opacity="0.9"/>
<circle cx="726.36" cy="99.85" r="4.5" fill="#059669" fill-opacity="0.9"/>
<circle cx="734.85" cy="98.05" r="4.5" fill="#059669" fill-opacity="0.9"/>
<circle cx="743.33" cy="99.55" r="4.5" fill="#059669" fill-opacity="0.9"/>
<circle cx="751.82" cy="98.65" r="4.5" fill="#059669" fill-opacity="0.9"/>
<circle cx="760.30" cy="96.26" r="4.5" fill="#059669" fill-opacity="0.9"/>
<circle cx="768.79" cy="96.56" r="4.5" fill="#059669" fill-opacity="0.9"/>
<circle cx="777.27" cy="96.86" r="4.5" fill="#059669" fill-opacity="0.9"/>
<circle cx="785.76" cy="96.26" r="4.5" fill="#059669" fill-opacity="0.9"/>
<circle cx="794.24" cy="95.36" r="4.5" fill="#059669" fill-opacity="0.9"/>
<circle cx="802.73" cy="98.65" r="4.5" fill="#059669" fill-opacity="0.9"/>
<circle cx="811.21" cy="94.76" r="4.5" fill="#059669" fill-opacity="0.9"/>
<circle cx="819.70" cy="94.47" r="4.5" fill="#059669" fill-opacity="0.9"/>
<circle cx="828.18" cy="96.86" r="4.5" fill="#059669" fill-opacity="0.9"/>
<circle cx="836.67" cy="96.26" r="4.5" fill="#059669" fill-opacity="0.9"/>
<circle cx="845.15" cy="98.65" r="4.5" fill="#059669" fill-opacity="0.9"/>
<circle cx="853.64" cy="97.45" r="4.5" fill="#059669" fill-opacity="0.9"/>
<circle cx="862.12" cy="98.05" r="4.5" fill="#059669" fill-opacity="0.9"/>
<circle cx="870.61" cy="97.45" r="4.5" fill="#059669" fill-opacity="0.9"/>
<circle cx="879.09" cy="98.35" r="4.5" fill="#059669" fill-opacity="0.9"/>
<circle cx="887.58" cy="99.25" r="4.5" fill="#059669" fill-opacity="0.9"/>
<circle cx="896.06" cy="96.26" r="4.5" fill="#059669" fill-opacity="0.9"/>
<circle cx="904.55" cy="98.95" r="4.5" fill="#059669" fill-opacity="0.9"/>
<circle cx="913.03" cy="96.26" r="4.5" fill="#059669" fill-opacity="0.9"/>
<circle cx="921.52" cy="98.35" r="4.5" fill="#059669" fill-opacity="0.9"/>
<circle cx="930.00" cy="98.35" r="4.5" fill="#059669" fill-opacity="0.9"/>
<rect x="270" y="32" width="18" height="6" fill="#059669"/>
<text x="294" y="38" font-size="13" fill="#333333">test</text>
</svg>