<svg xmlns="http://www.w3.org/2000/svg" width="960" height="540">
<rect width="100%" height="100%" fill="#ffffff"/>
<text x="480.0" y="30" font-size="22" text-anchor="middle" fill="#111111">Sequence Accuracy</text>
<text x="20" y="270.0" font-size="16" transform="rotate(-90 20,270.0)" text-anchor="middle" fill="#333333">Accuracy</text>
<text x="480.0" y="520" font-size="16" text-anchor="middle" fill="#333333">Epoch</text>
<line x1="90" y1="60" x2="90" y2="470" stroke="#333333" stroke-width="2"/>
<line x1="90" y1="470" x2="930" y2="470" stroke="#333333" stroke-width="2"/>
<line x1="90" y1="470.00" x2="930" y2="470.00" stroke="#e5e7eb" stroke-width="1"/>
<text x="80" y="475.00" font-size="12" text-anchor="end" fill="#555555">0.6069</text>
<line x1="90" y1="367.50" x2="930" y2="367.50" stroke="#e5e7eb" stroke-width="1"/>
<text x="80" y="372.50" font-size="12" text-anchor="end" fill="#555555">0.7036</text>
<line x1="90" y1="265.00" x2="930" y2="265.00" stroke="#e5e7eb" stroke-width="1"/>
<text x="80" y="270.00" font-size="12" text-anchor="end" fill="#555555">0.8004</text>
<line x1="90" y1="162.50" x2="930" y2="162.50" stroke="#e5e7eb" stroke-width="1"/>
<text x="80" y="167.50" font-size="12" text-anchor="end" fill="#555555">0.8971</text>
<line x1="90" y1="60.00" x2="930" y2="60.00" stroke="#e5e7eb" stroke-width="1"/>
<text x="80" y="65.00" font-size="12" text-anchor="end" fill="#555555">0.9938</text>
<line x1="90.00" y1="60" x2="90.00" y2="470" stroke="#f3f4f6" stroke-width="1"/>
<text x="90.00" y="492" font-size="12" text-anchor="middle" fill="#555555">1</text>
<line x1="98.48" y1="60" x2="98.48" y2="470" stroke="#f3f4f6" stroke-width="1"/>
<text x="98.48" y="492" font-size="12" text-anchor="middle" fill="#555555">2</text>
<line x1="106.97" y1="60" x2="106.97" y2="470" stroke="#f3f4f6" stroke-width="1"/>
<text x="106.97" y="492" font-size="12" text-anchor="middle" fill="#555555">3</text>
<line x1="115.45" y1="60" x2="115.45" y2="470" stroke="#f3f4f6" stroke-width="1"/>
<text x="115.45" y="492" font-size="12" text-anchor="middle" fill="#555555">4</text>
<line x1="123.94" y1="60" x2="123.94" y2="470" stroke="#f3f4f6" stroke-width="1"/>
<text x="123.94" y="492" font-size="12" text-anchor="middle" fill="#555555">5</text>
<line x1="132.42" y1="60" x2="132.42" y2="470" stroke="#f3f4f6" stroke-width="1"/>
<text x="132.42" y="492" font-size="12" text-anchor="middle" fill="#555555">6</text>
<line x1="140.91" y1="60" x2="140.91" y2="470" stroke="#f3f4f6" stroke-width="1"/>
<text x="140.91" y="492" font-size="12" text-anchor="middle" fill="#555555">7</text>
<line x1="149.39" y1="60" x2="149.39" y2="470" stroke="#f3f4f6" stroke-width="1"/>
<text x="149.39" y="492" font-size="12" text-anchor="middle" fill="#555555">8</text>
<line x1="157.88" y1="60" x2="157.88" y2="470" stroke="#f3f4f6" stroke-width="1"/>
<text x="157.88" y="492" font-size="12" text-anchor="middle" fill="#555555">9</text>
<line x1="166.36" y1="60" x2="166.36" y2="470" stroke="#f3f4f6" stroke-width="1"/>
<text x="166.36" y="492" font-size="12" text-anchor="middle" fill="#555555">10</text>
<line x1="174.85" y1="60" x2="174.85" y2="470" stroke="#f3f4f6" stroke-width="1"/>
<text x="174.85" y="492" font-size="12" text-anchor="middle" fill="#555555">11</text>
<line x1="183.33" y1="60" x2="183.33" y2="470" stroke="#f3f4f6" stroke-width="1"/>
<text x="183.33" y="492" font-size="12" text-anchor="middle" fill="#555555">12</text>
<line x1="191.82" y1="60" x2="191.82" y2="470" stroke="#f3f4f6" stroke-width="1"/>
<text x="191.82" y="492" font-size="12" text-anchor="middle" fill="#555555">13</text>
<line x1="200.30" y1="60" x2="200.30" y2="470" stroke="#f3f4f6" stroke-width="1"/>
<text x="200.30" y="492" font-size="12" text-anchor="middle" fill="#555555">14</text>
<line x1="208.79" y1="60" x2="208.79" y2="470" stroke="#f3f4f6" stroke-width="1"/>
<text x="208.79" y="492" font-size="12" text-anchor="middle" fill="#555555">15</text>
<line x1="217.27" y1="60" x2="217.27" y2="470" stroke="#f3f4f6" stroke-width="1"/>
<text x="217.27" y="492" font-size="12" text-anchor="middle" fill="#555555">16</text>
<line x1="225.76" y1="60" x2="225.76" y2="470" stroke="#f3f4f6" stroke-width="1"/>
<text x="225.76" y="492" font-size="12" text-anchor="middle" fill="#555555">17</text>
<line x1="234.24" y1="60" x2="234.24" y2="470" stroke="#f3f4f6" stroke-width="1"/>
<text x="234.24" y="492" font-size="12" text-anchor="middle" fill="#555555">18</text>
<line x1="242.73" y1="60" x2="242.73" y2="470" stroke="#f3f4f6" stroke-width="1"/>
<text x="242.73" y="492" font-size="12" text-anchor="middle" fill="#555555">19</text>
<line x1="251.21" y1="60" x2="251.21" y2="470" stroke="#f3f4f6" stroke-width="1"/>
<text x="251.21" y="492" font-size="12" text-anchor="middle" fill="#555555">20</text>
<line x1="259.70" y1="60" x2="259.70" y2="470" stroke="#f3f4f6" stroke-width="1"/>
<text x="259.70" y="492" font-size="12" text-anchor="middle" fill="#555555">21</text>
<line x1="268.18" y1="60" x2="268.18" y2="470" stroke="#f3f4f6" stroke-width="1"/>
<text x="268.18" y="492" font-size="12" text-anchor="middle" fill="#555555">22</text>
<line x1="276.67" y1="60" x2="276.67" y2="470" stroke="#f3f4f6" stroke-width="1"/>
<text x="276.67" y="492" font-size="12" text-anchor="middle" fill="#555555">23</text>
<line x1="285.15" y1="60" x2="285.15" y2="470" stroke="#f3f4f6" stroke-width="1"/>
<text x="285.15" y="492" font-size="12" text-anchor="middle" fill="#555555">24</text>
<line x1="293.64" y1="60" x2="293.64" y2="470" stroke="#f3f4f6" stroke-width="1"/>
<text x="293.64" y="492" font-size="12" text-anchor="middle" fill="#555555">25</text>
<line x1="302.12" y1="60" x2="302.12" y2="470" stroke="#f3f4f6" stroke-width="1"/>
<text x="302.12" y="492" font-size="12" text-anchor="middle" fill="#555555">26</text>
<line x1="310.61" y1="60" x2="310.61" y2="470" stroke="#f3f4f6" stroke-width="1"/>
<text x="310.61" y="492" font-size="12" text-anchor="middle" fill="#555555">27</text>
<line x1="319.09" y1="60" x2="319.09" y2="470" stroke="#f3f4f6" stroke-width="1"/>
<text x="319.09" y="492" font-size="12" text-anchor="middle" fill="#555555">28</text>
<line x1="327.58" y1="60" x2="327.58" y2="470" stroke="#f3f4f6" stroke-width="1"/>
<text x="327.58" y="492" font-size="12" text-anchor="middle" fill="#555555">29</text>
<line x1="336.06" y1="60" x2="336.06" y2="470" stroke="#f3f4f6" stroke-width="1"/>
<text x="336.06" y="492" font-size="12" text-anchor="middle" fill="#555555">30</text>
<line x1="344.55" y1="60" x2="344.55" y2="470" stroke="#f3f4f6" stroke-width="1"/>
<text x="344.55" y="492" font-size="12" text-anchor="middle" fill="#555555">31</text>
<line x1="353.03" y1="60" x2="353.03" y2="470" stroke="#f3f4f6" stroke-width="1"/>
<text x="353.03" y="492" font-size="12" text-anchor="middle" fill="#555555">32</text>
<line x1="361.52" y1="60" x2="361.52" y2="470" stroke="#f3f4f6" stroke-width="1"/>
<text x="361.52" y="492" font-size="12" text-anchor="middle" fill="#555555">33</text>
<line x1="370.00" y1="60" x2="370.00" y2="470" stroke="#f3f4f6" stroke-width="1"/>
<text x="370.00" y="492" font-size="12" text-anchor="middle" fill="#555555">34</text>
<line x1="378.48" y1="60" x2="378.48" y2="470" stroke="#f3f4f6" stroke-width="1"/>
<text x="378.48" y="492" font-size="12" text-anchor="middle" fill="#555555">35</text>
<line x1="386.97" y1="60" x2="386.97" y2="470" stroke="#f3f4f6" stroke-width="1"/>
<text x="386.97" y="492" font-size="12" text-anchor="middle" fill="#555555">36</text>
<line x1="395.45" y1="60" x2="395.45" y2="470" stroke="#f3f4f6" stroke-width="1"/>
<text x="395.45" y="492" font-size="12" text-anchor="middle" fill="#555555">37</text>
<line x1="403.94" y1="60" x2="403.94" y2="470" stroke="#f3f4f6" stroke-width="1"/>
<text x="403.94" y="492" font-size="12" text-anchor="middle" fill="#555555">38</text>
<line x1="412.42" y1="60" x2="412.42" y2="470" stroke="#f3f4f6" stroke-width="1"/>
<text x="412.42" y="492" font-size="12" text-anchor="middle" fill="#555555">39</text>
<line x1="420.91" y1="60" x2="420.91" y2="470" stroke="#f3f4f6" stroke-width="1"/>
<text x="420.91" y="492" font-size="12" text-anchor="middle" fill="#555555">40</text>
<line x1="429.39" y1="60" x2="429.39" y2="470" stroke="#f3f4f6" stroke-width="1"/>
<text x="429.39" y="492" font-size="12" text-anchor="middle" fill="#555555">41</text>
<line x1="437.88" y1="60" x2="437.88" y2="470" stroke="#f3f4f6" stroke-width="1"/>
<text x="437.88" y="492" font-size="12" text-anchor="middle" fill="#555555">42</text>
<line x1="446.36" y1="60" x2="446.36" y2="470" stroke="#f3f4f6" stroke-width="1"/>
<text x="446.36" y="492" font-size="12" text-anchor="middle" fill="#555555">43</text>
<line x1="454.85" y1="60" x2="454.85" y2="470" stroke="#f3f4f6" stroke-width="1"/>
<text x="454.85" y="492" font-size="12" text-anchor="middle" fill="#555555">44</text>
<line x1="463.33" y1="60" x2="463.33" y2="470" stroke="#f3f4f6" stroke-width="1"/>
<text x="463.33" y="492" font-size="12" text-anchor="middle" fill="#555555">45</text>
<line x1="471.82" y1="60" x2="471.82" y2="470" stroke="#f3f4f6" stroke-width="1"/>
<text x="471.82" y="492" font-size="12" text-anchor="middle" fill="#555555">46</text>
<line x1="480.30" y1="60" x2="480.30" y2="470" stroke="#f3f4f6" stroke-width="1"/>
<text x="480.30" y="492" font-size="12" text-anchor="middle" fill="#555555">47</text>
<line x1="488.79" y1="60" x2="488.79" y2="470" stroke="#f3f4f6" stroke-width="1"/>
<text x="488.79" y="492" font-size="12" text-anchor="middle" fill="#555555">48</text>
<line x1="497.27" y1="60" x2="497.27" y2="470" stroke="#f3f4f6" stroke-width="1"/>
<text x="497.27" y="492" font-size="12" text-anchor="middle" fill="#555555">49</text>
<line x1="505.76" y1="60" x2="505.76" y2="470" stroke="#f3f4f6" stroke-width="1"/>
<text x="505.76" y="492" font-size="12" text-anchor="middle" fill="#555555">50</text>
<line x1="514.24" y1="60" x2="514.24" y2="470" stroke="#f3f4f6" stroke-width="1"/>
<text x="514.24" y="492" font-size="12" text-anchor="middle" fill="#555555">51</text>
<line x1="522.73" y1="60" x2="522.73" y2="470" stroke="#f3f4f6" stroke-width="1"/>
<text x="522.73" y="492" font-size="12" text-anchor="middle" fill="#555555">52</text>
<line x1="531.21" y1="60" x2="531.21" y2="470" stroke="#f3f4f6" stroke-width="1"/>
<text x="531.21" y="492" font-size="12" text-anchor="middle" fill="#555555">53</text>
<line x1="539.70" y1="60" x2="539.70" y2="470" stroke="#f3f4f6" stroke-width="1"/>
<text x="539.70" y="492" font-size="12" text-anchor="middle" fill="#555555">54</text>
<line x1="548.18" y1="60" x2="548.18" y2="470" stroke="#f3f4f6" stroke-width="1"/>
<text x="548.18" y="492" font-size="12" text-anchor="middle" fill="#555555">55</text>
<line x1="556.67" y1="60" x2="556.67" y2="470" stroke="#f3f4f6" stroke-width="1"/>
<text x="556.67" y="492" font-size="12" text-anchor="middle" fill="#555555">56</text>
<line x1="565.15" y1="60" x2="565.15" y2="470" stroke="#f3f4f6" stroke-width="1"/>
<text x="565.15" y="492" font-size="12" text-anchor="middle" fill="#555555">57</text>
<line x1="573.64" y1="60" x2="573.64" y2="470" stroke="#f3f4f6" stroke-width="1"/>
<text x="573.64" y="492" font-size="12" text-anchor="middle" fill="#555555">58</text>
<line x1="582.12" y1="60" x2="582.12" y2="470" stroke="#f3f4f6" stroke-width="1"/>
<text x="582.12" y="492" font-size="12" text-anchor="middle" fill="#555555">59</text>
<line x1="590.61" y1="60" x2="590.61" y2="470" stroke="#f3f4f6" stroke-width="1"/>
<text x="590.61" y="492" font-size="12" text-anchor="middle" fill="#555555">60</text>
<line x1="599.09" y1="60" x2="599.09" y2="470" stroke="#f3f4f6" stroke-width="1"/>
<text x="599.09" y="492" font-size="12" text-anchor="middle" fill="#555555">61</text>
<line x1="607.58" y1="60" x2="607.58" y2="470" stroke="#f3f4f6" stroke-width="1"/>
<text x="607.58" y="492" font-size="12" text-anchor="middle" fill="#555555">62</text>
<line x1="616.06" y1="60" x2="616.06" y2="470" stroke="#f3f4f6" stroke-width="1"/>
<text x="616.06" y="492" font-size="12" text-anchor="middle" fill="#555555">63</text>
<line x1="624.55" y1="60" x2="624.55" y2="470" stroke="#f3f4f6" stroke-width="1"/>
<text x="624.55" y="492" font-size="12" text-anchor="middle" fill="#555555">64</text>
<line x1="633.03" y1="60" x2="633.03" y2="470" stroke="#f3f4f6" stroke-width="1"/>
<text x="633.03" y="492" font-size="12" text-anchor="middle" fill="#555555">65</text>
<line x1="641.52" y1="60" x2="641.52" y2="470" stroke="#f3f4f6" stroke-width="1"/>
<text x="641.52" y="492" font-size="12" text-anchor="middle" fill="#555555">66</text>
<line x1="650.00" y1="60" x2="650.00" y2="470" stroke="#f3f4f6" stroke-width="1"/>
<text x="650.00" y="492" font-size="12" text-anchor="middle" fill="#555555">67</text>
<line x1="658.48" y1="60" x2="658.48" y2="470" stroke="#f3f4f6" stroke-width="1"/>
<text x="658.48" y="492" font-size="12" text-anchor="middle" fill="#555555">68</text>
<line x1="666.97" y1="60" x2="666.97" y2="470" stroke="#f3f4f6" stroke-width="1"/>
<text x="666.97" y="492" font-size="12" text-anchor="middle" fill="#555555">69</text>
<line x1="675.45" y1="60" x2="675.45" y2="470" stroke="#f3f4f6" stroke-width="1"/>
<text x="675.45" y="492" font-size="12" text-anchor="middle" fill="#555555">70</text>
<line x1="683.94" y1="60" x2="683.94" y2="470" stroke="#f3f4f6" stroke-width="1"/>
<text x="683.94" y="492" font-size="12" text-anchor="middle" fill="#555555">71</text>
<line x1="692.42" y1="60" x2="692.42" y2="470" stroke="#f3f4f6" stroke-width="1"/>
<text x="692.42" y="492" font-size="12" text-anchor="middle" fill="#555555">72</text>
<line x1="700.91" y1="60" x2="700.91" y2="470" stroke="#f3f4f6" stroke-width="1"/>
<text x="700.91" y="492" font-size="12" text-anchor="middle" fill="#555555">73</text>
<line x1="709.39" y1="60" x2="709.39" y2="470" stroke="#f3f4f6" stroke-width="1"/>
<text x="709.39" y="492" font-size="12" text-anchor="middle" fill="#555555">74</text>
<line x1="717.88" y1="60" x2="717.88" y2="470" stroke="#f3f4f6" stroke-width="1"/>
<text x="717.88" y="492" font-size="12" text-anchor="middle" fill="#555555">75</text>
<line x1="726.36" y1="60" x2="726.36" y2="470" stroke="#f3f4f6" stroke-width="1"/>
<text x="726.36" y="492" font-size="12" text-anchor="middle" fill="#555555">76</text>
<line x1="734.85" y1="60" x2="734.85" y2="470" stroke="#f3f4f6" stroke-width="1"/>
<text x="734.85" y="492" font-size="12" text-anchor="middle" fill="#555555">77</text>
<line x1="743.33" y1="60" x2="743.33" y2="470" stroke="#f3f4f6" stroke-width="1"/>
<text x="743.33" y="492" font-size="12" text-anchor="middle" fill="#555555">78</text>
<line x1="751.82" y1="60" x2="751.82" y2="470" stroke="#f3f4f6" stroke-width="1"/>
<text x="751.82" y="492" font-size="12" text-anchor="middle" fill="#555555">79</text>
<line x1="760.30" y1="60" x2="760.30" y2="470" stroke="#f3f4f6" stroke-width="1"/>
<text x="760.30" y="492" font-size="12" text-anchor="middle" fill="#555555">80</text>
<line x1="768.79" y1="60" x2="768.79" y2="470" stroke="#f3f4f6" stroke-width="1"/>
<text x="768.79" y="492" font-size="12" text-anchor="middle" fill="#555555">81</text>
<line x1="777.27" y1="60" x2="777.27" y2="470" stroke="#f3f4f6" stroke-width="1"/>
<text x="777.27" y="492" font-size="12" text-anchor="middle" fill="#555555">82</text>
<line x1="785.76" y1="60" x2="785.76" y2="470" stroke="#f3f4f6" stroke-width="1"/>
<text x="785.76" y="492" font-size="12" text-anchor="middle" fill="#555555">83</text>
<line x1="794.24" y1="60" x2="794.24" y2="470" stroke="#f3f4f6" stroke-width="1"/>
<text x="794.24" y="492" font-size="12" text-anchor="middle" fill="#555555">84</text>
<line x1="802.73" y1="60" x2="802.73" y2="470" stroke="#f3f4f6" stroke-width="1"/>
<text x="802.73" y="492" font-size="12" text-anchor="middle" fill="#555555">85</text>
<line x1="811.21" y1="60" x2="811.21" y2="470" stroke="#f3f4f6" stroke-width="1"/>
<text x="811.21" y="492" font-size="12" text-anchor="middle" fill="#555555">86</text>
<line x1="819.70" y1="60" x2="819.70" y2="470" stroke="#f3f4f6" stroke-width="1"/>
<text x="819.70" y="492" font-size="12" text-anchor="middle" fill="#555555">87</text>
<line x1="828.18" y1="60" x2="828.18" y2="470" stroke="#f3f4f6" stroke-width="1"/>
<text x="828.18" y="492" font-size="12" text-anchor="middle" fill="#555555">88</text>
<line x1="836.67" y1="60" x2="836.67" y2="470" stroke="#f3f4f6" stroke-width="1"/>
<text x="836.67" y="492" font-size="12" text-anchor="middle" fill="#555555">89</text>
<line x1="845.15" y1="60" x2="845.15" y2="470" stroke="#f3f4f6" stroke-width="1"/>
<text x="845.15" y="492" font-size="12" text-anchor="middle" fill="#555555">90</text>
<line x1="853.64" y1="60" x2="853.64" y2="470" stroke="#f3f4f6" stroke-width="1"/>
<text x="853.64" y="492" font-size="12" text-anchor="middle" fill="#555555">91</text>
<line x1="862.12" y1="60" x2="862.12" y2="470" stroke="#f3f4f6" stroke-width="1"/>
<text x="862.12" y="492" font-size="12" text-anchor="middle" fill="#555555">92</text>
<line x1="870.61" y1="60" x2="870.61" y2="470" stroke="#f3f4f6" stroke-width="1"/>
<text x="870.61" y="492" font-size="12" text-anchor="middle" fill="#555555">93</text>
<line x1="879.09" y1="60" x2="879.09" y2="470" stroke="#f3f4f6" stroke-width="1"/>
<text x="879.09" y="492" font-size="12" text-anchor="middle" fill="#555555">94</text>
<line x1="887.58" y1="60" x2="887.58" y2="470" stroke="#f3f4f6" stroke-width="1"/>
<text x="887.58" y="492" font-size="12" text-anchor="middle" fill="#555555">95</text>
<line x1="896.06" y1="60" x2="896.06" y2="470" stroke="#f3f4f6" stroke-width="1"/>
<text x="896.06" y="492" font-size="12" text-anchor="middle" fill="#555555">96</text>
<line x1="904.55" y1="60" x2="904.55" y2="470" stroke="#f3f4f6" stroke-width="1"/>
<text x="904.55" y="492" font-size="12" text-anchor="middle" fill="#555555">97</text>
<line x1="913.03" y1="60" x2="913.03" y2="470" stroke="#f3f4f6" stroke-width="1"/>
<text x="913.03" y="492" font-size="12" text-anchor="middle" fill="#555555">98</text>
<line x1="921.52" y1="60" x2="921.52" y2="470" stroke="#f3f4f6" stroke-width="1"/>
<text x="921.52" y="492" font-size="12" text-anchor="middle" fill="#555555">99</text>
<line x1="930.00" y1="60" x2="930.00" y2="470" stroke="#f3f4f6" stroke-width="1"/>
<text x="930.00" y="492" font-size="12" text-anchor="middle" fill="#555555">100</text>
<polyline fill="none" stroke="#d97706" stroke-width="3" points="90.00,428.77 98.48,236.50 106.97,240.74 115.45,338.28 123.94,204.64 132.42,150.04 140.91,159.86 149.39,138.74 157.88,200.12 166.36,161.48 174.85,136.76 183.33,130.69 191.82,121.22 200.30,144.60 208.79,146.01 217.27,144.60 225.76,120.09 234.24,125.32 242.73,120.30 251.21,117.90 259.70,111.61 268.18,110.27 276.67,112.04 285.15,114.23 293.64,113.59 302.12,116.91 310.61,115.99 319.09,114.37 327.58,123.20 336.06,116.49 344.55,115.15 353.03,121.01 361.52,109.49 370.00,119.60 378.48,114.37 386.97,112.89 395.45,119.10 403.94,109.00 412.42,166.78 420.91,106.25 429.39,112.04 437.88,113.24 446.36,110.84 454.85,105.04 463.33,116.06 471.82,128.85 480.30,108.01 488.79,110.70 497.27,108.93 505.76,121.29 514.24,98.48 522.73,98.55 531.21,96.64 539.70,97.27 548.18,96.57 556.67,96.00 565.15,95.44 573.64,96.71 582.12,95.58 590.61,97.06 599.09,95.72 607.58,96.00 616.06,95.79 624.55,96.50 633.03,97.49 641.52,95.23 650.00,97.06 658.48,96.07 666.97,96.71 675.45,95.93 683.94,97.63 692.42,95.16 700.91,95.16 709.39,97.27 717.88,97.20 726.36,95.44 734.85,96.85 743.33,96.92 751.82,95.44 760.30,97.06 768.79,95.86 777.27,96.14 785.76,95.37 794.24,95.44 802.73,96.29 811.21,94.80 819.70,95.30 828.18,95.51 836.67,95.30 845.15,97.20 853.64,96.64 862.12,95.08 870.61,95.51 879.09,95.01 887.58,95.86 896.06,94.17 904.55,96.29 913.03,94.31 921.52,96.14 930.00,96.99"/>
<circle cx="90.00" cy="428.77" r="4.5" fill="#d97706" fill-opacity="0.9"/>
<circle cx="98.48" cy="236.50" r="4.5" fill="#d97706" fill-opacity="0.9"/>
<circle cx="106.97" cy="240.74" r="4.5" fill="#d97706" fill-opacity="0.9"/>
<circle cx="115.45" cy="338.28" r="4.5" fill="#d97706" fill-opacity="0.9"/>
<circle cx="123.94" cy="204.64" r="4.5" fill="#d97706" fill-opacity="0.9"/>
<circle cx="132.42" cy="150.04" r="4.5" fill="#d97706" fill-opacity="0.9"/>
<circle cx="140.91" cy="159.86" r="4.5" fill="#d97706" fill-opacity="0.9"/>
<circle cx="149.39" cy="138.74" r="4.5" fill="#d97706" fill-opacity="0.9"/>
<circle cx="157.88" cy="200.12" r="4.5" fill="#d97706" fill-opacity="0.9"/>
<circle cx="166.36" cy="161.48" r="4.5" fill="#d97706" fill-opacity="0.9"/>
<circle cx="174.85" cy="136.76" r="4.5" fill="#d97706" fill-opacity="0.9"/>
<circle cx="183.33" cy="130.69" r="4.5" fill="#d97706" fill-opacity="0.9"/>
<circle cx="191.82" cy="121.22" r="4.5" fill="#d97706" fill-opacity="0.9"/>
<circle cx="200.30" cy="144.60" r="4.5" fill="#d97706" fill-opacity="0.9"/>
<circle cx="208.79" cy="146.01" r="4.5" fill="#d97706" fill-opacity="0.9"/>
<circle cx="217.27" cy="144.60" r="4.5" fill="#d97706" fill-opacity="0.9"/>
<circle cx="225.76" cy="120.09" r="4.5" fill="#d97706" fill-opacity="0.9"/>
<circle cx="234.24" cy="125.32" r="4.5" fill="#d97706" fill-opacity="0.9"/>
<circle cx="242.73" cy="120.30" r="4.5" fill="#d97706" fill-opacity="0.9"/>
<circle cx="251.21" cy="117.90" r="4.5" fill="#d97706" fill-opacity="0.9"/>
<circle cx="259.70" cy="111.61" r="4.5" fill="#d97706" fill-opacity="0.9"/>
<circle cx="268.18" cy="110.27" r="4.5" fill="#d97706" fill-opacity="0.9"/>
<circle cx="276.67" cy="112.04" r="4.5" fill="#d97706" fill-opacity="0.9"/>
<circle cx="285.15" cy="114.23" r="4.5" fill="#d97706" fill-opacity="0.9"/>
<circle cx="293.64" cy="113.59" r="4.5" fill="#d97706" fill-opacity="0.9"/>
<circle cx="302.12" cy="116.91" r="4.5" fill="#d97706" fill-opacity="0.9"/>
<circle cx="310.61" cy="115.99" r="4.5" fill="#d97706" fill-opacity="0.9"/>
<circle cx="319.09" cy="114.37" r="4.5" fill="#d97706" fill-opacity="0.9"/>
<circle cx="327.58" cy="123.20" r="4.5" fill="#d97706" fill-opacity="0.9"/>
<circle cx="336.06" cy="116.49" r="4.5" fill="#d97706" fill-opacity="0.9"/>
<circle cx="344.55" cy="115.15" r="4.5" fill="#d97706" fill-opacity="0.9"/>
<circle cx="353.03" cy="121.01" r="4.5" fill="#d97706" fill-opacity="0.9"/>
<circle cx="361.52" cy="109.49" r="4.5" fill="#d97706" fill-opacity="0.9"/>
<circle cx="370.00" cy="119.60" r="4.5" fill="#d97706" fill-opacity="0.9"/>
<circle cx="378.48" cy="114.37" r="4.5" fill="#d97706" fill-opacity="0.9"/>
<circle cx="386.97" cy="112.89" r="4.5" fill="#d97706" fill-opacity="0.9"/>
<circle cx="395.45" cy="119.10" r="4.5" fill="#d97706" fill-opacity="0.9"/>
<circle cx="403.94" cy="109.00" r="4.5" fill="#d97706" fill-opacity="0.9"/>
<circle cx="412.42" cy="166.78" r="4.5" fill="#d97706" fill-opacity="0.9"/>
<circle cx="420.91" cy="106.25" r="4.5" fill="#d97706" fill-opacity="0.9"/>
<circle cx="429.39" cy="112.04" r="4.5" fill="#d97706" fill-opacity="0.9"/>
<circle cx="437.88" cy="113.24" r="4.5" fill="#d97706" fill-opacity="0.9"/>
<circle cx="446.36" cy="110.84" r="4.5" fill="#d97706" fill-opacity="0.9"/>
<circle cx="454.85" cy="105.04" r="4.5" fill="#d97706" fill-opacity="0.9"/>
<circle cx="463.33" cy="116.06" r="4.5" fill="#d97706" fill-opacity="0.9"/>
<circle cx="471.82" cy="128.85" r="4.5" fill="#d97706" fill-opacity="0.9"/>
<circle cx="480.30" cy="108.01" r="4.5" fill="#d97706" fill-opacity="0.9"/>
<circle cx="488.79" cy="110.70" r="4.5" fill="#d97706" fill-opacity="0.9"/>
<circle cx="497.27" cy="108.93" r="4.5" fill="#d97706" fill-opacity="0.9"/>
<circle cx="505.76" cy="121.29" r="4.5" fill="#d97706" fill-opacity="0.9"/>
<circle cx="514.24" cy="98.48" r="4.5" fill="#d97706" fill-opacity="0.9"/>
<circle cx="522.73" cy="98.55" r="4.5" fill="#d97706" fill-opacity="0.9"/>
<circle cx="531.21" cy="96.64" r="4.5" fill="#d97706" fill-opacity="0.9"/>
<circle cx="539.70" cy="97.27" r="4.5" fill="#d97706" fill-opacity="0.9"/>
<circle cx="548.18" cy="96.57" r="4.5" fill="#d97706" fill-opacity="0.9"/>
<circle cx="556.67" cy="96.00" r="4.5" fill="#d97706" fill-opacity="0.9"/>
<circle cx="565.15" cy="95.44" r="4.5" fill="#d97706" fill-opacity="0.9"/>
<circle cx="573.64" cy="96.71" r="4.5" fill="#d97706" fill-opacity="0.9"/>
<circle cx="582.12" cy="95.58" r="4.5" fill="#d97706" fill-opacity="0.9"/>
<circle cx="590.61" cy="97.06" r="4.5" fill="#d97706" fill-opacity="0.9"/>
<circle cx="599.09" cy="95.72" r="4.5" fill="#d97706" fill-opacity="0.9"/>
<circle cx="607.58" cy="96.00" r="4.5" fill="#d97706" fill-opacity="0.9"/>
<circle cx="616.06" cy="95.79" r="4.5" fill="#d97706" fill-opacity="0.9"/>
<circle cx="624.55" cy="96.50" r="4.5" fill="#d97706" fill-opacity="0.9"/>
<circle cx="633.03" cy="97.49" r="4.5" fill="#d97706" fill-opacity="0.9"/>
<circle cx="641.52" cy="95.23" r="4.5" fill="#d97706" fill-opacity="0.9"/>
<circle cx="650.00" cy="97.06" r="4.5" fill="#d97706" fill-opacity="0.9"/>
<circle cx="658.48" cy="96.07" r="4.5" fill="#d97706" fill-opacity="0.9"/>
<circle cx="666.97" cy="96.71" r="4.5" fill="#d97706" fill-opacity="0.9"/>
<circle cx="675.45" cy="95.93" r="4.5" fill="#d97706" fill-opacity="0.9"/>
<circle cx="683.94" cy="97.63" r="4.5" fill="#d97706" fill-opacity="0.9"/>
<circle cx="692.42" cy="95.16" r="4.5" fill="#d97706" fill-opacity="0.9"/>
<circle cx="700.91" cy="95.16" r="4.5" fill="#d97706" fill-opacity="0.9"/>
<circle cx="709.39" cy="97.27" r="4.5" fill="#d97706" fill-opacity="0.9"/>
<circle cx="717.88" cy="97.20" r="4.5" fill="#d97706" fill-opacity="0.9"/>
<circle cx="726.36" cy="95.44" r="4.5" fill="#d97706" fill-opacity="0.9"/>
<circle cx="734.85" cy="96.85" r="4.5" fill="#d97706" fill-opacity="0.9"/>
<circle cx="743.33" cy="96.92" r="4.5" fill="#d97706" fill-opacity="0.9"/>
<circle cx="751.82" cy="95.44" r="4.5" fill="#d97706" fill-opacity="0.9"/>
<circle cx="760.30" cy="97.06" r="4.5" fill="#d97706" fill-opacity="0.9"/>
<circle cx="768.79" cy="95.86" r="4.5" fill="#d97706" fill-opacity="0.9"/>
<circle cx="777.27" cy="96.14" r="4.5" fill="#d97706" fill-opacity="0.9"/>
<circle cx="785.76" cy="95.37" r="4.5" fill="#d97706" fill-opacity="0.9"/>
<circle cx="794.24" cy="95.44" r="4.5" fill="#d97706" fill-opacity="0.9"/>
<circle cx="802.73" cy="96.29" r="4.5" fill="#d97706" fill-opacity="0.9"/>
<circle cx="811.21" cy="94.80" r="4.5" fill="#d97706" fill-opacity="0.9"/>
<circle cx="819.70" cy="95.30" r="4.5" fill="#d97706" fill-opacity="0.9"/>
<circle cx="828.18" cy="95.51" r="4.5" fill="#d97706" fill-opacity="0.9"/>
<circle cx="836.67" cy="95.30" r="4.5" fill="#d97706" fill-opacity="0.9"/>
<circle cx="845.15" cy="97.20" r="4.5" fill="#d97706" fill-opacity="0.9"/>
<circle cx="853.64" cy="96.64" r="4.5" fill="#d97706" fill-opacity="0.9"/>
<circle cx="862.12" cy="95.08" r="4.5" fill="#d97706" fill-opacity="0.9"/>
<circle cx="870.61" cy="95.51" r="4.5" fill="#d97706" fill-opacity="0.9"/>
<circle cx="879.09" cy="95.01" r="4.5" fill="#d97706" fill-opacity="0.9"/>
<circle cx="887.58" cy="95.86" r="4.5" fill="#d97706" fill-opacity="0.9"/>
<circle cx="896.06" cy="94.17" r="4.5" fill="#d97706" fill-opacity="0.9"/>
<circle cx="904.55" cy="96.29" r="4.5" fill="#d97706" fill-opacity="0.9"/>
<circle cx="913.03" cy="94.31" r="4.5" fill="#d97706" fill-opacity="0.9"/>
<circle cx="921.52" cy="96.14" r="4.5" fill="#d97706" fill-opacity="0.9"/>
<circle cx="930.00" cy="96.99" r="4.5" fill="#d97706" fill-opacity="0.9"/>
<rect x="90" y="32" width="18" height="6" fill="#d97706"/>
<text x="114" y="38" font-size="13" fill="#333333">val</text>
<polyline fill="none" stroke="#059669" stroke-width="3" points="90.00,435.83 98.48,236.92 106.97,235.51 115.45,337.51 123.94,204.29 132.42,150.11 140.91,158.37 149.39,142.13 157.88,198.64 166.36,158.30 174.85,139.73 183.33,129.13 191.82,123.27 200.30,146.44 208.79,142.76 217.27,146.65 225.76,120.51 234.24,125.03 242.73,120.09 251.21,119.03 259.70,113.45 268.18,108.65 276.67,106.67 285.15,114.16 293.64,114.51 302.12,119.74 310.61,111.47 319.09,110.06 327.58,121.71 336.06,117.05 344.55,113.94 353.03,122.35 361.52,111.54 370.00,121.01 378.48,116.21 386.97,111.26 395.45,120.37 403.94,110.34 412.42,167.84 420.91,109.99 429.39,112.25 437.88,114.65 446.36,113.31 454.85,106.74 463.33,115.85 471.82,127.93 480.30,109.64 488.79,112.11 497.27,110.13 505.76,124.19 514.24,99.68 522.73,99.46 531.21,96.71 539.70,96.78 548.18,97.27 556.67,98.40 565.15,96.14 573.64,96.64 582.12,96.07 590.61,97.42 599.09,96.99 607.58,96.22 616.06,96.29 624.55,96.57 633.03,97.70 641.52,95.44 650.00,96.71 658.48,98.55 666.97,98.90 675.45,96.07 683.94,97.13 692.42,95.44 700.91,94.94 709.39,98.33 717.88,98.97 726.36,97.13 734.85,97.13 743.33,96.99 751.82,94.94 760.30,96.22 768.79,96.14 777.27,95.93 785.76,96.14 794.24,95.44 802.73,97.13 811.21,95.44 819.70,94.38 828.18,96.99 836.67,95.79 845.15,98.40 853.64,97.42 862.12,96.07 870.61,96.29 879.09,96.78 887.58,97.63 896.06,96.14 904.55,96.36 913.03,95.37 921.52,97.49 930.00,97.35"/>
<circle cx="90.00" cy="435.83" r="4.5" fill="#059669" fill-opacity="0.9"/>
<circle cx="98.48" cy="236.92" r="4.5" fill="#059669" fill-opacity="0.9"/>
<circle cx="106.97" cy="235.51" r="4.5" fill="#059669" fill-opacity="0.9"/>
<circle cx="115.45" cy="337.51" r="4.5" fill="#059669" fill-opacity="0.9"/>
<circle cx="123.94" cy="204.29" r="4.5" fill="#059669" fill-opacity="0.9"/>
<circle cx="132.42" cy="150.11" r="4.5" fill="#059669" fill-opacity="0.9"/>
<circle cx="140.91" cy="158.37" r="4.5" fill="#059669" fill-opacity="0.9"/>
<circle cx="149.39" cy="142.13" r="4.5" fill="#059669" fill-opacity="0.9"/>
<circle cx="157.88" cy="198.64" r="4.5" fill="#059669" fill-opacity="0.9"/>
<circle cx="166.36" cy="158.30" r="4.5" fill="#059669" fill-opacity="0.9"/>
<circle cx="174.85" cy="139.73" r="4.5" fill="#059669" fill-opacity="0.9"/>
<circle cx="183.33" cy="129.13" r="4.5" fill="#059669" fill-opacity="0.9"/>
<circle cx="191.82" cy="123.27" r="4.5" fill="#059669" fill-opacity="0.9"/>
<circle cx="200.30" cy="146.44" r="4.5" fill="#059669" fill-opacity="0.9"/>
<circle cx="208.79" cy="142.76" r="4.5" fill="#059669" fill-opacity="0.9"/>
<circle cx="217.27" cy="146.65" r="4.5" fill="#059669" fill-opacity="0.9"/>
<circle cx="225.76" cy="120.51" r="4.5" fill="#059669" fill-opacity="0.9"/>
<circle cx="234.24" cy="125.03" r="4.5" fill="#059669" fill-opacity="0.9"/>
<circle cx="242.73" cy="120.09" r="4.5" fill="#059669" fill-opacity="0.9"/>
<circle cx="251.21" cy="119.03" r="4.5" fill="#059669" fill-opacity="0.9"/>
<circle cx="259.70" cy="113.45" r="4.5" fill="#059669" fill-opacity="0.9"/>
<circle cx="268.18" cy="108.65" r="4.5" fill="#059669" fill-opacity="0.9"/>
<circle cx="276.67" cy="106.67" r="4.5" fill="#059669" fill-opacity="0.9"/>
<circle cx="285.15" cy="114.16" r="4.5" fill="#059669" fill-opacity="0.9"/>
<circle cx="293.64" cy="114.51" r="4.5" fill="#059669" fill-opacity="0.9"/>
<circle cx="302.12" cy="119.74" r="4.5" fill="#059669" fill-opacity="0.9"/>
<circle cx="310.61" cy="111.47" r="4.5" fill="#059669" fill-opacity="0.9"/>
<circle cx="319.09" cy="110.06" r="4.5" fill="#059669" fill-opacity="0.9"/>
<circle cx="327.58" cy="121.71" r="4.5" fill="#059669" fill-opacity="0.9"/>
<circle cx="336.06" cy="117.05" r="4.5" fill="#059669" fill-opacity="0.9"/>
<circle cx="344.55" cy="113.94" r="4.5" fill="#059669" fill-opacity="0.9"/>
<circle cx="353.03" cy="122.35" r="4.5" fill="#059669" fill-opacity="0.9"/>
<circle cx="361.52" cy="111.54" r="4.5" fill="#059669" fill-opacity="0.9"/>
<circle cx="370.00" cy="121.01" r="4.5" fill="#059669" fill-opacity="0.9"/>
<circle cx="378.48" cy="116.21" r="4.5" fill="#059669" fill-opacity="0.9"/>
<circle cx="386.97" cy="111.26" r="4.5" fill="#059669" fill-opacity="0.9"/>
<circle cx="395.45" cy="120.37" r="4.5" fill="#059669" fill-opacity="0.9"/>
<circle cx="403.94" cy="110.34" r="4.5" fill="#059669" fill-opacity="0.9"/>
<circle cx="412.42" cy="167.84" r="4.5" fill="#059669" fill-opacity="0.9"/>
<circle cx="420.91" cy="109.99" r="4.5" fill="#059669" fill-opacity="0.9"/>
<circle cx="429.39" cy="112.25" r="4.5" fill="#059669" fill-opacity="0.9"/>
<circle cx="437.88" cy="114.65" r="4.5" fill="#059669" fill-opacity="0.9"/>
<circle cx="446.36" cy="113.31" r="4.5" fill="#059669" fill-opacity="0.9"/>
<circle cx="454.85" cy="106.74" r="4.5" fill="#059669" fill-opacity="0.9"/>
<circle cx="463.33" cy="115.85" r="4.5" fill="#059669" fill-opacity="0.9"/>
<circle cx="471.82" cy="127.93" r="4.5" fill="#059669" fill-opacity="0.9"/>
<circle cx="480.30" cy="109.64" r="4.5" fill="#059669" fill-opacity="0.9"/>
<circle cx="488.79" cy="112.11" r="4.5" fill="#059669" fill-opacity="0.9"/>
<circle cx="497.27" cy="110.13" r="4.5" fill="#059669" fill-opacity="0.9"/>
<circle cx="505.76" cy="124.19" r="4.5" fill="#059669" fill-opacity="0.9"/>
<circle cx="514.24" cy="99.68" r="4.5" fill="#059669" fill-opacity="0.9"/>
<circle cx="522.73" cy="99.46" r="4.5" fill="#059669" fill-opacity="0.9"/>
<circle cx="531.21" cy="96.71" r="4.5" fill="#059669" fill-opacity="0.9"/>
<circle cx="539.70" cy="96.78" r="4.5" fill="#059669" fill-opacity="0.9"/>
<circle cx="548.18" cy="97.27" r="4.5" fill="#059669" fill-opacity="0.9"/>
<circle cx="556.67" cy="98.40" r="4.5" fill="#059669" fill-opacity="0.9"/>
<circle cx="565.15" cy="96.14" r="4.5" fill="#059669" fill-opacity="0.9"/>
<circle cx="573.64" cy="96.64" r="4.5" fill="#059669" fill-opacity="0.9"/>
<circle cx="582.12" cy="96.07" r="4.5" fill="#059669" fill-opacity="0.9"/>
<circle cx="590.61" cy="97.42" r="4.5" fill="#059669" fill-opacity="0.9"/>
<circle cx="599.09" cy="96.99" r="4.5" fill="#059669" fill-opacity="0.9"/>
<circle cx="607.58" cy="96.22" r="4.5" fill="#059669" fill-opacity="0.9"/>
<circle cx="616.06" cy="96.29" r="4.5" fill="#059669" fill-opacity="0.9"/>
<circle cx="624.55" cy="96.57" r="4.5" fill="#059669" fill-opacity="0.9"/>
<circle cx="633.03" cy="97.70" r="4.5" fill="#059669" fill-opacity="0.9"/>
<circle cx="641.52" cy="95.44" r="4.5" fill="#059669" fill-opacity="0.9"/>
<circle cx="650.00" cy="96.71" r="4.5" fill="#059669" fill-opacity="0.9"/>
<circle cx="658.48" cy="98.55" r="4.5" fill="#059669" fill-opacity="0.9"/>
<circle cx="666.97" cy="98.90" r="4.5" fill="#059669" fill-opacity="0.9"/>
<circle cx="675.45" cy="96.07" r="4.5" fill="#059669" fill-opacity="0.9"/>
<circle cx="683.94" cy="97.13" r="4.5" fill="#059669" fill-opacity="0.9"/>
<circle cx="692.42" cy="95.44" r="4.5" fill="#059669" fill-opacity="0.9"/>
<circle cx="700.91" cy="94.94" r="4.5" fill="#059669" fill-opacity="0.9"/>
<circle cx="709.39" cy="98.33" r="4.5" fill="#059669" fill-opacity="0.9"/>
<circle cx="717.88" cy="98.97" r="4.5" fill="#059669" fill-opacity="0.9"/>
<circle cx="726.36" cy="97.13" r="4.5" fill="#059669" fill-opacity="0.9"/>
<circle cx="734.85" cy="97.13" r="4.5" fill="#059669" fill-opacity="0.9"/>
<circle cx="743.33" cy="96.99" r="4.5" fill="#059669" fill-opacity="0.9"/>
<circle cx="751.82" cy="94.94" r="4.5" fill="#059669" fill-opacity="0.9"/>
<circle cx="760.30" cy="96.22" r="4.5" fill="#059669" fill-opacity="0.9"/>
<circle cx="768.79" cy="96.14" r="4.5" fill="#059669" fill-opacity="0.9"/>
<circle cx="777.27" cy="95.93" r="4.5" fill="#059669" fill-opacity="0.9"/>
<circle cx="785.76" cy="96.14" r="4.5" fill="#059669" fill-opacity="0.9"/>
<circle cx="794.24" cy="95.44" r="4.5" fill="#059669" fill-opacity="0.9"/>
<circle cx="802.73" cy="97.13" r="4.5" fill="#059669" fill-opacity="0.9"/>
<circle cx="811.21" cy="95.44" r="4.5" fill="#059669" fill-opacity="0.9"/>
<circle cx="819.70" cy="94.38" r="4.5" fill="#059669" fill-opacity="0.9"/>
<circle cx="828.18" cy="96.99" r="4.5" fill="#059669" fill-opacity="0.9"/>
<circle cx="836.67" cy="95.79" r="4.5" fill="#059669" fill-opacity="0.9"/>
<circle cx="845.15" cy="98.40" r="4.5" fill="#059669" fill-opacity="0.9"/>
<circle cx="853.64" cy="97.42" r="4.5" fill="#059669" fill-opacity="0.9"/>
<circle cx="862.12" cy="96.07" r="4.5" fill="#059669" fill-opacity="0.9"/>
<circle cx="870.61" cy="96.29" r="4.5" fill="#059669" fill-opacity="0.9"/>
<circle cx="879.09" cy="96.78" r="4.5" fill="#059669" fill-opacity="0.9"/>
<circle cx="887.58" cy="97.63" r="4.5" fill="#059669" fill-opacity="0.9"/>
<circle cx="896.06" cy="96.14" r="4.5" fill="#059669" fill-opacity="0.9"/>
<circle cx="904.55" cy="96.36" r="4.5" fill="#059669" fill-opacity="0.9"/>
<circle cx="913.03" cy="95.37" r="4.5" fill="#059669" fill-opacity="0.9"/>
<circle cx="921.52" cy="97.49" r="4.5" fill="#059669" fill-opacity="0.9"/>
<circle cx="930.00" cy="97.35" r="4.5" fill="#059669" fill-opacity="0.9"/>
<rect x="270" y="32" width="18" height="6" fill="#059669"/>
<text x="294" y="38" font-size="13" fill="#333333">test</text>
</svg>