<svg xmlns="http://www.w3.org/2000/svg" width="960" height="540">
<rect width="100%" height="100%" fill="#ffffff"/>
<text x="480.0" y="30" font-size="22" text-anchor="middle" fill="#111111">Character Accuracy</text>
<text x="20" y="270.0" font-size="16" transform="rotate(-90 20,270.0)" text-anchor="middle" fill="#333333">Accuracy</text>
<text x="480.0" y="520" font-size="16" text-anchor="middle" fill="#333333">Epoch</text>
<line x1="90" y1="60" x2="90" y2="470" stroke="#333333" stroke-width="2"/>
<line x1="90" y1="470" x2="930" y2="470" stroke="#333333" stroke-width="2"/>
<line x1="90" y1="470.00" x2="930" y2="470.00" stroke="#e5e7eb" stroke-width="1"/>
<text x="80" y="475.00" font-size="12" text-anchor="end" fill="#555555">0.9008</text>
<line x1="90" y1="367.50" x2="930" y2="367.50" stroke="#e5e7eb" stroke-width="1"/>
<text x="80" y="372.50" font-size="12" text-anchor="end" fill="#555555">0.9251</text>
<line x1="90" y1="265.00" x2="930" y2="265.00" stroke="#e5e7eb" stroke-width="1"/>
<text x="80" y="270.00" font-size="12" text-anchor="end" fill="#555555">0.9494</text>
<line x1="90" y1="162.50" x2="930" y2="162.50" stroke="#e5e7eb" stroke-width="1"/>
<text x="80" y="167.50" font-size="12" text-anchor="end" fill="#555555">0.9737</text>
<line x1="90" y1="60.00" x2="930" y2="60.00" stroke="#e5e7eb" stroke-width="1"/>
<text x="80" y="65.00" font-size="12" text-anchor="end" fill="#555555">0.9981</text>
<line x1="90.00" y1="60" x2="90.00" y2="470" stroke="#f3f4f6" stroke-width="1"/>
<text x="90.00" y="492" font-size="12" text-anchor="middle" fill="#555555">1</text>
<line x1="107.14" y1="60" x2="107.14" y2="470" stroke="#f3f4f6" stroke-width="1"/>
<text x="107.14" y="492" font-size="12" text-anchor="middle" fill="#555555">2</text>
<line x1="124.29" y1="60" x2="124.29" y2="470" stroke="#f3f4f6" stroke-width="1"/>
<text x="124.29" y="492" font-size="12" text-anchor="middle" fill="#555555">3</text>
<line x1="141.43" y1="60" x2="141.43" y2="470" stroke="#f3f4f6" stroke-width="1"/>
<text x="141.43" y="492" font-size="12" text-anchor="middle" fill="#555555">4</text>
<line x1="158.57" y1="60" x2="158.57" y2="470" stroke="#f3f4f6" stroke-width="1"/>
<text x="158.57" y="492" font-size="12" text-anchor="middle" fill="#555555">5</text>
<line x1="175.71" y1="60" x2="175.71" y2="470" stroke="#f3f4f6" stroke-width="1"/>
<text x="175.71" y="492" font-size="12" text-anchor="middle" fill="#555555">6</text>
<line x1="192.86" y1="60" x2="192.86" y2="470" stroke="#f3f4f6" stroke-width="1"/>
<text x="192.86" y="492" font-size="12" text-anchor="middle" fill="#555555">7</text>
<line x1="210.00" y1="60" x2="210.00" y2="470" stroke="#f3f4f6" stroke-width="1"/>
<text x="210.00" y="492" font-size="12" text-anchor="middle" fill="#555555">8</text>
<line x1="227.14" y1="60" x2="227.14" y2="470" stroke="#f3f4f6" stroke-width="1"/>
<text x="227.14" y="492" font-size="12" text-anchor="middle" fill="#555555">9</text>
<line x1="244.29" y1="60" x2="244.29" y2="470" stroke="#f3f4f6" stroke-width="1"/>
<text x="244.29" y="492" font-size="12" text-anchor="middle" fill="#555555">10</text>
<line x1="261.43" y1="60" x2="261.43" y2="470" stroke="#f3f4f6" stroke-width="1"/>
<text x="261.43" y="492" font-size="12" text-anchor="middle" fill="#555555">11</text>
<line x1="278.57" y1="60" x2="278.57" y2="470" stroke="#f3f4f6" stroke-width="1"/>
<text x="278.57" y="492" font-size="12" text-anchor="middle" fill="#555555">12</text>
<line x1="295.71" y1="60" x2="295.71" y2="470" stroke="#f3f4f6" stroke-width="1"/>
<text x="295.71" y="492" font-size="12" text-anchor="middle" fill="#555555">13</text>
<line x1="312.86" y1="60" x2="312.86" y2="470" stroke="#f3f4f6" stroke-width="1"/>
<text x="312.86" y="492" font-size="12" text-anchor="middle" fill="#555555">14</text>
<line x1="330.00" y1="60" x2="330.00" y2="470" stroke="#f3f4f6" stroke-width="1"/>
<text x="330.00" y="492" font-size="12" text-anchor="middle" fill="#555555">15</text>
<line x1="347.14" y1="60" x2="347.14" y2="470" stroke="#f3f4f6" stroke-width="1"/>
<text x="347.14" y="492" font-size="12" text-anchor="middle" fill="#555555">16</text>
<line x1="364.29" y1="60" x2="364.29" y2="470" stroke="#f3f4f6" stroke-width="1"/>
<text x="364.29" y="492" font-size="12" text-anchor="middle" fill="#555555">17</text>
<line x1="381.43" y1="60" x2="381.43" y2="470" stroke="#f3f4f6" stroke-width="1"/>
<text x="381.43" y="492" font-size="12" text-anchor="middle" fill="#555555">18</text>
<line x1="398.57" y1="60" x2="398.57" y2="470" stroke="#f3f4f6" stroke-width="1"/>
<text x="398.57" y="492" font-size="12" text-anchor="middle" fill="#555555">19</text>
<line x1="415.71" y1="60" x2="415.71" y2="470" stroke="#f3f4f6" stroke-width="1"/>
<text x="415.71" y="492" font-size="12" text-anchor="middle" fill="#555555">20</text>
<line x1="432.86" y1="60" x2="432.86" y2="470" stroke="#f3f4f6" stroke-width="1"/>
<text x="432.86" y="492" font-size="12" text-anchor="middle" fill="#555555">21</text>
<line x1="450.00" y1="60" x2="450.00" y2="470" stroke="#f3f4f6" stroke-width="1"/>
<text x="450.00" y="492" font-size="12" text-anchor="middle" fill="#555555">22</text>
<line x1="467.14" y1="60" x2="467.14" y2="470" stroke="#f3f4f6" stroke-width="1"/>
<text x="467.14" y="492" font-size="12" text-anchor="middle" fill="#555555">23</text>
<line x1="484.29" y1="60" x2="484.29" y2="470" stroke="#f3f4f6" stroke-width="1"/>
<text x="484.29" y="492" font-size="12" text-anchor="middle" fill="#555555">24</text>
<line x1="501.43" y1="60" x2="501.43" y2="470" stroke="#f3f4f6" stroke-width="1"/>
<text x="501.43" y="492" font-size="12" text-anchor="middle" fill="#555555">25</text>
<line x1="518.57" y1="60" x2="518.57" y2="470" stroke="#f3f4f6" stroke-width="1"/>
<text x="518.57" y="492" font-size="12" text-anchor="middle" fill="#555555">26</text>
<line x1="535.71" y1="60" x2="535.71" y2="470" stroke="#f3f4f6" stroke-width="1"/>
<text x="535.71" y="492" font-size="12" text-anchor="middle" fill="#555555">27</text>
<line x1="552.86" y1="60" x2="552.86" y2="470" stroke="#f3f4f6" stroke-width="1"/>
<text x="552.86" y="492" font-size="12" text-anchor="middle" fill="#555555">28</text>
<line x1="570.00" y1="60" x2="570.00" y2="470" stroke="#f3f4f6" stroke-width="1"/>
<text x="570.00" y="492" font-size="12" text-anchor="middle" fill="#555555">29</text>
<line x1="587.14" y1="60" x2="587.14" y2="470" stroke="#f3f4f6" stroke-width="1"/>
<text x="587.14" y="492" font-size="12" text-anchor="middle" fill="#555555">30</text>
<line x1="604.29" y1="60" x2="604.29" y2="470" stroke="#f3f4f6" stroke-width="1"/>
<text x="604.29" y="492" font-size="12" text-anchor="middle" fill="#555555">31</text>
<line x1="621.43" y1="60" x2="621.43" y2="470" stroke="#f3f4f6" stroke-width="1"/>
<text x="621.43" y="492" font-size="12" text-anchor="middle" fill="#555555">32</text>
<line x1="638.57" y1="60" x2="638.57" y2="470" stroke="#f3f4f6" stroke-width="1"/>
<text x="638.57" y="492" font-size="12" text-anchor="middle" fill="#555555">33</text>
<line x1="655.71" y1="60" x2="655.71" y2="470" stroke="#f3f4f6" stroke-width="1"/>
<text x="655.71" y="492" font-size="12" text-anchor="middle" fill="#555555">34</text>
<line x1="672.86" y1="60" x2="672.86" y2="470" stroke="#f3f4f6" stroke-width="1"/>
<text x="672.86" y="492" font-size="12" text-anchor="middle" fill="#555555">35</text>
<line x1="690.00" y1="60" x2="690.00" y2="470" stroke="#f3f4f6" stroke-width="1"/>
<text x="690.00" y="492" font-size="12" text-anchor="middle" fill="#555555">36</text>
<line x1="707.14" y1="60" x2="707.14" y2="470" stroke="#f3f4f6" stroke-width="1"/>
<text x="707.14" y="492" font-size="12" text-anchor="middle" fill="#555555">37</text>
<line x1="724.29" y1="60" x2="724.29" y2="470" stroke="#f3f4f6" stroke-width="1"/>
<text x="724.29" y="492" font-size="12" text-anchor="middle" fill="#555555">38</text>
<line x1="741.43" y1="60" x2="741.43" y2="470" stroke="#f3f4f6" stroke-width="1"/>
<text x="741.43" y="492" font-size="12" text-anchor="middle" fill="#555555">39</text>
<line x1="758.57" y1="60" x2="758.57" y2="470" stroke="#f3f4f6" stroke-width="1"/>
<text x="758.57" y="492" font-size="12" text-anchor="middle" fill="#555555">40</text>
<line x1="775.71" y1="60" x2="775.71" y2="470" stroke="#f3f4f6" stroke-width="1"/>
<text x="775.71" y="492" font-size="12" text-anchor="middle" fill="#555555">41</text>
<line x1="792.86" y1="60" x2="792.86" y2="470" stroke="#f3f4f6" stroke-width="1"/>
<text x="792.86" y="492" font-size="12" text-anchor="middle" fill="#555555">42</text>
<line x1="810.00" y1="60" x2="810.00" y2="470" stroke="#f3f4f6" stroke-width="1"/>
<text x="810.00" y="492" font-size="12" text-anchor="middle" fill="#555555">43</text>
<line x1="827.14" y1="60" x2="827.14" y2="470" stroke="#f3f4f6" stroke-width="1"/>
<text x="827.14" y="492" font-size="12" text-anchor="middle" fill="#555555">44</text>
<line x1="844.29" y1="60" x2="844.29" y2="470" stroke="#f3f4f6" stroke-width="1"/>
<text x="844.29" y="492" font-size="12" text-anchor="middle" fill="#555555">45</text>
<line x1="861.43" y1="60" x2="861.43" y2="470" stroke="#f3f4f6" stroke-width="1"/>
<text x="861.43" y="492" font-size="12" text-anchor="middle" fill="#555555">46</text>
<line x1="878.57" y1="60" x2="878.57" y2="470" stroke="#f3f4f6" stroke-width="1"/>
<text x="878.57" y="492" font-size="12" text-anchor="middle" fill="#555555">47</text>
<line x1="895.71" y1="60" x2="895.71" y2="470" stroke="#f3f4f6" stroke-width="1"/>
<text x="895.71" y="492" font-size="12" text-anchor="middle" fill="#555555">48</text>
<line x1="912.86" y1="60" x2="912.86" y2="470" stroke="#f3f4f6" stroke-width="1"/>
<text x="912.86" y="492" font-size="12" text-anchor="middle" fill="#555555">49</text>
<line x1="930.00" y1="60" x2="930.00" y2="470" stroke="#f3f4f6" stroke-width="1"/>
<text x="930.00" y="492" font-size="12" text-anchor="middle" fill="#555555">50</text>
<polyline fill="none" stroke="#d97706" stroke-width="3" points="90.00,427.52 107.14,215.38 124.29,224.09 141.43,371.21 158.57,185.48 175.71,135.36 192.86,144.57 210.00,123.50 227.14,189.92 244.29,143.39 261.43,124.74 278.57,116.25 295.71,107.54 312.86,129.18 330.00,130.24 347.14,130.30 364.29,107.60 381.43,112.77 398.57,107.88 415.71,107.04 432.86,100.07 450.00,98.55 467.14,100.24 484.29,102.76 501.43,101.53 518.57,105.69 535.71,103.61 552.86,101.70 570.00,109.11 587.14,104.51 604.29,102.88 621.43,108.44 638.57,97.48 655.71,107.82 672.86,101.70 690.00,100.46 707.14,105.97 724.29,97.71 741.43,167.28 758.57,94.95 775.71,99.90 792.86,100.97 810.00,99.28 827.14,94.17 844.29,102.88 861.43,114.51 878.57,96.53 895.71,98.77 912.86,97.88 930.00,107.37"/>
<circle cx="90.00" cy="427.52" r="4.5" fill="#d97706" fill-opacity="0.9"/>
<circle cx="107.14" cy="215.38" r="4.5" fill="#d97706" fill-opacity="0.9"/>
<circle cx="124.29" cy="224.09" r="4.5" fill="#d97706" fill-opacity="0.9"/>
<circle cx="141.43" cy="371.21" r="4.5" fill="#d97706" fill-opacity="0.9"/>
<circle cx="158.57" cy="185.48" r="4.5" fill="#d97706" fill-opacity="0.9"/>
<circle cx="175.71" cy="135.36" r="4.5" fill="#d97706" fill-opacity="0.9"/>
<circle cx="192.86" cy="144.57" r="4.5" fill="#d97706" fill-opacity="0.9"/>
<circle cx="210.00" cy="123.50" r="4.5" fill="#d97706" fill-opacity="0.9"/>
<circle cx="227.14" cy="189.92" r="4.5" fill="#d97706" fill-opacity="0.9"/>
<circle cx="244.29" cy="143.39" r="4.5" fill="#d97706" fill-opacity="0.9"/>
<circle cx="261.43" cy="124.74" r="4.5" fill="#d97706" fill-opacity="0.9"/>
<circle cx="278.57" cy="116.25" r="4.5" fill="#d97706" fill-opacity="0.9"/>
<circle cx="295.71" cy="107.54" r="4.5" fill="#d97706" fill-opacity="0.9"/>
<circle cx="312.86" cy="129.18" r="4.5" fill="#d97706" fill-opacity="0.9"/>
<circle cx="330.00" cy="130.24" r="4.5" fill="#d97706" fill-opacity="0.9"/>
<circle cx="347.14" cy="130.30" r="4.5" fill="#d97706" fill-opacity="0.9"/>
<circle cx="364.29" cy="107.60" r="4.5" fill="#d97706" fill-opacity="0.9"/>
<circle cx="381.43" cy="112.77" r="4.5" fill="#d97706" fill-opacity="0.9"/>
<circle cx="398.57" cy="107.88" r="4.5" fill="#d97706" fill-opacity="0.9"/>
<circle cx="415.71" cy="107.04" r="4.5" fill="#d97706" fill-opacity="0.9"/>
<circle cx="432.86" cy="100.07" r="4.5" fill="#d97706" fill-opacity="0.9"/>
<circle cx="450.00" cy="98.55" r="4.5" fill="#d97706" fill-opacity="0.9"/>
<circle cx="467.14" cy="100.24" r="4.5" fill="#d97706" fill-opacity="0.9"/>
<circle cx="484.29" cy="102.76" r="4.5" fill="#d97706" fill-opacity="0.9"/>
<circle cx="501.43" cy="101.53" r="4.5" fill="#d97706" fill-opacity="0.9"/>
<circle cx="518.57" cy="105.69" r="4.5" fill="#d97706" fill-opacity="0.9"/>
<circle cx="535.71" cy="103.61" r="4.5" fill="#d97706" fill-opacity="0.9"/>
<circle cx="552.86" cy="101.70" r="4.5" fill="#d97706" fill-opacity="0.9"/>
<circle cx="570.00" cy="109.11" r="4.5" fill="#d97706" fill-opacity="0.9"/>
<circle cx="587.14" cy="104.51" r="4.5" fill="#d97706" fill-opacity="0.9"/>
<circle cx="604.29" cy="102.88" r="4.5" fill="#d97706" fill-opacity="0.9"/>
<circle cx="621.43" cy="108.44" r="4.5" fill="#d97706" fill-opacity="0.9"/>
<circle cx="638.57" cy="97.48" r="4.5" fill="#d97706" fill-opacity="0.9"/>
<circle cx="655.71" cy="107.82" r="4.5" fill="#d97706" fill-opacity="0.9"/>
<circle cx="672.86" cy="101.70" r="4.5" fill="#d97706" fill-opacity="0.9"/>
<circle cx="690.00" cy="100.46" r="4.5" fill="#d97706" fill-opacity="0.9"/>
<circle cx="707.14" cy="105.97" r="4.5" fill="#d97706" fill-opacity="0.9"/>
<circle cx="724.29" cy="97.71" r="4.5" fill="#d97706" fill-opacity="0.9"/>
<circle cx="741.43" cy="167.28" r="4.5" fill="#d97706" fill-opacity="0.9"/>
<circle cx="758.57" cy="94.95" r="4.5" fill="#d97706" fill-opacity="0.9"/>
<circle cx="775.71" cy="99.90" r="4.5" fill="#d97706" fill-opacity="0.9"/>
<circle cx="792.86" cy="100.97" r="4.5" fill="#d97706" fill-opacity="0.9"/>
<circle cx="810.00" cy="99.28" r="4.5" fill="#d97706" fill-opacity="0.9"/>
<circle cx="827.14" cy="94.17" r="4.5" fill="#d97706" fill-opacity="0.9"/>
<circle cx="844.29" cy="102.88" r="4.5" fill="#d97706" fill-opacity="0.9"/>
<circle cx="861.43" cy="114.51" r="4.5" fill="#d97706" fill-opacity="0.9"/>
<circle cx="878.57" cy="96.53" r="4.5" fill="#d97706" fill-opacity="0.9"/>
<circle cx="895.71" cy="98.77" r="4.5" fill="#d97706" fill-opacity="0.9"/>
<circle cx="912.86" cy="97.88" r="4.5" fill="#d97706" fill-opacity="0.9"/>
<circle cx="930.00" cy="107.37" r="4.5" fill="#d97706" fill-opacity="0.9"/>
<rect x="90" y="32" width="18" height="6" fill="#d97706"/>
<text x="114" y="38" font-size="13" fill="#333333">val</text>
<polyline fill="none" stroke="#059669" stroke-width="3" points="90.00,435.83 107.14,215.44 124.29,221.17 141.43,365.76 158.57,183.35 175.71,135.13 192.86,141.93 210.00,125.41 227.14,188.12 244.29,139.80 261.43,127.10 278.57,115.75 295.71,109.40 312.86,130.58 330.00,126.65 347.14,132.27 364.29,107.48 381.43,111.53 398.57,107.43 415.71,108.22 432.86,101.08 450.00,97.65 467.14,95.52 484.29,101.75 501.43,102.03 518.57,107.77 535.71,99.56 552.86,98.61 570.00,107.99 587.14,104.28 604.29,101.87 621.43,108.78 638.57,99.00 655.71,108.44 672.86,103.55 690.00,99.28 707.14,106.59 724.29,98.66 741.43,166.60 758.57,97.99 775.71,99.84 792.86,102.26 810.00,101.13 827.14,95.68 844.29,103.33 861.43,113.89 878.57,98.33 895.71,99.56 912.86,98.33 930.00,110.01"/>
<circle cx="90.00" cy="435.83" r="4.5" fill="#059669" fill-opacity="0.9"/>
<circle cx="107.14" cy="215.44" r="4.5" fill="#059669" fill-opacity="0.9"/>
<circle cx="124.29" cy="221.17" r="4.5" fill="#059669" fill-opacity="0.9"/>
<circle cx="141.43" cy="365.76" r="4.5" fill="#059669" fill-opacity="0.9"/>
<circle cx="158.57" cy="183.35" r="4.5" fill="#059669" fill-opacity="0.9"/>
<circle cx="175.71" cy="135.13" r="4.5" fill="#059669" fill-opacity="0.9"/>
<circle cx="192.86" cy="141.93" r="4.5" fill="#059669" fill-opacity="0.9"/>
<circle cx="210.00" cy="125.41" r="4.5" fill="#059669" fill-opacity="0.9"/>
<circle cx="227.14" cy="188.12" r="4.5" fill="#059669" fill-opacity="0.9"/>
<circle cx="244.29" cy="139.80" r="4.5" fill="#059669" fill-opacity="0.9"/>
<circle cx="261.43" cy="127.10" r="4.5" fill="#059669" fill-opacity="0.9"/>
<circle cx="278.57" cy="115.75" r="4.5" fill="#059669" fill-opacity="0.9"/>
<circle cx="295.71" cy="109.40" r="4.5" fill="#059669" fill-opacity="0.9"/>
<circle cx="312.86" cy="130.58" r="4.5" fill="#059669" fill-opacity="0.9"/>
<circle cx="330.00" cy="126.65" r="4.5" fill="#059669" fill-opacity="0.9"/>
<circle cx="347.14" cy="132.27" r="4.5" fill="#059669" fill-opacity="0.9"/>
<circle cx="364.29" cy="107.48" r="4.5" fill="#059669" fill-opacity="0.9"/>
<circle cx="381.43" cy="111.53" r="4.5" fill="#059669" fill-opacity="0.9"/>
<circle cx="398.57" cy="107.43" r="4.5" fill="#059669" fill-opacity="0.9"/>
<circle cx="415.71" cy="108.22" r="4.5" fill="#059669" fill-opacity="0.9"/>
<circle cx="432.86" cy="101.08" r="4.5" fill="#059669" fill-opacity="0.9"/>
<circle cx="450.00" cy="97.65" r="4.5" fill="#059669" fill-opacity="0.9"/>
<circle cx="467.14" cy="95.52" r="4.5" fill="#059669" fill-opacity="0.9"/>
<circle cx="484.29" cy="101.75" r="4.5" fill="#059669" fill-opacity="0.9"/>
<circle cx="501.43" cy="102.03" r="4.5" fill="#059669" fill-opacity="0.9"/>
<circle cx="518.57" cy="107.77" r="4.5" fill="#059669" fill-opacity="0.9"/>
<circle cx="535.71" cy="99.56" r="4.5" fill="#059669" fill-opacity="0.9"/>
<circle cx="552.86" cy="98.61" r="4.5" fill="#059669" fill-opacity="0.9"/>
<circle cx="570.00" cy="107.99" r="4.5" fill="#059669" fill-opacity="0.9"/>
<circle cx="587.14" cy="104.28" r="4.5" fill="#059669" fill-opacity="0.9"/>
<circle cx="604.29" cy="101.87" r="4.5" fill="#059669" fill-opacity="0.9"/>
<circle cx="621.43" cy="108.78" r="4.5" fill="#059669" fill-opacity="0.9"/>
<circle cx="638.57" cy="99.00" r="4.5" fill="#059669" fill-opacity="0.9"/>
<circle cx="655.71" cy="108.44" r="4.5" fill="#059669" fill-opacity="0.9"/>
<circle cx="672.86" cy="103.55" r="4.5" fill="#059669" fill-opacity="0.9"/>
<circle cx="690.00" cy="99.28" r="4.5" fill="#059669" fill-opacity="0.9"/>
<circle cx="707.14" cy="106.59" r="4.5" fill="#059669" fill-opacity="0.9"/>
<circle cx="724.29" cy="98.66" r="4.5" fill="#059669" fill-opacity="0.9"/>
<circle cx="741.43" cy="166.60" r="4.5" fill="#059669" fill-opacity="0.9"/>
<circle cx="758.57" cy="97.99" r="4.5" fill="#059669" fill-opacity="0.9"/>
<circle cx="775.71" cy="99.84" r="4.5" fill="#059669" fill-opacity="0.9"/>
<circle cx="792.86" cy="102.26" r="4.5" fill="#059669" fill-opacity="0.9"/>
<circle cx="810.00" cy="101.13" r="4.5" fill="#059669" fill-opacity="0.9"/>
<circle cx="827.14" cy="95.68" r="4.5" fill="#059669" fill-opacity="0.9"/>
<circle cx="844.29" cy="103.33" r="4.5" fill="#059669" fill-opacity="0.9"/>
<circle cx="861.43" cy="113.89" r="4.5" fill="#059669" fill-opacity="0.9"/>
<circle cx="878.57" cy="98.33" r="4.5" fill="#059669" fill-opacity="0.9"/>
<circle cx="895.71" cy="99.56" r="4.5" fill="#059669" fill-opacity="0.9"/>
<circle cx="912.86" cy="98.33" r="4.5" fill="#059669" fill-opacity="0.9"/>
<circle cx="930.00" cy="110.01" r="4.5" fill="#059669" fill-opacity="0.9"/>
<rect x="270" y="32" width="18" height="6" fill="#059669"/>
<text x="294" y="38" font-size="13" fill="#333333">test</text>
</svg>