<svg xmlns="http://www.w3.org/2000/svg" width="960" height="540">
<rect width="100%" height="100%" fill="#ffffff"/>
<text x="480.0" y="30" font-size="22" text-anchor="middle" fill="#111111">Edit Distance</text>
<text x="20" y="270.0" font-size="16" transform="rotate(-90 20,270.0)" text-anchor="middle" fill="#333333">Distance</text>
<text x="480.0" y="520" font-size="16" text-anchor="middle" fill="#333333">Epoch</text>
<line x1="90" y1="60" x2="90" y2="470" stroke="#333333" stroke-width="2"/>
<line x1="90" y1="470" x2="930" y2="470" stroke="#333333" stroke-width="2"/>
<line x1="90" y1="470.00" x2="930" y2="470.00" stroke="#e5e7eb" stroke-width="1"/>
<text x="80" y="475.00" font-size="12" text-anchor="end" fill="#555555">0.0097</text>
<line x1="90" y1="367.50" x2="930" y2="367.50" stroke="#e5e7eb" stroke-width="1"/>
<text x="80" y="372.50" font-size="12" text-anchor="end" fill="#555555">0.1312</text>
<line x1="90" y1="265.00" x2="930" y2="265.00" stroke="#e5e7eb" stroke-width="1"/>
<text x="80" y="270.00" font-size="12" text-anchor="end" fill="#555555">0.2527</text>
<line x1="90" y1="162.50" x2="930" y2="162.50" stroke="#e5e7eb" stroke-width="1"/>
<text x="80" y="167.50" font-size="12" text-anchor="end" fill="#555555">0.3743</text>
<line x1="90" y1="60.00" x2="930" y2="60.00" stroke="#e5e7eb" stroke-width="1"/>
<text x="80" y="65.00" font-size="12" text-anchor="end" fill="#555555">0.4958</text>
<line x1="90.00" y1="60" x2="90.00" y2="470" stroke="#f3f4f6" stroke-width="1"/>
<text x="90.00" y="492" font-size="12" text-anchor="middle" fill="#555555">1</text>
<line x1="107.14" y1="60" x2="107.14" y2="470" stroke="#f3f4f6" stroke-width="1"/>
<text x="107.14" y="492" font-size="12" text-anchor="middle" fill="#555555">2</text>
<line x1="124.29" y1="60" x2="124.29" y2="470" stroke="#f3f4f6" stroke-width="1"/>
<text x="124.29" y="492" font-size="12" text-anchor="middle" fill="#555555">3</text>
<line x1="141.43" y1="60" x2="141.43" y2="470" stroke="#f3f4f6" stroke-width="1"/>
<text x="141.43" y="492" font-size="12" text-anchor="middle" fill="#555555">4</text>
<line x1="158.57" y1="60" x2="158.57" y2="470" stroke="#f3f4f6" stroke-width="1"/>
<text x="158.57" y="492" font-size="12" text-anchor="middle" fill="#555555">5</text>
<line x1="175.71" y1="60" x2="175.71" y2="470" stroke="#f3f4f6" stroke-width="1"/>
<text x="175.71" y="492" font-size="12" text-anchor="middle" fill="#555555">6</text>
<line x1="192.86" y1="60" x2="192.86" y2="470" stroke="#f3f4f6" stroke-width="1"/>
<text x="192.86" y="492" font-size="12" text-anchor="middle" fill="#555555">7</text>
<line x1="210.00" y1="60" x2="210.00" y2="470" stroke="#f3f4f6" stroke-width="1"/>
<text x="210.00" y="492" font-size="12" text-anchor="middle" fill="#555555">8</text>
<line x1="227.14" y1="60" x2="227.14" y2="470" stroke="#f3f4f6" stroke-width="1"/>
<text x="227.14" y="492" font-size="12" text-anchor="middle" fill="#555555">9</text>
<line x1="244.29" y1="60" x2="244.29" y2="470" stroke="#f3f4f6" stroke-width="1"/>
<text x="244.29" y="492" font-size="12" text-anchor="middle" fill="#555555">10</text>
<line x1="261.43" y1="60" x2="261.43" y2="470" stroke="#f3f4f6" stroke-width="1"/>
<text x="261.43" y="492" font-size="12" text-anchor="middle" fill="#555555">11</text>
<line x1="278.57" y1="60" x2="278.57" y2="470" stroke="#f3f4f6" stroke-width="1"/>
<text x="278.57" y="492" font-size="12" text-anchor="middle" fill="#555555">12</text>
<line x1="295.71" y1="60" x2="295.71" y2="470" stroke="#f3f4f6" stroke-width="1"/>
<text x="295.71" y="492" font-size="12" text-anchor="middle" fill="#555555">13</text>
<line x1="312.86" y1="60" x2="312.86" y2="470" stroke="#f3f4f6" stroke-width="1"/>
<text x="312.86" y="492" font-size="12" text-anchor="middle" fill="#555555">14</text>
<line x1="330.00" y1="60" x2="330.00" y2="470" stroke="#f3f4f6" stroke-width="1"/>
<text x="330.00" y="492" font-size="12" text-anchor="middle" fill="#555555">15</text>
<line x1="347.14" y1="60" x2="347.14" y2="470" stroke="#f3f4f6" stroke-width="1"/>
<text x="347.14" y="492" font-size="12" text-anchor="middle" fill="#555555">16</text>
<line x1="364.29" y1="60" x2="364.29" y2="470" stroke="#f3f4f6" stroke-width="1"/>
<text x="364.29" y="492" font-size="12" text-anchor="middle" fill="#555555">17</text>
<line x1="381.43" y1="60" x2="381.43" y2="470" stroke="#f3f4f6" stroke-width="1"/>
<text x="381.43" y="492" font-size="12" text-anchor="middle" fill="#555555">18</text>
<line x1="398.57" y1="60" x2="398.57" y2="470" stroke="#f3f4f6" stroke-width="1"/>
<text x="398.57" y="492" font-size="12" text-anchor="middle" fill="#555555">19</text>
<line x1="415.71" y1="60" x2="415.71" y2="470" stroke="#f3f4f6" stroke-width="1"/>
<text x="415.71" y="492" font-size="12" text-anchor="middle" fill="#555555">20</text>
<line x1="432.86" y1="60" x2="432.86" y2="470" stroke="#f3f4f6" stroke-width="1"/>
<text x="432.86" y="492" font-size="12" text-anchor="middle" fill="#555555">21</text>
<line x1="450.00" y1="60" x2="450.00" y2="470" stroke="#f3f4f6" stroke-width="1"/>
<text x="450.00" y="492" font-size="12" text-anchor="middle" fill="#555555">22</text>
<line x1="467.14" y1="60" x2="467.14" y2="470" stroke="#f3f4f6" stroke-width="1"/>
<text x="467.14" y="492" font-size="12" text-anchor="middle" fill="#555555">23</text>
<line x1="484.29" y1="60" x2="484.29" y2="470" stroke="#f3f4f6" stroke-width="1"/>
<text x="484.29" y="492" font-size="12" text-anchor="middle" fill="#555555">24</text>
<line x1="501.43" y1="60" x2="501.43" y2="470" stroke="#f3f4f6" stroke-width="1"/>
<text x="501.43" y="492" font-size="12" text-anchor="middle" fill="#555555">25</text>
<line x1="518.57" y1="60" x2="518.57" y2="470" stroke="#f3f4f6" stroke-width="1"/>
<text x="518.57" y="492" font-size="12" text-anchor="middle" fill="#555555">26</text>
<line x1="535.71" y1="60" x2="535.71" y2="470" stroke="#f3f4f6" stroke-width="1"/>
<text x="535.71" y="492" font-size="12" text-anchor="middle" fill="#555555">27</text>
<line x1="552.86" y1="60" x2="552.86" y2="470" stroke="#f3f4f6" stroke-width="1"/>
<text x="552.86" y="492" font-size="12" text-anchor="middle" fill="#555555">28</text>
<line x1="570.00" y1="60" x2="570.00" y2="470" stroke="#f3f4f6" stroke-width="1"/>
<text x="570.00" y="492" font-size="12" text-anchor="middle" fill="#555555">29</text>
<line x1="587.14" y1="60" x2="587.14" y2="470" stroke="#f3f4f6" stroke-width="1"/>
<text x="587.14" y="492" font-size="12" text-anchor="middle" fill="#555555">30</text>
<line x1="604.29" y1="60" x2="604.29" y2="470" stroke="#f3f4f6" stroke-width="1"/>
<text x="604.29" y="492" font-size="12" text-anchor="middle" fill="#555555">31</text>
<line x1="621.43" y1="60" x2="621.43" y2="470" stroke="#f3f4f6" stroke-width="1"/>
<text x="621.43" y="492" font-size="12" text-anchor="middle" fill="#555555">32</text>
<line x1="638.57" y1="60" x2="638.57" y2="470" stroke="#f3f4f6" stroke-width="1"/>
<text x="638.57" y="492" font-size="12" text-anchor="middle" fill="#555555">33</text>
<line x1="655.71" y1="60" x2="655.71" y2="470" stroke="#f3f4f6" stroke-width="1"/>
<text x="655.71" y="492" font-size="12" text-anchor="middle" fill="#555555">34</text>
<line x1="672.86" y1="60" x2="672.86" y2="470" stroke="#f3f4f6" stroke-width="1"/>
<text x="672.86" y="492" font-size="12" text-anchor="middle" fill="#555555">35</text>
<line x1="690.00" y1="60" x2="690.00" y2="470" stroke="#f3f4f6" stroke-width="1"/>
<text x="690.00" y="492" font-size="12" text-anchor="middle" fill="#555555">36</text>
<line x1="707.14" y1="60" x2="707.14" y2="470" stroke="#f3f4f6" stroke-width="1"/>
<text x="707.14" y="492" font-size="12" text-anchor="middle" fill="#555555">37</text>
<line x1="724.29" y1="60" x2="724.29" y2="470" stroke="#f3f4f6" stroke-width="1"/>
<text x="724.29" y="492" font-size="12" text-anchor="middle" fill="#555555">38</text>
<line x1="741.43" y1="60" x2="741.43" y2="470" stroke="#f3f4f6" stroke-width="1"/>
<text x="741.43" y="492" font-size="12" text-anchor="middle" fill="#555555">39</text>
<line x1="758.57" y1="60" x2="758.57" y2="470" stroke="#f3f4f6" stroke-width="1"/>
<text x="758.57" y="492" font-size="12" text-anchor="middle" fill="#555555">40</text>
<line x1="775.71" y1="60" x2="775.71" y2="470" stroke="#f3f4f6" stroke-width="1"/>
<text x="775.71" y="492" font-size="12" text-anchor="middle" fill="#555555">41</text>
<line x1="792.86" y1="60" x2="792.86" y2="470" stroke="#f3f4f6" stroke-width="1"/>
<text x="792.86" y="492" font-size="12" text-anchor="middle" fill="#555555">42</text>
<line x1="810.00" y1="60" x2="810.00" y2="470" stroke="#f3f4f6" stroke-width="1"/>
<text x="810.00" y="492" font-size="12" text-anchor="middle" fill="#555555">43</text>
<line x1="827.14" y1="60" x2="827.14" y2="470" stroke="#f3f4f6" stroke-width="1"/>
<text x="827.14" y="492" font-size="12" text-anchor="middle" fill="#555555">44</text>
<line x1="844.29" y1="60" x2="844.29" y2="470" stroke="#f3f4f6" stroke-width="1"/>
<text x="844.29" y="492" font-size="12" text-anchor="middle" fill="#555555">45</text>
<line x1="861.43" y1="60" x2="861.43" y2="470" stroke="#f3f4f6" stroke-width="1"/>
<text x="861.43" y="492" font-size="12" text-anchor="middle" fill="#555555">46</text>
<line x1="878.57" y1="60" x2="878.57" y2="470" stroke="#f3f4f6" stroke-width="1"/>
<text x="878.57" y="492" font-size="12" text-anchor="middle" fill="#555555">47</text>
<line x1="895.71" y1="60" x2="895.71" y2="470" stroke="#f3f4f6" stroke-width="1"/>
<text x="895.71" y="492" font-size="12" text-anchor="middle" fill="#555555">48</text>
<line x1="912.86" y1="60" x2="912.86" y2="470" stroke="#f3f4f6" stroke-width="1"/>
<text x="912.86" y="492" font-size="12" text-anchor="middle" fill="#555555">49</text>
<line x1="930.00" y1="60" x2="930.00" y2="470" stroke="#f3f4f6" stroke-width="1"/>
<text x="930.00" y="492" font-size="12" text-anchor="middle" fill="#555555">50</text>
<polyline fill="none" stroke="#d97706" stroke-width="3" points="90.00,102.49 107.14,314.65 124.29,306.33 141.43,169.74 158.57,344.40 175.71,394.56 192.86,385.34 210.00,406.42 227.14,340.52 244.29,386.52 261.43,405.19 278.57,413.73 295.71,422.45 312.86,400.80 330.00,399.68 347.14,399.73 364.29,422.34 381.43,417.22 398.57,422.11 415.71,423.29 432.86,429.87 450.00,431.45 467.14,429.70 484.29,427.17 501.43,428.47 518.57,424.59 535.71,426.33 552.86,428.24 570.00,420.88 587.14,425.49 604.29,427.12 621.43,421.55 638.57,432.52 655.71,422.17 672.86,428.24 690.00,429.48 707.14,423.97 724.29,432.23 741.43,365.71 758.57,434.99 775.71,430.04 792.86,429.03 810.00,430.72 827.14,435.83 844.29,427.12 861.43,415.48 878.57,433.42 895.71,431.17 912.86,432.07 930.00,422.56"/>
<circle cx="90.00" cy="102.49" r="4.5" fill="#d97706" fill-opacity="0.9"/>
<circle cx="107.14" cy="314.65" r="4.5" fill="#d97706" fill-opacity="0.9"/>
<circle cx="124.29" cy="306.33" r="4.5" fill="#d97706" fill-opacity="0.9"/>
<circle cx="141.43" cy="169.74" r="4.5" fill="#d97706" fill-opacity="0.9"/>
<circle cx="158.57" cy="344.40" r="4.5" fill="#d97706" fill-opacity="0.9"/>
<circle cx="175.71" cy="394.56" r="4.5" fill="#d97706" fill-opacity="0.9"/>
<circle cx="192.86" cy="385.34" r="4.5" fill="#d97706" fill-opacity="0.9"/>
<circle cx="210.00" cy="406.42" r="4.5" fill="#d97706" fill-opacity="0.9"/>
<circle cx="227.14" cy="340.52" r="4.5" fill="#d97706" fill-opacity="0.9"/>
<circle cx="244.29" cy="386.52" r="4.5" fill="#d97706" fill-opacity="0.9"/>
<circle cx="261.43" cy="405.19" r="4.5" fill="#d97706" fill-opacity="0.9"/>
<circle cx="278.57" cy="413.73" r="4.5" fill="#d97706" fill-opacity="0.9"/>
<circle cx="295.71" cy="422.45" r="4.5" fill="#d97706" fill-opacity="0.9"/>
<circle cx="312.86" cy="400.80" r="4.5" fill="#d97706" fill-opacity="0.9"/>
<circle cx="330.00" cy="399.68" r="4.5" fill="#d97706" fill-opacity="0.9"/>
<circle cx="347.14" cy="399.73" r="4.5" fill="#d97706" fill-opacity="0.9"/>
<circle cx="364.29" cy="422.34" r="4.5" fill="#d97706" fill-opacity="0.9"/>
<circle cx="381.43" cy="417.22" r="4.5" fill="#d97706" fill-opacity="0.9"/>
<circle cx="398.57" cy="422.11" r="4.5" fill="#d97706" fill-opacity="0.9"/>
<circle cx="415.71" cy="423.29" r="4.5" fill="#d97706" fill-opacity="0.9"/>
<circle cx="432.86" cy="429.87" r="4.5" fill="#d97706" fill-opacity="0.9"/>
<circle cx="450.00" cy="431.45" r="4.5" fill="#d97706" fill-opacity="0.9"/>
<circle cx="467.14" cy="429.70" r="4.5" fill="#d97706" fill-opacity="0.9"/>
<circle cx="484.29" cy="427.17" r="4.5" fill="#d97706" fill-opacity="0.9"/>
<circle cx="501.43" cy="428.47" r="4.5" fill="#d97706" fill-opacity="0.9"/>
<circle cx="518.57" cy="424.59" r="4.5" fill="#d97706" fill-opacity="0.9"/>
<circle cx="535.71" cy="426.33" r="4.5" fill="#d97706" fill-opacity="0.9"/>
<circle cx="552.86" cy="428.24" r="4.5" fill="#d97706" fill-opacity="0.9"/>
<circle cx="570.00" cy="420.88" r="4.5" fill="#d97706" fill-opacity="0.9"/>
<circle cx="587.14" cy="425.49" r="4.5" fill="#d97706" fill-opacity="0.9"/>
<circle cx="604.29" cy="427.12" r="4.5" fill="#d97706" fill-opacity="0.9"/>
<circle cx="621.43" cy="421.55" r="4.5" fill="#d97706" fill-opacity="0.9"/>
<circle cx="638.57" cy="432.52" r="4.5" fill="#d97706" fill-opacity="0.9"/>
<circle cx="655.71" cy="422.17" r="4.5" fill="#d97706" fill-opacity="0.9"/>
<circle cx="672.86" cy="428.24" r="4.5" fill="#d97706" fill-opacity="0.9"/>
<circle cx="690.00" cy="429.48" r="4.5" fill="#d97706" fill-opacity="0.9"/>
<circle cx="707.14" cy="423.97" r="4.5" fill="#d97706" fill-opacity="0.9"/>
<circle cx="724.29" cy="432.23" r="4.5" fill="#d97706" fill-opacity="0.9"/>
<circle cx="741.43" cy="365.71" r="4.5" fill="#d97706" fill-opacity="0.9"/>
<circle cx="758.57" cy="434.99" r="4.5" fill="#d97706" fill-opacity="0.9"/>
<circle cx="775.71" cy="430.04" r="4.5" fill="#d97706" fill-opacity="0.9"/>
<circle cx="792.86" cy="429.03" r="4.5" fill="#d97706" fill-opacity="0.9"/>
<circle cx="810.00" cy="430.72" r="4.5" fill="#d97706" fill-opacity="0.9"/>
<circle cx="827.14" cy="435.83" r="4.5" fill="#d97706" fill-opacity="0.9"/>
<circle cx="844.29" cy="427.12" r="4.5" fill="#d97706" fill-opacity="0.9"/>
<circle cx="861.43" cy="415.48" r="4.5" fill="#d97706" fill-opacity="0.9"/>
<circle cx="878.57" cy="433.42" r="4.5" fill="#d97706" fill-opacity="0.9"/>
<circle cx="895.71" cy="431.17" r="4.5" fill="#d97706" fill-opacity="0.9"/>
<circle cx="912.86" cy="432.07" r="4.5" fill="#d97706" fill-opacity="0.9"/>
<circle cx="930.00" cy="422.56" r="4.5" fill="#d97706" fill-opacity="0.9"/>
<rect x="90" y="32" width="18" height="6" fill="#d97706"/>
<text x="114" y="38" font-size="13" fill="#333333">val</text>
<polyline fill="none" stroke="#059669" stroke-width="3" points="90.00,94.17 107.14,314.54 124.29,309.03 141.43,173.51 158.57,346.54 175.71,394.95 192.86,387.98 210.00,404.51 227.14,342.09 244.29,390.12 261.43,402.88 278.57,414.24 295.71,420.65 312.86,399.51 330.00,403.33 347.14,397.71 364.29,422.51 381.43,418.51 398.57,422.56 415.71,422.23 432.86,428.92 450.00,432.46 467.14,434.43 484.29,428.30 501.43,428.02 518.57,422.45 535.71,430.49 552.86,431.56 570.00,422.11 587.14,425.82 604.29,428.19 621.43,421.16 638.57,431.00 655.71,421.55 672.86,426.56 690.00,430.77 707.14,423.46 724.29,431.33 741.43,365.43 758.57,432.01 775.71,430.15 792.86,427.85 810.00,428.97 827.14,434.37 844.29,426.61 861.43,416.10 878.57,431.78 895.71,430.55 912.86,431.78 930.00,420.09"/>
<circle cx="90.00" cy="94.17" r="4.5" fill="#059669" fill-opacity="0.9"/>
<circle cx="107.14" cy="314.54" r="4.5" fill="#059669" fill-opacity="0.9"/>
<circle cx="124.29" cy="309.03" r="4.5" fill="#059669" fill-opacity="0.9"/>
<circle cx="141.43" cy="173.51" r="4.5" fill="#059669" fill-opacity="0.9"/>
<circle cx="158.57" cy="346.54" r="4.5" fill="#059669" fill-opacity="0.9"/>
<circle cx="175.71" cy="394.95" r="4.5" fill="#059669" fill-opacity="0.9"/>
<circle cx="192.86" cy="387.98" r="4.5" fill="#059669" fill-opacity="0.9"/>
<circle cx="210.00" cy="404.51" r="4.5" fill="#059669" fill-opacity="0.9"/>
<circle cx="227.14" cy="342.09" r="4.5" fill="#059669" fill-opacity="0.9"/>
<circle cx="244.29" cy="390.12" r="4.5" fill="#059669" fill-opacity="0.9"/>
<circle cx="261.43" cy="402.88" r="4.5" fill="#059669" fill-opacity="0.9"/>
<circle cx="278.57" cy="414.24" r="4.5" fill="#059669" fill-opacity="0.9"/>
<circle cx="295.71" cy="420.65" r="4.5" fill="#059669" fill-opacity="0.9"/>
<circle cx="312.86" cy="399.51" r="4.5" fill="#059669" fill-opacity="0.9"/>
<circle cx="330.00" cy="403.33" r="4.5" fill="#059669" fill-opacity="0.9"/>
<circle cx="347.14" cy="397.71" r="4.5" fill="#059669" fill-opacity="0.9"/>
<circle cx="364.29" cy="422.51" r="4.5" fill="#059669" fill-opacity="0.9"/>
<circle cx="381.43" cy="418.51" r="4.5" fill="#059669" fill-opacity="0.9"/>
<circle cx="398.57" cy="422.56" r="4.5" fill="#059669" fill-opacity="0.9"/>
<circle cx="415.71" cy="422.23" r="4.5" fill="#059669" fill-opacity="0.9"/>
<circle cx="432.86" cy="428.92" r="4.5" fill="#059669" fill-opacity="0.9"/>
<circle cx="450.00" cy="432.46" r="4.5" fill="#059669" fill-opacity="0.9"/>
<circle cx="467.14" cy="434.43" r="4.5" fill="#059669" fill-opacity="0.9"/>
<circle cx="484.29" cy="428.30" r="4.5" fill="#059669" fill-opacity="0.9"/>
<circle cx="501.43" cy="428.02" r="4.5" fill="#059669" fill-opacity="0.9"/>
<circle cx="518.57" cy="422.45" r="4.5" fill="#059669" fill-opacity="0.9"/>
<circle cx="535.71" cy="430.49" r="4.5" fill="#059669" fill-opacity="0.9"/>
<circle cx="552.86" cy="431.56" r="4.5" fill="#059669" fill-opacity="0.9"/>
<circle cx="570.00" cy="422.11" r="4.5" fill="#059669" fill-opacity="0.9"/>
<circle cx="587.14" cy="425.82" r="4.5" fill="#059669" fill-opacity="0.9"/>
<circle cx="604.29" cy="428.19" r="4.5" fill="#059669" fill-opacity="0.9"/>
<circle cx="621.43" cy="421.16" r="4.5" fill="#059669" fill-opacity="0.9"/>
<circle cx="638.57" cy="431.00" r="4.5" fill="#059669" fill-opacity="0.9"/>
<circle cx="655.71" cy="421.55" r="4.5" fill="#059669" fill-opacity="0.9"/>
<circle cx="672.86" cy="426.56" r="4.5" fill="#059669" fill-opacity="0.9"/>
<circle cx="690.00" cy="430.77" r="4.5" fill="#059669" fill-opacity="0.9"/>
<circle cx="707.14" cy="423.46" r="4.5" fill="#059669" fill-opacity="0.9"/>
<circle cx="724.29" cy="431.33" r="4.5" fill="#059669" fill-opacity="0.9"/>
<circle cx="741.43" cy="365.43" r="4.5" fill="#059669" fill-opacity="0.9"/>
<circle cx="758.57" cy="432.01" r="4.5" fill="#059669" fill-opacity="0.9"/>
<circle cx="775.71" cy="430.15" r="4.5" fill="#059669" fill-opacity="0.9"/>
<circle cx="792.86" cy="427.85" r="4.5" fill="#059669" fill-opacity="0.9"/>
<circle cx="810.00" cy="428.97" r="4.5" fill="#059669" fill-opacity="0.9"/>
<circle cx="827.14" cy="434.37" r="4.5" fill="#059669" fill-opacity="0.9"/>
<circle cx="844.29" cy="426.61" r="4.5" fill="#059669" fill-opacity="0.9"/>
<circle cx="861.43" cy="416.10" r="4.5" fill="#059669" fill-opacity="0.9"/>
<circle cx="878.57" cy="431.78" r="4.5" fill="#059669" fill-opacity="0.9"/>
<circle cx="895.71" cy="430.55" r="4.5" fill="#059669" fill-opacity="0.9"/>
<circle cx="912.86" cy="431.78" r="4.5" fill="#059669" fill-opacity="0.9"/>
<circle cx="930.00" cy="420.09" r="4.5" fill="#059669" fill-opacity="0.9"/>
<rect x="270" y="32" width="18" height="6" fill="#059669"/>
<text x="294" y="38" font-size="13" fill="#333333">test</text>
</svg>