<svg xmlns="http://www.w3.org/2000/svg" width="960" height="540">
<rect width="100%" height="100%" fill="#ffffff"/>
<text x="480.0" y="30" font-size="22" text-anchor="middle" fill="#111111">Loss</text>
<text x="20" y="270.0" font-size="16" transform="rotate(-90 20,270.0)" text-anchor="middle" fill="#333333">Loss</text>
<text x="480.0" y="520" font-size="16" text-anchor="middle" fill="#333333">Epoch</text>
<line x1="90" y1="60" x2="90" y2="470" stroke="#333333" stroke-width="2"/>
<line x1="90" y1="470" x2="930" y2="470" stroke="#333333" stroke-width="2"/>
<line x1="90" y1="470.00" x2="930" y2="470.00" stroke="#e5e7eb" stroke-width="1"/>
<text x="80" y="475.00" font-size="12" text-anchor="end" fill="#555555">-0.7589</text>
<line x1="90" y1="367.50" x2="930" y2="367.50" stroke="#e5e7eb" stroke-width="1"/>
<text x="80" y="372.50" font-size="12" text-anchor="end" fill="#555555">1.6211</text>
<line x1="90" y1="265.00" x2="930" y2="265.00" stroke="#e5e7eb" stroke-width="1"/>
<text x="80" y="270.00" font-size="12" text-anchor="end" fill="#555555">4.0011</text>
<line x1="90" y1="162.50" x2="930" y2="162.50" stroke="#e5e7eb" stroke-width="1"/>
<text x="80" y="167.50" font-size="12" text-anchor="end" fill="#555555">6.3810</text>
<line x1="90" y1="60.00" x2="930" y2="60.00" stroke="#e5e7eb" stroke-width="1"/>
<text x="80" y="65.00" font-size="12" text-anchor="end" fill="#555555">8.7610</text>
<line x1="90.00" y1="60" x2="90.00" y2="470" stroke="#f3f4f6" stroke-width="1"/>
<text x="90.00" y="492" font-size="12" text-anchor="middle" fill="#555555">1</text>
<line x1="107.14" y1="60" x2="107.14" y2="470" stroke="#f3f4f6" stroke-width="1"/>
<text x="107.14" y="492" font-size="12" text-anchor="middle" fill="#555555">2</text>
<line x1="124.29" y1="60" x2="124.29" y2="470" stroke="#f3f4f6" stroke-width="1"/>
<text x="124.29" y="492" font-size="12" text-anchor="middle" fill="#555555">3</text>
<line x1="141.43" y1="60" x2="141.43" y2="470" stroke="#f3f4f6" stroke-width="1"/>
<text x="141.43" y="492" font-size="12" text-anchor="middle" fill="#555555">4</text>
<line x1="158.57" y1="60" x2="158.57" y2="470" stroke="#f3f4f6" stroke-width="1"/>
<text x="158.57" y="492" font-size="12" text-anchor="middle" fill="#555555">5</text>
<line x1="175.71" y1="60" x2="175.71" y2="470" stroke="#f3f4f6" stroke-width="1"/>
<text x="175.71" y="492" font-size="12" text-anchor="middle" fill="#555555">6</text>
<line x1="192.86" y1="60" x2="192.86" y2="470" stroke="#f3f4f6" stroke-width="1"/>
<text x="192.86" y="492" font-size="12" text-anchor="middle" fill="#555555">7</text>
<line x1="210.00" y1="60" x2="210.00" y2="470" stroke="#f3f4f6" stroke-width="1"/>
<text x="210.00" y="492" font-size="12" text-anchor="middle" fill="#555555">8</text>
<line x1="227.14" y1="60" x2="227.14" y2="470" stroke="#f3f4f6" stroke-width="1"/>
<text x="227.14" y="492" font-size="12" text-anchor="middle" fill="#555555">9</text>
<line x1="244.29" y1="60" x2="244.29" y2="470" stroke="#f3f4f6" stroke-width="1"/>
<text x="244.29" y="492" font-size="12" text-anchor="middle" fill="#555555">10</text>
<line x1="261.43" y1="60" x2="261.43" y2="470" stroke="#f3f4f6" stroke-width="1"/>
<text x="261.43" y="492" font-size="12" text-anchor="middle" fill="#555555">11</text>
<line x1="278.57" y1="60" x2="278.57" y2="470" stroke="#f3f4f6" stroke-width="1"/>
<text x="278.57" y="492" font-size="12" text-anchor="middle" fill="#555555">12</text>
<line x1="295.71" y1="60" x2="295.71" y2="470" stroke="#f3f4f6" stroke-width="1"/>
<text x="295.71" y="492" font-size="12" text-anchor="middle" fill="#555555">13</text>
<line x1="312.86" y1="60" x2="312.86" y2="470" stroke="#f3f4f6" stroke-width="1"/>
<text x="312.86" y="492" font-size="12" text-anchor="middle" fill="#555555">14</text>
<line x1="330.00" y1="60" x2="330.00" y2="470" stroke="#f3f4f6" stroke-width="1"/>
<text x="330.00" y="492" font-size="12" text-anchor="middle" fill="#555555">15</text>
<line x1="347.14" y1="60" x2="347.14" y2="470" stroke="#f3f4f6" stroke-width="1"/>
<text x="347.14" y="492" font-size="12" text-anchor="middle" fill="#555555">16</text>
<line x1="364.29" y1="60" x2="364.29" y2="470" stroke="#f3f4f6" stroke-width="1"/>
<text x="364.29" y="492" font-size="12" text-anchor="middle" fill="#555555">17</text>
<line x1="381.43" y1="60" x2="381.43" y2="470" stroke="#f3f4f6" stroke-width="1"/>
<text x="381.43" y="492" font-size="12" text-anchor="middle" fill="#555555">18</text>
<line x1="398.57" y1="60" x2="398.57" y2="470" stroke="#f3f4f6" stroke-width="1"/>
<text x="398.57" y="492" font-size="12" text-anchor="middle" fill="#555555">19</text>
<line x1="415.71" y1="60" x2="415.71" y2="470" stroke="#f3f4f6" stroke-width="1"/>
<text x="415.71" y="492" font-size="12" text-anchor="middle" fill="#555555">20</text>
<line x1="432.86" y1="60" x2="432.86" y2="470" stroke="#f3f4f6" stroke-width="1"/>
<text x="432.86" y="492" font-size="12" text-anchor="middle" fill="#555555">21</text>
<line x1="450.00" y1="60" x2="450.00" y2="470" stroke="#f3f4f6" stroke-width="1"/>
<text x="450.00" y="492" font-size="12" text-anchor="middle" fill="#555555">22</text>
<line x1="467.14" y1="60" x2="467.14" y2="470" stroke="#f3f4f6" stroke-width="1"/>
<text x="467.14" y="492" font-size="12" text-anchor="middle" fill="#555555">23</text>
<line x1="484.29" y1="60" x2="484.29" y2="470" stroke="#f3f4f6" stroke-width="1"/>
<text x="484.29" y="492" font-size="12" text-anchor="middle" fill="#555555">24</text>
<line x1="501.43" y1="60" x2="501.43" y2="470" stroke="#f3f4f6" stroke-width="1"/>
<text x="501.43" y="492" font-size="12" text-anchor="middle" fill="#555555">25</text>
<line x1="518.57" y1="60" x2="518.57" y2="470" stroke="#f3f4f6" stroke-width="1"/>
<text x="518.57" y="492" font-size="12" text-anchor="middle" fill="#555555">26</text>
<line x1="535.71" y1="60" x2="535.71" y2="470" stroke="#f3f4f6" stroke-width="1"/>
<text x="535.71" y="492" font-size="12" text-anchor="middle" fill="#555555">27</text>
<line x1="552.86" y1="60" x2="552.86" y2="470" stroke="#f3f4f6" stroke-width="1"/>
<text x="552.86" y="492" font-size="12" text-anchor="middle" fill="#555555">28</text>
<line x1="570.00" y1="60" x2="570.00" y2="470" stroke="#f3f4f6" stroke-width="1"/>
<text x="570.00" y="492" font-size="12" text-anchor="middle" fill="#555555">29</text>
<line x1="587.14" y1="60" x2="587.14" y2="470" stroke="#f3f4f6" stroke-width="1"/>
<text x="587.14" y="492" font-size="12" text-anchor="middle" fill="#555555">30</text>
<line x1="604.29" y1="60" x2="604.29" y2="470" stroke="#f3f4f6" stroke-width="1"/>
<text x="604.29" y="492" font-size="12" text-anchor="middle" fill="#555555">31</text>
<line x1="621.43" y1="60" x2="621.43" y2="470" stroke="#f3f4f6" stroke-width="1"/>
<text x="621.43" y="492" font-size="12" text-anchor="middle" fill="#555555">32</text>
<line x1="638.57" y1="60" x2="638.57" y2="470" stroke="#f3f4f6" stroke-width="1"/>
<text x="638.57" y="492" font-size="12" text-anchor="middle" fill="#555555">33</text>
<line x1="655.71" y1="60" x2="655.71" y2="470" stroke="#f3f4f6" stroke-width="1"/>
<text x="655.71" y="492" font-size="12" text-anchor="middle" fill="#555555">34</text>
<line x1="672.86" y1="60" x2="672.86" y2="470" stroke="#f3f4f6" stroke-width="1"/>
<text x="672.86" y="492" font-size="12" text-anchor="middle" fill="#555555">35</text>
<line x1="690.00" y1="60" x2="690.00" y2="470" stroke="#f3f4f6" stroke-width="1"/>
<text x="690.00" y="492" font-size="12" text-anchor="middle" fill="#555555">36</text>
<line x1="707.14" y1="60" x2="707.14" y2="470" stroke="#f3f4f6" stroke-width="1"/>
<text x="707.14" y="492" font-size="12" text-anchor="middle" fill="#555555">37</text>
<line x1="724.29" y1="60" x2="724.29" y2="470" stroke="#f3f4f6" stroke-width="1"/>
<text x="724.29" y="492" font-size="12" text-anchor="middle" fill="#555555">38</text>
<line x1="741.43" y1="60" x2="741.43" y2="470" stroke="#f3f4f6" stroke-width="1"/>
<text x="741.43" y="492" font-size="12" text-anchor="middle" fill="#555555">39</text>
<line x1="758.57" y1="60" x2="758.57" y2="470" stroke="#f3f4f6" stroke-width="1"/>
<text x="758.57" y="492" font-size="12" text-anchor="middle" fill="#555555">40</text>
<line x1="775.71" y1="60" x2="775.71" y2="470" stroke="#f3f4f6" stroke-width="1"/>
<text x="775.71" y="492" font-size="12" text-anchor="middle" fill="#555555">41</text>
<line x1="792.86" y1="60" x2="792.86" y2="470" stroke="#f3f4f6" stroke-width="1"/>
<text x="792.86" y="492" font-size="12" text-anchor="middle" fill="#555555">42</text>
<line x1="810.00" y1="60" x2="810.00" y2="470" stroke="#f3f4f6" stroke-width="1"/>
<text x="810.00" y="492" font-size="12" text-anchor="middle" fill="#555555">43</text>
<line x1="827.14" y1="60" x2="827.14" y2="470" stroke="#f3f4f6" stroke-width="1"/>
<text x="827.14" y="492" font-size="12" text-anchor="middle" fill="#555555">44</text>
<line x1="844.29" y1="60" x2="844.29" y2="470" stroke="#f3f4f6" stroke-width="1"/>
<text x="844.29" y="492" font-size="12" text-anchor="middle" fill="#555555">45</text>
<line x1="861.43" y1="60" x2="861.43" y2="470" stroke="#f3f4f6" stroke-width="1"/>
<text x="861.43" y="492" font-size="12" text-anchor="middle" fill="#555555">46</text>
<line x1="878.57" y1="60" x2="878.57" y2="470" stroke="#f3f4f6" stroke-width="1"/>
<text x="878.57" y="492" font-size="12" text-anchor="middle" fill="#555555">47</text>
<line x1="895.71" y1="60" x2="895.71" y2="470" stroke="#f3f4f6" stroke-width="1"/>
<text x="895.71" y="492" font-size="12" text-anchor="middle" fill="#555555">48</text>
<line x1="912.86" y1="60" x2="912.86" y2="470" stroke="#f3f4f6" stroke-width="1"/>
<text x="912.86" y="492" font-size="12" text-anchor="middle" fill="#555555">49</text>
<line x1="930.00" y1="60" x2="930.00" y2="470" stroke="#f3f4f6" stroke-width="1"/>
<text x="930.00" y="492" font-size="12" text-anchor="middle" fill="#555555">50</text>
<polyline fill="none" stroke="#1d4ed8" stroke-width="3" points="90.00,94.17 107.14,397.80 124.29,413.70 141.43,418.62 158.57,421.52 175.71,422.81 192.86,425.67 210.00,425.98 227.14,426.57 244.29,427.87 261.43,428.42 278.57,428.87 295.71,429.57 312.86,430.39 330.00,430.78 347.14,431.16 364.29,431.24 381.43,431.74 398.57,431.99 415.71,432.31 432.86,432.79 450.00,433.04 467.14,432.92 484.29,433.08 501.43,433.86 518.57,433.68 535.71,434.09 552.86,433.98 570.00,434.15 587.14,434.19 604.29,434.28 621.43,434.62 638.57,435.04 655.71,434.66 672.86,434.83 690.00,434.90 707.14,435.05 724.29,434.90 741.43,435.25 758.57,435.00 775.71,435.36 792.86,434.99 810.00,435.56 827.14,435.37 844.29,435.58 861.43,435.28 878.57,435.34 895.71,435.46 912.86,435.83 930.00,435.32"/>
<circle cx="90.00" cy="94.17" r="4.5" fill="#1d4ed8" fill-opacity="0.9"/>
<circle cx="107.14" cy="397.80" r="4.5" fill="#1d4ed8" fill-opacity="0.9"/>
<circle cx="124.29" cy="413.70" r="4.5" fill="#1d4ed8" fill-opacity="0.9"/>
<circle cx="141.43" cy="418.62" r="4.5" fill="#1d4ed8" fill-opacity="0.9"/>
<circle cx="158.57" cy="421.52" r="4.5" fill="#1d4ed8" fill-opacity="0.9"/>
<circle cx="175.71" cy="422.81" r="4.5" fill="#1d4ed8" fill-opacity="0.9"/>
<circle cx="192.86" cy="425.67" r="4.5" fill="#1d4ed8" fill-opacity="0.9"/>
<circle cx="210.00" cy="425.98" r="4.5" fill="#1d4ed8" fill-opacity="0.9"/>
<circle cx="227.14" cy="426.57" r="4.5" fill="#1d4ed8" fill-opacity="0.9"/>
<circle cx="244.29" cy="427.87" r="4.5" fill="#1d4ed8" fill-opacity="0.9"/>
<circle cx="261.43" cy="428.42" r="4.5" fill="#1d4ed8" fill-opacity="0.9"/>
<circle cx="278.57" cy="428.87" r="4.5" fill="#1d4ed8" fill-opacity="0.9"/>
<circle cx="295.71" cy="429.57" r="4.5" fill="#1d4ed8" fill-opacity="0.9"/>
<circle cx="312.86" cy="430.39" r="4.5" fill="#1d4ed8" fill-opacity="0.9"/>
<circle cx="330.00" cy="430.78" r="4.5" fill="#1d4ed8" fill-opacity="0.9"/>
<circle cx="347.14" cy="431.16" r="4.5" fill="#1d4ed8" fill-opacity="0.9"/>
<circle cx="364.29" cy="431.24" r="4.5" fill="#1d4ed8" fill-opacity="0.9"/>
<circle cx="381.43" cy="431.74" r="4.5" fill="#1d4ed8" fill-opacity="0.9"/>
<circle cx="398.57" cy="431.99" r="4.5" fill="#1d4ed8" fill-opacity="0.9"/>
<circle cx="415.71" cy="432.31" r="4.5" fill="#1d4ed8" fill-opacity="0.9"/>
<circle cx="432.86" cy="432.79" r="4.5" fill="#1d4ed8" fill-opacity="0.9"/>
<circle cx="450.00" cy="433.04" r="4.5" fill="#1d4ed8" fill-opacity="0.9"/>
<circle cx="467.14" cy="432.92" r="4.5" fill="#1d4ed8" fill-opacity="0.9"/>
<circle cx="484.29" cy="433.08" r="4.5" fill="#1d4ed8" fill-opacity="0.9"/>
<circle cx="501.43" cy="433.86" r="4.5" fill="#1d4ed8" fill-opacity="0.9"/>
<circle cx="518.57" cy="433.68" r="4.5" fill="#1d4ed8" fill-opacity="0.9"/>
<circle cx="535.71" cy="434.09" r="4.5" fill="#1d4ed8" fill-opacity="0.9"/>
<circle cx="552.86" cy="433.98" r="4.5" fill="#1d4ed8" fill-opacity="0.9"/>
<circle cx="570.00" cy="434.15" r="4.5" fill="#1d4ed8" fill-opacity="0.9"/>
<circle cx="587.14" cy="434.19" r="4.5" fill="#1d4ed8" fill-opacity="0.9"/>
<circle cx="604.29" cy="434.28" r="4.5" fill="#1d4ed8" fill-opacity="0.9"/>
<circle cx="621.43" cy="434.62" r="4.5" fill="#1d4ed8" fill-opacity="0.9"/>
<circle cx="638.57" cy="435.04" r="4.5" fill="#1d4ed8" fill-opacity="0.9"/>
<circle cx="655.71" cy="434.66" r="4.5" fill="#1d4ed8" fill-opacity="0.9"/>
<circle cx="672.86" cy="434.83" r="4.5" fill="#1d4ed8" fill-opacity="0.9"/>
<circle cx="690.00" cy="434.90" r="4.5" fill="#1d4ed8" fill-opacity="0.9"/>
<circle cx="707.14" cy="435.05" r="4.5" fill="#1d4ed8" fill-opacity="0.9"/>
<circle cx="724.29" cy="434.90" r="4.5" fill="#1d4ed8" fill-opacity="0.9"/>
<circle cx="741.43" cy="435.25" r="4.5" fill="#1d4ed8" fill-opacity="0.9"/>
<circle cx="758.57" cy="435.00" r="4.5" fill="#1d4ed8" fill-opacity="0.9"/>
<circle cx="775.71" cy="435.36" r="4.5" fill="#1d4ed8" fill-opacity="0.9"/>
<circle cx="792.86" cy="434.99" r="4.5" fill="#1d4ed8" fill-opacity="0.9"/>
<circle cx="810.00" cy="435.56" r="4.5" fill="#1d4ed8" fill-opacity="0.9"/>
<circle cx="827.14" cy="435.37" r="4.5" fill="#1d4ed8" fill-opacity="0.9"/>
<circle cx="844.29" cy="435.58" r="4.5" fill="#1d4ed8" fill-opacity="0.9"/>
<circle cx="861.43" cy="435.28" r="4.5" fill="#1d4ed8" fill-opacity="0.9"/>
<circle cx="878.57" cy="435.34" r="4.5" fill="#1d4ed8" fill-opacity="0.9"/>
<circle cx="895.71" cy="435.46" r="4.5" fill="#1d4ed8" fill-opacity="0.9"/>
<circle cx="912.86" cy="435.83" r="4.5" fill="#1d4ed8" fill-opacity="0.9"/>
<circle cx="930.00" cy="435.32" r="4.5" fill="#1d4ed8" fill-opacity="0.9"/>
<rect x="90" y="32" width="18" height="6" fill="#1d4ed8"/>
<text x="114" y="38" font-size="13" fill="#333333">train</text>
<polyline fill="none" stroke="#d97706" stroke-width="3" points="90.00,375.19 107.14,410.36 124.29,408.56 141.43,370.58 158.57,414.97 175.71,423.01 192.86,420.87 210.00,425.42 227.14,409.34 244.29,420.13 261.43,423.64 278.57,425.63 295.71,426.95 312.86,421.67 330.00,422.52 347.14,420.98 364.29,427.13 381.43,425.98 398.57,425.99 415.71,425.95 432.86,428.06 450.00,428.00 467.14,427.35 484.29,427.21 501.43,426.47 518.57,425.14 535.71,425.80 552.86,426.51 570.00,423.12 587.14,425.56 604.29,425.59 621.43,425.18 638.57,426.40 655.71,424.47 672.86,426.00 690.00,425.93 707.14,423.68 724.29,426.95 741.43,404.70 758.57,426.54 775.71,425.85 792.86,424.78 810.00,424.96 827.14,427.18 844.29,424.80 861.43,419.21 878.57,426.23 895.71,425.70 912.86,424.91 930.00,421.16"/>
<circle cx="90.00" cy="375.19" r="4.5" fill="#d97706" fill-opacity="0.9"/>
<circle cx="107.14" cy="410.36" r="4.5" fill="#d97706" fill-opacity="0.9"/>
<circle cx="124.29" cy="408.56" r="4.5" fill="#d97706" fill-opacity="0.9"/>
<circle cx="141.43" cy="370.58" r="4.5" fill="#d97706" fill-opacity="0.9"/>
<circle cx="158.57" cy="414.97" r="4.5" fill="#d97706" fill-opacity="0.9"/>
<circle cx="175.71" cy="423.01" r="4.5" fill="#d97706" fill-opacity="0.9"/>
<circle cx="192.86" cy="420.87" r="4.5" fill="#d97706" fill-opacity="0.9"/>
<circle cx="210.00" cy="425.42" r="4.5" fill="#d97706" fill-opacity="0.9"/>
<circle cx="227.14" cy="409.34" r="4.5" fill="#d97706" fill-opacity="0.9"/>
<circle cx="244.29" cy="420.13" r="4.5" fill="#d97706" fill-opacity="0.9"/>
<circle cx="261.43" cy="423.64" r="4.5" fill="#d97706" fill-opacity="0.9"/>
<circle cx="278.57" cy="425.63" r="4.5" fill="#d97706" fill-opacity="0.9"/>
<circle cx="295.71" cy="426.95" r="4.5" fill="#d97706" fill-opacity="0.9"/>
<circle cx="312.86" cy="421.67" r="4.5" fill="#d97706" fill-opacity="0.9"/>
<circle cx="330.00" cy="422.52" r="4.5" fill="#d97706" fill-opacity="0.9"/>
<circle cx="347.14" cy="420.98" r="4.5" fill="#d97706" fill-opacity="0.9"/>
<circle cx="364.29" cy="427.13" r="4.5" fill="#d97706" fill-opacity="0.9"/>
<circle cx="381.43" cy="425.98" r="4.5" fill="#d97706" fill-opacity="0.9"/>
<circle cx="398.57" cy="425.99" r="4.5" fill="#d97706" fill-opacity="0.9"/>
<circle cx="415.71" cy="425.95" r="4.5" fill="#d97706" fill-opacity="0.9"/>
<circle cx="432.86" cy="428.06" r="4.5" fill="#d97706" fill-opacity="0.9"/>
<circle cx="450.00" cy="428.00" r="4.5" fill="#d97706" fill-opacity="0.9"/>
<circle cx="467.14" cy="427.35" r="4.5" fill="#d97706" fill-opacity="0.9"/>
<circle cx="484.29" cy="427.21" r="4.5" fill="#d97706" fill-opacity="0.9"/>
<circle cx="501.43" cy="426.47" r="4.5" fill="#d97706" fill-opacity="0.9"/>
<circle cx="518.57" cy="425.14" r="4.5" fill="#d97706" fill-opacity="0.9"/>
<circle cx="535.71" cy="425.80" r="4.5" fill="#d97706" fill-opacity="0.9"/>
<circle cx="552.86" cy="426.51" r="4.5" fill="#d97706" fill-opacity="0.9"/>
<circle cx="570.00" cy="423.12" r="4.5" fill="#d97706" fill-opacity="0.9"/>
<circle cx="587.14" cy="425.56" r="4.5" fill="#d97706" fill-opacity="0.9"/>
<circle cx="604.29" cy="425.59" r="4.5" fill="#d97706" fill-opacity="0.9"/>
<circle cx="621.43" cy="425.18" r="4.5" fill="#d97706" fill-opacity="0.9"/>
<circle cx="638.57" cy="426.40" r="4.5" fill="#d97706" fill-opacity="0.9"/>
<circle cx="655.71" cy="424.47" r="4.5" fill="#d97706" fill-opacity="0.9"/>
<circle cx="672.86" cy="426.00" r="4.5" fill="#d97706" fill-opacity="0.9"/>
<circle cx="690.00" cy="425.93" r="4.5" fill="#d97706" fill-opacity="0.9"/>
<circle cx="707.14" cy="423.68" r="4.5" fill="#d97706" fill-opacity="0.9"/>
<circle cx="724.29" cy="426.95" r="4.5" fill="#d97706" fill-opacity="0.9"/>
<circle cx="741.43" cy="404.70" r="4.5" fill="#d97706" fill-opacity="0.9"/>
<circle cx="758.57" cy="426.54" r="4.5" fill="#d97706" fill-opacity="0.9"/>
<circle cx="775.71" cy="425.85" r="4.5" fill="#d97706" fill-opacity="0.9"/>
<circle cx="792.86" cy="424.78" r="4.5" fill="#d97706" fill-opacity="0.9"/>
<circle cx="810.00" cy="424.96" r="4.5" fill="#d97706" fill-opacity="0.9"/>
<circle cx="827.14" cy="427.18" r="4.5" fill="#d97706" fill-opacity="0.9"/>
<circle cx="844.29" cy="424.80" r="4.5" fill="#d97706" fill-opacity="0.9"/>
<circle cx="861.43" cy="419.21" r="4.5" fill="#d97706" fill-opacity="0.9"/>
<circle cx="878.57" cy="426.23" r="4.5" fill="#d97706" fill-opacity="0.9"/>
<circle cx="895.71" cy="425.70" r="4.5" fill="#d97706" fill-opacity="0.9"/>
<circle cx="912.86" cy="424.91" r="4.5" fill="#d97706" fill-opacity="0.9"/>
<circle cx="930.00" cy="421.16" r="4.5" fill="#d97706" fill-opacity="0.9"/>
<rect x="270" y="32" width="18" height="6" fill="#d97706"/>
<text x="294" y="38" font-size="13" fill="#333333">val</text>
<polyline fill="none" stroke="#059669" stroke-width="3" points="90.00,374.65 107.14,410.48 124.29,409.26 141.43,372.19 158.57,415.30 175.71,423.25 192.86,421.68 210.00,425.34 227.14,410.33 244.29,420.55 261.43,423.82 278.57,426.15 295.71,427.25 312.86,421.23 330.00,423.13 347.14,420.54 364.29,426.90 381.43,425.91 398.57,426.48 415.71,426.23 432.86,427.90 450.00,428.10 467.14,428.29 484.29,427.09 501.43,426.22 518.57,425.11 535.71,427.25 552.86,426.78 570.00,423.43 587.14,425.86 604.29,425.94 621.43,424.25 638.57,426.02 655.71,424.16 672.86,425.74 690.00,425.45 707.14,423.29 724.29,426.85 741.43,405.35 758.57,426.59 775.71,424.80 792.86,424.93 810.00,424.99 827.14,426.52 844.29,424.00 861.43,418.94 878.57,425.86 895.71,425.50 912.86,424.70 930.00,420.46"/>
<circle cx="90.00" cy="374.65" r="4.5" fill="#059669" fill-opacity="0.9"/>
<circle cx="107.14" cy="410.48" r="4.5" fill="#059669" fill-opacity="0.9"/>
<circle cx="124.29" cy="409.26" r="4.5" fill="#059669" fill-opacity="0.9"/>
<circle cx="141.43" cy="372.19" r="4.5" fill="#059669" fill-opacity="0.9"/>
<circle cx="158.57" cy="415.30" r="4.5" fill="#059669" fill-opacity="0.9"/>
<circle cx="175.71" cy="423.25" r="4.5" fill="#059669" fill-opacity="0.9"/>
<circle cx="192.86" cy="421.68" r="4.5" fill="#059669" fill-opacity="0.9"/>
<circle cx="210.00" cy="425.34" r="4.5" fill="#059669" fill-opacity="0.9"/>
<circle cx="227.14" cy="410.33" r="4.5" fill="#059669" fill-opacity="0.9"/>
<circle cx="244.29" cy="420.55" r="4.5" fill="#059669" fill-opacity="0.9"/>
<circle cx="261.43" cy="423.82" r="4.5" fill="#059669" fill-opacity="0.9"/>
<circle cx="278.57" cy="426.15" r="4.5" fill="#059669" fill-opacity="0.9"/>
<circle cx="295.71" cy="427.25" r="4.5" fill="#059669" fill-opacity="0.9"/>
<circle cx="312.86" cy="421.23" r="4.5" fill="#059669" fill-opacity="0.9"/>
<circle cx="330.00" cy="423.13" r="4.5" fill="#059669" fill-opacity="0.9"/>
<circle cx="347.14" cy="420.54" r="4.5" fill="#059669" fill-opacity="0.9"/>
<circle cx="364.29" cy="426.90" r="4.5" fill="#059669" fill-opacity="0.9"/>
<circle cx="381.43" cy="425.91" r="4.5" fill="#059669" fill-opacity="0.9"/>
<circle cx="398.57" cy="426.48" r="4.5" fill="#059669" fill-opacity="0.9"/>
<circle cx="415.71" cy="426.23" r="4.5" fill="#059669" fill-opacity="0.9"/>
<circle cx="432.86" cy="427.90" r="4.5" fill="#059669" fill-opacity="0.9"/>
<circle cx="450.00" cy="428.10" r="4.5" fill="#059669" fill-opacity="0.9"/>
<circle cx="467.14" cy="428.29" r="4.5" fill="#059669" fill-opacity="0.9"/>
<circle cx="484.29" cy="427.09" r="4.5" fill="#059669" fill-opacity="0.9"/>
<circle cx="501.43" cy="426.22" r="4.5" fill="#059669" fill-opacity="0.9"/>
<circle cx="518.57" cy="425.11" r="4.5" fill="#059669" fill-opacity="0.9"/>
<circle cx="535.71" cy="427.25" r="4.5" fill="#059669" fill-opacity="0.9"/>
<circle cx="552.86" cy="426.78" r="4.5" fill="#059669" fill-opacity="0.9"/>
<circle cx="570.00" cy="423.43" r="4.5" fill="#059669" fill-opacity="0.9"/>
<circle cx="587.14" cy="425.86" r="4.5" fill="#059669" fill-opacity="0.9"/>
<circle cx="604.29" cy="425.94" r="4.5" fill="#059669" fill-opacity="0.9"/>
<circle cx="621.43" cy="424.25" r="4.5" fill="#059669" fill-opacity="0.9"/>
<circle cx="638.57" cy="426.02" r="4.5" fill="#059669" fill-opacity="0.9"/>
<circle cx="655.71" cy="424.16" r="4.5" fill="#059669" fill-opacity="0.9"/>
<circle cx="672.86" cy="425.74" r="4.5" fill="#059669" fill-opacity="0.9"/>
<circle cx="690.00" cy="425.45" r="4.5" fill="#059669" fill-opacity="0.9"/>
<circle cx="707.14" cy="423.29" r="4.5" fill="#059669" fill-opacity="0.9"/>
<circle cx="724.29" cy="426.85" r="4.5" fill="#059669" fill-opacity="0.9"/>
<circle cx="741.43" cy="405.35" r="4.5" fill="#059669" fill-opacity="0.9"/>
<circle cx="758.57" cy="426.59" r="4.5" fill="#059669" fill-opacity="0.9"/>
<circle cx="775.71" cy="424.80" r="4.5" fill="#059669" fill-opacity="0.9"/>
<circle cx="792.86" cy="424.93" r="4.5" fill="#059669" fill-opacity="0.9"/>
<circle cx="810.00" cy="424.99" r="4.5" fill="#059669" fill-opacity="0.9"/>
<circle cx="827.14" cy="426.52" r="4.5" fill="#059669" fill-opacity="0.9"/>
<circle cx="844.29" cy="424.00" r="4.5" fill="#059669" fill-opacity="0.9"/>
<circle cx="861.43" cy="418.94" r="4.5" fill="#059669" fill-opacity="0.9"/>
<circle cx="878.57" cy="425.86" r="4.5" fill="#059669" fill-opacity="0.9"/>
<circle cx="895.71" cy="425.50" r="4.5" fill="#059669" fill-opacity="0.9"/>
<circle cx="912.86" cy="424.70" r="4.5" fill="#059669" fill-opacity="0.9"/>
<circle cx="930.00" cy="420.46" r="4.5" fill="#059669" fill-opacity="0.9"/>
<rect x="450" y="32" width="18" height="6" fill="#059669"/>
<text x="474" y="38" font-size="13" fill="#333333">test</text>
</svg>