<svg xmlns="http://www.w3.org/2000/svg" width="960" height="540">
<rect width="100%" height="100%" fill="#ffffff"/>
<text x="480.0" y="30" font-size="22" text-anchor="middle" fill="#111111">Position 2 Accuracy</text>
<text x="20" y="270.0" font-size="16" transform="rotate(-90 20,270.0)" text-anchor="middle" fill="#333333">Accuracy</text>
<text x="480.0" y="520" font-size="16" text-anchor="middle" fill="#333333">Epoch</text>
<line x1="90" y1="60" x2="90" y2="470" stroke="#333333" stroke-width="2"/>
<line x1="90" y1="470" x2="930" y2="470" stroke="#333333" stroke-width="2"/>
<line x1="90" y1="470.00" x2="930" y2="470.00" stroke="#e5e7eb" stroke-width="1"/>
<text x="80" y="475.00" font-size="12" text-anchor="end" fill="#555555">0.8737</text>
<line x1="90" y1="367.50" x2="930" y2="367.50" stroke="#e5e7eb" stroke-width="1"/>
<text x="80" y="372.50" font-size="12" text-anchor="end" fill="#555555">0.9051</text>
<line x1="90" y1="265.00" x2="930" y2="265.00" stroke="#e5e7eb" stroke-width="1"/>
<text x="80" y="270.00" font-size="12" text-anchor="end" fill="#555555">0.9365</text>
<line x1="90" y1="162.50" x2="930" y2="162.50" stroke="#e5e7eb" stroke-width="1"/>
<text x="80" y="167.50" font-size="12" text-anchor="end" fill="#555555">0.9680</text>
<line x1="90" y1="60.00" x2="930" y2="60.00" stroke="#e5e7eb" stroke-width="1"/>
<text x="80" y="65.00" font-size="12" text-anchor="end" fill="#555555">0.9994</text>
<line x1="90.00" y1="60" x2="90.00" y2="470" stroke="#f3f4f6" stroke-width="1"/>
<text x="90.00" y="492" font-size="12" text-anchor="middle" fill="#555555">1</text>
<line x1="107.14" y1="60" x2="107.14" y2="470" stroke="#f3f4f6" stroke-width="1"/>
<text x="107.14" y="492" font-size="12" text-anchor="middle" fill="#555555">2</text>
<line x1="124.29" y1="60" x2="124.29" y2="470" stroke="#f3f4f6" stroke-width="1"/>
<text x="124.29" y="492" font-size="12" text-anchor="middle" fill="#555555">3</text>
<line x1="141.43" y1="60" x2="141.43" y2="470" stroke="#f3f4f6" stroke-width="1"/>
<text x="141.43" y="492" font-size="12" text-anchor="middle" fill="#555555">4</text>
<line x1="158.57" y1="60" x2="158.57" y2="470" stroke="#f3f4f6" stroke-width="1"/>
<text x="158.57" y="492" font-size="12" text-anchor="middle" fill="#555555">5</text>
<line x1="175.71" y1="60" x2="175.71" y2="470" stroke="#f3f4f6" stroke-width="1"/>
<text x="175.71" y="492" font-size="12" text-anchor="middle" fill="#555555">6</text>
<line x1="192.86" y1="60" x2="192.86" y2="470" stroke="#f3f4f6" stroke-width="1"/>
<text x="192.86" y="492" font-size="12" text-anchor="middle" fill="#555555">7</text>
<line x1="210.00" y1="60" x2="210.00" y2="470" stroke="#f3f4f6" stroke-width="1"/>
<text x="210.00" y="492" font-size="12" text-anchor="middle" fill="#555555">8</text>
<line x1="227.14" y1="60" x2="227.14" y2="470" stroke="#f3f4f6" stroke-width="1"/>
<text x="227.14" y="492" font-size="12" text-anchor="middle" fill="#555555">9</text>
<line x1="244.29" y1="60" x2="244.29" y2="470" stroke="#f3f4f6" stroke-width="1"/>
<text x="244.29" y="492" font-size="12" text-anchor="middle" fill="#555555">10</text>
<line x1="261.43" y1="60" x2="261.43" y2="470" stroke="#f3f4f6" stroke-width="1"/>
<text x="261.43" y="492" font-size="12" text-anchor="middle" fill="#555555">11</text>
<line x1="278.57" y1="60" x2="278.57" y2="470" stroke="#f3f4f6" stroke-width="1"/>
<text x="278.57" y="492" font-size="12" text-anchor="middle" fill="#555555">12</text>
<line x1="295.71" y1="60" x2="295.71" y2="470" stroke="#f3f4f6" stroke-width="1"/>
<text x="295.71" y="492" font-size="12" text-anchor="middle" fill="#555555">13</text>
<line x1="312.86" y1="60" x2="312.86" y2="470" stroke="#f3f4f6" stroke-width="1"/>
<text x="312.86" y="492" font-size="12" text-anchor="middle" fill="#555555">14</text>
<line x1="330.00" y1="60" x2="330.00" y2="470" stroke="#f3f4f6" stroke-width="1"/>
<text x="330.00" y="492" font-size="12" text-anchor="middle" fill="#555555">15</text>
<line x1="347.14" y1="60" x2="347.14" y2="470" stroke="#f3f4f6" stroke-width="1"/>
<text x="347.14" y="492" font-size="12" text-anchor="middle" fill="#555555">16</text>
<line x1="364.29" y1="60" x2="364.29" y2="470" stroke="#f3f4f6" stroke-width="1"/>
<text x="364.29" y="492" font-size="12" text-anchor="middle" fill="#555555">17</text>
<line x1="381.43" y1="60" x2="381.43" y2="470" stroke="#f3f4f6" stroke-width="1"/>
<text x="381.43" y="492" font-size="12" text-anchor="middle" fill="#555555">18</text>
<line x1="398.57" y1="60" x2="398.57" y2="470" stroke="#f3f4f6" stroke-width="1"/>
<text x="398.57" y="492" font-size="12" text-anchor="middle" fill="#555555">19</text>
<line x1="415.71" y1="60" x2="415.71" y2="470" stroke="#f3f4f6" stroke-width="1"/>
<text x="415.71" y="492" font-size="12" text-anchor="middle" fill="#555555">20</text>
<line x1="432.86" y1="60" x2="432.86" y2="470" stroke="#f3f4f6" stroke-width="1"/>
<text x="432.86" y="492" font-size="12" text-anchor="middle" fill="#555555">21</text>
<line x1="450.00" y1="60" x2="450.00" y2="470" stroke="#f3f4f6" stroke-width="1"/>
<text x="450.00" y="492" font-size="12" text-anchor="middle" fill="#555555">22</text>
<line x1="467.14" y1="60" x2="467.14" y2="470" stroke="#f3f4f6" stroke-width="1"/>
<text x="467.14" y="492" font-size="12" text-anchor="middle" fill="#555555">23</text>
<line x1="484.29" y1="60" x2="484.29" y2="470" stroke="#f3f4f6" stroke-width="1"/>
<text x="484.29" y="492" font-size="12" text-anchor="middle" fill="#555555">24</text>
<line x1="501.43" y1="60" x2="501.43" y2="470" stroke="#f3f4f6" stroke-width="1"/>
<text x="501.43" y="492" font-size="12" text-anchor="middle" fill="#555555">25</text>
<line x1="518.57" y1="60" x2="518.57" y2="470" stroke="#f3f4f6" stroke-width="1"/>
<text x="518.57" y="492" font-size="12" text-anchor="middle" fill="#555555">26</text>
<line x1="535.71" y1="60" x2="535.71" y2="470" stroke="#f3f4f6" stroke-width="1"/>
<text x="535.71" y="492" font-size="12" text-anchor="middle" fill="#555555">27</text>
<line x1="552.86" y1="60" x2="552.86" y2="470" stroke="#f3f4f6" stroke-width="1"/>
<text x="552.86" y="492" font-size="12" text-anchor="middle" fill="#555555">28</text>
<line x1="570.00" y1="60" x2="570.00" y2="470" stroke="#f3f4f6" stroke-width="1"/>
<text x="570.00" y="492" font-size="12" text-anchor="middle" fill="#555555">29</text>
<line x1="587.14" y1="60" x2="587.14" y2="470" stroke="#f3f4f6" stroke-width="1"/>
<text x="587.14" y="492" font-size="12" text-anchor="middle" fill="#555555">30</text>
<line x1="604.29" y1="60" x2="604.29" y2="470" stroke="#f3f4f6" stroke-width="1"/>
<text x="604.29" y="492" font-size="12" text-anchor="middle" fill="#555555">31</text>
<line x1="621.43" y1="60" x2="621.43" y2="470" stroke="#f3f4f6" stroke-width="1"/>
<text x="621.43" y="492" font-size="12" text-anchor="middle" fill="#555555">32</text>
<line x1="638.57" y1="60" x2="638.57" y2="470" stroke="#f3f4f6" stroke-width="1"/>
<text x="638.57" y="492" font-size="12" text-anchor="middle" fill="#555555">33</text>
<line x1="655.71" y1="60" x2="655.71" y2="470" stroke="#f3f4f6" stroke-width="1"/>
<text x="655.71" y="492" font-size="12" text-anchor="middle" fill="#555555">34</text>
<line x1="672.86" y1="60" x2="672.86" y2="470" stroke="#f3f4f6" stroke-width="1"/>
<text x="672.86" y="492" font-size="12" text-anchor="middle" fill="#555555">35</text>
<line x1="690.00" y1="60" x2="690.00" y2="470" stroke="#f3f4f6" stroke-width="1"/>
<text x="690.00" y="492" font-size="12" text-anchor="middle" fill="#555555">36</text>
<line x1="707.14" y1="60" x2="707.14" y2="470" stroke="#f3f4f6" stroke-width="1"/>
<text x="707.14" y="492" font-size="12" text-anchor="middle" fill="#555555">37</text>
<line x1="724.29" y1="60" x2="724.29" y2="470" stroke="#f3f4f6" stroke-width="1"/>
<text x="724.29" y="492" font-size="12" text-anchor="middle" fill="#555555">38</text>
<line x1="741.43" y1="60" x2="741.43" y2="470" stroke="#f3f4f6" stroke-width="1"/>
<text x="741.43" y="492" font-size="12" text-anchor="middle" fill="#555555">39</text>
<line x1="758.57" y1="60" x2="758.57" y2="470" stroke="#f3f4f6" stroke-width="1"/>
<text x="758.57" y="492" font-size="12" text-anchor="middle" fill="#555555">40</text>
<line x1="775.71" y1="60" x2="775.71" y2="470" stroke="#f3f4f6" stroke-width="1"/>
<text x="775.71" y="492" font-size="12" text-anchor="middle" fill="#555555">41</text>
<line x1="792.86" y1="60" x2="792.86" y2="470" stroke="#f3f4f6" stroke-width="1"/>
<text x="792.86" y="492" font-size="12" text-anchor="middle" fill="#555555">42</text>
<line x1="810.00" y1="60" x2="810.00" y2="470" stroke="#f3f4f6" stroke-width="1"/>
<text x="810.00" y="492" font-size="12" text-anchor="middle" fill="#555555">43</text>
<line x1="827.14" y1="60" x2="827.14" y2="470" stroke="#f3f4f6" stroke-width="1"/>
<text x="827.14" y="492" font-size="12" text-anchor="middle" fill="#555555">44</text>
<line x1="844.29" y1="60" x2="844.29" y2="470" stroke="#f3f4f6" stroke-width="1"/>
<text x="844.29" y="492" font-size="12" text-anchor="middle" fill="#555555">45</text>
<line x1="861.43" y1="60" x2="861.43" y2="470" stroke="#f3f4f6" stroke-width="1"/>
<text x="861.43" y="492" font-size="12" text-anchor="middle" fill="#555555">46</text>
<line x1="878.57" y1="60" x2="878.57" y2="470" stroke="#f3f4f6" stroke-width="1"/>
<text x="878.57" y="492" font-size="12" text-anchor="middle" fill="#555555">47</text>
<line x1="895.71" y1="60" x2="895.71" y2="470" stroke="#f3f4f6" stroke-width="1"/>
<text x="895.71" y="492" font-size="12" text-anchor="middle" fill="#555555">48</text>
<line x1="912.86" y1="60" x2="912.86" y2="470" stroke="#f3f4f6" stroke-width="1"/>
<text x="912.86" y="492" font-size="12" text-anchor="middle" fill="#555555">49</text>
<line x1="930.00" y1="60" x2="930.00" y2="470" stroke="#f3f4f6" stroke-width="1"/>
<text x="930.00" y="492" font-size="12" text-anchor="middle" fill="#555555">50</text>
<polyline fill="none" stroke="#d97706" stroke-width="3" points="90.00,387.58 107.14,196.10 124.29,201.75 141.43,435.83 158.57,187.19 175.71,131.98 192.86,148.94 210.00,125.46 227.14,167.85 244.29,127.20 261.43,128.51 278.57,116.12 295.71,106.56 312.86,140.46 330.00,124.81 347.14,128.07 364.29,111.77 381.43,110.68 398.57,105.90 415.71,106.56 432.86,101.56 450.00,95.47 467.14,106.34 484.29,102.43 501.43,100.90 518.57,107.86 535.71,104.38 552.86,99.38 570.00,108.51 587.14,103.73 604.29,103.08 621.43,109.38 638.57,97.64 655.71,110.47 672.86,103.08 690.00,102.43 707.14,105.69 724.29,94.17 741.43,154.15 758.57,96.56 775.71,104.16 792.86,106.56 810.00,99.17 827.14,96.99 844.29,100.47 861.43,107.42 878.57,96.77 895.71,100.90 912.86,96.34 930.00,104.82"/>
<circle cx="90.00" cy="387.58" r="4.5" fill="#d97706" fill-opacity="0.9"/>
<circle cx="107.14" cy="196.10" r="4.5" fill="#d97706" fill-opacity="0.9"/>
<circle cx="124.29" cy="201.75" r="4.5" fill="#d97706" fill-opacity="0.9"/>
<circle cx="141.43" cy="435.83" r="4.5" fill="#d97706" fill-opacity="0.9"/>
<circle cx="158.57" cy="187.19" r="4.5" fill="#d97706" fill-opacity="0.9"/>
<circle cx="175.71" cy="131.98" r="4.5" fill="#d97706" fill-opacity="0.9"/>
<circle cx="192.86" cy="148.94" r="4.5" fill="#d97706" fill-opacity="0.9"/>
<circle cx="210.00" cy="125.46" r="4.5" fill="#d97706" fill-opacity="0.9"/>
<circle cx="227.14" cy="167.85" r="4.5" fill="#d97706" fill-opacity="0.9"/>
<circle cx="244.29" cy="127.20" r="4.5" fill="#d97706" fill-opacity="0.9"/>
<circle cx="261.43" cy="128.51" r="4.5" fill="#d97706" fill-opacity="0.9"/>
<circle cx="278.57" cy="116.12" r="4.5" fill="#d97706" fill-opacity="0.9"/>
<circle cx="295.71" cy="106.56" r="4.5" fill="#d97706" fill-opacity="0.9"/>
<circle cx="312.86" cy="140.46" r="4.5" fill="#d97706" fill-opacity="0.9"/>
<circle cx="330.00" cy="124.81" r="4.5" fill="#d97706" fill-opacity="0.9"/>
<circle cx="347.14" cy="128.07" r="4.5" fill="#d97706" fill-opacity="0.9"/>
<circle cx="364.29" cy="111.77" r="4.5" fill="#d97706" fill-opacity="0.9"/>
<circle cx="381.43" cy="110.68" r="4.5" fill="#d97706" fill-opacity="0.9"/>
<circle cx="398.57" cy="105.90" r="4.5" fill="#d97706" fill-opacity="0.9"/>
<circle cx="415.71" cy="106.56" r="4.5" fill="#d97706" fill-opacity="0.9"/>
<circle cx="432.86" cy="101.56" r="4.5" fill="#d97706" fill-opacity="0.9"/>
<circle cx="450.00" cy="95.47" r="4.5" fill="#d97706" fill-opacity="0.9"/>
<circle cx="467.14" cy="106.34" r="4.5" fill="#d97706" fill-opacity="0.9"/>
<circle cx="484.29" cy="102.43" r="4.5" fill="#d97706" fill-opacity="0.9"/>
<circle cx="501.43" cy="100.90" r="4.5" fill="#d97706" fill-opacity="0.9"/>
<circle cx="518.57" cy="107.86" r="4.5" fill="#d97706" fill-opacity="0.9"/>
<circle cx="535.71" cy="104.38" r="4.5" fill="#d97706" fill-opacity="0.9"/>
<circle cx="552.86" cy="99.38" r="4.5" fill="#d97706" fill-opacity="0.9"/>
<circle cx="570.00" cy="108.51" r="4.5" fill="#d97706" fill-opacity="0.9"/>
<circle cx="587.14" cy="103.73" r="4.5" fill="#d97706" fill-opacity="0.9"/>
<circle cx="604.29" cy="103.08" r="4.5" fill="#d97706" fill-opacity="0.9"/>
<circle cx="621.43" cy="109.38" r="4.5" fill="#d97706" fill-opacity="0.9"/>
<circle cx="638.57" cy="97.64" r="4.5" fill="#d97706" fill-opacity="0.9"/>
<circle cx="655.71" cy="110.47" r="4.5" fill="#d97706" fill-opacity="0.9"/>
<circle cx="672.86" cy="103.08" r="4.5" fill="#d97706" fill-opacity="0.9"/>
<circle cx="690.00" cy="102.43" r="4.5" fill="#d97706" fill-opacity="0.9"/>
<circle cx="707.14" cy="105.69" r="4.5" fill="#d97706" fill-opacity="0.9"/>
<circle cx="724.29" cy="94.17" r="4.5" fill="#d97706" fill-opacity="0.9"/>
<circle cx="741.43" cy="154.15" r="4.5" fill="#d97706" fill-opacity="0.9"/>
<circle cx="758.57" cy="96.56" r="4.5" fill="#d97706" fill-opacity="0.9"/>
<circle cx="775.71" cy="104.16" r="4.5" fill="#d97706" fill-opacity="0.9"/>
<circle cx="792.86" cy="106.56" r="4.5" fill="#d97706" fill-opacity="0.9"/>
<circle cx="810.00" cy="99.17" r="4.5" fill="#d97706" fill-opacity="0.9"/>
<circle cx="827.14" cy="96.99" r="4.5" fill="#d97706" fill-opacity="0.9"/>
<circle cx="844.29" cy="100.47" r="4.5" fill="#d97706" fill-opacity="0.9"/>
<circle cx="861.43" cy="107.42" r="4.5" fill="#d97706" fill-opacity="0.9"/>
<circle cx="878.57" cy="96.77" r="4.5" fill="#d97706" fill-opacity="0.9"/>
<circle cx="895.71" cy="100.90" r="4.5" fill="#d97706" fill-opacity="0.9"/>
<circle cx="912.86" cy="96.34" r="4.5" fill="#d97706" fill-opacity="0.9"/>
<circle cx="930.00" cy="104.82" r="4.5" fill="#d97706" fill-opacity="0.9"/>
<rect x="90" y="32" width="18" height="6" fill="#d97706"/>
<text x="114" y="38" font-size="13" fill="#333333">val</text>
<polyline fill="none" stroke="#059669" stroke-width="3" points="90.00,394.10 107.14,203.49 124.29,212.62 141.43,434.75 158.57,188.93 175.71,137.20 192.86,146.11 210.00,126.33 227.14,171.76 244.29,131.98 261.43,131.55 278.57,115.90 295.71,115.90 312.86,146.55 330.00,127.20 347.14,133.29 364.29,115.25 381.43,111.12 398.57,111.12 415.71,110.90 432.86,105.90 450.00,102.64 467.14,101.12 484.29,107.42 501.43,105.69 518.57,112.64 535.71,104.60 552.86,98.08 570.00,107.64 587.14,111.12 604.29,108.73 621.43,108.95 638.57,104.38 655.71,112.64 672.86,111.34 690.00,103.73 707.14,108.95 724.29,99.60 741.43,159.80 758.57,104.38 775.71,106.12 792.86,109.82 810.00,104.16 827.14,99.60 844.29,105.47 861.43,107.21 878.57,100.90 895.71,102.43 912.86,101.34 930.00,108.95"/>
<circle cx="90.00" cy="394.10" r="4.5" fill="#059669" fill-opacity="0.9"/>
<circle cx="107.14" cy="203.49" r="4.5" fill="#059669" fill-opacity="0.9"/>
<circle cx="124.29" cy="212.62" r="4.5" fill="#059669" fill-opacity="0.9"/>
<circle cx="141.43" cy="434.75" r="4.5" fill="#059669" fill-opacity="0.9"/>
<circle cx="158.57" cy="188.93" r="4.5" fill="#059669" fill-opacity="0.9"/>
<circle cx="175.71" cy="137.20" r="4.5" fill="#059669" fill-opacity="0.9"/>
<circle cx="192.86" cy="146.11" r="4.5" fill="#059669" fill-opacity="0.9"/>
<circle cx="210.00" cy="126.33" r="4.5" fill="#059669" fill-opacity="0.9"/>
<circle cx="227.14" cy="171.76" r="4.5" fill="#059669" fill-opacity="0.9"/>
<circle cx="244.29" cy="131.98" r="4.5" fill="#059669" fill-opacity="0.9"/>
<circle cx="261.43" cy="131.55" r="4.5" fill="#059669" fill-opacity="0.9"/>
<circle cx="278.57" cy="115.90" r="4.5" fill="#059669" fill-opacity="0.9"/>
<circle cx="295.71" cy="115.90" r="4.5" fill="#059669" fill-opacity="0.9"/>
<circle cx="312.86" cy="146.55" r="4.5" fill="#059669" fill-opacity="0.9"/>
<circle cx="330.00" cy="127.20" r="4.5" fill="#059669" fill-opacity="0.9"/>
<circle cx="347.14" cy="133.29" r="4.5" fill="#059669" fill-opacity="0.9"/>
<circle cx="364.29" cy="115.25" r="4.5" fill="#059669" fill-opacity="0.9"/>
<circle cx="381.43" cy="111.12" r="4.5" fill="#059669" fill-opacity="0.9"/>
<circle cx="398.57" cy="111.12" r="4.5" fill="#059669" fill-opacity="0.9"/>
<circle cx="415.71" cy="110.90" r="4.5" fill="#059669" fill-opacity="0.9"/>
<circle cx="432.86" cy="105.90" r="4.5" fill="#059669" fill-opacity="0.9"/>
<circle cx="450.00" cy="102.64" r="4.5" fill="#059669" fill-opacity="0.9"/>
<circle cx="467.14" cy="101.12" r="4.5" fill="#059669" fill-opacity="0.9"/>
<circle cx="484.29" cy="107.42" r="4.5" fill="#059669" fill-opacity="0.9"/>
<circle cx="501.43" cy="105.69" r="4.5" fill="#059669" fill-opacity="0.9"/>
<circle cx="518.57" cy="112.64" r="4.5" fill="#059669" fill-opacity="0.9"/>
<circle cx="535.71" cy="104.60" r="4.5" fill="#059669" fill-opacity="0.9"/>
<circle cx="552.86" cy="98.08" r="4.5" fill="#059669" fill-opacity="0.9"/>
<circle cx="570.00" cy="107.64" r="4.5" fill="#059669" fill-opacity="0.9"/>
<circle cx="587.14" cy="111.12" r="4.5" fill="#059669" fill-opacity="0.9"/>
<circle cx="604.29" cy="108.73" r="4.5" fill="#059669" fill-opacity="0.9"/>
<circle cx="621.43" cy="108.95" r="4.5" fill="#059669" fill-opacity="0.9"/>
<circle cx="638.57" cy="104.38" r="4.5" fill="#059669" fill-opacity="0.9"/>
<circle cx="655.71" cy="112.64" r="4.5" fill="#059669" fill-opacity="0.9"/>
<circle cx="672.86" cy="111.34" r="4.5" fill="#059669" fill-opacity="0.9"/>
<circle cx="690.00" cy="103.73" r="4.5" fill="#059669" fill-opacity="0.9"/>
<circle cx="707.14" cy="108.95" r="4.5" fill="#059669" fill-opacity="0.9"/>
<circle cx="724.29" cy="99.60" r="4.5" fill="#059669" fill-opacity="0.9"/>
<circle cx="741.43" cy="159.80" r="4.5" fill="#059669" fill-opacity="0.9"/>
<circle cx="758.57" cy="104.38" r="4.5" fill="#059669" fill-opacity="0.9"/>
<circle cx="775.71" cy="106.12" r="4.5" fill="#059669" fill-opacity="0.9"/>
<circle cx="792.86" cy="109.82" r="4.5" fill="#059669" fill-opacity="0.9"/>
<circle cx="810.00" cy="104.16" r="4.5" fill="#059669" fill-opacity="0.9"/>
<circle cx="827.14" cy="99.60" r="4.5" fill="#059669" fill-opacity="0.9"/>
<circle cx="844.29" cy="105.47" r="4.5" fill="#059669" fill-opacity="0.9"/>
<circle cx="861.43" cy="107.21" r="4.5" fill="#059669" fill-opacity="0.9"/>
<circle cx="878.57" cy="100.90" r="4.5" fill="#059669" fill-opacity="0.9"/>
<circle cx="895.71" cy="102.43" r="4.5" fill="#059669" fill-opacity="0.9"/>
<circle cx="912.86" cy="101.34" r="4.5" fill="#059669" fill-opacity="0.9"/>
<circle cx="930.00" cy="108.95" r="4.5" fill="#059669" fill-opacity="0.9"/>
<rect x="270" y="32" width="18" height="6" fill="#059669"/>
<text x="294" y="38" font-size="13" fill="#333333">test</text>
</svg>