<svg xmlns="http://www.w3.org/2000/svg" width="960" height="540">
<rect width="100%" height="100%" fill="#ffffff"/>
<text x="480.0" y="30" font-size="22" text-anchor="middle" fill="#111111">Position 4 Accuracy</text>
<text x="20" y="270.0" font-size="16" transform="rotate(-90 20,270.0)" text-anchor="middle" fill="#333333">Accuracy</text>
<text x="480.0" y="520" font-size="16" text-anchor="middle" fill="#333333">Epoch</text>
<line x1="90" y1="60" x2="90" y2="470" stroke="#333333" stroke-width="2"/>
<line x1="90" y1="470" x2="930" y2="470" stroke="#333333" stroke-width="2"/>
<line x1="90" y1="470.00" x2="930" y2="470.00" stroke="#e5e7eb" stroke-width="1"/>
<text x="80" y="475.00" font-size="12" text-anchor="end" fill="#555555">0.9090</text>
<line x1="90" y1="367.50" x2="930" y2="367.50" stroke="#e5e7eb" stroke-width="1"/>
<text x="80" y="372.50" font-size="12" text-anchor="end" fill="#555555">0.9311</text>
<line x1="90" y1="265.00" x2="930" y2="265.00" stroke="#e5e7eb" stroke-width="1"/>
<text x="80" y="270.00" font-size="12" text-anchor="end" fill="#555555">0.9532</text>
<line x1="90" y1="162.50" x2="930" y2="162.50" stroke="#e5e7eb" stroke-width="1"/>
<text x="80" y="167.50" font-size="12" text-anchor="end" fill="#555555">0.9753</text>
<line x1="90" y1="60.00" x2="930" y2="60.00" stroke="#e5e7eb" stroke-width="1"/>
<text x="80" y="65.00" font-size="12" text-anchor="end" fill="#555555">0.9974</text>
<line x1="90.00" y1="60" x2="90.00" y2="470" stroke="#f3f4f6" stroke-width="1"/>
<text x="90.00" y="492" font-size="12" text-anchor="middle" fill="#555555">1</text>
<line x1="107.14" y1="60" x2="107.14" y2="470" stroke="#f3f4f6" stroke-width="1"/>
<text x="107.14" y="492" font-size="12" text-anchor="middle" fill="#555555">2</text>
<line x1="124.29" y1="60" x2="124.29" y2="470" stroke="#f3f4f6" stroke-width="1"/>
<text x="124.29" y="492" font-size="12" text-anchor="middle" fill="#555555">3</text>
<line x1="141.43" y1="60" x2="141.43" y2="470" stroke="#f3f4f6" stroke-width="1"/>
<text x="141.43" y="492" font-size="12" text-anchor="middle" fill="#555555">4</text>
<line x1="158.57" y1="60" x2="158.57" y2="470" stroke="#f3f4f6" stroke-width="1"/>
<text x="158.57" y="492" font-size="12" text-anchor="middle" fill="#555555">5</text>
<line x1="175.71" y1="60" x2="175.71" y2="470" stroke="#f3f4f6" stroke-width="1"/>
<text x="175.71" y="492" font-size="12" text-anchor="middle" fill="#555555">6</text>
<line x1="192.86" y1="60" x2="192.86" y2="470" stroke="#f3f4f6" stroke-width="1"/>
<text x="192.86" y="492" font-size="12" text-anchor="middle" fill="#555555">7</text>
<line x1="210.00" y1="60" x2="210.00" y2="470" stroke="#f3f4f6" stroke-width="1"/>
<text x="210.00" y="492" font-size="12" text-anchor="middle" fill="#555555">8</text>
<line x1="227.14" y1="60" x2="227.14" y2="470" stroke="#f3f4f6" stroke-width="1"/>
<text x="227.14" y="492" font-size="12" text-anchor="middle" fill="#555555">9</text>
<line x1="244.29" y1="60" x2="244.29" y2="470" stroke="#f3f4f6" stroke-width="1"/>
<text x="244.29" y="492" font-size="12" text-anchor="middle" fill="#555555">10</text>
<line x1="261.43" y1="60" x2="261.43" y2="470" stroke="#f3f4f6" stroke-width="1"/>
<text x="261.43" y="492" font-size="12" text-anchor="middle" fill="#555555">11</text>
<line x1="278.57" y1="60" x2="278.57" y2="470" stroke="#f3f4f6" stroke-width="1"/>
<text x="278.57" y="492" font-size="12" text-anchor="middle" fill="#555555">12</text>
<line x1="295.71" y1="60" x2="295.71" y2="470" stroke="#f3f4f6" stroke-width="1"/>
<text x="295.71" y="492" font-size="12" text-anchor="middle" fill="#555555">13</text>
<line x1="312.86" y1="60" x2="312.86" y2="470" stroke="#f3f4f6" stroke-width="1"/>
<text x="312.86" y="492" font-size="12" text-anchor="middle" fill="#555555">14</text>
<line x1="330.00" y1="60" x2="330.00" y2="470" stroke="#f3f4f6" stroke-width="1"/>
<text x="330.00" y="492" font-size="12" text-anchor="middle" fill="#555555">15</text>
<line x1="347.14" y1="60" x2="347.14" y2="470" stroke="#f3f4f6" stroke-width="1"/>
<text x="347.14" y="492" font-size="12" text-anchor="middle" fill="#555555">16</text>
<line x1="364.29" y1="60" x2="364.29" y2="470" stroke="#f3f4f6" stroke-width="1"/>
<text x="364.29" y="492" font-size="12" text-anchor="middle" fill="#555555">17</text>
<line x1="381.43" y1="60" x2="381.43" y2="470" stroke="#f3f4f6" stroke-width="1"/>
<text x="381.43" y="492" font-size="12" text-anchor="middle" fill="#555555">18</text>
<line x1="398.57" y1="60" x2="398.57" y2="470" stroke="#f3f4f6" stroke-width="1"/>
<text x="398.57" y="492" font-size="12" text-anchor="middle" fill="#555555">19</text>
<line x1="415.71" y1="60" x2="415.71" y2="470" stroke="#f3f4f6" stroke-width="1"/>
<text x="415.71" y="492" font-size="12" text-anchor="middle" fill="#555555">20</text>
<line x1="432.86" y1="60" x2="432.86" y2="470" stroke="#f3f4f6" stroke-width="1"/>
<text x="432.86" y="492" font-size="12" text-anchor="middle" fill="#555555">21</text>
<line x1="450.00" y1="60" x2="450.00" y2="470" stroke="#f3f4f6" stroke-width="1"/>
<text x="450.00" y="492" font-size="12" text-anchor="middle" fill="#555555">22</text>
<line x1="467.14" y1="60" x2="467.14" y2="470" stroke="#f3f4f6" stroke-width="1"/>
<text x="467.14" y="492" font-size="12" text-anchor="middle" fill="#555555">23</text>
<line x1="484.29" y1="60" x2="484.29" y2="470" stroke="#f3f4f6" stroke-width="1"/>
<text x="484.29" y="492" font-size="12" text-anchor="middle" fill="#555555">24</text>
<line x1="501.43" y1="60" x2="501.43" y2="470" stroke="#f3f4f6" stroke-width="1"/>
<text x="501.43" y="492" font-size="12" text-anchor="middle" fill="#555555">25</text>
<line x1="518.57" y1="60" x2="518.57" y2="470" stroke="#f3f4f6" stroke-width="1"/>
<text x="518.57" y="492" font-size="12" text-anchor="middle" fill="#555555">26</text>
<line x1="535.71" y1="60" x2="535.71" y2="470" stroke="#f3f4f6" stroke-width="1"/>
<text x="535.71" y="492" font-size="12" text-anchor="middle" fill="#555555">27</text>
<line x1="552.86" y1="60" x2="552.86" y2="470" stroke="#f3f4f6" stroke-width="1"/>
<text x="552.86" y="492" font-size="12" text-anchor="middle" fill="#555555">28</text>
<line x1="570.00" y1="60" x2="570.00" y2="470" stroke="#f3f4f6" stroke-width="1"/>
<text x="570.00" y="492" font-size="12" text-anchor="middle" fill="#555555">29</text>
<line x1="587.14" y1="60" x2="587.14" y2="470" stroke="#f3f4f6" stroke-width="1"/>
<text x="587.14" y="492" font-size="12" text-anchor="middle" fill="#555555">30</text>
<line x1="604.29" y1="60" x2="604.29" y2="470" stroke="#f3f4f6" stroke-width="1"/>
<text x="604.29" y="492" font-size="12" text-anchor="middle" fill="#555555">31</text>
<line x1="621.43" y1="60" x2="621.43" y2="470" stroke="#f3f4f6" stroke-width="1"/>
<text x="621.43" y="492" font-size="12" text-anchor="middle" fill="#555555">32</text>
<line x1="638.57" y1="60" x2="638.57" y2="470" stroke="#f3f4f6" stroke-width="1"/>
<text x="638.57" y="492" font-size="12" text-anchor="middle" fill="#555555">33</text>
<line x1="655.71" y1="60" x2="655.71" y2="470" stroke="#f3f4f6" stroke-width="1"/>
<text x="655.71" y="492" font-size="12" text-anchor="middle" fill="#555555">34</text>
<line x1="672.86" y1="60" x2="672.86" y2="470" stroke="#f3f4f6" stroke-width="1"/>
<text x="672.86" y="492" font-size="12" text-anchor="middle" fill="#555555">35</text>
<line x1="690.00" y1="60" x2="690.00" y2="470" stroke="#f3f4f6" stroke-width="1"/>
<text x="690.00" y="492" font-size="12" text-anchor="middle" fill="#555555">36</text>
<line x1="707.14" y1="60" x2="707.14" y2="470" stroke="#f3f4f6" stroke-width="1"/>
<text x="707.14" y="492" font-size="12" text-anchor="middle" fill="#555555">37</text>
<line x1="724.29" y1="60" x2="724.29" y2="470" stroke="#f3f4f6" stroke-width="1"/>
<text x="724.29" y="492" font-size="12" text-anchor="middle" fill="#555555">38</text>
<line x1="741.43" y1="60" x2="741.43" y2="470" stroke="#f3f4f6" stroke-width="1"/>
<text x="741.43" y="492" font-size="12" text-anchor="middle" fill="#555555">39</text>
<line x1="758.57" y1="60" x2="758.57" y2="470" stroke="#f3f4f6" stroke-width="1"/>
<text x="758.57" y="492" font-size="12" text-anchor="middle" fill="#555555">40</text>
<line x1="775.71" y1="60" x2="775.71" y2="470" stroke="#f3f4f6" stroke-width="1"/>
<text x="775.71" y="492" font-size="12" text-anchor="middle" fill="#555555">41</text>
<line x1="792.86" y1="60" x2="792.86" y2="470" stroke="#f3f4f6" stroke-width="1"/>
<text x="792.86" y="492" font-size="12" text-anchor="middle" fill="#555555">42</text>
<line x1="810.00" y1="60" x2="810.00" y2="470" stroke="#f3f4f6" stroke-width="1"/>
<text x="810.00" y="492" font-size="12" text-anchor="middle" fill="#555555">43</text>
<line x1="827.14" y1="60" x2="827.14" y2="470" stroke="#f3f4f6" stroke-width="1"/>
<text x="827.14" y="492" font-size="12" text-anchor="middle" fill="#555555">44</text>
<line x1="844.29" y1="60" x2="844.29" y2="470" stroke="#f3f4f6" stroke-width="1"/>
<text x="844.29" y="492" font-size="12" text-anchor="middle" fill="#555555">45</text>
<line x1="861.43" y1="60" x2="861.43" y2="470" stroke="#f3f4f6" stroke-width="1"/>
<text x="861.43" y="492" font-size="12" text-anchor="middle" fill="#555555">46</text>
<line x1="878.57" y1="60" x2="878.57" y2="470" stroke="#f3f4f6" stroke-width="1"/>
<text x="878.57" y="492" font-size="12" text-anchor="middle" fill="#555555">47</text>
<line x1="895.71" y1="60" x2="895.71" y2="470" stroke="#f3f4f6" stroke-width="1"/>
<text x="895.71" y="492" font-size="12" text-anchor="middle" fill="#555555">48</text>
<line x1="912.86" y1="60" x2="912.86" y2="470" stroke="#f3f4f6" stroke-width="1"/>
<text x="912.86" y="492" font-size="12" text-anchor="middle" fill="#555555">49</text>
<line x1="930.00" y1="60" x2="930.00" y2="470" stroke="#f3f4f6" stroke-width="1"/>
<text x="930.00" y="492" font-size="12" text-anchor="middle" fill="#555555">50</text>
<polyline fill="none" stroke="#d97706" stroke-width="3" points="90.00,430.58 107.14,224.84 124.29,260.06 141.43,316.90 158.57,205.38 175.71,154.41 192.86,144.83 210.00,142.05 227.14,218.35 244.29,168.62 261.43,125.68 278.57,123.21 295.71,112.39 312.86,135.25 330.00,150.70 347.14,139.27 364.29,123.21 381.43,123.82 398.57,116.10 415.71,116.10 432.86,104.36 450.00,107.45 467.14,101.27 484.29,110.54 501.43,113.01 518.57,114.56 535.71,114.86 552.86,104.36 570.00,122.28 587.14,108.69 604.29,114.25 621.43,116.72 638.57,104.36 655.71,118.26 672.86,111.47 690.00,105.29 707.14,108.69 724.29,110.23 741.43,187.46 758.57,104.36 775.71,104.67 792.86,107.14 810.00,107.45 827.14,95.71 844.29,114.86 861.43,126.60 878.57,106.21 895.71,104.05 912.86,103.13 930.00,114.25"/>
<circle cx="90.00" cy="430.58" r="4.5" fill="#d97706" fill-opacity="0.9"/>
<circle cx="107.14" cy="224.84" r="4.5" fill="#d97706" fill-opacity="0.9"/>
<circle cx="124.29" cy="260.06" r="4.5" fill="#d97706" fill-opacity="0.9"/>
<circle cx="141.43" cy="316.90" r="4.5" fill="#d97706" fill-opacity="0.9"/>
<circle cx="158.57" cy="205.38" r="4.5" fill="#d97706" fill-opacity="0.9"/>
<circle cx="175.71" cy="154.41" r="4.5" fill="#d97706" fill-opacity="0.9"/>
<circle cx="192.86" cy="144.83" r="4.5" fill="#d97706" fill-opacity="0.9"/>
<circle cx="210.00" cy="142.05" r="4.5" fill="#d97706" fill-opacity="0.9"/>
<circle cx="227.14" cy="218.35" r="4.5" fill="#d97706" fill-opacity="0.9"/>
<circle cx="244.29" cy="168.62" r="4.5" fill="#d97706" fill-opacity="0.9"/>
<circle cx="261.43" cy="125.68" r="4.5" fill="#d97706" fill-opacity="0.9"/>
<circle cx="278.57" cy="123.21" r="4.5" fill="#d97706" fill-opacity="0.9"/>
<circle cx="295.71" cy="112.39" r="4.5" fill="#d97706" fill-opacity="0.9"/>
<circle cx="312.86" cy="135.25" r="4.5" fill="#d97706" fill-opacity="0.9"/>
<circle cx="330.00" cy="150.70" r="4.5" fill="#d97706" fill-opacity="0.9"/>
<circle cx="347.14" cy="139.27" r="4.5" fill="#d97706" fill-opacity="0.9"/>
<circle cx="364.29" cy="123.21" r="4.5" fill="#d97706" fill-opacity="0.9"/>
<circle cx="381.43" cy="123.82" r="4.5" fill="#d97706" fill-opacity="0.9"/>
<circle cx="398.57" cy="116.10" r="4.5" fill="#d97706" fill-opacity="0.9"/>
<circle cx="415.71" cy="116.10" r="4.5" fill="#d97706" fill-opacity="0.9"/>
<circle cx="432.86" cy="104.36" r="4.5" fill="#d97706" fill-opacity="0.9"/>
<circle cx="450.00" cy="107.45" r="4.5" fill="#d97706" fill-opacity="0.9"/>
<circle cx="467.14" cy="101.27" r="4.5" fill="#d97706" fill-opacity="0.9"/>
<circle cx="484.29" cy="110.54" r="4.5" fill="#d97706" fill-opacity="0.9"/>
<circle cx="501.43" cy="113.01" r="4.5" fill="#d97706" fill-opacity="0.9"/>
<circle cx="518.57" cy="114.56" r="4.5" fill="#d97706" fill-opacity="0.9"/>
<circle cx="535.71" cy="114.86" r="4.5" fill="#d97706" fill-opacity="0.9"/>
<circle cx="552.86" cy="104.36" r="4.5" fill="#d97706" fill-opacity="0.9"/>
<circle cx="570.00" cy="122.28" r="4.5" fill="#d97706" fill-opacity="0.9"/>
<circle cx="587.14" cy="108.69" r="4.5" fill="#d97706" fill-opacity="0.9"/>
<circle cx="604.29" cy="114.25" r="4.5" fill="#d97706" fill-opacity="0.9"/>
<circle cx="621.43" cy="116.72" r="4.5" fill="#d97706" fill-opacity="0.9"/>
<circle cx="638.57" cy="104.36" r="4.5" fill="#d97706" fill-opacity="0.9"/>
<circle cx="655.71" cy="118.26" r="4.5" fill="#d97706" fill-opacity="0.9"/>
<circle cx="672.86" cy="111.47" r="4.5" fill="#d97706" fill-opacity="0.9"/>
<circle cx="690.00" cy="105.29" r="4.5" fill="#d97706" fill-opacity="0.9"/>
<circle cx="707.14" cy="108.69" r="4.5" fill="#d97706" fill-opacity="0.9"/>
<circle cx="724.29" cy="110.23" r="4.5" fill="#d97706" fill-opacity="0.9"/>
<circle cx="741.43" cy="187.46" r="4.5" fill="#d97706" fill-opacity="0.9"/>
<circle cx="758.57" cy="104.36" r="4.5" fill="#d97706" fill-opacity="0.9"/>
<circle cx="775.71" cy="104.67" r="4.5" fill="#d97706" fill-opacity="0.9"/>
<circle cx="792.86" cy="107.14" r="4.5" fill="#d97706" fill-opacity="0.9"/>
<circle cx="810.00" cy="107.45" r="4.5" fill="#d97706" fill-opacity="0.9"/>
<circle cx="827.14" cy="95.71" r="4.5" fill="#d97706" fill-opacity="0.9"/>
<circle cx="844.29" cy="114.86" r="4.5" fill="#d97706" fill-opacity="0.9"/>
<circle cx="861.43" cy="126.60" r="4.5" fill="#d97706" fill-opacity="0.9"/>
<circle cx="878.57" cy="106.21" r="4.5" fill="#d97706" fill-opacity="0.9"/>
<circle cx="895.71" cy="104.05" r="4.5" fill="#d97706" fill-opacity="0.9"/>
<circle cx="912.86" cy="103.13" r="4.5" fill="#d97706" fill-opacity="0.9"/>
<circle cx="930.00" cy="114.25" r="4.5" fill="#d97706" fill-opacity="0.9"/>
<rect x="90" y="32" width="18" height="6" fill="#d97706"/>
<text x="114" y="38" font-size="13" fill="#333333">val</text>
<polyline fill="none" stroke="#059669" stroke-width="3" points="90.00,435.83 107.14,208.16 124.29,247.70 141.43,305.78 158.57,192.40 175.71,145.76 192.86,138.96 210.00,135.25 227.14,211.87 244.29,157.50 261.43,131.24 278.57,119.19 295.71,108.38 312.86,125.99 330.00,136.49 347.14,131.55 364.29,114.86 381.43,109.92 398.57,103.43 415.71,107.14 432.86,99.11 450.00,97.87 467.14,98.49 484.29,103.74 501.43,100.35 518.57,111.16 535.71,104.05 552.86,94.17 570.00,116.10 587.14,103.13 604.29,98.18 621.43,111.16 638.57,101.27 655.71,110.85 672.86,104.67 690.00,95.71 707.14,104.05 724.29,105.29 741.43,179.43 758.57,100.65 775.71,95.40 792.86,99.11 810.00,102.82 827.14,95.09 844.29,107.45 861.43,122.59 878.57,99.73 895.71,98.49 912.86,96.02 930.00,115.17"/>
<circle cx="90.00" cy="435.83" r="4.5" fill="#059669" fill-opacity="0.9"/>
<circle cx="107.14" cy="208.16" r="4.5" fill="#059669" fill-opacity="0.9"/>
<circle cx="124.29" cy="247.70" r="4.5" fill="#059669" fill-opacity="0.9"/>
<circle cx="141.43" cy="305.78" r="4.5" fill="#059669" fill-opacity="0.9"/>
<circle cx="158.57" cy="192.40" r="4.5" fill="#059669" fill-opacity="0.9"/>
<circle cx="175.71" cy="145.76" r="4.5" fill="#059669" fill-opacity="0.9"/>
<circle cx="192.86" cy="138.96" r="4.5" fill="#059669" fill-opacity="0.9"/>
<circle cx="210.00" cy="135.25" r="4.5" fill="#059669" fill-opacity="0.9"/>
<circle cx="227.14" cy="211.87" r="4.5" fill="#059669" fill-opacity="0.9"/>
<circle cx="244.29" cy="157.50" r="4.5" fill="#059669" fill-opacity="0.9"/>
<circle cx="261.43" cy="131.24" r="4.5" fill="#059669" fill-opacity="0.9"/>
<circle cx="278.57" cy="119.19" r="4.5" fill="#059669" fill-opacity="0.9"/>
<circle cx="295.71" cy="108.38" r="4.5" fill="#059669" fill-opacity="0.9"/>
<circle cx="312.86" cy="125.99" r="4.5" fill="#059669" fill-opacity="0.9"/>
<circle cx="330.00" cy="136.49" r="4.5" fill="#059669" fill-opacity="0.9"/>
<circle cx="347.14" cy="131.55" r="4.5" fill="#059669" fill-opacity="0.9"/>
<circle cx="364.29" cy="114.86" r="4.5" fill="#059669" fill-opacity="0.9"/>
<circle cx="381.43" cy="109.92" r="4.5" fill="#059669" fill-opacity="0.9"/>
<circle cx="398.57" cy="103.43" r="4.5" fill="#059669" fill-opacity="0.9"/>
<circle cx="415.71" cy="107.14" r="4.5" fill="#059669" fill-opacity="0.9"/>
<circle cx="432.86" cy="99.11" r="4.5" fill="#059669" fill-opacity="0.9"/>
<circle cx="450.00" cy="97.87" r="4.5" fill="#059669" fill-opacity="0.9"/>
<circle cx="467.14" cy="98.49" r="4.5" fill="#059669" fill-opacity="0.9"/>
<circle cx="484.29" cy="103.74" r="4.5" fill="#059669" fill-opacity="0.9"/>
<circle cx="501.43" cy="100.35" r="4.5" fill="#059669" fill-opacity="0.9"/>
<circle cx="518.57" cy="111.16" r="4.5" fill="#059669" fill-opacity="0.9"/>
<circle cx="535.71" cy="104.05" r="4.5" fill="#059669" fill-opacity="0.9"/>
<circle cx="552.86" cy="94.17" r="4.5" fill="#059669" fill-opacity="0.9"/>
<circle cx="570.00" cy="116.10" r="4.5" fill="#059669" fill-opacity="0.9"/>
<circle cx="587.14" cy="103.13" r="4.5" fill="#059669" fill-opacity="0.9"/>
<circle cx="604.29" cy="98.18" r="4.5" fill="#059669" fill-opacity="0.9"/>
<circle cx="621.43" cy="111.16" r="4.5" fill="#059669" fill-opacity="0.9"/>
<circle cx="638.57" cy="101.27" r="4.5" fill="#059669" fill-opacity="0.9"/>
<circle cx="655.71" cy="110.85" r="4.5" fill="#059669" fill-opacity="0.9"/>
<circle cx="672.86" cy="104.67" r="4.5" fill="#059669" fill-opacity="0.9"/>
<circle cx="690.00" cy="95.71" r="4.5" fill="#059669" fill-opacity="0.9"/>
<circle cx="707.14" cy="104.05" r="4.5" fill="#059669" fill-opacity="0.9"/>
<circle cx="724.29" cy="105.29" r="4.5" fill="#059669" fill-opacity="0.9"/>
<circle cx="741.43" cy="179.43" r="4.5" fill="#059669" fill-opacity="0.9"/>
<circle cx="758.57" cy="100.65" r="4.5" fill="#059669" fill-opacity="0.9"/>
<circle cx="775.71" cy="95.40" r="4.5" fill="#059669" fill-opacity="0.9"/>
<circle cx="792.86" cy="99.11" r="4.5" fill="#059669" fill-opacity="0.9"/>
<circle cx="810.00" cy="102.82" r="4.5" fill="#059669" fill-opacity="0.9"/>
<circle cx="827.14" cy="95.09" r="4.5" fill="#059669" fill-opacity="0.9"/>
<circle cx="844.29" cy="107.45" r="4.5" fill="#059669" fill-opacity="0.9"/>
<circle cx="861.43" cy="122.59" r="4.5" fill="#059669" fill-opacity="0.9"/>
<circle cx="878.57" cy="99.73" r="4.5" fill="#059669" fill-opacity="0.9"/>
<circle cx="895.71" cy="98.49" r="4.5" fill="#059669" fill-opacity="0.9"/>
<circle cx="912.86" cy="96.02" r="4.5" fill="#059669" fill-opacity="0.9"/>
<circle cx="930.00" cy="115.17" r="4.5" fill="#059669" fill-opacity="0.9"/>
<rect x="270" y="32" width="18" height="6" fill="#059669"/>
<text x="294" y="38" font-size="13" fill="#333333">test</text>
</svg>