<svg xmlns="http://www.w3.org/2000/svg" width="960" height="540">
<rect width="100%" height="100%" fill="#ffffff"/>
<text x="480.0" y="30" font-size="22" text-anchor="middle" fill="#111111">Position 5 Accuracy</text>
<text x="20" y="270.0" font-size="16" transform="rotate(-90 20,270.0)" text-anchor="middle" fill="#333333">Accuracy</text>
<text x="480.0" y="520" font-size="16" text-anchor="middle" fill="#333333">Epoch</text>
<line x1="90" y1="60" x2="90" y2="470" stroke="#333333" stroke-width="2"/>
<line x1="90" y1="470" x2="930" y2="470" stroke="#333333" stroke-width="2"/>
<line x1="90" y1="470.00" x2="930" y2="470.00" stroke="#e5e7eb" stroke-width="1"/>
<text x="80" y="475.00" font-size="12" text-anchor="end" fill="#555555">0.9355</text>
<line x1="90" y1="367.50" x2="930" y2="367.50" stroke="#e5e7eb" stroke-width="1"/>
<text x="80" y="372.50" font-size="12" text-anchor="end" fill="#555555">0.9510</text>
<line x1="90" y1="265.00" x2="930" y2="265.00" stroke="#e5e7eb" stroke-width="1"/>
<text x="80" y="270.00" font-size="12" text-anchor="end" fill="#555555">0.9666</text>
<line x1="90" y1="162.50" x2="930" y2="162.50" stroke="#e5e7eb" stroke-width="1"/>
<text x="80" y="167.50" font-size="12" text-anchor="end" fill="#555555">0.9822</text>
<line x1="90" y1="60.00" x2="930" y2="60.00" stroke="#e5e7eb" stroke-width="1"/>
<text x="80" y="65.00" font-size="12" text-anchor="end" fill="#555555">0.9977</text>
<line x1="90.00" y1="60" x2="90.00" y2="470" stroke="#f3f4f6" stroke-width="1"/>
<text x="90.00" y="492" font-size="12" text-anchor="middle" fill="#555555">1</text>
<line x1="107.14" y1="60" x2="107.14" y2="470" stroke="#f3f4f6" stroke-width="1"/>
<text x="107.14" y="492" font-size="12" text-anchor="middle" fill="#555555">2</text>
<line x1="124.29" y1="60" x2="124.29" y2="470" stroke="#f3f4f6" stroke-width="1"/>
<text x="124.29" y="492" font-size="12" text-anchor="middle" fill="#555555">3</text>
<line x1="141.43" y1="60" x2="141.43" y2="470" stroke="#f3f4f6" stroke-width="1"/>
<text x="141.43" y="492" font-size="12" text-anchor="middle" fill="#555555">4</text>
<line x1="158.57" y1="60" x2="158.57" y2="470" stroke="#f3f4f6" stroke-width="1"/>
<text x="158.57" y="492" font-size="12" text-anchor="middle" fill="#555555">5</text>
<line x1="175.71" y1="60" x2="175.71" y2="470" stroke="#f3f4f6" stroke-width="1"/>
<text x="175.71" y="492" font-size="12" text-anchor="middle" fill="#555555">6</text>
<line x1="192.86" y1="60" x2="192.86" y2="470" stroke="#f3f4f6" stroke-width="1"/>
<text x="192.86" y="492" font-size="12" text-anchor="middle" fill="#555555">7</text>
<line x1="210.00" y1="60" x2="210.00" y2="470" stroke="#f3f4f6" stroke-width="1"/>
<text x="210.00" y="492" font-size="12" text-anchor="middle" fill="#555555">8</text>
<line x1="227.14" y1="60" x2="227.14" y2="470" stroke="#f3f4f6" stroke-width="1"/>
<text x="227.14" y="492" font-size="12" text-anchor="middle" fill="#555555">9</text>
<line x1="244.29" y1="60" x2="244.29" y2="470" stroke="#f3f4f6" stroke-width="1"/>
<text x="244.29" y="492" font-size="12" text-anchor="middle" fill="#555555">10</text>
<line x1="261.43" y1="60" x2="261.43" y2="470" stroke="#f3f4f6" stroke-width="1"/>
<text x="261.43" y="492" font-size="12" text-anchor="middle" fill="#555555">11</text>
<line x1="278.57" y1="60" x2="278.57" y2="470" stroke="#f3f4f6" stroke-width="1"/>
<text x="278.57" y="492" font-size="12" text-anchor="middle" fill="#555555">12</text>
<line x1="295.71" y1="60" x2="295.71" y2="470" stroke="#f3f4f6" stroke-width="1"/>
<text x="295.71" y="492" font-size="12" text-anchor="middle" fill="#555555">13</text>
<line x1="312.86" y1="60" x2="312.86" y2="470" stroke="#f3f4f6" stroke-width="1"/>
<text x="312.86" y="492" font-size="12" text-anchor="middle" fill="#555555">14</text>
<line x1="330.00" y1="60" x2="330.00" y2="470" stroke="#f3f4f6" stroke-width="1"/>
<text x="330.00" y="492" font-size="12" text-anchor="middle" fill="#555555">15</text>
<line x1="347.14" y1="60" x2="347.14" y2="470" stroke="#f3f4f6" stroke-width="1"/>
<text x="347.14" y="492" font-size="12" text-anchor="middle" fill="#555555">16</text>
<line x1="364.29" y1="60" x2="364.29" y2="470" stroke="#f3f4f6" stroke-width="1"/>
<text x="364.29" y="492" font-size="12" text-anchor="middle" fill="#555555">17</text>
<line x1="381.43" y1="60" x2="381.43" y2="470" stroke="#f3f4f6" stroke-width="1"/>
<text x="381.43" y="492" font-size="12" text-anchor="middle" fill="#555555">18</text>
<line x1="398.57" y1="60" x2="398.57" y2="470" stroke="#f3f4f6" stroke-width="1"/>
<text x="398.57" y="492" font-size="12" text-anchor="middle" fill="#555555">19</text>
<line x1="415.71" y1="60" x2="415.71" y2="470" stroke="#f3f4f6" stroke-width="1"/>
<text x="415.71" y="492" font-size="12" text-anchor="middle" fill="#555555">20</text>
<line x1="432.86" y1="60" x2="432.86" y2="470" stroke="#f3f4f6" stroke-width="1"/>
<text x="432.86" y="492" font-size="12" text-anchor="middle" fill="#555555">21</text>
<line x1="450.00" y1="60" x2="450.00" y2="470" stroke="#f3f4f6" stroke-width="1"/>
<text x="450.00" y="492" font-size="12" text-anchor="middle" fill="#555555">22</text>
<line x1="467.14" y1="60" x2="467.14" y2="470" stroke="#f3f4f6" stroke-width="1"/>
<text x="467.14" y="492" font-size="12" text-anchor="middle" fill="#555555">23</text>
<line x1="484.29" y1="60" x2="484.29" y2="470" stroke="#f3f4f6" stroke-width="1"/>
<text x="484.29" y="492" font-size="12" text-anchor="middle" fill="#555555">24</text>
<line x1="501.43" y1="60" x2="501.43" y2="470" stroke="#f3f4f6" stroke-width="1"/>
<text x="501.43" y="492" font-size="12" text-anchor="middle" fill="#555555">25</text>
<line x1="518.57" y1="60" x2="518.57" y2="470" stroke="#f3f4f6" stroke-width="1"/>
<text x="518.57" y="492" font-size="12" text-anchor="middle" fill="#555555">26</text>
<line x1="535.71" y1="60" x2="535.71" y2="470" stroke="#f3f4f6" stroke-width="1"/>
<text x="535.71" y="492" font-size="12" text-anchor="middle" fill="#555555">27</text>
<line x1="552.86" y1="60" x2="552.86" y2="470" stroke="#f3f4f6" stroke-width="1"/>
<text x="552.86" y="492" font-size="12" text-anchor="middle" fill="#555555">28</text>
<line x1="570.00" y1="60" x2="570.00" y2="470" stroke="#f3f4f6" stroke-width="1"/>
<text x="570.00" y="492" font-size="12" text-anchor="middle" fill="#555555">29</text>
<line x1="587.14" y1="60" x2="587.14" y2="470" stroke="#f3f4f6" stroke-width="1"/>
<text x="587.14" y="492" font-size="12" text-anchor="middle" fill="#555555">30</text>
<line x1="604.29" y1="60" x2="604.29" y2="470" stroke="#f3f4f6" stroke-width="1"/>
<text x="604.29" y="492" font-size="12" text-anchor="middle" fill="#555555">31</text>
<line x1="621.43" y1="60" x2="621.43" y2="470" stroke="#f3f4f6" stroke-width="1"/>
<text x="621.43" y="492" font-size="12" text-anchor="middle" fill="#555555">32</text>
<line x1="638.57" y1="60" x2="638.57" y2="470" stroke="#f3f4f6" stroke-width="1"/>
<text x="638.57" y="492" font-size="12" text-anchor="middle" fill="#555555">33</text>
<line x1="655.71" y1="60" x2="655.71" y2="470" stroke="#f3f4f6" stroke-width="1"/>
<text x="655.71" y="492" font-size="12" text-anchor="middle" fill="#555555">34</text>
<line x1="672.86" y1="60" x2="672.86" y2="470" stroke="#f3f4f6" stroke-width="1"/>
<text x="672.86" y="492" font-size="12" text-anchor="middle" fill="#555555">35</text>
<line x1="690.00" y1="60" x2="690.00" y2="470" stroke="#f3f4f6" stroke-width="1"/>
<text x="690.00" y="492" font-size="12" text-anchor="middle" fill="#555555">36</text>
<line x1="707.14" y1="60" x2="707.14" y2="470" stroke="#f3f4f6" stroke-width="1"/>
<text x="707.14" y="492" font-size="12" text-anchor="middle" fill="#555555">37</text>
<line x1="724.29" y1="60" x2="724.29" y2="470" stroke="#f3f4f6" stroke-width="1"/>
<text x="724.29" y="492" font-size="12" text-anchor="middle" fill="#555555">38</text>
<line x1="741.43" y1="60" x2="741.43" y2="470" stroke="#f3f4f6" stroke-width="1"/>
<text x="741.43" y="492" font-size="12" text-anchor="middle" fill="#555555">39</text>
<line x1="758.57" y1="60" x2="758.57" y2="470" stroke="#f3f4f6" stroke-width="1"/>
<text x="758.57" y="492" font-size="12" text-anchor="middle" fill="#555555">40</text>
<line x1="775.71" y1="60" x2="775.71" y2="470" stroke="#f3f4f6" stroke-width="1"/>
<text x="775.71" y="492" font-size="12" text-anchor="middle" fill="#555555">41</text>
<line x1="792.86" y1="60" x2="792.86" y2="470" stroke="#f3f4f6" stroke-width="1"/>
<text x="792.86" y="492" font-size="12" text-anchor="middle" fill="#555555">42</text>
<line x1="810.00" y1="60" x2="810.00" y2="470" stroke="#f3f4f6" stroke-width="1"/>
<text x="810.00" y="492" font-size="12" text-anchor="middle" fill="#555555">43</text>
<line x1="827.14" y1="60" x2="827.14" y2="470" stroke="#f3f4f6" stroke-width="1"/>
<text x="827.14" y="492" font-size="12" text-anchor="middle" fill="#555555">44</text>
<line x1="844.29" y1="60" x2="844.29" y2="470" stroke="#f3f4f6" stroke-width="1"/>
<text x="844.29" y="492" font-size="12" text-anchor="middle" fill="#555555">45</text>
<line x1="861.43" y1="60" x2="861.43" y2="470" stroke="#f3f4f6" stroke-width="1"/>
<text x="861.43" y="492" font-size="12" text-anchor="middle" fill="#555555">46</text>
<line x1="878.57" y1="60" x2="878.57" y2="470" stroke="#f3f4f6" stroke-width="1"/>
<text x="878.57" y="492" font-size="12" text-anchor="middle" fill="#555555">47</text>
<line x1="895.71" y1="60" x2="895.71" y2="470" stroke="#f3f4f6" stroke-width="1"/>
<text x="895.71" y="492" font-size="12" text-anchor="middle" fill="#555555">48</text>
<line x1="912.86" y1="60" x2="912.86" y2="470" stroke="#f3f4f6" stroke-width="1"/>
<text x="912.86" y="492" font-size="12" text-anchor="middle" fill="#555555">49</text>
<line x1="930.00" y1="60" x2="930.00" y2="470" stroke="#f3f4f6" stroke-width="1"/>
<text x="930.00" y="492" font-size="12" text-anchor="middle" fill="#555555">50</text>
<polyline fill="none" stroke="#d97706" stroke-width="3" points="90.00,435.83 107.14,294.86 124.29,230.31 141.43,303.65 158.57,216.69 175.71,151.70 192.86,159.16 210.00,127.98 227.14,261.49 244.29,149.06 261.43,131.06 278.57,137.64 295.71,120.96 312.86,149.50 330.00,150.82 347.14,135.45 364.29,102.95 381.43,117.44 398.57,117.88 415.71,112.17 432.86,102.51 450.00,99.88 467.14,98.56 484.29,112.17 501.43,103.39 518.57,111.73 535.71,104.71 552.86,94.17 570.00,104.27 587.14,118.76 604.29,110.85 621.43,113.93 638.57,102.51 655.71,113.93 672.86,102.95 690.00,109.98 707.14,127.10 724.29,101.63 741.43,212.74 758.57,101.63 775.71,112.61 792.86,106.46 810.00,109.10 827.14,96.36 844.29,109.98 861.43,136.33 878.57,103.83 895.71,102.95 912.86,109.10 930.00,105.58"/>
<circle cx="90.00" cy="435.83" r="4.5" fill="#d97706" fill-opacity="0.9"/>
<circle cx="107.14" cy="294.86" r="4.5" fill="#d97706" fill-opacity="0.9"/>
<circle cx="124.29" cy="230.31" r="4.5" fill="#d97706" fill-opacity="0.9"/>
<circle cx="141.43" cy="303.65" r="4.5" fill="#d97706" fill-opacity="0.9"/>
<circle cx="158.57" cy="216.69" r="4.5" fill="#d97706" fill-opacity="0.9"/>
<circle cx="175.71" cy="151.70" r="4.5" fill="#d97706" fill-opacity="0.9"/>
<circle cx="192.86" cy="159.16" r="4.5" fill="#d97706" fill-opacity="0.9"/>
<circle cx="210.00" cy="127.98" r="4.5" fill="#d97706" fill-opacity="0.9"/>
<circle cx="227.14" cy="261.49" r="4.5" fill="#d97706" fill-opacity="0.9"/>
<circle cx="244.29" cy="149.06" r="4.5" fill="#d97706" fill-opacity="0.9"/>
<circle cx="261.43" cy="131.06" r="4.5" fill="#d97706" fill-opacity="0.9"/>
<circle cx="278.57" cy="137.64" r="4.5" fill="#d97706" fill-opacity="0.9"/>
<circle cx="295.71" cy="120.96" r="4.5" fill="#d97706" fill-opacity="0.9"/>
<circle cx="312.86" cy="149.50" r="4.5" fill="#d97706" fill-opacity="0.9"/>
<circle cx="330.00" cy="150.82" r="4.5" fill="#d97706" fill-opacity="0.9"/>
<circle cx="347.14" cy="135.45" r="4.5" fill="#d97706" fill-opacity="0.9"/>
<circle cx="364.29" cy="102.95" r="4.5" fill="#d97706" fill-opacity="0.9"/>
<circle cx="381.43" cy="117.44" r="4.5" fill="#d97706" fill-opacity="0.9"/>
<circle cx="398.57" cy="117.88" r="4.5" fill="#d97706" fill-opacity="0.9"/>
<circle cx="415.71" cy="112.17" r="4.5" fill="#d97706" fill-opacity="0.9"/>
<circle cx="432.86" cy="102.51" r="4.5" fill="#d97706" fill-opacity="0.9"/>
<circle cx="450.00" cy="99.88" r="4.5" fill="#d97706" fill-opacity="0.9"/>
<circle cx="467.14" cy="98.56" r="4.5" fill="#d97706" fill-opacity="0.9"/>
<circle cx="484.29" cy="112.17" r="4.5" fill="#d97706" fill-opacity="0.9"/>
<circle cx="501.43" cy="103.39" r="4.5" fill="#d97706" fill-opacity="0.9"/>
<circle cx="518.57" cy="111.73" r="4.5" fill="#d97706" fill-opacity="0.9"/>
<circle cx="535.71" cy="104.71" r="4.5" fill="#d97706" fill-opacity="0.9"/>
<circle cx="552.86" cy="94.17" r="4.5" fill="#d97706" fill-opacity="0.9"/>
<circle cx="570.00" cy="104.27" r="4.5" fill="#d97706" fill-opacity="0.9"/>
<circle cx="587.14" cy="118.76" r="4.5" fill="#d97706" fill-opacity="0.9"/>
<circle cx="604.29" cy="110.85" r="4.5" fill="#d97706" fill-opacity="0.9"/>
<circle cx="621.43" cy="113.93" r="4.5" fill="#d97706" fill-opacity="0.9"/>
<circle cx="638.57" cy="102.51" r="4.5" fill="#d97706" fill-opacity="0.9"/>
<circle cx="655.71" cy="113.93" r="4.5" fill="#d97706" fill-opacity="0.9"/>
<circle cx="672.86" cy="102.95" r="4.5" fill="#d97706" fill-opacity="0.9"/>
<circle cx="690.00" cy="109.98" r="4.5" fill="#d97706" fill-opacity="0.9"/>
<circle cx="707.14" cy="127.10" r="4.5" fill="#d97706" fill-opacity="0.9"/>
<circle cx="724.29" cy="101.63" r="4.5" fill="#d97706" fill-opacity="0.9"/>
<circle cx="741.43" cy="212.74" r="4.5" fill="#d97706" fill-opacity="0.9"/>
<circle cx="758.57" cy="101.63" r="4.5" fill="#d97706" fill-opacity="0.9"/>
<circle cx="775.71" cy="112.61" r="4.5" fill="#d97706" fill-opacity="0.9"/>
<circle cx="792.86" cy="106.46" r="4.5" fill="#d97706" fill-opacity="0.9"/>
<circle cx="810.00" cy="109.10" r="4.5" fill="#d97706" fill-opacity="0.9"/>
<circle cx="827.14" cy="96.36" r="4.5" fill="#d97706" fill-opacity="0.9"/>
<circle cx="844.29" cy="109.98" r="4.5" fill="#d97706" fill-opacity="0.9"/>
<circle cx="861.43" cy="136.33" r="4.5" fill="#d97706" fill-opacity="0.9"/>
<circle cx="878.57" cy="103.83" r="4.5" fill="#d97706" fill-opacity="0.9"/>
<circle cx="895.71" cy="102.95" r="4.5" fill="#d97706" fill-opacity="0.9"/>
<circle cx="912.86" cy="109.10" r="4.5" fill="#d97706" fill-opacity="0.9"/>
<circle cx="930.00" cy="105.58" r="4.5" fill="#d97706" fill-opacity="0.9"/>
<rect x="90" y="32" width="18" height="6" fill="#d97706"/>
<text x="114" y="38" font-size="13" fill="#333333">val</text>
<polyline fill="none" stroke="#059669" stroke-width="3" points="90.00,435.83 107.14,303.65 124.29,226.79 141.43,349.32 158.57,225.91 175.71,152.14 192.86,160.92 210.00,140.72 227.14,264.12 244.29,143.79 261.43,144.23 278.57,138.08 295.71,122.27 312.86,150.38 330.00,153.45 347.14,146.43 364.29,106.90 381.43,122.27 398.57,127.98 415.71,127.54 432.86,104.71 450.00,108.22 467.14,98.56 484.29,106.46 501.43,110.85 518.57,120.96 535.71,106.46 552.86,100.75 570.00,107.34 587.14,117.00 604.29,120.52 621.43,120.96 638.57,106.90 655.71,120.08 672.86,108.66 690.00,117.44 707.14,128.86 724.29,109.54 741.43,210.98 758.57,106.02 775.71,115.25 792.86,110.85 810.00,114.37 827.14,102.51 844.29,116.56 861.43,133.69 878.57,109.54 895.71,109.98 912.86,108.22 930.00,117.88"/>
<circle cx="90.00" cy="435.83" r="4.5" fill="#059669" fill-opacity="0.9"/>
<circle cx="107.14" cy="303.65" r="4.5" fill="#059669" fill-opacity="0.9"/>
<circle cx="124.29" cy="226.79" r="4.5" fill="#059669" fill-opacity="0.9"/>
<circle cx="141.43" cy="349.32" r="4.5" fill="#059669" fill-opacity="0.9"/>
<circle cx="158.57" cy="225.91" r="4.5" fill="#059669" fill-opacity="0.9"/>
<circle cx="175.71" cy="152.14" r="4.5" fill="#059669" fill-opacity="0.9"/>
<circle cx="192.86" cy="160.92" r="4.5" fill="#059669" fill-opacity="0.9"/>
<circle cx="210.00" cy="140.72" r="4.5" fill="#059669" fill-opacity="0.9"/>
<circle cx="227.14" cy="264.12" r="4.5" fill="#059669" fill-opacity="0.9"/>
<circle cx="244.29" cy="143.79" r="4.5" fill="#059669" fill-opacity="0.9"/>
<circle cx="261.43" cy="144.23" r="4.5" fill="#059669" fill-opacity="0.9"/>
<circle cx="278.57" cy="138.08" r="4.5" fill="#059669" fill-opacity="0.9"/>
<circle cx="295.71" cy="122.27" r="4.5" fill="#059669" fill-opacity="0.9"/>
<circle cx="312.86" cy="150.38" r="4.5" fill="#059669" fill-opacity="0.9"/>
<circle cx="330.00" cy="153.45" r="4.5" fill="#059669" fill-opacity="0.9"/>
<circle cx="347.14" cy="146.43" r="4.5" fill="#059669" fill-opacity="0.9"/>
<circle cx="364.29" cy="106.90" r="4.5" fill="#059669" fill-opacity="0.9"/>
<circle cx="381.43" cy="122.27" r="4.5" fill="#059669" fill-opacity="0.9"/>
<circle cx="398.57" cy="127.98" r="4.5" fill="#059669" fill-opacity="0.9"/>
<circle cx="415.71" cy="127.54" r="4.5" fill="#059669" fill-opacity="0.9"/>
<circle cx="432.86" cy="104.71" r="4.5" fill="#059669" fill-opacity="0.9"/>
<circle cx="450.00" cy="108.22" r="4.5" fill="#059669" fill-opacity="0.9"/>
<circle cx="467.14" cy="98.56" r="4.5" fill="#059669" fill-opacity="0.9"/>
<circle cx="484.29" cy="106.46" r="4.5" fill="#059669" fill-opacity="0.9"/>
<circle cx="501.43" cy="110.85" r="4.5" fill="#059669" fill-opacity="0.9"/>
<circle cx="518.57" cy="120.96" r="4.5" fill="#059669" fill-opacity="0.9"/>
<circle cx="535.71" cy="106.46" r="4.5" fill="#059669" fill-opacity="0.9"/>
<circle cx="552.86" cy="100.75" r="4.5" fill="#059669" fill-opacity="0.9"/>
<circle cx="570.00" cy="107.34" r="4.5" fill="#059669" fill-opacity="0.9"/>
<circle cx="587.14" cy="117.00" r="4.5" fill="#059669" fill-opacity="0.9"/>
<circle cx="604.29" cy="120.52" r="4.5" fill="#059669" fill-opacity="0.9"/>
<circle cx="621.43" cy="120.96" r="4.5" fill="#059669" fill-opacity="0.9"/>
<circle cx="638.57" cy="106.90" r="4.5" fill="#059669" fill-opacity="0.9"/>
<circle cx="655.71" cy="120.08" r="4.5" fill="#059669" fill-opacity="0.9"/>
<circle cx="672.86" cy="108.66" r="4.5" fill="#059669" fill-opacity="0.9"/>
<circle cx="690.00" cy="117.44" r="4.5" fill="#059669" fill-opacity="0.9"/>
<circle cx="707.14" cy="128.86" r="4.5" fill="#059669" fill-opacity="0.9"/>
<circle cx="724.29" cy="109.54" r="4.5" fill="#059669" fill-opacity="0.9"/>
<circle cx="741.43" cy="210.98" r="4.5" fill="#059669" fill-opacity="0.9"/>
<circle cx="758.57" cy="106.02" r="4.5" fill="#059669" fill-opacity="0.9"/>
<circle cx="775.71" cy="115.25" r="4.5" fill="#059669" fill-opacity="0.9"/>
<circle cx="792.86" cy="110.85" r="4.5" fill="#059669" fill-opacity="0.9"/>
<circle cx="810.00" cy="114.37" r="4.5" fill="#059669" fill-opacity="0.9"/>
<circle cx="827.14" cy="102.51" r="4.5" fill="#059669" fill-opacity="0.9"/>
<circle cx="844.29" cy="116.56" r="4.5" fill="#059669" fill-opacity="0.9"/>
<circle cx="861.43" cy="133.69" r="4.5" fill="#059669" fill-opacity="0.9"/>
<circle cx="878.57" cy="109.54" r="4.5" fill="#059669" fill-opacity="0.9"/>
<circle cx="895.71" cy="109.98" r="4.5" fill="#059669" fill-opacity="0.9"/>
<circle cx="912.86" cy="108.22" r="4.5" fill="#059669" fill-opacity="0.9"/>
<circle cx="930.00" cy="117.88" r="4.5" fill="#059669" fill-opacity="0.9"/>
<rect x="270" y="32" width="18" height="6" fill="#059669"/>
<text x="294" y="38" font-size="13" fill="#333333">test</text>
</svg>