<svg xmlns="http://www.w3.org/2000/svg" width="960" height="540">
<rect width="100%" height="100%" fill="#ffffff"/>
<text x="480.0" y="30" font-size="22" text-anchor="middle" fill="#111111">Position 3 Accuracy</text>
<text x="20" y="270.0" font-size="16" transform="rotate(-90 20,270.0)" text-anchor="middle" fill="#333333">Accuracy</text>
<text x="480.0" y="520" font-size="16" text-anchor="middle" fill="#333333">Epoch</text>
<line x1="90" y1="60" x2="90" y2="470" stroke="#333333" stroke-width="2"/>
<line x1="90" y1="470" x2="930" y2="470" stroke="#333333" stroke-width="2"/>
<line x1="90" y1="470.00" x2="930" y2="470.00" stroke="#e5e7eb" stroke-width="1"/>
<text x="80" y="475.00" font-size="12" text-anchor="end" fill="#555555">0.8801</text>
<line x1="90" y1="367.50" x2="930" y2="367.50" stroke="#e5e7eb" stroke-width="1"/>
<text x="80" y="372.50" font-size="12" text-anchor="end" fill="#555555">0.9101</text>
<line x1="90" y1="265.00" x2="930" y2="265.00" stroke="#e5e7eb" stroke-width="1"/>
<text x="80" y="270.00" font-size="12" text-anchor="end" fill="#555555">0.9401</text>
<line x1="90" y1="162.50" x2="930" y2="162.50" stroke="#e5e7eb" stroke-width="1"/>
<text x="80" y="167.50" font-size="12" text-anchor="end" fill="#555555">0.9701</text>
<line x1="90" y1="60.00" x2="930" y2="60.00" stroke="#e5e7eb" stroke-width="1"/>
<text x="80" y="65.00" font-size="12" text-anchor="end" fill="#555555">1.0001</text>
<line x1="90.00" y1="60" x2="90.00" y2="470" stroke="#f3f4f6" stroke-width="1"/>
<text x="90.00" y="492" font-size="12" text-anchor="middle" fill="#555555">1</text>
<line x1="107.14" y1="60" x2="107.14" y2="470" stroke="#f3f4f6" stroke-width="1"/>
<text x="107.14" y="492" font-size="12" text-anchor="middle" fill="#555555">2</text>
<line x1="124.29" y1="60" x2="124.29" y2="470" stroke="#f3f4f6" stroke-width="1"/>
<text x="124.29" y="492" font-size="12" text-anchor="middle" fill="#555555">3</text>
<line x1="141.43" y1="60" x2="141.43" y2="470" stroke="#f3f4f6" stroke-width="1"/>
<text x="141.43" y="492" font-size="12" text-anchor="middle" fill="#555555">4</text>
<line x1="158.57" y1="60" x2="158.57" y2="470" stroke="#f3f4f6" stroke-width="1"/>
<text x="158.57" y="492" font-size="12" text-anchor="middle" fill="#555555">5</text>
<line x1="175.71" y1="60" x2="175.71" y2="470" stroke="#f3f4f6" stroke-width="1"/>
<text x="175.71" y="492" font-size="12" text-anchor="middle" fill="#555555">6</text>
<line x1="192.86" y1="60" x2="192.86" y2="470" stroke="#f3f4f6" stroke-width="1"/>
<text x="192.86" y="492" font-size="12" text-anchor="middle" fill="#555555">7</text>
<line x1="210.00" y1="60" x2="210.00" y2="470" stroke="#f3f4f6" stroke-width="1"/>
<text x="210.00" y="492" font-size="12" text-anchor="middle" fill="#555555">8</text>
<line x1="227.14" y1="60" x2="227.14" y2="470" stroke="#f3f4f6" stroke-width="1"/>
<text x="227.14" y="492" font-size="12" text-anchor="middle" fill="#555555">9</text>
<line x1="244.29" y1="60" x2="244.29" y2="470" stroke="#f3f4f6" stroke-width="1"/>
<text x="244.29" y="492" font-size="12" text-anchor="middle" fill="#555555">10</text>
<line x1="261.43" y1="60" x2="261.43" y2="470" stroke="#f3f4f6" stroke-width="1"/>
<text x="261.43" y="492" font-size="12" text-anchor="middle" fill="#555555">11</text>
<line x1="278.57" y1="60" x2="278.57" y2="470" stroke="#f3f4f6" stroke-width="1"/>
<text x="278.57" y="492" font-size="12" text-anchor="middle" fill="#555555">12</text>
<line x1="295.71" y1="60" x2="295.71" y2="470" stroke="#f3f4f6" stroke-width="1"/>
<text x="295.71" y="492" font-size="12" text-anchor="middle" fill="#555555">13</text>
<line x1="312.86" y1="60" x2="312.86" y2="470" stroke="#f3f4f6" stroke-width="1"/>
<text x="312.86" y="492" font-size="12" text-anchor="middle" fill="#555555">14</text>
<line x1="330.00" y1="60" x2="330.00" y2="470" stroke="#f3f4f6" stroke-width="1"/>
<text x="330.00" y="492" font-size="12" text-anchor="middle" fill="#555555">15</text>
<line x1="347.14" y1="60" x2="347.14" y2="470" stroke="#f3f4f6" stroke-width="1"/>
<text x="347.14" y="492" font-size="12" text-anchor="middle" fill="#555555">16</text>
<line x1="364.29" y1="60" x2="364.29" y2="470" stroke="#f3f4f6" stroke-width="1"/>
<text x="364.29" y="492" font-size="12" text-anchor="middle" fill="#555555">17</text>
<line x1="381.43" y1="60" x2="381.43" y2="470" stroke="#f3f4f6" stroke-width="1"/>
<text x="381.43" y="492" font-size="12" text-anchor="middle" fill="#555555">18</text>
<line x1="398.57" y1="60" x2="398.57" y2="470" stroke="#f3f4f6" stroke-width="1"/>
<text x="398.57" y="492" font-size="12" text-anchor="middle" fill="#555555">19</text>
<line x1="415.71" y1="60" x2="415.71" y2="470" stroke="#f3f4f6" stroke-width="1"/>
<text x="415.71" y="492" font-size="12" text-anchor="middle" fill="#555555">20</text>
<line x1="432.86" y1="60" x2="432.86" y2="470" stroke="#f3f4f6" stroke-width="1"/>
<text x="432.86" y="492" font-size="12" text-anchor="middle" fill="#555555">21</text>
<line x1="450.00" y1="60" x2="450.00" y2="470" stroke="#f3f4f6" stroke-width="1"/>
<text x="450.00" y="492" font-size="12" text-anchor="middle" fill="#555555">22</text>
<line x1="467.14" y1="60" x2="467.14" y2="470" stroke="#f3f4f6" stroke-width="1"/>
<text x="467.14" y="492" font-size="12" text-anchor="middle" fill="#555555">23</text>
<line x1="484.29" y1="60" x2="484.29" y2="470" stroke="#f3f4f6" stroke-width="1"/>
<text x="484.29" y="492" font-size="12" text-anchor="middle" fill="#555555">24</text>
<line x1="501.43" y1="60" x2="501.43" y2="470" stroke="#f3f4f6" stroke-width="1"/>
<text x="501.43" y="492" font-size="12" text-anchor="middle" fill="#555555">25</text>
<line x1="518.57" y1="60" x2="518.57" y2="470" stroke="#f3f4f6" stroke-width="1"/>
<text x="518.57" y="492" font-size="12" text-anchor="middle" fill="#555555">26</text>
<line x1="535.71" y1="60" x2="535.71" y2="470" stroke="#f3f4f6" stroke-width="1"/>
<text x="535.71" y="492" font-size="12" text-anchor="middle" fill="#555555">27</text>
<line x1="552.86" y1="60" x2="552.86" y2="470" stroke="#f3f4f6" stroke-width="1"/>
<text x="552.86" y="492" font-size="12" text-anchor="middle" fill="#555555">28</text>
<line x1="570.00" y1="60" x2="570.00" y2="470" stroke="#f3f4f6" stroke-width="1"/>
<text x="570.00" y="492" font-size="12" text-anchor="middle" fill="#555555">29</text>
<line x1="587.14" y1="60" x2="587.14" y2="470" stroke="#f3f4f6" stroke-width="1"/>
<text x="587.14" y="492" font-size="12" text-anchor="middle" fill="#555555">30</text>
<line x1="604.29" y1="60" x2="604.29" y2="470" stroke="#f3f4f6" stroke-width="1"/>
<text x="604.29" y="492" font-size="12" text-anchor="middle" fill="#555555">31</text>
<line x1="621.43" y1="60" x2="621.43" y2="470" stroke="#f3f4f6" stroke-width="1"/>
<text x="621.43" y="492" font-size="12" text-anchor="middle" fill="#555555">32</text>
<line x1="638.57" y1="60" x2="638.57" y2="470" stroke="#f3f4f6" stroke-width="1"/>
<text x="638.57" y="492" font-size="12" text-anchor="middle" fill="#555555">33</text>
<line x1="655.71" y1="60" x2="655.71" y2="470" stroke="#f3f4f6" stroke-width="1"/>
<text x="655.71" y="492" font-size="12" text-anchor="middle" fill="#555555">34</text>
<line x1="672.86" y1="60" x2="672.86" y2="470" stroke="#f3f4f6" stroke-width="1"/>
<text x="672.86" y="492" font-size="12" text-anchor="middle" fill="#555555">35</text>
<line x1="690.00" y1="60" x2="690.00" y2="470" stroke="#f3f4f6" stroke-width="1"/>
<text x="690.00" y="492" font-size="12" text-anchor="middle" fill="#555555">36</text>
<line x1="707.14" y1="60" x2="707.14" y2="470" stroke="#f3f4f6" stroke-width="1"/>
<text x="707.14" y="492" font-size="12" text-anchor="middle" fill="#555555">37</text>
<line x1="724.29" y1="60" x2="724.29" y2="470" stroke="#f3f4f6" stroke-width="1"/>
<text x="724.29" y="492" font-size="12" text-anchor="middle" fill="#555555">38</text>
<line x1="741.43" y1="60" x2="741.43" y2="470" stroke="#f3f4f6" stroke-width="1"/>
<text x="741.43" y="492" font-size="12" text-anchor="middle" fill="#555555">39</text>
<line x1="758.57" y1="60" x2="758.57" y2="470" stroke="#f3f4f6" stroke-width="1"/>
<text x="758.57" y="492" font-size="12" text-anchor="middle" fill="#555555">40</text>
<line x1="775.71" y1="60" x2="775.71" y2="470" stroke="#f3f4f6" stroke-width="1"/>
<text x="775.71" y="492" font-size="12" text-anchor="middle" fill="#555555">41</text>
<line x1="792.86" y1="60" x2="792.86" y2="470" stroke="#f3f4f6" stroke-width="1"/>
<text x="792.86" y="492" font-size="12" text-anchor="middle" fill="#555555">42</text>
<line x1="810.00" y1="60" x2="810.00" y2="470" stroke="#f3f4f6" stroke-width="1"/>
<text x="810.00" y="492" font-size="12" text-anchor="middle" fill="#555555">43</text>
<line x1="827.14" y1="60" x2="827.14" y2="470" stroke="#f3f4f6" stroke-width="1"/>
<text x="827.14" y="492" font-size="12" text-anchor="middle" fill="#555555">44</text>
<line x1="844.29" y1="60" x2="844.29" y2="470" stroke="#f3f4f6" stroke-width="1"/>
<text x="844.29" y="492" font-size="12" text-anchor="middle" fill="#555555">45</text>
<line x1="861.43" y1="60" x2="861.43" y2="470" stroke="#f3f4f6" stroke-width="1"/>
<text x="861.43" y="492" font-size="12" text-anchor="middle" fill="#555555">46</text>
<line x1="878.57" y1="60" x2="878.57" y2="470" stroke="#f3f4f6" stroke-width="1"/>
<text x="878.57" y="492" font-size="12" text-anchor="middle" fill="#555555">47</text>
<line x1="895.71" y1="60" x2="895.71" y2="470" stroke="#f3f4f6" stroke-width="1"/>
<text x="895.71" y="492" font-size="12" text-anchor="middle" fill="#555555">48</text>
<line x1="912.86" y1="60" x2="912.86" y2="470" stroke="#f3f4f6" stroke-width="1"/>
<text x="912.86" y="492" font-size="12" text-anchor="middle" fill="#555555">49</text>
<line x1="930.00" y1="60" x2="930.00" y2="470" stroke="#f3f4f6" stroke-width="1"/>
<text x="930.00" y="492" font-size="12" text-anchor="middle" fill="#555555">50</text>
<polyline fill="none" stroke="#d97706" stroke-width="3" points="90.00,415.79 107.14,204.18 124.29,271.38 141.43,381.85 158.57,183.91 175.71,135.85 192.86,146.78 210.00,123.09 227.14,180.04 244.29,130.84 261.43,135.39 278.57,112.84 295.71,112.39 312.86,128.33 330.00,128.11 347.14,138.58 364.29,111.71 381.43,111.71 398.57,113.53 415.71,111.25 432.86,103.28 450.00,108.29 467.14,103.05 484.29,106.24 501.43,102.14 518.57,111.71 535.71,104.19 552.86,102.82 570.00,109.20 587.14,102.37 604.29,102.59 621.43,104.42 638.57,97.58 655.71,104.87 672.86,106.69 690.00,103.73 707.14,101.91 724.29,101.23 741.43,150.88 758.57,94.17 775.71,101.00 792.86,100.09 810.00,103.05 827.14,100.77 844.29,103.51 861.43,113.30 878.57,95.99 895.71,100.77 912.86,97.13 930.00,116.94"/>
<circle cx="90.00" cy="415.79" r="4.5" fill="#d97706" fill-opacity="0.9"/>
<circle cx="107.14" cy="204.18" r="4.5" fill="#d97706" fill-opacity="0.9"/>
<circle cx="124.29" cy="271.38" r="4.5" fill="#d97706" fill-opacity="0.9"/>
<circle cx="141.43" cy="381.85" r="4.5" fill="#d97706" fill-opacity="0.9"/>
<circle cx="158.57" cy="183.91" r="4.5" fill="#d97706" fill-opacity="0.9"/>
<circle cx="175.71" cy="135.85" r="4.5" fill="#d97706" fill-opacity="0.9"/>
<circle cx="192.86" cy="146.78" r="4.5" fill="#d97706" fill-opacity="0.9"/>
<circle cx="210.00" cy="123.09" r="4.5" fill="#d97706" fill-opacity="0.9"/>
<circle cx="227.14" cy="180.04" r="4.5" fill="#d97706" fill-opacity="0.9"/>
<circle cx="244.29" cy="130.84" r="4.5" fill="#d97706" fill-opacity="0.9"/>
<circle cx="261.43" cy="135.39" r="4.5" fill="#d97706" fill-opacity="0.9"/>
<circle cx="278.57" cy="112.84" r="4.5" fill="#d97706" fill-opacity="0.9"/>
<circle cx="295.71" cy="112.39" r="4.5" fill="#d97706" fill-opacity="0.9"/>
<circle cx="312.86" cy="128.33" r="4.5" fill="#d97706" fill-opacity="0.9"/>
<circle cx="330.00" cy="128.11" r="4.5" fill="#d97706" fill-opacity="0.9"/>
<circle cx="347.14" cy="138.58" r="4.5" fill="#d97706" fill-opacity="0.9"/>
<circle cx="364.29" cy="111.71" r="4.5" fill="#d97706" fill-opacity="0.9"/>
<circle cx="381.43" cy="111.71" r="4.5" fill="#d97706" fill-opacity="0.9"/>
<circle cx="398.57" cy="113.53" r="4.5" fill="#d97706" fill-opacity="0.9"/>
<circle cx="415.71" cy="111.25" r="4.5" fill="#d97706" fill-opacity="0.9"/>
<circle cx="432.86" cy="103.28" r="4.5" fill="#d97706" fill-opacity="0.9"/>
<circle cx="450.00" cy="108.29" r="4.5" fill="#d97706" fill-opacity="0.9"/>
<circle cx="467.14" cy="103.05" r="4.5" fill="#d97706" fill-opacity="0.9"/>
<circle cx="484.29" cy="106.24" r="4.5" fill="#d97706" fill-opacity="0.9"/>
<circle cx="501.43" cy="102.14" r="4.5" fill="#d97706" fill-opacity="0.9"/>
<circle cx="518.57" cy="111.71" r="4.5" fill="#d97706" fill-opacity="0.9"/>
<circle cx="535.71" cy="104.19" r="4.5" fill="#d97706" fill-opacity="0.9"/>
<circle cx="552.86" cy="102.82" r="4.5" fill="#d97706" fill-opacity="0.9"/>
<circle cx="570.00" cy="109.20" r="4.5" fill="#d97706" fill-opacity="0.9"/>
<circle cx="587.14" cy="102.37" r="4.5" fill="#d97706" fill-opacity="0.9"/>
<circle cx="604.29" cy="102.59" r="4.5" fill="#d97706" fill-opacity="0.9"/>
<circle cx="621.43" cy="104.42" r="4.5" fill="#d97706" fill-opacity="0.9"/>
<circle cx="638.57" cy="97.58" r="4.5" fill="#d97706" fill-opacity="0.9"/>
<circle cx="655.71" cy="104.87" r="4.5" fill="#d97706" fill-opacity="0.9"/>
<circle cx="672.86" cy="106.69" r="4.5" fill="#d97706" fill-opacity="0.9"/>
<circle cx="690.00" cy="103.73" r="4.5" fill="#d97706" fill-opacity="0.9"/>
<circle cx="707.14" cy="101.91" r="4.5" fill="#d97706" fill-opacity="0.9"/>
<circle cx="724.29" cy="101.23" r="4.5" fill="#d97706" fill-opacity="0.9"/>
<circle cx="741.43" cy="150.88" r="4.5" fill="#d97706" fill-opacity="0.9"/>
<circle cx="758.57" cy="94.17" r="4.5" fill="#d97706" fill-opacity="0.9"/>
<circle cx="775.71" cy="101.00" r="4.5" fill="#d97706" fill-opacity="0.9"/>
<circle cx="792.86" cy="100.09" r="4.5" fill="#d97706" fill-opacity="0.9"/>
<circle cx="810.00" cy="103.05" r="4.5" fill="#d97706" fill-opacity="0.9"/>
<circle cx="827.14" cy="100.77" r="4.5" fill="#d97706" fill-opacity="0.9"/>
<circle cx="844.29" cy="103.51" r="4.5" fill="#d97706" fill-opacity="0.9"/>
<circle cx="861.43" cy="113.30" r="4.5" fill="#d97706" fill-opacity="0.9"/>
<circle cx="878.57" cy="95.99" r="4.5" fill="#d97706" fill-opacity="0.9"/>
<circle cx="895.71" cy="100.77" r="4.5" fill="#d97706" fill-opacity="0.9"/>
<circle cx="912.86" cy="97.13" r="4.5" fill="#d97706" fill-opacity="0.9"/>
<circle cx="930.00" cy="116.94" r="4.5" fill="#d97706" fill-opacity="0.9"/>
<rect x="90" y="32" width="18" height="6" fill="#d97706"/>
<text x="114" y="38" font-size="13" fill="#333333">val</text>
<polyline fill="none" stroke="#059669" stroke-width="3" points="90.00,435.83 107.14,205.32 124.29,258.62 141.43,368.41 158.57,179.36 175.71,138.81 192.86,142.91 210.00,128.79 227.14,173.43 244.29,127.42 261.43,131.52 278.57,116.72 295.71,117.86 312.86,131.52 330.00,127.65 347.14,143.59 364.29,113.76 381.43,114.44 398.57,114.21 415.71,114.89 432.86,103.96 450.00,106.24 467.14,102.14 484.29,107.61 501.43,107.38 518.57,115.58 535.71,102.82 552.86,104.19 570.00,117.40 587.14,103.73 604.29,106.01 621.43,109.43 638.57,104.42 655.71,110.57 672.86,109.88 690.00,102.82 707.14,111.02 724.29,101.23 741.43,144.73 758.57,102.82 775.71,107.38 792.86,107.38 810.00,108.52 827.14,102.82 844.29,105.33 861.43,112.84 878.57,98.49 895.71,100.54 912.86,103.05 930.00,115.81"/>
<circle cx="90.00" cy="435.83" r="4.5" fill="#059669" fill-opacity="0.9"/>
<circle cx="107.14" cy="205.32" r="4.5" fill="#059669" fill-opacity="0.9"/>
<circle cx="124.29" cy="258.62" r="4.5" fill="#059669" fill-opacity="0.9"/>
<circle cx="141.43" cy="368.41" r="4.5" fill="#059669" fill-opacity="0.9"/>
<circle cx="158.57" cy="179.36" r="4.5" fill="#059669" fill-opacity="0.9"/>
<circle cx="175.71" cy="138.81" r="4.5" fill="#059669" fill-opacity="0.9"/>
<circle cx="192.86" cy="142.91" r="4.5" fill="#059669" fill-opacity="0.9"/>
<circle cx="210.00" cy="128.79" r="4.5" fill="#059669" fill-opacity="0.9"/>
<circle cx="227.14" cy="173.43" r="4.5" fill="#059669" fill-opacity="0.9"/>
<circle cx="244.29" cy="127.42" r="4.5" fill="#059669" fill-opacity="0.9"/>
<circle cx="261.43" cy="131.52" r="4.5" fill="#059669" fill-opacity="0.9"/>
<circle cx="278.57" cy="116.72" r="4.5" fill="#059669" fill-opacity="0.9"/>
<circle cx="295.71" cy="117.86" r="4.5" fill="#059669" fill-opacity="0.9"/>
<circle cx="312.86" cy="131.52" r="4.5" fill="#059669" fill-opacity="0.9"/>
<circle cx="330.00" cy="127.65" r="4.5" fill="#059669" fill-opacity="0.9"/>
<circle cx="347.14" cy="143.59" r="4.5" fill="#059669" fill-opacity="0.9"/>
<circle cx="364.29" cy="113.76" r="4.5" fill="#059669" fill-opacity="0.9"/>
<circle cx="381.43" cy="114.44" r="4.5" fill="#059669" fill-opacity="0.9"/>
<circle cx="398.57" cy="114.21" r="4.5" fill="#059669" fill-opacity="0.9"/>
<circle cx="415.71" cy="114.89" r="4.5" fill="#059669" fill-opacity="0.9"/>
<circle cx="432.86" cy="103.96" r="4.5" fill="#059669" fill-opacity="0.9"/>
<circle cx="450.00" cy="106.24" r="4.5" fill="#059669" fill-opacity="0.9"/>
<circle cx="467.14" cy="102.14" r="4.5" fill="#059669" fill-opacity="0.9"/>
<circle cx="484.29" cy="107.61" r="4.5" fill="#059669" fill-opacity="0.9"/>
<circle cx="501.43" cy="107.38" r="4.5" fill="#059669" fill-opacity="0.9"/>
<circle cx="518.57" cy="115.58" r="4.5" fill="#059669" fill-opacity="0.9"/>
<circle cx="535.71" cy="102.82" r="4.5" fill="#059669" fill-opacity="0.9"/>
<circle cx="552.86" cy="104.19" r="4.5" fill="#059669" fill-opacity="0.9"/>
<circle cx="570.00" cy="117.40" r="4.5" fill="#059669" fill-opacity="0.9"/>
<circle cx="587.14" cy="103.73" r="4.5" fill="#059669" fill-opacity="0.9"/>
<circle cx="604.29" cy="106.01" r="4.5" fill="#059669" fill-opacity="0.9"/>
<circle cx="621.43" cy="109.43" r="4.5" fill="#059669" fill-opacity="0.9"/>
<circle cx="638.57" cy="104.42" r="4.5" fill="#059669" fill-opacity="0.9"/>
<circle cx="655.71" cy="110.57" r="4.5" fill="#059669" fill-opacity="0.9"/>
<circle cx="672.86" cy="109.88" r="4.5" fill="#059669" fill-opacity="0.9"/>
<circle cx="690.00" cy="102.82" r="4.5" fill="#059669" fill-opacity="0.9"/>
<circle cx="707.14" cy="111.02" r="4.5" fill="#059669" fill-opacity="0.9"/>
<circle cx="724.29" cy="101.23" r="4.5" fill="#059669" fill-opacity="0.9"/>
<circle cx="741.43" cy="144.73" r="4.5" fill="#059669" fill-opacity="0.9"/>
<circle cx="758.57" cy="102.82" r="4.5" fill="#059669" fill-opacity="0.9"/>
<circle cx="775.71" cy="107.38" r="4.5" fill="#059669" fill-opacity="0.9"/>
<circle cx="792.86" cy="107.38" r="4.5" fill="#059669" fill-opacity="0.9"/>
<circle cx="810.00" cy="108.52" r="4.5" fill="#059669" fill-opacity="0.9"/>
<circle cx="827.14" cy="102.82" r="4.5" fill="#059669" fill-opacity="0.9"/>
<circle cx="844.29" cy="105.33" r="4.5" fill="#059669" fill-opacity="0.9"/>
<circle cx="861.43" cy="112.84" r="4.5" fill="#059669" fill-opacity="0.9"/>
<circle cx="878.57" cy="98.49" r="4.5" fill="#059669" fill-opacity="0.9"/>
<circle cx="895.71" cy="100.54" r="4.5" fill="#059669" fill-opacity="0.9"/>
<circle cx="912.86" cy="103.05" r="4.5" fill="#059669" fill-opacity="0.9"/>
<circle cx="930.00" cy="115.81" r="4.5" fill="#059669" fill-opacity="0.9"/>
<rect x="270" y="32" width="18" height="6" fill="#059669"/>
<text x="294" y="38" font-size="13" fill="#333333">test</text>
</svg>