<svg xmlns="http://www.w3.org/2000/svg" width="960" height="540">
<rect width="100%" height="100%" fill="#ffffff"/>
<text x="480.0" y="30" font-size="22" text-anchor="middle" fill="#111111">Position 1 Accuracy</text>
<text x="20" y="270.0" font-size="16" transform="rotate(-90 20,270.0)" text-anchor="middle" fill="#333333">Accuracy</text>
<text x="480.0" y="520" font-size="16" text-anchor="middle" fill="#333333">Epoch</text>
<line x1="90" y1="60" x2="90" y2="470" stroke="#333333" stroke-width="2"/>
<line x1="90" y1="470" x2="930" y2="470" stroke="#333333" stroke-width="2"/>
<line x1="90" y1="470.00" x2="930" y2="470.00" stroke="#e5e7eb" stroke-width="1"/>
<text x="80" y="475.00" font-size="12" text-anchor="end" fill="#555555">0.8911</text>
<line x1="90" y1="367.50" x2="930" y2="367.50" stroke="#e5e7eb" stroke-width="1"/>
<text x="80" y="372.50" font-size="12" text-anchor="end" fill="#555555">0.9189</text>
<line x1="90" y1="265.00" x2="930" y2="265.00" stroke="#e5e7eb" stroke-width="1"/>
<text x="80" y="270.00" font-size="12" text-anchor="end" fill="#555555">0.9467</text>
<line x1="90" y1="162.50" x2="930" y2="162.50" stroke="#e5e7eb" stroke-width="1"/>
<text x="80" y="167.50" font-size="12" text-anchor="end" fill="#555555">0.9745</text>
<line x1="90" y1="60.00" x2="930" y2="60.00" stroke="#e5e7eb" stroke-width="1"/>
<text x="80" y="65.00" font-size="12" text-anchor="end" fill="#555555">1.0023</text>
<line x1="90.00" y1="60" x2="90.00" y2="470" stroke="#f3f4f6" stroke-width="1"/>
<text x="90.00" y="492" font-size="12" text-anchor="middle" fill="#555555">1</text>
<line x1="107.14" y1="60" x2="107.14" y2="470" stroke="#f3f4f6" stroke-width="1"/>
<text x="107.14" y="492" font-size="12" text-anchor="middle" fill="#555555">2</text>
<line x1="124.29" y1="60" x2="124.29" y2="470" stroke="#f3f4f6" stroke-width="1"/>
<text x="124.29" y="492" font-size="12" text-anchor="middle" fill="#555555">3</text>
<line x1="141.43" y1="60" x2="141.43" y2="470" stroke="#f3f4f6" stroke-width="1"/>
<text x="141.43" y="492" font-size="12" text-anchor="middle" fill="#555555">4</text>
<line x1="158.57" y1="60" x2="158.57" y2="470" stroke="#f3f4f6" stroke-width="1"/>
<text x="158.57" y="492" font-size="12" text-anchor="middle" fill="#555555">5</text>
<line x1="175.71" y1="60" x2="175.71" y2="470" stroke="#f3f4f6" stroke-width="1"/>
<text x="175.71" y="492" font-size="12" text-anchor="middle" fill="#555555">6</text>
<line x1="192.86" y1="60" x2="192.86" y2="470" stroke="#f3f4f6" stroke-width="1"/>
<text x="192.86" y="492" font-size="12" text-anchor="middle" fill="#555555">7</text>
<line x1="210.00" y1="60" x2="210.00" y2="470" stroke="#f3f4f6" stroke-width="1"/>
<text x="210.00" y="492" font-size="12" text-anchor="middle" fill="#555555">8</text>
<line x1="227.14" y1="60" x2="227.14" y2="470" stroke="#f3f4f6" stroke-width="1"/>
<text x="227.14" y="492" font-size="12" text-anchor="middle" fill="#555555">9</text>
<line x1="244.29" y1="60" x2="244.29" y2="470" stroke="#f3f4f6" stroke-width="1"/>
<text x="244.29" y="492" font-size="12" text-anchor="middle" fill="#555555">10</text>
<line x1="261.43" y1="60" x2="261.43" y2="470" stroke="#f3f4f6" stroke-width="1"/>
<text x="261.43" y="492" font-size="12" text-anchor="middle" fill="#555555">11</text>
<line x1="278.57" y1="60" x2="278.57" y2="470" stroke="#f3f4f6" stroke-width="1"/>
<text x="278.57" y="492" font-size="12" text-anchor="middle" fill="#555555">12</text>
<line x1="295.71" y1="60" x2="295.71" y2="470" stroke="#f3f4f6" stroke-width="1"/>
<text x="295.71" y="492" font-size="12" text-anchor="middle" fill="#555555">13</text>
<line x1="312.86" y1="60" x2="312.86" y2="470" stroke="#f3f4f6" stroke-width="1"/>
<text x="312.86" y="492" font-size="12" text-anchor="middle" fill="#555555">14</text>
<line x1="330.00" y1="60" x2="330.00" y2="470" stroke="#f3f4f6" stroke-width="1"/>
<text x="330.00" y="492" font-size="12" text-anchor="middle" fill="#555555">15</text>
<line x1="347.14" y1="60" x2="347.14" y2="470" stroke="#f3f4f6" stroke-width="1"/>
<text x="347.14" y="492" font-size="12" text-anchor="middle" fill="#555555">16</text>
<line x1="364.29" y1="60" x2="364.29" y2="470" stroke="#f3f4f6" stroke-width="1"/>
<text x="364.29" y="492" font-size="12" text-anchor="middle" fill="#555555">17</text>
<line x1="381.43" y1="60" x2="381.43" y2="470" stroke="#f3f4f6" stroke-width="1"/>
<text x="381.43" y="492" font-size="12" text-anchor="middle" fill="#555555">18</text>
<line x1="398.57" y1="60" x2="398.57" y2="470" stroke="#f3f4f6" stroke-width="1"/>
<text x="398.57" y="492" font-size="12" text-anchor="middle" fill="#555555">19</text>
<line x1="415.71" y1="60" x2="415.71" y2="470" stroke="#f3f4f6" stroke-width="1"/>
<text x="415.71" y="492" font-size="12" text-anchor="middle" fill="#555555">20</text>
<line x1="432.86" y1="60" x2="432.86" y2="470" stroke="#f3f4f6" stroke-width="1"/>
<text x="432.86" y="492" font-size="12" text-anchor="middle" fill="#555555">21</text>
<line x1="450.00" y1="60" x2="450.00" y2="470" stroke="#f3f4f6" stroke-width="1"/>
<text x="450.00" y="492" font-size="12" text-anchor="middle" fill="#555555">22</text>
<line x1="467.14" y1="60" x2="467.14" y2="470" stroke="#f3f4f6" stroke-width="1"/>
<text x="467.14" y="492" font-size="12" text-anchor="middle" fill="#555555">23</text>
<line x1="484.29" y1="60" x2="484.29" y2="470" stroke="#f3f4f6" stroke-width="1"/>
<text x="484.29" y="492" font-size="12" text-anchor="middle" fill="#555555">24</text>
<line x1="501.43" y1="60" x2="501.43" y2="470" stroke="#f3f4f6" stroke-width="1"/>
<text x="501.43" y="492" font-size="12" text-anchor="middle" fill="#555555">25</text>
<line x1="518.57" y1="60" x2="518.57" y2="470" stroke="#f3f4f6" stroke-width="1"/>
<text x="518.57" y="492" font-size="12" text-anchor="middle" fill="#555555">26</text>
<line x1="535.71" y1="60" x2="535.71" y2="470" stroke="#f3f4f6" stroke-width="1"/>
<text x="535.71" y="492" font-size="12" text-anchor="middle" fill="#555555">27</text>
<line x1="552.86" y1="60" x2="552.86" y2="470" stroke="#f3f4f6" stroke-width="1"/>
<text x="552.86" y="492" font-size="12" text-anchor="middle" fill="#555555">28</text>
<line x1="570.00" y1="60" x2="570.00" y2="470" stroke="#f3f4f6" stroke-width="1"/>
<text x="570.00" y="492" font-size="12" text-anchor="middle" fill="#555555">29</text>
<line x1="587.14" y1="60" x2="587.14" y2="470" stroke="#f3f4f6" stroke-width="1"/>
<text x="587.14" y="492" font-size="12" text-anchor="middle" fill="#555555">30</text>
<line x1="604.29" y1="60" x2="604.29" y2="470" stroke="#f3f4f6" stroke-width="1"/>
<text x="604.29" y="492" font-size="12" text-anchor="middle" fill="#555555">31</text>
<line x1="621.43" y1="60" x2="621.43" y2="470" stroke="#f3f4f6" stroke-width="1"/>
<text x="621.43" y="492" font-size="12" text-anchor="middle" fill="#555555">32</text>
<line x1="638.57" y1="60" x2="638.57" y2="470" stroke="#f3f4f6" stroke-width="1"/>
<text x="638.57" y="492" font-size="12" text-anchor="middle" fill="#555555">33</text>
<line x1="655.71" y1="60" x2="655.71" y2="470" stroke="#f3f4f6" stroke-width="1"/>
<text x="655.71" y="492" font-size="12" text-anchor="middle" fill="#555555">34</text>
<line x1="672.86" y1="60" x2="672.86" y2="470" stroke="#f3f4f6" stroke-width="1"/>
<text x="672.86" y="492" font-size="12" text-anchor="middle" fill="#555555">35</text>
<line x1="690.00" y1="60" x2="690.00" y2="470" stroke="#f3f4f6" stroke-width="1"/>
<text x="690.00" y="492" font-size="12" text-anchor="middle" fill="#555555">36</text>
<line x1="707.14" y1="60" x2="707.14" y2="470" stroke="#f3f4f6" stroke-width="1"/>
<text x="707.14" y="492" font-size="12" text-anchor="middle" fill="#555555">37</text>
<line x1="724.29" y1="60" x2="724.29" y2="470" stroke="#f3f4f6" stroke-width="1"/>
<text x="724.29" y="492" font-size="12" text-anchor="middle" fill="#555555">38</text>
<line x1="741.43" y1="60" x2="741.43" y2="470" stroke="#f3f4f6" stroke-width="1"/>
<text x="741.43" y="492" font-size="12" text-anchor="middle" fill="#555555">39</text>
<line x1="758.57" y1="60" x2="758.57" y2="470" stroke="#f3f4f6" stroke-width="1"/>
<text x="758.57" y="492" font-size="12" text-anchor="middle" fill="#555555">40</text>
<line x1="775.71" y1="60" x2="775.71" y2="470" stroke="#f3f4f6" stroke-width="1"/>
<text x="775.71" y="492" font-size="12" text-anchor="middle" fill="#555555">41</text>
<line x1="792.86" y1="60" x2="792.86" y2="470" stroke="#f3f4f6" stroke-width="1"/>
<text x="792.86" y="492" font-size="12" text-anchor="middle" fill="#555555">42</text>
<line x1="810.00" y1="60" x2="810.00" y2="470" stroke="#f3f4f6" stroke-width="1"/>
<text x="810.00" y="492" font-size="12" text-anchor="middle" fill="#555555">43</text>
<line x1="827.14" y1="60" x2="827.14" y2="470" stroke="#f3f4f6" stroke-width="1"/>
<text x="827.14" y="492" font-size="12" text-anchor="middle" fill="#555555">44</text>
<line x1="844.29" y1="60" x2="844.29" y2="470" stroke="#f3f4f6" stroke-width="1"/>
<text x="844.29" y="492" font-size="12" text-anchor="middle" fill="#555555">45</text>
<line x1="861.43" y1="60" x2="861.43" y2="470" stroke="#f3f4f6" stroke-width="1"/>
<text x="861.43" y="492" font-size="12" text-anchor="middle" fill="#555555">46</text>
<line x1="878.57" y1="60" x2="878.57" y2="470" stroke="#f3f4f6" stroke-width="1"/>
<text x="878.57" y="492" font-size="12" text-anchor="middle" fill="#555555">47</text>
<line x1="895.71" y1="60" x2="895.71" y2="470" stroke="#f3f4f6" stroke-width="1"/>
<text x="895.71" y="492" font-size="12" text-anchor="middle" fill="#555555">48</text>
<line x1="912.86" y1="60" x2="912.86" y2="470" stroke="#f3f4f6" stroke-width="1"/>
<text x="912.86" y="492" font-size="12" text-anchor="middle" fill="#555555">49</text>
<line x1="930.00" y1="60" x2="930.00" y2="470" stroke="#f3f4f6" stroke-width="1"/>
<text x="930.00" y="492" font-size="12" text-anchor="middle" fill="#555555">50</text>
<polyline fill="none" stroke="#d97706" stroke-width="3" points="90.00,432.64 107.14,192.24 124.29,159.55 141.43,332.84 158.57,152.67 175.71,124.65 192.86,137.43 210.00,117.03 227.14,162.75 244.29,160.78 261.43,117.03 278.57,116.53 295.71,107.69 312.86,112.60 330.00,122.19 347.14,125.14 364.29,104.24 381.43,119.48 398.57,107.44 415.71,108.67 432.86,107.19 450.00,101.05 467.14,107.44 484.29,104.49 501.43,108.18 518.57,102.28 535.71,108.91 552.86,121.94 570.00,117.27 587.14,112.60 604.29,105.97 621.43,117.52 638.57,106.46 655.71,111.86 672.86,103.02 690.00,102.52 707.14,112.60 724.29,103.26 741.43,162.50 758.57,100.80 775.71,100.07 792.86,104.49 810.00,100.56 827.14,99.57 844.29,107.93 861.43,116.29 878.57,102.77 895.71,104.98 912.86,107.44 930.00,111.13"/>
<circle cx="90.00" cy="432.64" r="4.5" fill="#d97706" fill-opacity="0.9"/>
<circle cx="107.14" cy="192.24" r="4.5" fill="#d97706" fill-opacity="0.9"/>
<circle cx="124.29" cy="159.55" r="4.5" fill="#d97706" fill-opacity="0.9"/>
<circle cx="141.43" cy="332.84" r="4.5" fill="#d97706" fill-opacity="0.9"/>
<circle cx="158.57" cy="152.67" r="4.5" fill="#d97706" fill-opacity="0.9"/>
<circle cx="175.71" cy="124.65" r="4.5" fill="#d97706" fill-opacity="0.9"/>
<circle cx="192.86" cy="137.43" r="4.5" fill="#d97706" fill-opacity="0.9"/>
<circle cx="210.00" cy="117.03" r="4.5" fill="#d97706" fill-opacity="0.9"/>
<circle cx="227.14" cy="162.75" r="4.5" fill="#d97706" fill-opacity="0.9"/>
<circle cx="244.29" cy="160.78" r="4.5" fill="#d97706" fill-opacity="0.9"/>
<circle cx="261.43" cy="117.03" r="4.5" fill="#d97706" fill-opacity="0.9"/>
<circle cx="278.57" cy="116.53" r="4.5" fill="#d97706" fill-opacity="0.9"/>
<circle cx="295.71" cy="107.69" r="4.5" fill="#d97706" fill-opacity="0.9"/>
<circle cx="312.86" cy="112.60" r="4.5" fill="#d97706" fill-opacity="0.9"/>
<circle cx="330.00" cy="122.19" r="4.5" fill="#d97706" fill-opacity="0.9"/>
<circle cx="347.14" cy="125.14" r="4.5" fill="#d97706" fill-opacity="0.9"/>
<circle cx="364.29" cy="104.24" r="4.5" fill="#d97706" fill-opacity="0.9"/>
<circle cx="381.43" cy="119.48" r="4.5" fill="#d97706" fill-opacity="0.9"/>
<circle cx="398.57" cy="107.44" r="4.5" fill="#d97706" fill-opacity="0.9"/>
<circle cx="415.71" cy="108.67" r="4.5" fill="#d97706" fill-opacity="0.9"/>
<circle cx="432.86" cy="107.19" r="4.5" fill="#d97706" fill-opacity="0.9"/>
<circle cx="450.00" cy="101.05" r="4.5" fill="#d97706" fill-opacity="0.9"/>
<circle cx="467.14" cy="107.44" r="4.5" fill="#d97706" fill-opacity="0.9"/>
<circle cx="484.29" cy="104.49" r="4.5" fill="#d97706" fill-opacity="0.9"/>
<circle cx="501.43" cy="108.18" r="4.5" fill="#d97706" fill-opacity="0.9"/>
<circle cx="518.57" cy="102.28" r="4.5" fill="#d97706" fill-opacity="0.9"/>
<circle cx="535.71" cy="108.91" r="4.5" fill="#d97706" fill-opacity="0.9"/>
<circle cx="552.86" cy="121.94" r="4.5" fill="#d97706" fill-opacity="0.9"/>
<circle cx="570.00" cy="117.27" r="4.5" fill="#d97706" fill-opacity="0.9"/>
<circle cx="587.14" cy="112.60" r="4.5" fill="#d97706" fill-opacity="0.9"/>
<circle cx="604.29" cy="105.97" r="4.5" fill="#d97706" fill-opacity="0.9"/>
<circle cx="621.43" cy="117.52" r="4.5" fill="#d97706" fill-opacity="0.9"/>
<circle cx="638.57" cy="106.46" r="4.5" fill="#d97706" fill-opacity="0.9"/>
<circle cx="655.71" cy="111.86" r="4.5" fill="#d97706" fill-opacity="0.9"/>
<circle cx="672.86" cy="103.02" r="4.5" fill="#d97706" fill-opacity="0.9"/>
<circle cx="690.00" cy="102.52" r="4.5" fill="#d97706" fill-opacity="0.9"/>
<circle cx="707.14" cy="112.60" r="4.5" fill="#d97706" fill-opacity="0.9"/>
<circle cx="724.29" cy="103.26" r="4.5" fill="#d97706" fill-opacity="0.9"/>
<circle cx="741.43" cy="162.50" r="4.5" fill="#d97706" fill-opacity="0.9"/>
<circle cx="758.57" cy="100.80" r="4.5" fill="#d97706" fill-opacity="0.9"/>
<circle cx="775.71" cy="100.07" r="4.5" fill="#d97706" fill-opacity="0.9"/>
<circle cx="792.86" cy="104.49" r="4.5" fill="#d97706" fill-opacity="0.9"/>
<circle cx="810.00" cy="100.56" r="4.5" fill="#d97706" fill-opacity="0.9"/>
<circle cx="827.14" cy="99.57" r="4.5" fill="#d97706" fill-opacity="0.9"/>
<circle cx="844.29" cy="107.93" r="4.5" fill="#d97706" fill-opacity="0.9"/>
<circle cx="861.43" cy="116.29" r="4.5" fill="#d97706" fill-opacity="0.9"/>
<circle cx="878.57" cy="102.77" r="4.5" fill="#d97706" fill-opacity="0.9"/>
<circle cx="895.71" cy="104.98" r="4.5" fill="#d97706" fill-opacity="0.9"/>
<circle cx="912.86" cy="107.44" r="4.5" fill="#d97706" fill-opacity="0.9"/>
<circle cx="930.00" cy="111.13" r="4.5" fill="#d97706" fill-opacity="0.9"/>
<rect x="90" y="32" width="18" height="6" fill="#d97706"/>
<text x="114" y="38" font-size="13" fill="#333333">val</text>
<polyline fill="none" stroke="#059669" stroke-width="3" points="90.00,435.83 107.14,191.26 124.29,160.04 141.43,308.02 158.57,151.44 175.71,121.21 192.86,136.94 210.00,116.53 227.14,161.27 244.29,155.13 261.43,116.29 278.57,113.34 295.71,101.79 312.86,115.31 330.00,114.08 347.14,122.43 364.29,102.03 381.43,118.99 398.57,103.26 415.71,103.51 432.86,108.91 450.00,94.17 467.14,95.89 484.29,101.54 501.43,105.23 518.57,99.33 535.71,100.07 552.86,112.85 570.00,107.69 587.14,107.19 604.29,98.84 621.43,114.57 638.57,98.10 655.71,108.42 672.86,100.56 690.00,100.31 707.14,104.49 724.29,100.80 741.43,167.17 758.57,96.38 775.71,96.62 792.86,102.52 810.00,97.85 827.14,98.10 844.29,104.49 861.43,118.99 878.57,105.23 895.71,107.44 912.86,103.51 930.00,111.62"/>
<circle cx="90.00" cy="435.83" r="4.5" fill="#059669" fill-opacity="0.9"/>
<circle cx="107.14" cy="191.26" r="4.5" fill="#059669" fill-opacity="0.9"/>
<circle cx="124.29" cy="160.04" r="4.5" fill="#059669" fill-opacity="0.9"/>
<circle cx="141.43" cy="308.02" r="4.5" fill="#059669" fill-opacity="0.9"/>
<circle cx="158.57" cy="151.44" r="4.5" fill="#059669" fill-opacity="0.9"/>
<circle cx="175.71" cy="121.21" r="4.5" fill="#059669" fill-opacity="0.9"/>
<circle cx="192.86" cy="136.94" r="4.5" fill="#059669" fill-opacity="0.9"/>
<circle cx="210.00" cy="116.53" r="4.5" fill="#059669" fill-opacity="0.9"/>
<circle cx="227.14" cy="161.27" r="4.5" fill="#059669" fill-opacity="0.9"/>
<circle cx="244.29" cy="155.13" r="4.5" fill="#059669" fill-opacity="0.9"/>
<circle cx="261.43" cy="116.29" r="4.5" fill="#059669" fill-opacity="0.9"/>
<circle cx="278.57" cy="113.34" r="4.5" fill="#059669" fill-opacity="0.9"/>
<circle cx="295.71" cy="101.79" r="4.5" fill="#059669" fill-opacity="0.9"/>
<circle cx="312.86" cy="115.31" r="4.5" fill="#059669" fill-opacity="0.9"/>
<circle cx="330.00" cy="114.08" r="4.5" fill="#059669" fill-opacity="0.9"/>
<circle cx="347.14" cy="122.43" r="4.5" fill="#059669" fill-opacity="0.9"/>
<circle cx="364.29" cy="102.03" r="4.5" fill="#059669" fill-opacity="0.9"/>
<circle cx="381.43" cy="118.99" r="4.5" fill="#059669" fill-opacity="0.9"/>
<circle cx="398.57" cy="103.26" r="4.5" fill="#059669" fill-opacity="0.9"/>
<circle cx="415.71" cy="103.51" r="4.5" fill="#059669" fill-opacity="0.9"/>
<circle cx="432.86" cy="108.91" r="4.5" fill="#059669" fill-opacity="0.9"/>
<circle cx="450.00" cy="94.17" r="4.5" fill="#059669" fill-opacity="0.9"/>
<circle cx="467.14" cy="95.89" r="4.5" fill="#059669" fill-opacity="0.9"/>
<circle cx="484.29" cy="101.54" r="4.5" fill="#059669" fill-opacity="0.9"/>
<circle cx="501.43" cy="105.23" r="4.5" fill="#059669" fill-opacity="0.9"/>
<circle cx="518.57" cy="99.33" r="4.5" fill="#059669" fill-opacity="0.9"/>
<circle cx="535.71" cy="100.07" r="4.5" fill="#059669" fill-opacity="0.9"/>
<circle cx="552.86" cy="112.85" r="4.5" fill="#059669" fill-opacity="0.9"/>
<circle cx="570.00" cy="107.69" r="4.5" fill="#059669" fill-opacity="0.9"/>
<circle cx="587.14" cy="107.19" r="4.5" fill="#059669" fill-opacity="0.9"/>
<circle cx="604.29" cy="98.84" r="4.5" fill="#059669" fill-opacity="0.9"/>
<circle cx="621.43" cy="114.57" r="4.5" fill="#059669" fill-opacity="0.9"/>
<circle cx="638.57" cy="98.10" r="4.5" fill="#059669" fill-opacity="0.9"/>
<circle cx="655.71" cy="108.42" r="4.5" fill="#059669" fill-opacity="0.9"/>
<circle cx="672.86" cy="100.56" r="4.5" fill="#059669" fill-opacity="0.9"/>
<circle cx="690.00" cy="100.31" r="4.5" fill="#059669" fill-opacity="0.9"/>
<circle cx="707.14" cy="104.49" r="4.5" fill="#059669" fill-opacity="0.9"/>
<circle cx="724.29" cy="100.80" r="4.5" fill="#059669" fill-opacity="0.9"/>
<circle cx="741.43" cy="167.17" r="4.5" fill="#059669" fill-opacity="0.9"/>
<circle cx="758.57" cy="96.38" r="4.5" fill="#059669" fill-opacity="0.9"/>
<circle cx="775.71" cy="96.62" r="4.5" fill="#059669" fill-opacity="0.9"/>
<circle cx="792.86" cy="102.52" r="4.5" fill="#059669" fill-opacity="0.9"/>
<circle cx="810.00" cy="97.85" r="4.5" fill="#059669" fill-opacity="0.9"/>
<circle cx="827.14" cy="98.10" r="4.5" fill="#059669" fill-opacity="0.9"/>
<circle cx="844.29" cy="104.49" r="4.5" fill="#059669" fill-opacity="0.9"/>
<circle cx="861.43" cy="118.99" r="4.5" fill="#059669" fill-opacity="0.9"/>
<circle cx="878.57" cy="105.23" r="4.5" fill="#059669" fill-opacity="0.9"/>
<circle cx="895.71" cy="107.44" r="4.5" fill="#059669" fill-opacity="0.9"/>
<circle cx="912.86" cy="103.51" r="4.5" fill="#059669" fill-opacity="0.9"/>
<circle cx="930.00" cy="111.62" r="4.5" fill="#059669" fill-opacity="0.9"/>
<rect x="270" y="32" width="18" height="6" fill="#059669"/>
<text x="294" y="38" font-size="13" fill="#333333">test</text>
</svg>