<svg xmlns="http://www.w3.org/2000/svg" width="960" height="540">
<rect width="100%" height="100%" fill="#ffffff"/>
<text x="480.0" y="30" font-size="22" text-anchor="middle" fill="#111111">Consistency Loss</text>
<text x="20" y="270.0" font-size="16" transform="rotate(-90 20,270.0)" text-anchor="middle" fill="#333333">Loss</text>
<text x="480.0" y="520" font-size="16" text-anchor="middle" fill="#333333">Epoch</text>
<line x1="90" y1="60" x2="90" y2="470" stroke="#333333" stroke-width="2"/>
<line x1="90" y1="470" x2="930" y2="470" stroke="#333333" stroke-width="2"/>
<line x1="90" y1="470.00" x2="930" y2="470.00" stroke="#e5e7eb" stroke-width="1"/>
<text x="80" y="475.00" font-size="12" text-anchor="end" fill="#555555">-0.0502</text>
<line x1="90" y1="367.50" x2="930" y2="367.50" stroke="#e5e7eb" stroke-width="1"/>
<text x="80" y="372.50" font-size="12" text-anchor="end" fill="#555555">0.1378</text>
<line x1="90" y1="265.00" x2="930" y2="265.00" stroke="#e5e7eb" stroke-width="1"/>
<text x="80" y="270.00" font-size="12" text-anchor="end" fill="#555555">0.3258</text>
<line x1="90" y1="162.50" x2="930" y2="162.50" stroke="#e5e7eb" stroke-width="1"/>
<text x="80" y="167.50" font-size="12" text-anchor="end" fill="#555555">0.5139</text>
<line x1="90" y1="60.00" x2="930" y2="60.00" stroke="#e5e7eb" stroke-width="1"/>
<text x="80" y="65.00" font-size="12" text-anchor="end" fill="#555555">0.7019</text>
<line x1="90.00" y1="60" x2="90.00" y2="470" stroke="#f3f4f6" stroke-width="1"/>
<text x="90.00" y="492" font-size="12" text-anchor="middle" fill="#555555">1</text>
<line x1="98.48" y1="60" x2="98.48" y2="470" stroke="#f3f4f6" stroke-width="1"/>
<text x="98.48" y="492" font-size="12" text-anchor="middle" fill="#555555">2</text>
<line x1="106.97" y1="60" x2="106.97" y2="470" stroke="#f3f4f6" stroke-width="1"/>
<text x="106.97" y="492" font-size="12" text-anchor="middle" fill="#555555">3</text>
<line x1="115.45" y1="60" x2="115.45" y2="470" stroke="#f3f4f6" stroke-width="1"/>
<text x="115.45" y="492" font-size="12" text-anchor="middle" fill="#555555">4</text>
<line x1="123.94" y1="60" x2="123.94" y2="470" stroke="#f3f4f6" stroke-width="1"/>
<text x="123.94" y="492" font-size="12" text-anchor="middle" fill="#555555">5</text>
<line x1="132.42" y1="60" x2="132.42" y2="470" stroke="#f3f4f6" stroke-width="1"/>
<text x="132.42" y="492" font-size="12" text-anchor="middle" fill="#555555">6</text>
<line x1="140.91" y1="60" x2="140.91" y2="470" stroke="#f3f4f6" stroke-width="1"/>
<text x="140.91" y="492" font-size="12" text-anchor="middle" fill="#555555">7</text>
<line x1="149.39" y1="60" x2="149.39" y2="470" stroke="#f3f4f6" stroke-width="1"/>
<text x="149.39" y="492" font-size="12" text-anchor="middle" fill="#555555">8</text>
<line x1="157.88" y1="60" x2="157.88" y2="470" stroke="#f3f4f6" stroke-width="1"/>
<text x="157.88" y="492" font-size="12" text-anchor="middle" fill="#555555">9</text>
<line x1="166.36" y1="60" x2="166.36" y2="470" stroke="#f3f4f6" stroke-width="1"/>
<text x="166.36" y="492" font-size="12" text-anchor="middle" fill="#555555">10</text>
<line x1="174.85" y1="60" x2="174.85" y2="470" stroke="#f3f4f6" stroke-width="1"/>
<text x="174.85" y="492" font-size="12" text-anchor="middle" fill="#555555">11</text>
<line x1="183.33" y1="60" x2="183.33" y2="470" stroke="#f3f4f6" stroke-width="1"/>
<text x="183.33" y="492" font-size="12" text-anchor="middle" fill="#555555">12</text>
<line x1="191.82" y1="60" x2="191.82" y2="470" stroke="#f3f4f6" stroke-width="1"/>
<text x="191.82" y="492" font-size="12" text-anchor="middle" fill="#555555">13</text>
<line x1="200.30" y1="60" x2="200.30" y2="470" stroke="#f3f4f6" stroke-width="1"/>
<text x="200.30" y="492" font-size="12" text-anchor="middle" fill="#555555">14</text>
<line x1="208.79" y1="60" x2="208.79" y2="470" stroke="#f3f4f6" stroke-width="1"/>
<text x="208.79" y="492" font-size="12" text-anchor="middle" fill="#555555">15</text>
<line x1="217.27" y1="60" x2="217.27" y2="470" stroke="#f3f4f6" stroke-width="1"/>
<text x="217.27" y="492" font-size="12" text-anchor="middle" fill="#555555">16</text>
<line x1="225.76" y1="60" x2="225.76" y2="470" stroke="#f3f4f6" stroke-width="1"/>
<text x="225.76" y="492" font-size="12" text-anchor="middle" fill="#555555">17</text>
<line x1="234.24" y1="60" x2="234.24" y2="470" stroke="#f3f4f6" stroke-width="1"/>
<text x="234.24" y="492" font-size="12" text-anchor="middle" fill="#555555">18</text>
<line x1="242.73" y1="60" x2="242.73" y2="470" stroke="#f3f4f6" stroke-width="1"/>
<text x="242.73" y="492" font-size="12" text-anchor="middle" fill="#555555">19</text>
<line x1="251.21" y1="60" x2="251.21" y2="470" stroke="#f3f4f6" stroke-width="1"/>
<text x="251.21" y="492" font-size="12" text-anchor="middle" fill="#555555">20</text>
<line x1="259.70" y1="60" x2="259.70" y2="470" stroke="#f3f4f6" stroke-width="1"/>
<text x="259.70" y="492" font-size="12" text-anchor="middle" fill="#555555">21</text>
<line x1="268.18" y1="60" x2="268.18" y2="470" stroke="#f3f4f6" stroke-width="1"/>
<text x="268.18" y="492" font-size="12" text-anchor="middle" fill="#555555">22</text>
<line x1="276.67" y1="60" x2="276.67" y2="470" stroke="#f3f4f6" stroke-width="1"/>
<text x="276.67" y="492" font-size="12" text-anchor="middle" fill="#555555">23</text>
<line x1="285.15" y1="60" x2="285.15" y2="470" stroke="#f3f4f6" stroke-width="1"/>
<text x="285.15" y="492" font-size="12" text-anchor="middle" fill="#555555">24</text>
<line x1="293.64" y1="60" x2="293.64" y2="470" stroke="#f3f4f6" stroke-width="1"/>
<text x="293.64" y="492" font-size="12" text-anchor="middle" fill="#555555">25</text>
<line x1="302.12" y1="60" x2="302.12" y2="470" stroke="#f3f4f6" stroke-width="1"/>
<text x="302.12" y="492" font-size="12" text-anchor="middle" fill="#555555">26</text>
<line x1="310.61" y1="60" x2="310.61" y2="470" stroke="#f3f4f6" stroke-width="1"/>
<text x="310.61" y="492" font-size="12" text-anchor="middle" fill="#555555">27</text>
<line x1="319.09" y1="60" x2="319.09" y2="470" stroke="#f3f4f6" stroke-width="1"/>
<text x="319.09" y="492" font-size="12" text-anchor="middle" fill="#555555">28</text>
<line x1="327.58" y1="60" x2="327.58" y2="470" stroke="#f3f4f6" stroke-width="1"/>
<text x="327.58" y="492" font-size="12" text-anchor="middle" fill="#555555">29</text>
<line x1="336.06" y1="60" x2="336.06" y2="470" stroke="#f3f4f6" stroke-width="1"/>
<text x="336.06" y="492" font-size="12" text-anchor="middle" fill="#555555">30</text>
<line x1="344.55" y1="60" x2="344.55" y2="470" stroke="#f3f4f6" stroke-width="1"/>
<text x="344.55" y="492" font-size="12" text-anchor="middle" fill="#555555">31</text>
<line x1="353.03" y1="60" x2="353.03" y2="470" stroke="#f3f4f6" stroke-width="1"/>
<text x="353.03" y="492" font-size="12" text-anchor="middle" fill="#555555">32</text>
<line x1="361.52" y1="60" x2="361.52" y2="470" stroke="#f3f4f6" stroke-width="1"/>
<text x="361.52" y="492" font-size="12" text-anchor="middle" fill="#555555">33</text>
<line x1="370.00" y1="60" x2="370.00" y2="470" stroke="#f3f4f6" stroke-width="1"/>
<text x="370.00" y="492" font-size="12" text-anchor="middle" fill="#555555">34</text>
<line x1="378.48" y1="60" x2="378.48" y2="470" stroke="#f3f4f6" stroke-width="1"/>
<text x="378.48" y="492" font-size="12" text-anchor="middle" fill="#555555">35</text>
<line x1="386.97" y1="60" x2="386.97" y2="470" stroke="#f3f4f6" stroke-width="1"/>
<text x="386.97" y="492" font-size="12" text-anchor="middle" fill="#555555">36</text>
<line x1="395.45" y1="60" x2="395.45" y2="470" stroke="#f3f4f6" stroke-width="1"/>
<text x="395.45" y="492" font-size="12" text-anchor="middle" fill="#555555">37</text>
<line x1="403.94" y1="60" x2="403.94" y2="470" stroke="#f3f4f6" stroke-width="1"/>
<text x="403.94" y="492" font-size="12" text-anchor="middle" fill="#555555">38</text>
<line x1="412.42" y1="60" x2="412.42" y2="470" stroke="#f3f4f6" stroke-width="1"/>
<text x="412.42" y="492" font-size="12" text-anchor="middle" fill="#555555">39</text>
<line x1="420.91" y1="60" x2="420.91" y2="470" stroke="#f3f4f6" stroke-width="1"/>
<text x="420.91" y="492" font-size="12" text-anchor="middle" fill="#555555">40</text>
<line x1="429.39" y1="60" x2="429.39" y2="470" stroke="#f3f4f6" stroke-width="1"/>
<text x="429.39" y="492" font-size="12" text-anchor="middle" fill="#555555">41</text>
<line x1="437.88" y1="60" x2="437.88" y2="470" stroke="#f3f4f6" stroke-width="1"/>
<text x="437.88" y="492" font-size="12" text-anchor="middle" fill="#555555">42</text>
<line x1="446.36" y1="60" x2="446.36" y2="470" stroke="#f3f4f6" stroke-width="1"/>
<text x="446.36" y="492" font-size="12" text-anchor="middle" fill="#555555">43</text>
<line x1="454.85" y1="60" x2="454.85" y2="470" stroke="#f3f4f6" stroke-width="1"/>
<text x="454.85" y="492" font-size="12" text-anchor="middle" fill="#555555">44</text>
<line x1="463.33" y1="60" x2="463.33" y2="470" stroke="#f3f4f6" stroke-width="1"/>
<text x="463.33" y="492" font-size="12" text-anchor="middle" fill="#555555">45</text>
<line x1="471.82" y1="60" x2="471.82" y2="470" stroke="#f3f4f6" stroke-width="1"/>
<text x="471.82" y="492" font-size="12" text-anchor="middle" fill="#555555">46</text>
<line x1="480.30" y1="60" x2="480.30" y2="470" stroke="#f3f4f6" stroke-width="1"/>
<text x="480.30" y="492" font-size="12" text-anchor="middle" fill="#555555">47</text>
<line x1="488.79" y1="60" x2="488.79" y2="470" stroke="#f3f4f6" stroke-width="1"/>
<text x="488.79" y="492" font-size="12" text-anchor="middle" fill="#555555">48</text>
<line x1="497.27" y1="60" x2="497.27" y2="470" stroke="#f3f4f6" stroke-width="1"/>
<text x="497.27" y="492" font-size="12" text-anchor="middle" fill="#555555">49</text>
<line x1="505.76" y1="60" x2="505.76" y2="470" stroke="#f3f4f6" stroke-width="1"/>
<text x="505.76" y="492" font-size="12" text-anchor="middle" fill="#555555">50</text>
<line x1="514.24" y1="60" x2="514.24" y2="470" stroke="#f3f4f6" stroke-width="1"/>
<text x="514.24" y="492" font-size="12" text-anchor="middle" fill="#555555">51</text>
<line x1="522.73" y1="60" x2="522.73" y2="470" stroke="#f3f4f6" stroke-width="1"/>
<text x="522.73" y="492" font-size="12" text-anchor="middle" fill="#555555">52</text>
<line x1="531.21" y1="60" x2="531.21" y2="470" stroke="#f3f4f6" stroke-width="1"/>
<text x="531.21" y="492" font-size="12" text-anchor="middle" fill="#555555">53</text>
<line x1="539.70" y1="60" x2="539.70" y2="470" stroke="#f3f4f6" stroke-width="1"/>
<text x="539.70" y="492" font-size="12" text-anchor="middle" fill="#555555">54</text>
<line x1="548.18" y1="60" x2="548.18" y2="470" stroke="#f3f4f6" stroke-width="1"/>
<text x="548.18" y="492" font-size="12" text-anchor="middle" fill="#555555">55</text>
<line x1="556.67" y1="60" x2="556.67" y2="470" stroke="#f3f4f6" stroke-width="1"/>
<text x="556.67" y="492" font-size="12" text-anchor="middle" fill="#555555">56</text>
<line x1="565.15" y1="60" x2="565.15" y2="470" stroke="#f3f4f6" stroke-width="1"/>
<text x="565.15" y="492" font-size="12" text-anchor="middle" fill="#555555">57</text>
<line x1="573.64" y1="60" x2="573.64" y2="470" stroke="#f3f4f6" stroke-width="1"/>
<text x="573.64" y="492" font-size="12" text-anchor="middle" fill="#555555">58</text>
<line x1="582.12" y1="60" x2="582.12" y2="470" stroke="#f3f4f6" stroke-width="1"/>
<text x="582.12" y="492" font-size="12" text-anchor="middle" fill="#555555">59</text>
<line x1="590.61" y1="60" x2="590.61" y2="470" stroke="#f3f4f6" stroke-width="1"/>
<text x="590.61" y="492" font-size="12" text-anchor="middle" fill="#555555">60</text>
<line x1="599.09" y1="60" x2="599.09" y2="470" stroke="#f3f4f6" stroke-width="1"/>
<text x="599.09" y="492" font-size="12" text-anchor="middle" fill="#555555">61</text>
<line x1="607.58" y1="60" x2="607.58" y2="470" stroke="#f3f4f6" stroke-width="1"/>
<text x="607.58" y="492" font-size="12" text-anchor="middle" fill="#555555">62</text>
<line x1="616.06" y1="60" x2="616.06" y2="470" stroke="#f3f4f6" stroke-width="1"/>
<text x="616.06" y="492" font-size="12" text-anchor="middle" fill="#555555">63</text>
<line x1="624.55" y1="60" x2="624.55" y2="470" stroke="#f3f4f6" stroke-width="1"/>
<text x="624.55" y="492" font-size="12" text-anchor="middle" fill="#555555">64</text>
<line x1="633.03" y1="60" x2="633.03" y2="470" stroke="#f3f4f6" stroke-width="1"/>
<text x="633.03" y="492" font-size="12" text-anchor="middle" fill="#555555">65</text>
<line x1="641.52" y1="60" x2="641.52" y2="470" stroke="#f3f4f6" stroke-width="1"/>
<text x="641.52" y="492" font-size="12" text-anchor="middle" fill="#555555">66</text>
<line x1="650.00" y1="60" x2="650.00" y2="470" stroke="#f3f4f6" stroke-width="1"/>
<text x="650.00" y="492" font-size="12" text-anchor="middle" fill="#555555">67</text>
<line x1="658.48" y1="60" x2="658.48" y2="470" stroke="#f3f4f6" stroke-width="1"/>
<text x="658.48" y="492" font-size="12" text-anchor="middle" fill="#555555">68</text>
<line x1="666.97" y1="60" x2="666.97" y2="470" stroke="#f3f4f6" stroke-width="1"/>
<text x="666.97" y="492" font-size="12" text-anchor="middle" fill="#555555">69</text>
<line x1="675.45" y1="60" x2="675.45" y2="470" stroke="#f3f4f6" stroke-width="1"/>
<text x="675.45" y="492" font-size="12" text-anchor="middle" fill="#555555">70</text>
<line x1="683.94" y1="60" x2="683.94" y2="470" stroke="#f3f4f6" stroke-width="1"/>
<text x="683.94" y="492" font-size="12" text-anchor="middle" fill="#555555">71</text>
<line x1="692.42" y1="60" x2="692.42" y2="470" stroke="#f3f4f6" stroke-width="1"/>
<text x="692.42" y="492" font-size="12" text-anchor="middle" fill="#555555">72</text>
<line x1="700.91" y1="60" x2="700.91" y2="470" stroke="#f3f4f6" stroke-width="1"/>
<text x="700.91" y="492" font-size="12" text-anchor="middle" fill="#555555">73</text>
<line x1="709.39" y1="60" x2="709.39" y2="470" stroke="#f3f4f6" stroke-width="1"/>
<text x="709.39" y="492" font-size="12" text-anchor="middle" fill="#555555">74</text>
<line x1="717.88" y1="60" x2="717.88" y2="470" stroke="#f3f4f6" stroke-width="1"/>
<text x="717.88" y="492" font-size="12" text-anchor="middle" fill="#555555">75</text>
<line x1="726.36" y1="60" x2="726.36" y2="470" stroke="#f3f4f6" stroke-width="1"/>
<text x="726.36" y="492" font-size="12" text-anchor="middle" fill="#555555">76</text>
<line x1="734.85" y1="60" x2="734.85" y2="470" stroke="#f3f4f6" stroke-width="1"/>
<text x="734.85" y="492" font-size="12" text-anchor="middle" fill="#555555">77</text>
<line x1="743.33" y1="60" x2="743.33" y2="470" stroke="#f3f4f6" stroke-width="1"/>
<text x="743.33" y="492" font-size="12" text-anchor="middle" fill="#555555">78</text>
<line x1="751.82" y1="60" x2="751.82" y2="470" stroke="#f3f4f6" stroke-width="1"/>
<text x="751.82" y="492" font-size="12" text-anchor="middle" fill="#555555">79</text>
<line x1="760.30" y1="60" x2="760.30" y2="470" stroke="#f3f4f6" stroke-width="1"/>
<text x="760.30" y="492" font-size="12" text-anchor="middle" fill="#555555">80</text>
<line x1="768.79" y1="60" x2="768.79" y2="470" stroke="#f3f4f6" stroke-width="1"/>
<text x="768.79" y="492" font-size="12" text-anchor="middle" fill="#555555">81</text>
<line x1="777.27" y1="60" x2="777.27" y2="470" stroke="#f3f4f6" stroke-width="1"/>
<text x="777.27" y="492" font-size="12" text-anchor="middle" fill="#555555">82</text>
<line x1="785.76" y1="60" x2="785.76" y2="470" stroke="#f3f4f6" stroke-width="1"/>
<text x="785.76" y="492" font-size="12" text-anchor="middle" fill="#555555">83</text>
<line x1="794.24" y1="60" x2="794.24" y2="470" stroke="#f3f4f6" stroke-width="1"/>
<text x="794.24" y="492" font-size="12" text-anchor="middle" fill="#555555">84</text>
<line x1="802.73" y1="60" x2="802.73" y2="470" stroke="#f3f4f6" stroke-width="1"/>
<text x="802.73" y="492" font-size="12" text-anchor="middle" fill="#555555">85</text>
<line x1="811.21" y1="60" x2="811.21" y2="470" stroke="#f3f4f6" stroke-width="1"/>
<text x="811.21" y="492" font-size="12" text-anchor="middle" fill="#555555">86</text>
<line x1="819.70" y1="60" x2="819.70" y2="470" stroke="#f3f4f6" stroke-width="1"/>
<text x="819.70" y="492" font-size="12" text-anchor="middle" fill="#555555">87</text>
<line x1="828.18" y1="60" x2="828.18" y2="470" stroke="#f3f4f6" stroke-width="1"/>
<text x="828.18" y="492" font-size="12" text-anchor="middle" fill="#555555">88</text>
<line x1="836.67" y1="60" x2="836.67" y2="470" stroke="#f3f4f6" stroke-width="1"/>
<text x="836.67" y="492" font-size="12" text-anchor="middle" fill="#555555">89</text>
<line x1="845.15" y1="60" x2="845.15" y2="470" stroke="#f3f4f6" stroke-width="1"/>
<text x="845.15" y="492" font-size="12" text-anchor="middle" fill="#555555">90</text>
<line x1="853.64" y1="60" x2="853.64" y2="470" stroke="#f3f4f6" stroke-width="1"/>
<text x="853.64" y="492" font-size="12" text-anchor="middle" fill="#555555">91</text>
<line x1="862.12" y1="60" x2="862.12" y2="470" stroke="#f3f4f6" stroke-width="1"/>
<text x="862.12" y="492" font-size="12" text-anchor="middle" fill="#555555">92</text>
<line x1="870.61" y1="60" x2="870.61" y2="470" stroke="#f3f4f6" stroke-width="1"/>
<text x="870.61" y="492" font-size="12" text-anchor="middle" fill="#555555">93</text>
<line x1="879.09" y1="60" x2="879.09" y2="470" stroke="#f3f4f6" stroke-width="1"/>
<text x="879.09" y="492" font-size="12" text-anchor="middle" fill="#555555">94</text>
<line x1="887.58" y1="60" x2="887.58" y2="470" stroke="#f3f4f6" stroke-width="1"/>
<text x="887.58" y="492" font-size="12" text-anchor="middle" fill="#555555">95</text>
<line x1="896.06" y1="60" x2="896.06" y2="470" stroke="#f3f4f6" stroke-width="1"/>
<text x="896.06" y="492" font-size="12" text-anchor="middle" fill="#555555">96</text>
<line x1="904.55" y1="60" x2="904.55" y2="470" stroke="#f3f4f6" stroke-width="1"/>
<text x="904.55" y="492" font-size="12" text-anchor="middle" fill="#555555">97</text>
<line x1="913.03" y1="60" x2="913.03" y2="470" stroke="#f3f4f6" stroke-width="1"/>
<text x="913.03" y="492" font-size="12" text-anchor="middle" fill="#555555">98</text>
<line x1="921.52" y1="60" x2="921.52" y2="470" stroke="#f3f4f6" stroke-width="1"/>
<text x="921.52" y="492" font-size="12" text-anchor="middle" fill="#555555">99</text>
<line x1="930.00" y1="60" x2="930.00" y2="470" stroke="#f3f4f6" stroke-width="1"/>
<text x="930.00" y="492" font-size="12" text-anchor="middle" fill="#555555">100</text>
<polyline fill="none" stroke="#dc2626" stroke-width="3" points="90.00,94.17 98.48,341.53 106.97,368.10 115.45,381.29 123.94,380.79 132.42,389.55 140.91,391.80 149.39,393.48 157.88,398.26 166.36,401.70 174.85,400.88 183.33,403.52 191.82,404.51 200.30,404.99 208.79,405.51 217.27,403.96 225.76,411.69 234.24,406.74 242.73,410.63 251.21,410.48 259.70,407.99 268.18,411.29 276.67,414.56 285.15,410.94 293.64,411.89 302.12,411.62 310.61,412.10 319.09,413.84 327.58,412.93 336.06,411.73 344.55,413.12 353.03,417.12 361.52,411.84 370.00,409.98 378.48,413.51 386.97,417.76 395.45,414.63 403.94,416.62 412.42,416.00 420.91,416.04 429.39,416.47 437.88,416.37 446.36,415.20 454.85,420.26 463.33,417.00 471.82,416.86 480.30,416.17 488.79,420.70 497.27,416.82 505.76,418.67 514.24,425.26 522.73,425.50 531.21,425.68 539.70,426.53 548.18,427.64 556.67,427.63 565.15,428.87 573.64,429.42 582.12,429.59 590.61,429.27 599.09,428.81 607.58,430.20 616.06,430.43 624.55,429.08 633.03,431.38 641.52,431.00 650.00,432.36 658.48,432.10 666.97,433.03 675.45,433.45 683.94,431.78 692.42,432.25 700.91,434.44 709.39,432.96 717.88,433.22 726.36,432.80 734.85,433.81 743.33,434.26 751.82,432.71 760.30,434.31 768.79,434.51 777.27,434.18 785.76,432.97 794.24,434.63 802.73,434.52 811.21,435.20 819.70,434.25 828.18,435.20 836.67,435.14 845.15,434.43 853.64,433.95 862.12,435.70 870.61,434.53 879.09,435.83 887.58,434.56 896.06,435.37 904.55,434.90 913.03,435.25 921.52,435.45 930.00,435.55"/>
<circle cx="90.00" cy="94.17" r="4.5" fill="#dc2626" fill-opacity="0.9"/>
<circle cx="98.48" cy="341.53" r="4.5" fill="#dc2626" fill-opacity="0.9"/>
<circle cx="106.97" cy="368.10" r="4.5" fill="#dc2626" fill-opacity="0.9"/>
<circle cx="115.45" cy="381.29" r="4.5" fill="#dc2626" fill-opacity="0.9"/>
<circle cx="123.94" cy="380.79" r="4.5" fill="#dc2626" fill-opacity="0.9"/>
<circle cx="132.42" cy="389.55" r="4.5" fill="#dc2626" fill-opacity="0.9"/>
<circle cx="140.91" cy="391.80" r="4.5" fill="#dc2626" fill-opacity="0.9"/>
<circle cx="149.39" cy="393.48" r="4.5" fill="#dc2626" fill-opacity="0.9"/>
<circle cx="157.88" cy="398.26" r="4.5" fill="#dc2626" fill-opacity="0.9"/>
<circle cx="166.36" cy="401.70" r="4.5" fill="#dc2626" fill-opacity="0.9"/>
<circle cx="174.85" cy="400.88" r="4.5" fill="#dc2626" fill-opacity="0.9"/>
<circle cx="183.33" cy="403.52" r="4.5" fill="#dc2626" fill-opacity="0.9"/>
<circle cx="191.82" cy="404.51" r="4.5" fill="#dc2626" fill-opacity="0.9"/>
<circle cx="200.30" cy="404.99" r="4.5" fill="#dc2626" fill-opacity="0.9"/>
<circle cx="208.79" cy="405.51" r="4.5" fill="#dc2626" fill-opacity="0.9"/>
<circle cx="217.27" cy="403.96" r="4.5" fill="#dc2626" fill-opacity="0.9"/>
<circle cx="225.76" cy="411.69" r="4.5" fill="#dc2626" fill-opacity="0.9"/>
<circle cx="234.24" cy="406.74" r="4.5" fill="#dc2626" fill-opacity="0.9"/>
<circle cx="242.73" cy="410.63" r="4.5" fill="#dc2626" fill-opacity="0.9"/>
<circle cx="251.21" cy="410.48" r="4.5" fill="#dc2626" fill-opacity="0.9"/>
<circle cx="259.70" cy="407.99" r="4.5" fill="#dc2626" fill-opacity="0.9"/>
<circle cx="268.18" cy="411.29" r="4.5" fill="#dc2626" fill-opacity="0.9"/>
<circle cx="276.67" cy="414.56" r="4.5" fill="#dc2626" fill-opacity="0.9"/>
<circle cx="285.15" cy="410.94" r="4.5" fill="#dc2626" fill-opacity="0.9"/>
<circle cx="293.64" cy="411.89" r="4.5" fill="#dc2626" fill-opacity="0.9"/>
<circle cx="302.12" cy="411.62" r="4.5" fill="#dc2626" fill-opacity="0.9"/>
<circle cx="310.61" cy="412.10" r="4.5" fill="#dc2626" fill-opacity="0.9"/>
<circle cx="319.09" cy="413.84" r="4.5" fill="#dc2626" fill-opacity="0.9"/>
<circle cx="327.58" cy="412.93" r="4.5" fill="#dc2626" fill-opacity="0.9"/>
<circle cx="336.06" cy="411.73" r="4.5" fill="#dc2626" fill-opacity="0.9"/>
<circle cx="344.55" cy="413.12" r="4.5" fill="#dc2626" fill-opacity="0.9"/>
<circle cx="353.03" cy="417.12" r="4.5" fill="#dc2626" fill-opacity="0.9"/>
<circle cx="361.52" cy="411.84" r="4.5" fill="#dc2626" fill-opacity="0.9"/>
<circle cx="370.00" cy="409.98" r="4.5" fill="#dc2626" fill-opacity="0.9"/>
<circle cx="378.48" cy="413.51" r="4.5" fill="#dc2626" fill-opacity="0.9"/>
<circle cx="386.97" cy="417.76" r="4.5" fill="#dc2626" fill-opacity="0.9"/>
<circle cx="395.45" cy="414.63" r="4.5" fill="#dc2626" fill-opacity="0.9"/>
<circle cx="403.94" cy="416.62" r="4.5" fill="#dc2626" fill-opacity="0.9"/>
<circle cx="412.42" cy="416.00" r="4.5" fill="#dc2626" fill-opacity="0.9"/>
<circle cx="420.91" cy="416.04" r="4.5" fill="#dc2626" fill-opacity="0.9"/>
<circle cx="429.39" cy="416.47" r="4.5" fill="#dc2626" fill-opacity="0.9"/>
<circle cx="437.88" cy="416.37" r="4.5" fill="#dc2626" fill-opacity="0.9"/>
<circle cx="446.36" cy="415.20" r="4.5" fill="#dc2626" fill-opacity="0.9"/>
<circle cx="454.85" cy="420.26" r="4.5" fill="#dc2626" fill-opacity="0.9"/>
<circle cx="463.33" cy="417.00" r="4.5" fill="#dc2626" fill-opacity="0.9"/>
<circle cx="471.82" cy="416.86" r="4.5" fill="#dc2626" fill-opacity="0.9"/>
<circle cx="480.30" cy="416.17" r="4.5" fill="#dc2626" fill-opacity="0.9"/>
<circle cx="488.79" cy="420.70" r="4.5" fill="#dc2626" fill-opacity="0.9"/>
<circle cx="497.27" cy="416.82" r="4.5" fill="#dc2626" fill-opacity="0.9"/>
<circle cx="505.76" cy="418.67" r="4.5" fill="#dc2626" fill-opacity="0.9"/>
<circle cx="514.24" cy="425.26" r="4.5" fill="#dc2626" fill-opacity="0.9"/>
<circle cx="522.73" cy="425.50" r="4.5" fill="#dc2626" fill-opacity="0.9"/>
<circle cx="531.21" cy="425.68" r="4.5" fill="#dc2626" fill-opacity="0.9"/>
<circle cx="539.70" cy="426.53" r="4.5" fill="#dc2626" fill-opacity="0.9"/>
<circle cx="548.18" cy="427.64" r="4.5" fill="#dc2626" fill-opacity="0.9"/>
<circle cx="556.67" cy="427.63" r="4.5" fill="#dc2626" fill-opacity="0.9"/>
<circle cx="565.15" cy="428.87" r="4.5" fill="#dc2626" fill-opacity="0.9"/>
<circle cx="573.64" cy="429.42" r="4.5" fill="#dc2626" fill-opacity="0.9"/>
<circle cx="582.12" cy="429.59" r="4.5" fill="#dc2626" fill-opacity="0.9"/>
<circle cx="590.61" cy="429.27" r="4.5" fill="#dc2626" fill-opacity="0.9"/>
<circle cx="599.09" cy="428.81" r="4.5" fill="#dc2626" fill-opacity="0.9"/>
<circle cx="607.58" cy="430.20" r="4.5" fill="#dc2626" fill-opacity="0.9"/>
<circle cx="616.06" cy="430.43" r="4.5" fill="#dc2626" fill-opacity="0.9"/>
<circle cx="624.55" cy="429.08" r="4.5" fill="#dc2626" fill-opacity="0.9"/>
<circle cx="633.03" cy="431.38" r="4.5" fill="#dc2626" fill-opacity="0.9"/>
<circle cx="641.52" cy="431.00" r="4.5" fill="#dc2626" fill-opacity="0.9"/>
<circle cx="650.00" cy="432.36" r="4.5" fill="#dc2626" fill-opacity="0.9"/>
<circle cx="658.48" cy="432.10" r="4.5" fill="#dc2626" fill-opacity="0.9"/>
<circle cx="666.97" cy="433.03" r="4.5" fill="#dc2626" fill-opacity="0.9"/>
<circle cx="675.45" cy="433.45" r="4.5" fill="#dc2626" fill-opacity="0.9"/>
<circle cx="683.94" cy="431.78" r="4.5" fill="#dc2626" fill-opacity="0.9"/>
<circle cx="692.42" cy="432.25" r="4.5" fill="#dc2626" fill-opacity="0.9"/>
<circle cx="700.91" cy="434.44" r="4.5" fill="#dc2626" fill-opacity="0.9"/>
<circle cx="709.39" cy="432.96" r="4.5" fill="#dc2626" fill-opacity="0.9"/>
<circle cx="717.88" cy="433.22" r="4.5" fill="#dc2626" fill-opacity="0.9"/>
<circle cx="726.36" cy="432.80" r="4.5" fill="#dc2626" fill-opacity="0.9"/>
<circle cx="734.85" cy="433.81" r="4.5" fill="#dc2626" fill-opacity="0.9"/>
<circle cx="743.33" cy="434.26" r="4.5" fill="#dc2626" fill-opacity="0.9"/>
<circle cx="751.82" cy="432.71" r="4.5" fill="#dc2626" fill-opacity="0.9"/>
<circle cx="760.30" cy="434.31" r="4.5" fill="#dc2626" fill-opacity="0.9"/>
<circle cx="768.79" cy="434.51" r="4.5" fill="#dc2626" fill-opacity="0.9"/>
<circle cx="777.27" cy="434.18" r="4.5" fill="#dc2626" fill-opacity="0.9"/>
<circle cx="785.76" cy="432.97" r="4.5" fill="#dc2626" fill-opacity="0.9"/>
<circle cx="794.24" cy="434.63" r="4.5" fill="#dc2626" fill-opacity="0.9"/>
<circle cx="802.73" cy="434.52" r="4.5" fill="#dc2626" fill-opacity="0.9"/>
<circle cx="811.21" cy="435.20" r="4.5" fill="#dc2626" fill-opacity="0.9"/>
<circle cx="819.70" cy="434.25" r="4.5" fill="#dc2626" fill-opacity="0.9"/>
<circle cx="828.18" cy="435.20" r="4.5" fill="#dc2626" fill-opacity="0.9"/>
<circle cx="836.67" cy="435.14" r="4.5" fill="#dc2626" fill-opacity="0.9"/>
<circle cx="845.15" cy="434.43" r="4.5" fill="#dc2626" fill-opacity="0.9"/>
<circle cx="853.64" cy="433.95" r="4.5" fill="#dc2626" fill-opacity="0.9"/>
<circle cx="862.12" cy="435.70" r="4.5" fill="#dc2626" fill-opacity="0.9"/>
<circle cx="870.61" cy="434.53" r="4.5" fill="#dc2626" fill-opacity="0.9"/>
<circle cx="879.09" cy="435.83" r="4.5" fill="#dc2626" fill-opacity="0.9"/>
<circle cx="887.58" cy="434.56" r="4.5" fill="#dc2626" fill-opacity="0.9"/>
<circle cx="896.06" cy="435.37" r="4.5" fill="#dc2626" fill-opacity="0.9"/>
<circle cx="904.55" cy="434.90" r="4.5" fill="#dc2626" fill-opacity="0.9"/>
<circle cx="913.03" cy="435.25" r="4.5" fill="#dc2626" fill-opacity="0.9"/>
<circle cx="921.52" cy="435.45" r="4.5" fill="#dc2626" fill-opacity="0.9"/>
<circle cx="930.00" cy="435.55" r="4.5" fill="#dc2626" fill-opacity="0.9"/>
<rect x="90" y="32" width="18" height="6" fill="#dc2626"/>
<text x="114" y="38" font-size="13" fill="#333333">train</text>
</svg>