<svg xmlns="http://www.w3.org/2000/svg" width="960" height="540">
<rect width="100%" height="100%" fill="#ffffff"/>
<text x="480.0" y="30" font-size="22" text-anchor="middle" fill="#111111">Loss</text>
<text x="20" y="270.0" font-size="16" transform="rotate(-90 20,270.0)" text-anchor="middle" fill="#333333">Loss</text>
<text x="480.0" y="520" font-size="16" text-anchor="middle" fill="#333333">Epoch</text>
<line x1="90" y1="60" x2="90" y2="470" stroke="#333333" stroke-width="2"/>
<line x1="90" y1="470" x2="930" y2="470" stroke="#333333" stroke-width="2"/>
<line x1="90" y1="470.00" x2="930" y2="470.00" stroke="#e5e7eb" stroke-width="1"/>
<text x="80" y="475.00" font-size="12" text-anchor="end" fill="#555555">-11.5103</text>
<line x1="90" y1="367.50" x2="930" y2="367.50" stroke="#e5e7eb" stroke-width="1"/>
<text x="80" y="372.50" font-size="12" text-anchor="end" fill="#555555">23.0595</text>
<line x1="90" y1="265.00" x2="930" y2="265.00" stroke="#e5e7eb" stroke-width="1"/>
<text x="80" y="270.00" font-size="12" text-anchor="end" fill="#555555">57.6293</text>
<line x1="90" y1="162.50" x2="930" y2="162.50" stroke="#e5e7eb" stroke-width="1"/>
<text x="80" y="167.50" font-size="12" text-anchor="end" fill="#555555">92.1991</text>
<line x1="90" y1="60.00" x2="930" y2="60.00" stroke="#e5e7eb" stroke-width="1"/>
<text x="80" y="65.00" font-size="12" text-anchor="end" fill="#555555">126.7689</text>
<line x1="90.00" y1="60" x2="90.00" y2="470" stroke="#f3f4f6" stroke-width="1"/>
<text x="90.00" y="492" font-size="12" text-anchor="middle" fill="#555555">1</text>
<line x1="98.48" y1="60" x2="98.48" y2="470" stroke="#f3f4f6" stroke-width="1"/>
<text x="98.48" y="492" font-size="12" text-anchor="middle" fill="#555555">2</text>
<line x1="106.97" y1="60" x2="106.97" y2="470" stroke="#f3f4f6" stroke-width="1"/>
<text x="106.97" y="492" font-size="12" text-anchor="middle" fill="#555555">3</text>
<line x1="115.45" y1="60" x2="115.45" y2="470" stroke="#f3f4f6" stroke-width="1"/>
<text x="115.45" y="492" font-size="12" text-anchor="middle" fill="#555555">4</text>
<line x1="123.94" y1="60" x2="123.94" y2="470" stroke="#f3f4f6" stroke-width="1"/>
<text x="123.94" y="492" font-size="12" text-anchor="middle" fill="#555555">5</text>
<line x1="132.42" y1="60" x2="132.42" y2="470" stroke="#f3f4f6" stroke-width="1"/>
<text x="132.42" y="492" font-size="12" text-anchor="middle" fill="#555555">6</text>
<line x1="140.91" y1="60" x2="140.91" y2="470" stroke="#f3f4f6" stroke-width="1"/>
<text x="140.91" y="492" font-size="12" text-anchor="middle" fill="#555555">7</text>
<line x1="149.39" y1="60" x2="149.39" y2="470" stroke="#f3f4f6" stroke-width="1"/>
<text x="149.39" y="492" font-size="12" text-anchor="middle" fill="#555555">8</text>
<line x1="157.88" y1="60" x2="157.88" y2="470" stroke="#f3f4f6" stroke-width="1"/>
<text x="157.88" y="492" font-size="12" text-anchor="middle" fill="#555555">9</text>
<line x1="166.36" y1="60" x2="166.36" y2="470" stroke="#f3f4f6" stroke-width="1"/>
<text x="166.36" y="492" font-size="12" text-anchor="middle" fill="#555555">10</text>
<line x1="174.85" y1="60" x2="174.85" y2="470" stroke="#f3f4f6" stroke-width="1"/>
<text x="174.85" y="492" font-size="12" text-anchor="middle" fill="#555555">11</text>
<line x1="183.33" y1="60" x2="183.33" y2="470" stroke="#f3f4f6" stroke-width="1"/>
<text x="183.33" y="492" font-size="12" text-anchor="middle" fill="#555555">12</text>
<line x1="191.82" y1="60" x2="191.82" y2="470" stroke="#f3f4f6" stroke-width="1"/>
<text x="191.82" y="492" font-size="12" text-anchor="middle" fill="#555555">13</text>
<line x1="200.30" y1="60" x2="200.30" y2="470" stroke="#f3f4f6" stroke-width="1"/>
<text x="200.30" y="492" font-size="12" text-anchor="middle" fill="#555555">14</text>
<line x1="208.79" y1="60" x2="208.79" y2="470" stroke="#f3f4f6" stroke-width="1"/>
<text x="208.79" y="492" font-size="12" text-anchor="middle" fill="#555555">15</text>
<line x1="217.27" y1="60" x2="217.27" y2="470" stroke="#f3f4f6" stroke-width="1"/>
<text x="217.27" y="492" font-size="12" text-anchor="middle" fill="#555555">16</text>
<line x1="225.76" y1="60" x2="225.76" y2="470" stroke="#f3f4f6" stroke-width="1"/>
<text x="225.76" y="492" font-size="12" text-anchor="middle" fill="#555555">17</text>
<line x1="234.24" y1="60" x2="234.24" y2="470" stroke="#f3f4f6" stroke-width="1"/>
<text x="234.24" y="492" font-size="12" text-anchor="middle" fill="#555555">18</text>
<line x1="242.73" y1="60" x2="242.73" y2="470" stroke="#f3f4f6" stroke-width="1"/>
<text x="242.73" y="492" font-size="12" text-anchor="middle" fill="#555555">19</text>
<line x1="251.21" y1="60" x2="251.21" y2="470" stroke="#f3f4f6" stroke-width="1"/>
<text x="251.21" y="492" font-size="12" text-anchor="middle" fill="#555555">20</text>
<line x1="259.70" y1="60" x2="259.70" y2="470" stroke="#f3f4f6" stroke-width="1"/>
<text x="259.70" y="492" font-size="12" text-anchor="middle" fill="#555555">21</text>
<line x1="268.18" y1="60" x2="268.18" y2="470" stroke="#f3f4f6" stroke-width="1"/>
<text x="268.18" y="492" font-size="12" text-anchor="middle" fill="#555555">22</text>
<line x1="276.67" y1="60" x2="276.67" y2="470" stroke="#f3f4f6" stroke-width="1"/>
<text x="276.67" y="492" font-size="12" text-anchor="middle" fill="#555555">23</text>
<line x1="285.15" y1="60" x2="285.15" y2="470" stroke="#f3f4f6" stroke-width="1"/>
<text x="285.15" y="492" font-size="12" text-anchor="middle" fill="#555555">24</text>
<line x1="293.64" y1="60" x2="293.64" y2="470" stroke="#f3f4f6" stroke-width="1"/>
<text x="293.64" y="492" font-size="12" text-anchor="middle" fill="#555555">25</text>
<line x1="302.12" y1="60" x2="302.12" y2="470" stroke="#f3f4f6" stroke-width="1"/>
<text x="302.12" y="492" font-size="12" text-anchor="middle" fill="#555555">26</text>
<line x1="310.61" y1="60" x2="310.61" y2="470" stroke="#f3f4f6" stroke-width="1"/>
<text x="310.61" y="492" font-size="12" text-anchor="middle" fill="#555555">27</text>
<line x1="319.09" y1="60" x2="319.09" y2="470" stroke="#f3f4f6" stroke-width="1"/>
<text x="319.09" y="492" font-size="12" text-anchor="middle" fill="#555555">28</text>
<line x1="327.58" y1="60" x2="327.58" y2="470" stroke="#f3f4f6" stroke-width="1"/>
<text x="327.58" y="492" font-size="12" text-anchor="middle" fill="#555555">29</text>
<line x1="336.06" y1="60" x2="336.06" y2="470" stroke="#f3f4f6" stroke-width="1"/>
<text x="336.06" y="492" font-size="12" text-anchor="middle" fill="#555555">30</text>
<line x1="344.55" y1="60" x2="344.55" y2="470" stroke="#f3f4f6" stroke-width="1"/>
<text x="344.55" y="492" font-size="12" text-anchor="middle" fill="#555555">31</text>
<line x1="353.03" y1="60" x2="353.03" y2="470" stroke="#f3f4f6" stroke-width="1"/>
<text x="353.03" y="492" font-size="12" text-anchor="middle" fill="#555555">32</text>
<line x1="361.52" y1="60" x2="361.52" y2="470" stroke="#f3f4f6" stroke-width="1"/>
<text x="361.52" y="492" font-size="12" text-anchor="middle" fill="#555555">33</text>
<line x1="370.00" y1="60" x2="370.00" y2="470" stroke="#f3f4f6" stroke-width="1"/>
<text x="370.00" y="492" font-size="12" text-anchor="middle" fill="#555555">34</text>
<line x1="378.48" y1="60" x2="378.48" y2="470" stroke="#f3f4f6" stroke-width="1"/>
<text x="378.48" y="492" font-size="12" text-anchor="middle" fill="#555555">35</text>
<line x1="386.97" y1="60" x2="386.97" y2="470" stroke="#f3f4f6" stroke-width="1"/>
<text x="386.97" y="492" font-size="12" text-anchor="middle" fill="#555555">36</text>
<line x1="395.45" y1="60" x2="395.45" y2="470" stroke="#f3f4f6" stroke-width="1"/>
<text x="395.45" y="492" font-size="12" text-anchor="middle" fill="#555555">37</text>
<line x1="403.94" y1="60" x2="403.94" y2="470" stroke="#f3f4f6" stroke-width="1"/>
<text x="403.94" y="492" font-size="12" text-anchor="middle" fill="#555555">38</text>
<line x1="412.42" y1="60" x2="412.42" y2="470" stroke="#f3f4f6" stroke-width="1"/>
<text x="412.42" y="492" font-size="12" text-anchor="middle" fill="#555555">39</text>
<line x1="420.91" y1="60" x2="420.91" y2="470" stroke="#f3f4f6" stroke-width="1"/>
<text x="420.91" y="492" font-size="12" text-anchor="middle" fill="#555555">40</text>
<line x1="429.39" y1="60" x2="429.39" y2="470" stroke="#f3f4f6" stroke-width="1"/>
<text x="429.39" y="492" font-size="12" text-anchor="middle" fill="#555555">41</text>
<line x1="437.88" y1="60" x2="437.88" y2="470" stroke="#f3f4f6" stroke-width="1"/>
<text x="437.88" y="492" font-size="12" text-anchor="middle" fill="#555555">42</text>
<line x1="446.36" y1="60" x2="446.36" y2="470" stroke="#f3f4f6" stroke-width="1"/>
<text x="446.36" y="492" font-size="12" text-anchor="middle" fill="#555555">43</text>
<line x1="454.85" y1="60" x2="454.85" y2="470" stroke="#f3f4f6" stroke-width="1"/>
<text x="454.85" y="492" font-size="12" text-anchor="middle" fill="#555555">44</text>
<line x1="463.33" y1="60" x2="463.33" y2="470" stroke="#f3f4f6" stroke-width="1"/>
<text x="463.33" y="492" font-size="12" text-anchor="middle" fill="#555555">45</text>
<line x1="471.82" y1="60" x2="471.82" y2="470" stroke="#f3f4f6" stroke-width="1"/>
<text x="471.82" y="492" font-size="12" text-anchor="middle" fill="#555555">46</text>
<line x1="480.30" y1="60" x2="480.30" y2="470" stroke="#f3f4f6" stroke-width="1"/>
<text x="480.30" y="492" font-size="12" text-anchor="middle" fill="#555555">47</text>
<line x1="488.79" y1="60" x2="488.79" y2="470" stroke="#f3f4f6" stroke-width="1"/>
<text x="488.79" y="492" font-size="12" text-anchor="middle" fill="#555555">48</text>
<line x1="497.27" y1="60" x2="497.27" y2="470" stroke="#f3f4f6" stroke-width="1"/>
<text x="497.27" y="492" font-size="12" text-anchor="middle" fill="#555555">49</text>
<line x1="505.76" y1="60" x2="505.76" y2="470" stroke="#f3f4f6" stroke-width="1"/>
<text x="505.76" y="492" font-size="12" text-anchor="middle" fill="#555555">50</text>
<line x1="514.24" y1="60" x2="514.24" y2="470" stroke="#f3f4f6" stroke-width="1"/>
<text x="514.24" y="492" font-size="12" text-anchor="middle" fill="#555555">51</text>
<line x1="522.73" y1="60" x2="522.73" y2="470" stroke="#f3f4f6" stroke-width="1"/>
<text x="522.73" y="492" font-size="12" text-anchor="middle" fill="#555555">52</text>
<line x1="531.21" y1="60" x2="531.21" y2="470" stroke="#f3f4f6" stroke-width="1"/>
<text x="531.21" y="492" font-size="12" text-anchor="middle" fill="#555555">53</text>
<line x1="539.70" y1="60" x2="539.70" y2="470" stroke="#f3f4f6" stroke-width="1"/>
<text x="539.70" y="492" font-size="12" text-anchor="middle" fill="#555555">54</text>
<line x1="548.18" y1="60" x2="548.18" y2="470" stroke="#f3f4f6" stroke-width="1"/>
<text x="548.18" y="492" font-size="12" text-anchor="middle" fill="#555555">55</text>
<line x1="556.67" y1="60" x2="556.67" y2="470" stroke="#f3f4f6" stroke-width="1"/>
<text x="556.67" y="492" font-size="12" text-anchor="middle" fill="#555555">56</text>
<line x1="565.15" y1="60" x2="565.15" y2="470" stroke="#f3f4f6" stroke-width="1"/>
<text x="565.15" y="492" font-size="12" text-anchor="middle" fill="#555555">57</text>
<line x1="573.64" y1="60" x2="573.64" y2="470" stroke="#f3f4f6" stroke-width="1"/>
<text x="573.64" y="492" font-size="12" text-anchor="middle" fill="#555555">58</text>
<line x1="582.12" y1="60" x2="582.12" y2="470" stroke="#f3f4f6" stroke-width="1"/>
<text x="582.12" y="492" font-size="12" text-anchor="middle" fill="#555555">59</text>
<line x1="590.61" y1="60" x2="590.61" y2="470" stroke="#f3f4f6" stroke-width="1"/>
<text x="590.61" y="492" font-size="12" text-anchor="middle" fill="#555555">60</text>
<line x1="599.09" y1="60" x2="599.09" y2="470" stroke="#f3f4f6" stroke-width="1"/>
<text x="599.09" y="492" font-size="12" text-anchor="middle" fill="#555555">61</text>
<line x1="607.58" y1="60" x2="607.58" y2="470" stroke="#f3f4f6" stroke-width="1"/>
<text x="607.58" y="492" font-size="12" text-anchor="middle" fill="#555555">62</text>
<line x1="616.06" y1="60" x2="616.06" y2="470" stroke="#f3f4f6" stroke-width="1"/>
<text x="616.06" y="492" font-size="12" text-anchor="middle" fill="#555555">63</text>
<line x1="624.55" y1="60" x2="624.55" y2="470" stroke="#f3f4f6" stroke-width="1"/>
<text x="624.55" y="492" font-size="12" text-anchor="middle" fill="#555555">64</text>
<line x1="633.03" y1="60" x2="633.03" y2="470" stroke="#f3f4f6" stroke-width="1"/>
<text x="633.03" y="492" font-size="12" text-anchor="middle" fill="#555555">65</text>
<line x1="641.52" y1="60" x2="641.52" y2="470" stroke="#f3f4f6" stroke-width="1"/>
<text x="641.52" y="492" font-size="12" text-anchor="middle" fill="#555555">66</text>
<line x1="650.00" y1="60" x2="650.00" y2="470" stroke="#f3f4f6" stroke-width="1"/>
<text x="650.00" y="492" font-size="12" text-anchor="middle" fill="#555555">67</text>
<line x1="658.48" y1="60" x2="658.48" y2="470" stroke="#f3f4f6" stroke-width="1"/>
<text x="658.48" y="492" font-size="12" text-anchor="middle" fill="#555555">68</text>
<line x1="666.97" y1="60" x2="666.97" y2="470" stroke="#f3f4f6" stroke-width="1"/>
<text x="666.97" y="492" font-size="12" text-anchor="middle" fill="#555555">69</text>
<line x1="675.45" y1="60" x2="675.45" y2="470" stroke="#f3f4f6" stroke-width="1"/>
<text x="675.45" y="492" font-size="12" text-anchor="middle" fill="#555555">70</text>
<line x1="683.94" y1="60" x2="683.94" y2="470" stroke="#f3f4f6" stroke-width="1"/>
<text x="683.94" y="492" font-size="12" text-anchor="middle" fill="#555555">71</text>
<line x1="692.42" y1="60" x2="692.42" y2="470" stroke="#f3f4f6" stroke-width="1"/>
<text x="692.42" y="492" font-size="12" text-anchor="middle" fill="#555555">72</text>
<line x1="700.91" y1="60" x2="700.91" y2="470" stroke="#f3f4f6" stroke-width="1"/>
<text x="700.91" y="492" font-size="12" text-anchor="middle" fill="#555555">73</text>
<line x1="709.39" y1="60" x2="709.39" y2="470" stroke="#f3f4f6" stroke-width="1"/>
<text x="709.39" y="492" font-size="12" text-anchor="middle" fill="#555555">74</text>
<line x1="717.88" y1="60" x2="717.88" y2="470" stroke="#f3f4f6" stroke-width="1"/>
<text x="717.88" y="492" font-size="12" text-anchor="middle" fill="#555555">75</text>
<line x1="726.36" y1="60" x2="726.36" y2="470" stroke="#f3f4f6" stroke-width="1"/>
<text x="726.36" y="492" font-size="12" text-anchor="middle" fill="#555555">76</text>
<line x1="734.85" y1="60" x2="734.85" y2="470" stroke="#f3f4f6" stroke-width="1"/>
<text x="734.85" y="492" font-size="12" text-anchor="middle" fill="#555555">77</text>
<line x1="743.33" y1="60" x2="743.33" y2="470" stroke="#f3f4f6" stroke-width="1"/>
<text x="743.33" y="492" font-size="12" text-anchor="middle" fill="#555555">78</text>
<line x1="751.82" y1="60" x2="751.82" y2="470" stroke="#f3f4f6" stroke-width="1"/>
<text x="751.82" y="492" font-size="12" text-anchor="middle" fill="#555555">79</text>
<line x1="760.30" y1="60" x2="760.30" y2="470" stroke="#f3f4f6" stroke-width="1"/>
<text x="760.30" y="492" font-size="12" text-anchor="middle" fill="#555555">80</text>
<line x1="768.79" y1="60" x2="768.79" y2="470" stroke="#f3f4f6" stroke-width="1"/>
<text x="768.79" y="492" font-size="12" text-anchor="middle" fill="#555555">81</text>
<line x1="777.27" y1="60" x2="777.27" y2="470" stroke="#f3f4f6" stroke-width="1"/>
<text x="777.27" y="492" font-size="12" text-anchor="middle" fill="#555555">82</text>
<line x1="785.76" y1="60" x2="785.76" y2="470" stroke="#f3f4f6" stroke-width="1"/>
<text x="785.76" y="492" font-size="12" text-anchor="middle" fill="#555555">83</text>
<line x1="794.24" y1="60" x2="794.24" y2="470" stroke="#f3f4f6" stroke-width="1"/>
<text x="794.24" y="492" font-size="12" text-anchor="middle" fill="#555555">84</text>
<line x1="802.73" y1="60" x2="802.73" y2="470" stroke="#f3f4f6" stroke-width="1"/>
<text x="802.73" y="492" font-size="12" text-anchor="middle" fill="#555555">85</text>
<line x1="811.21" y1="60" x2="811.21" y2="470" stroke="#f3f4f6" stroke-width="1"/>
<text x="811.21" y="492" font-size="12" text-anchor="middle" fill="#555555">86</text>
<line x1="819.70" y1="60" x2="819.70" y2="470" stroke="#f3f4f6" stroke-width="1"/>
<text x="819.70" y="492" font-size="12" text-anchor="middle" fill="#555555">87</text>
<line x1="828.18" y1="60" x2="828.18" y2="470" stroke="#f3f4f6" stroke-width="1"/>
<text x="828.18" y="492" font-size="12" text-anchor="middle" fill="#555555">88</text>
<line x1="836.67" y1="60" x2="836.67" y2="470" stroke="#f3f4f6" stroke-width="1"/>
<text x="836.67" y="492" font-size="12" text-anchor="middle" fill="#555555">89</text>
<line x1="845.15" y1="60" x2="845.15" y2="470" stroke="#f3f4f6" stroke-width="1"/>
<text x="845.15" y="492" font-size="12" text-anchor="middle" fill="#555555">90</text>
<line x1="853.64" y1="60" x2="853.64" y2="470" stroke="#f3f4f6" stroke-width="1"/>
<text x="853.64" y="492" font-size="12" text-anchor="middle" fill="#555555">91</text>
<line x1="862.12" y1="60" x2="862.12" y2="470" stroke="#f3f4f6" stroke-width="1"/>
<text x="862.12" y="492" font-size="12" text-anchor="middle" fill="#555555">92</text>
<line x1="870.61" y1="60" x2="870.61" y2="470" stroke="#f3f4f6" stroke-width="1"/>
<text x="870.61" y="492" font-size="12" text-anchor="middle" fill="#555555">93</text>
<line x1="879.09" y1="60" x2="879.09" y2="470" stroke="#f3f4f6" stroke-width="1"/>
<text x="879.09" y="492" font-size="12" text-anchor="middle" fill="#555555">94</text>
<line x1="887.58" y1="60" x2="887.58" y2="470" stroke="#f3f4f6" stroke-width="1"/>
<text x="887.58" y="492" font-size="12" text-anchor="middle" fill="#555555">95</text>
<line x1="896.06" y1="60" x2="896.06" y2="470" stroke="#f3f4f6" stroke-width="1"/>
<text x="896.06" y="492" font-size="12" text-anchor="middle" fill="#555555">96</text>
<line x1="904.55" y1="60" x2="904.55" y2="470" stroke="#f3f4f6" stroke-width="1"/>
<text x="904.55" y="492" font-size="12" text-anchor="middle" fill="#555555">97</text>
<line x1="913.03" y1="60" x2="913.03" y2="470" stroke="#f3f4f6" stroke-width="1"/>
<text x="913.03" y="492" font-size="12" text-anchor="middle" fill="#555555">98</text>
<line x1="921.52" y1="60" x2="921.52" y2="470" stroke="#f3f4f6" stroke-width="1"/>
<text x="921.52" y="492" font-size="12" text-anchor="middle" fill="#555555">99</text>
<line x1="930.00" y1="60" x2="930.00" y2="470" stroke="#f3f4f6" stroke-width="1"/>
<text x="930.00" y="492" font-size="12" text-anchor="middle" fill="#555555">100</text>
<polyline fill="none" stroke="#1d4ed8" stroke-width="3" points="90.00,410.69 98.48,426.90 106.97,431.05 115.45,434.09 123.94,434.33 132.42,434.46 140.91,434.67 149.39,434.74 157.88,434.91 166.36,434.94 174.85,435.00 183.33,435.11 191.82,435.10 200.30,435.17 208.79,435.20 217.27,435.24 225.76,435.30 234.24,435.31 242.73,435.35 251.21,435.38 259.70,435.39 268.18,435.40 276.67,435.47 285.15,435.45 293.64,435.47 302.12,435.47 310.61,435.49 319.09,435.52 327.58,435.52 336.06,435.52 344.55,435.53 353.03,435.60 361.52,435.54 370.00,435.55 378.48,435.54 386.97,435.60 395.45,435.59 403.94,435.60 412.42,435.61 420.91,435.60 429.39,435.61 437.88,435.62 446.36,435.61 454.85,435.61 463.33,435.64 471.82,435.63 480.30,435.63 488.79,435.67 497.27,435.61 505.76,435.68 514.24,435.74 522.73,435.76 531.21,435.77 539.70,435.77 548.18,435.78 556.67,435.78 565.15,435.79 573.64,435.79 582.12,435.80 590.61,435.79 599.09,435.79 607.58,435.80 616.06,435.80 624.55,435.79 633.03,435.81 641.52,435.80 650.00,435.81 658.48,435.81 666.97,435.82 675.45,435.82 683.94,435.81 692.42,435.81 700.91,435.82 709.39,435.82 717.88,435.82 726.36,435.82 734.85,435.82 743.33,435.82 751.82,435.82 760.30,435.82 768.79,435.83 777.27,435.82 785.76,435.82 794.24,435.83 802.73,435.83 811.21,435.83 819.70,435.82 828.18,435.83 836.67,435.83 845.15,435.83 853.64,435.82 862.12,435.83 870.61,435.83 879.09,435.83 887.58,435.83 896.06,435.83 904.55,435.83 913.03,435.83 921.52,435.83 930.00,435.83"/>
<circle cx="90.00" cy="410.69" r="4.5" fill="#1d4ed8" fill-opacity="0.9"/>
<circle cx="98.48" cy="426.90" r="4.5" fill="#1d4ed8" fill-opacity="0.9"/>
<circle cx="106.97" cy="431.05" r="4.5" fill="#1d4ed8" fill-opacity="0.9"/>
<circle cx="115.45" cy="434.09" r="4.5" fill="#1d4ed8" fill-opacity="0.9"/>
<circle cx="123.94" cy="434.33" r="4.5" fill="#1d4ed8" fill-opacity="0.9"/>
<circle cx="132.42" cy="434.46" r="4.5" fill="#1d4ed8" fill-opacity="0.9"/>
<circle cx="140.91" cy="434.67" r="4.5" fill="#1d4ed8" fill-opacity="0.9"/>
<circle cx="149.39" cy="434.74" r="4.5" fill="#1d4ed8" fill-opacity="0.9"/>
<circle cx="157.88" cy="434.91" r="4.5" fill="#1d4ed8" fill-opacity="0.9"/>
<circle cx="166.36" cy="434.94" r="4.5" fill="#1d4ed8" fill-opacity="0.9"/>
<circle cx="174.85" cy="435.00" r="4.5" fill="#1d4ed8" fill-opacity="0.9"/>
<circle cx="183.33" cy="435.11" r="4.5" fill="#1d4ed8" fill-opacity="0.9"/>
<circle cx="191.82" cy="435.10" r="4.5" fill="#1d4ed8" fill-opacity="0.9"/>
<circle cx="200.30" cy="435.17" r="4.5" fill="#1d4ed8" fill-opacity="0.9"/>
<circle cx="208.79" cy="435.20" r="4.5" fill="#1d4ed8" fill-opacity="0.9"/>
<circle cx="217.27" cy="435.24" r="4.5" fill="#1d4ed8" fill-opacity="0.9"/>
<circle cx="225.76" cy="435.30" r="4.5" fill="#1d4ed8" fill-opacity="0.9"/>
<circle cx="234.24" cy="435.31" r="4.5" fill="#1d4ed8" fill-opacity="0.9"/>
<circle cx="242.73" cy="435.35" r="4.5" fill="#1d4ed8" fill-opacity="0.9"/>
<circle cx="251.21" cy="435.38" r="4.5" fill="#1d4ed8" fill-opacity="0.9"/>
<circle cx="259.70" cy="435.39" r="4.5" fill="#1d4ed8" fill-opacity="0.9"/>
<circle cx="268.18" cy="435.40" r="4.5" fill="#1d4ed8" fill-opacity="0.9"/>
<circle cx="276.67" cy="435.47" r="4.5" fill="#1d4ed8" fill-opacity="0.9"/>
<circle cx="285.15" cy="435.45" r="4.5" fill="#1d4ed8" fill-opacity="0.9"/>
<circle cx="293.64" cy="435.47" r="4.5" fill="#1d4ed8" fill-opacity="0.9"/>
<circle cx="302.12" cy="435.47" r="4.5" fill="#1d4ed8" fill-opacity="0.9"/>
<circle cx="310.61" cy="435.49" r="4.5" fill="#1d4ed8" fill-opacity="0.9"/>
<circle cx="319.09" cy="435.52" r="4.5" fill="#1d4ed8" fill-opacity="0.9"/>
<circle cx="327.58" cy="435.52" r="4.5" fill="#1d4ed8" fill-opacity="0.9"/>
<circle cx="336.06" cy="435.52" r="4.5" fill="#1d4ed8" fill-opacity="0.9"/>
<circle cx="344.55" cy="435.53" r="4.5" fill="#1d4ed8" fill-opacity="0.9"/>
<circle cx="353.03" cy="435.60" r="4.5" fill="#1d4ed8" fill-opacity="0.9"/>
<circle cx="361.52" cy="435.54" r="4.5" fill="#1d4ed8" fill-opacity="0.9"/>
<circle cx="370.00" cy="435.55" r="4.5" fill="#1d4ed8" fill-opacity="0.9"/>
<circle cx="378.48" cy="435.54" r="4.5" fill="#1d4ed8" fill-opacity="0.9"/>
<circle cx="386.97" cy="435.60" r="4.5" fill="#1d4ed8" fill-opacity="0.9"/>
<circle cx="395.45" cy="435.59" r="4.5" fill="#1d4ed8" fill-opacity="0.9"/>
<circle cx="403.94" cy="435.60" r="4.5" fill="#1d4ed8" fill-opacity="0.9"/>
<circle cx="412.42" cy="435.61" r="4.5" fill="#1d4ed8" fill-opacity="0.9"/>
<circle cx="420.91" cy="435.60" r="4.5" fill="#1d4ed8" fill-opacity="0.9"/>
<circle cx="429.39" cy="435.61" r="4.5" fill="#1d4ed8" fill-opacity="0.9"/>
<circle cx="437.88" cy="435.62" r="4.5" fill="#1d4ed8" fill-opacity="0.9"/>
<circle cx="446.36" cy="435.61" r="4.5" fill="#1d4ed8" fill-opacity="0.9"/>
<circle cx="454.85" cy="435.61" r="4.5" fill="#1d4ed8" fill-opacity="0.9"/>
<circle cx="463.33" cy="435.64" r="4.5" fill="#1d4ed8" fill-opacity="0.9"/>
<circle cx="471.82" cy="435.63" r="4.5" fill="#1d4ed8" fill-opacity="0.9"/>
<circle cx="480.30" cy="435.63" r="4.5" fill="#1d4ed8" fill-opacity="0.9"/>
<circle cx="488.79" cy="435.67" r="4.5" fill="#1d4ed8" fill-opacity="0.9"/>
<circle cx="497.27" cy="435.61" r="4.5" fill="#1d4ed8" fill-opacity="0.9"/>
<circle cx="505.76" cy="435.68" r="4.5" fill="#1d4ed8" fill-opacity="0.9"/>
<circle cx="514.24" cy="435.74" r="4.5" fill="#1d4ed8" fill-opacity="0.9"/>
<circle cx="522.73" cy="435.76" r="4.5" fill="#1d4ed8" fill-opacity="0.9"/>
<circle cx="531.21" cy="435.77" r="4.5" fill="#1d4ed8" fill-opacity="0.9"/>
<circle cx="539.70" cy="435.77" r="4.5" fill="#1d4ed8" fill-opacity="0.9"/>
<circle cx="548.18" cy="435.78" r="4.5" fill="#1d4ed8" fill-opacity="0.9"/>
<circle cx="556.67" cy="435.78" r="4.5" fill="#1d4ed8" fill-opacity="0.9"/>
<circle cx="565.15" cy="435.79" r="4.5" fill="#1d4ed8" fill-opacity="0.9"/>
<circle cx="573.64" cy="435.79" r="4.5" fill="#1d4ed8" fill-opacity="0.9"/>
<circle cx="582.12" cy="435.80" r="4.5" fill="#1d4ed8" fill-opacity="0.9"/>
<circle cx="590.61" cy="435.79" r="4.5" fill="#1d4ed8" fill-opacity="0.9"/>
<circle cx="599.09" cy="435.79" r="4.5" fill="#1d4ed8" fill-opacity="0.9"/>
<circle cx="607.58" cy="435.80" r="4.5" fill="#1d4ed8" fill-opacity="0.9"/>
<circle cx="616.06" cy="435.80" r="4.5" fill="#1d4ed8" fill-opacity="0.9"/>
<circle cx="624.55" cy="435.79" r="4.5" fill="#1d4ed8" fill-opacity="0.9"/>
<circle cx="633.03" cy="435.81" r="4.5" fill="#1d4ed8" fill-opacity="0.9"/>
<circle cx="641.52" cy="435.80" r="4.5" fill="#1d4ed8" fill-opacity="0.9"/>
<circle cx="650.00" cy="435.81" r="4.5" fill="#1d4ed8" fill-opacity="0.9"/>
<circle cx="658.48" cy="435.81" r="4.5" fill="#1d4ed8" fill-opacity="0.9"/>
<circle cx="666.97" cy="435.82" r="4.5" fill="#1d4ed8" fill-opacity="0.9"/>
<circle cx="675.45" cy="435.82" r="4.5" fill="#1d4ed8" fill-opacity="0.9"/>
<circle cx="683.94" cy="435.81" r="4.5" fill="#1d4ed8" fill-opacity="0.9"/>
<circle cx="692.42" cy="435.81" r="4.5" fill="#1d4ed8" fill-opacity="0.9"/>
<circle cx="700.91" cy="435.82" r="4.5" fill="#1d4ed8" fill-opacity="0.9"/>
<circle cx="709.39" cy="435.82" r="4.5" fill="#1d4ed8" fill-opacity="0.9"/>
<circle cx="717.88" cy="435.82" r="4.5" fill="#1d4ed8" fill-opacity="0.9"/>
<circle cx="726.36" cy="435.82" r="4.5" fill="#1d4ed8" fill-opacity="0.9"/>
<circle cx="734.85" cy="435.82" r="4.5" fill="#1d4ed8" fill-opacity="0.9"/>
<circle cx="743.33" cy="435.82" r="4.5" fill="#1d4ed8" fill-opacity="0.9"/>
<circle cx="751.82" cy="435.82" r="4.5" fill="#1d4ed8" fill-opacity="0.9"/>
<circle cx="760.30" cy="435.82" r="4.5" fill="#1d4ed8" fill-opacity="0.9"/>
<circle cx="768.79" cy="435.83" r="4.5" fill="#1d4ed8" fill-opacity="0.9"/>
<circle cx="777.27" cy="435.82" r="4.5" fill="#1d4ed8" fill-opacity="0.9"/>
<circle cx="785.76" cy="435.82" r="4.5" fill="#1d4ed8" fill-opacity="0.9"/>
<circle cx="794.24" cy="435.83" r="4.5" fill="#1d4ed8" fill-opacity="0.9"/>
<circle cx="802.73" cy="435.83" r="4.5" fill="#1d4ed8" fill-opacity="0.9"/>
<circle cx="811.21" cy="435.83" r="4.5" fill="#1d4ed8" fill-opacity="0.9"/>
<circle cx="819.70" cy="435.82" r="4.5" fill="#1d4ed8" fill-opacity="0.9"/>
<circle cx="828.18" cy="435.83" r="4.5" fill="#1d4ed8" fill-opacity="0.9"/>
<circle cx="836.67" cy="435.83" r="4.5" fill="#1d4ed8" fill-opacity="0.9"/>
<circle cx="845.15" cy="435.83" r="4.5" fill="#1d4ed8" fill-opacity="0.9"/>
<circle cx="853.64" cy="435.82" r="4.5" fill="#1d4ed8" fill-opacity="0.9"/>
<circle cx="862.12" cy="435.83" r="4.5" fill="#1d4ed8" fill-opacity="0.9"/>
<circle cx="870.61" cy="435.83" r="4.5" fill="#1d4ed8" fill-opacity="0.9"/>
<circle cx="879.09" cy="435.83" r="4.5" fill="#1d4ed8" fill-opacity="0.9"/>
<circle cx="887.58" cy="435.83" r="4.5" fill="#1d4ed8" fill-opacity="0.9"/>
<circle cx="896.06" cy="435.83" r="4.5" fill="#1d4ed8" fill-opacity="0.9"/>
<circle cx="904.55" cy="435.83" r="4.5" fill="#1d4ed8" fill-opacity="0.9"/>
<circle cx="913.03" cy="435.83" r="4.5" fill="#1d4ed8" fill-opacity="0.9"/>
<circle cx="921.52" cy="435.83" r="4.5" fill="#1d4ed8" fill-opacity="0.9"/>
<circle cx="930.00" cy="435.83" r="4.5" fill="#1d4ed8" fill-opacity="0.9"/>
<rect x="90" y="32" width="18" height="6" fill="#1d4ed8"/>
<text x="114" y="38" font-size="13" fill="#333333">train</text>
<polyline fill="none" stroke="#d97706" stroke-width="3" points="90.00,94.17 98.48,149.81 106.97,433.21 115.45,432.39 123.94,432.29 132.42,434.07 140.91,433.25 149.39,433.09 157.88,432.91 166.36,434.07 174.85,432.09 183.33,432.69 191.82,432.98 200.30,432.86 208.79,432.68 217.27,433.00 225.76,432.79 234.24,432.31 242.73,431.88 251.21,432.77 259.70,432.74 268.18,434.58 276.67,432.72 285.15,433.43 293.64,432.20 302.12,433.55 310.61,432.96 319.09,433.22 327.58,433.23 336.06,434.18 344.55,434.24 353.03,433.36 361.52,434.11 370.00,428.75 378.48,434.50 386.97,434.11 395.45,434.27 403.94,434.67 412.42,434.55 420.91,433.83 429.39,434.49 437.88,435.00 446.36,425.71 454.85,433.49 463.33,434.68 471.82,435.02 480.30,434.31 488.79,434.68 497.27,435.05 505.76,434.57 514.24,435.20 522.73,435.25 531.21,435.29 539.70,435.28 548.18,435.30 556.67,435.27 565.15,435.31 573.64,435.29 582.12,435.29 590.61,435.30 599.09,435.28 607.58,435.27 616.06,435.27 624.55,435.28 633.03,435.25 641.52,435.25 650.00,435.27 658.48,435.29 666.97,435.26 675.45,435.23 683.94,435.25 692.42,435.24 700.91,435.25 709.39,435.22 717.88,435.22 726.36,435.27 734.85,435.23 743.33,435.25 751.82,435.24 760.30,435.25 768.79,435.25 777.27,435.20 785.76,435.21 794.24,435.20 802.73,435.21 811.21,435.20 819.70,435.21 828.18,435.18 836.67,435.17 845.15,435.21 853.64,435.17 862.12,435.17 870.61,435.17 879.09,435.16 887.58,435.16 896.06,435.17 904.55,435.17 913.03,435.16 921.52,435.17 930.00,435.17"/>
<circle cx="90.00" cy="94.17" r="4.5" fill="#d97706" fill-opacity="0.9"/>
<circle cx="98.48" cy="149.81" r="4.5" fill="#d97706" fill-opacity="0.9"/>
<circle cx="106.97" cy="433.21" r="4.5" fill="#d97706" fill-opacity="0.9"/>
<circle cx="115.45" cy="432.39" r="4.5" fill="#d97706" fill-opacity="0.9"/>
<circle cx="123.94" cy="432.29" r="4.5" fill="#d97706" fill-opacity="0.9"/>
<circle cx="132.42" cy="434.07" r="4.5" fill="#d97706" fill-opacity="0.9"/>
<circle cx="140.91" cy="433.25" r="4.5" fill="#d97706" fill-opacity="0.9"/>
<circle cx="149.39" cy="433.09" r="4.5" fill="#d97706" fill-opacity="0.9"/>
<circle cx="157.88" cy="432.91" r="4.5" fill="#d97706" fill-opacity="0.9"/>
<circle cx="166.36" cy="434.07" r="4.5" fill="#d97706" fill-opacity="0.9"/>
<circle cx="174.85" cy="432.09" r="4.5" fill="#d97706" fill-opacity="0.9"/>
<circle cx="183.33" cy="432.69" r="4.5" fill="#d97706" fill-opacity="0.9"/>
<circle cx="191.82" cy="432.98" r="4.5" fill="#d97706" fill-opacity="0.9"/>
<circle cx="200.30" cy="432.86" r="4.5" fill="#d97706" fill-opacity="0.9"/>
<circle cx="208.79" cy="432.68" r="4.5" fill="#d97706" fill-opacity="0.9"/>
<circle cx="217.27" cy="433.00" r="4.5" fill="#d97706" fill-opacity="0.9"/>
<circle cx="225.76" cy="432.79" r="4.5" fill="#d97706" fill-opacity="0.9"/>
<circle cx="234.24" cy="432.31" r="4.5" fill="#d97706" fill-opacity="0.9"/>
<circle cx="242.73" cy="431.88" r="4.5" fill="#d97706" fill-opacity="0.9"/>
<circle cx="251.21" cy="432.77" r="4.5" fill="#d97706" fill-opacity="0.9"/>
<circle cx="259.70" cy="432.74" r="4.5" fill="#d97706" fill-opacity="0.9"/>
<circle cx="268.18" cy="434.58" r="4.5" fill="#d97706" fill-opacity="0.9"/>
<circle cx="276.67" cy="432.72" r="4.5" fill="#d97706" fill-opacity="0.9"/>
<circle cx="285.15" cy="433.43" r="4.5" fill="#d97706" fill-opacity="0.9"/>
<circle cx="293.64" cy="432.20" r="4.5" fill="#d97706" fill-opacity="0.9"/>
<circle cx="302.12" cy="433.55" r="4.5" fill="#d97706" fill-opacity="0.9"/>
<circle cx="310.61" cy="432.96" r="4.5" fill="#d97706" fill-opacity="0.9"/>
<circle cx="319.09" cy="433.22" r="4.5" fill="#d97706" fill-opacity="0.9"/>
<circle cx="327.58" cy="433.23" r="4.5" fill="#d97706" fill-opacity="0.9"/>
<circle cx="336.06" cy="434.18" r="4.5" fill="#d97706" fill-opacity="0.9"/>
<circle cx="344.55" cy="434.24" r="4.5" fill="#d97706" fill-opacity="0.9"/>
<circle cx="353.03" cy="433.36" r="4.5" fill="#d97706" fill-opacity="0.9"/>
<circle cx="361.52" cy="434.11" r="4.5" fill="#d97706" fill-opacity="0.9"/>
<circle cx="370.00" cy="428.75" r="4.5" fill="#d97706" fill-opacity="0.9"/>
<circle cx="378.48" cy="434.50" r="4.5" fill="#d97706" fill-opacity="0.9"/>
<circle cx="386.97" cy="434.11" r="4.5" fill="#d97706" fill-opacity="0.9"/>
<circle cx="395.45" cy="434.27" r="4.5" fill="#d97706" fill-opacity="0.9"/>
<circle cx="403.94" cy="434.67" r="4.5" fill="#d97706" fill-opacity="0.9"/>
<circle cx="412.42" cy="434.55" r="4.5" fill="#d97706" fill-opacity="0.9"/>
<circle cx="420.91" cy="433.83" r="4.5" fill="#d97706" fill-opacity="0.9"/>
<circle cx="429.39" cy="434.49" r="4.5" fill="#d97706" fill-opacity="0.9"/>
<circle cx="437.88" cy="435.00" r="4.5" fill="#d97706" fill-opacity="0.9"/>
<circle cx="446.36" cy="425.71" r="4.5" fill="#d97706" fill-opacity="0.9"/>
<circle cx="454.85" cy="433.49" r="4.5" fill="#d97706" fill-opacity="0.9"/>
<circle cx="463.33" cy="434.68" r="4.5" fill="#d97706" fill-opacity="0.9"/>
<circle cx="471.82" cy="435.02" r="4.5" fill="#d97706" fill-opacity="0.9"/>
<circle cx="480.30" cy="434.31" r="4.5" fill="#d97706" fill-opacity="0.9"/>
<circle cx="488.79" cy="434.68" r="4.5" fill="#d97706" fill-opacity="0.9"/>
<circle cx="497.27" cy="435.05" r="4.5" fill="#d97706" fill-opacity="0.9"/>
<circle cx="505.76" cy="434.57" r="4.5" fill="#d97706" fill-opacity="0.9"/>
<circle cx="514.24" cy="435.20" r="4.5" fill="#d97706" fill-opacity="0.9"/>
<circle cx="522.73" cy="435.25" r="4.5" fill="#d97706" fill-opacity="0.9"/>
<circle cx="531.21" cy="435.29" r="4.5" fill="#d97706" fill-opacity="0.9"/>
<circle cx="539.70" cy="435.28" r="4.5" fill="#d97706" fill-opacity="0.9"/>
<circle cx="548.18" cy="435.30" r="4.5" fill="#d97706" fill-opacity="0.9"/>
<circle cx="556.67" cy="435.27" r="4.5" fill="#d97706" fill-opacity="0.9"/>
<circle cx="565.15" cy="435.31" r="4.5" fill="#d97706" fill-opacity="0.9"/>
<circle cx="573.64" cy="435.29" r="4.5" fill="#d97706" fill-opacity="0.9"/>
<circle cx="582.12" cy="435.29" r="4.5" fill="#d97706" fill-opacity="0.9"/>
<circle cx="590.61" cy="435.30" r="4.5" fill="#d97706" fill-opacity="0.9"/>
<circle cx="599.09" cy="435.28" r="4.5" fill="#d97706" fill-opacity="0.9"/>
<circle cx="607.58" cy="435.27" r="4.5" fill="#d97706" fill-opacity="0.9"/>
<circle cx="616.06" cy="435.27" r="4.5" fill="#d97706" fill-opacity="0.9"/>
<circle cx="624.55" cy="435.28" r="4.5" fill="#d97706" fill-opacity="0.9"/>
<circle cx="633.03" cy="435.25" r="4.5" fill="#d97706" fill-opacity="0.9"/>
<circle cx="641.52" cy="435.25" r="4.5" fill="#d97706" fill-opacity="0.9"/>
<circle cx="650.00" cy="435.27" r="4.5" fill="#d97706" fill-opacity="0.9"/>
<circle cx="658.48" cy="435.29" r="4.5" fill="#d97706" fill-opacity="0.9"/>
<circle cx="666.97" cy="435.26" r="4.5" fill="#d97706" fill-opacity="0.9"/>
<circle cx="675.45" cy="435.23" r="4.5" fill="#d97706" fill-opacity="0.9"/>
<circle cx="683.94" cy="435.25" r="4.5" fill="#d97706" fill-opacity="0.9"/>
<circle cx="692.42" cy="435.24" r="4.5" fill="#d97706" fill-opacity="0.9"/>
<circle cx="700.91" cy="435.25" r="4.5" fill="#d97706" fill-opacity="0.9"/>
<circle cx="709.39" cy="435.22" r="4.5" fill="#d97706" fill-opacity="0.9"/>
<circle cx="717.88" cy="435.22" r="4.5" fill="#d97706" fill-opacity="0.9"/>
<circle cx="726.36" cy="435.27" r="4.5" fill="#d97706" fill-opacity="0.9"/>
<circle cx="734.85" cy="435.23" r="4.5" fill="#d97706" fill-opacity="0.9"/>
<circle cx="743.33" cy="435.25" r="4.5" fill="#d97706" fill-opacity="0.9"/>
<circle cx="751.82" cy="435.24" r="4.5" fill="#d97706" fill-opacity="0.9"/>
<circle cx="760.30" cy="435.25" r="4.5" fill="#d97706" fill-opacity="0.9"/>
<circle cx="768.79" cy="435.25" r="4.5" fill="#d97706" fill-opacity="0.9"/>
<circle cx="777.27" cy="435.20" r="4.5" fill="#d97706" fill-opacity="0.9"/>
<circle cx="785.76" cy="435.21" r="4.5" fill="#d97706" fill-opacity="0.9"/>
<circle cx="794.24" cy="435.20" r="4.5" fill="#d97706" fill-opacity="0.9"/>
<circle cx="802.73" cy="435.21" r="4.5" fill="#d97706" fill-opacity="0.9"/>
<circle cx="811.21" cy="435.20" r="4.5" fill="#d97706" fill-opacity="0.9"/>
<circle cx="819.70" cy="435.21" r="4.5" fill="#d97706" fill-opacity="0.9"/>
<circle cx="828.18" cy="435.18" r="4.5" fill="#d97706" fill-opacity="0.9"/>
<circle cx="836.67" cy="435.17" r="4.5" fill="#d97706" fill-opacity="0.9"/>
<circle cx="845.15" cy="435.21" r="4.5" fill="#d97706" fill-opacity="0.9"/>
<circle cx="853.64" cy="435.17" r="4.5" fill="#d97706" fill-opacity="0.9"/>
<circle cx="862.12" cy="435.17" r="4.5" fill="#d97706" fill-opacity="0.9"/>
<circle cx="870.61" cy="435.17" r="4.5" fill="#d97706" fill-opacity="0.9"/>
<circle cx="879.09" cy="435.16" r="4.5" fill="#d97706" fill-opacity="0.9"/>
<circle cx="887.58" cy="435.16" r="4.5" fill="#d97706" fill-opacity="0.9"/>
<circle cx="896.06" cy="435.17" r="4.5" fill="#d97706" fill-opacity="0.9"/>
<circle cx="904.55" cy="435.17" r="4.5" fill="#d97706" fill-opacity="0.9"/>
<circle cx="913.03" cy="435.16" r="4.5" fill="#d97706" fill-opacity="0.9"/>
<circle cx="921.52" cy="435.17" r="4.5" fill="#d97706" fill-opacity="0.9"/>
<circle cx="930.00" cy="435.17" r="4.5" fill="#d97706" fill-opacity="0.9"/>
<rect x="270" y="32" width="18" height="6" fill="#d97706"/>
<text x="294" y="38" font-size="13" fill="#333333">val</text>
<polyline fill="none" stroke="#059669" stroke-width="3" points="90.00,94.22 98.48,149.79 106.97,433.22 115.45,432.29 123.94,432.16 132.42,433.93 140.91,433.18 149.39,432.99 157.88,432.83 166.36,434.01 174.85,431.93 183.33,432.57 191.82,432.86 200.30,432.75 208.79,432.56 217.27,432.91 225.76,432.73 234.24,432.18 242.73,431.70 251.21,432.71 259.70,432.66 268.18,434.54 276.67,432.65 285.15,433.44 293.64,432.01 302.12,433.50 310.61,432.96 319.09,433.14 327.58,433.21 336.06,434.12 344.55,434.20 353.03,433.25 361.52,434.14 370.00,428.91 378.48,434.46 386.97,434.09 395.45,434.24 403.94,434.65 412.42,434.54 420.91,433.83 429.39,434.49 437.88,435.00 446.36,425.80 454.85,433.37 463.33,434.69 471.82,434.97 480.30,434.33 488.79,434.64 497.27,435.09 505.76,434.60 514.24,435.24 522.73,435.29 531.21,435.32 539.70,435.30 548.18,435.34 556.67,435.30 565.15,435.32 573.64,435.30 582.12,435.31 590.61,435.32 599.09,435.31 607.58,435.31 616.06,435.30 624.55,435.28 633.03,435.25 641.52,435.25 650.00,435.27 658.48,435.29 666.97,435.25 675.45,435.25 683.94,435.25 692.42,435.24 700.91,435.24 709.39,435.23 717.88,435.22 726.36,435.24 734.85,435.21 743.33,435.22 751.82,435.22 760.30,435.22 768.79,435.23 777.27,435.17 785.76,435.18 794.24,435.19 802.73,435.19 811.21,435.18 819.70,435.19 828.18,435.17 836.67,435.16 845.15,435.18 853.64,435.17 862.12,435.16 870.61,435.16 879.09,435.14 887.58,435.15 896.06,435.14 904.55,435.16 913.03,435.12 921.52,435.13 930.00,435.13"/>
<circle cx="90.00" cy="94.22" r="4.5" fill="#059669" fill-opacity="0.9"/>
<circle cx="98.48" cy="149.79" r="4.5" fill="#059669" fill-opacity="0.9"/>
<circle cx="106.97" cy="433.22" r="4.5" fill="#059669" fill-opacity="0.9"/>
<circle cx="115.45" cy="432.29" r="4.5" fill="#059669" fill-opacity="0.9"/>
<circle cx="123.94" cy="432.16" r="4.5" fill="#059669" fill-opacity="0.9"/>
<circle cx="132.42" cy="433.93" r="4.5" fill="#059669" fill-opacity="0.9"/>
<circle cx="140.91" cy="433.18" r="4.5" fill="#059669" fill-opacity="0.9"/>
<circle cx="149.39" cy="432.99" r="4.5" fill="#059669" fill-opacity="0.9"/>
<circle cx="157.88" cy="432.83" r="4.5" fill="#059669" fill-opacity="0.9"/>
<circle cx="166.36" cy="434.01" r="4.5" fill="#059669" fill-opacity="0.9"/>
<circle cx="174.85" cy="431.93" r="4.5" fill="#059669" fill-opacity="0.9"/>
<circle cx="183.33" cy="432.57" r="4.5" fill="#059669" fill-opacity="0.9"/>
<circle cx="191.82" cy="432.86" r="4.5" fill="#059669" fill-opacity="0.9"/>
<circle cx="200.30" cy="432.75" r="4.5" fill="#059669" fill-opacity="0.9"/>
<circle cx="208.79" cy="432.56" r="4.5" fill="#059669" fill-opacity="0.9"/>
<circle cx="217.27" cy="432.91" r="4.5" fill="#059669" fill-opacity="0.9"/>
<circle cx="225.76" cy="432.73" r="4.5" fill="#059669" fill-opacity="0.9"/>
<circle cx="234.24" cy="432.18" r="4.5" fill="#059669" fill-opacity="0.9"/>
<circle cx="242.73" cy="431.70" r="4.5" fill="#059669" fill-opacity="0.9"/>
<circle cx="251.21" cy="432.71" r="4.5" fill="#059669" fill-opacity="0.9"/>
<circle cx="259.70" cy="432.66" r="4.5" fill="#059669" fill-opacity="0.9"/>
<circle cx="268.18" cy="434.54" r="4.5" fill="#059669" fill-opacity="0.9"/>
<circle cx="276.67" cy="432.65" r="4.5" fill="#059669" fill-opacity="0.9"/>
<circle cx="285.15" cy="433.44" r="4.5" fill="#059669" fill-opacity="0.9"/>
<circle cx="293.64" cy="432.01" r="4.5" fill="#059669" fill-opacity="0.9"/>
<circle cx="302.12" cy="433.50" r="4.5" fill="#059669" fill-opacity="0.9"/>
<circle cx="310.61" cy="432.96" r="4.5" fill="#059669" fill-opacity="0.9"/>
<circle cx="319.09" cy="433.14" r="4.5" fill="#059669" fill-opacity="0.9"/>
<circle cx="327.58" cy="433.21" r="4.5" fill="#059669" fill-opacity="0.9"/>
<circle cx="336.06" cy="434.12" r="4.5" fill="#059669" fill-opacity="0.9"/>
<circle cx="344.55" cy="434.20" r="4.5" fill="#059669" fill-opacity="0.9"/>
<circle cx="353.03" cy="433.25" r="4.5" fill="#059669" fill-opacity="0.9"/>
<circle cx="361.52" cy="434.14" r="4.5" fill="#059669" fill-opacity="0.9"/>
<circle cx="370.00" cy="428.91" r="4.5" fill="#059669" fill-opacity="0.9"/>
<circle cx="378.48" cy="434.46" r="4.5" fill="#059669" fill-opacity="0.9"/>
<circle cx="386.97" cy="434.09" r="4.5" fill="#059669" fill-opacity="0.9"/>
<circle cx="395.45" cy="434.24" r="4.5" fill="#059669" fill-opacity="0.9"/>
<circle cx="403.94" cy="434.65" r="4.5" fill="#059669" fill-opacity="0.9"/>
<circle cx="412.42" cy="434.54" r="4.5" fill="#059669" fill-opacity="0.9"/>
<circle cx="420.91" cy="433.83" r="4.5" fill="#059669" fill-opacity="0.9"/>
<circle cx="429.39" cy="434.49" r="4.5" fill="#059669" fill-opacity="0.9"/>
<circle cx="437.88" cy="435.00" r="4.5" fill="#059669" fill-opacity="0.9"/>
<circle cx="446.36" cy="425.80" r="4.5" fill="#059669" fill-opacity="0.9"/>
<circle cx="454.85" cy="433.37" r="4.5" fill="#059669" fill-opacity="0.9"/>
<circle cx="463.33" cy="434.69" r="4.5" fill="#059669" fill-opacity="0.9"/>
<circle cx="471.82" cy="434.97" r="4.5" fill="#059669" fill-opacity="0.9"/>
<circle cx="480.30" cy="434.33" r="4.5" fill="#059669" fill-opacity="0.9"/>
<circle cx="488.79" cy="434.64" r="4.5" fill="#059669" fill-opacity="0.9"/>
<circle cx="497.27" cy="435.09" r="4.5" fill="#059669" fill-opacity="0.9"/>
<circle cx="505.76" cy="434.60" r="4.5" fill="#059669" fill-opacity="0.9"/>
<circle cx="514.24" cy="435.24" r="4.5" fill="#059669" fill-opacity="0.9"/>
<circle cx="522.73" cy="435.29" r="4.5" fill="#059669" fill-opacity="0.9"/>
<circle cx="531.21" cy="435.32" r="4.5" fill="#059669" fill-opacity="0.9"/>
<circle cx="539.70" cy="435.30" r="4.5" fill="#059669" fill-opacity="0.9"/>
<circle cx="548.18" cy="435.34" r="4.5" fill="#059669" fill-opacity="0.9"/>
<circle cx="556.67" cy="435.30" r="4.5" fill="#059669" fill-opacity="0.9"/>
<circle cx="565.15" cy="435.32" r="4.5" fill="#059669" fill-opacity="0.9"/>
<circle cx="573.64" cy="435.30" r="4.5" fill="#059669" fill-opacity="0.9"/>
<circle cx="582.12" cy="435.31" r="4.5" fill="#059669" fill-opacity="0.9"/>
<circle cx="590.61" cy="435.32" r="4.5" fill="#059669" fill-opacity="0.9"/>
<circle cx="599.09" cy="435.31" r="4.5" fill="#059669" fill-opacity="0.9"/>
<circle cx="607.58" cy="435.31" r="4.5" fill="#059669" fill-opacity="0.9"/>
<circle cx="616.06" cy="435.30" r="4.5" fill="#059669" fill-opacity="0.9"/>
<circle cx="624.55" cy="435.28" r="4.5" fill="#059669" fill-opacity="0.9"/>
<circle cx="633.03" cy="435.25" r="4.5" fill="#059669" fill-opacity="0.9"/>
<circle cx="641.52" cy="435.25" r="4.5" fill="#059669" fill-opacity="0.9"/>
<circle cx="650.00" cy="435.27" r="4.5" fill="#059669" fill-opacity="0.9"/>
<circle cx="658.48" cy="435.29" r="4.5" fill="#059669" fill-opacity="0.9"/>
<circle cx="666.97" cy="435.25" r="4.5" fill="#059669" fill-opacity="0.9"/>
<circle cx="675.45" cy="435.25" r="4.5" fill="#059669" fill-opacity="0.9"/>
<circle cx="683.94" cy="435.25" r="4.5" fill="#059669" fill-opacity="0.9"/>
<circle cx="692.42" cy="435.24" r="4.5" fill="#059669" fill-opacity="0.9"/>
<circle cx="700.91" cy="435.24" r="4.5" fill="#059669" fill-opacity="0.9"/>
<circle cx="709.39" cy="435.23" r="4.5" fill="#059669" fill-opacity="0.9"/>
<circle cx="717.88" cy="435.22" r="4.5" fill="#059669" fill-opacity="0.9"/>
<circle cx="726.36" cy="435.24" r="4.5" fill="#059669" fill-opacity="0.9"/>
<circle cx="734.85" cy="435.21" r="4.5" fill="#059669" fill-opacity="0.9"/>
<circle cx="743.33" cy="435.22" r="4.5" fill="#059669" fill-opacity="0.9"/>
<circle cx="751.82" cy="435.22" r="4.5" fill="#059669" fill-opacity="0.9"/>
<circle cx="760.30" cy="435.22" r="4.5" fill="#059669" fill-opacity="0.9"/>
<circle cx="768.79" cy="435.23" r="4.5" fill="#059669" fill-opacity="0.9"/>
<circle cx="777.27" cy="435.17" r="4.5" fill="#059669" fill-opacity="0.9"/>
<circle cx="785.76" cy="435.18" r="4.5" fill="#059669" fill-opacity="0.9"/>
<circle cx="794.24" cy="435.19" r="4.5" fill="#059669" fill-opacity="0.9"/>
<circle cx="802.73" cy="435.19" r="4.5" fill="#059669" fill-opacity="0.9"/>
<circle cx="811.21" cy="435.18" r="4.5" fill="#059669" fill-opacity="0.9"/>
<circle cx="819.70" cy="435.19" r="4.5" fill="#059669" fill-opacity="0.9"/>
<circle cx="828.18" cy="435.17" r="4.5" fill="#059669" fill-opacity="0.9"/>
<circle cx="836.67" cy="435.16" r="4.5" fill="#059669" fill-opacity="0.9"/>
<circle cx="845.15" cy="435.18" r="4.5" fill="#059669" fill-opacity="0.9"/>
<circle cx="853.64" cy="435.17" r="4.5" fill="#059669" fill-opacity="0.9"/>
<circle cx="862.12" cy="435.16" r="4.5" fill="#059669" fill-opacity="0.9"/>
<circle cx="870.61" cy="435.16" r="4.5" fill="#059669" fill-opacity="0.9"/>
<circle cx="879.09" cy="435.14" r="4.5" fill="#059669" fill-opacity="0.9"/>
<circle cx="887.58" cy="435.15" r="4.5" fill="#059669" fill-opacity="0.9"/>
<circle cx="896.06" cy="435.14" r="4.5" fill="#059669" fill-opacity="0.9"/>
<circle cx="904.55" cy="435.16" r="4.5" fill="#059669" fill-opacity="0.9"/>
<circle cx="913.03" cy="435.12" r="4.5" fill="#059669" fill-opacity="0.9"/>
<circle cx="921.52" cy="435.13" r="4.5" fill="#059669" fill-opacity="0.9"/>
<circle cx="930.00" cy="435.13" r="4.5" fill="#059669" fill-opacity="0.9"/>
<rect x="450" y="32" width="18" height="6" fill="#059669"/>
<text x="474" y="38" font-size="13" fill="#333333">test</text>
</svg>