<svg xmlns="http://www.w3.org/2000/svg" width="960" height="540">
<rect width="100%" height="100%" fill="#ffffff"/>
<text x="480.0" y="30" font-size="22" text-anchor="middle" fill="#111111">Loss</text>
<text x="20" y="270.0" font-size="16" transform="rotate(-90 20,270.0)" text-anchor="middle" fill="#333333">Loss</text>
<text x="480.0" y="520" font-size="16" text-anchor="middle" fill="#333333">Epoch</text>
<line x1="90" y1="60" x2="90" y2="470" stroke="#333333" stroke-width="2"/>
<line x1="90" y1="470" x2="930" y2="470" stroke="#333333" stroke-width="2"/>
<line x1="90" y1="470.00" x2="930" y2="470.00" stroke="#e5e7eb" stroke-width="1"/>
<text x="80" y="475.00" font-size="12" text-anchor="end" fill="#555555">-16.3989</text>
<line x1="90" y1="367.50" x2="930" y2="367.50" stroke="#e5e7eb" stroke-width="1"/>
<text x="80" y="372.50" font-size="12" text-anchor="end" fill="#555555">32.8195</text>
<line x1="90" y1="265.00" x2="930" y2="265.00" stroke="#e5e7eb" stroke-width="1"/>
<text x="80" y="270.00" font-size="12" text-anchor="end" fill="#555555">82.0378</text>
<line x1="90" y1="162.50" x2="930" y2="162.50" stroke="#e5e7eb" stroke-width="1"/>
<text x="80" y="167.50" font-size="12" text-anchor="end" fill="#555555">131.2562</text>
<line x1="90" y1="60.00" x2="930" y2="60.00" stroke="#e5e7eb" stroke-width="1"/>
<text x="80" y="65.00" font-size="12" text-anchor="end" fill="#555555">180.4746</text>
<line x1="90.00" y1="60" x2="90.00" y2="470" stroke="#f3f4f6" stroke-width="1"/>
<text x="90.00" y="492" font-size="12" text-anchor="middle" fill="#555555">1</text>
<line x1="98.48" y1="60" x2="98.48" y2="470" stroke="#f3f4f6" stroke-width="1"/>
<text x="98.48" y="492" font-size="12" text-anchor="middle" fill="#555555">2</text>
<line x1="106.97" y1="60" x2="106.97" y2="470" stroke="#f3f4f6" stroke-width="1"/>
<text x="106.97" y="492" font-size="12" text-anchor="middle" fill="#555555">3</text>
<line x1="115.45" y1="60" x2="115.45" y2="470" stroke="#f3f4f6" stroke-width="1"/>
<text x="115.45" y="492" font-size="12" text-anchor="middle" fill="#555555">4</text>
<line x1="123.94" y1="60" x2="123.94" y2="470" stroke="#f3f4f6" stroke-width="1"/>
<text x="123.94" y="492" font-size="12" text-anchor="middle" fill="#555555">5</text>
<line x1="132.42" y1="60" x2="132.42" y2="470" stroke="#f3f4f6" stroke-width="1"/>
<text x="132.42" y="492" font-size="12" text-anchor="middle" fill="#555555">6</text>
<line x1="140.91" y1="60" x2="140.91" y2="470" stroke="#f3f4f6" stroke-width="1"/>
<text x="140.91" y="492" font-size="12" text-anchor="middle" fill="#555555">7</text>
<line x1="149.39" y1="60" x2="149.39" y2="470" stroke="#f3f4f6" stroke-width="1"/>
<text x="149.39" y="492" font-size="12" text-anchor="middle" fill="#555555">8</text>
<line x1="157.88" y1="60" x2="157.88" y2="470" stroke="#f3f4f6" stroke-width="1"/>
<text x="157.88" y="492" font-size="12" text-anchor="middle" fill="#555555">9</text>
<line x1="166.36" y1="60" x2="166.36" y2="470" stroke="#f3f4f6" stroke-width="1"/>
<text x="166.36" y="492" font-size="12" text-anchor="middle" fill="#555555">10</text>
<line x1="174.85" y1="60" x2="174.85" y2="470" stroke="#f3f4f6" stroke-width="1"/>
<text x="174.85" y="492" font-size="12" text-anchor="middle" fill="#555555">11</text>
<line x1="183.33" y1="60" x2="183.33" y2="470" stroke="#f3f4f6" stroke-width="1"/>
<text x="183.33" y="492" font-size="12" text-anchor="middle" fill="#555555">12</text>
<line x1="191.82" y1="60" x2="191.82" y2="470" stroke="#f3f4f6" stroke-width="1"/>
<text x="191.82" y="492" font-size="12" text-anchor="middle" fill="#555555">13</text>
<line x1="200.30" y1="60" x2="200.30" y2="470" stroke="#f3f4f6" stroke-width="1"/>
<text x="200.30" y="492" font-size="12" text-anchor="middle" fill="#555555">14</text>
<line x1="208.79" y1="60" x2="208.79" y2="470" stroke="#f3f4f6" stroke-width="1"/>
<text x="208.79" y="492" font-size="12" text-anchor="middle" fill="#555555">15</text>
<line x1="217.27" y1="60" x2="217.27" y2="470" stroke="#f3f4f6" stroke-width="1"/>
<text x="217.27" y="492" font-size="12" text-anchor="middle" fill="#555555">16</text>
<line x1="225.76" y1="60" x2="225.76" y2="470" stroke="#f3f4f6" stroke-width="1"/>
<text x="225.76" y="492" font-size="12" text-anchor="middle" fill="#555555">17</text>
<line x1="234.24" y1="60" x2="234.24" y2="470" stroke="#f3f4f6" stroke-width="1"/>
<text x="234.24" y="492" font-size="12" text-anchor="middle" fill="#555555">18</text>
<line x1="242.73" y1="60" x2="242.73" y2="470" stroke="#f3f4f6" stroke-width="1"/>
<text x="242.73" y="492" font-size="12" text-anchor="middle" fill="#555555">19</text>
<line x1="251.21" y1="60" x2="251.21" y2="470" stroke="#f3f4f6" stroke-width="1"/>
<text x="251.21" y="492" font-size="12" text-anchor="middle" fill="#555555">20</text>
<line x1="259.70" y1="60" x2="259.70" y2="470" stroke="#f3f4f6" stroke-width="1"/>
<text x="259.70" y="492" font-size="12" text-anchor="middle" fill="#555555">21</text>
<line x1="268.18" y1="60" x2="268.18" y2="470" stroke="#f3f4f6" stroke-width="1"/>
<text x="268.18" y="492" font-size="12" text-anchor="middle" fill="#555555">22</text>
<line x1="276.67" y1="60" x2="276.67" y2="470" stroke="#f3f4f6" stroke-width="1"/>
<text x="276.67" y="492" font-size="12" text-anchor="middle" fill="#555555">23</text>
<line x1="285.15" y1="60" x2="285.15" y2="470" stroke="#f3f4f6" stroke-width="1"/>
<text x="285.15" y="492" font-size="12" text-anchor="middle" fill="#555555">24</text>
<line x1="293.64" y1="60" x2="293.64" y2="470" stroke="#f3f4f6" stroke-width="1"/>
<text x="293.64" y="492" font-size="12" text-anchor="middle" fill="#555555">25</text>
<line x1="302.12" y1="60" x2="302.12" y2="470" stroke="#f3f4f6" stroke-width="1"/>
<text x="302.12" y="492" font-size="12" text-anchor="middle" fill="#555555">26</text>
<line x1="310.61" y1="60" x2="310.61" y2="470" stroke="#f3f4f6" stroke-width="1"/>
<text x="310.61" y="492" font-size="12" text-anchor="middle" fill="#555555">27</text>
<line x1="319.09" y1="60" x2="319.09" y2="470" stroke="#f3f4f6" stroke-width="1"/>
<text x="319.09" y="492" font-size="12" text-anchor="middle" fill="#555555">28</text>
<line x1="327.58" y1="60" x2="327.58" y2="470" stroke="#f3f4f6" stroke-width="1"/>
<text x="327.58" y="492" font-size="12" text-anchor="middle" fill="#555555">29</text>
<line x1="336.06" y1="60" x2="336.06" y2="470" stroke="#f3f4f6" stroke-width="1"/>
<text x="336.06" y="492" font-size="12" text-anchor="middle" fill="#555555">30</text>
<line x1="344.55" y1="60" x2="344.55" y2="470" stroke="#f3f4f6" stroke-width="1"/>
<text x="344.55" y="492" font-size="12" text-anchor="middle" fill="#555555">31</text>
<line x1="353.03" y1="60" x2="353.03" y2="470" stroke="#f3f4f6" stroke-width="1"/>
<text x="353.03" y="492" font-size="12" text-anchor="middle" fill="#555555">32</text>
<line x1="361.52" y1="60" x2="361.52" y2="470" stroke="#f3f4f6" stroke-width="1"/>
<text x="361.52" y="492" font-size="12" text-anchor="middle" fill="#555555">33</text>
<line x1="370.00" y1="60" x2="370.00" y2="470" stroke="#f3f4f6" stroke-width="1"/>
<text x="370.00" y="492" font-size="12" text-anchor="middle" fill="#555555">34</text>
<line x1="378.48" y1="60" x2="378.48" y2="470" stroke="#f3f4f6" stroke-width="1"/>
<text x="378.48" y="492" font-size="12" text-anchor="middle" fill="#555555">35</text>
<line x1="386.97" y1="60" x2="386.97" y2="470" stroke="#f3f4f6" stroke-width="1"/>
<text x="386.97" y="492" font-size="12" text-anchor="middle" fill="#555555">36</text>
<line x1="395.45" y1="60" x2="395.45" y2="470" stroke="#f3f4f6" stroke-width="1"/>
<text x="395.45" y="492" font-size="12" text-anchor="middle" fill="#555555">37</text>
<line x1="403.94" y1="60" x2="403.94" y2="470" stroke="#f3f4f6" stroke-width="1"/>
<text x="403.94" y="492" font-size="12" text-anchor="middle" fill="#555555">38</text>
<line x1="412.42" y1="60" x2="412.42" y2="470" stroke="#f3f4f6" stroke-width="1"/>
<text x="412.42" y="492" font-size="12" text-anchor="middle" fill="#555555">39</text>
<line x1="420.91" y1="60" x2="420.91" y2="470" stroke="#f3f4f6" stroke-width="1"/>
<text x="420.91" y="492" font-size="12" text-anchor="middle" fill="#555555">40</text>
<line x1="429.39" y1="60" x2="429.39" y2="470" stroke="#f3f4f6" stroke-width="1"/>
<text x="429.39" y="492" font-size="12" text-anchor="middle" fill="#555555">41</text>
<line x1="437.88" y1="60" x2="437.88" y2="470" stroke="#f3f4f6" stroke-width="1"/>
<text x="437.88" y="492" font-size="12" text-anchor="middle" fill="#555555">42</text>
<line x1="446.36" y1="60" x2="446.36" y2="470" stroke="#f3f4f6" stroke-width="1"/>
<text x="446.36" y="492" font-size="12" text-anchor="middle" fill="#555555">43</text>
<line x1="454.85" y1="60" x2="454.85" y2="470" stroke="#f3f4f6" stroke-width="1"/>
<text x="454.85" y="492" font-size="12" text-anchor="middle" fill="#555555">44</text>
<line x1="463.33" y1="60" x2="463.33" y2="470" stroke="#f3f4f6" stroke-width="1"/>
<text x="463.33" y="492" font-size="12" text-anchor="middle" fill="#555555">45</text>
<line x1="471.82" y1="60" x2="471.82" y2="470" stroke="#f3f4f6" stroke-width="1"/>
<text x="471.82" y="492" font-size="12" text-anchor="middle" fill="#555555">46</text>
<line x1="480.30" y1="60" x2="480.30" y2="470" stroke="#f3f4f6" stroke-width="1"/>
<text x="480.30" y="492" font-size="12" text-anchor="middle" fill="#555555">47</text>
<line x1="488.79" y1="60" x2="488.79" y2="470" stroke="#f3f4f6" stroke-width="1"/>
<text x="488.79" y="492" font-size="12" text-anchor="middle" fill="#555555">48</text>
<line x1="497.27" y1="60" x2="497.27" y2="470" stroke="#f3f4f6" stroke-width="1"/>
<text x="497.27" y="492" font-size="12" text-anchor="middle" fill="#555555">49</text>
<line x1="505.76" y1="60" x2="505.76" y2="470" stroke="#f3f4f6" stroke-width="1"/>
<text x="505.76" y="492" font-size="12" text-anchor="middle" fill="#555555">50</text>
<line x1="514.24" y1="60" x2="514.24" y2="470" stroke="#f3f4f6" stroke-width="1"/>
<text x="514.24" y="492" font-size="12" text-anchor="middle" fill="#555555">51</text>
<line x1="522.73" y1="60" x2="522.73" y2="470" stroke="#f3f4f6" stroke-width="1"/>
<text x="522.73" y="492" font-size="12" text-anchor="middle" fill="#555555">52</text>
<line x1="531.21" y1="60" x2="531.21" y2="470" stroke="#f3f4f6" stroke-width="1"/>
<text x="531.21" y="492" font-size="12" text-anchor="middle" fill="#555555">53</text>
<line x1="539.70" y1="60" x2="539.70" y2="470" stroke="#f3f4f6" stroke-width="1"/>
<text x="539.70" y="492" font-size="12" text-anchor="middle" fill="#555555">54</text>
<line x1="548.18" y1="60" x2="548.18" y2="470" stroke="#f3f4f6" stroke-width="1"/>
<text x="548.18" y="492" font-size="12" text-anchor="middle" fill="#555555">55</text>
<line x1="556.67" y1="60" x2="556.67" y2="470" stroke="#f3f4f6" stroke-width="1"/>
<text x="556.67" y="492" font-size="12" text-anchor="middle" fill="#555555">56</text>
<line x1="565.15" y1="60" x2="565.15" y2="470" stroke="#f3f4f6" stroke-width="1"/>
<text x="565.15" y="492" font-size="12" text-anchor="middle" fill="#555555">57</text>
<line x1="573.64" y1="60" x2="573.64" y2="470" stroke="#f3f4f6" stroke-width="1"/>
<text x="573.64" y="492" font-size="12" text-anchor="middle" fill="#555555">58</text>
<line x1="582.12" y1="60" x2="582.12" y2="470" stroke="#f3f4f6" stroke-width="1"/>
<text x="582.12" y="492" font-size="12" text-anchor="middle" fill="#555555">59</text>
<line x1="590.61" y1="60" x2="590.61" y2="470" stroke="#f3f4f6" stroke-width="1"/>
<text x="590.61" y="492" font-size="12" text-anchor="middle" fill="#555555">60</text>
<line x1="599.09" y1="60" x2="599.09" y2="470" stroke="#f3f4f6" stroke-width="1"/>
<text x="599.09" y="492" font-size="12" text-anchor="middle" fill="#555555">61</text>
<line x1="607.58" y1="60" x2="607.58" y2="470" stroke="#f3f4f6" stroke-width="1"/>
<text x="607.58" y="492" font-size="12" text-anchor="middle" fill="#555555">62</text>
<line x1="616.06" y1="60" x2="616.06" y2="470" stroke="#f3f4f6" stroke-width="1"/>
<text x="616.06" y="492" font-size="12" text-anchor="middle" fill="#555555">63</text>
<line x1="624.55" y1="60" x2="624.55" y2="470" stroke="#f3f4f6" stroke-width="1"/>
<text x="624.55" y="492" font-size="12" text-anchor="middle" fill="#555555">64</text>
<line x1="633.03" y1="60" x2="633.03" y2="470" stroke="#f3f4f6" stroke-width="1"/>
<text x="633.03" y="492" font-size="12" text-anchor="middle" fill="#555555">65</text>
<line x1="641.52" y1="60" x2="641.52" y2="470" stroke="#f3f4f6" stroke-width="1"/>
<text x="641.52" y="492" font-size="12" text-anchor="middle" fill="#555555">66</text>
<line x1="650.00" y1="60" x2="650.00" y2="470" stroke="#f3f4f6" stroke-width="1"/>
<text x="650.00" y="492" font-size="12" text-anchor="middle" fill="#555555">67</text>
<line x1="658.48" y1="60" x2="658.48" y2="470" stroke="#f3f4f6" stroke-width="1"/>
<text x="658.48" y="492" font-size="12" text-anchor="middle" fill="#555555">68</text>
<line x1="666.97" y1="60" x2="666.97" y2="470" stroke="#f3f4f6" stroke-width="1"/>
<text x="666.97" y="492" font-size="12" text-anchor="middle" fill="#555555">69</text>
<line x1="675.45" y1="60" x2="675.45" y2="470" stroke="#f3f4f6" stroke-width="1"/>
<text x="675.45" y="492" font-size="12" text-anchor="middle" fill="#555555">70</text>
<line x1="683.94" y1="60" x2="683.94" y2="470" stroke="#f3f4f6" stroke-width="1"/>
<text x="683.94" y="492" font-size="12" text-anchor="middle" fill="#555555">71</text>
<line x1="692.42" y1="60" x2="692.42" y2="470" stroke="#f3f4f6" stroke-width="1"/>
<text x="692.42" y="492" font-size="12" text-anchor="middle" fill="#555555">72</text>
<line x1="700.91" y1="60" x2="700.91" y2="470" stroke="#f3f4f6" stroke-width="1"/>
<text x="700.91" y="492" font-size="12" text-anchor="middle" fill="#555555">73</text>
<line x1="709.39" y1="60" x2="709.39" y2="470" stroke="#f3f4f6" stroke-width="1"/>
<text x="709.39" y="492" font-size="12" text-anchor="middle" fill="#555555">74</text>
<line x1="717.88" y1="60" x2="717.88" y2="470" stroke="#f3f4f6" stroke-width="1"/>
<text x="717.88" y="492" font-size="12" text-anchor="middle" fill="#555555">75</text>
<line x1="726.36" y1="60" x2="726.36" y2="470" stroke="#f3f4f6" stroke-width="1"/>
<text x="726.36" y="492" font-size="12" text-anchor="middle" fill="#555555">76</text>
<line x1="734.85" y1="60" x2="734.85" y2="470" stroke="#f3f4f6" stroke-width="1"/>
<text x="734.85" y="492" font-size="12" text-anchor="middle" fill="#555555">77</text>
<line x1="743.33" y1="60" x2="743.33" y2="470" stroke="#f3f4f6" stroke-width="1"/>
<text x="743.33" y="492" font-size="12" text-anchor="middle" fill="#555555">78</text>
<line x1="751.82" y1="60" x2="751.82" y2="470" stroke="#f3f4f6" stroke-width="1"/>
<text x="751.82" y="492" font-size="12" text-anchor="middle" fill="#555555">79</text>
<line x1="760.30" y1="60" x2="760.30" y2="470" stroke="#f3f4f6" stroke-width="1"/>
<text x="760.30" y="492" font-size="12" text-anchor="middle" fill="#555555">80</text>
<line x1="768.79" y1="60" x2="768.79" y2="470" stroke="#f3f4f6" stroke-width="1"/>
<text x="768.79" y="492" font-size="12" text-anchor="middle" fill="#555555">81</text>
<line x1="777.27" y1="60" x2="777.27" y2="470" stroke="#f3f4f6" stroke-width="1"/>
<text x="777.27" y="492" font-size="12" text-anchor="middle" fill="#555555">82</text>
<line x1="785.76" y1="60" x2="785.76" y2="470" stroke="#f3f4f6" stroke-width="1"/>
<text x="785.76" y="492" font-size="12" text-anchor="middle" fill="#555555">83</text>
<line x1="794.24" y1="60" x2="794.24" y2="470" stroke="#f3f4f6" stroke-width="1"/>
<text x="794.24" y="492" font-size="12" text-anchor="middle" fill="#555555">84</text>
<line x1="802.73" y1="60" x2="802.73" y2="470" stroke="#f3f4f6" stroke-width="1"/>
<text x="802.73" y="492" font-size="12" text-anchor="middle" fill="#555555">85</text>
<line x1="811.21" y1="60" x2="811.21" y2="470" stroke="#f3f4f6" stroke-width="1"/>
<text x="811.21" y="492" font-size="12" text-anchor="middle" fill="#555555">86</text>
<line x1="819.70" y1="60" x2="819.70" y2="470" stroke="#f3f4f6" stroke-width="1"/>
<text x="819.70" y="492" font-size="12" text-anchor="middle" fill="#555555">87</text>
<line x1="828.18" y1="60" x2="828.18" y2="470" stroke="#f3f4f6" stroke-width="1"/>
<text x="828.18" y="492" font-size="12" text-anchor="middle" fill="#555555">88</text>
<line x1="836.67" y1="60" x2="836.67" y2="470" stroke="#f3f4f6" stroke-width="1"/>
<text x="836.67" y="492" font-size="12" text-anchor="middle" fill="#555555">89</text>
<line x1="845.15" y1="60" x2="845.15" y2="470" stroke="#f3f4f6" stroke-width="1"/>
<text x="845.15" y="492" font-size="12" text-anchor="middle" fill="#555555">90</text>
<line x1="853.64" y1="60" x2="853.64" y2="470" stroke="#f3f4f6" stroke-width="1"/>
<text x="853.64" y="492" font-size="12" text-anchor="middle" fill="#555555">91</text>
<line x1="862.12" y1="60" x2="862.12" y2="470" stroke="#f3f4f6" stroke-width="1"/>
<text x="862.12" y="492" font-size="12" text-anchor="middle" fill="#555555">92</text>
<line x1="870.61" y1="60" x2="870.61" y2="470" stroke="#f3f4f6" stroke-width="1"/>
<text x="870.61" y="492" font-size="12" text-anchor="middle" fill="#555555">93</text>
<line x1="879.09" y1="60" x2="879.09" y2="470" stroke="#f3f4f6" stroke-width="1"/>
<text x="879.09" y="492" font-size="12" text-anchor="middle" fill="#555555">94</text>
<line x1="887.58" y1="60" x2="887.58" y2="470" stroke="#f3f4f6" stroke-width="1"/>
<text x="887.58" y="492" font-size="12" text-anchor="middle" fill="#555555">95</text>
<line x1="896.06" y1="60" x2="896.06" y2="470" stroke="#f3f4f6" stroke-width="1"/>
<text x="896.06" y="492" font-size="12" text-anchor="middle" fill="#555555">96</text>
<line x1="904.55" y1="60" x2="904.55" y2="470" stroke="#f3f4f6" stroke-width="1"/>
<text x="904.55" y="492" font-size="12" text-anchor="middle" fill="#555555">97</text>
<line x1="913.03" y1="60" x2="913.03" y2="470" stroke="#f3f4f6" stroke-width="1"/>
<text x="913.03" y="492" font-size="12" text-anchor="middle" fill="#555555">98</text>
<line x1="921.52" y1="60" x2="921.52" y2="470" stroke="#f3f4f6" stroke-width="1"/>
<text x="921.52" y="492" font-size="12" text-anchor="middle" fill="#555555">99</text>
<line x1="930.00" y1="60" x2="930.00" y2="470" stroke="#f3f4f6" stroke-width="1"/>
<text x="930.00" y="492" font-size="12" text-anchor="middle" fill="#555555">100</text>
<polyline fill="none" stroke="#1d4ed8" stroke-width="3" points="90.00,419.38 98.48,433.98 106.97,434.73 115.45,434.94 123.94,435.09 132.42,435.18 140.91,435.28 149.39,435.28 157.88,435.35 166.36,435.38 174.85,435.42 183.33,435.45 191.82,435.49 200.30,435.51 208.79,435.53 217.27,435.53 225.76,435.57 234.24,435.59 242.73,435.59 251.21,435.61 259.70,435.01 268.18,396.42 276.67,398.54 285.15,408.14 293.64,434.96 302.12,434.91 310.61,433.84 319.09,435.48 327.58,435.39 336.06,435.39 344.55,435.25 353.03,435.46 361.52,435.43 370.00,435.44 378.48,435.44 386.97,435.14 395.45,435.49 403.94,435.48 412.42,435.53 420.91,435.58 429.39,435.34 437.88,435.46 446.36,435.53 454.85,435.44 463.33,435.57 471.82,435.49 480.30,435.59 488.79,435.52 497.27,435.65 505.76,435.56 514.24,434.81 522.73,435.74 531.21,435.77 539.70,435.78 548.18,435.80 556.67,435.80 565.15,435.80 573.64,435.81 582.12,435.80 590.61,435.81 599.09,435.81 607.58,435.81 616.06,435.81 624.55,435.81 633.03,435.81 641.52,435.82 650.00,435.82 658.48,435.82 666.97,435.82 675.45,435.81 683.94,435.82 692.42,435.82 700.91,435.82 709.39,435.82 717.88,435.82 726.36,435.82 734.85,435.83 743.33,435.83 751.82,435.83 760.30,435.83 768.79,435.82 777.27,435.83 785.76,435.83 794.24,435.83 802.73,435.83 811.21,435.83 819.70,435.82 828.18,435.82 836.67,435.83 845.15,435.83 853.64,435.83 862.12,435.83 870.61,435.83 879.09,435.83 887.58,435.83 896.06,435.83 904.55,435.83 913.03,435.83 921.52,435.83 930.00,435.83"/>
<circle cx="90.00" cy="419.38" r="4.5" fill="#1d4ed8" fill-opacity="0.9"/>
<circle cx="98.48" cy="433.98" r="4.5" fill="#1d4ed8" fill-opacity="0.9"/>
<circle cx="106.97" cy="434.73" r="4.5" fill="#1d4ed8" fill-opacity="0.9"/>
<circle cx="115.45" cy="434.94" r="4.5" fill="#1d4ed8" fill-opacity="0.9"/>
<circle cx="123.94" cy="435.09" r="4.5" fill="#1d4ed8" fill-opacity="0.9"/>
<circle cx="132.42" cy="435.18" r="4.5" fill="#1d4ed8" fill-opacity="0.9"/>
<circle cx="140.91" cy="435.28" r="4.5" fill="#1d4ed8" fill-opacity="0.9"/>
<circle cx="149.39" cy="435.28" r="4.5" fill="#1d4ed8" fill-opacity="0.9"/>
<circle cx="157.88" cy="435.35" r="4.5" fill="#1d4ed8" fill-opacity="0.9"/>
<circle cx="166.36" cy="435.38" r="4.5" fill="#1d4ed8" fill-opacity="0.9"/>
<circle cx="174.85" cy="435.42" r="4.5" fill="#1d4ed8" fill-opacity="0.9"/>
<circle cx="183.33" cy="435.45" r="4.5" fill="#1d4ed8" fill-opacity="0.9"/>
<circle cx="191.82" cy="435.49" r="4.5" fill="#1d4ed8" fill-opacity="0.9"/>
<circle cx="200.30" cy="435.51" r="4.5" fill="#1d4ed8" fill-opacity="0.9"/>
<circle cx="208.79" cy="435.53" r="4.5" fill="#1d4ed8" fill-opacity="0.9"/>
<circle cx="217.27" cy="435.53" r="4.5" fill="#1d4ed8" fill-opacity="0.9"/>
<circle cx="225.76" cy="435.57" r="4.5" fill="#1d4ed8" fill-opacity="0.9"/>
<circle cx="234.24" cy="435.59" r="4.5" fill="#1d4ed8" fill-opacity="0.9"/>
<circle cx="242.73" cy="435.59" r="4.5" fill="#1d4ed8" fill-opacity="0.9"/>
<circle cx="251.21" cy="435.61" r="4.5" fill="#1d4ed8" fill-opacity="0.9"/>
<circle cx="259.70" cy="435.01" r="4.5" fill="#1d4ed8" fill-opacity="0.9"/>
<circle cx="268.18" cy="396.42" r="4.5" fill="#1d4ed8" fill-opacity="0.9"/>
<circle cx="276.67" cy="398.54" r="4.5" fill="#1d4ed8" fill-opacity="0.9"/>
<circle cx="285.15" cy="408.14" r="4.5" fill="#1d4ed8" fill-opacity="0.9"/>
<circle cx="293.64" cy="434.96" r="4.5" fill="#1d4ed8" fill-opacity="0.9"/>
<circle cx="302.12" cy="434.91" r="4.5" fill="#1d4ed8" fill-opacity="0.9"/>
<circle cx="310.61" cy="433.84" r="4.5" fill="#1d4ed8" fill-opacity="0.9"/>
<circle cx="319.09" cy="435.48" r="4.5" fill="#1d4ed8" fill-opacity="0.9"/>
<circle cx="327.58" cy="435.39" r="4.5" fill="#1d4ed8" fill-opacity="0.9"/>
<circle cx="336.06" cy="435.39" r="4.5" fill="#1d4ed8" fill-opacity="0.9"/>
<circle cx="344.55" cy="435.25" r="4.5" fill="#1d4ed8" fill-opacity="0.9"/>
<circle cx="353.03" cy="435.46" r="4.5" fill="#1d4ed8" fill-opacity="0.9"/>
<circle cx="361.52" cy="435.43" r="4.5" fill="#1d4ed8" fill-opacity="0.9"/>
<circle cx="370.00" cy="435.44" r="4.5" fill="#1d4ed8" fill-opacity="0.9"/>
<circle cx="378.48" cy="435.44" r="4.5" fill="#1d4ed8" fill-opacity="0.9"/>
<circle cx="386.97" cy="435.14" r="4.5" fill="#1d4ed8" fill-opacity="0.9"/>
<circle cx="395.45" cy="435.49" r="4.5" fill="#1d4ed8" fill-opacity="0.9"/>
<circle cx="403.94" cy="435.48" r="4.5" fill="#1d4ed8" fill-opacity="0.9"/>
<circle cx="412.42" cy="435.53" r="4.5" fill="#1d4ed8" fill-opacity="0.9"/>
<circle cx="420.91" cy="435.58" r="4.5" fill="#1d4ed8" fill-opacity="0.9"/>
<circle cx="429.39" cy="435.34" r="4.5" fill="#1d4ed8" fill-opacity="0.9"/>
<circle cx="437.88" cy="435.46" r="4.5" fill="#1d4ed8" fill-opacity="0.9"/>
<circle cx="446.36" cy="435.53" r="4.5" fill="#1d4ed8" fill-opacity="0.9"/>
<circle cx="454.85" cy="435.44" r="4.5" fill="#1d4ed8" fill-opacity="0.9"/>
<circle cx="463.33" cy="435.57" r="4.5" fill="#1d4ed8" fill-opacity="0.9"/>
<circle cx="471.82" cy="435.49" r="4.5" fill="#1d4ed8" fill-opacity="0.9"/>
<circle cx="480.30" cy="435.59" r="4.5" fill="#1d4ed8" fill-opacity="0.9"/>
<circle cx="488.79" cy="435.52" r="4.5" fill="#1d4ed8" fill-opacity="0.9"/>
<circle cx="497.27" cy="435.65" r="4.5" fill="#1d4ed8" fill-opacity="0.9"/>
<circle cx="505.76" cy="435.56" r="4.5" fill="#1d4ed8" fill-opacity="0.9"/>
<circle cx="514.24" cy="434.81" r="4.5" fill="#1d4ed8" fill-opacity="0.9"/>
<circle cx="522.73" cy="435.74" r="4.5" fill="#1d4ed8" fill-opacity="0.9"/>
<circle cx="531.21" cy="435.77" r="4.5" fill="#1d4ed8" fill-opacity="0.9"/>
<circle cx="539.70" cy="435.78" r="4.5" fill="#1d4ed8" fill-opacity="0.9"/>
<circle cx="548.18" cy="435.80" r="4.5" fill="#1d4ed8" fill-opacity="0.9"/>
<circle cx="556.67" cy="435.80" r="4.5" fill="#1d4ed8" fill-opacity="0.9"/>
<circle cx="565.15" cy="435.80" r="4.5" fill="#1d4ed8" fill-opacity="0.9"/>
<circle cx="573.64" cy="435.81" r="4.5" fill="#1d4ed8" fill-opacity="0.9"/>
<circle cx="582.12" cy="435.80" r="4.5" fill="#1d4ed8" fill-opacity="0.9"/>
<circle cx="590.61" cy="435.81" r="4.5" fill="#1d4ed8" fill-opacity="0.9"/>
<circle cx="599.09" cy="435.81" r="4.5" fill="#1d4ed8" fill-opacity="0.9"/>
<circle cx="607.58" cy="435.81" r="4.5" fill="#1d4ed8" fill-opacity="0.9"/>
<circle cx="616.06" cy="435.81" r="4.5" fill="#1d4ed8" fill-opacity="0.9"/>
<circle cx="624.55" cy="435.81" r="4.5" fill="#1d4ed8" fill-opacity="0.9"/>
<circle cx="633.03" cy="435.81" r="4.5" fill="#1d4ed8" fill-opacity="0.9"/>
<circle cx="641.52" cy="435.82" r="4.5" fill="#1d4ed8" fill-opacity="0.9"/>
<circle cx="650.00" cy="435.82" r="4.5" fill="#1d4ed8" fill-opacity="0.9"/>
<circle cx="658.48" cy="435.82" r="4.5" fill="#1d4ed8" fill-opacity="0.9"/>
<circle cx="666.97" cy="435.82" r="4.5" fill="#1d4ed8" fill-opacity="0.9"/>
<circle cx="675.45" cy="435.81" r="4.5" fill="#1d4ed8" fill-opacity="0.9"/>
<circle cx="683.94" cy="435.82" r="4.5" fill="#1d4ed8" fill-opacity="0.9"/>
<circle cx="692.42" cy="435.82" r="4.5" fill="#1d4ed8" fill-opacity="0.9"/>
<circle cx="700.91" cy="435.82" r="4.5" fill="#1d4ed8" fill-opacity="0.9"/>
<circle cx="709.39" cy="435.82" r="4.5" fill="#1d4ed8" fill-opacity="0.9"/>
<circle cx="717.88" cy="435.82" r="4.5" fill="#1d4ed8" fill-opacity="0.9"/>
<circle cx="726.36" cy="435.82" r="4.5" fill="#1d4ed8" fill-opacity="0.9"/>
<circle cx="734.85" cy="435.83" r="4.5" fill="#1d4ed8" fill-opacity="0.9"/>
<circle cx="743.33" cy="435.83" r="4.5" fill="#1d4ed8" fill-opacity="0.9"/>
<circle cx="751.82" cy="435.83" r="4.5" fill="#1d4ed8" fill-opacity="0.9"/>
<circle cx="760.30" cy="435.83" r="4.5" fill="#1d4ed8" fill-opacity="0.9"/>
<circle cx="768.79" cy="435.82" r="4.5" fill="#1d4ed8" fill-opacity="0.9"/>
<circle cx="777.27" cy="435.83" r="4.5" fill="#1d4ed8" fill-opacity="0.9"/>
<circle cx="785.76" cy="435.83" r="4.5" fill="#1d4ed8" fill-opacity="0.9"/>
<circle cx="794.24" cy="435.83" r="4.5" fill="#1d4ed8" fill-opacity="0.9"/>
<circle cx="802.73" cy="435.83" r="4.5" fill="#1d4ed8" fill-opacity="0.9"/>
<circle cx="811.21" cy="435.83" r="4.5" fill="#1d4ed8" fill-opacity="0.9"/>
<circle cx="819.70" cy="435.82" r="4.5" fill="#1d4ed8" fill-opacity="0.9"/>
<circle cx="828.18" cy="435.82" r="4.5" fill="#1d4ed8" fill-opacity="0.9"/>
<circle cx="836.67" cy="435.83" r="4.5" fill="#1d4ed8" fill-opacity="0.9"/>
<circle cx="845.15" cy="435.83" r="4.5" fill="#1d4ed8" fill-opacity="0.9"/>
<circle cx="853.64" cy="435.83" r="4.5" fill="#1d4ed8" fill-opacity="0.9"/>
<circle cx="862.12" cy="435.83" r="4.5" fill="#1d4ed8" fill-opacity="0.9"/>
<circle cx="870.61" cy="435.83" r="4.5" fill="#1d4ed8" fill-opacity="0.9"/>
<circle cx="879.09" cy="435.83" r="4.5" fill="#1d4ed8" fill-opacity="0.9"/>
<circle cx="887.58" cy="435.83" r="4.5" fill="#1d4ed8" fill-opacity="0.9"/>
<circle cx="896.06" cy="435.83" r="4.5" fill="#1d4ed8" fill-opacity="0.9"/>
<circle cx="904.55" cy="435.83" r="4.5" fill="#1d4ed8" fill-opacity="0.9"/>
<circle cx="913.03" cy="435.83" r="4.5" fill="#1d4ed8" fill-opacity="0.9"/>
<circle cx="921.52" cy="435.83" r="4.5" fill="#1d4ed8" fill-opacity="0.9"/>
<circle cx="930.00" cy="435.83" r="4.5" fill="#1d4ed8" fill-opacity="0.9"/>
<rect x="90" y="32" width="18" height="6" fill="#1d4ed8"/>
<text x="114" y="38" font-size="13" fill="#333333">train</text>
<polyline fill="none" stroke="#d97706" stroke-width="3" points="90.00,430.90 98.48,434.77 106.97,434.07 115.45,432.09 123.94,415.77 132.42,426.20 140.91,393.12 149.39,432.72 157.88,435.05 166.36,435.34 174.85,435.32 183.33,435.19 191.82,434.98 200.30,435.39 208.79,421.81 217.27,435.29 225.76,435.37 234.24,435.39 242.73,435.20 251.21,435.24 259.70,94.17 268.18,398.52 276.67,398.58 285.15,429.46 293.64,421.60 302.12,226.61 310.61,432.69 319.09,412.11 327.58,432.29 336.06,406.00 344.55,420.92 353.03,430.01 361.52,415.54 370.00,426.39 378.48,364.33 386.97,425.20 395.45,425.03 403.94,420.89 412.42,433.11 420.91,417.02 429.39,408.04 437.88,432.15 446.36,407.67 454.85,431.70 463.33,399.45 471.82,425.92 480.30,420.18 488.79,432.79 497.27,426.71 505.76,407.99 514.24,435.34 522.73,435.36 531.21,435.40 539.70,435.41 548.18,435.40 556.67,435.34 565.15,435.33 573.64,435.27 582.12,435.27 590.61,435.37 599.09,435.34 607.58,435.29 616.06,435.34 624.55,435.03 633.03,435.09 641.52,435.23 650.00,435.35 658.48,435.16 666.97,435.22 675.45,435.27 683.94,435.30 692.42,435.28 700.91,435.10 709.39,435.14 717.88,435.22 726.36,435.29 734.85,435.24 743.33,435.24 751.82,435.21 760.30,435.25 768.79,435.23 777.27,435.15 785.76,435.21 794.24,435.14 802.73,435.16 811.21,435.01 819.70,435.09 828.18,435.24 836.67,435.19 845.15,434.84 853.64,435.21 862.12,435.22 870.61,435.07 879.09,435.16 887.58,435.16 896.06,435.22 904.55,435.10 913.03,435.06 921.52,435.18 930.00,434.85"/>
<circle cx="90.00" cy="430.90" r="4.5" fill="#d97706" fill-opacity="0.9"/>
<circle cx="98.48" cy="434.77" r="4.5" fill="#d97706" fill-opacity="0.9"/>
<circle cx="106.97" cy="434.07" r="4.5" fill="#d97706" fill-opacity="0.9"/>
<circle cx="115.45" cy="432.09" r="4.5" fill="#d97706" fill-opacity="0.9"/>
<circle cx="123.94" cy="415.77" r="4.5" fill="#d97706" fill-opacity="0.9"/>
<circle cx="132.42" cy="426.20" r="4.5" fill="#d97706" fill-opacity="0.9"/>
<circle cx="140.91" cy="393.12" r="4.5" fill="#d97706" fill-opacity="0.9"/>
<circle cx="149.39" cy="432.72" r="4.5" fill="#d97706" fill-opacity="0.9"/>
<circle cx="157.88" cy="435.05" r="4.5" fill="#d97706" fill-opacity="0.9"/>
<circle cx="166.36" cy="435.34" r="4.5" fill="#d97706" fill-opacity="0.9"/>
<circle cx="174.85" cy="435.32" r="4.5" fill="#d97706" fill-opacity="0.9"/>
<circle cx="183.33" cy="435.19" r="4.5" fill="#d97706" fill-opacity="0.9"/>
<circle cx="191.82" cy="434.98" r="4.5" fill="#d97706" fill-opacity="0.9"/>
<circle cx="200.30" cy="435.39" r="4.5" fill="#d97706" fill-opacity="0.9"/>
<circle cx="208.79" cy="421.81" r="4.5" fill="#d97706" fill-opacity="0.9"/>
<circle cx="217.27" cy="435.29" r="4.5" fill="#d97706" fill-opacity="0.9"/>
<circle cx="225.76" cy="435.37" r="4.5" fill="#d97706" fill-opacity="0.9"/>
<circle cx="234.24" cy="435.39" r="4.5" fill="#d97706" fill-opacity="0.9"/>
<circle cx="242.73" cy="435.20" r="4.5" fill="#d97706" fill-opacity="0.9"/>
<circle cx="251.21" cy="435.24" r="4.5" fill="#d97706" fill-opacity="0.9"/>
<circle cx="259.70" cy="94.17" r="4.5" fill="#d97706" fill-opacity="0.9"/>
<circle cx="268.18" cy="398.52" r="4.5" fill="#d97706" fill-opacity="0.9"/>
<circle cx="276.67" cy="398.58" r="4.5" fill="#d97706" fill-opacity="0.9"/>
<circle cx="285.15" cy="429.46" r="4.5" fill="#d97706" fill-opacity="0.9"/>
<circle cx="293.64" cy="421.60" r="4.5" fill="#d97706" fill-opacity="0.9"/>
<circle cx="302.12" cy="226.61" r="4.5" fill="#d97706" fill-opacity="0.9"/>
<circle cx="310.61" cy="432.69" r="4.5" fill="#d97706" fill-opacity="0.9"/>
<circle cx="319.09" cy="412.11" r="4.5" fill="#d97706" fill-opacity="0.9"/>
<circle cx="327.58" cy="432.29" r="4.5" fill="#d97706" fill-opacity="0.9"/>
<circle cx="336.06" cy="406.00" r="4.5" fill="#d97706" fill-opacity="0.9"/>
<circle cx="344.55" cy="420.92" r="4.5" fill="#d97706" fill-opacity="0.9"/>
<circle cx="353.03" cy="430.01" r="4.5" fill="#d97706" fill-opacity="0.9"/>
<circle cx="361.52" cy="415.54" r="4.5" fill="#d97706" fill-opacity="0.9"/>
<circle cx="370.00" cy="426.39" r="4.5" fill="#d97706" fill-opacity="0.9"/>
<circle cx="378.48" cy="364.33" r="4.5" fill="#d97706" fill-opacity="0.9"/>
<circle cx="386.97" cy="425.20" r="4.5" fill="#d97706" fill-opacity="0.9"/>
<circle cx="395.45" cy="425.03" r="4.5" fill="#d97706" fill-opacity="0.9"/>
<circle cx="403.94" cy="420.89" r="4.5" fill="#d97706" fill-opacity="0.9"/>
<circle cx="412.42" cy="433.11" r="4.5" fill="#d97706" fill-opacity="0.9"/>
<circle cx="420.91" cy="417.02" r="4.5" fill="#d97706" fill-opacity="0.9"/>
<circle cx="429.39" cy="408.04" r="4.5" fill="#d97706" fill-opacity="0.9"/>
<circle cx="437.88" cy="432.15" r="4.5" fill="#d97706" fill-opacity="0.9"/>
<circle cx="446.36" cy="407.67" r="4.5" fill="#d97706" fill-opacity="0.9"/>
<circle cx="454.85" cy="431.70" r="4.5" fill="#d97706" fill-opacity="0.9"/>
<circle cx="463.33" cy="399.45" r="4.5" fill="#d97706" fill-opacity="0.9"/>
<circle cx="471.82" cy="425.92" r="4.5" fill="#d97706" fill-opacity="0.9"/>
<circle cx="480.30" cy="420.18" r="4.5" fill="#d97706" fill-opacity="0.9"/>
<circle cx="488.79" cy="432.79" r="4.5" fill="#d97706" fill-opacity="0.9"/>
<circle cx="497.27" cy="426.71" r="4.5" fill="#d97706" fill-opacity="0.9"/>
<circle cx="505.76" cy="407.99" r="4.5" fill="#d97706" fill-opacity="0.9"/>
<circle cx="514.24" cy="435.34" r="4.5" fill="#d97706" fill-opacity="0.9"/>
<circle cx="522.73" cy="435.36" r="4.5" fill="#d97706" fill-opacity="0.9"/>
<circle cx="531.21" cy="435.40" r="4.5" fill="#d97706" fill-opacity="0.9"/>
<circle cx="539.70" cy="435.41" r="4.5" fill="#d97706" fill-opacity="0.9"/>
<circle cx="548.18" cy="435.40" r="4.5" fill="#d97706" fill-opacity="0.9"/>
<circle cx="556.67" cy="435.34" r="4.5" fill="#d97706" fill-opacity="0.9"/>
<circle cx="565.15" cy="435.33" r="4.5" fill="#d97706" fill-opacity="0.9"/>
<circle cx="573.64" cy="435.27" r="4.5" fill="#d97706" fill-opacity="0.9"/>
<circle cx="582.12" cy="435.27" r="4.5" fill="#d97706" fill-opacity="0.9"/>
<circle cx="590.61" cy="435.37" r="4.5" fill="#d97706" fill-opacity="0.9"/>
<circle cx="599.09" cy="435.34" r="4.5" fill="#d97706" fill-opacity="0.9"/>
<circle cx="607.58" cy="435.29" r="4.5" fill="#d97706" fill-opacity="0.9"/>
<circle cx="616.06" cy="435.34" r="4.5" fill="#d97706" fill-opacity="0.9"/>
<circle cx="624.55" cy="435.03" r="4.5" fill="#d97706" fill-opacity="0.9"/>
<circle cx="633.03" cy="435.09" r="4.5" fill="#d97706" fill-opacity="0.9"/>
<circle cx="641.52" cy="435.23" r="4.5" fill="#d97706" fill-opacity="0.9"/>
<circle cx="650.00" cy="435.35" r="4.5" fill="#d97706" fill-opacity="0.9"/>
<circle cx="658.48" cy="435.16" r="4.5" fill="#d97706" fill-opacity="0.9"/>
<circle cx="666.97" cy="435.22" r="4.5" fill="#d97706" fill-opacity="0.9"/>
<circle cx="675.45" cy="435.27" r="4.5" fill="#d97706" fill-opacity="0.9"/>
<circle cx="683.94" cy="435.30" r="4.5" fill="#d97706" fill-opacity="0.9"/>
<circle cx="692.42" cy="435.28" r="4.5" fill="#d97706" fill-opacity="0.9"/>
<circle cx="700.91" cy="435.10" r="4.5" fill="#d97706" fill-opacity="0.9"/>
<circle cx="709.39" cy="435.14" r="4.5" fill="#d97706" fill-opacity="0.9"/>
<circle cx="717.88" cy="435.22" r="4.5" fill="#d97706" fill-opacity="0.9"/>
<circle cx="726.36" cy="435.29" r="4.5" fill="#d97706" fill-opacity="0.9"/>
<circle cx="734.85" cy="435.24" r="4.5" fill="#d97706" fill-opacity="0.9"/>
<circle cx="743.33" cy="435.24" r="4.5" fill="#d97706" fill-opacity="0.9"/>
<circle cx="751.82" cy="435.21" r="4.5" fill="#d97706" fill-opacity="0.9"/>
<circle cx="760.30" cy="435.25" r="4.5" fill="#d97706" fill-opacity="0.9"/>
<circle cx="768.79" cy="435.23" r="4.5" fill="#d97706" fill-opacity="0.9"/>
<circle cx="777.27" cy="435.15" r="4.5" fill="#d97706" fill-opacity="0.9"/>
<circle cx="785.76" cy="435.21" r="4.5" fill="#d97706" fill-opacity="0.9"/>
<circle cx="794.24" cy="435.14" r="4.5" fill="#d97706" fill-opacity="0.9"/>
<circle cx="802.73" cy="435.16" r="4.5" fill="#d97706" fill-opacity="0.9"/>
<circle cx="811.21" cy="435.01" r="4.5" fill="#d97706" fill-opacity="0.9"/>
<circle cx="819.70" cy="435.09" r="4.5" fill="#d97706" fill-opacity="0.9"/>
<circle cx="828.18" cy="435.24" r="4.5" fill="#d97706" fill-opacity="0.9"/>
<circle cx="836.67" cy="435.19" r="4.5" fill="#d97706" fill-opacity="0.9"/>
<circle cx="845.15" cy="434.84" r="4.5" fill="#d97706" fill-opacity="0.9"/>
<circle cx="853.64" cy="435.21" r="4.5" fill="#d97706" fill-opacity="0.9"/>
<circle cx="862.12" cy="435.22" r="4.5" fill="#d97706" fill-opacity="0.9"/>
<circle cx="870.61" cy="435.07" r="4.5" fill="#d97706" fill-opacity="0.9"/>
<circle cx="879.09" cy="435.16" r="4.5" fill="#d97706" fill-opacity="0.9"/>
<circle cx="887.58" cy="435.16" r="4.5" fill="#d97706" fill-opacity="0.9"/>
<circle cx="896.06" cy="435.22" r="4.5" fill="#d97706" fill-opacity="0.9"/>
<circle cx="904.55" cy="435.10" r="4.5" fill="#d97706" fill-opacity="0.9"/>
<circle cx="913.03" cy="435.06" r="4.5" fill="#d97706" fill-opacity="0.9"/>
<circle cx="921.52" cy="435.18" r="4.5" fill="#d97706" fill-opacity="0.9"/>
<circle cx="930.00" cy="434.85" r="4.5" fill="#d97706" fill-opacity="0.9"/>
<rect x="270" y="32" width="18" height="6" fill="#d97706"/>
<text x="294" y="38" font-size="13" fill="#333333">val</text>
<polyline fill="none" stroke="#059669" stroke-width="3" points="90.00,430.95 98.48,434.78 106.97,434.09 115.45,432.15 123.94,415.92 132.42,426.22 140.91,393.00 149.39,432.74 157.88,435.06 166.36,435.37 174.85,435.33 183.33,435.19 191.82,434.99 200.30,435.40 208.79,421.74 217.27,435.27 225.76,435.36 234.24,435.41 242.73,435.23 251.21,435.26 259.70,98.28 268.18,398.51 276.67,398.58 285.15,429.59 293.64,421.49 302.12,226.95 310.61,432.54 319.09,412.05 327.58,432.29 336.06,406.62 344.55,420.87 353.03,429.84 361.52,415.30 370.00,426.30 378.48,364.52 386.97,425.16 395.45,425.10 403.94,421.00 412.42,433.00 420.91,416.84 429.39,408.03 437.88,432.01 446.36,407.60 454.85,431.52 463.33,399.39 471.82,425.98 480.30,420.02 488.79,432.68 497.27,426.40 505.76,407.41 514.24,435.34 522.73,435.38 531.21,435.42 539.70,435.40 548.18,435.41 556.67,435.35 565.15,435.33 573.64,435.30 582.12,435.25 590.61,435.38 599.09,435.33 607.58,435.30 616.06,435.34 624.55,435.02 633.03,435.08 641.52,435.27 650.00,435.36 658.48,435.20 666.97,435.24 675.45,435.31 683.94,435.33 692.42,435.30 700.91,435.10 709.39,435.16 717.88,435.23 726.36,435.30 734.85,435.28 743.33,435.27 751.82,435.23 760.30,435.27 768.79,435.27 777.27,435.17 785.76,435.23 794.24,435.16 802.73,435.18 811.21,435.01 819.70,435.11 828.18,435.25 836.67,435.20 845.15,434.87 853.64,435.20 862.12,435.25 870.61,435.12 879.09,435.17 887.58,435.20 896.06,435.22 904.55,435.11 913.03,435.09 921.52,435.20 930.00,434.78"/>
<circle cx="90.00" cy="430.95" r="4.5" fill="#059669" fill-opacity="0.9"/>
<circle cx="98.48" cy="434.78" r="4.5" fill="#059669" fill-opacity="0.9"/>
<circle cx="106.97" cy="434.09" r="4.5" fill="#059669" fill-opacity="0.9"/>
<circle cx="115.45" cy="432.15" r="4.5" fill="#059669" fill-opacity="0.9"/>
<circle cx="123.94" cy="415.92" r="4.5" fill="#059669" fill-opacity="0.9"/>
<circle cx="132.42" cy="426.22" r="4.5" fill="#059669" fill-opacity="0.9"/>
<circle cx="140.91" cy="393.00" r="4.5" fill="#059669" fill-opacity="0.9"/>
<circle cx="149.39" cy="432.74" r="4.5" fill="#059669" fill-opacity="0.9"/>
<circle cx="157.88" cy="435.06" r="4.5" fill="#059669" fill-opacity="0.9"/>
<circle cx="166.36" cy="435.37" r="4.5" fill="#059669" fill-opacity="0.9"/>
<circle cx="174.85" cy="435.33" r="4.5" fill="#059669" fill-opacity="0.9"/>
<circle cx="183.33" cy="435.19" r="4.5" fill="#059669" fill-opacity="0.9"/>
<circle cx="191.82" cy="434.99" r="4.5" fill="#059669" fill-opacity="0.9"/>
<circle cx="200.30" cy="435.40" r="4.5" fill="#059669" fill-opacity="0.9"/>
<circle cx="208.79" cy="421.74" r="4.5" fill="#059669" fill-opacity="0.9"/>
<circle cx="217.27" cy="435.27" r="4.5" fill="#059669" fill-opacity="0.9"/>
<circle cx="225.76" cy="435.36" r="4.5" fill="#059669" fill-opacity="0.9"/>
<circle cx="234.24" cy="435.41" r="4.5" fill="#059669" fill-opacity="0.9"/>
<circle cx="242.73" cy="435.23" r="4.5" fill="#059669" fill-opacity="0.9"/>
<circle cx="251.21" cy="435.26" r="4.5" fill="#059669" fill-opacity="0.9"/>
<circle cx="259.70" cy="98.28" r="4.5" fill="#059669" fill-opacity="0.9"/>
<circle cx="268.18" cy="398.51" r="4.5" fill="#059669" fill-opacity="0.9"/>
<circle cx="276.67" cy="398.58" r="4.5" fill="#059669" fill-opacity="0.9"/>
<circle cx="285.15" cy="429.59" r="4.5" fill="#059669" fill-opacity="0.9"/>
<circle cx="293.64" cy="421.49" r="4.5" fill="#059669" fill-opacity="0.9"/>
<circle cx="302.12" cy="226.95" r="4.5" fill="#059669" fill-opacity="0.9"/>
<circle cx="310.61" cy="432.54" r="4.5" fill="#059669" fill-opacity="0.9"/>
<circle cx="319.09" cy="412.05" r="4.5" fill="#059669" fill-opacity="0.9"/>
<circle cx="327.58" cy="432.29" r="4.5" fill="#059669" fill-opacity="0.9"/>
<circle cx="336.06" cy="406.62" r="4.5" fill="#059669" fill-opacity="0.9"/>
<circle cx="344.55" cy="420.87" r="4.5" fill="#059669" fill-opacity="0.9"/>
<circle cx="353.03" cy="429.84" r="4.5" fill="#059669" fill-opacity="0.9"/>
<circle cx="361.52" cy="415.30" r="4.5" fill="#059669" fill-opacity="0.9"/>
<circle cx="370.00" cy="426.30" r="4.5" fill="#059669" fill-opacity="0.9"/>
<circle cx="378.48" cy="364.52" r="4.5" fill="#059669" fill-opacity="0.9"/>
<circle cx="386.97" cy="425.16" r="4.5" fill="#059669" fill-opacity="0.9"/>
<circle cx="395.45" cy="425.10" r="4.5" fill="#059669" fill-opacity="0.9"/>
<circle cx="403.94" cy="421.00" r="4.5" fill="#059669" fill-opacity="0.9"/>
<circle cx="412.42" cy="433.00" r="4.5" fill="#059669" fill-opacity="0.9"/>
<circle cx="420.91" cy="416.84" r="4.5" fill="#059669" fill-opacity="0.9"/>
<circle cx="429.39" cy="408.03" r="4.5" fill="#059669" fill-opacity="0.9"/>
<circle cx="437.88" cy="432.01" r="4.5" fill="#059669" fill-opacity="0.9"/>
<circle cx="446.36" cy="407.60" r="4.5" fill="#059669" fill-opacity="0.9"/>
<circle cx="454.85" cy="431.52" r="4.5" fill="#059669" fill-opacity="0.9"/>
<circle cx="463.33" cy="399.39" r="4.5" fill="#059669" fill-opacity="0.9"/>
<circle cx="471.82" cy="425.98" r="4.5" fill="#059669" fill-opacity="0.9"/>
<circle cx="480.30" cy="420.02" r="4.5" fill="#059669" fill-opacity="0.9"/>
<circle cx="488.79" cy="432.68" r="4.5" fill="#059669" fill-opacity="0.9"/>
<circle cx="497.27" cy="426.40" r="4.5" fill="#059669" fill-opacity="0.9"/>
<circle cx="505.76" cy="407.41" r="4.5" fill="#059669" fill-opacity="0.9"/>
<circle cx="514.24" cy="435.34" r="4.5" fill="#059669" fill-opacity="0.9"/>
<circle cx="522.73" cy="435.38" r="4.5" fill="#059669" fill-opacity="0.9"/>
<circle cx="531.21" cy="435.42" r="4.5" fill="#059669" fill-opacity="0.9"/>
<circle cx="539.70" cy="435.40" r="4.5" fill="#059669" fill-opacity="0.9"/>
<circle cx="548.18" cy="435.41" r="4.5" fill="#059669" fill-opacity="0.9"/>
<circle cx="556.67" cy="435.35" r="4.5" fill="#059669" fill-opacity="0.9"/>
<circle cx="565.15" cy="435.33" r="4.5" fill="#059669" fill-opacity="0.9"/>
<circle cx="573.64" cy="435.30" r="4.5" fill="#059669" fill-opacity="0.9"/>
<circle cx="582.12" cy="435.25" r="4.5" fill="#059669" fill-opacity="0.9"/>
<circle cx="590.61" cy="435.38" r="4.5" fill="#059669" fill-opacity="0.9"/>
<circle cx="599.09" cy="435.33" r="4.5" fill="#059669" fill-opacity="0.9"/>
<circle cx="607.58" cy="435.30" r="4.5" fill="#059669" fill-opacity="0.9"/>
<circle cx="616.06" cy="435.34" r="4.5" fill="#059669" fill-opacity="0.9"/>
<circle cx="624.55" cy="435.02" r="4.5" fill="#059669" fill-opacity="0.9"/>
<circle cx="633.03" cy="435.08" r="4.5" fill="#059669" fill-opacity="0.9"/>
<circle cx="641.52" cy="435.27" r="4.5" fill="#059669" fill-opacity="0.9"/>
<circle cx="650.00" cy="435.36" r="4.5" fill="#059669" fill-opacity="0.9"/>
<circle cx="658.48" cy="435.20" r="4.5" fill="#059669" fill-opacity="0.9"/>
<circle cx="666.97" cy="435.24" r="4.5" fill="#059669" fill-opacity="0.9"/>
<circle cx="675.45" cy="435.31" r="4.5" fill="#059669" fill-opacity="0.9"/>
<circle cx="683.94" cy="435.33" r="4.5" fill="#059669" fill-opacity="0.9"/>
<circle cx="692.42" cy="435.30" r="4.5" fill="#059669" fill-opacity="0.9"/>
<circle cx="700.91" cy="435.10" r="4.5" fill="#059669" fill-opacity="0.9"/>
<circle cx="709.39" cy="435.16" r="4.5" fill="#059669" fill-opacity="0.9"/>
<circle cx="717.88" cy="435.23" r="4.5" fill="#059669" fill-opacity="0.9"/>
<circle cx="726.36" cy="435.30" r="4.5" fill="#059669" fill-opacity="0.9"/>
<circle cx="734.85" cy="435.28" r="4.5" fill="#059669" fill-opacity="0.9"/>
<circle cx="743.33" cy="435.27" r="4.5" fill="#059669" fill-opacity="0.9"/>
<circle cx="751.82" cy="435.23" r="4.5" fill="#059669" fill-opacity="0.9"/>
<circle cx="760.30" cy="435.27" r="4.5" fill="#059669" fill-opacity="0.9"/>
<circle cx="768.79" cy="435.27" r="4.5" fill="#059669" fill-opacity="0.9"/>
<circle cx="777.27" cy="435.17" r="4.5" fill="#059669" fill-opacity="0.9"/>
<circle cx="785.76" cy="435.23" r="4.5" fill="#059669" fill-opacity="0.9"/>
<circle cx="794.24" cy="435.16" r="4.5" fill="#059669" fill-opacity="0.9"/>
<circle cx="802.73" cy="435.18" r="4.5" fill="#059669" fill-opacity="0.9"/>
<circle cx="811.21" cy="435.01" r="4.5" fill="#059669" fill-opacity="0.9"/>
<circle cx="819.70" cy="435.11" r="4.5" fill="#059669" fill-opacity="0.9"/>
<circle cx="828.18" cy="435.25" r="4.5" fill="#059669" fill-opacity="0.9"/>
<circle cx="836.67" cy="435.20" r="4.5" fill="#059669" fill-opacity="0.9"/>
<circle cx="845.15" cy="434.87" r="4.5" fill="#059669" fill-opacity="0.9"/>
<circle cx="853.64" cy="435.20" r="4.5" fill="#059669" fill-opacity="0.9"/>
<circle cx="862.12" cy="435.25" r="4.5" fill="#059669" fill-opacity="0.9"/>
<circle cx="870.61" cy="435.12" r="4.5" fill="#059669" fill-opacity="0.9"/>
<circle cx="879.09" cy="435.17" r="4.5" fill="#059669" fill-opacity="0.9"/>
<circle cx="887.58" cy="435.20" r="4.5" fill="#059669" fill-opacity="0.9"/>
<circle cx="896.06" cy="435.22" r="4.5" fill="#059669" fill-opacity="0.9"/>
<circle cx="904.55" cy="435.11" r="4.5" fill="#059669" fill-opacity="0.9"/>
<circle cx="913.03" cy="435.09" r="4.5" fill="#059669" fill-opacity="0.9"/>
<circle cx="921.52" cy="435.20" r="4.5" fill="#059669" fill-opacity="0.9"/>
<circle cx="930.00" cy="434.78" r="4.5" fill="#059669" fill-opacity="0.9"/>
<rect x="450" y="32" width="18" height="6" fill="#059669"/>
<text x="474" y="38" font-size="13" fill="#333333">test</text>
</svg>