<svg xmlns="http://www.w3.org/2000/svg" width="960" height="540">
<rect width="100%" height="100%" fill="#ffffff"/>
<text x="480.0" y="30" font-size="22" text-anchor="middle" fill="#111111">Position 1 Accuracy</text>
<text x="20" y="270.0" font-size="16" transform="rotate(-90 20,270.0)" text-anchor="middle" fill="#333333">Accuracy</text>
<text x="480.0" y="520" font-size="16" text-anchor="middle" fill="#333333">Epoch</text>
<line x1="90" y1="60" x2="90" y2="470" stroke="#333333" stroke-width="2"/>
<line x1="90" y1="470" x2="930" y2="470" stroke="#333333" stroke-width="2"/>
<line x1="90" y1="470.00" x2="930" y2="470.00" stroke="#e5e7eb" stroke-width="1"/>
<text x="80" y="475.00" font-size="12" text-anchor="end" fill="#555555">-0.0702</text>
<line x1="90" y1="367.50" x2="930" y2="367.50" stroke="#e5e7eb" stroke-width="1"/>
<text x="80" y="372.50" font-size="12" text-anchor="end" fill="#555555">0.2201</text>
<line x1="90" y1="265.00" x2="930" y2="265.00" stroke="#e5e7eb" stroke-width="1"/>
<text x="80" y="270.00" font-size="12" text-anchor="end" fill="#555555">0.5104</text>
<line x1="90" y1="162.50" x2="930" y2="162.50" stroke="#e5e7eb" stroke-width="1"/>
<text x="80" y="167.50" font-size="12" text-anchor="end" fill="#555555">0.8006</text>
<line x1="90" y1="60.00" x2="930" y2="60.00" stroke="#e5e7eb" stroke-width="1"/>
<text x="80" y="65.00" font-size="12" text-anchor="end" fill="#555555">1.0909</text>
<line x1="90.00" y1="60" x2="90.00" y2="470" stroke="#f3f4f6" stroke-width="1"/>
<text x="90.00" y="492" font-size="12" text-anchor="middle" fill="#555555">1</text>
<line x1="98.48" y1="60" x2="98.48" y2="470" stroke="#f3f4f6" stroke-width="1"/>
<text x="98.48" y="492" font-size="12" text-anchor="middle" fill="#555555">2</text>
<line x1="106.97" y1="60" x2="106.97" y2="470" stroke="#f3f4f6" stroke-width="1"/>
<text x="106.97" y="492" font-size="12" text-anchor="middle" fill="#555555">3</text>
<line x1="115.45" y1="60" x2="115.45" y2="470" stroke="#f3f4f6" stroke-width="1"/>
<text x="115.45" y="492" font-size="12" text-anchor="middle" fill="#555555">4</text>
<line x1="123.94" y1="60" x2="123.94" y2="470" stroke="#f3f4f6" stroke-width="1"/>
<text x="123.94" y="492" font-size="12" text-anchor="middle" fill="#555555">5</text>
<line x1="132.42" y1="60" x2="132.42" y2="470" stroke="#f3f4f6" stroke-width="1"/>
<text x="132.42" y="492" font-size="12" text-anchor="middle" fill="#555555">6</text>
<line x1="140.91" y1="60" x2="140.91" y2="470" stroke="#f3f4f6" stroke-width="1"/>
<text x="140.91" y="492" font-size="12" text-anchor="middle" fill="#555555">7</text>
<line x1="149.39" y1="60" x2="149.39" y2="470" stroke="#f3f4f6" stroke-width="1"/>
<text x="149.39" y="492" font-size="12" text-anchor="middle" fill="#555555">8</text>
<line x1="157.88" y1="60" x2="157.88" y2="470" stroke="#f3f4f6" stroke-width="1"/>
<text x="157.88" y="492" font-size="12" text-anchor="middle" fill="#555555">9</text>
<line x1="166.36" y1="60" x2="166.36" y2="470" stroke="#f3f4f6" stroke-width="1"/>
<text x="166.36" y="492" font-size="12" text-anchor="middle" fill="#555555">10</text>
<line x1="174.85" y1="60" x2="174.85" y2="470" stroke="#f3f4f6" stroke-width="1"/>
<text x="174.85" y="492" font-size="12" text-anchor="middle" fill="#555555">11</text>
<line x1="183.33" y1="60" x2="183.33" y2="470" stroke="#f3f4f6" stroke-width="1"/>
<text x="183.33" y="492" font-size="12" text-anchor="middle" fill="#555555">12</text>
<line x1="191.82" y1="60" x2="191.82" y2="470" stroke="#f3f4f6" stroke-width="1"/>
<text x="191.82" y="492" font-size="12" text-anchor="middle" fill="#555555">13</text>
<line x1="200.30" y1="60" x2="200.30" y2="470" stroke="#f3f4f6" stroke-width="1"/>
<text x="200.30" y="492" font-size="12" text-anchor="middle" fill="#555555">14</text>
<line x1="208.79" y1="60" x2="208.79" y2="470" stroke="#f3f4f6" stroke-width="1"/>
<text x="208.79" y="492" font-size="12" text-anchor="middle" fill="#555555">15</text>
<line x1="217.27" y1="60" x2="217.27" y2="470" stroke="#f3f4f6" stroke-width="1"/>
<text x="217.27" y="492" font-size="12" text-anchor="middle" fill="#555555">16</text>
<line x1="225.76" y1="60" x2="225.76" y2="470" stroke="#f3f4f6" stroke-width="1"/>
<text x="225.76" y="492" font-size="12" text-anchor="middle" fill="#555555">17</text>
<line x1="234.24" y1="60" x2="234.24" y2="470" stroke="#f3f4f6" stroke-width="1"/>
<text x="234.24" y="492" font-size="12" text-anchor="middle" fill="#555555">18</text>
<line x1="242.73" y1="60" x2="242.73" y2="470" stroke="#f3f4f6" stroke-width="1"/>
<text x="242.73" y="492" font-size="12" text-anchor="middle" fill="#555555">19</text>
<line x1="251.21" y1="60" x2="251.21" y2="470" stroke="#f3f4f6" stroke-width="1"/>
<text x="251.21" y="492" font-size="12" text-anchor="middle" fill="#555555">20</text>
<line x1="259.70" y1="60" x2="259.70" y2="470" stroke="#f3f4f6" stroke-width="1"/>
<text x="259.70" y="492" font-size="12" text-anchor="middle" fill="#555555">21</text>
<line x1="268.18" y1="60" x2="268.18" y2="470" stroke="#f3f4f6" stroke-width="1"/>
<text x="268.18" y="492" font-size="12" text-anchor="middle" fill="#555555">22</text>
<line x1="276.67" y1="60" x2="276.67" y2="470" stroke="#f3f4f6" stroke-width="1"/>
<text x="276.67" y="492" font-size="12" text-anchor="middle" fill="#555555">23</text>
<line x1="285.15" y1="60" x2="285.15" y2="470" stroke="#f3f4f6" stroke-width="1"/>
<text x="285.15" y="492" font-size="12" text-anchor="middle" fill="#555555">24</text>
<line x1="293.64" y1="60" x2="293.64" y2="470" stroke="#f3f4f6" stroke-width="1"/>
<text x="293.64" y="492" font-size="12" text-anchor="middle" fill="#555555">25</text>
<line x1="302.12" y1="60" x2="302.12" y2="470" stroke="#f3f4f6" stroke-width="1"/>
<text x="302.12" y="492" font-size="12" text-anchor="middle" fill="#555555">26</text>
<line x1="310.61" y1="60" x2="310.61" y2="470" stroke="#f3f4f6" stroke-width="1"/>
<text x="310.61" y="492" font-size="12" text-anchor="middle" fill="#555555">27</text>
<line x1="319.09" y1="60" x2="319.09" y2="470" stroke="#f3f4f6" stroke-width="1"/>
<text x="319.09" y="492" font-size="12" text-anchor="middle" fill="#555555">28</text>
<line x1="327.58" y1="60" x2="327.58" y2="470" stroke="#f3f4f6" stroke-width="1"/>
<text x="327.58" y="492" font-size="12" text-anchor="middle" fill="#555555">29</text>
<line x1="336.06" y1="60" x2="336.06" y2="470" stroke="#f3f4f6" stroke-width="1"/>
<text x="336.06" y="492" font-size="12" text-anchor="middle" fill="#555555">30</text>
<line x1="344.55" y1="60" x2="344.55" y2="470" stroke="#f3f4f6" stroke-width="1"/>
<text x="344.55" y="492" font-size="12" text-anchor="middle" fill="#555555">31</text>
<line x1="353.03" y1="60" x2="353.03" y2="470" stroke="#f3f4f6" stroke-width="1"/>
<text x="353.03" y="492" font-size="12" text-anchor="middle" fill="#555555">32</text>
<line x1="361.52" y1="60" x2="361.52" y2="470" stroke="#f3f4f6" stroke-width="1"/>
<text x="361.52" y="492" font-size="12" text-anchor="middle" fill="#555555">33</text>
<line x1="370.00" y1="60" x2="370.00" y2="470" stroke="#f3f4f6" stroke-width="1"/>
<text x="370.00" y="492" font-size="12" text-anchor="middle" fill="#555555">34</text>
<line x1="378.48" y1="60" x2="378.48" y2="470" stroke="#f3f4f6" stroke-width="1"/>
<text x="378.48" y="492" font-size="12" text-anchor="middle" fill="#555555">35</text>
<line x1="386.97" y1="60" x2="386.97" y2="470" stroke="#f3f4f6" stroke-width="1"/>
<text x="386.97" y="492" font-size="12" text-anchor="middle" fill="#555555">36</text>
<line x1="395.45" y1="60" x2="395.45" y2="470" stroke="#f3f4f6" stroke-width="1"/>
<text x="395.45" y="492" font-size="12" text-anchor="middle" fill="#555555">37</text>
<line x1="403.94" y1="60" x2="403.94" y2="470" stroke="#f3f4f6" stroke-width="1"/>
<text x="403.94" y="492" font-size="12" text-anchor="middle" fill="#555555">38</text>
<line x1="412.42" y1="60" x2="412.42" y2="470" stroke="#f3f4f6" stroke-width="1"/>
<text x="412.42" y="492" font-size="12" text-anchor="middle" fill="#555555">39</text>
<line x1="420.91" y1="60" x2="420.91" y2="470" stroke="#f3f4f6" stroke-width="1"/>
<text x="420.91" y="492" font-size="12" text-anchor="middle" fill="#555555">40</text>
<line x1="429.39" y1="60" x2="429.39" y2="470" stroke="#f3f4f6" stroke-width="1"/>
<text x="429.39" y="492" font-size="12" text-anchor="middle" fill="#555555">41</text>
<line x1="437.88" y1="60" x2="437.88" y2="470" stroke="#f3f4f6" stroke-width="1"/>
<text x="437.88" y="492" font-size="12" text-anchor="middle" fill="#555555">42</text>
<line x1="446.36" y1="60" x2="446.36" y2="470" stroke="#f3f4f6" stroke-width="1"/>
<text x="446.36" y="492" font-size="12" text-anchor="middle" fill="#555555">43</text>
<line x1="454.85" y1="60" x2="454.85" y2="470" stroke="#f3f4f6" stroke-width="1"/>
<text x="454.85" y="492" font-size="12" text-anchor="middle" fill="#555555">44</text>
<line x1="463.33" y1="60" x2="463.33" y2="470" stroke="#f3f4f6" stroke-width="1"/>
<text x="463.33" y="492" font-size="12" text-anchor="middle" fill="#555555">45</text>
<line x1="471.82" y1="60" x2="471.82" y2="470" stroke="#f3f4f6" stroke-width="1"/>
<text x="471.82" y="492" font-size="12" text-anchor="middle" fill="#555555">46</text>
<line x1="480.30" y1="60" x2="480.30" y2="470" stroke="#f3f4f6" stroke-width="1"/>
<text x="480.30" y="492" font-size="12" text-anchor="middle" fill="#555555">47</text>
<line x1="488.79" y1="60" x2="488.79" y2="470" stroke="#f3f4f6" stroke-width="1"/>
<text x="488.79" y="492" font-size="12" text-anchor="middle" fill="#555555">48</text>
<line x1="497.27" y1="60" x2="497.27" y2="470" stroke="#f3f4f6" stroke-width="1"/>
<text x="497.27" y="492" font-size="12" text-anchor="middle" fill="#555555">49</text>
<line x1="505.76" y1="60" x2="505.76" y2="470" stroke="#f3f4f6" stroke-width="1"/>
<text x="505.76" y="492" font-size="12" text-anchor="middle" fill="#555555">50</text>
<line x1="514.24" y1="60" x2="514.24" y2="470" stroke="#f3f4f6" stroke-width="1"/>
<text x="514.24" y="492" font-size="12" text-anchor="middle" fill="#555555">51</text>
<line x1="522.73" y1="60" x2="522.73" y2="470" stroke="#f3f4f6" stroke-width="1"/>
<text x="522.73" y="492" font-size="12" text-anchor="middle" fill="#555555">52</text>
<line x1="531.21" y1="60" x2="531.21" y2="470" stroke="#f3f4f6" stroke-width="1"/>
<text x="531.21" y="492" font-size="12" text-anchor="middle" fill="#555555">53</text>
<line x1="539.70" y1="60" x2="539.70" y2="470" stroke="#f3f4f6" stroke-width="1"/>
<text x="539.70" y="492" font-size="12" text-anchor="middle" fill="#555555">54</text>
<line x1="548.18" y1="60" x2="548.18" y2="470" stroke="#f3f4f6" stroke-width="1"/>
<text x="548.18" y="492" font-size="12" text-anchor="middle" fill="#555555">55</text>
<line x1="556.67" y1="60" x2="556.67" y2="470" stroke="#f3f4f6" stroke-width="1"/>
<text x="556.67" y="492" font-size="12" text-anchor="middle" fill="#555555">56</text>
<line x1="565.15" y1="60" x2="565.15" y2="470" stroke="#f3f4f6" stroke-width="1"/>
<text x="565.15" y="492" font-size="12" text-anchor="middle" fill="#555555">57</text>
<line x1="573.64" y1="60" x2="573.64" y2="470" stroke="#f3f4f6" stroke-width="1"/>
<text x="573.64" y="492" font-size="12" text-anchor="middle" fill="#555555">58</text>
<line x1="582.12" y1="60" x2="582.12" y2="470" stroke="#f3f4f6" stroke-width="1"/>
<text x="582.12" y="492" font-size="12" text-anchor="middle" fill="#555555">59</text>
<line x1="590.61" y1="60" x2="590.61" y2="470" stroke="#f3f4f6" stroke-width="1"/>
<text x="590.61" y="492" font-size="12" text-anchor="middle" fill="#555555">60</text>
<line x1="599.09" y1="60" x2="599.09" y2="470" stroke="#f3f4f6" stroke-width="1"/>
<text x="599.09" y="492" font-size="12" text-anchor="middle" fill="#555555">61</text>
<line x1="607.58" y1="60" x2="607.58" y2="470" stroke="#f3f4f6" stroke-width="1"/>
<text x="607.58" y="492" font-size="12" text-anchor="middle" fill="#555555">62</text>
<line x1="616.06" y1="60" x2="616.06" y2="470" stroke="#f3f4f6" stroke-width="1"/>
<text x="616.06" y="492" font-size="12" text-anchor="middle" fill="#555555">63</text>
<line x1="624.55" y1="60" x2="624.55" y2="470" stroke="#f3f4f6" stroke-width="1"/>
<text x="624.55" y="492" font-size="12" text-anchor="middle" fill="#555555">64</text>
<line x1="633.03" y1="60" x2="633.03" y2="470" stroke="#f3f4f6" stroke-width="1"/>
<text x="633.03" y="492" font-size="12" text-anchor="middle" fill="#555555">65</text>
<line x1="641.52" y1="60" x2="641.52" y2="470" stroke="#f3f4f6" stroke-width="1"/>
<text x="641.52" y="492" font-size="12" text-anchor="middle" fill="#555555">66</text>
<line x1="650.00" y1="60" x2="650.00" y2="470" stroke="#f3f4f6" stroke-width="1"/>
<text x="650.00" y="492" font-size="12" text-anchor="middle" fill="#555555">67</text>
<line x1="658.48" y1="60" x2="658.48" y2="470" stroke="#f3f4f6" stroke-width="1"/>
<text x="658.48" y="492" font-size="12" text-anchor="middle" fill="#555555">68</text>
<line x1="666.97" y1="60" x2="666.97" y2="470" stroke="#f3f4f6" stroke-width="1"/>
<text x="666.97" y="492" font-size="12" text-anchor="middle" fill="#555555">69</text>
<line x1="675.45" y1="60" x2="675.45" y2="470" stroke="#f3f4f6" stroke-width="1"/>
<text x="675.45" y="492" font-size="12" text-anchor="middle" fill="#555555">70</text>
<line x1="683.94" y1="60" x2="683.94" y2="470" stroke="#f3f4f6" stroke-width="1"/>
<text x="683.94" y="492" font-size="12" text-anchor="middle" fill="#555555">71</text>
<line x1="692.42" y1="60" x2="692.42" y2="470" stroke="#f3f4f6" stroke-width="1"/>
<text x="692.42" y="492" font-size="12" text-anchor="middle" fill="#555555">72</text>
<line x1="700.91" y1="60" x2="700.91" y2="470" stroke="#f3f4f6" stroke-width="1"/>
<text x="700.91" y="492" font-size="12" text-anchor="middle" fill="#555555">73</text>
<line x1="709.39" y1="60" x2="709.39" y2="470" stroke="#f3f4f6" stroke-width="1"/>
<text x="709.39" y="492" font-size="12" text-anchor="middle" fill="#555555">74</text>
<line x1="717.88" y1="60" x2="717.88" y2="470" stroke="#f3f4f6" stroke-width="1"/>
<text x="717.88" y="492" font-size="12" text-anchor="middle" fill="#555555">75</text>
<line x1="726.36" y1="60" x2="726.36" y2="470" stroke="#f3f4f6" stroke-width="1"/>
<text x="726.36" y="492" font-size="12" text-anchor="middle" fill="#555555">76</text>
<line x1="734.85" y1="60" x2="734.85" y2="470" stroke="#f3f4f6" stroke-width="1"/>
<text x="734.85" y="492" font-size="12" text-anchor="middle" fill="#555555">77</text>
<line x1="743.33" y1="60" x2="743.33" y2="470" stroke="#f3f4f6" stroke-width="1"/>
<text x="743.33" y="492" font-size="12" text-anchor="middle" fill="#555555">78</text>
<line x1="751.82" y1="60" x2="751.82" y2="470" stroke="#f3f4f6" stroke-width="1"/>
<text x="751.82" y="492" font-size="12" text-anchor="middle" fill="#555555">79</text>
<line x1="760.30" y1="60" x2="760.30" y2="470" stroke="#f3f4f6" stroke-width="1"/>
<text x="760.30" y="492" font-size="12" text-anchor="middle" fill="#555555">80</text>
<line x1="768.79" y1="60" x2="768.79" y2="470" stroke="#f3f4f6" stroke-width="1"/>
<text x="768.79" y="492" font-size="12" text-anchor="middle" fill="#555555">81</text>
<line x1="777.27" y1="60" x2="777.27" y2="470" stroke="#f3f4f6" stroke-width="1"/>
<text x="777.27" y="492" font-size="12" text-anchor="middle" fill="#555555">82</text>
<line x1="785.76" y1="60" x2="785.76" y2="470" stroke="#f3f4f6" stroke-width="1"/>
<text x="785.76" y="492" font-size="12" text-anchor="middle" fill="#555555">83</text>
<line x1="794.24" y1="60" x2="794.24" y2="470" stroke="#f3f4f6" stroke-width="1"/>
<text x="794.24" y="492" font-size="12" text-anchor="middle" fill="#555555">84</text>
<line x1="802.73" y1="60" x2="802.73" y2="470" stroke="#f3f4f6" stroke-width="1"/>
<text x="802.73" y="492" font-size="12" text-anchor="middle" fill="#555555">85</text>
<line x1="811.21" y1="60" x2="811.21" y2="470" stroke="#f3f4f6" stroke-width="1"/>
<text x="811.21" y="492" font-size="12" text-anchor="middle" fill="#555555">86</text>
<line x1="819.70" y1="60" x2="819.70" y2="470" stroke="#f3f4f6" stroke-width="1"/>
<text x="819.70" y="492" font-size="12" text-anchor="middle" fill="#555555">87</text>
<line x1="828.18" y1="60" x2="828.18" y2="470" stroke="#f3f4f6" stroke-width="1"/>
<text x="828.18" y="492" font-size="12" text-anchor="middle" fill="#555555">88</text>
<line x1="836.67" y1="60" x2="836.67" y2="470" stroke="#f3f4f6" stroke-width="1"/>
<text x="836.67" y="492" font-size="12" text-anchor="middle" fill="#555555">89</text>
<line x1="845.15" y1="60" x2="845.15" y2="470" stroke="#f3f4f6" stroke-width="1"/>
<text x="845.15" y="492" font-size="12" text-anchor="middle" fill="#555555">90</text>
<line x1="853.64" y1="60" x2="853.64" y2="470" stroke="#f3f4f6" stroke-width="1"/>
<text x="853.64" y="492" font-size="12" text-anchor="middle" fill="#555555">91</text>
<line x1="862.12" y1="60" x2="862.12" y2="470" stroke="#f3f4f6" stroke-width="1"/>
<text x="862.12" y="492" font-size="12" text-anchor="middle" fill="#555555">92</text>
<line x1="870.61" y1="60" x2="870.61" y2="470" stroke="#f3f4f6" stroke-width="1"/>
<text x="870.61" y="492" font-size="12" text-anchor="middle" fill="#555555">93</text>
<line x1="879.09" y1="60" x2="879.09" y2="470" stroke="#f3f4f6" stroke-width="1"/>
<text x="879.09" y="492" font-size="12" text-anchor="middle" fill="#555555">94</text>
<line x1="887.58" y1="60" x2="887.58" y2="470" stroke="#f3f4f6" stroke-width="1"/>
<text x="887.58" y="492" font-size="12" text-anchor="middle" fill="#555555">95</text>
<line x1="896.06" y1="60" x2="896.06" y2="470" stroke="#f3f4f6" stroke-width="1"/>
<text x="896.06" y="492" font-size="12" text-anchor="middle" fill="#555555">96</text>
<line x1="904.55" y1="60" x2="904.55" y2="470" stroke="#f3f4f6" stroke-width="1"/>
<text x="904.55" y="492" font-size="12" text-anchor="middle" fill="#555555">97</text>
<line x1="913.03" y1="60" x2="913.03" y2="470" stroke="#f3f4f6" stroke-width="1"/>
<text x="913.03" y="492" font-size="12" text-anchor="middle" fill="#555555">98</text>
<line x1="921.52" y1="60" x2="921.52" y2="470" stroke="#f3f4f6" stroke-width="1"/>
<text x="921.52" y="492" font-size="12" text-anchor="middle" fill="#555555">99</text>
<line x1="930.00" y1="60" x2="930.00" y2="470" stroke="#f3f4f6" stroke-width="1"/>
<text x="930.00" y="492" font-size="12" text-anchor="middle" fill="#555555">100</text>
<polyline fill="none" stroke="#d97706" stroke-width="3" points="90.00,132.94 98.48,100.97 106.97,109.37 115.45,120.09 123.94,203.00 132.42,149.68 140.91,282.15 149.39,115.61 157.88,99.65 166.36,96.59 174.85,96.12 183.33,98.24 191.82,99.72 200.30,95.25 208.79,130.12 217.27,96.00 225.76,95.93 234.24,96.33 242.73,96.76 251.21,96.29 259.70,435.72 268.18,435.48 276.67,435.27 285.15,119.92 293.64,135.77 302.12,396.40 310.61,102.48 319.09,170.58 327.58,102.99 336.06,171.86 344.55,145.58 353.03,110.18 361.52,138.24 370.00,115.28 378.48,428.49 386.97,117.21 395.45,119.36 403.94,125.34 412.42,99.42 420.91,135.37 429.39,201.09 437.88,102.64 446.36,169.03 454.85,103.61 463.33,176.71 471.82,127.78 480.30,124.49 488.79,102.95 497.27,109.00 505.76,148.62 514.24,95.49 522.73,95.20 531.21,94.73 539.70,94.87 548.18,94.57 556.67,94.83 565.15,94.64 573.64,94.68 582.12,95.23 590.61,94.52 599.09,94.94 607.58,94.71 616.06,95.11 624.55,95.30 633.03,95.93 641.52,95.60 650.00,94.61 658.48,95.65 666.97,95.30 675.45,94.73 683.94,94.99 692.42,94.83 700.91,95.39 709.39,95.30 717.88,94.90 726.36,94.90 734.85,95.20 743.33,94.90 751.82,94.68 760.30,94.64 768.79,95.18 777.27,94.99 785.76,95.04 794.24,95.37 802.73,95.53 811.21,95.96 819.70,95.13 828.18,95.04 836.67,95.32 845.15,96.12 853.64,95.53 862.12,94.97 870.61,95.32 879.09,95.01 887.58,94.78 896.06,94.64 904.55,95.65 913.03,95.81 921.52,95.16 930.00,96.03"/>
<circle cx="90.00" cy="132.94" r="4.5" fill="#d97706" fill-opacity="0.9"/>
<circle cx="98.48" cy="100.97" r="4.5" fill="#d97706" fill-opacity="0.9"/>
<circle cx="106.97" cy="109.37" r="4.5" fill="#d97706" fill-opacity="0.9"/>
<circle cx="115.45" cy="120.09" r="4.5" fill="#d97706" fill-opacity="0.9"/>
<circle cx="123.94" cy="203.00" r="4.5" fill="#d97706" fill-opacity="0.9"/>
<circle cx="132.42" cy="149.68" r="4.5" fill="#d97706" fill-opacity="0.9"/>
<circle cx="140.91" cy="282.15" r="4.5" fill="#d97706" fill-opacity="0.9"/>
<circle cx="149.39" cy="115.61" r="4.5" fill="#d97706" fill-opacity="0.9"/>
<circle cx="157.88" cy="99.65" r="4.5" fill="#d97706" fill-opacity="0.9"/>
<circle cx="166.36" cy="96.59" r="4.5" fill="#d97706" fill-opacity="0.9"/>
<circle cx="174.85" cy="96.12" r="4.5" fill="#d97706" fill-opacity="0.9"/>
<circle cx="183.33" cy="98.24" r="4.5" fill="#d97706" fill-opacity="0.9"/>
<circle cx="191.82" cy="99.72" r="4.5" fill="#d97706" fill-opacity="0.9"/>
<circle cx="200.30" cy="95.25" r="4.5" fill="#d97706" fill-opacity="0.9"/>
<circle cx="208.79" cy="130.12" r="4.5" fill="#d97706" fill-opacity="0.9"/>
<circle cx="217.27" cy="96.00" r="4.5" fill="#d97706" fill-opacity="0.9"/>
<circle cx="225.76" cy="95.93" r="4.5" fill="#d97706" fill-opacity="0.9"/>
<circle cx="234.24" cy="96.33" r="4.5" fill="#d97706" fill-opacity="0.9"/>
<circle cx="242.73" cy="96.76" r="4.5" fill="#d97706" fill-opacity="0.9"/>
<circle cx="251.21" cy="96.29" r="4.5" fill="#d97706" fill-opacity="0.9"/>
<circle cx="259.70" cy="435.72" r="4.5" fill="#d97706" fill-opacity="0.9"/>
<circle cx="268.18" cy="435.48" r="4.5" fill="#d97706" fill-opacity="0.9"/>
<circle cx="276.67" cy="435.27" r="4.5" fill="#d97706" fill-opacity="0.9"/>
<circle cx="285.15" cy="119.92" r="4.5" fill="#d97706" fill-opacity="0.9"/>
<circle cx="293.64" cy="135.77" r="4.5" fill="#d97706" fill-opacity="0.9"/>
<circle cx="302.12" cy="396.40" r="4.5" fill="#d97706" fill-opacity="0.9"/>
<circle cx="310.61" cy="102.48" r="4.5" fill="#d97706" fill-opacity="0.9"/>
<circle cx="319.09" cy="170.58" r="4.5" fill="#d97706" fill-opacity="0.9"/>
<circle cx="327.58" cy="102.99" r="4.5" fill="#d97706" fill-opacity="0.9"/>
<circle cx="336.06" cy="171.86" r="4.5" fill="#d97706" fill-opacity="0.9"/>
<circle cx="344.55" cy="145.58" r="4.5" fill="#d97706" fill-opacity="0.9"/>
<circle cx="353.03" cy="110.18" r="4.5" fill="#d97706" fill-opacity="0.9"/>
<circle cx="361.52" cy="138.24" r="4.5" fill="#d97706" fill-opacity="0.9"/>
<circle cx="370.00" cy="115.28" r="4.5" fill="#d97706" fill-opacity="0.9"/>
<circle cx="378.48" cy="428.49" r="4.5" fill="#d97706" fill-opacity="0.9"/>
<circle cx="386.97" cy="117.21" r="4.5" fill="#d97706" fill-opacity="0.9"/>
<circle cx="395.45" cy="119.36" r="4.5" fill="#d97706" fill-opacity="0.9"/>
<circle cx="403.94" cy="125.34" r="4.5" fill="#d97706" fill-opacity="0.9"/>
<circle cx="412.42" cy="99.42" r="4.5" fill="#d97706" fill-opacity="0.9"/>
<circle cx="420.91" cy="135.37" r="4.5" fill="#d97706" fill-opacity="0.9"/>
<circle cx="429.39" cy="201.09" r="4.5" fill="#d97706" fill-opacity="0.9"/>
<circle cx="437.88" cy="102.64" r="4.5" fill="#d97706" fill-opacity="0.9"/>
<circle cx="446.36" cy="169.03" r="4.5" fill="#d97706" fill-opacity="0.9"/>
<circle cx="454.85" cy="103.61" r="4.5" fill="#d97706" fill-opacity="0.9"/>
<circle cx="463.33" cy="176.71" r="4.5" fill="#d97706" fill-opacity="0.9"/>
<circle cx="471.82" cy="127.78" r="4.5" fill="#d97706" fill-opacity="0.9"/>
<circle cx="480.30" cy="124.49" r="4.5" fill="#d97706" fill-opacity="0.9"/>
<circle cx="488.79" cy="102.95" r="4.5" fill="#d97706" fill-opacity="0.9"/>
<circle cx="497.27" cy="109.00" r="4.5" fill="#d97706" fill-opacity="0.9"/>
<circle cx="505.76" cy="148.62" r="4.5" fill="#d97706" fill-opacity="0.9"/>
<circle cx="514.24" cy="95.49" r="4.5" fill="#d97706" fill-opacity="0.9"/>
<circle cx="522.73" cy="95.20" r="4.5" fill="#d97706" fill-opacity="0.9"/>
<circle cx="531.21" cy="94.73" r="4.5" fill="#d97706" fill-opacity="0.9"/>
<circle cx="539.70" cy="94.87" r="4.5" fill="#d97706" fill-opacity="0.9"/>
<circle cx="548.18" cy="94.57" r="4.5" fill="#d97706" fill-opacity="0.9"/>
<circle cx="556.67" cy="94.83" r="4.5" fill="#d97706" fill-opacity="0.9"/>
<circle cx="565.15" cy="94.64" r="4.5" fill="#d97706" fill-opacity="0.9"/>
<circle cx="573.64" cy="94.68" r="4.5" fill="#d97706" fill-opacity="0.9"/>
<circle cx="582.12" cy="95.23" r="4.5" fill="#d97706" fill-opacity="0.9"/>
<circle cx="590.61" cy="94.52" r="4.5" fill="#d97706" fill-opacity="0.9"/>
<circle cx="599.09" cy="94.94" r="4.5" fill="#d97706" fill-opacity="0.9"/>
<circle cx="607.58" cy="94.71" r="4.5" fill="#d97706" fill-opacity="0.9"/>
<circle cx="616.06" cy="95.11" r="4.5" fill="#d97706" fill-opacity="0.9"/>
<circle cx="624.55" cy="95.30" r="4.5" fill="#d97706" fill-opacity="0.9"/>
<circle cx="633.03" cy="95.93" r="4.5" fill="#d97706" fill-opacity="0.9"/>
<circle cx="641.52" cy="95.60" r="4.5" fill="#d97706" fill-opacity="0.9"/>
<circle cx="650.00" cy="94.61" r="4.5" fill="#d97706" fill-opacity="0.9"/>
<circle cx="658.48" cy="95.65" r="4.5" fill="#d97706" fill-opacity="0.9"/>
<circle cx="666.97" cy="95.30" r="4.5" fill="#d97706" fill-opacity="0.9"/>
<circle cx="675.45" cy="94.73" r="4.5" fill="#d97706" fill-opacity="0.9"/>
<circle cx="683.94" cy="94.99" r="4.5" fill="#d97706" fill-opacity="0.9"/>
<circle cx="692.42" cy="94.83" r="4.5" fill="#d97706" fill-opacity="0.9"/>
<circle cx="700.91" cy="95.39" r="4.5" fill="#d97706" fill-opacity="0.9"/>
<circle cx="709.39" cy="95.30" r="4.5" fill="#d97706" fill-opacity="0.9"/>
<circle cx="717.88" cy="94.90" r="4.5" fill="#d97706" fill-opacity="0.9"/>
<circle cx="726.36" cy="94.90" r="4.5" fill="#d97706" fill-opacity="0.9"/>
<circle cx="734.85" cy="95.20" r="4.5" fill="#d97706" fill-opacity="0.9"/>
<circle cx="743.33" cy="94.90" r="4.5" fill="#d97706" fill-opacity="0.9"/>
<circle cx="751.82" cy="94.68" r="4.5" fill="#d97706" fill-opacity="0.9"/>
<circle cx="760.30" cy="94.64" r="4.5" fill="#d97706" fill-opacity="0.9"/>
<circle cx="768.79" cy="95.18" r="4.5" fill="#d97706" fill-opacity="0.9"/>
<circle cx="777.27" cy="94.99" r="4.5" fill="#d97706" fill-opacity="0.9"/>
<circle cx="785.76" cy="95.04" r="4.5" fill="#d97706" fill-opacity="0.9"/>
<circle cx="794.24" cy="95.37" r="4.5" fill="#d97706" fill-opacity="0.9"/>
<circle cx="802.73" cy="95.53" r="4.5" fill="#d97706" fill-opacity="0.9"/>
<circle cx="811.21" cy="95.96" r="4.5" fill="#d97706" fill-opacity="0.9"/>
<circle cx="819.70" cy="95.13" r="4.5" fill="#d97706" fill-opacity="0.9"/>
<circle cx="828.18" cy="95.04" r="4.5" fill="#d97706" fill-opacity="0.9"/>
<circle cx="836.67" cy="95.32" r="4.5" fill="#d97706" fill-opacity="0.9"/>
<circle cx="845.15" cy="96.12" r="4.5" fill="#d97706" fill-opacity="0.9"/>
<circle cx="853.64" cy="95.53" r="4.5" fill="#d97706" fill-opacity="0.9"/>
<circle cx="862.12" cy="94.97" r="4.5" fill="#d97706" fill-opacity="0.9"/>
<circle cx="870.61" cy="95.32" r="4.5" fill="#d97706" fill-opacity="0.9"/>
<circle cx="879.09" cy="95.01" r="4.5" fill="#d97706" fill-opacity="0.9"/>
<circle cx="887.58" cy="94.78" r="4.5" fill="#d97706" fill-opacity="0.9"/>
<circle cx="896.06" cy="94.64" r="4.5" fill="#d97706" fill-opacity="0.9"/>
<circle cx="904.55" cy="95.65" r="4.5" fill="#d97706" fill-opacity="0.9"/>
<circle cx="913.03" cy="95.81" r="4.5" fill="#d97706" fill-opacity="0.9"/>
<circle cx="921.52" cy="95.16" r="4.5" fill="#d97706" fill-opacity="0.9"/>
<circle cx="930.00" cy="96.03" r="4.5" fill="#d97706" fill-opacity="0.9"/>
<rect x="90" y="32" width="18" height="6" fill="#d97706"/>
<text x="114" y="38" font-size="13" fill="#333333">val</text>
<polyline fill="none" stroke="#059669" stroke-width="3" points="90.00,132.96 98.48,100.38 106.97,109.33 115.45,119.69 123.94,200.81 132.42,148.38 140.91,283.42 149.39,114.37 157.88,99.86 166.36,96.10 174.85,95.77 183.33,97.37 191.82,99.18 200.30,95.04 208.79,129.15 217.27,95.89 225.76,95.70 234.24,96.50 242.73,96.76 251.21,95.41 259.70,435.83 268.18,434.80 276.67,434.21 285.15,118.77 293.64,135.53 302.12,394.52 310.61,102.15 319.09,170.61 327.58,103.30 336.06,170.68 344.55,146.22 353.03,109.92 361.52,137.63 370.00,116.93 378.48,429.83 386.97,117.10 395.45,118.44 403.94,126.23 412.42,99.02 420.91,135.22 429.39,198.39 437.88,101.86 446.36,168.02 454.85,103.14 463.33,175.08 471.82,127.53 480.30,125.01 488.79,103.28 497.27,109.42 505.76,149.33 514.24,94.80 522.73,94.68 531.21,94.31 539.70,94.31 548.18,94.31 556.67,94.19 565.15,94.43 573.64,94.57 582.12,94.66 590.61,94.26 599.09,94.50 607.58,94.19 616.06,94.52 624.55,95.16 633.03,95.18 641.52,94.71 650.00,94.26 658.48,94.61 666.97,94.54 675.45,94.26 683.94,94.24 692.42,94.50 700.91,94.76 709.39,95.41 717.88,94.99 726.36,94.59 734.85,94.43 743.33,94.61 751.82,94.59 760.30,94.36 768.79,94.38 777.27,94.83 785.76,94.26 794.24,94.57 802.73,94.47 811.21,94.97 819.70,94.59 828.18,94.38 836.67,94.73 845.15,95.18 853.64,94.73 862.12,94.59 870.61,94.80 879.09,94.33 887.58,94.52 896.06,94.17 904.55,94.80 913.03,95.01 921.52,94.40 930.00,95.58"/>
<circle cx="90.00" cy="132.96" r="4.5" fill="#059669" fill-opacity="0.9"/>
<circle cx="98.48" cy="100.38" r="4.5" fill="#059669" fill-opacity="0.9"/>
<circle cx="106.97" cy="109.33" r="4.5" fill="#059669" fill-opacity="0.9"/>
<circle cx="115.45" cy="119.69" r="4.5" fill="#059669" fill-opacity="0.9"/>
<circle cx="123.94" cy="200.81" r="4.5" fill="#059669" fill-opacity="0.9"/>
<circle cx="132.42" cy="148.38" r="4.5" fill="#059669" fill-opacity="0.9"/>
<circle cx="140.91" cy="283.42" r="4.5" fill="#059669" fill-opacity="0.9"/>
<circle cx="149.39" cy="114.37" r="4.5" fill="#059669" fill-opacity="0.9"/>
<circle cx="157.88" cy="99.86" r="4.5" fill="#059669" fill-opacity="0.9"/>
<circle cx="166.36" cy="96.10" r="4.5" fill="#059669" fill-opacity="0.9"/>
<circle cx="174.85" cy="95.77" r="4.5" fill="#059669" fill-opacity="0.9"/>
<circle cx="183.33" cy="97.37" r="4.5" fill="#059669" fill-opacity="0.9"/>
<circle cx="191.82" cy="99.18" r="4.5" fill="#059669" fill-opacity="0.9"/>
<circle cx="200.30" cy="95.04" r="4.5" fill="#059669" fill-opacity="0.9"/>
<circle cx="208.79" cy="129.15" r="4.5" fill="#059669" fill-opacity="0.9"/>
<circle cx="217.27" cy="95.89" r="4.5" fill="#059669" fill-opacity="0.9"/>
<circle cx="225.76" cy="95.70" r="4.5" fill="#059669" fill-opacity="0.9"/>
<circle cx="234.24" cy="96.50" r="4.5" fill="#059669" fill-opacity="0.9"/>
<circle cx="242.73" cy="96.76" r="4.5" fill="#059669" fill-opacity="0.9"/>
<circle cx="251.21" cy="95.41" r="4.5" fill="#059669" fill-opacity="0.9"/>
<circle cx="259.70" cy="435.83" r="4.5" fill="#059669" fill-opacity="0.9"/>
<circle cx="268.18" cy="434.80" r="4.5" fill="#059669" fill-opacity="0.9"/>
<circle cx="276.67" cy="434.21" r="4.5" fill="#059669" fill-opacity="0.9"/>
<circle cx="285.15" cy="118.77" r="4.5" fill="#059669" fill-opacity="0.9"/>
<circle cx="293.64" cy="135.53" r="4.5" fill="#059669" fill-opacity="0.9"/>
<circle cx="302.12" cy="394.52" r="4.5" fill="#059669" fill-opacity="0.9"/>
<circle cx="310.61" cy="102.15" r="4.5" fill="#059669" fill-opacity="0.9"/>
<circle cx="319.09" cy="170.61" r="4.5" fill="#059669" fill-opacity="0.9"/>
<circle cx="327.58" cy="103.30" r="4.5" fill="#059669" fill-opacity="0.9"/>
<circle cx="336.06" cy="170.68" r="4.5" fill="#059669" fill-opacity="0.9"/>
<circle cx="344.55" cy="146.22" r="4.5" fill="#059669" fill-opacity="0.9"/>
<circle cx="353.03" cy="109.92" r="4.5" fill="#059669" fill-opacity="0.9"/>
<circle cx="361.52" cy="137.63" r="4.5" fill="#059669" fill-opacity="0.9"/>
<circle cx="370.00" cy="116.93" r="4.5" fill="#059669" fill-opacity="0.9"/>
<circle cx="378.48" cy="429.83" r="4.5" fill="#059669" fill-opacity="0.9"/>
<circle cx="386.97" cy="117.10" r="4.5" fill="#059669" fill-opacity="0.9"/>
<circle cx="395.45" cy="118.44" r="4.5" fill="#059669" fill-opacity="0.9"/>
<circle cx="403.94" cy="126.23" r="4.5" fill="#059669" fill-opacity="0.9"/>
<circle cx="412.42" cy="99.02" r="4.5" fill="#059669" fill-opacity="0.9"/>
<circle cx="420.91" cy="135.22" r="4.5" fill="#059669" fill-opacity="0.9"/>
<circle cx="429.39" cy="198.39" r="4.5" fill="#059669" fill-opacity="0.9"/>
<circle cx="437.88" cy="101.86" r="4.5" fill="#059669" fill-opacity="0.9"/>
<circle cx="446.36" cy="168.02" r="4.5" fill="#059669" fill-opacity="0.9"/>
<circle cx="454.85" cy="103.14" r="4.5" fill="#059669" fill-opacity="0.9"/>
<circle cx="463.33" cy="175.08" r="4.5" fill="#059669" fill-opacity="0.9"/>
<circle cx="471.82" cy="127.53" r="4.5" fill="#059669" fill-opacity="0.9"/>
<circle cx="480.30" cy="125.01" r="4.5" fill="#059669" fill-opacity="0.9"/>
<circle cx="488.79" cy="103.28" r="4.5" fill="#059669" fill-opacity="0.9"/>
<circle cx="497.27" cy="109.42" r="4.5" fill="#059669" fill-opacity="0.9"/>
<circle cx="505.76" cy="149.33" r="4.5" fill="#059669" fill-opacity="0.9"/>
<circle cx="514.24" cy="94.80" r="4.5" fill="#059669" fill-opacity="0.9"/>
<circle cx="522.73" cy="94.68" r="4.5" fill="#059669" fill-opacity="0.9"/>
<circle cx="531.21" cy="94.31" r="4.5" fill="#059669" fill-opacity="0.9"/>
<circle cx="539.70" cy="94.31" r="4.5" fill="#059669" fill-opacity="0.9"/>
<circle cx="548.18" cy="94.31" r="4.5" fill="#059669" fill-opacity="0.9"/>
<circle cx="556.67" cy="94.19" r="4.5" fill="#059669" fill-opacity="0.9"/>
<circle cx="565.15" cy="94.43" r="4.5" fill="#059669" fill-opacity="0.9"/>
<circle cx="573.64" cy="94.57" r="4.5" fill="#059669" fill-opacity="0.9"/>
<circle cx="582.12" cy="94.66" r="4.5" fill="#059669" fill-opacity="0.9"/>
<circle cx="590.61" cy="94.26" r="4.5" fill="#059669" fill-opacity="0.9"/>
<circle cx="599.09" cy="94.50" r="4.5" fill="#059669" fill-opacity="0.9"/>
<circle cx="607.58" cy="94.19" r="4.5" fill="#059669" fill-opacity="0.9"/>
<circle cx="616.06" cy="94.52" r="4.5" fill="#059669" fill-opacity="0.9"/>
<circle cx="624.55" cy="95.16" r="4.5" fill="#059669" fill-opacity="0.9"/>
<circle cx="633.03" cy="95.18" r="4.5" fill="#059669" fill-opacity="0.9"/>
<circle cx="641.52" cy="94.71" r="4.5" fill="#059669" fill-opacity="0.9"/>
<circle cx="650.00" cy="94.26" r="4.5" fill="#059669" fill-opacity="0.9"/>
<circle cx="658.48" cy="94.61" r="4.5" fill="#059669" fill-opacity="0.9"/>
<circle cx="666.97" cy="94.54" r="4.5" fill="#059669" fill-opacity="0.9"/>
<circle cx="675.45" cy="94.26" r="4.5" fill="#059669" fill-opacity="0.9"/>
<circle cx="683.94" cy="94.24" r="4.5" fill="#059669" fill-opacity="0.9"/>
<circle cx="692.42" cy="94.50" r="4.5" fill="#059669" fill-opacity="0.9"/>
<circle cx="700.91" cy="94.76" r="4.5" fill="#059669" fill-opacity="0.9"/>
<circle cx="709.39" cy="95.41" r="4.5" fill="#059669" fill-opacity="0.9"/>
<circle cx="717.88" cy="94.99" r="4.5" fill="#059669" fill-opacity="0.9"/>
<circle cx="726.36" cy="94.59" r="4.5" fill="#059669" fill-opacity="0.9"/>
<circle cx="734.85" cy="94.43" r="4.5" fill="#059669" fill-opacity="0.9"/>
<circle cx="743.33" cy="94.61" r="4.5" fill="#059669" fill-opacity="0.9"/>
<circle cx="751.82" cy="94.59" r="4.5" fill="#059669" fill-opacity="0.9"/>
<circle cx="760.30" cy="94.36" r="4.5" fill="#059669" fill-opacity="0.9"/>
<circle cx="768.79" cy="94.38" r="4.5" fill="#059669" fill-opacity="0.9"/>
<circle cx="777.27" cy="94.83" r="4.5" fill="#059669" fill-opacity="0.9"/>
<circle cx="785.76" cy="94.26" r="4.5" fill="#059669" fill-opacity="0.9"/>
<circle cx="794.24" cy="94.57" r="4.5" fill="#059669" fill-opacity="0.9"/>
<circle cx="802.73" cy="94.47" r="4.5" fill="#059669" fill-opacity="0.9"/>
<circle cx="811.21" cy="94.97" r="4.5" fill="#059669" fill-opacity="0.9"/>
<circle cx="819.70" cy="94.59" r="4.5" fill="#059669" fill-opacity="0.9"/>
<circle cx="828.18" cy="94.38" r="4.5" fill="#059669" fill-opacity="0.9"/>
<circle cx="836.67" cy="94.73" r="4.5" fill="#059669" fill-opacity="0.9"/>
<circle cx="845.15" cy="95.18" r="4.5" fill="#059669" fill-opacity="0.9"/>
<circle cx="853.64" cy="94.73" r="4.5" fill="#059669" fill-opacity="0.9"/>
<circle cx="862.12" cy="94.59" r="4.5" fill="#059669" fill-opacity="0.9"/>
<circle cx="870.61" cy="94.80" r="4.5" fill="#059669" fill-opacity="0.9"/>
<circle cx="879.09" cy="94.33" r="4.5" fill="#059669" fill-opacity="0.9"/>
<circle cx="887.58" cy="94.52" r="4.5" fill="#059669" fill-opacity="0.9"/>
<circle cx="896.06" cy="94.17" r="4.5" fill="#059669" fill-opacity="0.9"/>
<circle cx="904.55" cy="94.80" r="4.5" fill="#059669" fill-opacity="0.9"/>
<circle cx="913.03" cy="95.01" r="4.5" fill="#059669" fill-opacity="0.9"/>
<circle cx="921.52" cy="94.40" r="4.5" fill="#059669" fill-opacity="0.9"/>
<circle cx="930.00" cy="95.58" r="4.5" fill="#059669" fill-opacity="0.9"/>
<rect x="270" y="32" width="18" height="6" fill="#059669"/>
<text x="294" y="38" font-size="13" fill="#333333">test</text>
</svg>