<svg xmlns="http://www.w3.org/2000/svg" width="960" height="540">
<rect width="100%" height="100%" fill="#ffffff"/>
<text x="480.0" y="30" font-size="22" text-anchor="middle" fill="#111111">Sequence Accuracy</text>
<text x="20" y="270.0" font-size="16" transform="rotate(-90 20,270.0)" text-anchor="middle" fill="#333333">Accuracy</text>
<text x="480.0" y="520" font-size="16" text-anchor="middle" fill="#333333">Epoch</text>
<line x1="90" y1="60" x2="90" y2="470" stroke="#333333" stroke-width="2"/>
<line x1="90" y1="470" x2="930" y2="470" stroke="#333333" stroke-width="2"/>
<line x1="90" y1="470.00" x2="930" y2="470.00" stroke="#e5e7eb" stroke-width="1"/>
<text x="80" y="475.00" font-size="12" text-anchor="end" fill="#555555">-0.0963</text>
<line x1="90" y1="367.50" x2="930" y2="367.50" stroke="#e5e7eb" stroke-width="1"/>
<text x="80" y="372.50" font-size="12" text-anchor="end" fill="#555555">0.1926</text>
<line x1="90" y1="265.00" x2="930" y2="265.00" stroke="#e5e7eb" stroke-width="1"/>
<text x="80" y="270.00" font-size="12" text-anchor="end" fill="#555555">0.4814</text>
<line x1="90" y1="162.50" x2="930" y2="162.50" stroke="#e5e7eb" stroke-width="1"/>
<text x="80" y="167.50" font-size="12" text-anchor="end" fill="#555555">0.7702</text>
<line x1="90" y1="60.00" x2="930" y2="60.00" stroke="#e5e7eb" stroke-width="1"/>
<text x="80" y="65.00" font-size="12" text-anchor="end" fill="#555555">1.0591</text>
<line x1="90.00" y1="60" x2="90.00" y2="470" stroke="#f3f4f6" stroke-width="1"/>
<text x="90.00" y="492" font-size="12" text-anchor="middle" fill="#555555">1</text>
<line x1="98.48" y1="60" x2="98.48" y2="470" stroke="#f3f4f6" stroke-width="1"/>
<text x="98.48" y="492" font-size="12" text-anchor="middle" fill="#555555">2</text>
<line x1="106.97" y1="60" x2="106.97" y2="470" stroke="#f3f4f6" stroke-width="1"/>
<text x="106.97" y="492" font-size="12" text-anchor="middle" fill="#555555">3</text>
<line x1="115.45" y1="60" x2="115.45" y2="470" stroke="#f3f4f6" stroke-width="1"/>
<text x="115.45" y="492" font-size="12" text-anchor="middle" fill="#555555">4</text>
<line x1="123.94" y1="60" x2="123.94" y2="470" stroke="#f3f4f6" stroke-width="1"/>
<text x="123.94" y="492" font-size="12" text-anchor="middle" fill="#555555">5</text>
<line x1="132.42" y1="60" x2="132.42" y2="470" stroke="#f3f4f6" stroke-width="1"/>
<text x="132.42" y="492" font-size="12" text-anchor="middle" fill="#555555">6</text>
<line x1="140.91" y1="60" x2="140.91" y2="470" stroke="#f3f4f6" stroke-width="1"/>
<text x="140.91" y="492" font-size="12" text-anchor="middle" fill="#555555">7</text>
<line x1="149.39" y1="60" x2="149.39" y2="470" stroke="#f3f4f6" stroke-width="1"/>
<text x="149.39" y="492" font-size="12" text-anchor="middle" fill="#555555">8</text>
<line x1="157.88" y1="60" x2="157.88" y2="470" stroke="#f3f4f6" stroke-width="1"/>
<text x="157.88" y="492" font-size="12" text-anchor="middle" fill="#555555">9</text>
<line x1="166.36" y1="60" x2="166.36" y2="470" stroke="#f3f4f6" stroke-width="1"/>
<text x="166.36" y="492" font-size="12" text-anchor="middle" fill="#555555">10</text>
<line x1="174.85" y1="60" x2="174.85" y2="470" stroke="#f3f4f6" stroke-width="1"/>
<text x="174.85" y="492" font-size="12" text-anchor="middle" fill="#555555">11</text>
<line x1="183.33" y1="60" x2="183.33" y2="470" stroke="#f3f4f6" stroke-width="1"/>
<text x="183.33" y="492" font-size="12" text-anchor="middle" fill="#555555">12</text>
<line x1="191.82" y1="60" x2="191.82" y2="470" stroke="#f3f4f6" stroke-width="1"/>
<text x="191.82" y="492" font-size="12" text-anchor="middle" fill="#555555">13</text>
<line x1="200.30" y1="60" x2="200.30" y2="470" stroke="#f3f4f6" stroke-width="1"/>
<text x="200.30" y="492" font-size="12" text-anchor="middle" fill="#555555">14</text>
<line x1="208.79" y1="60" x2="208.79" y2="470" stroke="#f3f4f6" stroke-width="1"/>
<text x="208.79" y="492" font-size="12" text-anchor="middle" fill="#555555">15</text>
<line x1="217.27" y1="60" x2="217.27" y2="470" stroke="#f3f4f6" stroke-width="1"/>
<text x="217.27" y="492" font-size="12" text-anchor="middle" fill="#555555">16</text>
<line x1="225.76" y1="60" x2="225.76" y2="470" stroke="#f3f4f6" stroke-width="1"/>
<text x="225.76" y="492" font-size="12" text-anchor="middle" fill="#555555">17</text>
<line x1="234.24" y1="60" x2="234.24" y2="470" stroke="#f3f4f6" stroke-width="1"/>
<text x="234.24" y="492" font-size="12" text-anchor="middle" fill="#555555">18</text>
<line x1="242.73" y1="60" x2="242.73" y2="470" stroke="#f3f4f6" stroke-width="1"/>
<text x="242.73" y="492" font-size="12" text-anchor="middle" fill="#555555">19</text>
<line x1="251.21" y1="60" x2="251.21" y2="470" stroke="#f3f4f6" stroke-width="1"/>
<text x="251.21" y="492" font-size="12" text-anchor="middle" fill="#555555">20</text>
<line x1="259.70" y1="60" x2="259.70" y2="470" stroke="#f3f4f6" stroke-width="1"/>
<text x="259.70" y="492" font-size="12" text-anchor="middle" fill="#555555">21</text>
<line x1="268.18" y1="60" x2="268.18" y2="470" stroke="#f3f4f6" stroke-width="1"/>
<text x="268.18" y="492" font-size="12" text-anchor="middle" fill="#555555">22</text>
<line x1="276.67" y1="60" x2="276.67" y2="470" stroke="#f3f4f6" stroke-width="1"/>
<text x="276.67" y="492" font-size="12" text-anchor="middle" fill="#555555">23</text>
<line x1="285.15" y1="60" x2="285.15" y2="470" stroke="#f3f4f6" stroke-width="1"/>
<text x="285.15" y="492" font-size="12" text-anchor="middle" fill="#555555">24</text>
<line x1="293.64" y1="60" x2="293.64" y2="470" stroke="#f3f4f6" stroke-width="1"/>
<text x="293.64" y="492" font-size="12" text-anchor="middle" fill="#555555">25</text>
<line x1="302.12" y1="60" x2="302.12" y2="470" stroke="#f3f4f6" stroke-width="1"/>
<text x="302.12" y="492" font-size="12" text-anchor="middle" fill="#555555">26</text>
<line x1="310.61" y1="60" x2="310.61" y2="470" stroke="#f3f4f6" stroke-width="1"/>
<text x="310.61" y="492" font-size="12" text-anchor="middle" fill="#555555">27</text>
<line x1="319.09" y1="60" x2="319.09" y2="470" stroke="#f3f4f6" stroke-width="1"/>
<text x="319.09" y="492" font-size="12" text-anchor="middle" fill="#555555">28</text>
<line x1="327.58" y1="60" x2="327.58" y2="470" stroke="#f3f4f6" stroke-width="1"/>
<text x="327.58" y="492" font-size="12" text-anchor="middle" fill="#555555">29</text>
<line x1="336.06" y1="60" x2="336.06" y2="470" stroke="#f3f4f6" stroke-width="1"/>
<text x="336.06" y="492" font-size="12" text-anchor="middle" fill="#555555">30</text>
<line x1="344.55" y1="60" x2="344.55" y2="470" stroke="#f3f4f6" stroke-width="1"/>
<text x="344.55" y="492" font-size="12" text-anchor="middle" fill="#555555">31</text>
<line x1="353.03" y1="60" x2="353.03" y2="470" stroke="#f3f4f6" stroke-width="1"/>
<text x="353.03" y="492" font-size="12" text-anchor="middle" fill="#555555">32</text>
<line x1="361.52" y1="60" x2="361.52" y2="470" stroke="#f3f4f6" stroke-width="1"/>
<text x="361.52" y="492" font-size="12" text-anchor="middle" fill="#555555">33</text>
<line x1="370.00" y1="60" x2="370.00" y2="470" stroke="#f3f4f6" stroke-width="1"/>
<text x="370.00" y="492" font-size="12" text-anchor="middle" fill="#555555">34</text>
<line x1="378.48" y1="60" x2="378.48" y2="470" stroke="#f3f4f6" stroke-width="1"/>
<text x="378.48" y="492" font-size="12" text-anchor="middle" fill="#555555">35</text>
<line x1="386.97" y1="60" x2="386.97" y2="470" stroke="#f3f4f6" stroke-width="1"/>
<text x="386.97" y="492" font-size="12" text-anchor="middle" fill="#555555">36</text>
<line x1="395.45" y1="60" x2="395.45" y2="470" stroke="#f3f4f6" stroke-width="1"/>
<text x="395.45" y="492" font-size="12" text-anchor="middle" fill="#555555">37</text>
<line x1="403.94" y1="60" x2="403.94" y2="470" stroke="#f3f4f6" stroke-width="1"/>
<text x="403.94" y="492" font-size="12" text-anchor="middle" fill="#555555">38</text>
<line x1="412.42" y1="60" x2="412.42" y2="470" stroke="#f3f4f6" stroke-width="1"/>
<text x="412.42" y="492" font-size="12" text-anchor="middle" fill="#555555">39</text>
<line x1="420.91" y1="60" x2="420.91" y2="470" stroke="#f3f4f6" stroke-width="1"/>
<text x="420.91" y="492" font-size="12" text-anchor="middle" fill="#555555">40</text>
<line x1="429.39" y1="60" x2="429.39" y2="470" stroke="#f3f4f6" stroke-width="1"/>
<text x="429.39" y="492" font-size="12" text-anchor="middle" fill="#555555">41</text>
<line x1="437.88" y1="60" x2="437.88" y2="470" stroke="#f3f4f6" stroke-width="1"/>
<text x="437.88" y="492" font-size="12" text-anchor="middle" fill="#555555">42</text>
<line x1="446.36" y1="60" x2="446.36" y2="470" stroke="#f3f4f6" stroke-width="1"/>
<text x="446.36" y="492" font-size="12" text-anchor="middle" fill="#555555">43</text>
<line x1="454.85" y1="60" x2="454.85" y2="470" stroke="#f3f4f6" stroke-width="1"/>
<text x="454.85" y="492" font-size="12" text-anchor="middle" fill="#555555">44</text>
<line x1="463.33" y1="60" x2="463.33" y2="470" stroke="#f3f4f6" stroke-width="1"/>
<text x="463.33" y="492" font-size="12" text-anchor="middle" fill="#555555">45</text>
<line x1="471.82" y1="60" x2="471.82" y2="470" stroke="#f3f4f6" stroke-width="1"/>
<text x="471.82" y="492" font-size="12" text-anchor="middle" fill="#555555">46</text>
<line x1="480.30" y1="60" x2="480.30" y2="470" stroke="#f3f4f6" stroke-width="1"/>
<text x="480.30" y="492" font-size="12" text-anchor="middle" fill="#555555">47</text>
<line x1="488.79" y1="60" x2="488.79" y2="470" stroke="#f3f4f6" stroke-width="1"/>
<text x="488.79" y="492" font-size="12" text-anchor="middle" fill="#555555">48</text>
<line x1="497.27" y1="60" x2="497.27" y2="470" stroke="#f3f4f6" stroke-width="1"/>
<text x="497.27" y="492" font-size="12" text-anchor="middle" fill="#555555">49</text>
<line x1="505.76" y1="60" x2="505.76" y2="470" stroke="#f3f4f6" stroke-width="1"/>
<text x="505.76" y="492" font-size="12" text-anchor="middle" fill="#555555">50</text>
<line x1="514.24" y1="60" x2="514.24" y2="470" stroke="#f3f4f6" stroke-width="1"/>
<text x="514.24" y="492" font-size="12" text-anchor="middle" fill="#555555">51</text>
<line x1="522.73" y1="60" x2="522.73" y2="470" stroke="#f3f4f6" stroke-width="1"/>
<text x="522.73" y="492" font-size="12" text-anchor="middle" fill="#555555">52</text>
<line x1="531.21" y1="60" x2="531.21" y2="470" stroke="#f3f4f6" stroke-width="1"/>
<text x="531.21" y="492" font-size="12" text-anchor="middle" fill="#555555">53</text>
<line x1="539.70" y1="60" x2="539.70" y2="470" stroke="#f3f4f6" stroke-width="1"/>
<text x="539.70" y="492" font-size="12" text-anchor="middle" fill="#555555">54</text>
<line x1="548.18" y1="60" x2="548.18" y2="470" stroke="#f3f4f6" stroke-width="1"/>
<text x="548.18" y="492" font-size="12" text-anchor="middle" fill="#555555">55</text>
<line x1="556.67" y1="60" x2="556.67" y2="470" stroke="#f3f4f6" stroke-width="1"/>
<text x="556.67" y="492" font-size="12" text-anchor="middle" fill="#555555">56</text>
<line x1="565.15" y1="60" x2="565.15" y2="470" stroke="#f3f4f6" stroke-width="1"/>
<text x="565.15" y="492" font-size="12" text-anchor="middle" fill="#555555">57</text>
<line x1="573.64" y1="60" x2="573.64" y2="470" stroke="#f3f4f6" stroke-width="1"/>
<text x="573.64" y="492" font-size="12" text-anchor="middle" fill="#555555">58</text>
<line x1="582.12" y1="60" x2="582.12" y2="470" stroke="#f3f4f6" stroke-width="1"/>
<text x="582.12" y="492" font-size="12" text-anchor="middle" fill="#555555">59</text>
<line x1="590.61" y1="60" x2="590.61" y2="470" stroke="#f3f4f6" stroke-width="1"/>
<text x="590.61" y="492" font-size="12" text-anchor="middle" fill="#555555">60</text>
<line x1="599.09" y1="60" x2="599.09" y2="470" stroke="#f3f4f6" stroke-width="1"/>
<text x="599.09" y="492" font-size="12" text-anchor="middle" fill="#555555">61</text>
<line x1="607.58" y1="60" x2="607.58" y2="470" stroke="#f3f4f6" stroke-width="1"/>
<text x="607.58" y="492" font-size="12" text-anchor="middle" fill="#555555">62</text>
<line x1="616.06" y1="60" x2="616.06" y2="470" stroke="#f3f4f6" stroke-width="1"/>
<text x="616.06" y="492" font-size="12" text-anchor="middle" fill="#555555">63</text>
<line x1="624.55" y1="60" x2="624.55" y2="470" stroke="#f3f4f6" stroke-width="1"/>
<text x="624.55" y="492" font-size="12" text-anchor="middle" fill="#555555">64</text>
<line x1="633.03" y1="60" x2="633.03" y2="470" stroke="#f3f4f6" stroke-width="1"/>
<text x="633.03" y="492" font-size="12" text-anchor="middle" fill="#555555">65</text>
<line x1="641.52" y1="60" x2="641.52" y2="470" stroke="#f3f4f6" stroke-width="1"/>
<text x="641.52" y="492" font-size="12" text-anchor="middle" fill="#555555">66</text>
<line x1="650.00" y1="60" x2="650.00" y2="470" stroke="#f3f4f6" stroke-width="1"/>
<text x="650.00" y="492" font-size="12" text-anchor="middle" fill="#555555">67</text>
<line x1="658.48" y1="60" x2="658.48" y2="470" stroke="#f3f4f6" stroke-width="1"/>
<text x="658.48" y="492" font-size="12" text-anchor="middle" fill="#555555">68</text>
<line x1="666.97" y1="60" x2="666.97" y2="470" stroke="#f3f4f6" stroke-width="1"/>
<text x="666.97" y="492" font-size="12" text-anchor="middle" fill="#555555">69</text>
<line x1="675.45" y1="60" x2="675.45" y2="470" stroke="#f3f4f6" stroke-width="1"/>
<text x="675.45" y="492" font-size="12" text-anchor="middle" fill="#555555">70</text>
<line x1="683.94" y1="60" x2="683.94" y2="470" stroke="#f3f4f6" stroke-width="1"/>
<text x="683.94" y="492" font-size="12" text-anchor="middle" fill="#555555">71</text>
<line x1="692.42" y1="60" x2="692.42" y2="470" stroke="#f3f4f6" stroke-width="1"/>
<text x="692.42" y="492" font-size="12" text-anchor="middle" fill="#555555">72</text>
<line x1="700.91" y1="60" x2="700.91" y2="470" stroke="#f3f4f6" stroke-width="1"/>
<text x="700.91" y="492" font-size="12" text-anchor="middle" fill="#555555">73</text>
<line x1="709.39" y1="60" x2="709.39" y2="470" stroke="#f3f4f6" stroke-width="1"/>
<text x="709.39" y="492" font-size="12" text-anchor="middle" fill="#555555">74</text>
<line x1="717.88" y1="60" x2="717.88" y2="470" stroke="#f3f4f6" stroke-width="1"/>
<text x="717.88" y="492" font-size="12" text-anchor="middle" fill="#555555">75</text>
<line x1="726.36" y1="60" x2="726.36" y2="470" stroke="#f3f4f6" stroke-width="1"/>
<text x="726.36" y="492" font-size="12" text-anchor="middle" fill="#555555">76</text>
<line x1="734.85" y1="60" x2="734.85" y2="470" stroke="#f3f4f6" stroke-width="1"/>
<text x="734.85" y="492" font-size="12" text-anchor="middle" fill="#555555">77</text>
<line x1="743.33" y1="60" x2="743.33" y2="470" stroke="#f3f4f6" stroke-width="1"/>
<text x="743.33" y="492" font-size="12" text-anchor="middle" fill="#555555">78</text>
<line x1="751.82" y1="60" x2="751.82" y2="470" stroke="#f3f4f6" stroke-width="1"/>
<text x="751.82" y="492" font-size="12" text-anchor="middle" fill="#555555">79</text>
<line x1="760.30" y1="60" x2="760.30" y2="470" stroke="#f3f4f6" stroke-width="1"/>
<text x="760.30" y="492" font-size="12" text-anchor="middle" fill="#555555">80</text>
<line x1="768.79" y1="60" x2="768.79" y2="470" stroke="#f3f4f6" stroke-width="1"/>
<text x="768.79" y="492" font-size="12" text-anchor="middle" fill="#555555">81</text>
<line x1="777.27" y1="60" x2="777.27" y2="470" stroke="#f3f4f6" stroke-width="1"/>
<text x="777.27" y="492" font-size="12" text-anchor="middle" fill="#555555">82</text>
<line x1="785.76" y1="60" x2="785.76" y2="470" stroke="#f3f4f6" stroke-width="1"/>
<text x="785.76" y="492" font-size="12" text-anchor="middle" fill="#555555">83</text>
<line x1="794.24" y1="60" x2="794.24" y2="470" stroke="#f3f4f6" stroke-width="1"/>
<text x="794.24" y="492" font-size="12" text-anchor="middle" fill="#555555">84</text>
<line x1="802.73" y1="60" x2="802.73" y2="470" stroke="#f3f4f6" stroke-width="1"/>
<text x="802.73" y="492" font-size="12" text-anchor="middle" fill="#555555">85</text>
<line x1="811.21" y1="60" x2="811.21" y2="470" stroke="#f3f4f6" stroke-width="1"/>
<text x="811.21" y="492" font-size="12" text-anchor="middle" fill="#555555">86</text>
<line x1="819.70" y1="60" x2="819.70" y2="470" stroke="#f3f4f6" stroke-width="1"/>
<text x="819.70" y="492" font-size="12" text-anchor="middle" fill="#555555">87</text>
<line x1="828.18" y1="60" x2="828.18" y2="470" stroke="#f3f4f6" stroke-width="1"/>
<text x="828.18" y="492" font-size="12" text-anchor="middle" fill="#555555">88</text>
<line x1="836.67" y1="60" x2="836.67" y2="470" stroke="#f3f4f6" stroke-width="1"/>
<text x="836.67" y="492" font-size="12" text-anchor="middle" fill="#555555">89</text>
<line x1="845.15" y1="60" x2="845.15" y2="470" stroke="#f3f4f6" stroke-width="1"/>
<text x="845.15" y="492" font-size="12" text-anchor="middle" fill="#555555">90</text>
<line x1="853.64" y1="60" x2="853.64" y2="470" stroke="#f3f4f6" stroke-width="1"/>
<text x="853.64" y="492" font-size="12" text-anchor="middle" fill="#555555">91</text>
<line x1="862.12" y1="60" x2="862.12" y2="470" stroke="#f3f4f6" stroke-width="1"/>
<text x="862.12" y="492" font-size="12" text-anchor="middle" fill="#555555">92</text>
<line x1="870.61" y1="60" x2="870.61" y2="470" stroke="#f3f4f6" stroke-width="1"/>
<text x="870.61" y="492" font-size="12" text-anchor="middle" fill="#555555">93</text>
<line x1="879.09" y1="60" x2="879.09" y2="470" stroke="#f3f4f6" stroke-width="1"/>
<text x="879.09" y="492" font-size="12" text-anchor="middle" fill="#555555">94</text>
<line x1="887.58" y1="60" x2="887.58" y2="470" stroke="#f3f4f6" stroke-width="1"/>
<text x="887.58" y="492" font-size="12" text-anchor="middle" fill="#555555">95</text>
<line x1="896.06" y1="60" x2="896.06" y2="470" stroke="#f3f4f6" stroke-width="1"/>
<text x="896.06" y="492" font-size="12" text-anchor="middle" fill="#555555">96</text>
<line x1="904.55" y1="60" x2="904.55" y2="470" stroke="#f3f4f6" stroke-width="1"/>
<text x="904.55" y="492" font-size="12" text-anchor="middle" fill="#555555">97</text>
<line x1="913.03" y1="60" x2="913.03" y2="470" stroke="#f3f4f6" stroke-width="1"/>
<text x="913.03" y="492" font-size="12" text-anchor="middle" fill="#555555">98</text>
<line x1="921.52" y1="60" x2="921.52" y2="470" stroke="#f3f4f6" stroke-width="1"/>
<text x="921.52" y="492" font-size="12" text-anchor="middle" fill="#555555">99</text>
<line x1="930.00" y1="60" x2="930.00" y2="470" stroke="#f3f4f6" stroke-width="1"/>
<text x="930.00" y="492" font-size="12" text-anchor="middle" fill="#555555">100</text>
<polyline fill="none" stroke="#d97706" stroke-width="3" points="90.00,261.26 98.48,135.19 106.97,158.61 115.45,193.79 123.94,342.43 132.42,258.19 140.91,417.26 149.39,163.15 157.88,114.91 166.36,105.62 174.85,105.85 183.33,110.32 191.82,115.77 200.30,101.55 208.79,254.09 217.27,104.98 225.76,102.35 234.24,101.50 242.73,107.25 251.21,105.14 259.70,435.83 268.18,435.83 276.67,435.83 285.15,196.39 293.64,263.34 302.12,435.83 310.61,133.08 319.09,320.41 327.58,140.16 336.06,332.14 344.55,224.97 353.03,162.32 361.52,253.10 370.00,203.92 378.48,424.88 386.97,207.75 395.45,206.09 403.94,242.50 412.42,126.20 420.91,278.34 429.39,317.35 437.88,133.86 446.36,315.91 454.85,136.02 463.33,361.71 471.82,194.97 480.30,217.31 488.79,134.15 497.27,192.82 505.76,302.12 514.24,99.16 522.73,98.05 531.21,96.18 539.70,95.87 548.18,95.30 556.67,96.15 565.15,95.89 573.64,96.98 582.12,97.01 590.61,94.90 599.09,95.61 607.58,95.54 616.06,95.25 624.55,99.47 633.03,98.66 641.52,96.25 650.00,94.31 658.48,97.55 666.97,96.32 675.45,95.40 683.94,95.33 692.42,95.70 700.91,97.79 709.39,97.19 717.88,95.37 726.36,95.04 734.85,95.70 743.33,95.73 751.82,95.35 760.30,95.14 768.79,95.47 777.27,97.05 785.76,95.33 794.24,96.63 802.73,96.60 811.21,97.88 819.70,96.60 828.18,95.33 836.67,96.58 845.15,100.06 853.64,96.58 862.12,96.25 870.61,98.14 879.09,96.18 887.58,95.70 896.06,95.07 904.55,97.48 913.03,97.88 921.52,96.34 930.00,100.34"/>
<circle cx="90.00" cy="261.26" r="4.5" fill="#d97706" fill-opacity="0.9"/>
<circle cx="98.48" cy="135.19" r="4.5" fill="#d97706" fill-opacity="0.9"/>
<circle cx="106.97" cy="158.61" r="4.5" fill="#d97706" fill-opacity="0.9"/>
<circle cx="115.45" cy="193.79" r="4.5" fill="#d97706" fill-opacity="0.9"/>
<circle cx="123.94" cy="342.43" r="4.5" fill="#d97706" fill-opacity="0.9"/>
<circle cx="132.42" cy="258.19" r="4.5" fill="#d97706" fill-opacity="0.9"/>
<circle cx="140.91" cy="417.26" r="4.5" fill="#d97706" fill-opacity="0.9"/>
<circle cx="149.39" cy="163.15" r="4.5" fill="#d97706" fill-opacity="0.9"/>
<circle cx="157.88" cy="114.91" r="4.5" fill="#d97706" fill-opacity="0.9"/>
<circle cx="166.36" cy="105.62" r="4.5" fill="#d97706" fill-opacity="0.9"/>
<circle cx="174.85" cy="105.85" r="4.5" fill="#d97706" fill-opacity="0.9"/>
<circle cx="183.33" cy="110.32" r="4.5" fill="#d97706" fill-opacity="0.9"/>
<circle cx="191.82" cy="115.77" r="4.5" fill="#d97706" fill-opacity="0.9"/>
<circle cx="200.30" cy="101.55" r="4.5" fill="#d97706" fill-opacity="0.9"/>
<circle cx="208.79" cy="254.09" r="4.5" fill="#d97706" fill-opacity="0.9"/>
<circle cx="217.27" cy="104.98" r="4.5" fill="#d97706" fill-opacity="0.9"/>
<circle cx="225.76" cy="102.35" r="4.5" fill="#d97706" fill-opacity="0.9"/>
<circle cx="234.24" cy="101.50" r="4.5" fill="#d97706" fill-opacity="0.9"/>
<circle cx="242.73" cy="107.25" r="4.5" fill="#d97706" fill-opacity="0.9"/>
<circle cx="251.21" cy="105.14" r="4.5" fill="#d97706" fill-opacity="0.9"/>
<circle cx="259.70" cy="435.83" r="4.5" fill="#d97706" fill-opacity="0.9"/>
<circle cx="268.18" cy="435.83" r="4.5" fill="#d97706" fill-opacity="0.9"/>
<circle cx="276.67" cy="435.83" r="4.5" fill="#d97706" fill-opacity="0.9"/>
<circle cx="285.15" cy="196.39" r="4.5" fill="#d97706" fill-opacity="0.9"/>
<circle cx="293.64" cy="263.34" r="4.5" fill="#d97706" fill-opacity="0.9"/>
<circle cx="302.12" cy="435.83" r="4.5" fill="#d97706" fill-opacity="0.9"/>
<circle cx="310.61" cy="133.08" r="4.5" fill="#d97706" fill-opacity="0.9"/>
<circle cx="319.09" cy="320.41" r="4.5" fill="#d97706" fill-opacity="0.9"/>
<circle cx="327.58" cy="140.16" r="4.5" fill="#d97706" fill-opacity="0.9"/>
<circle cx="336.06" cy="332.14" r="4.5" fill="#d97706" fill-opacity="0.9"/>
<circle cx="344.55" cy="224.97" r="4.5" fill="#d97706" fill-opacity="0.9"/>
<circle cx="353.03" cy="162.32" r="4.5" fill="#d97706" fill-opacity="0.9"/>
<circle cx="361.52" cy="253.10" r="4.5" fill="#d97706" fill-opacity="0.9"/>
<circle cx="370.00" cy="203.92" r="4.5" fill="#d97706" fill-opacity="0.9"/>
<circle cx="378.48" cy="424.88" r="4.5" fill="#d97706" fill-opacity="0.9"/>
<circle cx="386.97" cy="207.75" r="4.5" fill="#d97706" fill-opacity="0.9"/>
<circle cx="395.45" cy="206.09" r="4.5" fill="#d97706" fill-opacity="0.9"/>
<circle cx="403.94" cy="242.50" r="4.5" fill="#d97706" fill-opacity="0.9"/>
<circle cx="412.42" cy="126.20" r="4.5" fill="#d97706" fill-opacity="0.9"/>
<circle cx="420.91" cy="278.34" r="4.5" fill="#d97706" fill-opacity="0.9"/>
<circle cx="429.39" cy="317.35" r="4.5" fill="#d97706" fill-opacity="0.9"/>
<circle cx="437.88" cy="133.86" r="4.5" fill="#d97706" fill-opacity="0.9"/>
<circle cx="446.36" cy="315.91" r="4.5" fill="#d97706" fill-opacity="0.9"/>
<circle cx="454.85" cy="136.02" r="4.5" fill="#d97706" fill-opacity="0.9"/>
<circle cx="463.33" cy="361.71" r="4.5" fill="#d97706" fill-opacity="0.9"/>
<circle cx="471.82" cy="194.97" r="4.5" fill="#d97706" fill-opacity="0.9"/>
<circle cx="480.30" cy="217.31" r="4.5" fill="#d97706" fill-opacity="0.9"/>
<circle cx="488.79" cy="134.15" r="4.5" fill="#d97706" fill-opacity="0.9"/>
<circle cx="497.27" cy="192.82" r="4.5" fill="#d97706" fill-opacity="0.9"/>
<circle cx="505.76" cy="302.12" r="4.5" fill="#d97706" fill-opacity="0.9"/>
<circle cx="514.24" cy="99.16" r="4.5" fill="#d97706" fill-opacity="0.9"/>
<circle cx="522.73" cy="98.05" r="4.5" fill="#d97706" fill-opacity="0.9"/>
<circle cx="531.21" cy="96.18" r="4.5" fill="#d97706" fill-opacity="0.9"/>
<circle cx="539.70" cy="95.87" r="4.5" fill="#d97706" fill-opacity="0.9"/>
<circle cx="548.18" cy="95.30" r="4.5" fill="#d97706" fill-opacity="0.9"/>
<circle cx="556.67" cy="96.15" r="4.5" fill="#d97706" fill-opacity="0.9"/>
<circle cx="565.15" cy="95.89" r="4.5" fill="#d97706" fill-opacity="0.9"/>
<circle cx="573.64" cy="96.98" r="4.5" fill="#d97706" fill-opacity="0.9"/>
<circle cx="582.12" cy="97.01" r="4.5" fill="#d97706" fill-opacity="0.9"/>
<circle cx="590.61" cy="94.90" r="4.5" fill="#d97706" fill-opacity="0.9"/>
<circle cx="599.09" cy="95.61" r="4.5" fill="#d97706" fill-opacity="0.9"/>
<circle cx="607.58" cy="95.54" r="4.5" fill="#d97706" fill-opacity="0.9"/>
<circle cx="616.06" cy="95.25" r="4.5" fill="#d97706" fill-opacity="0.9"/>
<circle cx="624.55" cy="99.47" r="4.5" fill="#d97706" fill-opacity="0.9"/>
<circle cx="633.03" cy="98.66" r="4.5" fill="#d97706" fill-opacity="0.9"/>
<circle cx="641.52" cy="96.25" r="4.5" fill="#d97706" fill-opacity="0.9"/>
<circle cx="650.00" cy="94.31" r="4.5" fill="#d97706" fill-opacity="0.9"/>
<circle cx="658.48" cy="97.55" r="4.5" fill="#d97706" fill-opacity="0.9"/>
<circle cx="666.97" cy="96.32" r="4.5" fill="#d97706" fill-opacity="0.9"/>
<circle cx="675.45" cy="95.40" r="4.5" fill="#d97706" fill-opacity="0.9"/>
<circle cx="683.94" cy="95.33" r="4.5" fill="#d97706" fill-opacity="0.9"/>
<circle cx="692.42" cy="95.70" r="4.5" fill="#d97706" fill-opacity="0.9"/>
<circle cx="700.91" cy="97.79" r="4.5" fill="#d97706" fill-opacity="0.9"/>
<circle cx="709.39" cy="97.19" r="4.5" fill="#d97706" fill-opacity="0.9"/>
<circle cx="717.88" cy="95.37" r="4.5" fill="#d97706" fill-opacity="0.9"/>
<circle cx="726.36" cy="95.04" r="4.5" fill="#d97706" fill-opacity="0.9"/>
<circle cx="734.85" cy="95.70" r="4.5" fill="#d97706" fill-opacity="0.9"/>
<circle cx="743.33" cy="95.73" r="4.5" fill="#d97706" fill-opacity="0.9"/>
<circle cx="751.82" cy="95.35" r="4.5" fill="#d97706" fill-opacity="0.9"/>
<circle cx="760.30" cy="95.14" r="4.5" fill="#d97706" fill-opacity="0.9"/>
<circle cx="768.79" cy="95.47" r="4.5" fill="#d97706" fill-opacity="0.9"/>
<circle cx="777.27" cy="97.05" r="4.5" fill="#d97706" fill-opacity="0.9"/>
<circle cx="785.76" cy="95.33" r="4.5" fill="#d97706" fill-opacity="0.9"/>
<circle cx="794.24" cy="96.63" r="4.5" fill="#d97706" fill-opacity="0.9"/>
<circle cx="802.73" cy="96.60" r="4.5" fill="#d97706" fill-opacity="0.9"/>
<circle cx="811.21" cy="97.88" r="4.5" fill="#d97706" fill-opacity="0.9"/>
<circle cx="819.70" cy="96.60" r="4.5" fill="#d97706" fill-opacity="0.9"/>
<circle cx="828.18" cy="95.33" r="4.5" fill="#d97706" fill-opacity="0.9"/>
<circle cx="836.67" cy="96.58" r="4.5" fill="#d97706" fill-opacity="0.9"/>
<circle cx="845.15" cy="100.06" r="4.5" fill="#d97706" fill-opacity="0.9"/>
<circle cx="853.64" cy="96.58" r="4.5" fill="#d97706" fill-opacity="0.9"/>
<circle cx="862.12" cy="96.25" r="4.5" fill="#d97706" fill-opacity="0.9"/>
<circle cx="870.61" cy="98.14" r="4.5" fill="#d97706" fill-opacity="0.9"/>
<circle cx="879.09" cy="96.18" r="4.5" fill="#d97706" fill-opacity="0.9"/>
<circle cx="887.58" cy="95.70" r="4.5" fill="#d97706" fill-opacity="0.9"/>
<circle cx="896.06" cy="95.07" r="4.5" fill="#d97706" fill-opacity="0.9"/>
<circle cx="904.55" cy="97.48" r="4.5" fill="#d97706" fill-opacity="0.9"/>
<circle cx="913.03" cy="97.88" r="4.5" fill="#d97706" fill-opacity="0.9"/>
<circle cx="921.52" cy="96.34" r="4.5" fill="#d97706" fill-opacity="0.9"/>
<circle cx="930.00" cy="100.34" r="4.5" fill="#d97706" fill-opacity="0.9"/>
<rect x="90" y="32" width="18" height="6" fill="#d97706"/>
<text x="114" y="38" font-size="13" fill="#333333">val</text>
<polyline fill="none" stroke="#059669" stroke-width="3" points="90.00,263.58 98.48,135.76 106.97,160.01 115.45,192.32 123.94,342.86 132.42,257.26 140.91,417.83 149.39,163.37 157.88,115.60 166.36,104.60 174.85,106.18 183.33,111.20 191.82,117.40 200.30,101.83 208.79,258.26 217.27,105.07 225.76,102.57 234.24,102.09 242.73,107.32 251.21,104.55 259.70,435.83 268.18,435.83 276.67,435.83 285.15,196.25 293.64,265.26 302.12,435.83 310.61,135.47 319.09,321.68 327.58,140.11 336.06,331.79 344.55,227.12 353.03,165.73 361.52,255.39 370.00,206.12 378.48,425.57 386.97,207.44 395.45,207.23 403.94,240.25 412.42,127.57 420.91,278.89 429.39,317.12 437.88,134.88 446.36,316.12 454.85,137.29 463.33,362.61 471.82,194.62 480.30,219.46 488.79,136.66 497.27,197.10 505.76,304.22 514.24,98.99 522.73,96.77 531.21,94.43 539.70,95.68 548.18,94.59 556.67,94.76 565.15,95.44 573.64,96.15 582.12,96.91 590.61,94.17 599.09,95.49 607.58,95.68 616.06,95.04 624.55,99.37 633.03,98.78 641.52,95.40 650.00,94.38 658.48,96.44 666.97,95.44 675.45,94.24 683.94,94.40 692.42,94.99 700.91,97.76 709.39,97.01 717.88,95.23 726.36,94.69 734.85,94.52 743.33,95.02 751.82,94.64 760.30,94.33 768.79,94.59 777.27,96.37 785.76,94.71 794.24,96.44 802.73,96.04 811.21,97.93 819.70,96.25 828.18,95.23 836.67,96.58 845.15,99.92 853.64,96.51 862.12,94.78 870.61,96.20 879.09,95.49 887.58,95.28 896.06,94.17 904.55,96.75 913.03,97.34 921.52,96.04 930.00,100.72"/>
<circle cx="90.00" cy="263.58" r="4.5" fill="#059669" fill-opacity="0.9"/>
<circle cx="98.48" cy="135.76" r="4.5" fill="#059669" fill-opacity="0.9"/>
<circle cx="106.97" cy="160.01" r="4.5" fill="#059669" fill-opacity="0.9"/>
<circle cx="115.45" cy="192.32" r="4.5" fill="#059669" fill-opacity="0.9"/>
<circle cx="123.94" cy="342.86" r="4.5" fill="#059669" fill-opacity="0.9"/>
<circle cx="132.42" cy="257.26" r="4.5" fill="#059669" fill-opacity="0.9"/>
<circle cx="140.91" cy="417.83" r="4.5" fill="#059669" fill-opacity="0.9"/>
<circle cx="149.39" cy="163.37" r="4.5" fill="#059669" fill-opacity="0.9"/>
<circle cx="157.88" cy="115.60" r="4.5" fill="#059669" fill-opacity="0.9"/>
<circle cx="166.36" cy="104.60" r="4.5" fill="#059669" fill-opacity="0.9"/>
<circle cx="174.85" cy="106.18" r="4.5" fill="#059669" fill-opacity="0.9"/>
<circle cx="183.33" cy="111.20" r="4.5" fill="#059669" fill-opacity="0.9"/>
<circle cx="191.82" cy="117.40" r="4.5" fill="#059669" fill-opacity="0.9"/>
<circle cx="200.30" cy="101.83" r="4.5" fill="#059669" fill-opacity="0.9"/>
<circle cx="208.79" cy="258.26" r="4.5" fill="#059669" fill-opacity="0.9"/>
<circle cx="217.27" cy="105.07" r="4.5" fill="#059669" fill-opacity="0.9"/>
<circle cx="225.76" cy="102.57" r="4.5" fill="#059669" fill-opacity="0.9"/>
<circle cx="234.24" cy="102.09" r="4.5" fill="#059669" fill-opacity="0.9"/>
<circle cx="242.73" cy="107.32" r="4.5" fill="#059669" fill-opacity="0.9"/>
<circle cx="251.21" cy="104.55" r="4.5" fill="#059669" fill-opacity="0.9"/>
<circle cx="259.70" cy="435.83" r="4.5" fill="#059669" fill-opacity="0.9"/>
<circle cx="268.18" cy="435.83" r="4.5" fill="#059669" fill-opacity="0.9"/>
<circle cx="276.67" cy="435.83" r="4.5" fill="#059669" fill-opacity="0.9"/>
<circle cx="285.15" cy="196.25" r="4.5" fill="#059669" fill-opacity="0.9"/>
<circle cx="293.64" cy="265.26" r="4.5" fill="#059669" fill-opacity="0.9"/>
<circle cx="302.12" cy="435.83" r="4.5" fill="#059669" fill-opacity="0.9"/>
<circle cx="310.61" cy="135.47" r="4.5" fill="#059669" fill-opacity="0.9"/>
<circle cx="319.09" cy="321.68" r="4.5" fill="#059669" fill-opacity="0.9"/>
<circle cx="327.58" cy="140.11" r="4.5" fill="#059669" fill-opacity="0.9"/>
<circle cx="336.06" cy="331.79" r="4.5" fill="#059669" fill-opacity="0.9"/>
<circle cx="344.55" cy="227.12" r="4.5" fill="#059669" fill-opacity="0.9"/>
<circle cx="353.03" cy="165.73" r="4.5" fill="#059669" fill-opacity="0.9"/>
<circle cx="361.52" cy="255.39" r="4.5" fill="#059669" fill-opacity="0.9"/>
<circle cx="370.00" cy="206.12" r="4.5" fill="#059669" fill-opacity="0.9"/>
<circle cx="378.48" cy="425.57" r="4.5" fill="#059669" fill-opacity="0.9"/>
<circle cx="386.97" cy="207.44" r="4.5" fill="#059669" fill-opacity="0.9"/>
<circle cx="395.45" cy="207.23" r="4.5" fill="#059669" fill-opacity="0.9"/>
<circle cx="403.94" cy="240.25" r="4.5" fill="#059669" fill-opacity="0.9"/>
<circle cx="412.42" cy="127.57" r="4.5" fill="#059669" fill-opacity="0.9"/>
<circle cx="420.91" cy="278.89" r="4.5" fill="#059669" fill-opacity="0.9"/>
<circle cx="429.39" cy="317.12" r="4.5" fill="#059669" fill-opacity="0.9"/>
<circle cx="437.88" cy="134.88" r="4.5" fill="#059669" fill-opacity="0.9"/>
<circle cx="446.36" cy="316.12" r="4.5" fill="#059669" fill-opacity="0.9"/>
<circle cx="454.85" cy="137.29" r="4.5" fill="#059669" fill-opacity="0.9"/>
<circle cx="463.33" cy="362.61" r="4.5" fill="#059669" fill-opacity="0.9"/>
<circle cx="471.82" cy="194.62" r="4.5" fill="#059669" fill-opacity="0.9"/>
<circle cx="480.30" cy="219.46" r="4.5" fill="#059669" fill-opacity="0.9"/>
<circle cx="488.79" cy="136.66" r="4.5" fill="#059669" fill-opacity="0.9"/>
<circle cx="497.27" cy="197.10" r="4.5" fill="#059669" fill-opacity="0.9"/>
<circle cx="505.76" cy="304.22" r="4.5" fill="#059669" fill-opacity="0.9"/>
<circle cx="514.24" cy="98.99" r="4.5" fill="#059669" fill-opacity="0.9"/>
<circle cx="522.73" cy="96.77" r="4.5" fill="#059669" fill-opacity="0.9"/>
<circle cx="531.21" cy="94.43" r="4.5" fill="#059669" fill-opacity="0.9"/>
<circle cx="539.70" cy="95.68" r="4.5" fill="#059669" fill-opacity="0.9"/>
<circle cx="548.18" cy="94.59" r="4.5" fill="#059669" fill-opacity="0.9"/>
<circle cx="556.67" cy="94.76" r="4.5" fill="#059669" fill-opacity="0.9"/>
<circle cx="565.15" cy="95.44" r="4.5" fill="#059669" fill-opacity="0.9"/>
<circle cx="573.64" cy="96.15" r="4.5" fill="#059669" fill-opacity="0.9"/>
<circle cx="582.12" cy="96.91" r="4.5" fill="#059669" fill-opacity="0.9"/>
<circle cx="590.61" cy="94.17" r="4.5" fill="#059669" fill-opacity="0.9"/>
<circle cx="599.09" cy="95.49" r="4.5" fill="#059669" fill-opacity="0.9"/>
<circle cx="607.58" cy="95.68" r="4.5" fill="#059669" fill-opacity="0.9"/>
<circle cx="616.06" cy="95.04" r="4.5" fill="#059669" fill-opacity="0.9"/>
<circle cx="624.55" cy="99.37" r="4.5" fill="#059669" fill-opacity="0.9"/>
<circle cx="633.03" cy="98.78" r="4.5" fill="#059669" fill-opacity="0.9"/>
<circle cx="641.52" cy="95.40" r="4.5" fill="#059669" fill-opacity="0.9"/>
<circle cx="650.00" cy="94.38" r="4.5" fill="#059669" fill-opacity="0.9"/>
<circle cx="658.48" cy="96.44" r="4.5" fill="#059669" fill-opacity="0.9"/>
<circle cx="666.97" cy="95.44" r="4.5" fill="#059669" fill-opacity="0.9"/>
<circle cx="675.45" cy="94.24" r="4.5" fill="#059669" fill-opacity="0.9"/>
<circle cx="683.94" cy="94.40" r="4.5" fill="#059669" fill-opacity="0.9"/>
<circle cx="692.42" cy="94.99" r="4.5" fill="#059669" fill-opacity="0.9"/>
<circle cx="700.91" cy="97.76" r="4.5" fill="#059669" fill-opacity="0.9"/>
<circle cx="709.39" cy="97.01" r="4.5" fill="#059669" fill-opacity="0.9"/>
<circle cx="717.88" cy="95.23" r="4.5" fill="#059669" fill-opacity="0.9"/>
<circle cx="726.36" cy="94.69" r="4.5" fill="#059669" fill-opacity="0.9"/>
<circle cx="734.85" cy="94.52" r="4.5" fill="#059669" fill-opacity="0.9"/>
<circle cx="743.33" cy="95.02" r="4.5" fill="#059669" fill-opacity="0.9"/>
<circle cx="751.82" cy="94.64" r="4.5" fill="#059669" fill-opacity="0.9"/>
<circle cx="760.30" cy="94.33" r="4.5" fill="#059669" fill-opacity="0.9"/>
<circle cx="768.79" cy="94.59" r="4.5" fill="#059669" fill-opacity="0.9"/>
<circle cx="777.27" cy="96.37" r="4.5" fill="#059669" fill-opacity="0.9"/>
<circle cx="785.76" cy="94.71" r="4.5" fill="#059669" fill-opacity="0.9"/>
<circle cx="794.24" cy="96.44" r="4.5" fill="#059669" fill-opacity="0.9"/>
<circle cx="802.73" cy="96.04" r="4.5" fill="#059669" fill-opacity="0.9"/>
<circle cx="811.21" cy="97.93" r="4.5" fill="#059669" fill-opacity="0.9"/>
<circle cx="819.70" cy="96.25" r="4.5" fill="#059669" fill-opacity="0.9"/>
<circle cx="828.18" cy="95.23" r="4.5" fill="#059669" fill-opacity="0.9"/>
<circle cx="836.67" cy="96.58" r="4.5" fill="#059669" fill-opacity="0.9"/>
<circle cx="845.15" cy="99.92" r="4.5" fill="#059669" fill-opacity="0.9"/>
<circle cx="853.64" cy="96.51" r="4.5" fill="#059669" fill-opacity="0.9"/>
<circle cx="862.12" cy="94.78" r="4.5" fill="#059669" fill-opacity="0.9"/>
<circle cx="870.61" cy="96.20" r="4.5" fill="#059669" fill-opacity="0.9"/>
<circle cx="879.09" cy="95.49" r="4.5" fill="#059669" fill-opacity="0.9"/>
<circle cx="887.58" cy="95.28" r="4.5" fill="#059669" fill-opacity="0.9"/>
<circle cx="896.06" cy="94.17" r="4.5" fill="#059669" fill-opacity="0.9"/>
<circle cx="904.55" cy="96.75" r="4.5" fill="#059669" fill-opacity="0.9"/>
<circle cx="913.03" cy="97.34" r="4.5" fill="#059669" fill-opacity="0.9"/>
<circle cx="921.52" cy="96.04" r="4.5" fill="#059669" fill-opacity="0.9"/>
<circle cx="930.00" cy="100.72" r="4.5" fill="#059669" fill-opacity="0.9"/>
<rect x="270" y="32" width="18" height="6" fill="#059669"/>
<text x="294" y="38" font-size="13" fill="#333333">test</text>
</svg>