<svg xmlns="http://www.w3.org/2000/svg" width="960" height="540">
<rect width="100%" height="100%" fill="#ffffff"/>
<text x="480.0" y="30" font-size="22" text-anchor="middle" fill="#111111">Sequence Accuracy</text>
<text x="20" y="270.0" font-size="16" transform="rotate(-90 20,270.0)" text-anchor="middle" fill="#333333">Accuracy</text>
<text x="480.0" y="520" font-size="16" text-anchor="middle" fill="#333333">Epoch</text>
<line x1="90" y1="60" x2="90" y2="470" stroke="#333333" stroke-width="2"/>
<line x1="90" y1="470" x2="930" y2="470" stroke="#333333" stroke-width="2"/>
<line x1="90" y1="470.00" x2="930" y2="470.00" stroke="#e5e7eb" stroke-width="1"/>
<text x="80" y="475.00" font-size="12" text-anchor="end" fill="#555555">-0.0760</text>
<line x1="90" y1="367.50" x2="930" y2="367.50" stroke="#e5e7eb" stroke-width="1"/>
<text x="80" y="372.50" font-size="12" text-anchor="end" fill="#555555">0.2066</text>
<line x1="90" y1="265.00" x2="930" y2="265.00" stroke="#e5e7eb" stroke-width="1"/>
<text x="80" y="270.00" font-size="12" text-anchor="end" fill="#555555">0.4893</text>
<line x1="90" y1="162.50" x2="930" y2="162.50" stroke="#e5e7eb" stroke-width="1"/>
<text x="80" y="167.50" font-size="12" text-anchor="end" fill="#555555">0.7720</text>
<line x1="90" y1="60.00" x2="930" y2="60.00" stroke="#e5e7eb" stroke-width="1"/>
<text x="80" y="65.00" font-size="12" text-anchor="end" fill="#555555">1.0546</text>
<line x1="90.00" y1="60" x2="90.00" y2="470" stroke="#f3f4f6" stroke-width="1"/>
<text x="90.00" y="492" font-size="12" text-anchor="middle" fill="#555555">1</text>
<line x1="98.48" y1="60" x2="98.48" y2="470" stroke="#f3f4f6" stroke-width="1"/>
<text x="98.48" y="492" font-size="12" text-anchor="middle" fill="#555555">2</text>
<line x1="106.97" y1="60" x2="106.97" y2="470" stroke="#f3f4f6" stroke-width="1"/>
<text x="106.97" y="492" font-size="12" text-anchor="middle" fill="#555555">3</text>
<line x1="115.45" y1="60" x2="115.45" y2="470" stroke="#f3f4f6" stroke-width="1"/>
<text x="115.45" y="492" font-size="12" text-anchor="middle" fill="#555555">4</text>
<line x1="123.94" y1="60" x2="123.94" y2="470" stroke="#f3f4f6" stroke-width="1"/>
<text x="123.94" y="492" font-size="12" text-anchor="middle" fill="#555555">5</text>
<line x1="132.42" y1="60" x2="132.42" y2="470" stroke="#f3f4f6" stroke-width="1"/>
<text x="132.42" y="492" font-size="12" text-anchor="middle" fill="#555555">6</text>
<line x1="140.91" y1="60" x2="140.91" y2="470" stroke="#f3f4f6" stroke-width="1"/>
<text x="140.91" y="492" font-size="12" text-anchor="middle" fill="#555555">7</text>
<line x1="149.39" y1="60" x2="149.39" y2="470" stroke="#f3f4f6" stroke-width="1"/>
<text x="149.39" y="492" font-size="12" text-anchor="middle" fill="#555555">8</text>
<line x1="157.88" y1="60" x2="157.88" y2="470" stroke="#f3f4f6" stroke-width="1"/>
<text x="157.88" y="492" font-size="12" text-anchor="middle" fill="#555555">9</text>
<line x1="166.36" y1="60" x2="166.36" y2="470" stroke="#f3f4f6" stroke-width="1"/>
<text x="166.36" y="492" font-size="12" text-anchor="middle" fill="#555555">10</text>
<line x1="174.85" y1="60" x2="174.85" y2="470" stroke="#f3f4f6" stroke-width="1"/>
<text x="174.85" y="492" font-size="12" text-anchor="middle" fill="#555555">11</text>
<line x1="183.33" y1="60" x2="183.33" y2="470" stroke="#f3f4f6" stroke-width="1"/>
<text x="183.33" y="492" font-size="12" text-anchor="middle" fill="#555555">12</text>
<line x1="191.82" y1="60" x2="191.82" y2="470" stroke="#f3f4f6" stroke-width="1"/>
<text x="191.82" y="492" font-size="12" text-anchor="middle" fill="#555555">13</text>
<line x1="200.30" y1="60" x2="200.30" y2="470" stroke="#f3f4f6" stroke-width="1"/>
<text x="200.30" y="492" font-size="12" text-anchor="middle" fill="#555555">14</text>
<line x1="208.79" y1="60" x2="208.79" y2="470" stroke="#f3f4f6" stroke-width="1"/>
<text x="208.79" y="492" font-size="12" text-anchor="middle" fill="#555555">15</text>
<line x1="217.27" y1="60" x2="217.27" y2="470" stroke="#f3f4f6" stroke-width="1"/>
<text x="217.27" y="492" font-size="12" text-anchor="middle" fill="#555555">16</text>
<line x1="225.76" y1="60" x2="225.76" y2="470" stroke="#f3f4f6" stroke-width="1"/>
<text x="225.76" y="492" font-size="12" text-anchor="middle" fill="#555555">17</text>
<line x1="234.24" y1="60" x2="234.24" y2="470" stroke="#f3f4f6" stroke-width="1"/>
<text x="234.24" y="492" font-size="12" text-anchor="middle" fill="#555555">18</text>
<line x1="242.73" y1="60" x2="242.73" y2="470" stroke="#f3f4f6" stroke-width="1"/>
<text x="242.73" y="492" font-size="12" text-anchor="middle" fill="#555555">19</text>
<line x1="251.21" y1="60" x2="251.21" y2="470" stroke="#f3f4f6" stroke-width="1"/>
<text x="251.21" y="492" font-size="12" text-anchor="middle" fill="#555555">20</text>
<line x1="259.70" y1="60" x2="259.70" y2="470" stroke="#f3f4f6" stroke-width="1"/>
<text x="259.70" y="492" font-size="12" text-anchor="middle" fill="#555555">21</text>
<line x1="268.18" y1="60" x2="268.18" y2="470" stroke="#f3f4f6" stroke-width="1"/>
<text x="268.18" y="492" font-size="12" text-anchor="middle" fill="#555555">22</text>
<line x1="276.67" y1="60" x2="276.67" y2="470" stroke="#f3f4f6" stroke-width="1"/>
<text x="276.67" y="492" font-size="12" text-anchor="middle" fill="#555555">23</text>
<line x1="285.15" y1="60" x2="285.15" y2="470" stroke="#f3f4f6" stroke-width="1"/>
<text x="285.15" y="492" font-size="12" text-anchor="middle" fill="#555555">24</text>
<line x1="293.64" y1="60" x2="293.64" y2="470" stroke="#f3f4f6" stroke-width="1"/>
<text x="293.64" y="492" font-size="12" text-anchor="middle" fill="#555555">25</text>
<line x1="302.12" y1="60" x2="302.12" y2="470" stroke="#f3f4f6" stroke-width="1"/>
<text x="302.12" y="492" font-size="12" text-anchor="middle" fill="#555555">26</text>
<line x1="310.61" y1="60" x2="310.61" y2="470" stroke="#f3f4f6" stroke-width="1"/>
<text x="310.61" y="492" font-size="12" text-anchor="middle" fill="#555555">27</text>
<line x1="319.09" y1="60" x2="319.09" y2="470" stroke="#f3f4f6" stroke-width="1"/>
<text x="319.09" y="492" font-size="12" text-anchor="middle" fill="#555555">28</text>
<line x1="327.58" y1="60" x2="327.58" y2="470" stroke="#f3f4f6" stroke-width="1"/>
<text x="327.58" y="492" font-size="12" text-anchor="middle" fill="#555555">29</text>
<line x1="336.06" y1="60" x2="336.06" y2="470" stroke="#f3f4f6" stroke-width="1"/>
<text x="336.06" y="492" font-size="12" text-anchor="middle" fill="#555555">30</text>
<line x1="344.55" y1="60" x2="344.55" y2="470" stroke="#f3f4f6" stroke-width="1"/>
<text x="344.55" y="492" font-size="12" text-anchor="middle" fill="#555555">31</text>
<line x1="353.03" y1="60" x2="353.03" y2="470" stroke="#f3f4f6" stroke-width="1"/>
<text x="353.03" y="492" font-size="12" text-anchor="middle" fill="#555555">32</text>
<line x1="361.52" y1="60" x2="361.52" y2="470" stroke="#f3f4f6" stroke-width="1"/>
<text x="361.52" y="492" font-size="12" text-anchor="middle" fill="#555555">33</text>
<line x1="370.00" y1="60" x2="370.00" y2="470" stroke="#f3f4f6" stroke-width="1"/>
<text x="370.00" y="492" font-size="12" text-anchor="middle" fill="#555555">34</text>
<line x1="378.48" y1="60" x2="378.48" y2="470" stroke="#f3f4f6" stroke-width="1"/>
<text x="378.48" y="492" font-size="12" text-anchor="middle" fill="#555555">35</text>
<line x1="386.97" y1="60" x2="386.97" y2="470" stroke="#f3f4f6" stroke-width="1"/>
<text x="386.97" y="492" font-size="12" text-anchor="middle" fill="#555555">36</text>
<line x1="395.45" y1="60" x2="395.45" y2="470" stroke="#f3f4f6" stroke-width="1"/>
<text x="395.45" y="492" font-size="12" text-anchor="middle" fill="#555555">37</text>
<line x1="403.94" y1="60" x2="403.94" y2="470" stroke="#f3f4f6" stroke-width="1"/>
<text x="403.94" y="492" font-size="12" text-anchor="middle" fill="#555555">38</text>
<line x1="412.42" y1="60" x2="412.42" y2="470" stroke="#f3f4f6" stroke-width="1"/>
<text x="412.42" y="492" font-size="12" text-anchor="middle" fill="#555555">39</text>
<line x1="420.91" y1="60" x2="420.91" y2="470" stroke="#f3f4f6" stroke-width="1"/>
<text x="420.91" y="492" font-size="12" text-anchor="middle" fill="#555555">40</text>
<line x1="429.39" y1="60" x2="429.39" y2="470" stroke="#f3f4f6" stroke-width="1"/>
<text x="429.39" y="492" font-size="12" text-anchor="middle" fill="#555555">41</text>
<line x1="437.88" y1="60" x2="437.88" y2="470" stroke="#f3f4f6" stroke-width="1"/>
<text x="437.88" y="492" font-size="12" text-anchor="middle" fill="#555555">42</text>
<line x1="446.36" y1="60" x2="446.36" y2="470" stroke="#f3f4f6" stroke-width="1"/>
<text x="446.36" y="492" font-size="12" text-anchor="middle" fill="#555555">43</text>
<line x1="454.85" y1="60" x2="454.85" y2="470" stroke="#f3f4f6" stroke-width="1"/>
<text x="454.85" y="492" font-size="12" text-anchor="middle" fill="#555555">44</text>
<line x1="463.33" y1="60" x2="463.33" y2="470" stroke="#f3f4f6" stroke-width="1"/>
<text x="463.33" y="492" font-size="12" text-anchor="middle" fill="#555555">45</text>
<line x1="471.82" y1="60" x2="471.82" y2="470" stroke="#f3f4f6" stroke-width="1"/>
<text x="471.82" y="492" font-size="12" text-anchor="middle" fill="#555555">46</text>
<line x1="480.30" y1="60" x2="480.30" y2="470" stroke="#f3f4f6" stroke-width="1"/>
<text x="480.30" y="492" font-size="12" text-anchor="middle" fill="#555555">47</text>
<line x1="488.79" y1="60" x2="488.79" y2="470" stroke="#f3f4f6" stroke-width="1"/>
<text x="488.79" y="492" font-size="12" text-anchor="middle" fill="#555555">48</text>
<line x1="497.27" y1="60" x2="497.27" y2="470" stroke="#f3f4f6" stroke-width="1"/>
<text x="497.27" y="492" font-size="12" text-anchor="middle" fill="#555555">49</text>
<line x1="505.76" y1="60" x2="505.76" y2="470" stroke="#f3f4f6" stroke-width="1"/>
<text x="505.76" y="492" font-size="12" text-anchor="middle" fill="#555555">50</text>
<line x1="514.24" y1="60" x2="514.24" y2="470" stroke="#f3f4f6" stroke-width="1"/>
<text x="514.24" y="492" font-size="12" text-anchor="middle" fill="#555555">51</text>
<line x1="522.73" y1="60" x2="522.73" y2="470" stroke="#f3f4f6" stroke-width="1"/>
<text x="522.73" y="492" font-size="12" text-anchor="middle" fill="#555555">52</text>
<line x1="531.21" y1="60" x2="531.21" y2="470" stroke="#f3f4f6" stroke-width="1"/>
<text x="531.21" y="492" font-size="12" text-anchor="middle" fill="#555555">53</text>
<line x1="539.70" y1="60" x2="539.70" y2="470" stroke="#f3f4f6" stroke-width="1"/>
<text x="539.70" y="492" font-size="12" text-anchor="middle" fill="#555555">54</text>
<line x1="548.18" y1="60" x2="548.18" y2="470" stroke="#f3f4f6" stroke-width="1"/>
<text x="548.18" y="492" font-size="12" text-anchor="middle" fill="#555555">55</text>
<line x1="556.67" y1="60" x2="556.67" y2="470" stroke="#f3f4f6" stroke-width="1"/>
<text x="556.67" y="492" font-size="12" text-anchor="middle" fill="#555555">56</text>
<line x1="565.15" y1="60" x2="565.15" y2="470" stroke="#f3f4f6" stroke-width="1"/>
<text x="565.15" y="492" font-size="12" text-anchor="middle" fill="#555555">57</text>
<line x1="573.64" y1="60" x2="573.64" y2="470" stroke="#f3f4f6" stroke-width="1"/>
<text x="573.64" y="492" font-size="12" text-anchor="middle" fill="#555555">58</text>
<line x1="582.12" y1="60" x2="582.12" y2="470" stroke="#f3f4f6" stroke-width="1"/>
<text x="582.12" y="492" font-size="12" text-anchor="middle" fill="#555555">59</text>
<line x1="590.61" y1="60" x2="590.61" y2="470" stroke="#f3f4f6" stroke-width="1"/>
<text x="590.61" y="492" font-size="12" text-anchor="middle" fill="#555555">60</text>
<line x1="599.09" y1="60" x2="599.09" y2="470" stroke="#f3f4f6" stroke-width="1"/>
<text x="599.09" y="492" font-size="12" text-anchor="middle" fill="#555555">61</text>
<line x1="607.58" y1="60" x2="607.58" y2="470" stroke="#f3f4f6" stroke-width="1"/>
<text x="607.58" y="492" font-size="12" text-anchor="middle" fill="#555555">62</text>
<line x1="616.06" y1="60" x2="616.06" y2="470" stroke="#f3f4f6" stroke-width="1"/>
<text x="616.06" y="492" font-size="12" text-anchor="middle" fill="#555555">63</text>
<line x1="624.55" y1="60" x2="624.55" y2="470" stroke="#f3f4f6" stroke-width="1"/>
<text x="624.55" y="492" font-size="12" text-anchor="middle" fill="#555555">64</text>
<line x1="633.03" y1="60" x2="633.03" y2="470" stroke="#f3f4f6" stroke-width="1"/>
<text x="633.03" y="492" font-size="12" text-anchor="middle" fill="#555555">65</text>
<line x1="641.52" y1="60" x2="641.52" y2="470" stroke="#f3f4f6" stroke-width="1"/>
<text x="641.52" y="492" font-size="12" text-anchor="middle" fill="#555555">66</text>
<line x1="650.00" y1="60" x2="650.00" y2="470" stroke="#f3f4f6" stroke-width="1"/>
<text x="650.00" y="492" font-size="12" text-anchor="middle" fill="#555555">67</text>
<line x1="658.48" y1="60" x2="658.48" y2="470" stroke="#f3f4f6" stroke-width="1"/>
<text x="658.48" y="492" font-size="12" text-anchor="middle" fill="#555555">68</text>
<line x1="666.97" y1="60" x2="666.97" y2="470" stroke="#f3f4f6" stroke-width="1"/>
<text x="666.97" y="492" font-size="12" text-anchor="middle" fill="#555555">69</text>
<line x1="675.45" y1="60" x2="675.45" y2="470" stroke="#f3f4f6" stroke-width="1"/>
<text x="675.45" y="492" font-size="12" text-anchor="middle" fill="#555555">70</text>
<line x1="683.94" y1="60" x2="683.94" y2="470" stroke="#f3f4f6" stroke-width="1"/>
<text x="683.94" y="492" font-size="12" text-anchor="middle" fill="#555555">71</text>
<line x1="692.42" y1="60" x2="692.42" y2="470" stroke="#f3f4f6" stroke-width="1"/>
<text x="692.42" y="492" font-size="12" text-anchor="middle" fill="#555555">72</text>
<line x1="700.91" y1="60" x2="700.91" y2="470" stroke="#f3f4f6" stroke-width="1"/>
<text x="700.91" y="492" font-size="12" text-anchor="middle" fill="#555555">73</text>
<line x1="709.39" y1="60" x2="709.39" y2="470" stroke="#f3f4f6" stroke-width="1"/>
<text x="709.39" y="492" font-size="12" text-anchor="middle" fill="#555555">74</text>
<line x1="717.88" y1="60" x2="717.88" y2="470" stroke="#f3f4f6" stroke-width="1"/>
<text x="717.88" y="492" font-size="12" text-anchor="middle" fill="#555555">75</text>
<line x1="726.36" y1="60" x2="726.36" y2="470" stroke="#f3f4f6" stroke-width="1"/>
<text x="726.36" y="492" font-size="12" text-anchor="middle" fill="#555555">76</text>
<line x1="734.85" y1="60" x2="734.85" y2="470" stroke="#f3f4f6" stroke-width="1"/>
<text x="734.85" y="492" font-size="12" text-anchor="middle" fill="#555555">77</text>
<line x1="743.33" y1="60" x2="743.33" y2="470" stroke="#f3f4f6" stroke-width="1"/>
<text x="743.33" y="492" font-size="12" text-anchor="middle" fill="#555555">78</text>
<line x1="751.82" y1="60" x2="751.82" y2="470" stroke="#f3f4f6" stroke-width="1"/>
<text x="751.82" y="492" font-size="12" text-anchor="middle" fill="#555555">79</text>
<line x1="760.30" y1="60" x2="760.30" y2="470" stroke="#f3f4f6" stroke-width="1"/>
<text x="760.30" y="492" font-size="12" text-anchor="middle" fill="#555555">80</text>
<line x1="768.79" y1="60" x2="768.79" y2="470" stroke="#f3f4f6" stroke-width="1"/>
<text x="768.79" y="492" font-size="12" text-anchor="middle" fill="#555555">81</text>
<line x1="777.27" y1="60" x2="777.27" y2="470" stroke="#f3f4f6" stroke-width="1"/>
<text x="777.27" y="492" font-size="12" text-anchor="middle" fill="#555555">82</text>
<line x1="785.76" y1="60" x2="785.76" y2="470" stroke="#f3f4f6" stroke-width="1"/>
<text x="785.76" y="492" font-size="12" text-anchor="middle" fill="#555555">83</text>
<line x1="794.24" y1="60" x2="794.24" y2="470" stroke="#f3f4f6" stroke-width="1"/>
<text x="794.24" y="492" font-size="12" text-anchor="middle" fill="#555555">84</text>
<line x1="802.73" y1="60" x2="802.73" y2="470" stroke="#f3f4f6" stroke-width="1"/>
<text x="802.73" y="492" font-size="12" text-anchor="middle" fill="#555555">85</text>
<line x1="811.21" y1="60" x2="811.21" y2="470" stroke="#f3f4f6" stroke-width="1"/>
<text x="811.21" y="492" font-size="12" text-anchor="middle" fill="#555555">86</text>
<line x1="819.70" y1="60" x2="819.70" y2="470" stroke="#f3f4f6" stroke-width="1"/>
<text x="819.70" y="492" font-size="12" text-anchor="middle" fill="#555555">87</text>
<line x1="828.18" y1="60" x2="828.18" y2="470" stroke="#f3f4f6" stroke-width="1"/>
<text x="828.18" y="492" font-size="12" text-anchor="middle" fill="#555555">88</text>
<line x1="836.67" y1="60" x2="836.67" y2="470" stroke="#f3f4f6" stroke-width="1"/>
<text x="836.67" y="492" font-size="12" text-anchor="middle" fill="#555555">89</text>
<line x1="845.15" y1="60" x2="845.15" y2="470" stroke="#f3f4f6" stroke-width="1"/>
<text x="845.15" y="492" font-size="12" text-anchor="middle" fill="#555555">90</text>
<line x1="853.64" y1="60" x2="853.64" y2="470" stroke="#f3f4f6" stroke-width="1"/>
<text x="853.64" y="492" font-size="12" text-anchor="middle" fill="#555555">91</text>
<line x1="862.12" y1="60" x2="862.12" y2="470" stroke="#f3f4f6" stroke-width="1"/>
<text x="862.12" y="492" font-size="12" text-anchor="middle" fill="#555555">92</text>
<line x1="870.61" y1="60" x2="870.61" y2="470" stroke="#f3f4f6" stroke-width="1"/>
<text x="870.61" y="492" font-size="12" text-anchor="middle" fill="#555555">93</text>
<line x1="879.09" y1="60" x2="879.09" y2="470" stroke="#f3f4f6" stroke-width="1"/>
<text x="879.09" y="492" font-size="12" text-anchor="middle" fill="#555555">94</text>
<line x1="887.58" y1="60" x2="887.58" y2="470" stroke="#f3f4f6" stroke-width="1"/>
<text x="887.58" y="492" font-size="12" text-anchor="middle" fill="#555555">95</text>
<line x1="896.06" y1="60" x2="896.06" y2="470" stroke="#f3f4f6" stroke-width="1"/>
<text x="896.06" y="492" font-size="12" text-anchor="middle" fill="#555555">96</text>
<line x1="904.55" y1="60" x2="904.55" y2="470" stroke="#f3f4f6" stroke-width="1"/>
<text x="904.55" y="492" font-size="12" text-anchor="middle" fill="#555555">97</text>
<line x1="913.03" y1="60" x2="913.03" y2="470" stroke="#f3f4f6" stroke-width="1"/>
<text x="913.03" y="492" font-size="12" text-anchor="middle" fill="#555555">98</text>
<line x1="921.52" y1="60" x2="921.52" y2="470" stroke="#f3f4f6" stroke-width="1"/>
<text x="921.52" y="492" font-size="12" text-anchor="middle" fill="#555555">99</text>
<line x1="930.00" y1="60" x2="930.00" y2="470" stroke="#f3f4f6" stroke-width="1"/>
<text x="930.00" y="492" font-size="12" text-anchor="middle" fill="#555555">100</text>
<polyline fill="none" stroke="#d97706" stroke-width="3" points="90.00,435.04 98.48,249.35 106.97,303.60 115.45,116.75 123.94,120.76 132.42,122.43 140.91,116.26 149.39,144.43 157.88,225.36 166.36,121.24 174.85,110.10 183.33,120.64 191.82,114.76 200.30,119.41 208.79,140.51 217.27,110.39 225.76,109.08 234.24,109.52 242.73,102.60 251.21,120.18 259.70,223.41 268.18,110.17 276.67,216.78 285.15,113.00 293.64,126.80 302.12,106.23 310.61,109.88 319.09,102.39 327.58,231.14 336.06,100.98 344.55,105.70 353.03,108.45 361.52,106.35 370.00,155.69 378.48,184.58 386.97,107.41 395.45,130.96 403.94,103.72 412.42,101.83 420.91,104.92 429.39,100.98 437.88,122.91 446.36,101.27 454.85,101.44 463.33,102.85 471.82,99.36 480.30,100.23 488.79,102.89 497.27,100.81 505.76,102.60 514.24,96.51 522.73,95.96 531.21,95.40 539.70,95.98 548.18,95.81 556.67,95.69 565.15,95.40 573.64,95.69 582.12,95.64 590.61,95.52 599.09,95.16 607.58,95.40 616.06,95.28 624.55,95.04 633.03,94.75 641.52,95.62 650.00,95.01 658.48,94.72 666.97,95.54 675.45,94.99 683.94,95.18 692.42,94.75 700.91,94.41 709.39,94.53 717.88,94.34 726.36,94.17 734.85,94.65 743.33,94.36 751.82,94.31 760.30,95.04 768.79,94.82 777.27,95.23 785.76,94.96 794.24,94.63 802.73,95.93 811.21,95.01 819.70,95.09 828.18,95.74 836.67,95.76 845.15,94.99 853.64,95.23 862.12,95.09 870.61,95.71 879.09,95.64 887.58,95.79 896.06,95.21 904.55,95.30 913.03,94.87 921.52,96.75 930.00,95.06"/>
<circle cx="90.00" cy="435.04" r="4.5" fill="#d97706" fill-opacity="0.9"/>
<circle cx="98.48" cy="249.35" r="4.5" fill="#d97706" fill-opacity="0.9"/>
<circle cx="106.97" cy="303.60" r="4.5" fill="#d97706" fill-opacity="0.9"/>
<circle cx="115.45" cy="116.75" r="4.5" fill="#d97706" fill-opacity="0.9"/>
<circle cx="123.94" cy="120.76" r="4.5" fill="#d97706" fill-opacity="0.9"/>
<circle cx="132.42" cy="122.43" r="4.5" fill="#d97706" fill-opacity="0.9"/>
<circle cx="140.91" cy="116.26" r="4.5" fill="#d97706" fill-opacity="0.9"/>
<circle cx="149.39" cy="144.43" r="4.5" fill="#d97706" fill-opacity="0.9"/>
<circle cx="157.88" cy="225.36" r="4.5" fill="#d97706" fill-opacity="0.9"/>
<circle cx="166.36" cy="121.24" r="4.5" fill="#d97706" fill-opacity="0.9"/>
<circle cx="174.85" cy="110.10" r="4.5" fill="#d97706" fill-opacity="0.9"/>
<circle cx="183.33" cy="120.64" r="4.5" fill="#d97706" fill-opacity="0.9"/>
<circle cx="191.82" cy="114.76" r="4.5" fill="#d97706" fill-opacity="0.9"/>
<circle cx="200.30" cy="119.41" r="4.5" fill="#d97706" fill-opacity="0.9"/>
<circle cx="208.79" cy="140.51" r="4.5" fill="#d97706" fill-opacity="0.9"/>
<circle cx="217.27" cy="110.39" r="4.5" fill="#d97706" fill-opacity="0.9"/>
<circle cx="225.76" cy="109.08" r="4.5" fill="#d97706" fill-opacity="0.9"/>
<circle cx="234.24" cy="109.52" r="4.5" fill="#d97706" fill-opacity="0.9"/>
<circle cx="242.73" cy="102.60" r="4.5" fill="#d97706" fill-opacity="0.9"/>
<circle cx="251.21" cy="120.18" r="4.5" fill="#d97706" fill-opacity="0.9"/>
<circle cx="259.70" cy="223.41" r="4.5" fill="#d97706" fill-opacity="0.9"/>
<circle cx="268.18" cy="110.17" r="4.5" fill="#d97706" fill-opacity="0.9"/>
<circle cx="276.67" cy="216.78" r="4.5" fill="#d97706" fill-opacity="0.9"/>
<circle cx="285.15" cy="113.00" r="4.5" fill="#d97706" fill-opacity="0.9"/>
<circle cx="293.64" cy="126.80" r="4.5" fill="#d97706" fill-opacity="0.9"/>
<circle cx="302.12" cy="106.23" r="4.5" fill="#d97706" fill-opacity="0.9"/>
<circle cx="310.61" cy="109.88" r="4.5" fill="#d97706" fill-opacity="0.9"/>
<circle cx="319.09" cy="102.39" r="4.5" fill="#d97706" fill-opacity="0.9"/>
<circle cx="327.58" cy="231.14" r="4.5" fill="#d97706" fill-opacity="0.9"/>
<circle cx="336.06" cy="100.98" r="4.5" fill="#d97706" fill-opacity="0.9"/>
<circle cx="344.55" cy="105.70" r="4.5" fill="#d97706" fill-opacity="0.9"/>
<circle cx="353.03" cy="108.45" r="4.5" fill="#d97706" fill-opacity="0.9"/>
<circle cx="361.52" cy="106.35" r="4.5" fill="#d97706" fill-opacity="0.9"/>
<circle cx="370.00" cy="155.69" r="4.5" fill="#d97706" fill-opacity="0.9"/>
<circle cx="378.48" cy="184.58" r="4.5" fill="#d97706" fill-opacity="0.9"/>
<circle cx="386.97" cy="107.41" r="4.5" fill="#d97706" fill-opacity="0.9"/>
<circle cx="395.45" cy="130.96" r="4.5" fill="#d97706" fill-opacity="0.9"/>
<circle cx="403.94" cy="103.72" r="4.5" fill="#d97706" fill-opacity="0.9"/>
<circle cx="412.42" cy="101.83" r="4.5" fill="#d97706" fill-opacity="0.9"/>
<circle cx="420.91" cy="104.92" r="4.5" fill="#d97706" fill-opacity="0.9"/>
<circle cx="429.39" cy="100.98" r="4.5" fill="#d97706" fill-opacity="0.9"/>
<circle cx="437.88" cy="122.91" r="4.5" fill="#d97706" fill-opacity="0.9"/>
<circle cx="446.36" cy="101.27" r="4.5" fill="#d97706" fill-opacity="0.9"/>
<circle cx="454.85" cy="101.44" r="4.5" fill="#d97706" fill-opacity="0.9"/>
<circle cx="463.33" cy="102.85" r="4.5" fill="#d97706" fill-opacity="0.9"/>
<circle cx="471.82" cy="99.36" r="4.5" fill="#d97706" fill-opacity="0.9"/>
<circle cx="480.30" cy="100.23" r="4.5" fill="#d97706" fill-opacity="0.9"/>
<circle cx="488.79" cy="102.89" r="4.5" fill="#d97706" fill-opacity="0.9"/>
<circle cx="497.27" cy="100.81" r="4.5" fill="#d97706" fill-opacity="0.9"/>
<circle cx="505.76" cy="102.60" r="4.5" fill="#d97706" fill-opacity="0.9"/>
<circle cx="514.24" cy="96.51" r="4.5" fill="#d97706" fill-opacity="0.9"/>
<circle cx="522.73" cy="95.96" r="4.5" fill="#d97706" fill-opacity="0.9"/>
<circle cx="531.21" cy="95.40" r="4.5" fill="#d97706" fill-opacity="0.9"/>
<circle cx="539.70" cy="95.98" r="4.5" fill="#d97706" fill-opacity="0.9"/>
<circle cx="548.18" cy="95.81" r="4.5" fill="#d97706" fill-opacity="0.9"/>
<circle cx="556.67" cy="95.69" r="4.5" fill="#d97706" fill-opacity="0.9"/>
<circle cx="565.15" cy="95.40" r="4.5" fill="#d97706" fill-opacity="0.9"/>
<circle cx="573.64" cy="95.69" r="4.5" fill="#d97706" fill-opacity="0.9"/>
<circle cx="582.12" cy="95.64" r="4.5" fill="#d97706" fill-opacity="0.9"/>
<circle cx="590.61" cy="95.52" r="4.5" fill="#d97706" fill-opacity="0.9"/>
<circle cx="599.09" cy="95.16" r="4.5" fill="#d97706" fill-opacity="0.9"/>
<circle cx="607.58" cy="95.40" r="4.5" fill="#d97706" fill-opacity="0.9"/>
<circle cx="616.06" cy="95.28" r="4.5" fill="#d97706" fill-opacity="0.9"/>
<circle cx="624.55" cy="95.04" r="4.5" fill="#d97706" fill-opacity="0.9"/>
<circle cx="633.03" cy="94.75" r="4.5" fill="#d97706" fill-opacity="0.9"/>
<circle cx="641.52" cy="95.62" r="4.5" fill="#d97706" fill-opacity="0.9"/>
<circle cx="650.00" cy="95.01" r="4.5" fill="#d97706" fill-opacity="0.9"/>
<circle cx="658.48" cy="94.72" r="4.5" fill="#d97706" fill-opacity="0.9"/>
<circle cx="666.97" cy="95.54" r="4.5" fill="#d97706" fill-opacity="0.9"/>
<circle cx="675.45" cy="94.99" r="4.5" fill="#d97706" fill-opacity="0.9"/>
<circle cx="683.94" cy="95.18" r="4.5" fill="#d97706" fill-opacity="0.9"/>
<circle cx="692.42" cy="94.75" r="4.5" fill="#d97706" fill-opacity="0.9"/>
<circle cx="700.91" cy="94.41" r="4.5" fill="#d97706" fill-opacity="0.9"/>
<circle cx="709.39" cy="94.53" r="4.5" fill="#d97706" fill-opacity="0.9"/>
<circle cx="717.88" cy="94.34" r="4.5" fill="#d97706" fill-opacity="0.9"/>
<circle cx="726.36" cy="94.17" r="4.5" fill="#d97706" fill-opacity="0.9"/>
<circle cx="734.85" cy="94.65" r="4.5" fill="#d97706" fill-opacity="0.9"/>
<circle cx="743.33" cy="94.36" r="4.5" fill="#d97706" fill-opacity="0.9"/>
<circle cx="751.82" cy="94.31" r="4.5" fill="#d97706" fill-opacity="0.9"/>
<circle cx="760.30" cy="95.04" r="4.5" fill="#d97706" fill-opacity="0.9"/>
<circle cx="768.79" cy="94.82" r="4.5" fill="#d97706" fill-opacity="0.9"/>
<circle cx="777.27" cy="95.23" r="4.5" fill="#d97706" fill-opacity="0.9"/>
<circle cx="785.76" cy="94.96" r="4.5" fill="#d97706" fill-opacity="0.9"/>
<circle cx="794.24" cy="94.63" r="4.5" fill="#d97706" fill-opacity="0.9"/>
<circle cx="802.73" cy="95.93" r="4.5" fill="#d97706" fill-opacity="0.9"/>
<circle cx="811.21" cy="95.01" r="4.5" fill="#d97706" fill-opacity="0.9"/>
<circle cx="819.70" cy="95.09" r="4.5" fill="#d97706" fill-opacity="0.9"/>
<circle cx="828.18" cy="95.74" r="4.5" fill="#d97706" fill-opacity="0.9"/>
<circle cx="836.67" cy="95.76" r="4.5" fill="#d97706" fill-opacity="0.9"/>
<circle cx="845.15" cy="94.99" r="4.5" fill="#d97706" fill-opacity="0.9"/>
<circle cx="853.64" cy="95.23" r="4.5" fill="#d97706" fill-opacity="0.9"/>
<circle cx="862.12" cy="95.09" r="4.5" fill="#d97706" fill-opacity="0.9"/>
<circle cx="870.61" cy="95.71" r="4.5" fill="#d97706" fill-opacity="0.9"/>
<circle cx="879.09" cy="95.64" r="4.5" fill="#d97706" fill-opacity="0.9"/>
<circle cx="887.58" cy="95.79" r="4.5" fill="#d97706" fill-opacity="0.9"/>
<circle cx="896.06" cy="95.21" r="4.5" fill="#d97706" fill-opacity="0.9"/>
<circle cx="904.55" cy="95.30" r="4.5" fill="#d97706" fill-opacity="0.9"/>
<circle cx="913.03" cy="94.87" r="4.5" fill="#d97706" fill-opacity="0.9"/>
<circle cx="921.52" cy="96.75" r="4.5" fill="#d97706" fill-opacity="0.9"/>
<circle cx="930.00" cy="95.06" r="4.5" fill="#d97706" fill-opacity="0.9"/>
<rect x="90" y="32" width="18" height="6" fill="#d97706"/>
<text x="114" y="38" font-size="13" fill="#333333">val</text>
<polyline fill="none" stroke="#059669" stroke-width="3" points="90.00,435.83 98.48,250.00 106.97,302.12 115.45,117.71 123.94,122.16 132.42,125.01 140.91,116.55 149.39,146.12 157.88,224.62 166.36,123.73 174.85,111.07 183.33,120.08 191.82,115.76 200.30,119.91 208.79,139.37 217.27,110.85 225.76,110.10 234.24,108.67 242.73,103.04 251.21,118.37 259.70,223.43 268.18,110.87 276.67,215.96 285.15,113.02 293.64,125.59 302.12,105.46 310.61,110.61 319.09,102.53 327.58,231.22 336.06,100.91 344.55,105.65 353.03,109.42 361.52,106.13 370.00,152.36 378.48,183.03 386.97,108.33 395.45,130.19 403.94,104.03 412.42,101.98 420.91,105.63 429.39,100.84 437.88,121.99 446.36,100.69 454.85,101.18 463.33,101.83 471.82,100.19 480.30,99.46 488.79,102.70 497.27,100.79 505.76,102.58 514.24,95.98 522.73,95.62 531.21,95.40 539.70,95.28 548.18,95.62 556.67,95.09 565.15,95.38 573.64,95.25 582.12,95.13 590.61,94.92 599.09,95.23 607.58,95.04 616.06,94.94 624.55,94.94 633.03,94.80 641.52,95.38 650.00,95.64 658.48,94.84 666.97,94.87 675.45,95.47 683.94,95.06 692.42,94.77 700.91,94.51 709.39,94.46 717.88,94.46 726.36,94.89 734.85,94.55 743.33,94.43 751.82,94.72 760.30,95.18 768.79,94.89 777.27,94.84 785.76,95.01 794.24,94.80 802.73,95.62 811.21,95.16 819.70,95.13 828.18,95.11 836.67,95.42 845.15,94.92 853.64,94.58 862.12,94.48 870.61,95.54 879.09,95.11 887.58,94.87 896.06,94.96 904.55,94.63 913.03,94.34 921.52,95.81 930.00,94.82"/>
<circle cx="90.00" cy="435.83" r="4.5" fill="#059669" fill-opacity="0.9"/>
<circle cx="98.48" cy="250.00" r="4.5" fill="#059669" fill-opacity="0.9"/>
<circle cx="106.97" cy="302.12" r="4.5" fill="#059669" fill-opacity="0.9"/>
<circle cx="115.45" cy="117.71" r="4.5" fill="#059669" fill-opacity="0.9"/>
<circle cx="123.94" cy="122.16" r="4.5" fill="#059669" fill-opacity="0.9"/>
<circle cx="132.42" cy="125.01" r="4.5" fill="#059669" fill-opacity="0.9"/>
<circle cx="140.91" cy="116.55" r="4.5" fill="#059669" fill-opacity="0.9"/>
<circle cx="149.39" cy="146.12" r="4.5" fill="#059669" fill-opacity="0.9"/>
<circle cx="157.88" cy="224.62" r="4.5" fill="#059669" fill-opacity="0.9"/>
<circle cx="166.36" cy="123.73" r="4.5" fill="#059669" fill-opacity="0.9"/>
<circle cx="174.85" cy="111.07" r="4.5" fill="#059669" fill-opacity="0.9"/>
<circle cx="183.33" cy="120.08" r="4.5" fill="#059669" fill-opacity="0.9"/>
<circle cx="191.82" cy="115.76" r="4.5" fill="#059669" fill-opacity="0.9"/>
<circle cx="200.30" cy="119.91" r="4.5" fill="#059669" fill-opacity="0.9"/>
<circle cx="208.79" cy="139.37" r="4.5" fill="#059669" fill-opacity="0.9"/>
<circle cx="217.27" cy="110.85" r="4.5" fill="#059669" fill-opacity="0.9"/>
<circle cx="225.76" cy="110.10" r="4.5" fill="#059669" fill-opacity="0.9"/>
<circle cx="234.24" cy="108.67" r="4.5" fill="#059669" fill-opacity="0.9"/>
<circle cx="242.73" cy="103.04" r="4.5" fill="#059669" fill-opacity="0.9"/>
<circle cx="251.21" cy="118.37" r="4.5" fill="#059669" fill-opacity="0.9"/>
<circle cx="259.70" cy="223.43" r="4.5" fill="#059669" fill-opacity="0.9"/>
<circle cx="268.18" cy="110.87" r="4.5" fill="#059669" fill-opacity="0.9"/>
<circle cx="276.67" cy="215.96" r="4.5" fill="#059669" fill-opacity="0.9"/>
<circle cx="285.15" cy="113.02" r="4.5" fill="#059669" fill-opacity="0.9"/>
<circle cx="293.64" cy="125.59" r="4.5" fill="#059669" fill-opacity="0.9"/>
<circle cx="302.12" cy="105.46" r="4.5" fill="#059669" fill-opacity="0.9"/>
<circle cx="310.61" cy="110.61" r="4.5" fill="#059669" fill-opacity="0.9"/>
<circle cx="319.09" cy="102.53" r="4.5" fill="#059669" fill-opacity="0.9"/>
<circle cx="327.58" cy="231.22" r="4.5" fill="#059669" fill-opacity="0.9"/>
<circle cx="336.06" cy="100.91" r="4.5" fill="#059669" fill-opacity="0.9"/>
<circle cx="344.55" cy="105.65" r="4.5" fill="#059669" fill-opacity="0.9"/>
<circle cx="353.03" cy="109.42" r="4.5" fill="#059669" fill-opacity="0.9"/>
<circle cx="361.52" cy="106.13" r="4.5" fill="#059669" fill-opacity="0.9"/>
<circle cx="370.00" cy="152.36" r="4.5" fill="#059669" fill-opacity="0.9"/>
<circle cx="378.48" cy="183.03" r="4.5" fill="#059669" fill-opacity="0.9"/>
<circle cx="386.97" cy="108.33" r="4.5" fill="#059669" fill-opacity="0.9"/>
<circle cx="395.45" cy="130.19" r="4.5" fill="#059669" fill-opacity="0.9"/>
<circle cx="403.94" cy="104.03" r="4.5" fill="#059669" fill-opacity="0.9"/>
<circle cx="412.42" cy="101.98" r="4.5" fill="#059669" fill-opacity="0.9"/>
<circle cx="420.91" cy="105.63" r="4.5" fill="#059669" fill-opacity="0.9"/>
<circle cx="429.39" cy="100.84" r="4.5" fill="#059669" fill-opacity="0.9"/>
<circle cx="437.88" cy="121.99" r="4.5" fill="#059669" fill-opacity="0.9"/>
<circle cx="446.36" cy="100.69" r="4.5" fill="#059669" fill-opacity="0.9"/>
<circle cx="454.85" cy="101.18" r="4.5" fill="#059669" fill-opacity="0.9"/>
<circle cx="463.33" cy="101.83" r="4.5" fill="#059669" fill-opacity="0.9"/>
<circle cx="471.82" cy="100.19" r="4.5" fill="#059669" fill-opacity="0.9"/>
<circle cx="480.30" cy="99.46" r="4.5" fill="#059669" fill-opacity="0.9"/>
<circle cx="488.79" cy="102.70" r="4.5" fill="#059669" fill-opacity="0.9"/>
<circle cx="497.27" cy="100.79" r="4.5" fill="#059669" fill-opacity="0.9"/>
<circle cx="505.76" cy="102.58" r="4.5" fill="#059669" fill-opacity="0.9"/>
<circle cx="514.24" cy="95.98" r="4.5" fill="#059669" fill-opacity="0.9"/>
<circle cx="522.73" cy="95.62" r="4.5" fill="#059669" fill-opacity="0.9"/>
<circle cx="531.21" cy="95.40" r="4.5" fill="#059669" fill-opacity="0.9"/>
<circle cx="539.70" cy="95.28" r="4.5" fill="#059669" fill-opacity="0.9"/>
<circle cx="548.18" cy="95.62" r="4.5" fill="#059669" fill-opacity="0.9"/>
<circle cx="556.67" cy="95.09" r="4.5" fill="#059669" fill-opacity="0.9"/>
<circle cx="565.15" cy="95.38" r="4.5" fill="#059669" fill-opacity="0.9"/>
<circle cx="573.64" cy="95.25" r="4.5" fill="#059669" fill-opacity="0.9"/>
<circle cx="582.12" cy="95.13" r="4.5" fill="#059669" fill-opacity="0.9"/>
<circle cx="590.61" cy="94.92" r="4.5" fill="#059669" fill-opacity="0.9"/>
<circle cx="599.09" cy="95.23" r="4.5" fill="#059669" fill-opacity="0.9"/>
<circle cx="607.58" cy="95.04" r="4.5" fill="#059669" fill-opacity="0.9"/>
<circle cx="616.06" cy="94.94" r="4.5" fill="#059669" fill-opacity="0.9"/>
<circle cx="624.55" cy="94.94" r="4.5" fill="#059669" fill-opacity="0.9"/>
<circle cx="633.03" cy="94.80" r="4.5" fill="#059669" fill-opacity="0.9"/>
<circle cx="641.52" cy="95.38" r="4.5" fill="#059669" fill-opacity="0.9"/>
<circle cx="650.00" cy="95.64" r="4.5" fill="#059669" fill-opacity="0.9"/>
<circle cx="658.48" cy="94.84" r="4.5" fill="#059669" fill-opacity="0.9"/>
<circle cx="666.97" cy="94.87" r="4.5" fill="#059669" fill-opacity="0.9"/>
<circle cx="675.45" cy="95.47" r="4.5" fill="#059669" fill-opacity="0.9"/>
<circle cx="683.94" cy="95.06" r="4.5" fill="#059669" fill-opacity="0.9"/>
<circle cx="692.42" cy="94.77" r="4.5" fill="#059669" fill-opacity="0.9"/>
<circle cx="700.91" cy="94.51" r="4.5" fill="#059669" fill-opacity="0.9"/>
<circle cx="709.39" cy="94.46" r="4.5" fill="#059669" fill-opacity="0.9"/>
<circle cx="717.88" cy="94.46" r="4.5" fill="#059669" fill-opacity="0.9"/>
<circle cx="726.36" cy="94.89" r="4.5" fill="#059669" fill-opacity="0.9"/>
<circle cx="734.85" cy="94.55" r="4.5" fill="#059669" fill-opacity="0.9"/>
<circle cx="743.33" cy="94.43" r="4.5" fill="#059669" fill-opacity="0.9"/>
<circle cx="751.82" cy="94.72" r="4.5" fill="#059669" fill-opacity="0.9"/>
<circle cx="760.30" cy="95.18" r="4.5" fill="#059669" fill-opacity="0.9"/>
<circle cx="768.79" cy="94.89" r="4.5" fill="#059669" fill-opacity="0.9"/>
<circle cx="777.27" cy="94.84" r="4.5" fill="#059669" fill-opacity="0.9"/>
<circle cx="785.76" cy="95.01" r="4.5" fill="#059669" fill-opacity="0.9"/>
<circle cx="794.24" cy="94.80" r="4.5" fill="#059669" fill-opacity="0.9"/>
<circle cx="802.73" cy="95.62" r="4.5" fill="#059669" fill-opacity="0.9"/>
<circle cx="811.21" cy="95.16" r="4.5" fill="#059669" fill-opacity="0.9"/>
<circle cx="819.70" cy="95.13" r="4.5" fill="#059669" fill-opacity="0.9"/>
<circle cx="828.18" cy="95.11" r="4.5" fill="#059669" fill-opacity="0.9"/>
<circle cx="836.67" cy="95.42" r="4.5" fill="#059669" fill-opacity="0.9"/>
<circle cx="845.15" cy="94.92" r="4.5" fill="#059669" fill-opacity="0.9"/>
<circle cx="853.64" cy="94.58" r="4.5" fill="#059669" fill-opacity="0.9"/>
<circle cx="862.12" cy="94.48" r="4.5" fill="#059669" fill-opacity="0.9"/>
<circle cx="870.61" cy="95.54" r="4.5" fill="#059669" fill-opacity="0.9"/>
<circle cx="879.09" cy="95.11" r="4.5" fill="#059669" fill-opacity="0.9"/>
<circle cx="887.58" cy="94.87" r="4.5" fill="#059669" fill-opacity="0.9"/>
<circle cx="896.06" cy="94.96" r="4.5" fill="#059669" fill-opacity="0.9"/>
<circle cx="904.55" cy="94.63" r="4.5" fill="#059669" fill-opacity="0.9"/>
<circle cx="913.03" cy="94.34" r="4.5" fill="#059669" fill-opacity="0.9"/>
<circle cx="921.52" cy="95.81" r="4.5" fill="#059669" fill-opacity="0.9"/>
<circle cx="930.00" cy="94.82" r="4.5" fill="#059669" fill-opacity="0.9"/>
<rect x="270" y="32" width="18" height="6" fill="#059669"/>
<text x="294" y="38" font-size="13" fill="#333333">test</text>
</svg>