<svg xmlns="http://www.w3.org/2000/svg" width="960" height="540">
<rect width="100%" height="100%" fill="#ffffff"/>
<text x="480.0" y="30" font-size="22" text-anchor="middle" fill="#111111">Edit Distance</text>
<text x="20" y="270.0" font-size="16" transform="rotate(-90 20,270.0)" text-anchor="middle" fill="#333333">Distance</text>
<text x="480.0" y="520" font-size="16" text-anchor="middle" fill="#333333">Epoch</text>
<line x1="90" y1="60" x2="90" y2="470" stroke="#333333" stroke-width="2"/>
<line x1="90" y1="470" x2="930" y2="470" stroke="#333333" stroke-width="2"/>
<line x1="90" y1="470.00" x2="930" y2="470.00" stroke="#e5e7eb" stroke-width="1"/>
<text x="80" y="475.00" font-size="12" text-anchor="end" fill="#555555">-0.4426</text>
<line x1="90" y1="367.50" x2="930" y2="367.50" stroke="#e5e7eb" stroke-width="1"/>
<text x="80" y="372.50" font-size="12" text-anchor="end" fill="#555555">1.0024</text>
<line x1="90" y1="265.00" x2="930" y2="265.00" stroke="#e5e7eb" stroke-width="1"/>
<text x="80" y="270.00" font-size="12" text-anchor="end" fill="#555555">2.4473</text>
<line x1="90" y1="162.50" x2="930" y2="162.50" stroke="#e5e7eb" stroke-width="1"/>
<text x="80" y="167.50" font-size="12" text-anchor="end" fill="#555555">3.8922</text>
<line x1="90" y1="60.00" x2="930" y2="60.00" stroke="#e5e7eb" stroke-width="1"/>
<text x="80" y="65.00" font-size="12" text-anchor="end" fill="#555555">5.3372</text>
<line x1="90.00" y1="60" x2="90.00" y2="470" stroke="#f3f4f6" stroke-width="1"/>
<text x="90.00" y="492" font-size="12" text-anchor="middle" fill="#555555">1</text>
<line x1="98.48" y1="60" x2="98.48" y2="470" stroke="#f3f4f6" stroke-width="1"/>
<text x="98.48" y="492" font-size="12" text-anchor="middle" fill="#555555">2</text>
<line x1="106.97" y1="60" x2="106.97" y2="470" stroke="#f3f4f6" stroke-width="1"/>
<text x="106.97" y="492" font-size="12" text-anchor="middle" fill="#555555">3</text>
<line x1="115.45" y1="60" x2="115.45" y2="470" stroke="#f3f4f6" stroke-width="1"/>
<text x="115.45" y="492" font-size="12" text-anchor="middle" fill="#555555">4</text>
<line x1="123.94" y1="60" x2="123.94" y2="470" stroke="#f3f4f6" stroke-width="1"/>
<text x="123.94" y="492" font-size="12" text-anchor="middle" fill="#555555">5</text>
<line x1="132.42" y1="60" x2="132.42" y2="470" stroke="#f3f4f6" stroke-width="1"/>
<text x="132.42" y="492" font-size="12" text-anchor="middle" fill="#555555">6</text>
<line x1="140.91" y1="60" x2="140.91" y2="470" stroke="#f3f4f6" stroke-width="1"/>
<text x="140.91" y="492" font-size="12" text-anchor="middle" fill="#555555">7</text>
<line x1="149.39" y1="60" x2="149.39" y2="470" stroke="#f3f4f6" stroke-width="1"/>
<text x="149.39" y="492" font-size="12" text-anchor="middle" fill="#555555">8</text>
<line x1="157.88" y1="60" x2="157.88" y2="470" stroke="#f3f4f6" stroke-width="1"/>
<text x="157.88" y="492" font-size="12" text-anchor="middle" fill="#555555">9</text>
<line x1="166.36" y1="60" x2="166.36" y2="470" stroke="#f3f4f6" stroke-width="1"/>
<text x="166.36" y="492" font-size="12" text-anchor="middle" fill="#555555">10</text>
<line x1="174.85" y1="60" x2="174.85" y2="470" stroke="#f3f4f6" stroke-width="1"/>
<text x="174.85" y="492" font-size="12" text-anchor="middle" fill="#555555">11</text>
<line x1="183.33" y1="60" x2="183.33" y2="470" stroke="#f3f4f6" stroke-width="1"/>
<text x="183.33" y="492" font-size="12" text-anchor="middle" fill="#555555">12</text>
<line x1="191.82" y1="60" x2="191.82" y2="470" stroke="#f3f4f6" stroke-width="1"/>
<text x="191.82" y="492" font-size="12" text-anchor="middle" fill="#555555">13</text>
<line x1="200.30" y1="60" x2="200.30" y2="470" stroke="#f3f4f6" stroke-width="1"/>
<text x="200.30" y="492" font-size="12" text-anchor="middle" fill="#555555">14</text>
<line x1="208.79" y1="60" x2="208.79" y2="470" stroke="#f3f4f6" stroke-width="1"/>
<text x="208.79" y="492" font-size="12" text-anchor="middle" fill="#555555">15</text>
<line x1="217.27" y1="60" x2="217.27" y2="470" stroke="#f3f4f6" stroke-width="1"/>
<text x="217.27" y="492" font-size="12" text-anchor="middle" fill="#555555">16</text>
<line x1="225.76" y1="60" x2="225.76" y2="470" stroke="#f3f4f6" stroke-width="1"/>
<text x="225.76" y="492" font-size="12" text-anchor="middle" fill="#555555">17</text>
<line x1="234.24" y1="60" x2="234.24" y2="470" stroke="#f3f4f6" stroke-width="1"/>
<text x="234.24" y="492" font-size="12" text-anchor="middle" fill="#555555">18</text>
<line x1="242.73" y1="60" x2="242.73" y2="470" stroke="#f3f4f6" stroke-width="1"/>
<text x="242.73" y="492" font-size="12" text-anchor="middle" fill="#555555">19</text>
<line x1="251.21" y1="60" x2="251.21" y2="470" stroke="#f3f4f6" stroke-width="1"/>
<text x="251.21" y="492" font-size="12" text-anchor="middle" fill="#555555">20</text>
<line x1="259.70" y1="60" x2="259.70" y2="470" stroke="#f3f4f6" stroke-width="1"/>
<text x="259.70" y="492" font-size="12" text-anchor="middle" fill="#555555">21</text>
<line x1="268.18" y1="60" x2="268.18" y2="470" stroke="#f3f4f6" stroke-width="1"/>
<text x="268.18" y="492" font-size="12" text-anchor="middle" fill="#555555">22</text>
<line x1="276.67" y1="60" x2="276.67" y2="470" stroke="#f3f4f6" stroke-width="1"/>
<text x="276.67" y="492" font-size="12" text-anchor="middle" fill="#555555">23</text>
<line x1="285.15" y1="60" x2="285.15" y2="470" stroke="#f3f4f6" stroke-width="1"/>
<text x="285.15" y="492" font-size="12" text-anchor="middle" fill="#555555">24</text>
<line x1="293.64" y1="60" x2="293.64" y2="470" stroke="#f3f4f6" stroke-width="1"/>
<text x="293.64" y="492" font-size="12" text-anchor="middle" fill="#555555">25</text>
<line x1="302.12" y1="60" x2="302.12" y2="470" stroke="#f3f4f6" stroke-width="1"/>
<text x="302.12" y="492" font-size="12" text-anchor="middle" fill="#555555">26</text>
<line x1="310.61" y1="60" x2="310.61" y2="470" stroke="#f3f4f6" stroke-width="1"/>
<text x="310.61" y="492" font-size="12" text-anchor="middle" fill="#555555">27</text>
<line x1="319.09" y1="60" x2="319.09" y2="470" stroke="#f3f4f6" stroke-width="1"/>
<text x="319.09" y="492" font-size="12" text-anchor="middle" fill="#555555">28</text>
<line x1="327.58" y1="60" x2="327.58" y2="470" stroke="#f3f4f6" stroke-width="1"/>
<text x="327.58" y="492" font-size="12" text-anchor="middle" fill="#555555">29</text>
<line x1="336.06" y1="60" x2="336.06" y2="470" stroke="#f3f4f6" stroke-width="1"/>
<text x="336.06" y="492" font-size="12" text-anchor="middle" fill="#555555">30</text>
<line x1="344.55" y1="60" x2="344.55" y2="470" stroke="#f3f4f6" stroke-width="1"/>
<text x="344.55" y="492" font-size="12" text-anchor="middle" fill="#555555">31</text>
<line x1="353.03" y1="60" x2="353.03" y2="470" stroke="#f3f4f6" stroke-width="1"/>
<text x="353.03" y="492" font-size="12" text-anchor="middle" fill="#555555">32</text>
<line x1="361.52" y1="60" x2="361.52" y2="470" stroke="#f3f4f6" stroke-width="1"/>
<text x="361.52" y="492" font-size="12" text-anchor="middle" fill="#555555">33</text>
<line x1="370.00" y1="60" x2="370.00" y2="470" stroke="#f3f4f6" stroke-width="1"/>
<text x="370.00" y="492" font-size="12" text-anchor="middle" fill="#555555">34</text>
<line x1="378.48" y1="60" x2="378.48" y2="470" stroke="#f3f4f6" stroke-width="1"/>
<text x="378.48" y="492" font-size="12" text-anchor="middle" fill="#555555">35</text>
<line x1="386.97" y1="60" x2="386.97" y2="470" stroke="#f3f4f6" stroke-width="1"/>
<text x="386.97" y="492" font-size="12" text-anchor="middle" fill="#555555">36</text>
<line x1="395.45" y1="60" x2="395.45" y2="470" stroke="#f3f4f6" stroke-width="1"/>
<text x="395.45" y="492" font-size="12" text-anchor="middle" fill="#555555">37</text>
<line x1="403.94" y1="60" x2="403.94" y2="470" stroke="#f3f4f6" stroke-width="1"/>
<text x="403.94" y="492" font-size="12" text-anchor="middle" fill="#555555">38</text>
<line x1="412.42" y1="60" x2="412.42" y2="470" stroke="#f3f4f6" stroke-width="1"/>
<text x="412.42" y="492" font-size="12" text-anchor="middle" fill="#555555">39</text>
<line x1="420.91" y1="60" x2="420.91" y2="470" stroke="#f3f4f6" stroke-width="1"/>
<text x="420.91" y="492" font-size="12" text-anchor="middle" fill="#555555">40</text>
<line x1="429.39" y1="60" x2="429.39" y2="470" stroke="#f3f4f6" stroke-width="1"/>
<text x="429.39" y="492" font-size="12" text-anchor="middle" fill="#555555">41</text>
<line x1="437.88" y1="60" x2="437.88" y2="470" stroke="#f3f4f6" stroke-width="1"/>
<text x="437.88" y="492" font-size="12" text-anchor="middle" fill="#555555">42</text>
<line x1="446.36" y1="60" x2="446.36" y2="470" stroke="#f3f4f6" stroke-width="1"/>
<text x="446.36" y="492" font-size="12" text-anchor="middle" fill="#555555">43</text>
<line x1="454.85" y1="60" x2="454.85" y2="470" stroke="#f3f4f6" stroke-width="1"/>
<text x="454.85" y="492" font-size="12" text-anchor="middle" fill="#555555">44</text>
<line x1="463.33" y1="60" x2="463.33" y2="470" stroke="#f3f4f6" stroke-width="1"/>
<text x="463.33" y="492" font-size="12" text-anchor="middle" fill="#555555">45</text>
<line x1="471.82" y1="60" x2="471.82" y2="470" stroke="#f3f4f6" stroke-width="1"/>
<text x="471.82" y="492" font-size="12" text-anchor="middle" fill="#555555">46</text>
<line x1="480.30" y1="60" x2="480.30" y2="470" stroke="#f3f4f6" stroke-width="1"/>
<text x="480.30" y="492" font-size="12" text-anchor="middle" fill="#555555">47</text>
<line x1="488.79" y1="60" x2="488.79" y2="470" stroke="#f3f4f6" stroke-width="1"/>
<text x="488.79" y="492" font-size="12" text-anchor="middle" fill="#555555">48</text>
<line x1="497.27" y1="60" x2="497.27" y2="470" stroke="#f3f4f6" stroke-width="1"/>
<text x="497.27" y="492" font-size="12" text-anchor="middle" fill="#555555">49</text>
<line x1="505.76" y1="60" x2="505.76" y2="470" stroke="#f3f4f6" stroke-width="1"/>
<text x="505.76" y="492" font-size="12" text-anchor="middle" fill="#555555">50</text>
<line x1="514.24" y1="60" x2="514.24" y2="470" stroke="#f3f4f6" stroke-width="1"/>
<text x="514.24" y="492" font-size="12" text-anchor="middle" fill="#555555">51</text>
<line x1="522.73" y1="60" x2="522.73" y2="470" stroke="#f3f4f6" stroke-width="1"/>
<text x="522.73" y="492" font-size="12" text-anchor="middle" fill="#555555">52</text>
<line x1="531.21" y1="60" x2="531.21" y2="470" stroke="#f3f4f6" stroke-width="1"/>
<text x="531.21" y="492" font-size="12" text-anchor="middle" fill="#555555">53</text>
<line x1="539.70" y1="60" x2="539.70" y2="470" stroke="#f3f4f6" stroke-width="1"/>
<text x="539.70" y="492" font-size="12" text-anchor="middle" fill="#555555">54</text>
<line x1="548.18" y1="60" x2="548.18" y2="470" stroke="#f3f4f6" stroke-width="1"/>
<text x="548.18" y="492" font-size="12" text-anchor="middle" fill="#555555">55</text>
<line x1="556.67" y1="60" x2="556.67" y2="470" stroke="#f3f4f6" stroke-width="1"/>
<text x="556.67" y="492" font-size="12" text-anchor="middle" fill="#555555">56</text>
<line x1="565.15" y1="60" x2="565.15" y2="470" stroke="#f3f4f6" stroke-width="1"/>
<text x="565.15" y="492" font-size="12" text-anchor="middle" fill="#555555">57</text>
<line x1="573.64" y1="60" x2="573.64" y2="470" stroke="#f3f4f6" stroke-width="1"/>
<text x="573.64" y="492" font-size="12" text-anchor="middle" fill="#555555">58</text>
<line x1="582.12" y1="60" x2="582.12" y2="470" stroke="#f3f4f6" stroke-width="1"/>
<text x="582.12" y="492" font-size="12" text-anchor="middle" fill="#555555">59</text>
<line x1="590.61" y1="60" x2="590.61" y2="470" stroke="#f3f4f6" stroke-width="1"/>
<text x="590.61" y="492" font-size="12" text-anchor="middle" fill="#555555">60</text>
<line x1="599.09" y1="60" x2="599.09" y2="470" stroke="#f3f4f6" stroke-width="1"/>
<text x="599.09" y="492" font-size="12" text-anchor="middle" fill="#555555">61</text>
<line x1="607.58" y1="60" x2="607.58" y2="470" stroke="#f3f4f6" stroke-width="1"/>
<text x="607.58" y="492" font-size="12" text-anchor="middle" fill="#555555">62</text>
<line x1="616.06" y1="60" x2="616.06" y2="470" stroke="#f3f4f6" stroke-width="1"/>
<text x="616.06" y="492" font-size="12" text-anchor="middle" fill="#555555">63</text>
<line x1="624.55" y1="60" x2="624.55" y2="470" stroke="#f3f4f6" stroke-width="1"/>
<text x="624.55" y="492" font-size="12" text-anchor="middle" fill="#555555">64</text>
<line x1="633.03" y1="60" x2="633.03" y2="470" stroke="#f3f4f6" stroke-width="1"/>
<text x="633.03" y="492" font-size="12" text-anchor="middle" fill="#555555">65</text>
<line x1="641.52" y1="60" x2="641.52" y2="470" stroke="#f3f4f6" stroke-width="1"/>
<text x="641.52" y="492" font-size="12" text-anchor="middle" fill="#555555">66</text>
<line x1="650.00" y1="60" x2="650.00" y2="470" stroke="#f3f4f6" stroke-width="1"/>
<text x="650.00" y="492" font-size="12" text-anchor="middle" fill="#555555">67</text>
<line x1="658.48" y1="60" x2="658.48" y2="470" stroke="#f3f4f6" stroke-width="1"/>
<text x="658.48" y="492" font-size="12" text-anchor="middle" fill="#555555">68</text>
<line x1="666.97" y1="60" x2="666.97" y2="470" stroke="#f3f4f6" stroke-width="1"/>
<text x="666.97" y="492" font-size="12" text-anchor="middle" fill="#555555">69</text>
<line x1="675.45" y1="60" x2="675.45" y2="470" stroke="#f3f4f6" stroke-width="1"/>
<text x="675.45" y="492" font-size="12" text-anchor="middle" fill="#555555">70</text>
<line x1="683.94" y1="60" x2="683.94" y2="470" stroke="#f3f4f6" stroke-width="1"/>
<text x="683.94" y="492" font-size="12" text-anchor="middle" fill="#555555">71</text>
<line x1="692.42" y1="60" x2="692.42" y2="470" stroke="#f3f4f6" stroke-width="1"/>
<text x="692.42" y="492" font-size="12" text-anchor="middle" fill="#555555">72</text>
<line x1="700.91" y1="60" x2="700.91" y2="470" stroke="#f3f4f6" stroke-width="1"/>
<text x="700.91" y="492" font-size="12" text-anchor="middle" fill="#555555">73</text>
<line x1="709.39" y1="60" x2="709.39" y2="470" stroke="#f3f4f6" stroke-width="1"/>
<text x="709.39" y="492" font-size="12" text-anchor="middle" fill="#555555">74</text>
<line x1="717.88" y1="60" x2="717.88" y2="470" stroke="#f3f4f6" stroke-width="1"/>
<text x="717.88" y="492" font-size="12" text-anchor="middle" fill="#555555">75</text>
<line x1="726.36" y1="60" x2="726.36" y2="470" stroke="#f3f4f6" stroke-width="1"/>
<text x="726.36" y="492" font-size="12" text-anchor="middle" fill="#555555">76</text>
<line x1="734.85" y1="60" x2="734.85" y2="470" stroke="#f3f4f6" stroke-width="1"/>
<text x="734.85" y="492" font-size="12" text-anchor="middle" fill="#555555">77</text>
<line x1="743.33" y1="60" x2="743.33" y2="470" stroke="#f3f4f6" stroke-width="1"/>
<text x="743.33" y="492" font-size="12" text-anchor="middle" fill="#555555">78</text>
<line x1="751.82" y1="60" x2="751.82" y2="470" stroke="#f3f4f6" stroke-width="1"/>
<text x="751.82" y="492" font-size="12" text-anchor="middle" fill="#555555">79</text>
<line x1="760.30" y1="60" x2="760.30" y2="470" stroke="#f3f4f6" stroke-width="1"/>
<text x="760.30" y="492" font-size="12" text-anchor="middle" fill="#555555">80</text>
<line x1="768.79" y1="60" x2="768.79" y2="470" stroke="#f3f4f6" stroke-width="1"/>
<text x="768.79" y="492" font-size="12" text-anchor="middle" fill="#555555">81</text>
<line x1="777.27" y1="60" x2="777.27" y2="470" stroke="#f3f4f6" stroke-width="1"/>
<text x="777.27" y="492" font-size="12" text-anchor="middle" fill="#555555">82</text>
<line x1="785.76" y1="60" x2="785.76" y2="470" stroke="#f3f4f6" stroke-width="1"/>
<text x="785.76" y="492" font-size="12" text-anchor="middle" fill="#555555">83</text>
<line x1="794.24" y1="60" x2="794.24" y2="470" stroke="#f3f4f6" stroke-width="1"/>
<text x="794.24" y="492" font-size="12" text-anchor="middle" fill="#555555">84</text>
<line x1="802.73" y1="60" x2="802.73" y2="470" stroke="#f3f4f6" stroke-width="1"/>
<text x="802.73" y="492" font-size="12" text-anchor="middle" fill="#555555">85</text>
<line x1="811.21" y1="60" x2="811.21" y2="470" stroke="#f3f4f6" stroke-width="1"/>
<text x="811.21" y="492" font-size="12" text-anchor="middle" fill="#555555">86</text>
<line x1="819.70" y1="60" x2="819.70" y2="470" stroke="#f3f4f6" stroke-width="1"/>
<text x="819.70" y="492" font-size="12" text-anchor="middle" fill="#555555">87</text>
<line x1="828.18" y1="60" x2="828.18" y2="470" stroke="#f3f4f6" stroke-width="1"/>
<text x="828.18" y="492" font-size="12" text-anchor="middle" fill="#555555">88</text>
<line x1="836.67" y1="60" x2="836.67" y2="470" stroke="#f3f4f6" stroke-width="1"/>
<text x="836.67" y="492" font-size="12" text-anchor="middle" fill="#555555">89</text>
<line x1="845.15" y1="60" x2="845.15" y2="470" stroke="#f3f4f6" stroke-width="1"/>
<text x="845.15" y="492" font-size="12" text-anchor="middle" fill="#555555">90</text>
<line x1="853.64" y1="60" x2="853.64" y2="470" stroke="#f3f4f6" stroke-width="1"/>
<text x="853.64" y="492" font-size="12" text-anchor="middle" fill="#555555">91</text>
<line x1="862.12" y1="60" x2="862.12" y2="470" stroke="#f3f4f6" stroke-width="1"/>
<text x="862.12" y="492" font-size="12" text-anchor="middle" fill="#555555">92</text>
<line x1="870.61" y1="60" x2="870.61" y2="470" stroke="#f3f4f6" stroke-width="1"/>
<text x="870.61" y="492" font-size="12" text-anchor="middle" fill="#555555">93</text>
<line x1="879.09" y1="60" x2="879.09" y2="470" stroke="#f3f4f6" stroke-width="1"/>
<text x="879.09" y="492" font-size="12" text-anchor="middle" fill="#555555">94</text>
<line x1="887.58" y1="60" x2="887.58" y2="470" stroke="#f3f4f6" stroke-width="1"/>
<text x="887.58" y="492" font-size="12" text-anchor="middle" fill="#555555">95</text>
<line x1="896.06" y1="60" x2="896.06" y2="470" stroke="#f3f4f6" stroke-width="1"/>
<text x="896.06" y="492" font-size="12" text-anchor="middle" fill="#555555">96</text>
<line x1="904.55" y1="60" x2="904.55" y2="470" stroke="#f3f4f6" stroke-width="1"/>
<text x="904.55" y="492" font-size="12" text-anchor="middle" fill="#555555">97</text>
<line x1="913.03" y1="60" x2="913.03" y2="470" stroke="#f3f4f6" stroke-width="1"/>
<text x="913.03" y="492" font-size="12" text-anchor="middle" fill="#555555">98</text>
<line x1="921.52" y1="60" x2="921.52" y2="470" stroke="#f3f4f6" stroke-width="1"/>
<text x="921.52" y="492" font-size="12" text-anchor="middle" fill="#555555">99</text>
<line x1="930.00" y1="60" x2="930.00" y2="470" stroke="#f3f4f6" stroke-width="1"/>
<text x="930.00" y="492" font-size="12" text-anchor="middle" fill="#555555">100</text>
<polyline fill="none" stroke="#d97706" stroke-width="3" points="90.00,406.09 98.48,393.46 106.97,375.14 115.45,431.27 123.94,428.93 132.42,430.75 140.91,426.79 149.39,344.67 157.88,432.91 166.36,412.56 174.85,432.58 183.33,433.51 191.82,433.25 200.30,432.81 208.79,431.43 217.27,422.50 225.76,434.34 234.24,434.29 242.73,434.57 251.21,433.82 259.70,94.26 268.18,94.17 276.67,94.69 285.15,95.40 293.64,386.67 302.12,360.18 310.61,408.40 319.09,404.70 327.58,97.31 336.06,96.61 344.55,430.61 353.03,422.73 361.52,385.32 370.00,406.30 378.48,409.80 386.97,428.15 395.45,417.52 403.94,413.28 412.42,383.07 420.91,411.01 429.39,372.35 437.88,417.74 446.36,372.07 454.85,427.41 463.33,415.66 471.82,412.33 480.30,421.24 488.79,411.83 497.27,375.94 505.76,416.51 514.24,435.32 522.73,435.51 531.21,435.60 539.70,435.63 548.18,435.72 556.67,435.57 565.15,435.72 573.64,435.34 582.12,435.55 590.61,435.63 599.09,435.65 607.58,435.24 616.06,435.73 624.55,435.54 633.03,434.98 641.52,435.46 650.00,435.83 658.48,435.72 666.97,435.79 675.45,435.39 683.94,435.54 692.42,435.44 700.91,434.66 709.39,434.98 717.88,435.29 726.36,435.19 734.85,434.42 743.33,435.42 751.82,435.68 760.30,435.61 768.79,435.68 777.27,434.87 785.76,435.61 794.24,435.17 802.73,435.56 811.21,435.77 819.70,435.32 828.18,435.26 836.67,435.31 845.15,435.13 853.64,435.58 862.12,435.56 870.61,435.40 879.09,435.70 887.58,435.61 896.06,435.59 904.55,434.29 913.03,435.68 921.52,435.77 930.00,435.55"/>
<circle cx="90.00" cy="406.09" r="4.5" fill="#d97706" fill-opacity="0.9"/>
<circle cx="98.48" cy="393.46" r="4.5" fill="#d97706" fill-opacity="0.9"/>
<circle cx="106.97" cy="375.14" r="4.5" fill="#d97706" fill-opacity="0.9"/>
<circle cx="115.45" cy="431.27" r="4.5" fill="#d97706" fill-opacity="0.9"/>
<circle cx="123.94" cy="428.93" r="4.5" fill="#d97706" fill-opacity="0.9"/>
<circle cx="132.42" cy="430.75" r="4.5" fill="#d97706" fill-opacity="0.9"/>
<circle cx="140.91" cy="426.79" r="4.5" fill="#d97706" fill-opacity="0.9"/>
<circle cx="149.39" cy="344.67" r="4.5" fill="#d97706" fill-opacity="0.9"/>
<circle cx="157.88" cy="432.91" r="4.5" fill="#d97706" fill-opacity="0.9"/>
<circle cx="166.36" cy="412.56" r="4.5" fill="#d97706" fill-opacity="0.9"/>
<circle cx="174.85" cy="432.58" r="4.5" fill="#d97706" fill-opacity="0.9"/>
<circle cx="183.33" cy="433.51" r="4.5" fill="#d97706" fill-opacity="0.9"/>
<circle cx="191.82" cy="433.25" r="4.5" fill="#d97706" fill-opacity="0.9"/>
<circle cx="200.30" cy="432.81" r="4.5" fill="#d97706" fill-opacity="0.9"/>
<circle cx="208.79" cy="431.43" r="4.5" fill="#d97706" fill-opacity="0.9"/>
<circle cx="217.27" cy="422.50" r="4.5" fill="#d97706" fill-opacity="0.9"/>
<circle cx="225.76" cy="434.34" r="4.5" fill="#d97706" fill-opacity="0.9"/>
<circle cx="234.24" cy="434.29" r="4.5" fill="#d97706" fill-opacity="0.9"/>
<circle cx="242.73" cy="434.57" r="4.5" fill="#d97706" fill-opacity="0.9"/>
<circle cx="251.21" cy="433.82" r="4.5" fill="#d97706" fill-opacity="0.9"/>
<circle cx="259.70" cy="94.26" r="4.5" fill="#d97706" fill-opacity="0.9"/>
<circle cx="268.18" cy="94.17" r="4.5" fill="#d97706" fill-opacity="0.9"/>
<circle cx="276.67" cy="94.69" r="4.5" fill="#d97706" fill-opacity="0.9"/>
<circle cx="285.15" cy="95.40" r="4.5" fill="#d97706" fill-opacity="0.9"/>
<circle cx="293.64" cy="386.67" r="4.5" fill="#d97706" fill-opacity="0.9"/>
<circle cx="302.12" cy="360.18" r="4.5" fill="#d97706" fill-opacity="0.9"/>
<circle cx="310.61" cy="408.40" r="4.5" fill="#d97706" fill-opacity="0.9"/>
<circle cx="319.09" cy="404.70" r="4.5" fill="#d97706" fill-opacity="0.9"/>
<circle cx="327.58" cy="97.31" r="4.5" fill="#d97706" fill-opacity="0.9"/>
<circle cx="336.06" cy="96.61" r="4.5" fill="#d97706" fill-opacity="0.9"/>
<circle cx="344.55" cy="430.61" r="4.5" fill="#d97706" fill-opacity="0.9"/>
<circle cx="353.03" cy="422.73" r="4.5" fill="#d97706" fill-opacity="0.9"/>
<circle cx="361.52" cy="385.32" r="4.5" fill="#d97706" fill-opacity="0.9"/>
<circle cx="370.00" cy="406.30" r="4.5" fill="#d97706" fill-opacity="0.9"/>
<circle cx="378.48" cy="409.80" r="4.5" fill="#d97706" fill-opacity="0.9"/>
<circle cx="386.97" cy="428.15" r="4.5" fill="#d97706" fill-opacity="0.9"/>
<circle cx="395.45" cy="417.52" r="4.5" fill="#d97706" fill-opacity="0.9"/>
<circle cx="403.94" cy="413.28" r="4.5" fill="#d97706" fill-opacity="0.9"/>
<circle cx="412.42" cy="383.07" r="4.5" fill="#d97706" fill-opacity="0.9"/>
<circle cx="420.91" cy="411.01" r="4.5" fill="#d97706" fill-opacity="0.9"/>
<circle cx="429.39" cy="372.35" r="4.5" fill="#d97706" fill-opacity="0.9"/>
<circle cx="437.88" cy="417.74" r="4.5" fill="#d97706" fill-opacity="0.9"/>
<circle cx="446.36" cy="372.07" r="4.5" fill="#d97706" fill-opacity="0.9"/>
<circle cx="454.85" cy="427.41" r="4.5" fill="#d97706" fill-opacity="0.9"/>
<circle cx="463.33" cy="415.66" r="4.5" fill="#d97706" fill-opacity="0.9"/>
<circle cx="471.82" cy="412.33" r="4.5" fill="#d97706" fill-opacity="0.9"/>
<circle cx="480.30" cy="421.24" r="4.5" fill="#d97706" fill-opacity="0.9"/>
<circle cx="488.79" cy="411.83" r="4.5" fill="#d97706" fill-opacity="0.9"/>
<circle cx="497.27" cy="375.94" r="4.5" fill="#d97706" fill-opacity="0.9"/>
<circle cx="505.76" cy="416.51" r="4.5" fill="#d97706" fill-opacity="0.9"/>
<circle cx="514.24" cy="435.32" r="4.5" fill="#d97706" fill-opacity="0.9"/>
<circle cx="522.73" cy="435.51" r="4.5" fill="#d97706" fill-opacity="0.9"/>
<circle cx="531.21" cy="435.60" r="4.5" fill="#d97706" fill-opacity="0.9"/>
<circle cx="539.70" cy="435.63" r="4.5" fill="#d97706" fill-opacity="0.9"/>
<circle cx="548.18" cy="435.72" r="4.5" fill="#d97706" fill-opacity="0.9"/>
<circle cx="556.67" cy="435.57" r="4.5" fill="#d97706" fill-opacity="0.9"/>
<circle cx="565.15" cy="435.72" r="4.5" fill="#d97706" fill-opacity="0.9"/>
<circle cx="573.64" cy="435.34" r="4.5" fill="#d97706" fill-opacity="0.9"/>
<circle cx="582.12" cy="435.55" r="4.5" fill="#d97706" fill-opacity="0.9"/>
<circle cx="590.61" cy="435.63" r="4.5" fill="#d97706" fill-opacity="0.9"/>
<circle cx="599.09" cy="435.65" r="4.5" fill="#d97706" fill-opacity="0.9"/>
<circle cx="607.58" cy="435.24" r="4.5" fill="#d97706" fill-opacity="0.9"/>
<circle cx="616.06" cy="435.73" r="4.5" fill="#d97706" fill-opacity="0.9"/>
<circle cx="624.55" cy="435.54" r="4.5" fill="#d97706" fill-opacity="0.9"/>
<circle cx="633.03" cy="434.98" r="4.5" fill="#d97706" fill-opacity="0.9"/>
<circle cx="641.52" cy="435.46" r="4.5" fill="#d97706" fill-opacity="0.9"/>
<circle cx="650.00" cy="435.83" r="4.5" fill="#d97706" fill-opacity="0.9"/>
<circle cx="658.48" cy="435.72" r="4.5" fill="#d97706" fill-opacity="0.9"/>
<circle cx="666.97" cy="435.79" r="4.5" fill="#d97706" fill-opacity="0.9"/>
<circle cx="675.45" cy="435.39" r="4.5" fill="#d97706" fill-opacity="0.9"/>
<circle cx="683.94" cy="435.54" r="4.5" fill="#d97706" fill-opacity="0.9"/>
<circle cx="692.42" cy="435.44" r="4.5" fill="#d97706" fill-opacity="0.9"/>
<circle cx="700.91" cy="434.66" r="4.5" fill="#d97706" fill-opacity="0.9"/>
<circle cx="709.39" cy="434.98" r="4.5" fill="#d97706" fill-opacity="0.9"/>
<circle cx="717.88" cy="435.29" r="4.5" fill="#d97706" fill-opacity="0.9"/>
<circle cx="726.36" cy="435.19" r="4.5" fill="#d97706" fill-opacity="0.9"/>
<circle cx="734.85" cy="434.42" r="4.5" fill="#d97706" fill-opacity="0.9"/>
<circle cx="743.33" cy="435.42" r="4.5" fill="#d97706" fill-opacity="0.9"/>
<circle cx="751.82" cy="435.68" r="4.5" fill="#d97706" fill-opacity="0.9"/>
<circle cx="760.30" cy="435.61" r="4.5" fill="#d97706" fill-opacity="0.9"/>
<circle cx="768.79" cy="435.68" r="4.5" fill="#d97706" fill-opacity="0.9"/>
<circle cx="777.27" cy="434.87" r="4.5" fill="#d97706" fill-opacity="0.9"/>
<circle cx="785.76" cy="435.61" r="4.5" fill="#d97706" fill-opacity="0.9"/>
<circle cx="794.24" cy="435.17" r="4.5" fill="#d97706" fill-opacity="0.9"/>
<circle cx="802.73" cy="435.56" r="4.5" fill="#d97706" fill-opacity="0.9"/>
<circle cx="811.21" cy="435.77" r="4.5" fill="#d97706" fill-opacity="0.9"/>
<circle cx="819.70" cy="435.32" r="4.5" fill="#d97706" fill-opacity="0.9"/>
<circle cx="828.18" cy="435.26" r="4.5" fill="#d97706" fill-opacity="0.9"/>
<circle cx="836.67" cy="435.31" r="4.5" fill="#d97706" fill-opacity="0.9"/>
<circle cx="845.15" cy="435.13" r="4.5" fill="#d97706" fill-opacity="0.9"/>
<circle cx="853.64" cy="435.58" r="4.5" fill="#d97706" fill-opacity="0.9"/>
<circle cx="862.12" cy="435.56" r="4.5" fill="#d97706" fill-opacity="0.9"/>
<circle cx="870.61" cy="435.40" r="4.5" fill="#d97706" fill-opacity="0.9"/>
<circle cx="879.09" cy="435.70" r="4.5" fill="#d97706" fill-opacity="0.9"/>
<circle cx="887.58" cy="435.61" r="4.5" fill="#d97706" fill-opacity="0.9"/>
<circle cx="896.06" cy="435.59" r="4.5" fill="#d97706" fill-opacity="0.9"/>
<circle cx="904.55" cy="434.29" r="4.5" fill="#d97706" fill-opacity="0.9"/>
<circle cx="913.03" cy="435.68" r="4.5" fill="#d97706" fill-opacity="0.9"/>
<circle cx="921.52" cy="435.77" r="4.5" fill="#d97706" fill-opacity="0.9"/>
<circle cx="930.00" cy="435.55" r="4.5" fill="#d97706" fill-opacity="0.9"/>
<rect x="90" y="32" width="18" height="6" fill="#d97706"/>
<text x="114" y="38" font-size="13" fill="#333333">val</text>
<polyline fill="none" stroke="#059669" stroke-width="3" points="90.00,406.14 98.48,393.06 106.97,374.36 115.45,430.97 123.94,428.96 132.42,430.59 140.91,427.01 149.39,344.66 157.88,432.51 166.36,412.21 174.85,432.49 183.33,433.30 191.82,433.43 200.30,432.69 208.79,431.42 217.27,422.62 225.76,434.16 234.24,434.14 242.73,434.56 251.21,433.95 259.70,94.19 268.18,94.61 276.67,95.10 285.15,95.43 293.64,386.35 302.12,359.67 310.61,408.10 319.09,404.83 327.58,97.13 336.06,96.83 344.55,430.43 353.03,422.66 361.52,385.44 370.00,405.66 378.48,409.49 386.97,427.89 395.45,417.12 403.94,413.05 412.42,383.16 420.91,410.92 429.39,373.65 437.88,417.37 446.36,372.50 454.85,427.36 463.33,416.31 471.82,412.44 480.30,421.11 488.79,412.07 497.27,375.32 505.76,415.75 514.24,435.10 522.73,435.31 531.21,435.42 539.70,435.60 548.18,435.51 556.67,435.45 565.15,435.74 573.64,435.28 582.12,435.50 590.61,435.60 599.09,435.69 607.58,435.18 616.06,435.74 624.55,435.55 633.03,434.82 641.52,435.48 650.00,435.75 658.48,435.62 666.97,435.64 675.45,435.23 683.94,435.35 692.42,435.43 700.91,434.51 709.39,435.04 717.88,435.23 726.36,434.99 734.85,434.26 743.33,435.30 751.82,435.70 760.30,435.46 768.79,435.46 777.27,434.69 785.76,435.51 794.24,435.01 802.73,435.31 811.21,435.57 819.70,435.07 828.18,435.13 836.67,435.24 845.15,434.88 853.64,435.68 862.12,435.51 870.61,435.35 879.09,435.69 887.58,435.60 896.06,435.45 904.55,434.12 913.03,435.48 921.52,435.49 930.00,435.49"/>
<circle cx="90.00" cy="406.14" r="4.5" fill="#059669" fill-opacity="0.9"/>
<circle cx="98.48" cy="393.06" r="4.5" fill="#059669" fill-opacity="0.9"/>
<circle cx="106.97" cy="374.36" r="4.5" fill="#059669" fill-opacity="0.9"/>
<circle cx="115.45" cy="430.97" r="4.5" fill="#059669" fill-opacity="0.9"/>
<circle cx="123.94" cy="428.96" r="4.5" fill="#059669" fill-opacity="0.9"/>
<circle cx="132.42" cy="430.59" r="4.5" fill="#059669" fill-opacity="0.9"/>
<circle cx="140.91" cy="427.01" r="4.5" fill="#059669" fill-opacity="0.9"/>
<circle cx="149.39" cy="344.66" r="4.5" fill="#059669" fill-opacity="0.9"/>
<circle cx="157.88" cy="432.51" r="4.5" fill="#059669" fill-opacity="0.9"/>
<circle cx="166.36" cy="412.21" r="4.5" fill="#059669" fill-opacity="0.9"/>
<circle cx="174.85" cy="432.49" r="4.5" fill="#059669" fill-opacity="0.9"/>
<circle cx="183.33" cy="433.30" r="4.5" fill="#059669" fill-opacity="0.9"/>
<circle cx="191.82" cy="433.43" r="4.5" fill="#059669" fill-opacity="0.9"/>
<circle cx="200.30" cy="432.69" r="4.5" fill="#059669" fill-opacity="0.9"/>
<circle cx="208.79" cy="431.42" r="4.5" fill="#059669" fill-opacity="0.9"/>
<circle cx="217.27" cy="422.62" r="4.5" fill="#059669" fill-opacity="0.9"/>
<circle cx="225.76" cy="434.16" r="4.5" fill="#059669" fill-opacity="0.9"/>
<circle cx="234.24" cy="434.14" r="4.5" fill="#059669" fill-opacity="0.9"/>
<circle cx="242.73" cy="434.56" r="4.5" fill="#059669" fill-opacity="0.9"/>
<circle cx="251.21" cy="433.95" r="4.5" fill="#059669" fill-opacity="0.9"/>
<circle cx="259.70" cy="94.19" r="4.5" fill="#059669" fill-opacity="0.9"/>
<circle cx="268.18" cy="94.61" r="4.5" fill="#059669" fill-opacity="0.9"/>
<circle cx="276.67" cy="95.10" r="4.5" fill="#059669" fill-opacity="0.9"/>
<circle cx="285.15" cy="95.43" r="4.5" fill="#059669" fill-opacity="0.9"/>
<circle cx="293.64" cy="386.35" r="4.5" fill="#059669" fill-opacity="0.9"/>
<circle cx="302.12" cy="359.67" r="4.5" fill="#059669" fill-opacity="0.9"/>
<circle cx="310.61" cy="408.10" r="4.5" fill="#059669" fill-opacity="0.9"/>
<circle cx="319.09" cy="404.83" r="4.5" fill="#059669" fill-opacity="0.9"/>
<circle cx="327.58" cy="97.13" r="4.5" fill="#059669" fill-opacity="0.9"/>
<circle cx="336.06" cy="96.83" r="4.5" fill="#059669" fill-opacity="0.9"/>
<circle cx="344.55" cy="430.43" r="4.5" fill="#059669" fill-opacity="0.9"/>
<circle cx="353.03" cy="422.66" r="4.5" fill="#059669" fill-opacity="0.9"/>
<circle cx="361.52" cy="385.44" r="4.5" fill="#059669" fill-opacity="0.9"/>
<circle cx="370.00" cy="405.66" r="4.5" fill="#059669" fill-opacity="0.9"/>
<circle cx="378.48" cy="409.49" r="4.5" fill="#059669" fill-opacity="0.9"/>
<circle cx="386.97" cy="427.89" r="4.5" fill="#059669" fill-opacity="0.9"/>
<circle cx="395.45" cy="417.12" r="4.5" fill="#059669" fill-opacity="0.9"/>
<circle cx="403.94" cy="413.05" r="4.5" fill="#059669" fill-opacity="0.9"/>
<circle cx="412.42" cy="383.16" r="4.5" fill="#059669" fill-opacity="0.9"/>
<circle cx="420.91" cy="410.92" r="4.5" fill="#059669" fill-opacity="0.9"/>
<circle cx="429.39" cy="373.65" r="4.5" fill="#059669" fill-opacity="0.9"/>
<circle cx="437.88" cy="417.37" r="4.5" fill="#059669" fill-opacity="0.9"/>
<circle cx="446.36" cy="372.50" r="4.5" fill="#059669" fill-opacity="0.9"/>
<circle cx="454.85" cy="427.36" r="4.5" fill="#059669" fill-opacity="0.9"/>
<circle cx="463.33" cy="416.31" r="4.5" fill="#059669" fill-opacity="0.9"/>
<circle cx="471.82" cy="412.44" r="4.5" fill="#059669" fill-opacity="0.9"/>
<circle cx="480.30" cy="421.11" r="4.5" fill="#059669" fill-opacity="0.9"/>
<circle cx="488.79" cy="412.07" r="4.5" fill="#059669" fill-opacity="0.9"/>
<circle cx="497.27" cy="375.32" r="4.5" fill="#059669" fill-opacity="0.9"/>
<circle cx="505.76" cy="415.75" r="4.5" fill="#059669" fill-opacity="0.9"/>
<circle cx="514.24" cy="435.10" r="4.5" fill="#059669" fill-opacity="0.9"/>
<circle cx="522.73" cy="435.31" r="4.5" fill="#059669" fill-opacity="0.9"/>
<circle cx="531.21" cy="435.42" r="4.5" fill="#059669" fill-opacity="0.9"/>
<circle cx="539.70" cy="435.60" r="4.5" fill="#059669" fill-opacity="0.9"/>
<circle cx="548.18" cy="435.51" r="4.5" fill="#059669" fill-opacity="0.9"/>
<circle cx="556.67" cy="435.45" r="4.5" fill="#059669" fill-opacity="0.9"/>
<circle cx="565.15" cy="435.74" r="4.5" fill="#059669" fill-opacity="0.9"/>
<circle cx="573.64" cy="435.28" r="4.5" fill="#059669" fill-opacity="0.9"/>
<circle cx="582.12" cy="435.50" r="4.5" fill="#059669" fill-opacity="0.9"/>
<circle cx="590.61" cy="435.60" r="4.5" fill="#059669" fill-opacity="0.9"/>
<circle cx="599.09" cy="435.69" r="4.5" fill="#059669" fill-opacity="0.9"/>
<circle cx="607.58" cy="435.18" r="4.5" fill="#059669" fill-opacity="0.9"/>
<circle cx="616.06" cy="435.74" r="4.5" fill="#059669" fill-opacity="0.9"/>
<circle cx="624.55" cy="435.55" r="4.5" fill="#059669" fill-opacity="0.9"/>
<circle cx="633.03" cy="434.82" r="4.5" fill="#059669" fill-opacity="0.9"/>
<circle cx="641.52" cy="435.48" r="4.5" fill="#059669" fill-opacity="0.9"/>
<circle cx="650.00" cy="435.75" r="4.5" fill="#059669" fill-opacity="0.9"/>
<circle cx="658.48" cy="435.62" r="4.5" fill="#059669" fill-opacity="0.9"/>
<circle cx="666.97" cy="435.64" r="4.5" fill="#059669" fill-opacity="0.9"/>
<circle cx="675.45" cy="435.23" r="4.5" fill="#059669" fill-opacity="0.9"/>
<circle cx="683.94" cy="435.35" r="4.5" fill="#059669" fill-opacity="0.9"/>
<circle cx="692.42" cy="435.43" r="4.5" fill="#059669" fill-opacity="0.9"/>
<circle cx="700.91" cy="434.51" r="4.5" fill="#059669" fill-opacity="0.9"/>
<circle cx="709.39" cy="435.04" r="4.5" fill="#059669" fill-opacity="0.9"/>
<circle cx="717.88" cy="435.23" r="4.5" fill="#059669" fill-opacity="0.9"/>
<circle cx="726.36" cy="434.99" r="4.5" fill="#059669" fill-opacity="0.9"/>
<circle cx="734.85" cy="434.26" r="4.5" fill="#059669" fill-opacity="0.9"/>
<circle cx="743.33" cy="435.30" r="4.5" fill="#059669" fill-opacity="0.9"/>
<circle cx="751.82" cy="435.70" r="4.5" fill="#059669" fill-opacity="0.9"/>
<circle cx="760.30" cy="435.46" r="4.5" fill="#059669" fill-opacity="0.9"/>
<circle cx="768.79" cy="435.46" r="4.5" fill="#059669" fill-opacity="0.9"/>
<circle cx="777.27" cy="434.69" r="4.5" fill="#059669" fill-opacity="0.9"/>
<circle cx="785.76" cy="435.51" r="4.5" fill="#059669" fill-opacity="0.9"/>
<circle cx="794.24" cy="435.01" r="4.5" fill="#059669" fill-opacity="0.9"/>
<circle cx="802.73" cy="435.31" r="4.5" fill="#059669" fill-opacity="0.9"/>
<circle cx="811.21" cy="435.57" r="4.5" fill="#059669" fill-opacity="0.9"/>
<circle cx="819.70" cy="435.07" r="4.5" fill="#059669" fill-opacity="0.9"/>
<circle cx="828.18" cy="435.13" r="4.5" fill="#059669" fill-opacity="0.9"/>
<circle cx="836.67" cy="435.24" r="4.5" fill="#059669" fill-opacity="0.9"/>
<circle cx="845.15" cy="434.88" r="4.5" fill="#059669" fill-opacity="0.9"/>
<circle cx="853.64" cy="435.68" r="4.5" fill="#059669" fill-opacity="0.9"/>
<circle cx="862.12" cy="435.51" r="4.5" fill="#059669" fill-opacity="0.9"/>
<circle cx="870.61" cy="435.35" r="4.5" fill="#059669" fill-opacity="0.9"/>
<circle cx="879.09" cy="435.69" r="4.5" fill="#059669" fill-opacity="0.9"/>
<circle cx="887.58" cy="435.60" r="4.5" fill="#059669" fill-opacity="0.9"/>
<circle cx="896.06" cy="435.45" r="4.5" fill="#059669" fill-opacity="0.9"/>
<circle cx="904.55" cy="434.12" r="4.5" fill="#059669" fill-opacity="0.9"/>
<circle cx="913.03" cy="435.48" r="4.5" fill="#059669" fill-opacity="0.9"/>
<circle cx="921.52" cy="435.49" r="4.5" fill="#059669" fill-opacity="0.9"/>
<circle cx="930.00" cy="435.49" r="4.5" fill="#059669" fill-opacity="0.9"/>
<rect x="270" y="32" width="18" height="6" fill="#059669"/>
<text x="294" y="38" font-size="13" fill="#333333">test</text>
</svg>