<svg xmlns="http://www.w3.org/2000/svg" width="960" height="540">
<rect width="100%" height="100%" fill="#ffffff"/>
<text x="480.0" y="30" font-size="22" text-anchor="middle" fill="#111111">Loss</text>
<text x="20" y="270.0" font-size="16" transform="rotate(-90 20,270.0)" text-anchor="middle" fill="#333333">Loss</text>
<text x="480.0" y="520" font-size="16" text-anchor="middle" fill="#333333">Epoch</text>
<line x1="90" y1="60" x2="90" y2="470" stroke="#333333" stroke-width="2"/>
<line x1="90" y1="470" x2="930" y2="470" stroke="#333333" stroke-width="2"/>
<line x1="90" y1="470.00" x2="930" y2="470.00" stroke="#e5e7eb" stroke-width="1"/>
<text x="80" y="475.00" font-size="12" text-anchor="end" fill="#555555">-26.9177</text>
<line x1="90" y1="367.50" x2="930" y2="367.50" stroke="#e5e7eb" stroke-width="1"/>
<text x="80" y="372.50" font-size="12" text-anchor="end" fill="#555555">53.8633</text>
<line x1="90" y1="265.00" x2="930" y2="265.00" stroke="#e5e7eb" stroke-width="1"/>
<text x="80" y="270.00" font-size="12" text-anchor="end" fill="#555555">134.6444</text>
<line x1="90" y1="162.50" x2="930" y2="162.50" stroke="#e5e7eb" stroke-width="1"/>
<text x="80" y="167.50" font-size="12" text-anchor="end" fill="#555555">215.4255</text>
<line x1="90" y1="60.00" x2="930" y2="60.00" stroke="#e5e7eb" stroke-width="1"/>
<text x="80" y="65.00" font-size="12" text-anchor="end" fill="#555555">296.2065</text>
<line x1="90.00" y1="60" x2="90.00" y2="470" stroke="#f3f4f6" stroke-width="1"/>
<text x="90.00" y="492" font-size="12" text-anchor="middle" fill="#555555">1</text>
<line x1="98.48" y1="60" x2="98.48" y2="470" stroke="#f3f4f6" stroke-width="1"/>
<text x="98.48" y="492" font-size="12" text-anchor="middle" fill="#555555">2</text>
<line x1="106.97" y1="60" x2="106.97" y2="470" stroke="#f3f4f6" stroke-width="1"/>
<text x="106.97" y="492" font-size="12" text-anchor="middle" fill="#555555">3</text>
<line x1="115.45" y1="60" x2="115.45" y2="470" stroke="#f3f4f6" stroke-width="1"/>
<text x="115.45" y="492" font-size="12" text-anchor="middle" fill="#555555">4</text>
<line x1="123.94" y1="60" x2="123.94" y2="470" stroke="#f3f4f6" stroke-width="1"/>
<text x="123.94" y="492" font-size="12" text-anchor="middle" fill="#555555">5</text>
<line x1="132.42" y1="60" x2="132.42" y2="470" stroke="#f3f4f6" stroke-width="1"/>
<text x="132.42" y="492" font-size="12" text-anchor="middle" fill="#555555">6</text>
<line x1="140.91" y1="60" x2="140.91" y2="470" stroke="#f3f4f6" stroke-width="1"/>
<text x="140.91" y="492" font-size="12" text-anchor="middle" fill="#555555">7</text>
<line x1="149.39" y1="60" x2="149.39" y2="470" stroke="#f3f4f6" stroke-width="1"/>
<text x="149.39" y="492" font-size="12" text-anchor="middle" fill="#555555">8</text>
<line x1="157.88" y1="60" x2="157.88" y2="470" stroke="#f3f4f6" stroke-width="1"/>
<text x="157.88" y="492" font-size="12" text-anchor="middle" fill="#555555">9</text>
<line x1="166.36" y1="60" x2="166.36" y2="470" stroke="#f3f4f6" stroke-width="1"/>
<text x="166.36" y="492" font-size="12" text-anchor="middle" fill="#555555">10</text>
<line x1="174.85" y1="60" x2="174.85" y2="470" stroke="#f3f4f6" stroke-width="1"/>
<text x="174.85" y="492" font-size="12" text-anchor="middle" fill="#555555">11</text>
<line x1="183.33" y1="60" x2="183.33" y2="470" stroke="#f3f4f6" stroke-width="1"/>
<text x="183.33" y="492" font-size="12" text-anchor="middle" fill="#555555">12</text>
<line x1="191.82" y1="60" x2="191.82" y2="470" stroke="#f3f4f6" stroke-width="1"/>
<text x="191.82" y="492" font-size="12" text-anchor="middle" fill="#555555">13</text>
<line x1="200.30" y1="60" x2="200.30" y2="470" stroke="#f3f4f6" stroke-width="1"/>
<text x="200.30" y="492" font-size="12" text-anchor="middle" fill="#555555">14</text>
<line x1="208.79" y1="60" x2="208.79" y2="470" stroke="#f3f4f6" stroke-width="1"/>
<text x="208.79" y="492" font-size="12" text-anchor="middle" fill="#555555">15</text>
<line x1="217.27" y1="60" x2="217.27" y2="470" stroke="#f3f4f6" stroke-width="1"/>
<text x="217.27" y="492" font-size="12" text-anchor="middle" fill="#555555">16</text>
<line x1="225.76" y1="60" x2="225.76" y2="470" stroke="#f3f4f6" stroke-width="1"/>
<text x="225.76" y="492" font-size="12" text-anchor="middle" fill="#555555">17</text>
<line x1="234.24" y1="60" x2="234.24" y2="470" stroke="#f3f4f6" stroke-width="1"/>
<text x="234.24" y="492" font-size="12" text-anchor="middle" fill="#555555">18</text>
<line x1="242.73" y1="60" x2="242.73" y2="470" stroke="#f3f4f6" stroke-width="1"/>
<text x="242.73" y="492" font-size="12" text-anchor="middle" fill="#555555">19</text>
<line x1="251.21" y1="60" x2="251.21" y2="470" stroke="#f3f4f6" stroke-width="1"/>
<text x="251.21" y="492" font-size="12" text-anchor="middle" fill="#555555">20</text>
<line x1="259.70" y1="60" x2="259.70" y2="470" stroke="#f3f4f6" stroke-width="1"/>
<text x="259.70" y="492" font-size="12" text-anchor="middle" fill="#555555">21</text>
<line x1="268.18" y1="60" x2="268.18" y2="470" stroke="#f3f4f6" stroke-width="1"/>
<text x="268.18" y="492" font-size="12" text-anchor="middle" fill="#555555">22</text>
<line x1="276.67" y1="60" x2="276.67" y2="470" stroke="#f3f4f6" stroke-width="1"/>
<text x="276.67" y="492" font-size="12" text-anchor="middle" fill="#555555">23</text>
<line x1="285.15" y1="60" x2="285.15" y2="470" stroke="#f3f4f6" stroke-width="1"/>
<text x="285.15" y="492" font-size="12" text-anchor="middle" fill="#555555">24</text>
<line x1="293.64" y1="60" x2="293.64" y2="470" stroke="#f3f4f6" stroke-width="1"/>
<text x="293.64" y="492" font-size="12" text-anchor="middle" fill="#555555">25</text>
<line x1="302.12" y1="60" x2="302.12" y2="470" stroke="#f3f4f6" stroke-width="1"/>
<text x="302.12" y="492" font-size="12" text-anchor="middle" fill="#555555">26</text>
<line x1="310.61" y1="60" x2="310.61" y2="470" stroke="#f3f4f6" stroke-width="1"/>
<text x="310.61" y="492" font-size="12" text-anchor="middle" fill="#555555">27</text>
<line x1="319.09" y1="60" x2="319.09" y2="470" stroke="#f3f4f6" stroke-width="1"/>
<text x="319.09" y="492" font-size="12" text-anchor="middle" fill="#555555">28</text>
<line x1="327.58" y1="60" x2="327.58" y2="470" stroke="#f3f4f6" stroke-width="1"/>
<text x="327.58" y="492" font-size="12" text-anchor="middle" fill="#555555">29</text>
<line x1="336.06" y1="60" x2="336.06" y2="470" stroke="#f3f4f6" stroke-width="1"/>
<text x="336.06" y="492" font-size="12" text-anchor="middle" fill="#555555">30</text>
<line x1="344.55" y1="60" x2="344.55" y2="470" stroke="#f3f4f6" stroke-width="1"/>
<text x="344.55" y="492" font-size="12" text-anchor="middle" fill="#555555">31</text>
<line x1="353.03" y1="60" x2="353.03" y2="470" stroke="#f3f4f6" stroke-width="1"/>
<text x="353.03" y="492" font-size="12" text-anchor="middle" fill="#555555">32</text>
<line x1="361.52" y1="60" x2="361.52" y2="470" stroke="#f3f4f6" stroke-width="1"/>
<text x="361.52" y="492" font-size="12" text-anchor="middle" fill="#555555">33</text>
<line x1="370.00" y1="60" x2="370.00" y2="470" stroke="#f3f4f6" stroke-width="1"/>
<text x="370.00" y="492" font-size="12" text-anchor="middle" fill="#555555">34</text>
<line x1="378.48" y1="60" x2="378.48" y2="470" stroke="#f3f4f6" stroke-width="1"/>
<text x="378.48" y="492" font-size="12" text-anchor="middle" fill="#555555">35</text>
<line x1="386.97" y1="60" x2="386.97" y2="470" stroke="#f3f4f6" stroke-width="1"/>
<text x="386.97" y="492" font-size="12" text-anchor="middle" fill="#555555">36</text>
<line x1="395.45" y1="60" x2="395.45" y2="470" stroke="#f3f4f6" stroke-width="1"/>
<text x="395.45" y="492" font-size="12" text-anchor="middle" fill="#555555">37</text>
<line x1="403.94" y1="60" x2="403.94" y2="470" stroke="#f3f4f6" stroke-width="1"/>
<text x="403.94" y="492" font-size="12" text-anchor="middle" fill="#555555">38</text>
<line x1="412.42" y1="60" x2="412.42" y2="470" stroke="#f3f4f6" stroke-width="1"/>
<text x="412.42" y="492" font-size="12" text-anchor="middle" fill="#555555">39</text>
<line x1="420.91" y1="60" x2="420.91" y2="470" stroke="#f3f4f6" stroke-width="1"/>
<text x="420.91" y="492" font-size="12" text-anchor="middle" fill="#555555">40</text>
<line x1="429.39" y1="60" x2="429.39" y2="470" stroke="#f3f4f6" stroke-width="1"/>
<text x="429.39" y="492" font-size="12" text-anchor="middle" fill="#555555">41</text>
<line x1="437.88" y1="60" x2="437.88" y2="470" stroke="#f3f4f6" stroke-width="1"/>
<text x="437.88" y="492" font-size="12" text-anchor="middle" fill="#555555">42</text>
<line x1="446.36" y1="60" x2="446.36" y2="470" stroke="#f3f4f6" stroke-width="1"/>
<text x="446.36" y="492" font-size="12" text-anchor="middle" fill="#555555">43</text>
<line x1="454.85" y1="60" x2="454.85" y2="470" stroke="#f3f4f6" stroke-width="1"/>
<text x="454.85" y="492" font-size="12" text-anchor="middle" fill="#555555">44</text>
<line x1="463.33" y1="60" x2="463.33" y2="470" stroke="#f3f4f6" stroke-width="1"/>
<text x="463.33" y="492" font-size="12" text-anchor="middle" fill="#555555">45</text>
<line x1="471.82" y1="60" x2="471.82" y2="470" stroke="#f3f4f6" stroke-width="1"/>
<text x="471.82" y="492" font-size="12" text-anchor="middle" fill="#555555">46</text>
<line x1="480.30" y1="60" x2="480.30" y2="470" stroke="#f3f4f6" stroke-width="1"/>
<text x="480.30" y="492" font-size="12" text-anchor="middle" fill="#555555">47</text>
<line x1="488.79" y1="60" x2="488.79" y2="470" stroke="#f3f4f6" stroke-width="1"/>
<text x="488.79" y="492" font-size="12" text-anchor="middle" fill="#555555">48</text>
<line x1="497.27" y1="60" x2="497.27" y2="470" stroke="#f3f4f6" stroke-width="1"/>
<text x="497.27" y="492" font-size="12" text-anchor="middle" fill="#555555">49</text>
<line x1="505.76" y1="60" x2="505.76" y2="470" stroke="#f3f4f6" stroke-width="1"/>
<text x="505.76" y="492" font-size="12" text-anchor="middle" fill="#555555">50</text>
<line x1="514.24" y1="60" x2="514.24" y2="470" stroke="#f3f4f6" stroke-width="1"/>
<text x="514.24" y="492" font-size="12" text-anchor="middle" fill="#555555">51</text>
<line x1="522.73" y1="60" x2="522.73" y2="470" stroke="#f3f4f6" stroke-width="1"/>
<text x="522.73" y="492" font-size="12" text-anchor="middle" fill="#555555">52</text>
<line x1="531.21" y1="60" x2="531.21" y2="470" stroke="#f3f4f6" stroke-width="1"/>
<text x="531.21" y="492" font-size="12" text-anchor="middle" fill="#555555">53</text>
<line x1="539.70" y1="60" x2="539.70" y2="470" stroke="#f3f4f6" stroke-width="1"/>
<text x="539.70" y="492" font-size="12" text-anchor="middle" fill="#555555">54</text>
<line x1="548.18" y1="60" x2="548.18" y2="470" stroke="#f3f4f6" stroke-width="1"/>
<text x="548.18" y="492" font-size="12" text-anchor="middle" fill="#555555">55</text>
<line x1="556.67" y1="60" x2="556.67" y2="470" stroke="#f3f4f6" stroke-width="1"/>
<text x="556.67" y="492" font-size="12" text-anchor="middle" fill="#555555">56</text>
<line x1="565.15" y1="60" x2="565.15" y2="470" stroke="#f3f4f6" stroke-width="1"/>
<text x="565.15" y="492" font-size="12" text-anchor="middle" fill="#555555">57</text>
<line x1="573.64" y1="60" x2="573.64" y2="470" stroke="#f3f4f6" stroke-width="1"/>
<text x="573.64" y="492" font-size="12" text-anchor="middle" fill="#555555">58</text>
<line x1="582.12" y1="60" x2="582.12" y2="470" stroke="#f3f4f6" stroke-width="1"/>
<text x="582.12" y="492" font-size="12" text-anchor="middle" fill="#555555">59</text>
<line x1="590.61" y1="60" x2="590.61" y2="470" stroke="#f3f4f6" stroke-width="1"/>
<text x="590.61" y="492" font-size="12" text-anchor="middle" fill="#555555">60</text>
<line x1="599.09" y1="60" x2="599.09" y2="470" stroke="#f3f4f6" stroke-width="1"/>
<text x="599.09" y="492" font-size="12" text-anchor="middle" fill="#555555">61</text>
<line x1="607.58" y1="60" x2="607.58" y2="470" stroke="#f3f4f6" stroke-width="1"/>
<text x="607.58" y="492" font-size="12" text-anchor="middle" fill="#555555">62</text>
<line x1="616.06" y1="60" x2="616.06" y2="470" stroke="#f3f4f6" stroke-width="1"/>
<text x="616.06" y="492" font-size="12" text-anchor="middle" fill="#555555">63</text>
<line x1="624.55" y1="60" x2="624.55" y2="470" stroke="#f3f4f6" stroke-width="1"/>
<text x="624.55" y="492" font-size="12" text-anchor="middle" fill="#555555">64</text>
<line x1="633.03" y1="60" x2="633.03" y2="470" stroke="#f3f4f6" stroke-width="1"/>
<text x="633.03" y="492" font-size="12" text-anchor="middle" fill="#555555">65</text>
<line x1="641.52" y1="60" x2="641.52" y2="470" stroke="#f3f4f6" stroke-width="1"/>
<text x="641.52" y="492" font-size="12" text-anchor="middle" fill="#555555">66</text>
<line x1="650.00" y1="60" x2="650.00" y2="470" stroke="#f3f4f6" stroke-width="1"/>
<text x="650.00" y="492" font-size="12" text-anchor="middle" fill="#555555">67</text>
<line x1="658.48" y1="60" x2="658.48" y2="470" stroke="#f3f4f6" stroke-width="1"/>
<text x="658.48" y="492" font-size="12" text-anchor="middle" fill="#555555">68</text>
<line x1="666.97" y1="60" x2="666.97" y2="470" stroke="#f3f4f6" stroke-width="1"/>
<text x="666.97" y="492" font-size="12" text-anchor="middle" fill="#555555">69</text>
<line x1="675.45" y1="60" x2="675.45" y2="470" stroke="#f3f4f6" stroke-width="1"/>
<text x="675.45" y="492" font-size="12" text-anchor="middle" fill="#555555">70</text>
<line x1="683.94" y1="60" x2="683.94" y2="470" stroke="#f3f4f6" stroke-width="1"/>
<text x="683.94" y="492" font-size="12" text-anchor="middle" fill="#555555">71</text>
<line x1="692.42" y1="60" x2="692.42" y2="470" stroke="#f3f4f6" stroke-width="1"/>
<text x="692.42" y="492" font-size="12" text-anchor="middle" fill="#555555">72</text>
<line x1="700.91" y1="60" x2="700.91" y2="470" stroke="#f3f4f6" stroke-width="1"/>
<text x="700.91" y="492" font-size="12" text-anchor="middle" fill="#555555">73</text>
<line x1="709.39" y1="60" x2="709.39" y2="470" stroke="#f3f4f6" stroke-width="1"/>
<text x="709.39" y="492" font-size="12" text-anchor="middle" fill="#555555">74</text>
<line x1="717.88" y1="60" x2="717.88" y2="470" stroke="#f3f4f6" stroke-width="1"/>
<text x="717.88" y="492" font-size="12" text-anchor="middle" fill="#555555">75</text>
<line x1="726.36" y1="60" x2="726.36" y2="470" stroke="#f3f4f6" stroke-width="1"/>
<text x="726.36" y="492" font-size="12" text-anchor="middle" fill="#555555">76</text>
<line x1="734.85" y1="60" x2="734.85" y2="470" stroke="#f3f4f6" stroke-width="1"/>
<text x="734.85" y="492" font-size="12" text-anchor="middle" fill="#555555">77</text>
<line x1="743.33" y1="60" x2="743.33" y2="470" stroke="#f3f4f6" stroke-width="1"/>
<text x="743.33" y="492" font-size="12" text-anchor="middle" fill="#555555">78</text>
<line x1="751.82" y1="60" x2="751.82" y2="470" stroke="#f3f4f6" stroke-width="1"/>
<text x="751.82" y="492" font-size="12" text-anchor="middle" fill="#555555">79</text>
<line x1="760.30" y1="60" x2="760.30" y2="470" stroke="#f3f4f6" stroke-width="1"/>
<text x="760.30" y="492" font-size="12" text-anchor="middle" fill="#555555">80</text>
<line x1="768.79" y1="60" x2="768.79" y2="470" stroke="#f3f4f6" stroke-width="1"/>
<text x="768.79" y="492" font-size="12" text-anchor="middle" fill="#555555">81</text>
<line x1="777.27" y1="60" x2="777.27" y2="470" stroke="#f3f4f6" stroke-width="1"/>
<text x="777.27" y="492" font-size="12" text-anchor="middle" fill="#555555">82</text>
<line x1="785.76" y1="60" x2="785.76" y2="470" stroke="#f3f4f6" stroke-width="1"/>
<text x="785.76" y="492" font-size="12" text-anchor="middle" fill="#555555">83</text>
<line x1="794.24" y1="60" x2="794.24" y2="470" stroke="#f3f4f6" stroke-width="1"/>
<text x="794.24" y="492" font-size="12" text-anchor="middle" fill="#555555">84</text>
<line x1="802.73" y1="60" x2="802.73" y2="470" stroke="#f3f4f6" stroke-width="1"/>
<text x="802.73" y="492" font-size="12" text-anchor="middle" fill="#555555">85</text>
<line x1="811.21" y1="60" x2="811.21" y2="470" stroke="#f3f4f6" stroke-width="1"/>
<text x="811.21" y="492" font-size="12" text-anchor="middle" fill="#555555">86</text>
<line x1="819.70" y1="60" x2="819.70" y2="470" stroke="#f3f4f6" stroke-width="1"/>
<text x="819.70" y="492" font-size="12" text-anchor="middle" fill="#555555">87</text>
<line x1="828.18" y1="60" x2="828.18" y2="470" stroke="#f3f4f6" stroke-width="1"/>
<text x="828.18" y="492" font-size="12" text-anchor="middle" fill="#555555">88</text>
<line x1="836.67" y1="60" x2="836.67" y2="470" stroke="#f3f4f6" stroke-width="1"/>
<text x="836.67" y="492" font-size="12" text-anchor="middle" fill="#555555">89</text>
<line x1="845.15" y1="60" x2="845.15" y2="470" stroke="#f3f4f6" stroke-width="1"/>
<text x="845.15" y="492" font-size="12" text-anchor="middle" fill="#555555">90</text>
<line x1="853.64" y1="60" x2="853.64" y2="470" stroke="#f3f4f6" stroke-width="1"/>
<text x="853.64" y="492" font-size="12" text-anchor="middle" fill="#555555">91</text>
<line x1="862.12" y1="60" x2="862.12" y2="470" stroke="#f3f4f6" stroke-width="1"/>
<text x="862.12" y="492" font-size="12" text-anchor="middle" fill="#555555">92</text>
<line x1="870.61" y1="60" x2="870.61" y2="470" stroke="#f3f4f6" stroke-width="1"/>
<text x="870.61" y="492" font-size="12" text-anchor="middle" fill="#555555">93</text>
<line x1="879.09" y1="60" x2="879.09" y2="470" stroke="#f3f4f6" stroke-width="1"/>
<text x="879.09" y="492" font-size="12" text-anchor="middle" fill="#555555">94</text>
<line x1="887.58" y1="60" x2="887.58" y2="470" stroke="#f3f4f6" stroke-width="1"/>
<text x="887.58" y="492" font-size="12" text-anchor="middle" fill="#555555">95</text>
<line x1="896.06" y1="60" x2="896.06" y2="470" stroke="#f3f4f6" stroke-width="1"/>
<text x="896.06" y="492" font-size="12" text-anchor="middle" fill="#555555">96</text>
<line x1="904.55" y1="60" x2="904.55" y2="470" stroke="#f3f4f6" stroke-width="1"/>
<text x="904.55" y="492" font-size="12" text-anchor="middle" fill="#555555">97</text>
<line x1="913.03" y1="60" x2="913.03" y2="470" stroke="#f3f4f6" stroke-width="1"/>
<text x="913.03" y="492" font-size="12" text-anchor="middle" fill="#555555">98</text>
<line x1="921.52" y1="60" x2="921.52" y2="470" stroke="#f3f4f6" stroke-width="1"/>
<text x="921.52" y="492" font-size="12" text-anchor="middle" fill="#555555">99</text>
<line x1="930.00" y1="60" x2="930.00" y2="470" stroke="#f3f4f6" stroke-width="1"/>
<text x="930.00" y="492" font-size="12" text-anchor="middle" fill="#555555">100</text>
<polyline fill="none" stroke="#1d4ed8" stroke-width="3" points="90.00,425.72 98.48,434.68 106.97,435.13 115.45,435.31 123.94,435.37 132.42,435.43 140.91,435.49 149.39,435.50 157.88,435.54 166.36,435.56 174.85,435.59 183.33,435.58 191.82,435.63 200.30,435.63 208.79,435.64 217.27,435.66 225.76,435.68 234.24,435.67 242.73,435.72 251.21,435.70 259.70,435.26 268.18,411.30 276.67,413.11 285.15,413.13 293.64,419.67 302.12,435.42 310.61,435.49 319.09,435.56 327.58,435.27 336.06,412.33 344.55,427.80 353.03,435.66 361.52,435.50 370.00,435.52 378.48,435.59 386.97,435.65 395.45,435.66 403.94,435.65 412.42,435.60 420.91,435.62 429.39,435.60 437.88,435.62 446.36,435.61 454.85,435.62 463.33,435.68 471.82,435.65 480.30,435.61 488.79,435.68 497.27,435.64 505.76,435.64 514.24,435.67 522.73,435.80 531.21,435.80 539.70,435.81 548.18,435.81 556.67,435.82 565.15,435.82 573.64,435.82 582.12,435.82 590.61,435.82 599.09,435.82 607.58,435.82 616.06,435.82 624.55,435.83 633.03,435.82 641.52,435.83 650.00,435.83 658.48,435.83 666.97,435.83 675.45,435.83 683.94,435.83 692.42,435.83 700.91,435.83 709.39,435.83 717.88,435.83 726.36,435.83 734.85,435.83 743.33,435.83 751.82,435.83 760.30,435.83 768.79,435.83 777.27,435.83 785.76,435.83 794.24,435.83 802.73,435.83 811.21,435.83 819.70,435.83 828.18,435.83 836.67,435.83 845.15,435.83 853.64,435.83 862.12,435.83 870.61,435.83 879.09,435.83 887.58,435.83 896.06,435.83 904.55,435.83 913.03,435.83 921.52,435.83 930.00,435.83"/>
<circle cx="90.00" cy="425.72" r="4.5" fill="#1d4ed8" fill-opacity="0.9"/>
<circle cx="98.48" cy="434.68" r="4.5" fill="#1d4ed8" fill-opacity="0.9"/>
<circle cx="106.97" cy="435.13" r="4.5" fill="#1d4ed8" fill-opacity="0.9"/>
<circle cx="115.45" cy="435.31" r="4.5" fill="#1d4ed8" fill-opacity="0.9"/>
<circle cx="123.94" cy="435.37" r="4.5" fill="#1d4ed8" fill-opacity="0.9"/>
<circle cx="132.42" cy="435.43" r="4.5" fill="#1d4ed8" fill-opacity="0.9"/>
<circle cx="140.91" cy="435.49" r="4.5" fill="#1d4ed8" fill-opacity="0.9"/>
<circle cx="149.39" cy="435.50" r="4.5" fill="#1d4ed8" fill-opacity="0.9"/>
<circle cx="157.88" cy="435.54" r="4.5" fill="#1d4ed8" fill-opacity="0.9"/>
<circle cx="166.36" cy="435.56" r="4.5" fill="#1d4ed8" fill-opacity="0.9"/>
<circle cx="174.85" cy="435.59" r="4.5" fill="#1d4ed8" fill-opacity="0.9"/>
<circle cx="183.33" cy="435.58" r="4.5" fill="#1d4ed8" fill-opacity="0.9"/>
<circle cx="191.82" cy="435.63" r="4.5" fill="#1d4ed8" fill-opacity="0.9"/>
<circle cx="200.30" cy="435.63" r="4.5" fill="#1d4ed8" fill-opacity="0.9"/>
<circle cx="208.79" cy="435.64" r="4.5" fill="#1d4ed8" fill-opacity="0.9"/>
<circle cx="217.27" cy="435.66" r="4.5" fill="#1d4ed8" fill-opacity="0.9"/>
<circle cx="225.76" cy="435.68" r="4.5" fill="#1d4ed8" fill-opacity="0.9"/>
<circle cx="234.24" cy="435.67" r="4.5" fill="#1d4ed8" fill-opacity="0.9"/>
<circle cx="242.73" cy="435.72" r="4.5" fill="#1d4ed8" fill-opacity="0.9"/>
<circle cx="251.21" cy="435.70" r="4.5" fill="#1d4ed8" fill-opacity="0.9"/>
<circle cx="259.70" cy="435.26" r="4.5" fill="#1d4ed8" fill-opacity="0.9"/>
<circle cx="268.18" cy="411.30" r="4.5" fill="#1d4ed8" fill-opacity="0.9"/>
<circle cx="276.67" cy="413.11" r="4.5" fill="#1d4ed8" fill-opacity="0.9"/>
<circle cx="285.15" cy="413.13" r="4.5" fill="#1d4ed8" fill-opacity="0.9"/>
<circle cx="293.64" cy="419.67" r="4.5" fill="#1d4ed8" fill-opacity="0.9"/>
<circle cx="302.12" cy="435.42" r="4.5" fill="#1d4ed8" fill-opacity="0.9"/>
<circle cx="310.61" cy="435.49" r="4.5" fill="#1d4ed8" fill-opacity="0.9"/>
<circle cx="319.09" cy="435.56" r="4.5" fill="#1d4ed8" fill-opacity="0.9"/>
<circle cx="327.58" cy="435.27" r="4.5" fill="#1d4ed8" fill-opacity="0.9"/>
<circle cx="336.06" cy="412.33" r="4.5" fill="#1d4ed8" fill-opacity="0.9"/>
<circle cx="344.55" cy="427.80" r="4.5" fill="#1d4ed8" fill-opacity="0.9"/>
<circle cx="353.03" cy="435.66" r="4.5" fill="#1d4ed8" fill-opacity="0.9"/>
<circle cx="361.52" cy="435.50" r="4.5" fill="#1d4ed8" fill-opacity="0.9"/>
<circle cx="370.00" cy="435.52" r="4.5" fill="#1d4ed8" fill-opacity="0.9"/>
<circle cx="378.48" cy="435.59" r="4.5" fill="#1d4ed8" fill-opacity="0.9"/>
<circle cx="386.97" cy="435.65" r="4.5" fill="#1d4ed8" fill-opacity="0.9"/>
<circle cx="395.45" cy="435.66" r="4.5" fill="#1d4ed8" fill-opacity="0.9"/>
<circle cx="403.94" cy="435.65" r="4.5" fill="#1d4ed8" fill-opacity="0.9"/>
<circle cx="412.42" cy="435.60" r="4.5" fill="#1d4ed8" fill-opacity="0.9"/>
<circle cx="420.91" cy="435.62" r="4.5" fill="#1d4ed8" fill-opacity="0.9"/>
<circle cx="429.39" cy="435.60" r="4.5" fill="#1d4ed8" fill-opacity="0.9"/>
<circle cx="437.88" cy="435.62" r="4.5" fill="#1d4ed8" fill-opacity="0.9"/>
<circle cx="446.36" cy="435.61" r="4.5" fill="#1d4ed8" fill-opacity="0.9"/>
<circle cx="454.85" cy="435.62" r="4.5" fill="#1d4ed8" fill-opacity="0.9"/>
<circle cx="463.33" cy="435.68" r="4.5" fill="#1d4ed8" fill-opacity="0.9"/>
<circle cx="471.82" cy="435.65" r="4.5" fill="#1d4ed8" fill-opacity="0.9"/>
<circle cx="480.30" cy="435.61" r="4.5" fill="#1d4ed8" fill-opacity="0.9"/>
<circle cx="488.79" cy="435.68" r="4.5" fill="#1d4ed8" fill-opacity="0.9"/>
<circle cx="497.27" cy="435.64" r="4.5" fill="#1d4ed8" fill-opacity="0.9"/>
<circle cx="505.76" cy="435.64" r="4.5" fill="#1d4ed8" fill-opacity="0.9"/>
<circle cx="514.24" cy="435.67" r="4.5" fill="#1d4ed8" fill-opacity="0.9"/>
<circle cx="522.73" cy="435.80" r="4.5" fill="#1d4ed8" fill-opacity="0.9"/>
<circle cx="531.21" cy="435.80" r="4.5" fill="#1d4ed8" fill-opacity="0.9"/>
<circle cx="539.70" cy="435.81" r="4.5" fill="#1d4ed8" fill-opacity="0.9"/>
<circle cx="548.18" cy="435.81" r="4.5" fill="#1d4ed8" fill-opacity="0.9"/>
<circle cx="556.67" cy="435.82" r="4.5" fill="#1d4ed8" fill-opacity="0.9"/>
<circle cx="565.15" cy="435.82" r="4.5" fill="#1d4ed8" fill-opacity="0.9"/>
<circle cx="573.64" cy="435.82" r="4.5" fill="#1d4ed8" fill-opacity="0.9"/>
<circle cx="582.12" cy="435.82" r="4.5" fill="#1d4ed8" fill-opacity="0.9"/>
<circle cx="590.61" cy="435.82" r="4.5" fill="#1d4ed8" fill-opacity="0.9"/>
<circle cx="599.09" cy="435.82" r="4.5" fill="#1d4ed8" fill-opacity="0.9"/>
<circle cx="607.58" cy="435.82" r="4.5" fill="#1d4ed8" fill-opacity="0.9"/>
<circle cx="616.06" cy="435.82" r="4.5" fill="#1d4ed8" fill-opacity="0.9"/>
<circle cx="624.55" cy="435.83" r="4.5" fill="#1d4ed8" fill-opacity="0.9"/>
<circle cx="633.03" cy="435.82" r="4.5" fill="#1d4ed8" fill-opacity="0.9"/>
<circle cx="641.52" cy="435.83" r="4.5" fill="#1d4ed8" fill-opacity="0.9"/>
<circle cx="650.00" cy="435.83" r="4.5" fill="#1d4ed8" fill-opacity="0.9"/>
<circle cx="658.48" cy="435.83" r="4.5" fill="#1d4ed8" fill-opacity="0.9"/>
<circle cx="666.97" cy="435.83" r="4.5" fill="#1d4ed8" fill-opacity="0.9"/>
<circle cx="675.45" cy="435.83" r="4.5" fill="#1d4ed8" fill-opacity="0.9"/>
<circle cx="683.94" cy="435.83" r="4.5" fill="#1d4ed8" fill-opacity="0.9"/>
<circle cx="692.42" cy="435.83" r="4.5" fill="#1d4ed8" fill-opacity="0.9"/>
<circle cx="700.91" cy="435.83" r="4.5" fill="#1d4ed8" fill-opacity="0.9"/>
<circle cx="709.39" cy="435.83" r="4.5" fill="#1d4ed8" fill-opacity="0.9"/>
<circle cx="717.88" cy="435.83" r="4.5" fill="#1d4ed8" fill-opacity="0.9"/>
<circle cx="726.36" cy="435.83" r="4.5" fill="#1d4ed8" fill-opacity="0.9"/>
<circle cx="734.85" cy="435.83" r="4.5" fill="#1d4ed8" fill-opacity="0.9"/>
<circle cx="743.33" cy="435.83" r="4.5" fill="#1d4ed8" fill-opacity="0.9"/>
<circle cx="751.82" cy="435.83" r="4.5" fill="#1d4ed8" fill-opacity="0.9"/>
<circle cx="760.30" cy="435.83" r="4.5" fill="#1d4ed8" fill-opacity="0.9"/>
<circle cx="768.79" cy="435.83" r="4.5" fill="#1d4ed8" fill-opacity="0.9"/>
<circle cx="777.27" cy="435.83" r="4.5" fill="#1d4ed8" fill-opacity="0.9"/>
<circle cx="785.76" cy="435.83" r="4.5" fill="#1d4ed8" fill-opacity="0.9"/>
<circle cx="794.24" cy="435.83" r="4.5" fill="#1d4ed8" fill-opacity="0.9"/>
<circle cx="802.73" cy="435.83" r="4.5" fill="#1d4ed8" fill-opacity="0.9"/>
<circle cx="811.21" cy="435.83" r="4.5" fill="#1d4ed8" fill-opacity="0.9"/>
<circle cx="819.70" cy="435.83" r="4.5" fill="#1d4ed8" fill-opacity="0.9"/>
<circle cx="828.18" cy="435.83" r="4.5" fill="#1d4ed8" fill-opacity="0.9"/>
<circle cx="836.67" cy="435.83" r="4.5" fill="#1d4ed8" fill-opacity="0.9"/>
<circle cx="845.15" cy="435.83" r="4.5" fill="#1d4ed8" fill-opacity="0.9"/>
<circle cx="853.64" cy="435.83" r="4.5" fill="#1d4ed8" fill-opacity="0.9"/>
<circle cx="862.12" cy="435.83" r="4.5" fill="#1d4ed8" fill-opacity="0.9"/>
<circle cx="870.61" cy="435.83" r="4.5" fill="#1d4ed8" fill-opacity="0.9"/>
<circle cx="879.09" cy="435.83" r="4.5" fill="#1d4ed8" fill-opacity="0.9"/>
<circle cx="887.58" cy="435.83" r="4.5" fill="#1d4ed8" fill-opacity="0.9"/>
<circle cx="896.06" cy="435.83" r="4.5" fill="#1d4ed8" fill-opacity="0.9"/>
<circle cx="904.55" cy="435.83" r="4.5" fill="#1d4ed8" fill-opacity="0.9"/>
<circle cx="913.03" cy="435.83" r="4.5" fill="#1d4ed8" fill-opacity="0.9"/>
<circle cx="921.52" cy="435.83" r="4.5" fill="#1d4ed8" fill-opacity="0.9"/>
<circle cx="930.00" cy="435.83" r="4.5" fill="#1d4ed8" fill-opacity="0.9"/>
<rect x="90" y="32" width="18" height="6" fill="#1d4ed8"/>
<text x="114" y="38" font-size="13" fill="#333333">train</text>
<polyline fill="none" stroke="#d97706" stroke-width="3" points="90.00,433.91 98.48,432.86 106.97,430.74 115.45,435.44 123.94,435.30 132.42,435.39 140.91,435.07 149.39,423.45 157.88,435.48 166.36,433.21 174.85,435.50 183.33,435.52 191.82,435.48 200.30,435.47 208.79,435.31 217.27,434.41 225.76,435.56 234.24,435.55 242.73,435.58 251.21,435.50 259.70,95.31 268.18,413.11 276.67,413.11 285.15,413.14 293.64,426.83 302.12,422.75 310.61,430.47 319.09,428.91 327.58,259.26 336.06,413.23 344.55,434.96 353.03,433.17 361.52,424.98 370.00,428.76 378.48,430.11 386.97,434.34 395.45,431.32 403.94,431.48 412.42,423.44 420.91,429.32 429.39,423.11 437.88,431.72 446.36,420.62 454.85,434.09 463.33,432.20 471.82,430.79 480.30,433.08 488.79,429.17 497.27,422.26 505.76,432.20 514.24,435.55 522.73,435.56 531.21,435.57 539.70,435.57 548.18,435.58 556.67,435.54 565.15,435.57 573.64,435.50 582.12,435.54 590.61,435.52 599.09,435.53 607.58,435.46 616.06,435.54 624.55,435.50 633.03,435.39 641.52,435.51 650.00,435.53 658.48,435.51 666.97,435.52 675.45,435.48 683.94,435.48 692.42,435.45 700.91,435.29 709.39,435.35 717.88,435.40 726.36,435.40 734.85,435.25 743.33,435.41 751.82,435.48 760.30,435.45 768.79,435.48 777.27,435.30 785.76,435.48 794.24,435.39 802.73,435.44 811.21,435.48 819.70,435.39 828.18,435.40 836.67,435.40 845.15,435.35 853.64,435.43 862.12,435.40 870.61,435.40 879.09,435.46 887.58,435.43 896.06,435.47 904.55,435.12 913.03,435.44 921.52,435.47 930.00,435.42"/>
<circle cx="90.00" cy="433.91" r="4.5" fill="#d97706" fill-opacity="0.9"/>
<circle cx="98.48" cy="432.86" r="4.5" fill="#d97706" fill-opacity="0.9"/>
<circle cx="106.97" cy="430.74" r="4.5" fill="#d97706" fill-opacity="0.9"/>
<circle cx="115.45" cy="435.44" r="4.5" fill="#d97706" fill-opacity="0.9"/>
<circle cx="123.94" cy="435.30" r="4.5" fill="#d97706" fill-opacity="0.9"/>
<circle cx="132.42" cy="435.39" r="4.5" fill="#d97706" fill-opacity="0.9"/>
<circle cx="140.91" cy="435.07" r="4.5" fill="#d97706" fill-opacity="0.9"/>
<circle cx="149.39" cy="423.45" r="4.5" fill="#d97706" fill-opacity="0.9"/>
<circle cx="157.88" cy="435.48" r="4.5" fill="#d97706" fill-opacity="0.9"/>
<circle cx="166.36" cy="433.21" r="4.5" fill="#d97706" fill-opacity="0.9"/>
<circle cx="174.85" cy="435.50" r="4.5" fill="#d97706" fill-opacity="0.9"/>
<circle cx="183.33" cy="435.52" r="4.5" fill="#d97706" fill-opacity="0.9"/>
<circle cx="191.82" cy="435.48" r="4.5" fill="#d97706" fill-opacity="0.9"/>
<circle cx="200.30" cy="435.47" r="4.5" fill="#d97706" fill-opacity="0.9"/>
<circle cx="208.79" cy="435.31" r="4.5" fill="#d97706" fill-opacity="0.9"/>
<circle cx="217.27" cy="434.41" r="4.5" fill="#d97706" fill-opacity="0.9"/>
<circle cx="225.76" cy="435.56" r="4.5" fill="#d97706" fill-opacity="0.9"/>
<circle cx="234.24" cy="435.55" r="4.5" fill="#d97706" fill-opacity="0.9"/>
<circle cx="242.73" cy="435.58" r="4.5" fill="#d97706" fill-opacity="0.9"/>
<circle cx="251.21" cy="435.50" r="4.5" fill="#d97706" fill-opacity="0.9"/>
<circle cx="259.70" cy="95.31" r="4.5" fill="#d97706" fill-opacity="0.9"/>
<circle cx="268.18" cy="413.11" r="4.5" fill="#d97706" fill-opacity="0.9"/>
<circle cx="276.67" cy="413.11" r="4.5" fill="#d97706" fill-opacity="0.9"/>
<circle cx="285.15" cy="413.14" r="4.5" fill="#d97706" fill-opacity="0.9"/>
<circle cx="293.64" cy="426.83" r="4.5" fill="#d97706" fill-opacity="0.9"/>
<circle cx="302.12" cy="422.75" r="4.5" fill="#d97706" fill-opacity="0.9"/>
<circle cx="310.61" cy="430.47" r="4.5" fill="#d97706" fill-opacity="0.9"/>
<circle cx="319.09" cy="428.91" r="4.5" fill="#d97706" fill-opacity="0.9"/>
<circle cx="327.58" cy="259.26" r="4.5" fill="#d97706" fill-opacity="0.9"/>
<circle cx="336.06" cy="413.23" r="4.5" fill="#d97706" fill-opacity="0.9"/>
<circle cx="344.55" cy="434.96" r="4.5" fill="#d97706" fill-opacity="0.9"/>
<circle cx="353.03" cy="433.17" r="4.5" fill="#d97706" fill-opacity="0.9"/>
<circle cx="361.52" cy="424.98" r="4.5" fill="#d97706" fill-opacity="0.9"/>
<circle cx="370.00" cy="428.76" r="4.5" fill="#d97706" fill-opacity="0.9"/>
<circle cx="378.48" cy="430.11" r="4.5" fill="#d97706" fill-opacity="0.9"/>
<circle cx="386.97" cy="434.34" r="4.5" fill="#d97706" fill-opacity="0.9"/>
<circle cx="395.45" cy="431.32" r="4.5" fill="#d97706" fill-opacity="0.9"/>
<circle cx="403.94" cy="431.48" r="4.5" fill="#d97706" fill-opacity="0.9"/>
<circle cx="412.42" cy="423.44" r="4.5" fill="#d97706" fill-opacity="0.9"/>
<circle cx="420.91" cy="429.32" r="4.5" fill="#d97706" fill-opacity="0.9"/>
<circle cx="429.39" cy="423.11" r="4.5" fill="#d97706" fill-opacity="0.9"/>
<circle cx="437.88" cy="431.72" r="4.5" fill="#d97706" fill-opacity="0.9"/>
<circle cx="446.36" cy="420.62" r="4.5" fill="#d97706" fill-opacity="0.9"/>
<circle cx="454.85" cy="434.09" r="4.5" fill="#d97706" fill-opacity="0.9"/>
<circle cx="463.33" cy="432.20" r="4.5" fill="#d97706" fill-opacity="0.9"/>
<circle cx="471.82" cy="430.79" r="4.5" fill="#d97706" fill-opacity="0.9"/>
<circle cx="480.30" cy="433.08" r="4.5" fill="#d97706" fill-opacity="0.9"/>
<circle cx="488.79" cy="429.17" r="4.5" fill="#d97706" fill-opacity="0.9"/>
<circle cx="497.27" cy="422.26" r="4.5" fill="#d97706" fill-opacity="0.9"/>
<circle cx="505.76" cy="432.20" r="4.5" fill="#d97706" fill-opacity="0.9"/>
<circle cx="514.24" cy="435.55" r="4.5" fill="#d97706" fill-opacity="0.9"/>
<circle cx="522.73" cy="435.56" r="4.5" fill="#d97706" fill-opacity="0.9"/>
<circle cx="531.21" cy="435.57" r="4.5" fill="#d97706" fill-opacity="0.9"/>
<circle cx="539.70" cy="435.57" r="4.5" fill="#d97706" fill-opacity="0.9"/>
<circle cx="548.18" cy="435.58" r="4.5" fill="#d97706" fill-opacity="0.9"/>
<circle cx="556.67" cy="435.54" r="4.5" fill="#d97706" fill-opacity="0.9"/>
<circle cx="565.15" cy="435.57" r="4.5" fill="#d97706" fill-opacity="0.9"/>
<circle cx="573.64" cy="435.50" r="4.5" fill="#d97706" fill-opacity="0.9"/>
<circle cx="582.12" cy="435.54" r="4.5" fill="#d97706" fill-opacity="0.9"/>
<circle cx="590.61" cy="435.52" r="4.5" fill="#d97706" fill-opacity="0.9"/>
<circle cx="599.09" cy="435.53" r="4.5" fill="#d97706" fill-opacity="0.9"/>
<circle cx="607.58" cy="435.46" r="4.5" fill="#d97706" fill-opacity="0.9"/>
<circle cx="616.06" cy="435.54" r="4.5" fill="#d97706" fill-opacity="0.9"/>
<circle cx="624.55" cy="435.50" r="4.5" fill="#d97706" fill-opacity="0.9"/>
<circle cx="633.03" cy="435.39" r="4.5" fill="#d97706" fill-opacity="0.9"/>
<circle cx="641.52" cy="435.51" r="4.5" fill="#d97706" fill-opacity="0.9"/>
<circle cx="650.00" cy="435.53" r="4.5" fill="#d97706" fill-opacity="0.9"/>
<circle cx="658.48" cy="435.51" r="4.5" fill="#d97706" fill-opacity="0.9"/>
<circle cx="666.97" cy="435.52" r="4.5" fill="#d97706" fill-opacity="0.9"/>
<circle cx="675.45" cy="435.48" r="4.5" fill="#d97706" fill-opacity="0.9"/>
<circle cx="683.94" cy="435.48" r="4.5" fill="#d97706" fill-opacity="0.9"/>
<circle cx="692.42" cy="435.45" r="4.5" fill="#d97706" fill-opacity="0.9"/>
<circle cx="700.91" cy="435.29" r="4.5" fill="#d97706" fill-opacity="0.9"/>
<circle cx="709.39" cy="435.35" r="4.5" fill="#d97706" fill-opacity="0.9"/>
<circle cx="717.88" cy="435.40" r="4.5" fill="#d97706" fill-opacity="0.9"/>
<circle cx="726.36" cy="435.40" r="4.5" fill="#d97706" fill-opacity="0.9"/>
<circle cx="734.85" cy="435.25" r="4.5" fill="#d97706" fill-opacity="0.9"/>
<circle cx="743.33" cy="435.41" r="4.5" fill="#d97706" fill-opacity="0.9"/>
<circle cx="751.82" cy="435.48" r="4.5" fill="#d97706" fill-opacity="0.9"/>
<circle cx="760.30" cy="435.45" r="4.5" fill="#d97706" fill-opacity="0.9"/>
<circle cx="768.79" cy="435.48" r="4.5" fill="#d97706" fill-opacity="0.9"/>
<circle cx="777.27" cy="435.30" r="4.5" fill="#d97706" fill-opacity="0.9"/>
<circle cx="785.76" cy="435.48" r="4.5" fill="#d97706" fill-opacity="0.9"/>
<circle cx="794.24" cy="435.39" r="4.5" fill="#d97706" fill-opacity="0.9"/>
<circle cx="802.73" cy="435.44" r="4.5" fill="#d97706" fill-opacity="0.9"/>
<circle cx="811.21" cy="435.48" r="4.5" fill="#d97706" fill-opacity="0.9"/>
<circle cx="819.70" cy="435.39" r="4.5" fill="#d97706" fill-opacity="0.9"/>
<circle cx="828.18" cy="435.40" r="4.5" fill="#d97706" fill-opacity="0.9"/>
<circle cx="836.67" cy="435.40" r="4.5" fill="#d97706" fill-opacity="0.9"/>
<circle cx="845.15" cy="435.35" r="4.5" fill="#d97706" fill-opacity="0.9"/>
<circle cx="853.64" cy="435.43" r="4.5" fill="#d97706" fill-opacity="0.9"/>
<circle cx="862.12" cy="435.40" r="4.5" fill="#d97706" fill-opacity="0.9"/>
<circle cx="870.61" cy="435.40" r="4.5" fill="#d97706" fill-opacity="0.9"/>
<circle cx="879.09" cy="435.46" r="4.5" fill="#d97706" fill-opacity="0.9"/>
<circle cx="887.58" cy="435.43" r="4.5" fill="#d97706" fill-opacity="0.9"/>
<circle cx="896.06" cy="435.47" r="4.5" fill="#d97706" fill-opacity="0.9"/>
<circle cx="904.55" cy="435.12" r="4.5" fill="#d97706" fill-opacity="0.9"/>
<circle cx="913.03" cy="435.44" r="4.5" fill="#d97706" fill-opacity="0.9"/>
<circle cx="921.52" cy="435.47" r="4.5" fill="#d97706" fill-opacity="0.9"/>
<circle cx="930.00" cy="435.42" r="4.5" fill="#d97706" fill-opacity="0.9"/>
<rect x="270" y="32" width="18" height="6" fill="#d97706"/>
<text x="294" y="38" font-size="13" fill="#333333">val</text>
<polyline fill="none" stroke="#059669" stroke-width="3" points="90.00,433.92 98.48,432.84 106.97,430.62 115.45,435.44 123.94,435.30 132.42,435.38 140.91,435.06 149.39,423.55 157.88,435.47 166.36,433.21 174.85,435.48 183.33,435.51 191.82,435.49 200.30,435.47 208.79,435.30 217.27,434.40 225.76,435.55 234.24,435.56 242.73,435.58 251.21,435.51 259.70,94.17 268.18,413.11 276.67,413.11 285.15,413.14 293.64,426.81 302.12,422.61 310.61,430.44 319.09,428.92 327.58,259.64 336.06,413.22 344.55,434.93 353.03,433.18 361.52,425.10 370.00,428.62 378.48,430.08 386.97,434.30 395.45,431.15 403.94,431.38 412.42,423.57 420.91,429.42 429.39,423.25 437.88,431.65 446.36,420.76 454.85,434.07 463.33,432.32 471.82,430.87 480.30,433.07 488.79,429.24 497.27,422.14 505.76,432.05 514.24,435.53 522.73,435.55 531.21,435.55 539.70,435.56 548.18,435.55 556.67,435.52 565.15,435.55 573.64,435.49 582.12,435.51 590.61,435.53 599.09,435.54 607.58,435.44 616.06,435.52 624.55,435.50 633.03,435.37 641.52,435.48 650.00,435.51 658.48,435.48 666.97,435.49 675.45,435.44 683.94,435.44 692.42,435.45 700.91,435.26 709.39,435.37 717.88,435.40 726.36,435.35 734.85,435.21 743.33,435.41 751.82,435.47 760.30,435.43 768.79,435.45 777.27,435.26 785.76,435.46 794.24,435.38 802.73,435.41 811.21,435.45 819.70,435.35 828.18,435.39 836.67,435.39 845.15,435.31 853.64,435.44 862.12,435.40 870.61,435.40 879.09,435.47 887.58,435.45 896.06,435.45 904.55,435.09 913.03,435.42 921.52,435.45 930.00,435.43"/>
<circle cx="90.00" cy="433.92" r="4.5" fill="#059669" fill-opacity="0.9"/>
<circle cx="98.48" cy="432.84" r="4.5" fill="#059669" fill-opacity="0.9"/>
<circle cx="106.97" cy="430.62" r="4.5" fill="#059669" fill-opacity="0.9"/>
<circle cx="115.45" cy="435.44" r="4.5" fill="#059669" fill-opacity="0.9"/>
<circle cx="123.94" cy="435.30" r="4.5" fill="#059669" fill-opacity="0.9"/>
<circle cx="132.42" cy="435.38" r="4.5" fill="#059669" fill-opacity="0.9"/>
<circle cx="140.91" cy="435.06" r="4.5" fill="#059669" fill-opacity="0.9"/>
<circle cx="149.39" cy="423.55" r="4.5" fill="#059669" fill-opacity="0.9"/>
<circle cx="157.88" cy="435.47" r="4.5" fill="#059669" fill-opacity="0.9"/>
<circle cx="166.36" cy="433.21" r="4.5" fill="#059669" fill-opacity="0.9"/>
<circle cx="174.85" cy="435.48" r="4.5" fill="#059669" fill-opacity="0.9"/>
<circle cx="183.33" cy="435.51" r="4.5" fill="#059669" fill-opacity="0.9"/>
<circle cx="191.82" cy="435.49" r="4.5" fill="#059669" fill-opacity="0.9"/>
<circle cx="200.30" cy="435.47" r="4.5" fill="#059669" fill-opacity="0.9"/>
<circle cx="208.79" cy="435.30" r="4.5" fill="#059669" fill-opacity="0.9"/>
<circle cx="217.27" cy="434.40" r="4.5" fill="#059669" fill-opacity="0.9"/>
<circle cx="225.76" cy="435.55" r="4.5" fill="#059669" fill-opacity="0.9"/>
<circle cx="234.24" cy="435.56" r="4.5" fill="#059669" fill-opacity="0.9"/>
<circle cx="242.73" cy="435.58" r="4.5" fill="#059669" fill-opacity="0.9"/>
<circle cx="251.21" cy="435.51" r="4.5" fill="#059669" fill-opacity="0.9"/>
<circle cx="259.70" cy="94.17" r="4.5" fill="#059669" fill-opacity="0.9"/>
<circle cx="268.18" cy="413.11" r="4.5" fill="#059669" fill-opacity="0.9"/>
<circle cx="276.67" cy="413.11" r="4.5" fill="#059669" fill-opacity="0.9"/>
<circle cx="285.15" cy="413.14" r="4.5" fill="#059669" fill-opacity="0.9"/>
<circle cx="293.64" cy="426.81" r="4.5" fill="#059669" fill-opacity="0.9"/>
<circle cx="302.12" cy="422.61" r="4.5" fill="#059669" fill-opacity="0.9"/>
<circle cx="310.61" cy="430.44" r="4.5" fill="#059669" fill-opacity="0.9"/>
<circle cx="319.09" cy="428.92" r="4.5" fill="#059669" fill-opacity="0.9"/>
<circle cx="327.58" cy="259.64" r="4.5" fill="#059669" fill-opacity="0.9"/>
<circle cx="336.06" cy="413.22" r="4.5" fill="#059669" fill-opacity="0.9"/>
<circle cx="344.55" cy="434.93" r="4.5" fill="#059669" fill-opacity="0.9"/>
<circle cx="353.03" cy="433.18" r="4.5" fill="#059669" fill-opacity="0.9"/>
<circle cx="361.52" cy="425.10" r="4.5" fill="#059669" fill-opacity="0.9"/>
<circle cx="370.00" cy="428.62" r="4.5" fill="#059669" fill-opacity="0.9"/>
<circle cx="378.48" cy="430.08" r="4.5" fill="#059669" fill-opacity="0.9"/>
<circle cx="386.97" cy="434.30" r="4.5" fill="#059669" fill-opacity="0.9"/>
<circle cx="395.45" cy="431.15" r="4.5" fill="#059669" fill-opacity="0.9"/>
<circle cx="403.94" cy="431.38" r="4.5" fill="#059669" fill-opacity="0.9"/>
<circle cx="412.42" cy="423.57" r="4.5" fill="#059669" fill-opacity="0.9"/>
<circle cx="420.91" cy="429.42" r="4.5" fill="#059669" fill-opacity="0.9"/>
<circle cx="429.39" cy="423.25" r="4.5" fill="#059669" fill-opacity="0.9"/>
<circle cx="437.88" cy="431.65" r="4.5" fill="#059669" fill-opacity="0.9"/>
<circle cx="446.36" cy="420.76" r="4.5" fill="#059669" fill-opacity="0.9"/>
<circle cx="454.85" cy="434.07" r="4.5" fill="#059669" fill-opacity="0.9"/>
<circle cx="463.33" cy="432.32" r="4.5" fill="#059669" fill-opacity="0.9"/>
<circle cx="471.82" cy="430.87" r="4.5" fill="#059669" fill-opacity="0.9"/>
<circle cx="480.30" cy="433.07" r="4.5" fill="#059669" fill-opacity="0.9"/>
<circle cx="488.79" cy="429.24" r="4.5" fill="#059669" fill-opacity="0.9"/>
<circle cx="497.27" cy="422.14" r="4.5" fill="#059669" fill-opacity="0.9"/>
<circle cx="505.76" cy="432.05" r="4.5" fill="#059669" fill-opacity="0.9"/>
<circle cx="514.24" cy="435.53" r="4.5" fill="#059669" fill-opacity="0.9"/>
<circle cx="522.73" cy="435.55" r="4.5" fill="#059669" fill-opacity="0.9"/>
<circle cx="531.21" cy="435.55" r="4.5" fill="#059669" fill-opacity="0.9"/>
<circle cx="539.70" cy="435.56" r="4.5" fill="#059669" fill-opacity="0.9"/>
<circle cx="548.18" cy="435.55" r="4.5" fill="#059669" fill-opacity="0.9"/>
<circle cx="556.67" cy="435.52" r="4.5" fill="#059669" fill-opacity="0.9"/>
<circle cx="565.15" cy="435.55" r="4.5" fill="#059669" fill-opacity="0.9"/>
<circle cx="573.64" cy="435.49" r="4.5" fill="#059669" fill-opacity="0.9"/>
<circle cx="582.12" cy="435.51" r="4.5" fill="#059669" fill-opacity="0.9"/>
<circle cx="590.61" cy="435.53" r="4.5" fill="#059669" fill-opacity="0.9"/>
<circle cx="599.09" cy="435.54" r="4.5" fill="#059669" fill-opacity="0.9"/>
<circle cx="607.58" cy="435.44" r="4.5" fill="#059669" fill-opacity="0.9"/>
<circle cx="616.06" cy="435.52" r="4.5" fill="#059669" fill-opacity="0.9"/>
<circle cx="624.55" cy="435.50" r="4.5" fill="#059669" fill-opacity="0.9"/>
<circle cx="633.03" cy="435.37" r="4.5" fill="#059669" fill-opacity="0.9"/>
<circle cx="641.52" cy="435.48" r="4.5" fill="#059669" fill-opacity="0.9"/>
<circle cx="650.00" cy="435.51" r="4.5" fill="#059669" fill-opacity="0.9"/>
<circle cx="658.48" cy="435.48" r="4.5" fill="#059669" fill-opacity="0.9"/>
<circle cx="666.97" cy="435.49" r="4.5" fill="#059669" fill-opacity="0.9"/>
<circle cx="675.45" cy="435.44" r="4.5" fill="#059669" fill-opacity="0.9"/>
<circle cx="683.94" cy="435.44" r="4.5" fill="#059669" fill-opacity="0.9"/>
<circle cx="692.42" cy="435.45" r="4.5" fill="#059669" fill-opacity="0.9"/>
<circle cx="700.91" cy="435.26" r="4.5" fill="#059669" fill-opacity="0.9"/>
<circle cx="709.39" cy="435.37" r="4.5" fill="#059669" fill-opacity="0.9"/>
<circle cx="717.88" cy="435.40" r="4.5" fill="#059669" fill-opacity="0.9"/>
<circle cx="726.36" cy="435.35" r="4.5" fill="#059669" fill-opacity="0.9"/>
<circle cx="734.85" cy="435.21" r="4.5" fill="#059669" fill-opacity="0.9"/>
<circle cx="743.33" cy="435.41" r="4.5" fill="#059669" fill-opacity="0.9"/>
<circle cx="751.82" cy="435.47" r="4.5" fill="#059669" fill-opacity="0.9"/>
<circle cx="760.30" cy="435.43" r="4.5" fill="#059669" fill-opacity="0.9"/>
<circle cx="768.79" cy="435.45" r="4.5" fill="#059669" fill-opacity="0.9"/>
<circle cx="777.27" cy="435.26" r="4.5" fill="#059669" fill-opacity="0.9"/>
<circle cx="785.76" cy="435.46" r="4.5" fill="#059669" fill-opacity="0.9"/>
<circle cx="794.24" cy="435.38" r="4.5" fill="#059669" fill-opacity="0.9"/>
<circle cx="802.73" cy="435.41" r="4.5" fill="#059669" fill-opacity="0.9"/>
<circle cx="811.21" cy="435.45" r="4.5" fill="#059669" fill-opacity="0.9"/>
<circle cx="819.70" cy="435.35" r="4.5" fill="#059669" fill-opacity="0.9"/>
<circle cx="828.18" cy="435.39" r="4.5" fill="#059669" fill-opacity="0.9"/>
<circle cx="836.67" cy="435.39" r="4.5" fill="#059669" fill-opacity="0.9"/>
<circle cx="845.15" cy="435.31" r="4.5" fill="#059669" fill-opacity="0.9"/>
<circle cx="853.64" cy="435.44" r="4.5" fill="#059669" fill-opacity="0.9"/>
<circle cx="862.12" cy="435.40" r="4.5" fill="#059669" fill-opacity="0.9"/>
<circle cx="870.61" cy="435.40" r="4.5" fill="#059669" fill-opacity="0.9"/>
<circle cx="879.09" cy="435.47" r="4.5" fill="#059669" fill-opacity="0.9"/>
<circle cx="887.58" cy="435.45" r="4.5" fill="#059669" fill-opacity="0.9"/>
<circle cx="896.06" cy="435.45" r="4.5" fill="#059669" fill-opacity="0.9"/>
<circle cx="904.55" cy="435.09" r="4.5" fill="#059669" fill-opacity="0.9"/>
<circle cx="913.03" cy="435.42" r="4.5" fill="#059669" fill-opacity="0.9"/>
<circle cx="921.52" cy="435.45" r="4.5" fill="#059669" fill-opacity="0.9"/>
<circle cx="930.00" cy="435.43" r="4.5" fill="#059669" fill-opacity="0.9"/>
<rect x="450" y="32" width="18" height="6" fill="#059669"/>
<text x="474" y="38" font-size="13" fill="#333333">test</text>
</svg>