<svg xmlns="http://www.w3.org/2000/svg" width="960" height="540">
<rect width="100%" height="100%" fill="#ffffff"/>
<text x="480.0" y="30" font-size="22" text-anchor="middle" fill="#111111">Position 2 Accuracy</text>
<text x="20" y="270.0" font-size="16" transform="rotate(-90 20,270.0)" text-anchor="middle" fill="#333333">Accuracy</text>
<text x="480.0" y="520" font-size="16" text-anchor="middle" fill="#333333">Epoch</text>
<line x1="90" y1="60" x2="90" y2="470" stroke="#333333" stroke-width="2"/>
<line x1="90" y1="470" x2="930" y2="470" stroke="#333333" stroke-width="2"/>
<line x1="90" y1="470.00" x2="930" y2="470.00" stroke="#e5e7eb" stroke-width="1"/>
<text x="80" y="475.00" font-size="12" text-anchor="end" fill="#555555">-0.0708</text>
<line x1="90" y1="367.50" x2="930" y2="367.50" stroke="#e5e7eb" stroke-width="1"/>
<text x="80" y="372.50" font-size="12" text-anchor="end" fill="#555555">0.2189</text>
<line x1="90" y1="265.00" x2="930" y2="265.00" stroke="#e5e7eb" stroke-width="1"/>
<text x="80" y="270.00" font-size="12" text-anchor="end" fill="#555555">0.5086</text>
<line x1="90" y1="162.50" x2="930" y2="162.50" stroke="#e5e7eb" stroke-width="1"/>
<text x="80" y="167.50" font-size="12" text-anchor="end" fill="#555555">0.7982</text>
<line x1="90" y1="60.00" x2="930" y2="60.00" stroke="#e5e7eb" stroke-width="1"/>
<text x="80" y="65.00" font-size="12" text-anchor="end" fill="#555555">1.0879</text>
<line x1="90.00" y1="60" x2="90.00" y2="470" stroke="#f3f4f6" stroke-width="1"/>
<text x="90.00" y="492" font-size="12" text-anchor="middle" fill="#555555">1</text>
<line x1="98.48" y1="60" x2="98.48" y2="470" stroke="#f3f4f6" stroke-width="1"/>
<text x="98.48" y="492" font-size="12" text-anchor="middle" fill="#555555">2</text>
<line x1="106.97" y1="60" x2="106.97" y2="470" stroke="#f3f4f6" stroke-width="1"/>
<text x="106.97" y="492" font-size="12" text-anchor="middle" fill="#555555">3</text>
<line x1="115.45" y1="60" x2="115.45" y2="470" stroke="#f3f4f6" stroke-width="1"/>
<text x="115.45" y="492" font-size="12" text-anchor="middle" fill="#555555">4</text>
<line x1="123.94" y1="60" x2="123.94" y2="470" stroke="#f3f4f6" stroke-width="1"/>
<text x="123.94" y="492" font-size="12" text-anchor="middle" fill="#555555">5</text>
<line x1="132.42" y1="60" x2="132.42" y2="470" stroke="#f3f4f6" stroke-width="1"/>
<text x="132.42" y="492" font-size="12" text-anchor="middle" fill="#555555">6</text>
<line x1="140.91" y1="60" x2="140.91" y2="470" stroke="#f3f4f6" stroke-width="1"/>
<text x="140.91" y="492" font-size="12" text-anchor="middle" fill="#555555">7</text>
<line x1="149.39" y1="60" x2="149.39" y2="470" stroke="#f3f4f6" stroke-width="1"/>
<text x="149.39" y="492" font-size="12" text-anchor="middle" fill="#555555">8</text>
<line x1="157.88" y1="60" x2="157.88" y2="470" stroke="#f3f4f6" stroke-width="1"/>
<text x="157.88" y="492" font-size="12" text-anchor="middle" fill="#555555">9</text>
<line x1="166.36" y1="60" x2="166.36" y2="470" stroke="#f3f4f6" stroke-width="1"/>
<text x="166.36" y="492" font-size="12" text-anchor="middle" fill="#555555">10</text>
<line x1="174.85" y1="60" x2="174.85" y2="470" stroke="#f3f4f6" stroke-width="1"/>
<text x="174.85" y="492" font-size="12" text-anchor="middle" fill="#555555">11</text>
<line x1="183.33" y1="60" x2="183.33" y2="470" stroke="#f3f4f6" stroke-width="1"/>
<text x="183.33" y="492" font-size="12" text-anchor="middle" fill="#555555">12</text>
<line x1="191.82" y1="60" x2="191.82" y2="470" stroke="#f3f4f6" stroke-width="1"/>
<text x="191.82" y="492" font-size="12" text-anchor="middle" fill="#555555">13</text>
<line x1="200.30" y1="60" x2="200.30" y2="470" stroke="#f3f4f6" stroke-width="1"/>
<text x="200.30" y="492" font-size="12" text-anchor="middle" fill="#555555">14</text>
<line x1="208.79" y1="60" x2="208.79" y2="470" stroke="#f3f4f6" stroke-width="1"/>
<text x="208.79" y="492" font-size="12" text-anchor="middle" fill="#555555">15</text>
<line x1="217.27" y1="60" x2="217.27" y2="470" stroke="#f3f4f6" stroke-width="1"/>
<text x="217.27" y="492" font-size="12" text-anchor="middle" fill="#555555">16</text>
<line x1="225.76" y1="60" x2="225.76" y2="470" stroke="#f3f4f6" stroke-width="1"/>
<text x="225.76" y="492" font-size="12" text-anchor="middle" fill="#555555">17</text>
<line x1="234.24" y1="60" x2="234.24" y2="470" stroke="#f3f4f6" stroke-width="1"/>
<text x="234.24" y="492" font-size="12" text-anchor="middle" fill="#555555">18</text>
<line x1="242.73" y1="60" x2="242.73" y2="470" stroke="#f3f4f6" stroke-width="1"/>
<text x="242.73" y="492" font-size="12" text-anchor="middle" fill="#555555">19</text>
<line x1="251.21" y1="60" x2="251.21" y2="470" stroke="#f3f4f6" stroke-width="1"/>
<text x="251.21" y="492" font-size="12" text-anchor="middle" fill="#555555">20</text>
<line x1="259.70" y1="60" x2="259.70" y2="470" stroke="#f3f4f6" stroke-width="1"/>
<text x="259.70" y="492" font-size="12" text-anchor="middle" fill="#555555">21</text>
<line x1="268.18" y1="60" x2="268.18" y2="470" stroke="#f3f4f6" stroke-width="1"/>
<text x="268.18" y="492" font-size="12" text-anchor="middle" fill="#555555">22</text>
<line x1="276.67" y1="60" x2="276.67" y2="470" stroke="#f3f4f6" stroke-width="1"/>
<text x="276.67" y="492" font-size="12" text-anchor="middle" fill="#555555">23</text>
<line x1="285.15" y1="60" x2="285.15" y2="470" stroke="#f3f4f6" stroke-width="1"/>
<text x="285.15" y="492" font-size="12" text-anchor="middle" fill="#555555">24</text>
<line x1="293.64" y1="60" x2="293.64" y2="470" stroke="#f3f4f6" stroke-width="1"/>
<text x="293.64" y="492" font-size="12" text-anchor="middle" fill="#555555">25</text>
<line x1="302.12" y1="60" x2="302.12" y2="470" stroke="#f3f4f6" stroke-width="1"/>
<text x="302.12" y="492" font-size="12" text-anchor="middle" fill="#555555">26</text>
<line x1="310.61" y1="60" x2="310.61" y2="470" stroke="#f3f4f6" stroke-width="1"/>
<text x="310.61" y="492" font-size="12" text-anchor="middle" fill="#555555">27</text>
<line x1="319.09" y1="60" x2="319.09" y2="470" stroke="#f3f4f6" stroke-width="1"/>
<text x="319.09" y="492" font-size="12" text-anchor="middle" fill="#555555">28</text>
<line x1="327.58" y1="60" x2="327.58" y2="470" stroke="#f3f4f6" stroke-width="1"/>
<text x="327.58" y="492" font-size="12" text-anchor="middle" fill="#555555">29</text>
<line x1="336.06" y1="60" x2="336.06" y2="470" stroke="#f3f4f6" stroke-width="1"/>
<text x="336.06" y="492" font-size="12" text-anchor="middle" fill="#555555">30</text>
<line x1="344.55" y1="60" x2="344.55" y2="470" stroke="#f3f4f6" stroke-width="1"/>
<text x="344.55" y="492" font-size="12" text-anchor="middle" fill="#555555">31</text>
<line x1="353.03" y1="60" x2="353.03" y2="470" stroke="#f3f4f6" stroke-width="1"/>
<text x="353.03" y="492" font-size="12" text-anchor="middle" fill="#555555">32</text>
<line x1="361.52" y1="60" x2="361.52" y2="470" stroke="#f3f4f6" stroke-width="1"/>
<text x="361.52" y="492" font-size="12" text-anchor="middle" fill="#555555">33</text>
<line x1="370.00" y1="60" x2="370.00" y2="470" stroke="#f3f4f6" stroke-width="1"/>
<text x="370.00" y="492" font-size="12" text-anchor="middle" fill="#555555">34</text>
<line x1="378.48" y1="60" x2="378.48" y2="470" stroke="#f3f4f6" stroke-width="1"/>
<text x="378.48" y="492" font-size="12" text-anchor="middle" fill="#555555">35</text>
<line x1="386.97" y1="60" x2="386.97" y2="470" stroke="#f3f4f6" stroke-width="1"/>
<text x="386.97" y="492" font-size="12" text-anchor="middle" fill="#555555">36</text>
<line x1="395.45" y1="60" x2="395.45" y2="470" stroke="#f3f4f6" stroke-width="1"/>
<text x="395.45" y="492" font-size="12" text-anchor="middle" fill="#555555">37</text>
<line x1="403.94" y1="60" x2="403.94" y2="470" stroke="#f3f4f6" stroke-width="1"/>
<text x="403.94" y="492" font-size="12" text-anchor="middle" fill="#555555">38</text>
<line x1="412.42" y1="60" x2="412.42" y2="470" stroke="#f3f4f6" stroke-width="1"/>
<text x="412.42" y="492" font-size="12" text-anchor="middle" fill="#555555">39</text>
<line x1="420.91" y1="60" x2="420.91" y2="470" stroke="#f3f4f6" stroke-width="1"/>
<text x="420.91" y="492" font-size="12" text-anchor="middle" fill="#555555">40</text>
<line x1="429.39" y1="60" x2="429.39" y2="470" stroke="#f3f4f6" stroke-width="1"/>
<text x="429.39" y="492" font-size="12" text-anchor="middle" fill="#555555">41</text>
<line x1="437.88" y1="60" x2="437.88" y2="470" stroke="#f3f4f6" stroke-width="1"/>
<text x="437.88" y="492" font-size="12" text-anchor="middle" fill="#555555">42</text>
<line x1="446.36" y1="60" x2="446.36" y2="470" stroke="#f3f4f6" stroke-width="1"/>
<text x="446.36" y="492" font-size="12" text-anchor="middle" fill="#555555">43</text>
<line x1="454.85" y1="60" x2="454.85" y2="470" stroke="#f3f4f6" stroke-width="1"/>
<text x="454.85" y="492" font-size="12" text-anchor="middle" fill="#555555">44</text>
<line x1="463.33" y1="60" x2="463.33" y2="470" stroke="#f3f4f6" stroke-width="1"/>
<text x="463.33" y="492" font-size="12" text-anchor="middle" fill="#555555">45</text>
<line x1="471.82" y1="60" x2="471.82" y2="470" stroke="#f3f4f6" stroke-width="1"/>
<text x="471.82" y="492" font-size="12" text-anchor="middle" fill="#555555">46</text>
<line x1="480.30" y1="60" x2="480.30" y2="470" stroke="#f3f4f6" stroke-width="1"/>
<text x="480.30" y="492" font-size="12" text-anchor="middle" fill="#555555">47</text>
<line x1="488.79" y1="60" x2="488.79" y2="470" stroke="#f3f4f6" stroke-width="1"/>
<text x="488.79" y="492" font-size="12" text-anchor="middle" fill="#555555">48</text>
<line x1="497.27" y1="60" x2="497.27" y2="470" stroke="#f3f4f6" stroke-width="1"/>
<text x="497.27" y="492" font-size="12" text-anchor="middle" fill="#555555">49</text>
<line x1="505.76" y1="60" x2="505.76" y2="470" stroke="#f3f4f6" stroke-width="1"/>
<text x="505.76" y="492" font-size="12" text-anchor="middle" fill="#555555">50</text>
<line x1="514.24" y1="60" x2="514.24" y2="470" stroke="#f3f4f6" stroke-width="1"/>
<text x="514.24" y="492" font-size="12" text-anchor="middle" fill="#555555">51</text>
<line x1="522.73" y1="60" x2="522.73" y2="470" stroke="#f3f4f6" stroke-width="1"/>
<text x="522.73" y="492" font-size="12" text-anchor="middle" fill="#555555">52</text>
<line x1="531.21" y1="60" x2="531.21" y2="470" stroke="#f3f4f6" stroke-width="1"/>
<text x="531.21" y="492" font-size="12" text-anchor="middle" fill="#555555">53</text>
<line x1="539.70" y1="60" x2="539.70" y2="470" stroke="#f3f4f6" stroke-width="1"/>
<text x="539.70" y="492" font-size="12" text-anchor="middle" fill="#555555">54</text>
<line x1="548.18" y1="60" x2="548.18" y2="470" stroke="#f3f4f6" stroke-width="1"/>
<text x="548.18" y="492" font-size="12" text-anchor="middle" fill="#555555">55</text>
<line x1="556.67" y1="60" x2="556.67" y2="470" stroke="#f3f4f6" stroke-width="1"/>
<text x="556.67" y="492" font-size="12" text-anchor="middle" fill="#555555">56</text>
<line x1="565.15" y1="60" x2="565.15" y2="470" stroke="#f3f4f6" stroke-width="1"/>
<text x="565.15" y="492" font-size="12" text-anchor="middle" fill="#555555">57</text>
<line x1="573.64" y1="60" x2="573.64" y2="470" stroke="#f3f4f6" stroke-width="1"/>
<text x="573.64" y="492" font-size="12" text-anchor="middle" fill="#555555">58</text>
<line x1="582.12" y1="60" x2="582.12" y2="470" stroke="#f3f4f6" stroke-width="1"/>
<text x="582.12" y="492" font-size="12" text-anchor="middle" fill="#555555">59</text>
<line x1="590.61" y1="60" x2="590.61" y2="470" stroke="#f3f4f6" stroke-width="1"/>
<text x="590.61" y="492" font-size="12" text-anchor="middle" fill="#555555">60</text>
<line x1="599.09" y1="60" x2="599.09" y2="470" stroke="#f3f4f6" stroke-width="1"/>
<text x="599.09" y="492" font-size="12" text-anchor="middle" fill="#555555">61</text>
<line x1="607.58" y1="60" x2="607.58" y2="470" stroke="#f3f4f6" stroke-width="1"/>
<text x="607.58" y="492" font-size="12" text-anchor="middle" fill="#555555">62</text>
<line x1="616.06" y1="60" x2="616.06" y2="470" stroke="#f3f4f6" stroke-width="1"/>
<text x="616.06" y="492" font-size="12" text-anchor="middle" fill="#555555">63</text>
<line x1="624.55" y1="60" x2="624.55" y2="470" stroke="#f3f4f6" stroke-width="1"/>
<text x="624.55" y="492" font-size="12" text-anchor="middle" fill="#555555">64</text>
<line x1="633.03" y1="60" x2="633.03" y2="470" stroke="#f3f4f6" stroke-width="1"/>
<text x="633.03" y="492" font-size="12" text-anchor="middle" fill="#555555">65</text>
<line x1="641.52" y1="60" x2="641.52" y2="470" stroke="#f3f4f6" stroke-width="1"/>
<text x="641.52" y="492" font-size="12" text-anchor="middle" fill="#555555">66</text>
<line x1="650.00" y1="60" x2="650.00" y2="470" stroke="#f3f4f6" stroke-width="1"/>
<text x="650.00" y="492" font-size="12" text-anchor="middle" fill="#555555">67</text>
<line x1="658.48" y1="60" x2="658.48" y2="470" stroke="#f3f4f6" stroke-width="1"/>
<text x="658.48" y="492" font-size="12" text-anchor="middle" fill="#555555">68</text>
<line x1="666.97" y1="60" x2="666.97" y2="470" stroke="#f3f4f6" stroke-width="1"/>
<text x="666.97" y="492" font-size="12" text-anchor="middle" fill="#555555">69</text>
<line x1="675.45" y1="60" x2="675.45" y2="470" stroke="#f3f4f6" stroke-width="1"/>
<text x="675.45" y="492" font-size="12" text-anchor="middle" fill="#555555">70</text>
<line x1="683.94" y1="60" x2="683.94" y2="470" stroke="#f3f4f6" stroke-width="1"/>
<text x="683.94" y="492" font-size="12" text-anchor="middle" fill="#555555">71</text>
<line x1="692.42" y1="60" x2="692.42" y2="470" stroke="#f3f4f6" stroke-width="1"/>
<text x="692.42" y="492" font-size="12" text-anchor="middle" fill="#555555">72</text>
<line x1="700.91" y1="60" x2="700.91" y2="470" stroke="#f3f4f6" stroke-width="1"/>
<text x="700.91" y="492" font-size="12" text-anchor="middle" fill="#555555">73</text>
<line x1="709.39" y1="60" x2="709.39" y2="470" stroke="#f3f4f6" stroke-width="1"/>
<text x="709.39" y="492" font-size="12" text-anchor="middle" fill="#555555">74</text>
<line x1="717.88" y1="60" x2="717.88" y2="470" stroke="#f3f4f6" stroke-width="1"/>
<text x="717.88" y="492" font-size="12" text-anchor="middle" fill="#555555">75</text>
<line x1="726.36" y1="60" x2="726.36" y2="470" stroke="#f3f4f6" stroke-width="1"/>
<text x="726.36" y="492" font-size="12" text-anchor="middle" fill="#555555">76</text>
<line x1="734.85" y1="60" x2="734.85" y2="470" stroke="#f3f4f6" stroke-width="1"/>
<text x="734.85" y="492" font-size="12" text-anchor="middle" fill="#555555">77</text>
<line x1="743.33" y1="60" x2="743.33" y2="470" stroke="#f3f4f6" stroke-width="1"/>
<text x="743.33" y="492" font-size="12" text-anchor="middle" fill="#555555">78</text>
<line x1="751.82" y1="60" x2="751.82" y2="470" stroke="#f3f4f6" stroke-width="1"/>
<text x="751.82" y="492" font-size="12" text-anchor="middle" fill="#555555">79</text>
<line x1="760.30" y1="60" x2="760.30" y2="470" stroke="#f3f4f6" stroke-width="1"/>
<text x="760.30" y="492" font-size="12" text-anchor="middle" fill="#555555">80</text>
<line x1="768.79" y1="60" x2="768.79" y2="470" stroke="#f3f4f6" stroke-width="1"/>
<text x="768.79" y="492" font-size="12" text-anchor="middle" fill="#555555">81</text>
<line x1="777.27" y1="60" x2="777.27" y2="470" stroke="#f3f4f6" stroke-width="1"/>
<text x="777.27" y="492" font-size="12" text-anchor="middle" fill="#555555">82</text>
<line x1="785.76" y1="60" x2="785.76" y2="470" stroke="#f3f4f6" stroke-width="1"/>
<text x="785.76" y="492" font-size="12" text-anchor="middle" fill="#555555">83</text>
<line x1="794.24" y1="60" x2="794.24" y2="470" stroke="#f3f4f6" stroke-width="1"/>
<text x="794.24" y="492" font-size="12" text-anchor="middle" fill="#555555">84</text>
<line x1="802.73" y1="60" x2="802.73" y2="470" stroke="#f3f4f6" stroke-width="1"/>
<text x="802.73" y="492" font-size="12" text-anchor="middle" fill="#555555">85</text>
<line x1="811.21" y1="60" x2="811.21" y2="470" stroke="#f3f4f6" stroke-width="1"/>
<text x="811.21" y="492" font-size="12" text-anchor="middle" fill="#555555">86</text>
<line x1="819.70" y1="60" x2="819.70" y2="470" stroke="#f3f4f6" stroke-width="1"/>
<text x="819.70" y="492" font-size="12" text-anchor="middle" fill="#555555">87</text>
<line x1="828.18" y1="60" x2="828.18" y2="470" stroke="#f3f4f6" stroke-width="1"/>
<text x="828.18" y="492" font-size="12" text-anchor="middle" fill="#555555">88</text>
<line x1="836.67" y1="60" x2="836.67" y2="470" stroke="#f3f4f6" stroke-width="1"/>
<text x="836.67" y="492" font-size="12" text-anchor="middle" fill="#555555">89</text>
<line x1="845.15" y1="60" x2="845.15" y2="470" stroke="#f3f4f6" stroke-width="1"/>
<text x="845.15" y="492" font-size="12" text-anchor="middle" fill="#555555">90</text>
<line x1="853.64" y1="60" x2="853.64" y2="470" stroke="#f3f4f6" stroke-width="1"/>
<text x="853.64" y="492" font-size="12" text-anchor="middle" fill="#555555">91</text>
<line x1="862.12" y1="60" x2="862.12" y2="470" stroke="#f3f4f6" stroke-width="1"/>
<text x="862.12" y="492" font-size="12" text-anchor="middle" fill="#555555">92</text>
<line x1="870.61" y1="60" x2="870.61" y2="470" stroke="#f3f4f6" stroke-width="1"/>
<text x="870.61" y="492" font-size="12" text-anchor="middle" fill="#555555">93</text>
<line x1="879.09" y1="60" x2="879.09" y2="470" stroke="#f3f4f6" stroke-width="1"/>
<text x="879.09" y="492" font-size="12" text-anchor="middle" fill="#555555">94</text>
<line x1="887.58" y1="60" x2="887.58" y2="470" stroke="#f3f4f6" stroke-width="1"/>
<text x="887.58" y="492" font-size="12" text-anchor="middle" fill="#555555">95</text>
<line x1="896.06" y1="60" x2="896.06" y2="470" stroke="#f3f4f6" stroke-width="1"/>
<text x="896.06" y="492" font-size="12" text-anchor="middle" fill="#555555">96</text>
<line x1="904.55" y1="60" x2="904.55" y2="470" stroke="#f3f4f6" stroke-width="1"/>
<text x="904.55" y="492" font-size="12" text-anchor="middle" fill="#555555">97</text>
<line x1="913.03" y1="60" x2="913.03" y2="470" stroke="#f3f4f6" stroke-width="1"/>
<text x="913.03" y="492" font-size="12" text-anchor="middle" fill="#555555">98</text>
<line x1="921.52" y1="60" x2="921.52" y2="470" stroke="#f3f4f6" stroke-width="1"/>
<text x="921.52" y="492" font-size="12" text-anchor="middle" fill="#555555">99</text>
<line x1="930.00" y1="60" x2="930.00" y2="470" stroke="#f3f4f6" stroke-width="1"/>
<text x="930.00" y="492" font-size="12" text-anchor="middle" fill="#555555">100</text>
<polyline fill="none" stroke="#d97706" stroke-width="3" points="90.00,128.28 98.48,147.22 106.97,149.75 115.45,99.45 123.94,103.34 132.42,101.36 140.91,104.41 149.39,187.26 157.88,98.41 166.36,118.58 174.85,97.96 183.33,96.95 191.82,97.19 200.30,97.33 208.79,99.76 217.27,105.96 225.76,96.05 234.24,95.68 242.73,95.51 251.21,96.36 259.70,435.83 268.18,435.69 276.67,434.30 285.15,435.10 293.64,150.29 302.12,179.57 310.61,120.05 319.09,118.75 327.58,432.13 336.06,433.80 344.55,99.62 353.03,107.28 361.52,137.48 370.00,139.13 378.48,125.26 386.97,102.66 395.45,113.77 403.94,114.29 412.42,135.62 420.91,116.29 429.39,149.61 437.88,113.30 446.36,187.21 454.85,102.54 463.33,117.33 471.82,115.87 480.30,109.67 488.79,117.69 497.27,163.69 505.76,114.27 514.24,94.64 522.73,94.78 531.21,94.64 539.70,94.87 548.18,94.54 556.67,94.47 565.15,94.24 573.64,94.90 582.12,94.66 590.61,94.57 599.09,94.47 607.58,94.97 616.06,94.36 624.55,94.71 633.03,95.44 641.52,94.64 650.00,94.24 658.48,94.17 666.97,94.54 675.45,94.64 683.94,94.83 692.42,94.78 700.91,95.44 709.39,94.97 717.88,94.61 726.36,94.87 734.85,96.45 743.33,94.64 751.82,94.59 760.30,94.69 768.79,94.47 777.27,94.99 785.76,94.43 794.24,95.39 802.73,94.43 811.21,94.36 819.70,94.69 828.18,95.28 836.67,95.20 845.15,94.97 853.64,94.61 862.12,94.66 870.61,95.04 879.09,94.69 887.58,94.90 896.06,94.64 904.55,96.20 913.03,94.71 921.52,94.71 930.00,94.92"/>
<circle cx="90.00" cy="128.28" r="4.5" fill="#d97706" fill-opacity="0.9"/>
<circle cx="98.48" cy="147.22" r="4.5" fill="#d97706" fill-opacity="0.9"/>
<circle cx="106.97" cy="149.75" r="4.5" fill="#d97706" fill-opacity="0.9"/>
<circle cx="115.45" cy="99.45" r="4.5" fill="#d97706" fill-opacity="0.9"/>
<circle cx="123.94" cy="103.34" r="4.5" fill="#d97706" fill-opacity="0.9"/>
<circle cx="132.42" cy="101.36" r="4.5" fill="#d97706" fill-opacity="0.9"/>
<circle cx="140.91" cy="104.41" r="4.5" fill="#d97706" fill-opacity="0.9"/>
<circle cx="149.39" cy="187.26" r="4.5" fill="#d97706" fill-opacity="0.9"/>
<circle cx="157.88" cy="98.41" r="4.5" fill="#d97706" fill-opacity="0.9"/>
<circle cx="166.36" cy="118.58" r="4.5" fill="#d97706" fill-opacity="0.9"/>
<circle cx="174.85" cy="97.96" r="4.5" fill="#d97706" fill-opacity="0.9"/>
<circle cx="183.33" cy="96.95" r="4.5" fill="#d97706" fill-opacity="0.9"/>
<circle cx="191.82" cy="97.19" r="4.5" fill="#d97706" fill-opacity="0.9"/>
<circle cx="200.30" cy="97.33" r="4.5" fill="#d97706" fill-opacity="0.9"/>
<circle cx="208.79" cy="99.76" r="4.5" fill="#d97706" fill-opacity="0.9"/>
<circle cx="217.27" cy="105.96" r="4.5" fill="#d97706" fill-opacity="0.9"/>
<circle cx="225.76" cy="96.05" r="4.5" fill="#d97706" fill-opacity="0.9"/>
<circle cx="234.24" cy="95.68" r="4.5" fill="#d97706" fill-opacity="0.9"/>
<circle cx="242.73" cy="95.51" r="4.5" fill="#d97706" fill-opacity="0.9"/>
<circle cx="251.21" cy="96.36" r="4.5" fill="#d97706" fill-opacity="0.9"/>
<circle cx="259.70" cy="435.83" r="4.5" fill="#d97706" fill-opacity="0.9"/>
<circle cx="268.18" cy="435.69" r="4.5" fill="#d97706" fill-opacity="0.9"/>
<circle cx="276.67" cy="434.30" r="4.5" fill="#d97706" fill-opacity="0.9"/>
<circle cx="285.15" cy="435.10" r="4.5" fill="#d97706" fill-opacity="0.9"/>
<circle cx="293.64" cy="150.29" r="4.5" fill="#d97706" fill-opacity="0.9"/>
<circle cx="302.12" cy="179.57" r="4.5" fill="#d97706" fill-opacity="0.9"/>
<circle cx="310.61" cy="120.05" r="4.5" fill="#d97706" fill-opacity="0.9"/>
<circle cx="319.09" cy="118.75" r="4.5" fill="#d97706" fill-opacity="0.9"/>
<circle cx="327.58" cy="432.13" r="4.5" fill="#d97706" fill-opacity="0.9"/>
<circle cx="336.06" cy="433.80" r="4.5" fill="#d97706" fill-opacity="0.9"/>
<circle cx="344.55" cy="99.62" r="4.5" fill="#d97706" fill-opacity="0.9"/>
<circle cx="353.03" cy="107.28" r="4.5" fill="#d97706" fill-opacity="0.9"/>
<circle cx="361.52" cy="137.48" r="4.5" fill="#d97706" fill-opacity="0.9"/>
<circle cx="370.00" cy="139.13" r="4.5" fill="#d97706" fill-opacity="0.9"/>
<circle cx="378.48" cy="125.26" r="4.5" fill="#d97706" fill-opacity="0.9"/>
<circle cx="386.97" cy="102.66" r="4.5" fill="#d97706" fill-opacity="0.9"/>
<circle cx="395.45" cy="113.77" r="4.5" fill="#d97706" fill-opacity="0.9"/>
<circle cx="403.94" cy="114.29" r="4.5" fill="#d97706" fill-opacity="0.9"/>
<circle cx="412.42" cy="135.62" r="4.5" fill="#d97706" fill-opacity="0.9"/>
<circle cx="420.91" cy="116.29" r="4.5" fill="#d97706" fill-opacity="0.9"/>
<circle cx="429.39" cy="149.61" r="4.5" fill="#d97706" fill-opacity="0.9"/>
<circle cx="437.88" cy="113.30" r="4.5" fill="#d97706" fill-opacity="0.9"/>
<circle cx="446.36" cy="187.21" r="4.5" fill="#d97706" fill-opacity="0.9"/>
<circle cx="454.85" cy="102.54" r="4.5" fill="#d97706" fill-opacity="0.9"/>
<circle cx="463.33" cy="117.33" r="4.5" fill="#d97706" fill-opacity="0.9"/>
<circle cx="471.82" cy="115.87" r="4.5" fill="#d97706" fill-opacity="0.9"/>
<circle cx="480.30" cy="109.67" r="4.5" fill="#d97706" fill-opacity="0.9"/>
<circle cx="488.79" cy="117.69" r="4.5" fill="#d97706" fill-opacity="0.9"/>
<circle cx="497.27" cy="163.69" r="4.5" fill="#d97706" fill-opacity="0.9"/>
<circle cx="505.76" cy="114.27" r="4.5" fill="#d97706" fill-opacity="0.9"/>
<circle cx="514.24" cy="94.64" r="4.5" fill="#d97706" fill-opacity="0.9"/>
<circle cx="522.73" cy="94.78" r="4.5" fill="#d97706" fill-opacity="0.9"/>
<circle cx="531.21" cy="94.64" r="4.5" fill="#d97706" fill-opacity="0.9"/>
<circle cx="539.70" cy="94.87" r="4.5" fill="#d97706" fill-opacity="0.9"/>
<circle cx="548.18" cy="94.54" r="4.5" fill="#d97706" fill-opacity="0.9"/>
<circle cx="556.67" cy="94.47" r="4.5" fill="#d97706" fill-opacity="0.9"/>
<circle cx="565.15" cy="94.24" r="4.5" fill="#d97706" fill-opacity="0.9"/>
<circle cx="573.64" cy="94.90" r="4.5" fill="#d97706" fill-opacity="0.9"/>
<circle cx="582.12" cy="94.66" r="4.5" fill="#d97706" fill-opacity="0.9"/>
<circle cx="590.61" cy="94.57" r="4.5" fill="#d97706" fill-opacity="0.9"/>
<circle cx="599.09" cy="94.47" r="4.5" fill="#d97706" fill-opacity="0.9"/>
<circle cx="607.58" cy="94.97" r="4.5" fill="#d97706" fill-opacity="0.9"/>
<circle cx="616.06" cy="94.36" r="4.5" fill="#d97706" fill-opacity="0.9"/>
<circle cx="624.55" cy="94.71" r="4.5" fill="#d97706" fill-opacity="0.9"/>
<circle cx="633.03" cy="95.44" r="4.5" fill="#d97706" fill-opacity="0.9"/>
<circle cx="641.52" cy="94.64" r="4.5" fill="#d97706" fill-opacity="0.9"/>
<circle cx="650.00" cy="94.24" r="4.5" fill="#d97706" fill-opacity="0.9"/>
<circle cx="658.48" cy="94.17" r="4.5" fill="#d97706" fill-opacity="0.9"/>
<circle cx="666.97" cy="94.54" r="4.5" fill="#d97706" fill-opacity="0.9"/>
<circle cx="675.45" cy="94.64" r="4.5" fill="#d97706" fill-opacity="0.9"/>
<circle cx="683.94" cy="94.83" r="4.5" fill="#d97706" fill-opacity="0.9"/>
<circle cx="692.42" cy="94.78" r="4.5" fill="#d97706" fill-opacity="0.9"/>
<circle cx="700.91" cy="95.44" r="4.5" fill="#d97706" fill-opacity="0.9"/>
<circle cx="709.39" cy="94.97" r="4.5" fill="#d97706" fill-opacity="0.9"/>
<circle cx="717.88" cy="94.61" r="4.5" fill="#d97706" fill-opacity="0.9"/>
<circle cx="726.36" cy="94.87" r="4.5" fill="#d97706" fill-opacity="0.9"/>
<circle cx="734.85" cy="96.45" r="4.5" fill="#d97706" fill-opacity="0.9"/>
<circle cx="743.33" cy="94.64" r="4.5" fill="#d97706" fill-opacity="0.9"/>
<circle cx="751.82" cy="94.59" r="4.5" fill="#d97706" fill-opacity="0.9"/>
<circle cx="760.30" cy="94.69" r="4.5" fill="#d97706" fill-opacity="0.9"/>
<circle cx="768.79" cy="94.47" r="4.5" fill="#d97706" fill-opacity="0.9"/>
<circle cx="777.27" cy="94.99" r="4.5" fill="#d97706" fill-opacity="0.9"/>
<circle cx="785.76" cy="94.43" r="4.5" fill="#d97706" fill-opacity="0.9"/>
<circle cx="794.24" cy="95.39" r="4.5" fill="#d97706" fill-opacity="0.9"/>
<circle cx="802.73" cy="94.43" r="4.5" fill="#d97706" fill-opacity="0.9"/>
<circle cx="811.21" cy="94.36" r="4.5" fill="#d97706" fill-opacity="0.9"/>
<circle cx="819.70" cy="94.69" r="4.5" fill="#d97706" fill-opacity="0.9"/>
<circle cx="828.18" cy="95.28" r="4.5" fill="#d97706" fill-opacity="0.9"/>
<circle cx="836.67" cy="95.20" r="4.5" fill="#d97706" fill-opacity="0.9"/>
<circle cx="845.15" cy="94.97" r="4.5" fill="#d97706" fill-opacity="0.9"/>
<circle cx="853.64" cy="94.61" r="4.5" fill="#d97706" fill-opacity="0.9"/>
<circle cx="862.12" cy="94.66" r="4.5" fill="#d97706" fill-opacity="0.9"/>
<circle cx="870.61" cy="95.04" r="4.5" fill="#d97706" fill-opacity="0.9"/>
<circle cx="879.09" cy="94.69" r="4.5" fill="#d97706" fill-opacity="0.9"/>
<circle cx="887.58" cy="94.90" r="4.5" fill="#d97706" fill-opacity="0.9"/>
<circle cx="896.06" cy="94.64" r="4.5" fill="#d97706" fill-opacity="0.9"/>
<circle cx="904.55" cy="96.20" r="4.5" fill="#d97706" fill-opacity="0.9"/>
<circle cx="913.03" cy="94.71" r="4.5" fill="#d97706" fill-opacity="0.9"/>
<circle cx="921.52" cy="94.71" r="4.5" fill="#d97706" fill-opacity="0.9"/>
<circle cx="930.00" cy="94.92" r="4.5" fill="#d97706" fill-opacity="0.9"/>
<rect x="90" y="32" width="18" height="6" fill="#d97706"/>
<text x="114" y="38" font-size="13" fill="#333333">val</text>
<polyline fill="none" stroke="#059669" stroke-width="3" points="90.00,127.74 98.48,147.48 106.97,154.91 115.45,100.91 123.94,105.70 132.42,101.60 140.91,103.93 149.39,186.10 157.88,98.86 166.36,119.83 174.85,98.70 183.33,98.58 191.82,97.38 200.30,98.32 208.79,100.68 217.27,106.10 225.76,96.69 234.24,96.36 242.73,95.96 251.21,97.23 259.70,435.50 268.18,435.41 276.67,434.37 285.15,434.23 293.64,152.13 302.12,181.22 310.61,121.74 319.09,119.57 327.58,432.96 336.06,433.95 344.55,100.39 353.03,106.95 361.52,138.87 370.00,139.86 378.48,124.69 386.97,103.56 395.45,114.90 403.94,116.37 412.42,134.01 420.91,116.86 429.39,147.91 437.88,114.57 446.36,185.51 454.85,102.68 463.33,116.65 471.82,116.81 480.30,110.26 488.79,117.73 497.27,164.75 505.76,117.40 514.24,95.56 522.73,95.30 531.21,94.99 539.70,94.83 548.18,95.06 556.67,94.85 565.15,94.76 573.64,95.18 582.12,94.99 590.61,94.78 599.09,94.87 607.58,95.02 616.06,94.61 624.55,94.97 633.03,95.96 641.52,95.02 650.00,94.54 658.48,94.45 666.97,94.80 675.45,95.11 683.94,95.18 692.42,95.13 700.91,95.63 709.39,95.65 717.88,95.32 726.36,95.09 734.85,96.29 743.33,95.16 751.82,94.69 760.30,94.97 768.79,94.92 777.27,95.42 785.76,94.99 794.24,96.01 802.73,95.09 811.21,94.90 819.70,95.28 828.18,95.61 836.67,95.94 845.15,95.53 853.64,94.76 862.12,95.16 870.61,95.23 879.09,94.59 887.58,94.80 896.06,95.04 904.55,96.20 913.03,94.76 921.52,94.97 930.00,94.87"/>
<circle cx="90.00" cy="127.74" r="4.5" fill="#059669" fill-opacity="0.9"/>
<circle cx="98.48" cy="147.48" r="4.5" fill="#059669" fill-opacity="0.9"/>
<circle cx="106.97" cy="154.91" r="4.5" fill="#059669" fill-opacity="0.9"/>
<circle cx="115.45" cy="100.91" r="4.5" fill="#059669" fill-opacity="0.9"/>
<circle cx="123.94" cy="105.70" r="4.5" fill="#059669" fill-opacity="0.9"/>
<circle cx="132.42" cy="101.60" r="4.5" fill="#059669" fill-opacity="0.9"/>
<circle cx="140.91" cy="103.93" r="4.5" fill="#059669" fill-opacity="0.9"/>
<circle cx="149.39" cy="186.10" r="4.5" fill="#059669" fill-opacity="0.9"/>
<circle cx="157.88" cy="98.86" r="4.5" fill="#059669" fill-opacity="0.9"/>
<circle cx="166.36" cy="119.83" r="4.5" fill="#059669" fill-opacity="0.9"/>
<circle cx="174.85" cy="98.70" r="4.5" fill="#059669" fill-opacity="0.9"/>
<circle cx="183.33" cy="98.58" r="4.5" fill="#059669" fill-opacity="0.9"/>
<circle cx="191.82" cy="97.38" r="4.5" fill="#059669" fill-opacity="0.9"/>
<circle cx="200.30" cy="98.32" r="4.5" fill="#059669" fill-opacity="0.9"/>
<circle cx="208.79" cy="100.68" r="4.5" fill="#059669" fill-opacity="0.9"/>
<circle cx="217.27" cy="106.10" r="4.5" fill="#059669" fill-opacity="0.9"/>
<circle cx="225.76" cy="96.69" r="4.5" fill="#059669" fill-opacity="0.9"/>
<circle cx="234.24" cy="96.36" r="4.5" fill="#059669" fill-opacity="0.9"/>
<circle cx="242.73" cy="95.96" r="4.5" fill="#059669" fill-opacity="0.9"/>
<circle cx="251.21" cy="97.23" r="4.5" fill="#059669" fill-opacity="0.9"/>
<circle cx="259.70" cy="435.50" r="4.5" fill="#059669" fill-opacity="0.9"/>
<circle cx="268.18" cy="435.41" r="4.5" fill="#059669" fill-opacity="0.9"/>
<circle cx="276.67" cy="434.37" r="4.5" fill="#059669" fill-opacity="0.9"/>
<circle cx="285.15" cy="434.23" r="4.5" fill="#059669" fill-opacity="0.9"/>
<circle cx="293.64" cy="152.13" r="4.5" fill="#059669" fill-opacity="0.9"/>
<circle cx="302.12" cy="181.22" r="4.5" fill="#059669" fill-opacity="0.9"/>
<circle cx="310.61" cy="121.74" r="4.5" fill="#059669" fill-opacity="0.9"/>
<circle cx="319.09" cy="119.57" r="4.5" fill="#059669" fill-opacity="0.9"/>
<circle cx="327.58" cy="432.96" r="4.5" fill="#059669" fill-opacity="0.9"/>
<circle cx="336.06" cy="433.95" r="4.5" fill="#059669" fill-opacity="0.9"/>
<circle cx="344.55" cy="100.39" r="4.5" fill="#059669" fill-opacity="0.9"/>
<circle cx="353.03" cy="106.95" r="4.5" fill="#059669" fill-opacity="0.9"/>
<circle cx="361.52" cy="138.87" r="4.5" fill="#059669" fill-opacity="0.9"/>
<circle cx="370.00" cy="139.86" r="4.5" fill="#059669" fill-opacity="0.9"/>
<circle cx="378.48" cy="124.69" r="4.5" fill="#059669" fill-opacity="0.9"/>
<circle cx="386.97" cy="103.56" r="4.5" fill="#059669" fill-opacity="0.9"/>
<circle cx="395.45" cy="114.90" r="4.5" fill="#059669" fill-opacity="0.9"/>
<circle cx="403.94" cy="116.37" r="4.5" fill="#059669" fill-opacity="0.9"/>
<circle cx="412.42" cy="134.01" r="4.5" fill="#059669" fill-opacity="0.9"/>
<circle cx="420.91" cy="116.86" r="4.5" fill="#059669" fill-opacity="0.9"/>
<circle cx="429.39" cy="147.91" r="4.5" fill="#059669" fill-opacity="0.9"/>
<circle cx="437.88" cy="114.57" r="4.5" fill="#059669" fill-opacity="0.9"/>
<circle cx="446.36" cy="185.51" r="4.5" fill="#059669" fill-opacity="0.9"/>
<circle cx="454.85" cy="102.68" r="4.5" fill="#059669" fill-opacity="0.9"/>
<circle cx="463.33" cy="116.65" r="4.5" fill="#059669" fill-opacity="0.9"/>
<circle cx="471.82" cy="116.81" r="4.5" fill="#059669" fill-opacity="0.9"/>
<circle cx="480.30" cy="110.26" r="4.5" fill="#059669" fill-opacity="0.9"/>
<circle cx="488.79" cy="117.73" r="4.5" fill="#059669" fill-opacity="0.9"/>
<circle cx="497.27" cy="164.75" r="4.5" fill="#059669" fill-opacity="0.9"/>
<circle cx="505.76" cy="117.40" r="4.5" fill="#059669" fill-opacity="0.9"/>
<circle cx="514.24" cy="95.56" r="4.5" fill="#059669" fill-opacity="0.9"/>
<circle cx="522.73" cy="95.30" r="4.5" fill="#059669" fill-opacity="0.9"/>
<circle cx="531.21" cy="94.99" r="4.5" fill="#059669" fill-opacity="0.9"/>
<circle cx="539.70" cy="94.83" r="4.5" fill="#059669" fill-opacity="0.9"/>
<circle cx="548.18" cy="95.06" r="4.5" fill="#059669" fill-opacity="0.9"/>
<circle cx="556.67" cy="94.85" r="4.5" fill="#059669" fill-opacity="0.9"/>
<circle cx="565.15" cy="94.76" r="4.5" fill="#059669" fill-opacity="0.9"/>
<circle cx="573.64" cy="95.18" r="4.5" fill="#059669" fill-opacity="0.9"/>
<circle cx="582.12" cy="94.99" r="4.5" fill="#059669" fill-opacity="0.9"/>
<circle cx="590.61" cy="94.78" r="4.5" fill="#059669" fill-opacity="0.9"/>
<circle cx="599.09" cy="94.87" r="4.5" fill="#059669" fill-opacity="0.9"/>
<circle cx="607.58" cy="95.02" r="4.5" fill="#059669" fill-opacity="0.9"/>
<circle cx="616.06" cy="94.61" r="4.5" fill="#059669" fill-opacity="0.9"/>
<circle cx="624.55" cy="94.97" r="4.5" fill="#059669" fill-opacity="0.9"/>
<circle cx="633.03" cy="95.96" r="4.5" fill="#059669" fill-opacity="0.9"/>
<circle cx="641.52" cy="95.02" r="4.5" fill="#059669" fill-opacity="0.9"/>
<circle cx="650.00" cy="94.54" r="4.5" fill="#059669" fill-opacity="0.9"/>
<circle cx="658.48" cy="94.45" r="4.5" fill="#059669" fill-opacity="0.9"/>
<circle cx="666.97" cy="94.80" r="4.5" fill="#059669" fill-opacity="0.9"/>
<circle cx="675.45" cy="95.11" r="4.5" fill="#059669" fill-opacity="0.9"/>
<circle cx="683.94" cy="95.18" r="4.5" fill="#059669" fill-opacity="0.9"/>
<circle cx="692.42" cy="95.13" r="4.5" fill="#059669" fill-opacity="0.9"/>
<circle cx="700.91" cy="95.63" r="4.5" fill="#059669" fill-opacity="0.9"/>
<circle cx="709.39" cy="95.65" r="4.5" fill="#059669" fill-opacity="0.9"/>
<circle cx="717.88" cy="95.32" r="4.5" fill="#059669" fill-opacity="0.9"/>
<circle cx="726.36" cy="95.09" r="4.5" fill="#059669" fill-opacity="0.9"/>
<circle cx="734.85" cy="96.29" r="4.5" fill="#059669" fill-opacity="0.9"/>
<circle cx="743.33" cy="95.16" r="4.5" fill="#059669" fill-opacity="0.9"/>
<circle cx="751.82" cy="94.69" r="4.5" fill="#059669" fill-opacity="0.9"/>
<circle cx="760.30" cy="94.97" r="4.5" fill="#059669" fill-opacity="0.9"/>
<circle cx="768.79" cy="94.92" r="4.5" fill="#059669" fill-opacity="0.9"/>
<circle cx="777.27" cy="95.42" r="4.5" fill="#059669" fill-opacity="0.9"/>
<circle cx="785.76" cy="94.99" r="4.5" fill="#059669" fill-opacity="0.9"/>
<circle cx="794.24" cy="96.01" r="4.5" fill="#059669" fill-opacity="0.9"/>
<circle cx="802.73" cy="95.09" r="4.5" fill="#059669" fill-opacity="0.9"/>
<circle cx="811.21" cy="94.90" r="4.5" fill="#059669" fill-opacity="0.9"/>
<circle cx="819.70" cy="95.28" r="4.5" fill="#059669" fill-opacity="0.9"/>
<circle cx="828.18" cy="95.61" r="4.5" fill="#059669" fill-opacity="0.9"/>
<circle cx="836.67" cy="95.94" r="4.5" fill="#059669" fill-opacity="0.9"/>
<circle cx="845.15" cy="95.53" r="4.5" fill="#059669" fill-opacity="0.9"/>
<circle cx="853.64" cy="94.76" r="4.5" fill="#059669" fill-opacity="0.9"/>
<circle cx="862.12" cy="95.16" r="4.5" fill="#059669" fill-opacity="0.9"/>
<circle cx="870.61" cy="95.23" r="4.5" fill="#059669" fill-opacity="0.9"/>
<circle cx="879.09" cy="94.59" r="4.5" fill="#059669" fill-opacity="0.9"/>
<circle cx="887.58" cy="94.80" r="4.5" fill="#059669" fill-opacity="0.9"/>
<circle cx="896.06" cy="95.04" r="4.5" fill="#059669" fill-opacity="0.9"/>
<circle cx="904.55" cy="96.20" r="4.5" fill="#059669" fill-opacity="0.9"/>
<circle cx="913.03" cy="94.76" r="4.5" fill="#059669" fill-opacity="0.9"/>
<circle cx="921.52" cy="94.97" r="4.5" fill="#059669" fill-opacity="0.9"/>
<circle cx="930.00" cy="94.87" r="4.5" fill="#059669" fill-opacity="0.9"/>
<rect x="270" y="32" width="18" height="6" fill="#059669"/>
<text x="294" y="38" font-size="13" fill="#333333">test</text>
</svg>