<svg xmlns="http://www.w3.org/2000/svg" width="960" height="540">
<rect width="100%" height="100%" fill="#ffffff"/>
<text x="480.0" y="30" font-size="22" text-anchor="middle" fill="#111111">Sequence Accuracy</text>
<text x="20" y="270.0" font-size="16" transform="rotate(-90 20,270.0)" text-anchor="middle" fill="#333333">Accuracy</text>
<text x="480.0" y="520" font-size="16" text-anchor="middle" fill="#333333">Epoch</text>
<line x1="90" y1="60" x2="90" y2="470" stroke="#333333" stroke-width="2"/>
<line x1="90" y1="470" x2="930" y2="470" stroke="#333333" stroke-width="2"/>
<line x1="90" y1="470.00" x2="930" y2="470.00" stroke="#e5e7eb" stroke-width="1"/>
<text x="80" y="475.00" font-size="12" text-anchor="end" fill="#555555">-0.0961</text>
<line x1="90" y1="367.50" x2="930" y2="367.50" stroke="#e5e7eb" stroke-width="1"/>
<text x="80" y="372.50" font-size="12" text-anchor="end" fill="#555555">0.1923</text>
<line x1="90" y1="265.00" x2="930" y2="265.00" stroke="#e5e7eb" stroke-width="1"/>
<text x="80" y="270.00" font-size="12" text-anchor="end" fill="#555555">0.4807</text>
<line x1="90" y1="162.50" x2="930" y2="162.50" stroke="#e5e7eb" stroke-width="1"/>
<text x="80" y="167.50" font-size="12" text-anchor="end" fill="#555555">0.7692</text>
<line x1="90" y1="60.00" x2="930" y2="60.00" stroke="#e5e7eb" stroke-width="1"/>
<text x="80" y="65.00" font-size="12" text-anchor="end" fill="#555555">1.0576</text>
<line x1="90.00" y1="60" x2="90.00" y2="470" stroke="#f3f4f6" stroke-width="1"/>
<text x="90.00" y="492" font-size="12" text-anchor="middle" fill="#555555">1</text>
<line x1="98.48" y1="60" x2="98.48" y2="470" stroke="#f3f4f6" stroke-width="1"/>
<text x="98.48" y="492" font-size="12" text-anchor="middle" fill="#555555">2</text>
<line x1="106.97" y1="60" x2="106.97" y2="470" stroke="#f3f4f6" stroke-width="1"/>
<text x="106.97" y="492" font-size="12" text-anchor="middle" fill="#555555">3</text>
<line x1="115.45" y1="60" x2="115.45" y2="470" stroke="#f3f4f6" stroke-width="1"/>
<text x="115.45" y="492" font-size="12" text-anchor="middle" fill="#555555">4</text>
<line x1="123.94" y1="60" x2="123.94" y2="470" stroke="#f3f4f6" stroke-width="1"/>
<text x="123.94" y="492" font-size="12" text-anchor="middle" fill="#555555">5</text>
<line x1="132.42" y1="60" x2="132.42" y2="470" stroke="#f3f4f6" stroke-width="1"/>
<text x="132.42" y="492" font-size="12" text-anchor="middle" fill="#555555">6</text>
<line x1="140.91" y1="60" x2="140.91" y2="470" stroke="#f3f4f6" stroke-width="1"/>
<text x="140.91" y="492" font-size="12" text-anchor="middle" fill="#555555">7</text>
<line x1="149.39" y1="60" x2="149.39" y2="470" stroke="#f3f4f6" stroke-width="1"/>
<text x="149.39" y="492" font-size="12" text-anchor="middle" fill="#555555">8</text>
<line x1="157.88" y1="60" x2="157.88" y2="470" stroke="#f3f4f6" stroke-width="1"/>
<text x="157.88" y="492" font-size="12" text-anchor="middle" fill="#555555">9</text>
<line x1="166.36" y1="60" x2="166.36" y2="470" stroke="#f3f4f6" stroke-width="1"/>
<text x="166.36" y="492" font-size="12" text-anchor="middle" fill="#555555">10</text>
<line x1="174.85" y1="60" x2="174.85" y2="470" stroke="#f3f4f6" stroke-width="1"/>
<text x="174.85" y="492" font-size="12" text-anchor="middle" fill="#555555">11</text>
<line x1="183.33" y1="60" x2="183.33" y2="470" stroke="#f3f4f6" stroke-width="1"/>
<text x="183.33" y="492" font-size="12" text-anchor="middle" fill="#555555">12</text>
<line x1="191.82" y1="60" x2="191.82" y2="470" stroke="#f3f4f6" stroke-width="1"/>
<text x="191.82" y="492" font-size="12" text-anchor="middle" fill="#555555">13</text>
<line x1="200.30" y1="60" x2="200.30" y2="470" stroke="#f3f4f6" stroke-width="1"/>
<text x="200.30" y="492" font-size="12" text-anchor="middle" fill="#555555">14</text>
<line x1="208.79" y1="60" x2="208.79" y2="470" stroke="#f3f4f6" stroke-width="1"/>
<text x="208.79" y="492" font-size="12" text-anchor="middle" fill="#555555">15</text>
<line x1="217.27" y1="60" x2="217.27" y2="470" stroke="#f3f4f6" stroke-width="1"/>
<text x="217.27" y="492" font-size="12" text-anchor="middle" fill="#555555">16</text>
<line x1="225.76" y1="60" x2="225.76" y2="470" stroke="#f3f4f6" stroke-width="1"/>
<text x="225.76" y="492" font-size="12" text-anchor="middle" fill="#555555">17</text>
<line x1="234.24" y1="60" x2="234.24" y2="470" stroke="#f3f4f6" stroke-width="1"/>
<text x="234.24" y="492" font-size="12" text-anchor="middle" fill="#555555">18</text>
<line x1="242.73" y1="60" x2="242.73" y2="470" stroke="#f3f4f6" stroke-width="1"/>
<text x="242.73" y="492" font-size="12" text-anchor="middle" fill="#555555">19</text>
<line x1="251.21" y1="60" x2="251.21" y2="470" stroke="#f3f4f6" stroke-width="1"/>
<text x="251.21" y="492" font-size="12" text-anchor="middle" fill="#555555">20</text>
<line x1="259.70" y1="60" x2="259.70" y2="470" stroke="#f3f4f6" stroke-width="1"/>
<text x="259.70" y="492" font-size="12" text-anchor="middle" fill="#555555">21</text>
<line x1="268.18" y1="60" x2="268.18" y2="470" stroke="#f3f4f6" stroke-width="1"/>
<text x="268.18" y="492" font-size="12" text-anchor="middle" fill="#555555">22</text>
<line x1="276.67" y1="60" x2="276.67" y2="470" stroke="#f3f4f6" stroke-width="1"/>
<text x="276.67" y="492" font-size="12" text-anchor="middle" fill="#555555">23</text>
<line x1="285.15" y1="60" x2="285.15" y2="470" stroke="#f3f4f6" stroke-width="1"/>
<text x="285.15" y="492" font-size="12" text-anchor="middle" fill="#555555">24</text>
<line x1="293.64" y1="60" x2="293.64" y2="470" stroke="#f3f4f6" stroke-width="1"/>
<text x="293.64" y="492" font-size="12" text-anchor="middle" fill="#555555">25</text>
<line x1="302.12" y1="60" x2="302.12" y2="470" stroke="#f3f4f6" stroke-width="1"/>
<text x="302.12" y="492" font-size="12" text-anchor="middle" fill="#555555">26</text>
<line x1="310.61" y1="60" x2="310.61" y2="470" stroke="#f3f4f6" stroke-width="1"/>
<text x="310.61" y="492" font-size="12" text-anchor="middle" fill="#555555">27</text>
<line x1="319.09" y1="60" x2="319.09" y2="470" stroke="#f3f4f6" stroke-width="1"/>
<text x="319.09" y="492" font-size="12" text-anchor="middle" fill="#555555">28</text>
<line x1="327.58" y1="60" x2="327.58" y2="470" stroke="#f3f4f6" stroke-width="1"/>
<text x="327.58" y="492" font-size="12" text-anchor="middle" fill="#555555">29</text>
<line x1="336.06" y1="60" x2="336.06" y2="470" stroke="#f3f4f6" stroke-width="1"/>
<text x="336.06" y="492" font-size="12" text-anchor="middle" fill="#555555">30</text>
<line x1="344.55" y1="60" x2="344.55" y2="470" stroke="#f3f4f6" stroke-width="1"/>
<text x="344.55" y="492" font-size="12" text-anchor="middle" fill="#555555">31</text>
<line x1="353.03" y1="60" x2="353.03" y2="470" stroke="#f3f4f6" stroke-width="1"/>
<text x="353.03" y="492" font-size="12" text-anchor="middle" fill="#555555">32</text>
<line x1="361.52" y1="60" x2="361.52" y2="470" stroke="#f3f4f6" stroke-width="1"/>
<text x="361.52" y="492" font-size="12" text-anchor="middle" fill="#555555">33</text>
<line x1="370.00" y1="60" x2="370.00" y2="470" stroke="#f3f4f6" stroke-width="1"/>
<text x="370.00" y="492" font-size="12" text-anchor="middle" fill="#555555">34</text>
<line x1="378.48" y1="60" x2="378.48" y2="470" stroke="#f3f4f6" stroke-width="1"/>
<text x="378.48" y="492" font-size="12" text-anchor="middle" fill="#555555">35</text>
<line x1="386.97" y1="60" x2="386.97" y2="470" stroke="#f3f4f6" stroke-width="1"/>
<text x="386.97" y="492" font-size="12" text-anchor="middle" fill="#555555">36</text>
<line x1="395.45" y1="60" x2="395.45" y2="470" stroke="#f3f4f6" stroke-width="1"/>
<text x="395.45" y="492" font-size="12" text-anchor="middle" fill="#555555">37</text>
<line x1="403.94" y1="60" x2="403.94" y2="470" stroke="#f3f4f6" stroke-width="1"/>
<text x="403.94" y="492" font-size="12" text-anchor="middle" fill="#555555">38</text>
<line x1="412.42" y1="60" x2="412.42" y2="470" stroke="#f3f4f6" stroke-width="1"/>
<text x="412.42" y="492" font-size="12" text-anchor="middle" fill="#555555">39</text>
<line x1="420.91" y1="60" x2="420.91" y2="470" stroke="#f3f4f6" stroke-width="1"/>
<text x="420.91" y="492" font-size="12" text-anchor="middle" fill="#555555">40</text>
<line x1="429.39" y1="60" x2="429.39" y2="470" stroke="#f3f4f6" stroke-width="1"/>
<text x="429.39" y="492" font-size="12" text-anchor="middle" fill="#555555">41</text>
<line x1="437.88" y1="60" x2="437.88" y2="470" stroke="#f3f4f6" stroke-width="1"/>
<text x="437.88" y="492" font-size="12" text-anchor="middle" fill="#555555">42</text>
<line x1="446.36" y1="60" x2="446.36" y2="470" stroke="#f3f4f6" stroke-width="1"/>
<text x="446.36" y="492" font-size="12" text-anchor="middle" fill="#555555">43</text>
<line x1="454.85" y1="60" x2="454.85" y2="470" stroke="#f3f4f6" stroke-width="1"/>
<text x="454.85" y="492" font-size="12" text-anchor="middle" fill="#555555">44</text>
<line x1="463.33" y1="60" x2="463.33" y2="470" stroke="#f3f4f6" stroke-width="1"/>
<text x="463.33" y="492" font-size="12" text-anchor="middle" fill="#555555">45</text>
<line x1="471.82" y1="60" x2="471.82" y2="470" stroke="#f3f4f6" stroke-width="1"/>
<text x="471.82" y="492" font-size="12" text-anchor="middle" fill="#555555">46</text>
<line x1="480.30" y1="60" x2="480.30" y2="470" stroke="#f3f4f6" stroke-width="1"/>
<text x="480.30" y="492" font-size="12" text-anchor="middle" fill="#555555">47</text>
<line x1="488.79" y1="60" x2="488.79" y2="470" stroke="#f3f4f6" stroke-width="1"/>
<text x="488.79" y="492" font-size="12" text-anchor="middle" fill="#555555">48</text>
<line x1="497.27" y1="60" x2="497.27" y2="470" stroke="#f3f4f6" stroke-width="1"/>
<text x="497.27" y="492" font-size="12" text-anchor="middle" fill="#555555">49</text>
<line x1="505.76" y1="60" x2="505.76" y2="470" stroke="#f3f4f6" stroke-width="1"/>
<text x="505.76" y="492" font-size="12" text-anchor="middle" fill="#555555">50</text>
<line x1="514.24" y1="60" x2="514.24" y2="470" stroke="#f3f4f6" stroke-width="1"/>
<text x="514.24" y="492" font-size="12" text-anchor="middle" fill="#555555">51</text>
<line x1="522.73" y1="60" x2="522.73" y2="470" stroke="#f3f4f6" stroke-width="1"/>
<text x="522.73" y="492" font-size="12" text-anchor="middle" fill="#555555">52</text>
<line x1="531.21" y1="60" x2="531.21" y2="470" stroke="#f3f4f6" stroke-width="1"/>
<text x="531.21" y="492" font-size="12" text-anchor="middle" fill="#555555">53</text>
<line x1="539.70" y1="60" x2="539.70" y2="470" stroke="#f3f4f6" stroke-width="1"/>
<text x="539.70" y="492" font-size="12" text-anchor="middle" fill="#555555">54</text>
<line x1="548.18" y1="60" x2="548.18" y2="470" stroke="#f3f4f6" stroke-width="1"/>
<text x="548.18" y="492" font-size="12" text-anchor="middle" fill="#555555">55</text>
<line x1="556.67" y1="60" x2="556.67" y2="470" stroke="#f3f4f6" stroke-width="1"/>
<text x="556.67" y="492" font-size="12" text-anchor="middle" fill="#555555">56</text>
<line x1="565.15" y1="60" x2="565.15" y2="470" stroke="#f3f4f6" stroke-width="1"/>
<text x="565.15" y="492" font-size="12" text-anchor="middle" fill="#555555">57</text>
<line x1="573.64" y1="60" x2="573.64" y2="470" stroke="#f3f4f6" stroke-width="1"/>
<text x="573.64" y="492" font-size="12" text-anchor="middle" fill="#555555">58</text>
<line x1="582.12" y1="60" x2="582.12" y2="470" stroke="#f3f4f6" stroke-width="1"/>
<text x="582.12" y="492" font-size="12" text-anchor="middle" fill="#555555">59</text>
<line x1="590.61" y1="60" x2="590.61" y2="470" stroke="#f3f4f6" stroke-width="1"/>
<text x="590.61" y="492" font-size="12" text-anchor="middle" fill="#555555">60</text>
<line x1="599.09" y1="60" x2="599.09" y2="470" stroke="#f3f4f6" stroke-width="1"/>
<text x="599.09" y="492" font-size="12" text-anchor="middle" fill="#555555">61</text>
<line x1="607.58" y1="60" x2="607.58" y2="470" stroke="#f3f4f6" stroke-width="1"/>
<text x="607.58" y="492" font-size="12" text-anchor="middle" fill="#555555">62</text>
<line x1="616.06" y1="60" x2="616.06" y2="470" stroke="#f3f4f6" stroke-width="1"/>
<text x="616.06" y="492" font-size="12" text-anchor="middle" fill="#555555">63</text>
<line x1="624.55" y1="60" x2="624.55" y2="470" stroke="#f3f4f6" stroke-width="1"/>
<text x="624.55" y="492" font-size="12" text-anchor="middle" fill="#555555">64</text>
<line x1="633.03" y1="60" x2="633.03" y2="470" stroke="#f3f4f6" stroke-width="1"/>
<text x="633.03" y="492" font-size="12" text-anchor="middle" fill="#555555">65</text>
<line x1="641.52" y1="60" x2="641.52" y2="470" stroke="#f3f4f6" stroke-width="1"/>
<text x="641.52" y="492" font-size="12" text-anchor="middle" fill="#555555">66</text>
<line x1="650.00" y1="60" x2="650.00" y2="470" stroke="#f3f4f6" stroke-width="1"/>
<text x="650.00" y="492" font-size="12" text-anchor="middle" fill="#555555">67</text>
<line x1="658.48" y1="60" x2="658.48" y2="470" stroke="#f3f4f6" stroke-width="1"/>
<text x="658.48" y="492" font-size="12" text-anchor="middle" fill="#555555">68</text>
<line x1="666.97" y1="60" x2="666.97" y2="470" stroke="#f3f4f6" stroke-width="1"/>
<text x="666.97" y="492" font-size="12" text-anchor="middle" fill="#555555">69</text>
<line x1="675.45" y1="60" x2="675.45" y2="470" stroke="#f3f4f6" stroke-width="1"/>
<text x="675.45" y="492" font-size="12" text-anchor="middle" fill="#555555">70</text>
<line x1="683.94" y1="60" x2="683.94" y2="470" stroke="#f3f4f6" stroke-width="1"/>
<text x="683.94" y="492" font-size="12" text-anchor="middle" fill="#555555">71</text>
<line x1="692.42" y1="60" x2="692.42" y2="470" stroke="#f3f4f6" stroke-width="1"/>
<text x="692.42" y="492" font-size="12" text-anchor="middle" fill="#555555">72</text>
<line x1="700.91" y1="60" x2="700.91" y2="470" stroke="#f3f4f6" stroke-width="1"/>
<text x="700.91" y="492" font-size="12" text-anchor="middle" fill="#555555">73</text>
<line x1="709.39" y1="60" x2="709.39" y2="470" stroke="#f3f4f6" stroke-width="1"/>
<text x="709.39" y="492" font-size="12" text-anchor="middle" fill="#555555">74</text>
<line x1="717.88" y1="60" x2="717.88" y2="470" stroke="#f3f4f6" stroke-width="1"/>
<text x="717.88" y="492" font-size="12" text-anchor="middle" fill="#555555">75</text>
<line x1="726.36" y1="60" x2="726.36" y2="470" stroke="#f3f4f6" stroke-width="1"/>
<text x="726.36" y="492" font-size="12" text-anchor="middle" fill="#555555">76</text>
<line x1="734.85" y1="60" x2="734.85" y2="470" stroke="#f3f4f6" stroke-width="1"/>
<text x="734.85" y="492" font-size="12" text-anchor="middle" fill="#555555">77</text>
<line x1="743.33" y1="60" x2="743.33" y2="470" stroke="#f3f4f6" stroke-width="1"/>
<text x="743.33" y="492" font-size="12" text-anchor="middle" fill="#555555">78</text>
<line x1="751.82" y1="60" x2="751.82" y2="470" stroke="#f3f4f6" stroke-width="1"/>
<text x="751.82" y="492" font-size="12" text-anchor="middle" fill="#555555">79</text>
<line x1="760.30" y1="60" x2="760.30" y2="470" stroke="#f3f4f6" stroke-width="1"/>
<text x="760.30" y="492" font-size="12" text-anchor="middle" fill="#555555">80</text>
<line x1="768.79" y1="60" x2="768.79" y2="470" stroke="#f3f4f6" stroke-width="1"/>
<text x="768.79" y="492" font-size="12" text-anchor="middle" fill="#555555">81</text>
<line x1="777.27" y1="60" x2="777.27" y2="470" stroke="#f3f4f6" stroke-width="1"/>
<text x="777.27" y="492" font-size="12" text-anchor="middle" fill="#555555">82</text>
<line x1="785.76" y1="60" x2="785.76" y2="470" stroke="#f3f4f6" stroke-width="1"/>
<text x="785.76" y="492" font-size="12" text-anchor="middle" fill="#555555">83</text>
<line x1="794.24" y1="60" x2="794.24" y2="470" stroke="#f3f4f6" stroke-width="1"/>
<text x="794.24" y="492" font-size="12" text-anchor="middle" fill="#555555">84</text>
<line x1="802.73" y1="60" x2="802.73" y2="470" stroke="#f3f4f6" stroke-width="1"/>
<text x="802.73" y="492" font-size="12" text-anchor="middle" fill="#555555">85</text>
<line x1="811.21" y1="60" x2="811.21" y2="470" stroke="#f3f4f6" stroke-width="1"/>
<text x="811.21" y="492" font-size="12" text-anchor="middle" fill="#555555">86</text>
<line x1="819.70" y1="60" x2="819.70" y2="470" stroke="#f3f4f6" stroke-width="1"/>
<text x="819.70" y="492" font-size="12" text-anchor="middle" fill="#555555">87</text>
<line x1="828.18" y1="60" x2="828.18" y2="470" stroke="#f3f4f6" stroke-width="1"/>
<text x="828.18" y="492" font-size="12" text-anchor="middle" fill="#555555">88</text>
<line x1="836.67" y1="60" x2="836.67" y2="470" stroke="#f3f4f6" stroke-width="1"/>
<text x="836.67" y="492" font-size="12" text-anchor="middle" fill="#555555">89</text>
<line x1="845.15" y1="60" x2="845.15" y2="470" stroke="#f3f4f6" stroke-width="1"/>
<text x="845.15" y="492" font-size="12" text-anchor="middle" fill="#555555">90</text>
<line x1="853.64" y1="60" x2="853.64" y2="470" stroke="#f3f4f6" stroke-width="1"/>
<text x="853.64" y="492" font-size="12" text-anchor="middle" fill="#555555">91</text>
<line x1="862.12" y1="60" x2="862.12" y2="470" stroke="#f3f4f6" stroke-width="1"/>
<text x="862.12" y="492" font-size="12" text-anchor="middle" fill="#555555">92</text>
<line x1="870.61" y1="60" x2="870.61" y2="470" stroke="#f3f4f6" stroke-width="1"/>
<text x="870.61" y="492" font-size="12" text-anchor="middle" fill="#555555">93</text>
<line x1="879.09" y1="60" x2="879.09" y2="470" stroke="#f3f4f6" stroke-width="1"/>
<text x="879.09" y="492" font-size="12" text-anchor="middle" fill="#555555">94</text>
<line x1="887.58" y1="60" x2="887.58" y2="470" stroke="#f3f4f6" stroke-width="1"/>
<text x="887.58" y="492" font-size="12" text-anchor="middle" fill="#555555">95</text>
<line x1="896.06" y1="60" x2="896.06" y2="470" stroke="#f3f4f6" stroke-width="1"/>
<text x="896.06" y="492" font-size="12" text-anchor="middle" fill="#555555">96</text>
<line x1="904.55" y1="60" x2="904.55" y2="470" stroke="#f3f4f6" stroke-width="1"/>
<text x="904.55" y="492" font-size="12" text-anchor="middle" fill="#555555">97</text>
<line x1="913.03" y1="60" x2="913.03" y2="470" stroke="#f3f4f6" stroke-width="1"/>
<text x="913.03" y="492" font-size="12" text-anchor="middle" fill="#555555">98</text>
<line x1="921.52" y1="60" x2="921.52" y2="470" stroke="#f3f4f6" stroke-width="1"/>
<text x="921.52" y="492" font-size="12" text-anchor="middle" fill="#555555">99</text>
<line x1="930.00" y1="60" x2="930.00" y2="470" stroke="#f3f4f6" stroke-width="1"/>
<text x="930.00" y="492" font-size="12" text-anchor="middle" fill="#555555">100</text>
<polyline fill="none" stroke="#d97706" stroke-width="3" points="90.00,207.62 98.48,237.71 106.97,272.56 115.45,114.94 123.94,124.99 132.42,117.50 140.91,130.89 149.39,330.01 157.88,107.34 166.36,173.77 174.85,108.97 183.33,104.66 191.82,106.53 200.30,107.53 208.79,112.83 217.27,141.15 225.76,101.16 234.24,101.23 242.73,100.11 251.21,103.64 259.70,435.83 268.18,435.83 276.67,435.83 285.15,435.83 293.64,274.14 302.12,330.81 310.61,207.43 319.09,220.58 327.58,435.83 336.06,435.83 344.55,118.31 353.03,152.28 361.52,275.19 370.00,215.49 378.48,202.03 386.97,129.16 395.45,172.72 403.94,189.17 412.42,285.63 420.91,198.19 429.39,307.31 437.88,172.80 446.36,307.17 454.85,131.98 463.33,178.01 471.82,192.96 480.30,158.13 488.79,194.99 497.27,297.05 505.76,177.58 514.24,96.51 522.73,95.61 531.21,95.16 539.70,95.00 548.18,94.76 556.67,95.42 565.15,94.59 573.64,96.46 582.12,95.35 590.61,95.19 599.09,95.07 607.58,96.94 616.06,94.64 624.55,95.40 633.03,98.36 641.52,95.94 650.00,94.17 658.48,94.66 666.97,94.33 675.45,96.28 683.94,95.49 692.42,96.06 700.91,99.76 709.39,98.36 717.88,96.84 726.36,97.10 734.85,100.94 743.33,96.16 751.82,94.95 760.30,95.11 768.79,94.85 777.27,98.74 785.76,95.02 794.24,97.39 802.73,95.42 811.21,94.50 819.70,96.44 828.18,96.75 836.67,96.65 845.15,97.48 853.64,95.33 862.12,95.26 870.61,96.20 879.09,94.78 887.58,95.26 896.06,95.40 904.55,101.61 913.03,94.85 921.52,94.45 930.00,95.54"/>
<circle cx="90.00" cy="207.62" r="4.5" fill="#d97706" fill-opacity="0.9"/>
<circle cx="98.48" cy="237.71" r="4.5" fill="#d97706" fill-opacity="0.9"/>
<circle cx="106.97" cy="272.56" r="4.5" fill="#d97706" fill-opacity="0.9"/>
<circle cx="115.45" cy="114.94" r="4.5" fill="#d97706" fill-opacity="0.9"/>
<circle cx="123.94" cy="124.99" r="4.5" fill="#d97706" fill-opacity="0.9"/>
<circle cx="132.42" cy="117.50" r="4.5" fill="#d97706" fill-opacity="0.9"/>
<circle cx="140.91" cy="130.89" r="4.5" fill="#d97706" fill-opacity="0.9"/>
<circle cx="149.39" cy="330.01" r="4.5" fill="#d97706" fill-opacity="0.9"/>
<circle cx="157.88" cy="107.34" r="4.5" fill="#d97706" fill-opacity="0.9"/>
<circle cx="166.36" cy="173.77" r="4.5" fill="#d97706" fill-opacity="0.9"/>
<circle cx="174.85" cy="108.97" r="4.5" fill="#d97706" fill-opacity="0.9"/>
<circle cx="183.33" cy="104.66" r="4.5" fill="#d97706" fill-opacity="0.9"/>
<circle cx="191.82" cy="106.53" r="4.5" fill="#d97706" fill-opacity="0.9"/>
<circle cx="200.30" cy="107.53" r="4.5" fill="#d97706" fill-opacity="0.9"/>
<circle cx="208.79" cy="112.83" r="4.5" fill="#d97706" fill-opacity="0.9"/>
<circle cx="217.27" cy="141.15" r="4.5" fill="#d97706" fill-opacity="0.9"/>
<circle cx="225.76" cy="101.16" r="4.5" fill="#d97706" fill-opacity="0.9"/>
<circle cx="234.24" cy="101.23" r="4.5" fill="#d97706" fill-opacity="0.9"/>
<circle cx="242.73" cy="100.11" r="4.5" fill="#d97706" fill-opacity="0.9"/>
<circle cx="251.21" cy="103.64" r="4.5" fill="#d97706" fill-opacity="0.9"/>
<circle cx="259.70" cy="435.83" r="4.5" fill="#d97706" fill-opacity="0.9"/>
<circle cx="268.18" cy="435.83" r="4.5" fill="#d97706" fill-opacity="0.9"/>
<circle cx="276.67" cy="435.83" r="4.5" fill="#d97706" fill-opacity="0.9"/>
<circle cx="285.15" cy="435.83" r="4.5" fill="#d97706" fill-opacity="0.9"/>
<circle cx="293.64" cy="274.14" r="4.5" fill="#d97706" fill-opacity="0.9"/>
<circle cx="302.12" cy="330.81" r="4.5" fill="#d97706" fill-opacity="0.9"/>
<circle cx="310.61" cy="207.43" r="4.5" fill="#d97706" fill-opacity="0.9"/>
<circle cx="319.09" cy="220.58" r="4.5" fill="#d97706" fill-opacity="0.9"/>
<circle cx="327.58" cy="435.83" r="4.5" fill="#d97706" fill-opacity="0.9"/>
<circle cx="336.06" cy="435.83" r="4.5" fill="#d97706" fill-opacity="0.9"/>
<circle cx="344.55" cy="118.31" r="4.5" fill="#d97706" fill-opacity="0.9"/>
<circle cx="353.03" cy="152.28" r="4.5" fill="#d97706" fill-opacity="0.9"/>
<circle cx="361.52" cy="275.19" r="4.5" fill="#d97706" fill-opacity="0.9"/>
<circle cx="370.00" cy="215.49" r="4.5" fill="#d97706" fill-opacity="0.9"/>
<circle cx="378.48" cy="202.03" r="4.5" fill="#d97706" fill-opacity="0.9"/>
<circle cx="386.97" cy="129.16" r="4.5" fill="#d97706" fill-opacity="0.9"/>
<circle cx="395.45" cy="172.72" r="4.5" fill="#d97706" fill-opacity="0.9"/>
<circle cx="403.94" cy="189.17" r="4.5" fill="#d97706" fill-opacity="0.9"/>
<circle cx="412.42" cy="285.63" r="4.5" fill="#d97706" fill-opacity="0.9"/>
<circle cx="420.91" cy="198.19" r="4.5" fill="#d97706" fill-opacity="0.9"/>
<circle cx="429.39" cy="307.31" r="4.5" fill="#d97706" fill-opacity="0.9"/>
<circle cx="437.88" cy="172.80" r="4.5" fill="#d97706" fill-opacity="0.9"/>
<circle cx="446.36" cy="307.17" r="4.5" fill="#d97706" fill-opacity="0.9"/>
<circle cx="454.85" cy="131.98" r="4.5" fill="#d97706" fill-opacity="0.9"/>
<circle cx="463.33" cy="178.01" r="4.5" fill="#d97706" fill-opacity="0.9"/>
<circle cx="471.82" cy="192.96" r="4.5" fill="#d97706" fill-opacity="0.9"/>
<circle cx="480.30" cy="158.13" r="4.5" fill="#d97706" fill-opacity="0.9"/>
<circle cx="488.79" cy="194.99" r="4.5" fill="#d97706" fill-opacity="0.9"/>
<circle cx="497.27" cy="297.05" r="4.5" fill="#d97706" fill-opacity="0.9"/>
<circle cx="505.76" cy="177.58" r="4.5" fill="#d97706" fill-opacity="0.9"/>
<circle cx="514.24" cy="96.51" r="4.5" fill="#d97706" fill-opacity="0.9"/>
<circle cx="522.73" cy="95.61" r="4.5" fill="#d97706" fill-opacity="0.9"/>
<circle cx="531.21" cy="95.16" r="4.5" fill="#d97706" fill-opacity="0.9"/>
<circle cx="539.70" cy="95.00" r="4.5" fill="#d97706" fill-opacity="0.9"/>
<circle cx="548.18" cy="94.76" r="4.5" fill="#d97706" fill-opacity="0.9"/>
<circle cx="556.67" cy="95.42" r="4.5" fill="#d97706" fill-opacity="0.9"/>
<circle cx="565.15" cy="94.59" r="4.5" fill="#d97706" fill-opacity="0.9"/>
<circle cx="573.64" cy="96.46" r="4.5" fill="#d97706" fill-opacity="0.9"/>
<circle cx="582.12" cy="95.35" r="4.5" fill="#d97706" fill-opacity="0.9"/>
<circle cx="590.61" cy="95.19" r="4.5" fill="#d97706" fill-opacity="0.9"/>
<circle cx="599.09" cy="95.07" r="4.5" fill="#d97706" fill-opacity="0.9"/>
<circle cx="607.58" cy="96.94" r="4.5" fill="#d97706" fill-opacity="0.9"/>
<circle cx="616.06" cy="94.64" r="4.5" fill="#d97706" fill-opacity="0.9"/>
<circle cx="624.55" cy="95.40" r="4.5" fill="#d97706" fill-opacity="0.9"/>
<circle cx="633.03" cy="98.36" r="4.5" fill="#d97706" fill-opacity="0.9"/>
<circle cx="641.52" cy="95.94" r="4.5" fill="#d97706" fill-opacity="0.9"/>
<circle cx="650.00" cy="94.17" r="4.5" fill="#d97706" fill-opacity="0.9"/>
<circle cx="658.48" cy="94.66" r="4.5" fill="#d97706" fill-opacity="0.9"/>
<circle cx="666.97" cy="94.33" r="4.5" fill="#d97706" fill-opacity="0.9"/>
<circle cx="675.45" cy="96.28" r="4.5" fill="#d97706" fill-opacity="0.9"/>
<circle cx="683.94" cy="95.49" r="4.5" fill="#d97706" fill-opacity="0.9"/>
<circle cx="692.42" cy="96.06" r="4.5" fill="#d97706" fill-opacity="0.9"/>
<circle cx="700.91" cy="99.76" r="4.5" fill="#d97706" fill-opacity="0.9"/>
<circle cx="709.39" cy="98.36" r="4.5" fill="#d97706" fill-opacity="0.9"/>
<circle cx="717.88" cy="96.84" r="4.5" fill="#d97706" fill-opacity="0.9"/>
<circle cx="726.36" cy="97.10" r="4.5" fill="#d97706" fill-opacity="0.9"/>
<circle cx="734.85" cy="100.94" r="4.5" fill="#d97706" fill-opacity="0.9"/>
<circle cx="743.33" cy="96.16" r="4.5" fill="#d97706" fill-opacity="0.9"/>
<circle cx="751.82" cy="94.95" r="4.5" fill="#d97706" fill-opacity="0.9"/>
<circle cx="760.30" cy="95.11" r="4.5" fill="#d97706" fill-opacity="0.9"/>
<circle cx="768.79" cy="94.85" r="4.5" fill="#d97706" fill-opacity="0.9"/>
<circle cx="777.27" cy="98.74" r="4.5" fill="#d97706" fill-opacity="0.9"/>
<circle cx="785.76" cy="95.02" r="4.5" fill="#d97706" fill-opacity="0.9"/>
<circle cx="794.24" cy="97.39" r="4.5" fill="#d97706" fill-opacity="0.9"/>
<circle cx="802.73" cy="95.42" r="4.5" fill="#d97706" fill-opacity="0.9"/>
<circle cx="811.21" cy="94.50" r="4.5" fill="#d97706" fill-opacity="0.9"/>
<circle cx="819.70" cy="96.44" r="4.5" fill="#d97706" fill-opacity="0.9"/>
<circle cx="828.18" cy="96.75" r="4.5" fill="#d97706" fill-opacity="0.9"/>
<circle cx="836.67" cy="96.65" r="4.5" fill="#d97706" fill-opacity="0.9"/>
<circle cx="845.15" cy="97.48" r="4.5" fill="#d97706" fill-opacity="0.9"/>
<circle cx="853.64" cy="95.33" r="4.5" fill="#d97706" fill-opacity="0.9"/>
<circle cx="862.12" cy="95.26" r="4.5" fill="#d97706" fill-opacity="0.9"/>
<circle cx="870.61" cy="96.20" r="4.5" fill="#d97706" fill-opacity="0.9"/>
<circle cx="879.09" cy="94.78" r="4.5" fill="#d97706" fill-opacity="0.9"/>
<circle cx="887.58" cy="95.26" r="4.5" fill="#d97706" fill-opacity="0.9"/>
<circle cx="896.06" cy="95.40" r="4.5" fill="#d97706" fill-opacity="0.9"/>
<circle cx="904.55" cy="101.61" r="4.5" fill="#d97706" fill-opacity="0.9"/>
<circle cx="913.03" cy="94.85" r="4.5" fill="#d97706" fill-opacity="0.9"/>
<circle cx="921.52" cy="94.45" r="4.5" fill="#d97706" fill-opacity="0.9"/>
<circle cx="930.00" cy="95.54" r="4.5" fill="#d97706" fill-opacity="0.9"/>
<rect x="90" y="32" width="18" height="6" fill="#d97706"/>
<text x="114" y="38" font-size="13" fill="#333333">val</text>
<polyline fill="none" stroke="#059669" stroke-width="3" points="90.00,207.88 98.48,239.84 106.97,275.31 115.45,116.44 123.94,124.82 132.42,118.33 140.91,130.08 149.39,327.85 157.88,109.40 166.36,174.05 174.85,109.45 183.33,105.82 191.82,105.40 200.30,108.52 208.79,113.10 217.27,139.96 225.76,102.13 234.24,101.94 242.73,100.02 251.21,102.98 259.70,435.83 268.18,435.83 276.67,435.83 285.15,435.83 293.64,274.64 302.12,332.33 310.61,208.07 319.09,220.51 327.58,435.83 336.06,435.83 344.55,119.14 353.03,153.49 361.52,277.03 370.00,218.31 378.48,203.26 386.97,130.44 395.45,175.09 403.94,190.75 412.42,286.65 420.91,198.50 429.39,303.97 437.88,174.69 446.36,304.54 454.85,133.02 463.33,176.25 471.82,193.31 480.30,158.51 488.79,193.98 497.27,300.42 505.76,180.64 514.24,97.63 522.73,96.70 531.21,96.20 539.70,95.30 548.18,95.78 556.67,95.99 565.15,94.55 573.64,96.77 582.12,95.68 590.61,95.26 599.09,94.88 607.58,97.25 616.06,94.52 624.55,95.59 633.03,99.09 641.52,95.83 650.00,94.62 658.48,95.14 666.97,95.09 675.45,97.08 683.94,96.51 692.42,96.04 700.91,100.54 709.39,97.84 717.88,97.01 726.36,98.10 734.85,101.65 743.33,96.63 751.82,94.76 760.30,95.75 768.79,95.80 777.27,99.69 785.76,95.56 794.24,98.12 802.73,96.56 811.21,95.35 819.70,97.72 828.18,97.53 836.67,96.96 845.15,98.64 853.64,94.88 862.12,95.73 870.61,96.39 879.09,94.78 887.58,95.28 896.06,95.90 904.55,102.29 913.03,95.83 921.52,95.75 930.00,95.61"/>
<circle cx="90.00" cy="207.88" r="4.5" fill="#059669" fill-opacity="0.9"/>
<circle cx="98.48" cy="239.84" r="4.5" fill="#059669" fill-opacity="0.9"/>
<circle cx="106.97" cy="275.31" r="4.5" fill="#059669" fill-opacity="0.9"/>
<circle cx="115.45" cy="116.44" r="4.5" fill="#059669" fill-opacity="0.9"/>
<circle cx="123.94" cy="124.82" r="4.5" fill="#059669" fill-opacity="0.9"/>
<circle cx="132.42" cy="118.33" r="4.5" fill="#059669" fill-opacity="0.9"/>
<circle cx="140.91" cy="130.08" r="4.5" fill="#059669" fill-opacity="0.9"/>
<circle cx="149.39" cy="327.85" r="4.5" fill="#059669" fill-opacity="0.9"/>
<circle cx="157.88" cy="109.40" r="4.5" fill="#059669" fill-opacity="0.9"/>
<circle cx="166.36" cy="174.05" r="4.5" fill="#059669" fill-opacity="0.9"/>
<circle cx="174.85" cy="109.45" r="4.5" fill="#059669" fill-opacity="0.9"/>
<circle cx="183.33" cy="105.82" r="4.5" fill="#059669" fill-opacity="0.9"/>
<circle cx="191.82" cy="105.40" r="4.5" fill="#059669" fill-opacity="0.9"/>
<circle cx="200.30" cy="108.52" r="4.5" fill="#059669" fill-opacity="0.9"/>
<circle cx="208.79" cy="113.10" r="4.5" fill="#059669" fill-opacity="0.9"/>
<circle cx="217.27" cy="139.96" r="4.5" fill="#059669" fill-opacity="0.9"/>
<circle cx="225.76" cy="102.13" r="4.5" fill="#059669" fill-opacity="0.9"/>
<circle cx="234.24" cy="101.94" r="4.5" fill="#059669" fill-opacity="0.9"/>
<circle cx="242.73" cy="100.02" r="4.5" fill="#059669" fill-opacity="0.9"/>
<circle cx="251.21" cy="102.98" r="4.5" fill="#059669" fill-opacity="0.9"/>
<circle cx="259.70" cy="435.83" r="4.5" fill="#059669" fill-opacity="0.9"/>
<circle cx="268.18" cy="435.83" r="4.5" fill="#059669" fill-opacity="0.9"/>
<circle cx="276.67" cy="435.83" r="4.5" fill="#059669" fill-opacity="0.9"/>
<circle cx="285.15" cy="435.83" r="4.5" fill="#059669" fill-opacity="0.9"/>
<circle cx="293.64" cy="274.64" r="4.5" fill="#059669" fill-opacity="0.9"/>
<circle cx="302.12" cy="332.33" r="4.5" fill="#059669" fill-opacity="0.9"/>
<circle cx="310.61" cy="208.07" r="4.5" fill="#059669" fill-opacity="0.9"/>
<circle cx="319.09" cy="220.51" r="4.5" fill="#059669" fill-opacity="0.9"/>
<circle cx="327.58" cy="435.83" r="4.5" fill="#059669" fill-opacity="0.9"/>
<circle cx="336.06" cy="435.83" r="4.5" fill="#059669" fill-opacity="0.9"/>
<circle cx="344.55" cy="119.14" r="4.5" fill="#059669" fill-opacity="0.9"/>
<circle cx="353.03" cy="153.49" r="4.5" fill="#059669" fill-opacity="0.9"/>
<circle cx="361.52" cy="277.03" r="4.5" fill="#059669" fill-opacity="0.9"/>
<circle cx="370.00" cy="218.31" r="4.5" fill="#059669" fill-opacity="0.9"/>
<circle cx="378.48" cy="203.26" r="4.5" fill="#059669" fill-opacity="0.9"/>
<circle cx="386.97" cy="130.44" r="4.5" fill="#059669" fill-opacity="0.9"/>
<circle cx="395.45" cy="175.09" r="4.5" fill="#059669" fill-opacity="0.9"/>
<circle cx="403.94" cy="190.75" r="4.5" fill="#059669" fill-opacity="0.9"/>
<circle cx="412.42" cy="286.65" r="4.5" fill="#059669" fill-opacity="0.9"/>
<circle cx="420.91" cy="198.50" r="4.5" fill="#059669" fill-opacity="0.9"/>
<circle cx="429.39" cy="303.97" r="4.5" fill="#059669" fill-opacity="0.9"/>
<circle cx="437.88" cy="174.69" r="4.5" fill="#059669" fill-opacity="0.9"/>
<circle cx="446.36" cy="304.54" r="4.5" fill="#059669" fill-opacity="0.9"/>
<circle cx="454.85" cy="133.02" r="4.5" fill="#059669" fill-opacity="0.9"/>
<circle cx="463.33" cy="176.25" r="4.5" fill="#059669" fill-opacity="0.9"/>
<circle cx="471.82" cy="193.31" r="4.5" fill="#059669" fill-opacity="0.9"/>
<circle cx="480.30" cy="158.51" r="4.5" fill="#059669" fill-opacity="0.9"/>
<circle cx="488.79" cy="193.98" r="4.5" fill="#059669" fill-opacity="0.9"/>
<circle cx="497.27" cy="300.42" r="4.5" fill="#059669" fill-opacity="0.9"/>
<circle cx="505.76" cy="180.64" r="4.5" fill="#059669" fill-opacity="0.9"/>
<circle cx="514.24" cy="97.63" r="4.5" fill="#059669" fill-opacity="0.9"/>
<circle cx="522.73" cy="96.70" r="4.5" fill="#059669" fill-opacity="0.9"/>
<circle cx="531.21" cy="96.20" r="4.5" fill="#059669" fill-opacity="0.9"/>
<circle cx="539.70" cy="95.30" r="4.5" fill="#059669" fill-opacity="0.9"/>
<circle cx="548.18" cy="95.78" r="4.5" fill="#059669" fill-opacity="0.9"/>
<circle cx="556.67" cy="95.99" r="4.5" fill="#059669" fill-opacity="0.9"/>
<circle cx="565.15" cy="94.55" r="4.5" fill="#059669" fill-opacity="0.9"/>
<circle cx="573.64" cy="96.77" r="4.5" fill="#059669" fill-opacity="0.9"/>
<circle cx="582.12" cy="95.68" r="4.5" fill="#059669" fill-opacity="0.9"/>
<circle cx="590.61" cy="95.26" r="4.5" fill="#059669" fill-opacity="0.9"/>
<circle cx="599.09" cy="94.88" r="4.5" fill="#059669" fill-opacity="0.9"/>
<circle cx="607.58" cy="97.25" r="4.5" fill="#059669" fill-opacity="0.9"/>
<circle cx="616.06" cy="94.52" r="4.5" fill="#059669" fill-opacity="0.9"/>
<circle cx="624.55" cy="95.59" r="4.5" fill="#059669" fill-opacity="0.9"/>
<circle cx="633.03" cy="99.09" r="4.5" fill="#059669" fill-opacity="0.9"/>
<circle cx="641.52" cy="95.83" r="4.5" fill="#059669" fill-opacity="0.9"/>
<circle cx="650.00" cy="94.62" r="4.5" fill="#059669" fill-opacity="0.9"/>
<circle cx="658.48" cy="95.14" r="4.5" fill="#059669" fill-opacity="0.9"/>
<circle cx="666.97" cy="95.09" r="4.5" fill="#059669" fill-opacity="0.9"/>
<circle cx="675.45" cy="97.08" r="4.5" fill="#059669" fill-opacity="0.9"/>
<circle cx="683.94" cy="96.51" r="4.5" fill="#059669" fill-opacity="0.9"/>
<circle cx="692.42" cy="96.04" r="4.5" fill="#059669" fill-opacity="0.9"/>
<circle cx="700.91" cy="100.54" r="4.5" fill="#059669" fill-opacity="0.9"/>
<circle cx="709.39" cy="97.84" r="4.5" fill="#059669" fill-opacity="0.9"/>
<circle cx="717.88" cy="97.01" r="4.5" fill="#059669" fill-opacity="0.9"/>
<circle cx="726.36" cy="98.10" r="4.5" fill="#059669" fill-opacity="0.9"/>
<circle cx="734.85" cy="101.65" r="4.5" fill="#059669" fill-opacity="0.9"/>
<circle cx="743.33" cy="96.63" r="4.5" fill="#059669" fill-opacity="0.9"/>
<circle cx="751.82" cy="94.76" r="4.5" fill="#059669" fill-opacity="0.9"/>
<circle cx="760.30" cy="95.75" r="4.5" fill="#059669" fill-opacity="0.9"/>
<circle cx="768.79" cy="95.80" r="4.5" fill="#059669" fill-opacity="0.9"/>
<circle cx="777.27" cy="99.69" r="4.5" fill="#059669" fill-opacity="0.9"/>
<circle cx="785.76" cy="95.56" r="4.5" fill="#059669" fill-opacity="0.9"/>
<circle cx="794.24" cy="98.12" r="4.5" fill="#059669" fill-opacity="0.9"/>
<circle cx="802.73" cy="96.56" r="4.5" fill="#059669" fill-opacity="0.9"/>
<circle cx="811.21" cy="95.35" r="4.5" fill="#059669" fill-opacity="0.9"/>
<circle cx="819.70" cy="97.72" r="4.5" fill="#059669" fill-opacity="0.9"/>
<circle cx="828.18" cy="97.53" r="4.5" fill="#059669" fill-opacity="0.9"/>
<circle cx="836.67" cy="96.96" r="4.5" fill="#059669" fill-opacity="0.9"/>
<circle cx="845.15" cy="98.64" r="4.5" fill="#059669" fill-opacity="0.9"/>
<circle cx="853.64" cy="94.88" r="4.5" fill="#059669" fill-opacity="0.9"/>
<circle cx="862.12" cy="95.73" r="4.5" fill="#059669" fill-opacity="0.9"/>
<circle cx="870.61" cy="96.39" r="4.5" fill="#059669" fill-opacity="0.9"/>
<circle cx="879.09" cy="94.78" r="4.5" fill="#059669" fill-opacity="0.9"/>
<circle cx="887.58" cy="95.28" r="4.5" fill="#059669" fill-opacity="0.9"/>
<circle cx="896.06" cy="95.90" r="4.5" fill="#059669" fill-opacity="0.9"/>
<circle cx="904.55" cy="102.29" r="4.5" fill="#059669" fill-opacity="0.9"/>
<circle cx="913.03" cy="95.83" r="4.5" fill="#059669" fill-opacity="0.9"/>
<circle cx="921.52" cy="95.75" r="4.5" fill="#059669" fill-opacity="0.9"/>
<circle cx="930.00" cy="95.61" r="4.5" fill="#059669" fill-opacity="0.9"/>
<rect x="270" y="32" width="18" height="6" fill="#059669"/>
<text x="294" y="38" font-size="13" fill="#333333">test</text>
</svg>