<svg xmlns="http://www.w3.org/2000/svg" width="960" height="540">
<rect width="100%" height="100%" fill="#ffffff"/>
<text x="480.0" y="30" font-size="22" text-anchor="middle" fill="#111111">Consistency Loss</text>
<text x="20" y="270.0" font-size="16" transform="rotate(-90 20,270.0)" text-anchor="middle" fill="#333333">Loss</text>
<text x="480.0" y="520" font-size="16" text-anchor="middle" fill="#333333">Epoch</text>
<line x1="90" y1="60" x2="90" y2="470" stroke="#333333" stroke-width="2"/>
<line x1="90" y1="470" x2="930" y2="470" stroke="#333333" stroke-width="2"/>
<line x1="90" y1="470.00" x2="930" y2="470.00" stroke="#e5e7eb" stroke-width="1"/>
<text x="80" y="475.00" font-size="12" text-anchor="end" fill="#555555">-1.0000</text>
<line x1="90" y1="367.50" x2="930" y2="367.50" stroke="#e5e7eb" stroke-width="1"/>
<text x="80" y="372.50" font-size="12" text-anchor="end" fill="#555555">-0.5000</text>
<line x1="90" y1="265.00" x2="930" y2="265.00" stroke="#e5e7eb" stroke-width="1"/>
<text x="80" y="270.00" font-size="12" text-anchor="end" fill="#555555">0.0000</text>
<line x1="90" y1="162.50" x2="930" y2="162.50" stroke="#e5e7eb" stroke-width="1"/>
<text x="80" y="167.50" font-size="12" text-anchor="end" fill="#555555">0.5000</text>
<line x1="90" y1="60.00" x2="930" y2="60.00" stroke="#e5e7eb" stroke-width="1"/>
<text x="80" y="65.00" font-size="12" text-anchor="end" fill="#555555">1.0000</text>
<line x1="90.00" y1="60" x2="90.00" y2="470" stroke="#f3f4f6" stroke-width="1"/>
<text x="90.00" y="492" font-size="12" text-anchor="middle" fill="#555555">1</text>
<line x1="94.88" y1="60" x2="94.88" y2="470" stroke="#f3f4f6" stroke-width="1"/>
<text x="94.88" y="492" font-size="12" text-anchor="middle" fill="#555555">2</text>
<line x1="99.77" y1="60" x2="99.77" y2="470" stroke="#f3f4f6" stroke-width="1"/>
<text x="99.77" y="492" font-size="12" text-anchor="middle" fill="#555555">3</text>
<line x1="104.65" y1="60" x2="104.65" y2="470" stroke="#f3f4f6" stroke-width="1"/>
<text x="104.65" y="492" font-size="12" text-anchor="middle" fill="#555555">4</text>
<line x1="109.53" y1="60" x2="109.53" y2="470" stroke="#f3f4f6" stroke-width="1"/>
<text x="109.53" y="492" font-size="12" text-anchor="middle" fill="#555555">5</text>
<line x1="114.42" y1="60" x2="114.42" y2="470" stroke="#f3f4f6" stroke-width="1"/>
<text x="114.42" y="492" font-size="12" text-anchor="middle" fill="#555555">6</text>
<line x1="119.30" y1="60" x2="119.30" y2="470" stroke="#f3f4f6" stroke-width="1"/>
<text x="119.30" y="492" font-size="12" text-anchor="middle" fill="#555555">7</text>
<line x1="124.19" y1="60" x2="124.19" y2="470" stroke="#f3f4f6" stroke-width="1"/>
<text x="124.19" y="492" font-size="12" text-anchor="middle" fill="#555555">8</text>
<line x1="129.07" y1="60" x2="129.07" y2="470" stroke="#f3f4f6" stroke-width="1"/>
<text x="129.07" y="492" font-size="12" text-anchor="middle" fill="#555555">9</text>
<line x1="133.95" y1="60" x2="133.95" y2="470" stroke="#f3f4f6" stroke-width="1"/>
<text x="133.95" y="492" font-size="12" text-anchor="middle" fill="#555555">10</text>
<line x1="138.84" y1="60" x2="138.84" y2="470" stroke="#f3f4f6" stroke-width="1"/>
<text x="138.84" y="492" font-size="12" text-anchor="middle" fill="#555555">11</text>
<line x1="143.72" y1="60" x2="143.72" y2="470" stroke="#f3f4f6" stroke-width="1"/>
<text x="143.72" y="492" font-size="12" text-anchor="middle" fill="#555555">12</text>
<line x1="148.60" y1="60" x2="148.60" y2="470" stroke="#f3f4f6" stroke-width="1"/>
<text x="148.60" y="492" font-size="12" text-anchor="middle" fill="#555555">13</text>
<line x1="153.49" y1="60" x2="153.49" y2="470" stroke="#f3f4f6" stroke-width="1"/>
<text x="153.49" y="492" font-size="12" text-anchor="middle" fill="#555555">14</text>
<line x1="158.37" y1="60" x2="158.37" y2="470" stroke="#f3f4f6" stroke-width="1"/>
<text x="158.37" y="492" font-size="12" text-anchor="middle" fill="#555555">15</text>
<line x1="163.26" y1="60" x2="163.26" y2="470" stroke="#f3f4f6" stroke-width="1"/>
<text x="163.26" y="492" font-size="12" text-anchor="middle" fill="#555555">16</text>
<line x1="168.14" y1="60" x2="168.14" y2="470" stroke="#f3f4f6" stroke-width="1"/>
<text x="168.14" y="492" font-size="12" text-anchor="middle" fill="#555555">17</text>
<line x1="173.02" y1="60" x2="173.02" y2="470" stroke="#f3f4f6" stroke-width="1"/>
<text x="173.02" y="492" font-size="12" text-anchor="middle" fill="#555555">18</text>
<line x1="177.91" y1="60" x2="177.91" y2="470" stroke="#f3f4f6" stroke-width="1"/>
<text x="177.91" y="492" font-size="12" text-anchor="middle" fill="#555555">19</text>
<line x1="182.79" y1="60" x2="182.79" y2="470" stroke="#f3f4f6" stroke-width="1"/>
<text x="182.79" y="492" font-size="12" text-anchor="middle" fill="#555555">20</text>
<line x1="187.67" y1="60" x2="187.67" y2="470" stroke="#f3f4f6" stroke-width="1"/>
<text x="187.67" y="492" font-size="12" text-anchor="middle" fill="#555555">21</text>
<line x1="192.56" y1="60" x2="192.56" y2="470" stroke="#f3f4f6" stroke-width="1"/>
<text x="192.56" y="492" font-size="12" text-anchor="middle" fill="#555555">22</text>
<line x1="197.44" y1="60" x2="197.44" y2="470" stroke="#f3f4f6" stroke-width="1"/>
<text x="197.44" y="492" font-size="12" text-anchor="middle" fill="#555555">23</text>
<line x1="202.33" y1="60" x2="202.33" y2="470" stroke="#f3f4f6" stroke-width="1"/>
<text x="202.33" y="492" font-size="12" text-anchor="middle" fill="#555555">24</text>
<line x1="207.21" y1="60" x2="207.21" y2="470" stroke="#f3f4f6" stroke-width="1"/>
<text x="207.21" y="492" font-size="12" text-anchor="middle" fill="#555555">25</text>
<line x1="212.09" y1="60" x2="212.09" y2="470" stroke="#f3f4f6" stroke-width="1"/>
<text x="212.09" y="492" font-size="12" text-anchor="middle" fill="#555555">26</text>
<line x1="216.98" y1="60" x2="216.98" y2="470" stroke="#f3f4f6" stroke-width="1"/>
<text x="216.98" y="492" font-size="12" text-anchor="middle" fill="#555555">27</text>
<line x1="221.86" y1="60" x2="221.86" y2="470" stroke="#f3f4f6" stroke-width="1"/>
<text x="221.86" y="492" font-size="12" text-anchor="middle" fill="#555555">28</text>
<line x1="226.74" y1="60" x2="226.74" y2="470" stroke="#f3f4f6" stroke-width="1"/>
<text x="226.74" y="492" font-size="12" text-anchor="middle" fill="#555555">29</text>
<line x1="231.63" y1="60" x2="231.63" y2="470" stroke="#f3f4f6" stroke-width="1"/>
<text x="231.63" y="492" font-size="12" text-anchor="middle" fill="#555555">30</text>
<line x1="236.51" y1="60" x2="236.51" y2="470" stroke="#f3f4f6" stroke-width="1"/>
<text x="236.51" y="492" font-size="12" text-anchor="middle" fill="#555555">31</text>
<line x1="241.40" y1="60" x2="241.40" y2="470" stroke="#f3f4f6" stroke-width="1"/>
<text x="241.40" y="492" font-size="12" text-anchor="middle" fill="#555555">32</text>
<line x1="246.28" y1="60" x2="246.28" y2="470" stroke="#f3f4f6" stroke-width="1"/>
<text x="246.28" y="492" font-size="12" text-anchor="middle" fill="#555555">33</text>
<line x1="251.16" y1="60" x2="251.16" y2="470" stroke="#f3f4f6" stroke-width="1"/>
<text x="251.16" y="492" font-size="12" text-anchor="middle" fill="#555555">34</text>
<line x1="256.05" y1="60" x2="256.05" y2="470" stroke="#f3f4f6" stroke-width="1"/>
<text x="256.05" y="492" font-size="12" text-anchor="middle" fill="#555555">35</text>
<line x1="260.93" y1="60" x2="260.93" y2="470" stroke="#f3f4f6" stroke-width="1"/>
<text x="260.93" y="492" font-size="12" text-anchor="middle" fill="#555555">36</text>
<line x1="265.81" y1="60" x2="265.81" y2="470" stroke="#f3f4f6" stroke-width="1"/>
<text x="265.81" y="492" font-size="12" text-anchor="middle" fill="#555555">37</text>
<line x1="270.70" y1="60" x2="270.70" y2="470" stroke="#f3f4f6" stroke-width="1"/>
<text x="270.70" y="492" font-size="12" text-anchor="middle" fill="#555555">38</text>
<line x1="275.58" y1="60" x2="275.58" y2="470" stroke="#f3f4f6" stroke-width="1"/>
<text x="275.58" y="492" font-size="12" text-anchor="middle" fill="#555555">39</text>
<line x1="280.47" y1="60" x2="280.47" y2="470" stroke="#f3f4f6" stroke-width="1"/>
<text x="280.47" y="492" font-size="12" text-anchor="middle" fill="#555555">40</text>
<line x1="285.35" y1="60" x2="285.35" y2="470" stroke="#f3f4f6" stroke-width="1"/>
<text x="285.35" y="492" font-size="12" text-anchor="middle" fill="#555555">41</text>
<line x1="290.23" y1="60" x2="290.23" y2="470" stroke="#f3f4f6" stroke-width="1"/>
<text x="290.23" y="492" font-size="12" text-anchor="middle" fill="#555555">42</text>
<line x1="295.12" y1="60" x2="295.12" y2="470" stroke="#f3f4f6" stroke-width="1"/>
<text x="295.12" y="492" font-size="12" text-anchor="middle" fill="#555555">43</text>
<line x1="300.00" y1="60" x2="300.00" y2="470" stroke="#f3f4f6" stroke-width="1"/>
<text x="300.00" y="492" font-size="12" text-anchor="middle" fill="#555555">44</text>
<line x1="304.88" y1="60" x2="304.88" y2="470" stroke="#f3f4f6" stroke-width="1"/>
<text x="304.88" y="492" font-size="12" text-anchor="middle" fill="#555555">45</text>
<line x1="309.77" y1="60" x2="309.77" y2="470" stroke="#f3f4f6" stroke-width="1"/>
<text x="309.77" y="492" font-size="12" text-anchor="middle" fill="#555555">46</text>
<line x1="314.65" y1="60" x2="314.65" y2="470" stroke="#f3f4f6" stroke-width="1"/>
<text x="314.65" y="492" font-size="12" text-anchor="middle" fill="#555555">47</text>
<line x1="319.53" y1="60" x2="319.53" y2="470" stroke="#f3f4f6" stroke-width="1"/>
<text x="319.53" y="492" font-size="12" text-anchor="middle" fill="#555555">48</text>
<line x1="324.42" y1="60" x2="324.42" y2="470" stroke="#f3f4f6" stroke-width="1"/>
<text x="324.42" y="492" font-size="12" text-anchor="middle" fill="#555555">49</text>
<line x1="329.30" y1="60" x2="329.30" y2="470" stroke="#f3f4f6" stroke-width="1"/>
<text x="329.30" y="492" font-size="12" text-anchor="middle" fill="#555555">50</text>
<line x1="334.19" y1="60" x2="334.19" y2="470" stroke="#f3f4f6" stroke-width="1"/>
<text x="334.19" y="492" font-size="12" text-anchor="middle" fill="#555555">51</text>
<line x1="339.07" y1="60" x2="339.07" y2="470" stroke="#f3f4f6" stroke-width="1"/>
<text x="339.07" y="492" font-size="12" text-anchor="middle" fill="#555555">52</text>
<line x1="343.95" y1="60" x2="343.95" y2="470" stroke="#f3f4f6" stroke-width="1"/>
<text x="343.95" y="492" font-size="12" text-anchor="middle" fill="#555555">53</text>
<line x1="348.84" y1="60" x2="348.84" y2="470" stroke="#f3f4f6" stroke-width="1"/>
<text x="348.84" y="492" font-size="12" text-anchor="middle" fill="#555555">54</text>
<line x1="353.72" y1="60" x2="353.72" y2="470" stroke="#f3f4f6" stroke-width="1"/>
<text x="353.72" y="492" font-size="12" text-anchor="middle" fill="#555555">55</text>
<line x1="358.60" y1="60" x2="358.60" y2="470" stroke="#f3f4f6" stroke-width="1"/>
<text x="358.60" y="492" font-size="12" text-anchor="middle" fill="#555555">56</text>
<line x1="363.49" y1="60" x2="363.49" y2="470" stroke="#f3f4f6" stroke-width="1"/>
<text x="363.49" y="492" font-size="12" text-anchor="middle" fill="#555555">57</text>
<line x1="368.37" y1="60" x2="368.37" y2="470" stroke="#f3f4f6" stroke-width="1"/>
<text x="368.37" y="492" font-size="12" text-anchor="middle" fill="#555555">58</text>
<line x1="373.26" y1="60" x2="373.26" y2="470" stroke="#f3f4f6" stroke-width="1"/>
<text x="373.26" y="492" font-size="12" text-anchor="middle" fill="#555555">59</text>
<line x1="378.14" y1="60" x2="378.14" y2="470" stroke="#f3f4f6" stroke-width="1"/>
<text x="378.14" y="492" font-size="12" text-anchor="middle" fill="#555555">60</text>
<line x1="383.02" y1="60" x2="383.02" y2="470" stroke="#f3f4f6" stroke-width="1"/>
<text x="383.02" y="492" font-size="12" text-anchor="middle" fill="#555555">61</text>
<line x1="387.91" y1="60" x2="387.91" y2="470" stroke="#f3f4f6" stroke-width="1"/>
<text x="387.91" y="492" font-size="12" text-anchor="middle" fill="#555555">62</text>
<line x1="392.79" y1="60" x2="392.79" y2="470" stroke="#f3f4f6" stroke-width="1"/>
<text x="392.79" y="492" font-size="12" text-anchor="middle" fill="#555555">63</text>
<line x1="397.67" y1="60" x2="397.67" y2="470" stroke="#f3f4f6" stroke-width="1"/>
<text x="397.67" y="492" font-size="12" text-anchor="middle" fill="#555555">64</text>
<line x1="402.56" y1="60" x2="402.56" y2="470" stroke="#f3f4f6" stroke-width="1"/>
<text x="402.56" y="492" font-size="12" text-anchor="middle" fill="#555555">65</text>
<line x1="407.44" y1="60" x2="407.44" y2="470" stroke="#f3f4f6" stroke-width="1"/>
<text x="407.44" y="492" font-size="12" text-anchor="middle" fill="#555555">66</text>
<line x1="412.33" y1="60" x2="412.33" y2="470" stroke="#f3f4f6" stroke-width="1"/>
<text x="412.33" y="492" font-size="12" text-anchor="middle" fill="#555555">67</text>
<line x1="417.21" y1="60" x2="417.21" y2="470" stroke="#f3f4f6" stroke-width="1"/>
<text x="417.21" y="492" font-size="12" text-anchor="middle" fill="#555555">68</text>
<line x1="422.09" y1="60" x2="422.09" y2="470" stroke="#f3f4f6" stroke-width="1"/>
<text x="422.09" y="492" font-size="12" text-anchor="middle" fill="#555555">69</text>
<line x1="426.98" y1="60" x2="426.98" y2="470" stroke="#f3f4f6" stroke-width="1"/>
<text x="426.98" y="492" font-size="12" text-anchor="middle" fill="#555555">70</text>
<line x1="431.86" y1="60" x2="431.86" y2="470" stroke="#f3f4f6" stroke-width="1"/>
<text x="431.86" y="492" font-size="12" text-anchor="middle" fill="#555555">71</text>
<line x1="436.74" y1="60" x2="436.74" y2="470" stroke="#f3f4f6" stroke-width="1"/>
<text x="436.74" y="492" font-size="12" text-anchor="middle" fill="#555555">72</text>
<line x1="441.63" y1="60" x2="441.63" y2="470" stroke="#f3f4f6" stroke-width="1"/>
<text x="441.63" y="492" font-size="12" text-anchor="middle" fill="#555555">73</text>
<line x1="446.51" y1="60" x2="446.51" y2="470" stroke="#f3f4f6" stroke-width="1"/>
<text x="446.51" y="492" font-size="12" text-anchor="middle" fill="#555555">74</text>
<line x1="451.40" y1="60" x2="451.40" y2="470" stroke="#f3f4f6" stroke-width="1"/>
<text x="451.40" y="492" font-size="12" text-anchor="middle" fill="#555555">75</text>
<line x1="456.28" y1="60" x2="456.28" y2="470" stroke="#f3f4f6" stroke-width="1"/>
<text x="456.28" y="492" font-size="12" text-anchor="middle" fill="#555555">76</text>
<line x1="461.16" y1="60" x2="461.16" y2="470" stroke="#f3f4f6" stroke-width="1"/>
<text x="461.16" y="492" font-size="12" text-anchor="middle" fill="#555555">77</text>
<line x1="466.05" y1="60" x2="466.05" y2="470" stroke="#f3f4f6" stroke-width="1"/>
<text x="466.05" y="492" font-size="12" text-anchor="middle" fill="#555555">78</text>
<line x1="470.93" y1="60" x2="470.93" y2="470" stroke="#f3f4f6" stroke-width="1"/>
<text x="470.93" y="492" font-size="12" text-anchor="middle" fill="#555555">79</text>
<line x1="475.81" y1="60" x2="475.81" y2="470" stroke="#f3f4f6" stroke-width="1"/>
<text x="475.81" y="492" font-size="12" text-anchor="middle" fill="#555555">80</text>
<line x1="480.70" y1="60" x2="480.70" y2="470" stroke="#f3f4f6" stroke-width="1"/>
<text x="480.70" y="492" font-size="12" text-anchor="middle" fill="#555555">81</text>
<line x1="485.58" y1="60" x2="485.58" y2="470" stroke="#f3f4f6" stroke-width="1"/>
<text x="485.58" y="492" font-size="12" text-anchor="middle" fill="#555555">82</text>
<line x1="490.47" y1="60" x2="490.47" y2="470" stroke="#f3f4f6" stroke-width="1"/>
<text x="490.47" y="492" font-size="12" text-anchor="middle" fill="#555555">83</text>
<line x1="495.35" y1="60" x2="495.35" y2="470" stroke="#f3f4f6" stroke-width="1"/>
<text x="495.35" y="492" font-size="12" text-anchor="middle" fill="#555555">84</text>
<line x1="500.23" y1="60" x2="500.23" y2="470" stroke="#f3f4f6" stroke-width="1"/>
<text x="500.23" y="492" font-size="12" text-anchor="middle" fill="#555555">85</text>
<line x1="505.12" y1="60" x2="505.12" y2="470" stroke="#f3f4f6" stroke-width="1"/>
<text x="505.12" y="492" font-size="12" text-anchor="middle" fill="#555555">86</text>
<line x1="510.00" y1="60" x2="510.00" y2="470" stroke="#f3f4f6" stroke-width="1"/>
<text x="510.00" y="492" font-size="12" text-anchor="middle" fill="#555555">87</text>
<line x1="514.88" y1="60" x2="514.88" y2="470" stroke="#f3f4f6" stroke-width="1"/>
<text x="514.88" y="492" font-size="12" text-anchor="middle" fill="#555555">88</text>
<line x1="519.77" y1="60" x2="519.77" y2="470" stroke="#f3f4f6" stroke-width="1"/>
<text x="519.77" y="492" font-size="12" text-anchor="middle" fill="#555555">89</text>
<line x1="524.65" y1="60" x2="524.65" y2="470" stroke="#f3f4f6" stroke-width="1"/>
<text x="524.65" y="492" font-size="12" text-anchor="middle" fill="#555555">90</text>
<line x1="529.53" y1="60" x2="529.53" y2="470" stroke="#f3f4f6" stroke-width="1"/>
<text x="529.53" y="492" font-size="12" text-anchor="middle" fill="#555555">91</text>
<line x1="534.42" y1="60" x2="534.42" y2="470" stroke="#f3f4f6" stroke-width="1"/>
<text x="534.42" y="492" font-size="12" text-anchor="middle" fill="#555555">92</text>
<line x1="539.30" y1="60" x2="539.30" y2="470" stroke="#f3f4f6" stroke-width="1"/>
<text x="539.30" y="492" font-size="12" text-anchor="middle" fill="#555555">93</text>
<line x1="544.19" y1="60" x2="544.19" y2="470" stroke="#f3f4f6" stroke-width="1"/>
<text x="544.19" y="492" font-size="12" text-anchor="middle" fill="#555555">94</text>
<line x1="549.07" y1="60" x2="549.07" y2="470" stroke="#f3f4f6" stroke-width="1"/>
<text x="549.07" y="492" font-size="12" text-anchor="middle" fill="#555555">95</text>
<line x1="553.95" y1="60" x2="553.95" y2="470" stroke="#f3f4f6" stroke-width="1"/>
<text x="553.95" y="492" font-size="12" text-anchor="middle" fill="#555555">96</text>
<line x1="558.84" y1="60" x2="558.84" y2="470" stroke="#f3f4f6" stroke-width="1"/>
<text x="558.84" y="492" font-size="12" text-anchor="middle" fill="#555555">97</text>
<line x1="563.72" y1="60" x2="563.72" y2="470" stroke="#f3f4f6" stroke-width="1"/>
<text x="563.72" y="492" font-size="12" text-anchor="middle" fill="#555555">98</text>
<line x1="568.60" y1="60" x2="568.60" y2="470" stroke="#f3f4f6" stroke-width="1"/>
<text x="568.60" y="492" font-size="12" text-anchor="middle" fill="#555555">99</text>
<line x1="573.49" y1="60" x2="573.49" y2="470" stroke="#f3f4f6" stroke-width="1"/>
<text x="573.49" y="492" font-size="12" text-anchor="middle" fill="#555555">100</text>
<line x1="578.37" y1="60" x2="578.37" y2="470" stroke="#f3f4f6" stroke-width="1"/>
<text x="578.37" y="492" font-size="12" text-anchor="middle" fill="#555555">101</text>
<line x1="583.26" y1="60" x2="583.26" y2="470" stroke="#f3f4f6" stroke-width="1"/>
<text x="583.26" y="492" font-size="12" text-anchor="middle" fill="#555555">102</text>
<line x1="588.14" y1="60" x2="588.14" y2="470" stroke="#f3f4f6" stroke-width="1"/>
<text x="588.14" y="492" font-size="12" text-anchor="middle" fill="#555555">103</text>
<line x1="593.02" y1="60" x2="593.02" y2="470" stroke="#f3f4f6" stroke-width="1"/>
<text x="593.02" y="492" font-size="12" text-anchor="middle" fill="#555555">104</text>
<line x1="597.91" y1="60" x2="597.91" y2="470" stroke="#f3f4f6" stroke-width="1"/>
<text x="597.91" y="492" font-size="12" text-anchor="middle" fill="#555555">105</text>
<line x1="602.79" y1="60" x2="602.79" y2="470" stroke="#f3f4f6" stroke-width="1"/>
<text x="602.79" y="492" font-size="12" text-anchor="middle" fill="#555555">106</text>
<line x1="607.67" y1="60" x2="607.67" y2="470" stroke="#f3f4f6" stroke-width="1"/>
<text x="607.67" y="492" font-size="12" text-anchor="middle" fill="#555555">107</text>
<line x1="612.56" y1="60" x2="612.56" y2="470" stroke="#f3f4f6" stroke-width="1"/>
<text x="612.56" y="492" font-size="12" text-anchor="middle" fill="#555555">108</text>
<line x1="617.44" y1="60" x2="617.44" y2="470" stroke="#f3f4f6" stroke-width="1"/>
<text x="617.44" y="492" font-size="12" text-anchor="middle" fill="#555555">109</text>
<line x1="622.33" y1="60" x2="622.33" y2="470" stroke="#f3f4f6" stroke-width="1"/>
<text x="622.33" y="492" font-size="12" text-anchor="middle" fill="#555555">110</text>
<line x1="627.21" y1="60" x2="627.21" y2="470" stroke="#f3f4f6" stroke-width="1"/>
<text x="627.21" y="492" font-size="12" text-anchor="middle" fill="#555555">111</text>
<line x1="632.09" y1="60" x2="632.09" y2="470" stroke="#f3f4f6" stroke-width="1"/>
<text x="632.09" y="492" font-size="12" text-anchor="middle" fill="#555555">112</text>
<line x1="636.98" y1="60" x2="636.98" y2="470" stroke="#f3f4f6" stroke-width="1"/>
<text x="636.98" y="492" font-size="12" text-anchor="middle" fill="#555555">113</text>
<line x1="641.86" y1="60" x2="641.86" y2="470" stroke="#f3f4f6" stroke-width="1"/>
<text x="641.86" y="492" font-size="12" text-anchor="middle" fill="#555555">114</text>
<line x1="646.74" y1="60" x2="646.74" y2="470" stroke="#f3f4f6" stroke-width="1"/>
<text x="646.74" y="492" font-size="12" text-anchor="middle" fill="#555555">115</text>
<line x1="651.63" y1="60" x2="651.63" y2="470" stroke="#f3f4f6" stroke-width="1"/>
<text x="651.63" y="492" font-size="12" text-anchor="middle" fill="#555555">116</text>
<line x1="656.51" y1="60" x2="656.51" y2="470" stroke="#f3f4f6" stroke-width="1"/>
<text x="656.51" y="492" font-size="12" text-anchor="middle" fill="#555555">117</text>
<line x1="661.40" y1="60" x2="661.40" y2="470" stroke="#f3f4f6" stroke-width="1"/>
<text x="661.40" y="492" font-size="12" text-anchor="middle" fill="#555555">118</text>
<line x1="666.28" y1="60" x2="666.28" y2="470" stroke="#f3f4f6" stroke-width="1"/>
<text x="666.28" y="492" font-size="12" text-anchor="middle" fill="#555555">119</text>
<line x1="671.16" y1="60" x2="671.16" y2="470" stroke="#f3f4f6" stroke-width="1"/>
<text x="671.16" y="492" font-size="12" text-anchor="middle" fill="#555555">120</text>
<line x1="676.05" y1="60" x2="676.05" y2="470" stroke="#f3f4f6" stroke-width="1"/>
<text x="676.05" y="492" font-size="12" text-anchor="middle" fill="#555555">121</text>
<line x1="680.93" y1="60" x2="680.93" y2="470" stroke="#f3f4f6" stroke-width="1"/>
<text x="680.93" y="492" font-size="12" text-anchor="middle" fill="#555555">122</text>
<line x1="685.81" y1="60" x2="685.81" y2="470" stroke="#f3f4f6" stroke-width="1"/>
<text x="685.81" y="492" font-size="12" text-anchor="middle" fill="#555555">123</text>
<line x1="690.70" y1="60" x2="690.70" y2="470" stroke="#f3f4f6" stroke-width="1"/>
<text x="690.70" y="492" font-size="12" text-anchor="middle" fill="#555555">124</text>
<line x1="695.58" y1="60" x2="695.58" y2="470" stroke="#f3f4f6" stroke-width="1"/>
<text x="695.58" y="492" font-size="12" text-anchor="middle" fill="#555555">125</text>
<line x1="700.47" y1="60" x2="700.47" y2="470" stroke="#f3f4f6" stroke-width="1"/>
<text x="700.47" y="492" font-size="12" text-anchor="middle" fill="#555555">126</text>
<line x1="705.35" y1="60" x2="705.35" y2="470" stroke="#f3f4f6" stroke-width="1"/>
<text x="705.35" y="492" font-size="12" text-anchor="middle" fill="#555555">127</text>
<line x1="710.23" y1="60" x2="710.23" y2="470" stroke="#f3f4f6" stroke-width="1"/>
<text x="710.23" y="492" font-size="12" text-anchor="middle" fill="#555555">128</text>
<line x1="715.12" y1="60" x2="715.12" y2="470" stroke="#f3f4f6" stroke-width="1"/>
<text x="715.12" y="492" font-size="12" text-anchor="middle" fill="#555555">129</text>
<line x1="720.00" y1="60" x2="720.00" y2="470" stroke="#f3f4f6" stroke-width="1"/>
<text x="720.00" y="492" font-size="12" text-anchor="middle" fill="#555555">130</text>
<line x1="724.88" y1="60" x2="724.88" y2="470" stroke="#f3f4f6" stroke-width="1"/>
<text x="724.88" y="492" font-size="12" text-anchor="middle" fill="#555555">131</text>
<line x1="729.77" y1="60" x2="729.77" y2="470" stroke="#f3f4f6" stroke-width="1"/>
<text x="729.77" y="492" font-size="12" text-anchor="middle" fill="#555555">132</text>
<line x1="734.65" y1="60" x2="734.65" y2="470" stroke="#f3f4f6" stroke-width="1"/>
<text x="734.65" y="492" font-size="12" text-anchor="middle" fill="#555555">133</text>
<line x1="739.53" y1="60" x2="739.53" y2="470" stroke="#f3f4f6" stroke-width="1"/>
<text x="739.53" y="492" font-size="12" text-anchor="middle" fill="#555555">134</text>
<line x1="744.42" y1="60" x2="744.42" y2="470" stroke="#f3f4f6" stroke-width="1"/>
<text x="744.42" y="492" font-size="12" text-anchor="middle" fill="#555555">135</text>
<line x1="749.30" y1="60" x2="749.30" y2="470" stroke="#f3f4f6" stroke-width="1"/>
<text x="749.30" y="492" font-size="12" text-anchor="middle" fill="#555555">136</text>
<line x1="754.19" y1="60" x2="754.19" y2="470" stroke="#f3f4f6" stroke-width="1"/>
<text x="754.19" y="492" font-size="12" text-anchor="middle" fill="#555555">137</text>
<line x1="759.07" y1="60" x2="759.07" y2="470" stroke="#f3f4f6" stroke-width="1"/>
<text x="759.07" y="492" font-size="12" text-anchor="middle" fill="#555555">138</text>
<line x1="763.95" y1="60" x2="763.95" y2="470" stroke="#f3f4f6" stroke-width="1"/>
<text x="763.95" y="492" font-size="12" text-anchor="middle" fill="#555555">139</text>
<line x1="768.84" y1="60" x2="768.84" y2="470" stroke="#f3f4f6" stroke-width="1"/>
<text x="768.84" y="492" font-size="12" text-anchor="middle" fill="#555555">140</text>
<line x1="773.72" y1="60" x2="773.72" y2="470" stroke="#f3f4f6" stroke-width="1"/>
<text x="773.72" y="492" font-size="12" text-anchor="middle" fill="#555555">141</text>
<line x1="778.60" y1="60" x2="778.60" y2="470" stroke="#f3f4f6" stroke-width="1"/>
<text x="778.60" y="492" font-size="12" text-anchor="middle" fill="#555555">142</text>
<line x1="783.49" y1="60" x2="783.49" y2="470" stroke="#f3f4f6" stroke-width="1"/>
<text x="783.49" y="492" font-size="12" text-anchor="middle" fill="#555555">143</text>
<line x1="788.37" y1="60" x2="788.37" y2="470" stroke="#f3f4f6" stroke-width="1"/>
<text x="788.37" y="492" font-size="12" text-anchor="middle" fill="#555555">144</text>
<line x1="793.26" y1="60" x2="793.26" y2="470" stroke="#f3f4f6" stroke-width="1"/>
<text x="793.26" y="492" font-size="12" text-anchor="middle" fill="#555555">145</text>
<line x1="798.14" y1="60" x2="798.14" y2="470" stroke="#f3f4f6" stroke-width="1"/>
<text x="798.14" y="492" font-size="12" text-anchor="middle" fill="#555555">146</text>
<line x1="803.02" y1="60" x2="803.02" y2="470" stroke="#f3f4f6" stroke-width="1"/>
<text x="803.02" y="492" font-size="12" text-anchor="middle" fill="#555555">147</text>
<line x1="807.91" y1="60" x2="807.91" y2="470" stroke="#f3f4f6" stroke-width="1"/>
<text x="807.91" y="492" font-size="12" text-anchor="middle" fill="#555555">148</text>
<line x1="812.79" y1="60" x2="812.79" y2="470" stroke="#f3f4f6" stroke-width="1"/>
<text x="812.79" y="492" font-size="12" text-anchor="middle" fill="#555555">149</text>
<line x1="817.67" y1="60" x2="817.67" y2="470" stroke="#f3f4f6" stroke-width="1"/>
<text x="817.67" y="492" font-size="12" text-anchor="middle" fill="#555555">150</text>
<line x1="822.56" y1="60" x2="822.56" y2="470" stroke="#f3f4f6" stroke-width="1"/>
<text x="822.56" y="492" font-size="12" text-anchor="middle" fill="#555555">151</text>
<line x1="827.44" y1="60" x2="827.44" y2="470" stroke="#f3f4f6" stroke-width="1"/>
<text x="827.44" y="492" font-size="12" text-anchor="middle" fill="#555555">152</text>
<line x1="832.33" y1="60" x2="832.33" y2="470" stroke="#f3f4f6" stroke-width="1"/>
<text x="832.33" y="492" font-size="12" text-anchor="middle" fill="#555555">153</text>
<line x1="837.21" y1="60" x2="837.21" y2="470" stroke="#f3f4f6" stroke-width="1"/>
<text x="837.21" y="492" font-size="12" text-anchor="middle" fill="#555555">154</text>
<line x1="842.09" y1="60" x2="842.09" y2="470" stroke="#f3f4f6" stroke-width="1"/>
<text x="842.09" y="492" font-size="12" text-anchor="middle" fill="#555555">155</text>
<line x1="846.98" y1="60" x2="846.98" y2="470" stroke="#f3f4f6" stroke-width="1"/>
<text x="846.98" y="492" font-size="12" text-anchor="middle" fill="#555555">156</text>
<line x1="851.86" y1="60" x2="851.86" y2="470" stroke="#f3f4f6" stroke-width="1"/>
<text x="851.86" y="492" font-size="12" text-anchor="middle" fill="#555555">157</text>
<line x1="856.74" y1="60" x2="856.74" y2="470" stroke="#f3f4f6" stroke-width="1"/>
<text x="856.74" y="492" font-size="12" text-anchor="middle" fill="#555555">158</text>
<line x1="861.63" y1="60" x2="861.63" y2="470" stroke="#f3f4f6" stroke-width="1"/>
<text x="861.63" y="492" font-size="12" text-anchor="middle" fill="#555555">159</text>
<line x1="866.51" y1="60" x2="866.51" y2="470" stroke="#f3f4f6" stroke-width="1"/>
<text x="866.51" y="492" font-size="12" text-anchor="middle" fill="#555555">160</text>
<line x1="871.40" y1="60" x2="871.40" y2="470" stroke="#f3f4f6" stroke-width="1"/>
<text x="871.40" y="492" font-size="12" text-anchor="middle" fill="#555555">161</text>
<line x1="876.28" y1="60" x2="876.28" y2="470" stroke="#f3f4f6" stroke-width="1"/>
<text x="876.28" y="492" font-size="12" text-anchor="middle" fill="#555555">162</text>
<line x1="881.16" y1="60" x2="881.16" y2="470" stroke="#f3f4f6" stroke-width="1"/>
<text x="881.16" y="492" font-size="12" text-anchor="middle" fill="#555555">163</text>
<line x1="886.05" y1="60" x2="886.05" y2="470" stroke="#f3f4f6" stroke-width="1"/>
<text x="886.05" y="492" font-size="12" text-anchor="middle" fill="#555555">164</text>
<line x1="890.93" y1="60" x2="890.93" y2="470" stroke="#f3f4f6" stroke-width="1"/>
<text x="890.93" y="492" font-size="12" text-anchor="middle" fill="#555555">165</text>
<line x1="895.81" y1="60" x2="895.81" y2="470" stroke="#f3f4f6" stroke-width="1"/>
<text x="895.81" y="492" font-size="12" text-anchor="middle" fill="#555555">166</text>
<line x1="900.70" y1="60" x2="900.70" y2="470" stroke="#f3f4f6" stroke-width="1"/>
<text x="900.70" y="492" font-size="12" text-anchor="middle" fill="#555555">167</text>
<line x1="905.58" y1="60" x2="905.58" y2="470" stroke="#f3f4f6" stroke-width="1"/>
<text x="905.58" y="492" font-size="12" text-anchor="middle" fill="#555555">168</text>
<line x1="910.47" y1="60" x2="910.47" y2="470" stroke="#f3f4f6" stroke-width="1"/>
<text x="910.47" y="492" font-size="12" text-anchor="middle" fill="#555555">169</text>
<line x1="915.35" y1="60" x2="915.35" y2="470" stroke="#f3f4f6" stroke-width="1"/>
<text x="915.35" y="492" font-size="12" text-anchor="middle" fill="#555555">170</text>
<line x1="920.23" y1="60" x2="920.23" y2="470" stroke="#f3f4f6" stroke-width="1"/>
<text x="920.23" y="492" font-size="12" text-anchor="middle" fill="#555555">171</text>
<line x1="925.12" y1="60" x2="925.12" y2="470" stroke="#f3f4f6" stroke-width="1"/>
<text x="925.12" y="492" font-size="12" text-anchor="middle" fill="#555555">172</text>
<line x1="930.00" y1="60" x2="930.00" y2="470" stroke="#f3f4f6" stroke-width="1"/>
<text x="930.00" y="492" font-size="12" text-anchor="middle" fill="#555555">173</text>
<polyline fill="none" stroke="#dc2626" stroke-width="3" points="90.00,265.00 94.88,265.00 99.77,265.00 104.65,265.00 109.53,265.00 114.42,265.00 119.30,265.00 124.19,265.00 129.07,265.00 133.95,265.00 138.84,265.00 143.72,265.00 148.60,265.00 153.49,265.00 158.37,265.00 163.26,265.00 168.14,265.00 173.02,265.00 177.91,265.00 182.79,265.00 187.67,265.00 192.56,265.00 197.44,265.00 202.33,265.00 207.21,265.00 212.09,265.00 216.98,265.00 221.86,265.00 226.74,265.00 231.63,265.00 236.51,265.00 241.40,265.00 246.28,265.00 251.16,265.00 256.05,265.00 260.93,265.00 265.81,265.00 270.70,265.00 275.58,265.00 280.47,265.00 285.35,265.00 290.23,265.00 295.12,265.00 300.00,265.00 304.88,265.00 309.77,265.00 314.65,265.00 319.53,265.00 324.42,265.00 329.30,265.00 334.19,265.00 339.07,265.00 343.95,265.00 348.84,265.00 353.72,265.00 358.60,265.00 363.49,265.00 368.37,265.00 373.26,265.00 378.14,265.00 383.02,265.00 387.91,265.00 392.79,265.00 397.67,265.00 402.56,265.00 407.44,265.00 412.33,265.00 417.21,265.00 422.09,265.00 426.98,265.00 431.86,265.00 436.74,265.00 441.63,265.00 446.51,265.00 451.40,265.00 456.28,265.00 461.16,265.00 466.05,265.00 470.93,265.00 475.81,265.00 480.70,265.00 485.58,265.00 490.47,265.00 495.35,265.00 500.23,265.00 505.12,265.00 510.00,265.00 514.88,265.00 519.77,265.00 524.65,265.00 529.53,265.00 534.42,265.00 539.30,265.00 544.19,265.00 549.07,265.00 553.95,265.00 558.84,265.00 563.72,265.00 568.60,265.00 573.49,265.00 578.37,265.00 583.26,265.00 588.14,265.00 593.02,265.00 597.91,265.00 602.79,265.00 607.67,265.00 612.56,265.00 617.44,265.00 622.33,265.00 627.21,265.00 632.09,265.00 636.98,265.00 641.86,265.00 646.74,265.00 651.63,265.00 656.51,265.00 661.40,265.00 666.28,265.00 671.16,265.00 676.05,265.00 680.93,265.00 685.81,265.00 690.70,265.00 695.58,265.00 700.47,265.00 705.35,265.00 710.23,265.00 715.12,265.00 720.00,265.00 724.88,265.00 729.77,265.00 734.65,265.00 739.53,265.00 744.42,265.00 749.30,265.00 754.19,265.00 759.07,265.00 763.95,265.00 768.84,265.00 773.72,265.00 778.60,265.00 783.49,265.00 788.37,265.00 793.26,265.00 798.14,265.00 803.02,265.00 807.91,265.00 812.79,265.00 817.67,265.00 822.56,265.00 827.44,265.00 832.33,265.00 837.21,265.00 842.09,265.00 846.98,265.00 851.86,265.00 856.74,265.00 861.63,265.00 866.51,265.00 871.40,265.00 876.28,265.00 881.16,265.00 886.05,265.00 890.93,265.00 895.81,265.00 900.70,265.00 905.58,265.00 910.47,265.00 915.35,265.00 920.23,265.00 925.12,265.00 930.00,265.00"/>
<circle cx="90.00" cy="265.00" r="4.5" fill="#dc2626" fill-opacity="0.9"/>
<circle cx="94.88" cy="265.00" r="4.5" fill="#dc2626" fill-opacity="0.9"/>
<circle cx="99.77" cy="265.00" r="4.5" fill="#dc2626" fill-opacity="0.9"/>
<circle cx="104.65" cy="265.00" r="4.5" fill="#dc2626" fill-opacity="0.9"/>
<circle cx="109.53" cy="265.00" r="4.5" fill="#dc2626" fill-opacity="0.9"/>
<circle cx="114.42" cy="265.00" r="4.5" fill="#dc2626" fill-opacity="0.9"/>
<circle cx="119.30" cy="265.00" r="4.5" fill="#dc2626" fill-opacity="0.9"/>
<circle cx="124.19" cy="265.00" r="4.5" fill="#dc2626" fill-opacity="0.9"/>
<circle cx="129.07" cy="265.00" r="4.5" fill="#dc2626" fill-opacity="0.9"/>
<circle cx="133.95" cy="265.00" r="4.5" fill="#dc2626" fill-opacity="0.9"/>
<circle cx="138.84" cy="265.00" r="4.5" fill="#dc2626" fill-opacity="0.9"/>
<circle cx="143.72" cy="265.00" r="4.5" fill="#dc2626" fill-opacity="0.9"/>
<circle cx="148.60" cy="265.00" r="4.5" fill="#dc2626" fill-opacity="0.9"/>
<circle cx="153.49" cy="265.00" r="4.5" fill="#dc2626" fill-opacity="0.9"/>
<circle cx="158.37" cy="265.00" r="4.5" fill="#dc2626" fill-opacity="0.9"/>
<circle cx="163.26" cy="265.00" r="4.5" fill="#dc2626" fill-opacity="0.9"/>
<circle cx="168.14" cy="265.00" r="4.5" fill="#dc2626" fill-opacity="0.9"/>
<circle cx="173.02" cy="265.00" r="4.5" fill="#dc2626" fill-opacity="0.9"/>
<circle cx="177.91" cy="265.00" r="4.5" fill="#dc2626" fill-opacity="0.9"/>
<circle cx="182.79" cy="265.00" r="4.5" fill="#dc2626" fill-opacity="0.9"/>
<circle cx="187.67" cy="265.00" r="4.5" fill="#dc2626" fill-opacity="0.9"/>
<circle cx="192.56" cy="265.00" r="4.5" fill="#dc2626" fill-opacity="0.9"/>
<circle cx="197.44" cy="265.00" r="4.5" fill="#dc2626" fill-opacity="0.9"/>
<circle cx="202.33" cy="265.00" r="4.5" fill="#dc2626" fill-opacity="0.9"/>
<circle cx="207.21" cy="265.00" r="4.5" fill="#dc2626" fill-opacity="0.9"/>
<circle cx="212.09" cy="265.00" r="4.5" fill="#dc2626" fill-opacity="0.9"/>
<circle cx="216.98" cy="265.00" r="4.5" fill="#dc2626" fill-opacity="0.9"/>
<circle cx="221.86" cy="265.00" r="4.5" fill="#dc2626" fill-opacity="0.9"/>
<circle cx="226.74" cy="265.00" r="4.5" fill="#dc2626" fill-opacity="0.9"/>
<circle cx="231.63" cy="265.00" r="4.5" fill="#dc2626" fill-opacity="0.9"/>
<circle cx="236.51" cy="265.00" r="4.5" fill="#dc2626" fill-opacity="0.9"/>
<circle cx="241.40" cy="265.00" r="4.5" fill="#dc2626" fill-opacity="0.9"/>
<circle cx="246.28" cy="265.00" r="4.5" fill="#dc2626" fill-opacity="0.9"/>
<circle cx="251.16" cy="265.00" r="4.5" fill="#dc2626" fill-opacity="0.9"/>
<circle cx="256.05" cy="265.00" r="4.5" fill="#dc2626" fill-opacity="0.9"/>
<circle cx="260.93" cy="265.00" r="4.5" fill="#dc2626" fill-opacity="0.9"/>
<circle cx="265.81" cy="265.00" r="4.5" fill="#dc2626" fill-opacity="0.9"/>
<circle cx="270.70" cy="265.00" r="4.5" fill="#dc2626" fill-opacity="0.9"/>
<circle cx="275.58" cy="265.00" r="4.5" fill="#dc2626" fill-opacity="0.9"/>
<circle cx="280.47" cy="265.00" r="4.5" fill="#dc2626" fill-opacity="0.9"/>
<circle cx="285.35" cy="265.00" r="4.5" fill="#dc2626" fill-opacity="0.9"/>
<circle cx="290.23" cy="265.00" r="4.5" fill="#dc2626" fill-opacity="0.9"/>
<circle cx="295.12" cy="265.00" r="4.5" fill="#dc2626" fill-opacity="0.9"/>
<circle cx="300.00" cy="265.00" r="4.5" fill="#dc2626" fill-opacity="0.9"/>
<circle cx="304.88" cy="265.00" r="4.5" fill="#dc2626" fill-opacity="0.9"/>
<circle cx="309.77" cy="265.00" r="4.5" fill="#dc2626" fill-opacity="0.9"/>
<circle cx="314.65" cy="265.00" r="4.5" fill="#dc2626" fill-opacity="0.9"/>
<circle cx="319.53" cy="265.00" r="4.5" fill="#dc2626" fill-opacity="0.9"/>
<circle cx="324.42" cy="265.00" r="4.5" fill="#dc2626" fill-opacity="0.9"/>
<circle cx="329.30" cy="265.00" r="4.5" fill="#dc2626" fill-opacity="0.9"/>
<circle cx="334.19" cy="265.00" r="4.5" fill="#dc2626" fill-opacity="0.9"/>
<circle cx="339.07" cy="265.00" r="4.5" fill="#dc2626" fill-opacity="0.9"/>
<circle cx="343.95" cy="265.00" r="4.5" fill="#dc2626" fill-opacity="0.9"/>
<circle cx="348.84" cy="265.00" r="4.5" fill="#dc2626" fill-opacity="0.9"/>
<circle cx="353.72" cy="265.00" r="4.5" fill="#dc2626" fill-opacity="0.9"/>
<circle cx="358.60" cy="265.00" r="4.5" fill="#dc2626" fill-opacity="0.9"/>
<circle cx="363.49" cy="265.00" r="4.5" fill="#dc2626" fill-opacity="0.9"/>
<circle cx="368.37" cy="265.00" r="4.5" fill="#dc2626" fill-opacity="0.9"/>
<circle cx="373.26" cy="265.00" r="4.5" fill="#dc2626" fill-opacity="0.9"/>
<circle cx="378.14" cy="265.00" r="4.5" fill="#dc2626" fill-opacity="0.9"/>
<circle cx="383.02" cy="265.00" r="4.5" fill="#dc2626" fill-opacity="0.9"/>
<circle cx="387.91" cy="265.00" r="4.5" fill="#dc2626" fill-opacity="0.9"/>
<circle cx="392.79" cy="265.00" r="4.5" fill="#dc2626" fill-opacity="0.9"/>
<circle cx="397.67" cy="265.00" r="4.5" fill="#dc2626" fill-opacity="0.9"/>
<circle cx="402.56" cy="265.00" r="4.5" fill="#dc2626" fill-opacity="0.9"/>
<circle cx="407.44" cy="265.00" r="4.5" fill="#dc2626" fill-opacity="0.9"/>
<circle cx="412.33" cy="265.00" r="4.5" fill="#dc2626" fill-opacity="0.9"/>
<circle cx="417.21" cy="265.00" r="4.5" fill="#dc2626" fill-opacity="0.9"/>
<circle cx="422.09" cy="265.00" r="4.5" fill="#dc2626" fill-opacity="0.9"/>
<circle cx="426.98" cy="265.00" r="4.5" fill="#dc2626" fill-opacity="0.9"/>
<circle cx="431.86" cy="265.00" r="4.5" fill="#dc2626" fill-opacity="0.9"/>
<circle cx="436.74" cy="265.00" r="4.5" fill="#dc2626" fill-opacity="0.9"/>
<circle cx="441.63" cy="265.00" r="4.5" fill="#dc2626" fill-opacity="0.9"/>
<circle cx="446.51" cy="265.00" r="4.5" fill="#dc2626" fill-opacity="0.9"/>
<circle cx="451.40" cy="265.00" r="4.5" fill="#dc2626" fill-opacity="0.9"/>
<circle cx="456.28" cy="265.00" r="4.5" fill="#dc2626" fill-opacity="0.9"/>
<circle cx="461.16" cy="265.00" r="4.5" fill="#dc2626" fill-opacity="0.9"/>
<circle cx="466.05" cy="265.00" r="4.5" fill="#dc2626" fill-opacity="0.9"/>
<circle cx="470.93" cy="265.00" r="4.5" fill="#dc2626" fill-opacity="0.9"/>
<circle cx="475.81" cy="265.00" r="4.5" fill="#dc2626" fill-opacity="0.9"/>
<circle cx="480.70" cy="265.00" r="4.5" fill="#dc2626" fill-opacity="0.9"/>
<circle cx="485.58" cy="265.00" r="4.5" fill="#dc2626" fill-opacity="0.9"/>
<circle cx="490.47" cy="265.00" r="4.5" fill="#dc2626" fill-opacity="0.9"/>
<circle cx="495.35" cy="265.00" r="4.5" fill="#dc2626" fill-opacity="0.9"/>
<circle cx="500.23" cy="265.00" r="4.5" fill="#dc2626" fill-opacity="0.9"/>
<circle cx="505.12" cy="265.00" r="4.5" fill="#dc2626" fill-opacity="0.9"/>
<circle cx="510.00" cy="265.00" r="4.5" fill="#dc2626" fill-opacity="0.9"/>
<circle cx="514.88" cy="265.00" r="4.5" fill="#dc2626" fill-opacity="0.9"/>
<circle cx="519.77" cy="265.00" r="4.5" fill="#dc2626" fill-opacity="0.9"/>
<circle cx="524.65" cy="265.00" r="4.5" fill="#dc2626" fill-opacity="0.9"/>
<circle cx="529.53" cy="265.00" r="4.5" fill="#dc2626" fill-opacity="0.9"/>
<circle cx="534.42" cy="265.00" r="4.5" fill="#dc2626" fill-opacity="0.9"/>
<circle cx="539.30" cy="265.00" r="4.5" fill="#dc2626" fill-opacity="0.9"/>
<circle cx="544.19" cy="265.00" r="4.5" fill="#dc2626" fill-opacity="0.9"/>
<circle cx="549.07" cy="265.00" r="4.5" fill="#dc2626" fill-opacity="0.9"/>
<circle cx="553.95" cy="265.00" r="4.5" fill="#dc2626" fill-opacity="0.9"/>
<circle cx="558.84" cy="265.00" r="4.5" fill="#dc2626" fill-opacity="0.9"/>
<circle cx="563.72" cy="265.00" r="4.5" fill="#dc2626" fill-opacity="0.9"/>
<circle cx="568.60" cy="265.00" r="4.5" fill="#dc2626" fill-opacity="0.9"/>
<circle cx="573.49" cy="265.00" r="4.5" fill="#dc2626" fill-opacity="0.9"/>
<circle cx="578.37" cy="265.00" r="4.5" fill="#dc2626" fill-opacity="0.9"/>
<circle cx="583.26" cy="265.00" r="4.5" fill="#dc2626" fill-opacity="0.9"/>
<circle cx="588.14" cy="265.00" r="4.5" fill="#dc2626" fill-opacity="0.9"/>
<circle cx="593.02" cy="265.00" r="4.5" fill="#dc2626" fill-opacity="0.9"/>
<circle cx="597.91" cy="265.00" r="4.5" fill="#dc2626" fill-opacity="0.9"/>
<circle cx="602.79" cy="265.00" r="4.5" fill="#dc2626" fill-opacity="0.9"/>
<circle cx="607.67" cy="265.00" r="4.5" fill="#dc2626" fill-opacity="0.9"/>
<circle cx="612.56" cy="265.00" r="4.5" fill="#dc2626" fill-opacity="0.9"/>
<circle cx="617.44" cy="265.00" r="4.5" fill="#dc2626" fill-opacity="0.9"/>
<circle cx="622.33" cy="265.00" r="4.5" fill="#dc2626" fill-opacity="0.9"/>
<circle cx="627.21" cy="265.00" r="4.5" fill="#dc2626" fill-opacity="0.9"/>
<circle cx="632.09" cy="265.00" r="4.5" fill="#dc2626" fill-opacity="0.9"/>
<circle cx="636.98" cy="265.00" r="4.5" fill="#dc2626" fill-opacity="0.9"/>
<circle cx="641.86" cy="265.00" r="4.5" fill="#dc2626" fill-opacity="0.9"/>
<circle cx="646.74" cy="265.00" r="4.5" fill="#dc2626" fill-opacity="0.9"/>
<circle cx="651.63" cy="265.00" r="4.5" fill="#dc2626" fill-opacity="0.9"/>
<circle cx="656.51" cy="265.00" r="4.5" fill="#dc2626" fill-opacity="0.9"/>
<circle cx="661.40" cy="265.00" r="4.5" fill="#dc2626" fill-opacity="0.9"/>
<circle cx="666.28" cy="265.00" r="4.5" fill="#dc2626" fill-opacity="0.9"/>
<circle cx="671.16" cy="265.00" r="4.5" fill="#dc2626" fill-opacity="0.9"/>
<circle cx="676.05" cy="265.00" r="4.5" fill="#dc2626" fill-opacity="0.9"/>
<circle cx="680.93" cy="265.00" r="4.5" fill="#dc2626" fill-opacity="0.9"/>
<circle cx="685.81" cy="265.00" r="4.5" fill="#dc2626" fill-opacity="0.9"/>
<circle cx="690.70" cy="265.00" r="4.5" fill="#dc2626" fill-opacity="0.9"/>
<circle cx="695.58" cy="265.00" r="4.5" fill="#dc2626" fill-opacity="0.9"/>
<circle cx="700.47" cy="265.00" r="4.5" fill="#dc2626" fill-opacity="0.9"/>
<circle cx="705.35" cy="265.00" r="4.5" fill="#dc2626" fill-opacity="0.9"/>
<circle cx="710.23" cy="265.00" r="4.5" fill="#dc2626" fill-opacity="0.9"/>
<circle cx="715.12" cy="265.00" r="4.5" fill="#dc2626" fill-opacity="0.9"/>
<circle cx="720.00" cy="265.00" r="4.5" fill="#dc2626" fill-opacity="0.9"/>
<circle cx="724.88" cy="265.00" r="4.5" fill="#dc2626" fill-opacity="0.9"/>
<circle cx="729.77" cy="265.00" r="4.5" fill="#dc2626" fill-opacity="0.9"/>
<circle cx="734.65" cy="265.00" r="4.5" fill="#dc2626" fill-opacity="0.9"/>
<circle cx="739.53" cy="265.00" r="4.5" fill="#dc2626" fill-opacity="0.9"/>
<circle cx="744.42" cy="265.00" r="4.5" fill="#dc2626" fill-opacity="0.9"/>
<circle cx="749.30" cy="265.00" r="4.5" fill="#dc2626" fill-opacity="0.9"/>
<circle cx="754.19" cy="265.00" r="4.5" fill="#dc2626" fill-opacity="0.9"/>
<circle cx="759.07" cy="265.00" r="4.5" fill="#dc2626" fill-opacity="0.9"/>
<circle cx="763.95" cy="265.00" r="4.5" fill="#dc2626" fill-opacity="0.9"/>
<circle cx="768.84" cy="265.00" r="4.5" fill="#dc2626" fill-opacity="0.9"/>
<circle cx="773.72" cy="265.00" r="4.5" fill="#dc2626" fill-opacity="0.9"/>
<circle cx="778.60" cy="265.00" r="4.5" fill="#dc2626" fill-opacity="0.9"/>
<circle cx="783.49" cy="265.00" r="4.5" fill="#dc2626" fill-opacity="0.9"/>
<circle cx="788.37" cy="265.00" r="4.5" fill="#dc2626" fill-opacity="0.9"/>
<circle cx="793.26" cy="265.00" r="4.5" fill="#dc2626" fill-opacity="0.9"/>
<circle cx="798.14" cy="265.00" r="4.5" fill="#dc2626" fill-opacity="0.9"/>
<circle cx="803.02" cy="265.00" r="4.5" fill="#dc2626" fill-opacity="0.9"/>
<circle cx="807.91" cy="265.00" r="4.5" fill="#dc2626" fill-opacity="0.9"/>
<circle cx="812.79" cy="265.00" r="4.5" fill="#dc2626" fill-opacity="0.9"/>
<circle cx="817.67" cy="265.00" r="4.5" fill="#dc2626" fill-opacity="0.9"/>
<circle cx="822.56" cy="265.00" r="4.5" fill="#dc2626" fill-opacity="0.9"/>
<circle cx="827.44" cy="265.00" r="4.5" fill="#dc2626" fill-opacity="0.9"/>
<circle cx="832.33" cy="265.00" r="4.5" fill="#dc2626" fill-opacity="0.9"/>
<circle cx="837.21" cy="265.00" r="4.5" fill="#dc2626" fill-opacity="0.9"/>
<circle cx="842.09" cy="265.00" r="4.5" fill="#dc2626" fill-opacity="0.9"/>
<circle cx="846.98" cy="265.00" r="4.5" fill="#dc2626" fill-opacity="0.9"/>
<circle cx="851.86" cy="265.00" r="4.5" fill="#dc2626" fill-opacity="0.9"/>
<circle cx="856.74" cy="265.00" r="4.5" fill="#dc2626" fill-opacity="0.9"/>
<circle cx="861.63" cy="265.00" r="4.5" fill="#dc2626" fill-opacity="0.9"/>
<circle cx="866.51" cy="265.00" r="4.5" fill="#dc2626" fill-opacity="0.9"/>
<circle cx="871.40" cy="265.00" r="4.5" fill="#dc2626" fill-opacity="0.9"/>
<circle cx="876.28" cy="265.00" r="4.5" fill="#dc2626" fill-opacity="0.9"/>
<circle cx="881.16" cy="265.00" r="4.5" fill="#dc2626" fill-opacity="0.9"/>
<circle cx="886.05" cy="265.00" r="4.5" fill="#dc2626" fill-opacity="0.9"/>
<circle cx="890.93" cy="265.00" r="4.5" fill="#dc2626" fill-opacity="0.9"/>
<circle cx="895.81" cy="265.00" r="4.5" fill="#dc2626" fill-opacity="0.9"/>
<circle cx="900.70" cy="265.00" r="4.5" fill="#dc2626" fill-opacity="0.9"/>
<circle cx="905.58" cy="265.00" r="4.5" fill="#dc2626" fill-opacity="0.9"/>
<circle cx="910.47" cy="265.00" r="4.5" fill="#dc2626" fill-opacity="0.9"/>
<circle cx="915.35" cy="265.00" r="4.5" fill="#dc2626" fill-opacity="0.9"/>
<circle cx="920.23" cy="265.00" r="4.5" fill="#dc2626" fill-opacity="0.9"/>
<circle cx="925.12" cy="265.00" r="4.5" fill="#dc2626" fill-opacity="0.9"/>
<circle cx="930.00" cy="265.00" r="4.5" fill="#dc2626" fill-opacity="0.9"/>
<rect x="90" y="32" width="18" height="6" fill="#dc2626"/>
<text x="114" y="38" font-size="13" fill="#333333">train</text>
</svg>