<svg xmlns="http://www.w3.org/2000/svg" width="960" height="540">
<rect width="100%" height="100%" fill="#ffffff"/>
<text x="480.0" y="30" font-size="22" text-anchor="middle" fill="#111111">Contrastive Pretrain Loss</text>
<text x="20" y="270.0" font-size="16" transform="rotate(-90 20,270.0)" text-anchor="middle" fill="#333333">Loss</text>
<text x="480.0" y="520" font-size="16" text-anchor="middle" fill="#333333">Epoch</text>
<line x1="90" y1="60" x2="90" y2="470" stroke="#333333" stroke-width="2"/>
<line x1="90" y1="470" x2="930" y2="470" stroke="#333333" stroke-width="2"/>
<line x1="90" y1="470.00" x2="930" y2="470.00" stroke="#e5e7eb" stroke-width="1"/>
<text x="80" y="475.00" font-size="12" text-anchor="end" fill="#555555">-0.4252</text>
<line x1="90" y1="367.50" x2="930" y2="367.50" stroke="#e5e7eb" stroke-width="1"/>
<text x="80" y="372.50" font-size="12" text-anchor="end" fill="#555555">0.8504</text>
<line x1="90" y1="265.00" x2="930" y2="265.00" stroke="#e5e7eb" stroke-width="1"/>
<text x="80" y="270.00" font-size="12" text-anchor="end" fill="#555555">2.1261</text>
<line x1="90" y1="162.50" x2="930" y2="162.50" stroke="#e5e7eb" stroke-width="1"/>
<text x="80" y="167.50" font-size="12" text-anchor="end" fill="#555555">3.4018</text>
<line x1="90" y1="60.00" x2="930" y2="60.00" stroke="#e5e7eb" stroke-width="1"/>
<text x="80" y="65.00" font-size="12" text-anchor="end" fill="#555555">4.6774</text>
<line x1="90.00" y1="60" x2="90.00" y2="470" stroke="#f3f4f6" stroke-width="1"/>
<text x="90.00" y="492" font-size="12" text-anchor="middle" fill="#555555">1</text>
<line x1="94.88" y1="60" x2="94.88" y2="470" stroke="#f3f4f6" stroke-width="1"/>
<text x="94.88" y="492" font-size="12" text-anchor="middle" fill="#555555">2</text>
<line x1="99.77" y1="60" x2="99.77" y2="470" stroke="#f3f4f6" stroke-width="1"/>
<text x="99.77" y="492" font-size="12" text-anchor="middle" fill="#555555">3</text>
<line x1="104.65" y1="60" x2="104.65" y2="470" stroke="#f3f4f6" stroke-width="1"/>
<text x="104.65" y="492" font-size="12" text-anchor="middle" fill="#555555">4</text>
<line x1="109.53" y1="60" x2="109.53" y2="470" stroke="#f3f4f6" stroke-width="1"/>
<text x="109.53" y="492" font-size="12" text-anchor="middle" fill="#555555">5</text>
<line x1="114.42" y1="60" x2="114.42" y2="470" stroke="#f3f4f6" stroke-width="1"/>
<text x="114.42" y="492" font-size="12" text-anchor="middle" fill="#555555">6</text>
<line x1="119.30" y1="60" x2="119.30" y2="470" stroke="#f3f4f6" stroke-width="1"/>
<text x="119.30" y="492" font-size="12" text-anchor="middle" fill="#555555">7</text>
<line x1="124.19" y1="60" x2="124.19" y2="470" stroke="#f3f4f6" stroke-width="1"/>
<text x="124.19" y="492" font-size="12" text-anchor="middle" fill="#555555">8</text>
<line x1="129.07" y1="60" x2="129.07" y2="470" stroke="#f3f4f6" stroke-width="1"/>
<text x="129.07" y="492" font-size="12" text-anchor="middle" fill="#555555">9</text>
<line x1="133.95" y1="60" x2="133.95" y2="470" stroke="#f3f4f6" stroke-width="1"/>
<text x="133.95" y="492" font-size="12" text-anchor="middle" fill="#555555">10</text>
<line x1="138.84" y1="60" x2="138.84" y2="470" stroke="#f3f4f6" stroke-width="1"/>
<text x="138.84" y="492" font-size="12" text-anchor="middle" fill="#555555">11</text>
<line x1="143.72" y1="60" x2="143.72" y2="470" stroke="#f3f4f6" stroke-width="1"/>
<text x="143.72" y="492" font-size="12" text-anchor="middle" fill="#555555">12</text>
<line x1="148.60" y1="60" x2="148.60" y2="470" stroke="#f3f4f6" stroke-width="1"/>
<text x="148.60" y="492" font-size="12" text-anchor="middle" fill="#555555">13</text>
<line x1="153.49" y1="60" x2="153.49" y2="470" stroke="#f3f4f6" stroke-width="1"/>
<text x="153.49" y="492" font-size="12" text-anchor="middle" fill="#555555">14</text>
<line x1="158.37" y1="60" x2="158.37" y2="470" stroke="#f3f4f6" stroke-width="1"/>
<text x="158.37" y="492" font-size="12" text-anchor="middle" fill="#555555">15</text>
<line x1="163.26" y1="60" x2="163.26" y2="470" stroke="#f3f4f6" stroke-width="1"/>
<text x="163.26" y="492" font-size="12" text-anchor="middle" fill="#555555">16</text>
<line x1="168.14" y1="60" x2="168.14" y2="470" stroke="#f3f4f6" stroke-width="1"/>
<text x="168.14" y="492" font-size="12" text-anchor="middle" fill="#555555">17</text>
<line x1="173.02" y1="60" x2="173.02" y2="470" stroke="#f3f4f6" stroke-width="1"/>
<text x="173.02" y="492" font-size="12" text-anchor="middle" fill="#555555">18</text>
<line x1="177.91" y1="60" x2="177.91" y2="470" stroke="#f3f4f6" stroke-width="1"/>
<text x="177.91" y="492" font-size="12" text-anchor="middle" fill="#555555">19</text>
<line x1="182.79" y1="60" x2="182.79" y2="470" stroke="#f3f4f6" stroke-width="1"/>
<text x="182.79" y="492" font-size="12" text-anchor="middle" fill="#555555">20</text>
<line x1="187.67" y1="60" x2="187.67" y2="470" stroke="#f3f4f6" stroke-width="1"/>
<text x="187.67" y="492" font-size="12" text-anchor="middle" fill="#555555">21</text>
<line x1="192.56" y1="60" x2="192.56" y2="470" stroke="#f3f4f6" stroke-width="1"/>
<text x="192.56" y="492" font-size="12" text-anchor="middle" fill="#555555">22</text>
<line x1="197.44" y1="60" x2="197.44" y2="470" stroke="#f3f4f6" stroke-width="1"/>
<text x="197.44" y="492" font-size="12" text-anchor="middle" fill="#555555">23</text>
<line x1="202.33" y1="60" x2="202.33" y2="470" stroke="#f3f4f6" stroke-width="1"/>
<text x="202.33" y="492" font-size="12" text-anchor="middle" fill="#555555">24</text>
<line x1="207.21" y1="60" x2="207.21" y2="470" stroke="#f3f4f6" stroke-width="1"/>
<text x="207.21" y="492" font-size="12" text-anchor="middle" fill="#555555">25</text>
<line x1="212.09" y1="60" x2="212.09" y2="470" stroke="#f3f4f6" stroke-width="1"/>
<text x="212.09" y="492" font-size="12" text-anchor="middle" fill="#555555">26</text>
<line x1="216.98" y1="60" x2="216.98" y2="470" stroke="#f3f4f6" stroke-width="1"/>
<text x="216.98" y="492" font-size="12" text-anchor="middle" fill="#555555">27</text>
<line x1="221.86" y1="60" x2="221.86" y2="470" stroke="#f3f4f6" stroke-width="1"/>
<text x="221.86" y="492" font-size="12" text-anchor="middle" fill="#555555">28</text>
<line x1="226.74" y1="60" x2="226.74" y2="470" stroke="#f3f4f6" stroke-width="1"/>
<text x="226.74" y="492" font-size="12" text-anchor="middle" fill="#555555">29</text>
<line x1="231.63" y1="60" x2="231.63" y2="470" stroke="#f3f4f6" stroke-width="1"/>
<text x="231.63" y="492" font-size="12" text-anchor="middle" fill="#555555">30</text>
<line x1="236.51" y1="60" x2="236.51" y2="470" stroke="#f3f4f6" stroke-width="1"/>
<text x="236.51" y="492" font-size="12" text-anchor="middle" fill="#555555">31</text>
<line x1="241.40" y1="60" x2="241.40" y2="470" stroke="#f3f4f6" stroke-width="1"/>
<text x="241.40" y="492" font-size="12" text-anchor="middle" fill="#555555">32</text>
<line x1="246.28" y1="60" x2="246.28" y2="470" stroke="#f3f4f6" stroke-width="1"/>
<text x="246.28" y="492" font-size="12" text-anchor="middle" fill="#555555">33</text>
<line x1="251.16" y1="60" x2="251.16" y2="470" stroke="#f3f4f6" stroke-width="1"/>
<text x="251.16" y="492" font-size="12" text-anchor="middle" fill="#555555">34</text>
<line x1="256.05" y1="60" x2="256.05" y2="470" stroke="#f3f4f6" stroke-width="1"/>
<text x="256.05" y="492" font-size="12" text-anchor="middle" fill="#555555">35</text>
<line x1="260.93" y1="60" x2="260.93" y2="470" stroke="#f3f4f6" stroke-width="1"/>
<text x="260.93" y="492" font-size="12" text-anchor="middle" fill="#555555">36</text>
<line x1="265.81" y1="60" x2="265.81" y2="470" stroke="#f3f4f6" stroke-width="1"/>
<text x="265.81" y="492" font-size="12" text-anchor="middle" fill="#555555">37</text>
<line x1="270.70" y1="60" x2="270.70" y2="470" stroke="#f3f4f6" stroke-width="1"/>
<text x="270.70" y="492" font-size="12" text-anchor="middle" fill="#555555">38</text>
<line x1="275.58" y1="60" x2="275.58" y2="470" stroke="#f3f4f6" stroke-width="1"/>
<text x="275.58" y="492" font-size="12" text-anchor="middle" fill="#555555">39</text>
<line x1="280.47" y1="60" x2="280.47" y2="470" stroke="#f3f4f6" stroke-width="1"/>
<text x="280.47" y="492" font-size="12" text-anchor="middle" fill="#555555">40</text>
<line x1="285.35" y1="60" x2="285.35" y2="470" stroke="#f3f4f6" stroke-width="1"/>
<text x="285.35" y="492" font-size="12" text-anchor="middle" fill="#555555">41</text>
<line x1="290.23" y1="60" x2="290.23" y2="470" stroke="#f3f4f6" stroke-width="1"/>
<text x="290.23" y="492" font-size="12" text-anchor="middle" fill="#555555">42</text>
<line x1="295.12" y1="60" x2="295.12" y2="470" stroke="#f3f4f6" stroke-width="1"/>
<text x="295.12" y="492" font-size="12" text-anchor="middle" fill="#555555">43</text>
<line x1="300.00" y1="60" x2="300.00" y2="470" stroke="#f3f4f6" stroke-width="1"/>
<text x="300.00" y="492" font-size="12" text-anchor="middle" fill="#555555">44</text>
<line x1="304.88" y1="60" x2="304.88" y2="470" stroke="#f3f4f6" stroke-width="1"/>
<text x="304.88" y="492" font-size="12" text-anchor="middle" fill="#555555">45</text>
<line x1="309.77" y1="60" x2="309.77" y2="470" stroke="#f3f4f6" stroke-width="1"/>
<text x="309.77" y="492" font-size="12" text-anchor="middle" fill="#555555">46</text>
<line x1="314.65" y1="60" x2="314.65" y2="470" stroke="#f3f4f6" stroke-width="1"/>
<text x="314.65" y="492" font-size="12" text-anchor="middle" fill="#555555">47</text>
<line x1="319.53" y1="60" x2="319.53" y2="470" stroke="#f3f4f6" stroke-width="1"/>
<text x="319.53" y="492" font-size="12" text-anchor="middle" fill="#555555">48</text>
<line x1="324.42" y1="60" x2="324.42" y2="470" stroke="#f3f4f6" stroke-width="1"/>
<text x="324.42" y="492" font-size="12" text-anchor="middle" fill="#555555">49</text>
<line x1="329.30" y1="60" x2="329.30" y2="470" stroke="#f3f4f6" stroke-width="1"/>
<text x="329.30" y="492" font-size="12" text-anchor="middle" fill="#555555">50</text>
<line x1="334.19" y1="60" x2="334.19" y2="470" stroke="#f3f4f6" stroke-width="1"/>
<text x="334.19" y="492" font-size="12" text-anchor="middle" fill="#555555">51</text>
<line x1="339.07" y1="60" x2="339.07" y2="470" stroke="#f3f4f6" stroke-width="1"/>
<text x="339.07" y="492" font-size="12" text-anchor="middle" fill="#555555">52</text>
<line x1="343.95" y1="60" x2="343.95" y2="470" stroke="#f3f4f6" stroke-width="1"/>
<text x="343.95" y="492" font-size="12" text-anchor="middle" fill="#555555">53</text>
<line x1="348.84" y1="60" x2="348.84" y2="470" stroke="#f3f4f6" stroke-width="1"/>
<text x="348.84" y="492" font-size="12" text-anchor="middle" fill="#555555">54</text>
<line x1="353.72" y1="60" x2="353.72" y2="470" stroke="#f3f4f6" stroke-width="1"/>
<text x="353.72" y="492" font-size="12" text-anchor="middle" fill="#555555">55</text>
<line x1="358.60" y1="60" x2="358.60" y2="470" stroke="#f3f4f6" stroke-width="1"/>
<text x="358.60" y="492" font-size="12" text-anchor="middle" fill="#555555">56</text>
<line x1="363.49" y1="60" x2="363.49" y2="470" stroke="#f3f4f6" stroke-width="1"/>
<text x="363.49" y="492" font-size="12" text-anchor="middle" fill="#555555">57</text>
<line x1="368.37" y1="60" x2="368.37" y2="470" stroke="#f3f4f6" stroke-width="1"/>
<text x="368.37" y="492" font-size="12" text-anchor="middle" fill="#555555">58</text>
<line x1="373.26" y1="60" x2="373.26" y2="470" stroke="#f3f4f6" stroke-width="1"/>
<text x="373.26" y="492" font-size="12" text-anchor="middle" fill="#555555">59</text>
<line x1="378.14" y1="60" x2="378.14" y2="470" stroke="#f3f4f6" stroke-width="1"/>
<text x="378.14" y="492" font-size="12" text-anchor="middle" fill="#555555">60</text>
<line x1="383.02" y1="60" x2="383.02" y2="470" stroke="#f3f4f6" stroke-width="1"/>
<text x="383.02" y="492" font-size="12" text-anchor="middle" fill="#555555">61</text>
<line x1="387.91" y1="60" x2="387.91" y2="470" stroke="#f3f4f6" stroke-width="1"/>
<text x="387.91" y="492" font-size="12" text-anchor="middle" fill="#555555">62</text>
<line x1="392.79" y1="60" x2="392.79" y2="470" stroke="#f3f4f6" stroke-width="1"/>
<text x="392.79" y="492" font-size="12" text-anchor="middle" fill="#555555">63</text>
<line x1="397.67" y1="60" x2="397.67" y2="470" stroke="#f3f4f6" stroke-width="1"/>
<text x="397.67" y="492" font-size="12" text-anchor="middle" fill="#555555">64</text>
<line x1="402.56" y1="60" x2="402.56" y2="470" stroke="#f3f4f6" stroke-width="1"/>
<text x="402.56" y="492" font-size="12" text-anchor="middle" fill="#555555">65</text>
<line x1="407.44" y1="60" x2="407.44" y2="470" stroke="#f3f4f6" stroke-width="1"/>
<text x="407.44" y="492" font-size="12" text-anchor="middle" fill="#555555">66</text>
<line x1="412.33" y1="60" x2="412.33" y2="470" stroke="#f3f4f6" stroke-width="1"/>
<text x="412.33" y="492" font-size="12" text-anchor="middle" fill="#555555">67</text>
<line x1="417.21" y1="60" x2="417.21" y2="470" stroke="#f3f4f6" stroke-width="1"/>
<text x="417.21" y="492" font-size="12" text-anchor="middle" fill="#555555">68</text>
<line x1="422.09" y1="60" x2="422.09" y2="470" stroke="#f3f4f6" stroke-width="1"/>
<text x="422.09" y="492" font-size="12" text-anchor="middle" fill="#555555">69</text>
<line x1="426.98" y1="60" x2="426.98" y2="470" stroke="#f3f4f6" stroke-width="1"/>
<text x="426.98" y="492" font-size="12" text-anchor="middle" fill="#555555">70</text>
<line x1="431.86" y1="60" x2="431.86" y2="470" stroke="#f3f4f6" stroke-width="1"/>
<text x="431.86" y="492" font-size="12" text-anchor="middle" fill="#555555">71</text>
<line x1="436.74" y1="60" x2="436.74" y2="470" stroke="#f3f4f6" stroke-width="1"/>
<text x="436.74" y="492" font-size="12" text-anchor="middle" fill="#555555">72</text>
<line x1="441.63" y1="60" x2="441.63" y2="470" stroke="#f3f4f6" stroke-width="1"/>
<text x="441.63" y="492" font-size="12" text-anchor="middle" fill="#555555">73</text>
<line x1="446.51" y1="60" x2="446.51" y2="470" stroke="#f3f4f6" stroke-width="1"/>
<text x="446.51" y="492" font-size="12" text-anchor="middle" fill="#555555">74</text>
<line x1="451.40" y1="60" x2="451.40" y2="470" stroke="#f3f4f6" stroke-width="1"/>
<text x="451.40" y="492" font-size="12" text-anchor="middle" fill="#555555">75</text>
<line x1="456.28" y1="60" x2="456.28" y2="470" stroke="#f3f4f6" stroke-width="1"/>
<text x="456.28" y="492" font-size="12" text-anchor="middle" fill="#555555">76</text>
<line x1="461.16" y1="60" x2="461.16" y2="470" stroke="#f3f4f6" stroke-width="1"/>
<text x="461.16" y="492" font-size="12" text-anchor="middle" fill="#555555">77</text>
<line x1="466.05" y1="60" x2="466.05" y2="470" stroke="#f3f4f6" stroke-width="1"/>
<text x="466.05" y="492" font-size="12" text-anchor="middle" fill="#555555">78</text>
<line x1="470.93" y1="60" x2="470.93" y2="470" stroke="#f3f4f6" stroke-width="1"/>
<text x="470.93" y="492" font-size="12" text-anchor="middle" fill="#555555">79</text>
<line x1="475.81" y1="60" x2="475.81" y2="470" stroke="#f3f4f6" stroke-width="1"/>
<text x="475.81" y="492" font-size="12" text-anchor="middle" fill="#555555">80</text>
<line x1="480.70" y1="60" x2="480.70" y2="470" stroke="#f3f4f6" stroke-width="1"/>
<text x="480.70" y="492" font-size="12" text-anchor="middle" fill="#555555">81</text>
<line x1="485.58" y1="60" x2="485.58" y2="470" stroke="#f3f4f6" stroke-width="1"/>
<text x="485.58" y="492" font-size="12" text-anchor="middle" fill="#555555">82</text>
<line x1="490.47" y1="60" x2="490.47" y2="470" stroke="#f3f4f6" stroke-width="1"/>
<text x="490.47" y="492" font-size="12" text-anchor="middle" fill="#555555">83</text>
<line x1="495.35" y1="60" x2="495.35" y2="470" stroke="#f3f4f6" stroke-width="1"/>
<text x="495.35" y="492" font-size="12" text-anchor="middle" fill="#555555">84</text>
<line x1="500.23" y1="60" x2="500.23" y2="470" stroke="#f3f4f6" stroke-width="1"/>
<text x="500.23" y="492" font-size="12" text-anchor="middle" fill="#555555">85</text>
<line x1="505.12" y1="60" x2="505.12" y2="470" stroke="#f3f4f6" stroke-width="1"/>
<text x="505.12" y="492" font-size="12" text-anchor="middle" fill="#555555">86</text>
<line x1="510.00" y1="60" x2="510.00" y2="470" stroke="#f3f4f6" stroke-width="1"/>
<text x="510.00" y="492" font-size="12" text-anchor="middle" fill="#555555">87</text>
<line x1="514.88" y1="60" x2="514.88" y2="470" stroke="#f3f4f6" stroke-width="1"/>
<text x="514.88" y="492" font-size="12" text-anchor="middle" fill="#555555">88</text>
<line x1="519.77" y1="60" x2="519.77" y2="470" stroke="#f3f4f6" stroke-width="1"/>
<text x="519.77" y="492" font-size="12" text-anchor="middle" fill="#555555">89</text>
<line x1="524.65" y1="60" x2="524.65" y2="470" stroke="#f3f4f6" stroke-width="1"/>
<text x="524.65" y="492" font-size="12" text-anchor="middle" fill="#555555">90</text>
<line x1="529.53" y1="60" x2="529.53" y2="470" stroke="#f3f4f6" stroke-width="1"/>
<text x="529.53" y="492" font-size="12" text-anchor="middle" fill="#555555">91</text>
<line x1="534.42" y1="60" x2="534.42" y2="470" stroke="#f3f4f6" stroke-width="1"/>
<text x="534.42" y="492" font-size="12" text-anchor="middle" fill="#555555">92</text>
<line x1="539.30" y1="60" x2="539.30" y2="470" stroke="#f3f4f6" stroke-width="1"/>
<text x="539.30" y="492" font-size="12" text-anchor="middle" fill="#555555">93</text>
<line x1="544.19" y1="60" x2="544.19" y2="470" stroke="#f3f4f6" stroke-width="1"/>
<text x="544.19" y="492" font-size="12" text-anchor="middle" fill="#555555">94</text>
<line x1="549.07" y1="60" x2="549.07" y2="470" stroke="#f3f4f6" stroke-width="1"/>
<text x="549.07" y="492" font-size="12" text-anchor="middle" fill="#555555">95</text>
<line x1="553.95" y1="60" x2="553.95" y2="470" stroke="#f3f4f6" stroke-width="1"/>
<text x="553.95" y="492" font-size="12" text-anchor="middle" fill="#555555">96</text>
<line x1="558.84" y1="60" x2="558.84" y2="470" stroke="#f3f4f6" stroke-width="1"/>
<text x="558.84" y="492" font-size="12" text-anchor="middle" fill="#555555">97</text>
<line x1="563.72" y1="60" x2="563.72" y2="470" stroke="#f3f4f6" stroke-width="1"/>
<text x="563.72" y="492" font-size="12" text-anchor="middle" fill="#555555">98</text>
<line x1="568.60" y1="60" x2="568.60" y2="470" stroke="#f3f4f6" stroke-width="1"/>
<text x="568.60" y="492" font-size="12" text-anchor="middle" fill="#555555">99</text>
<line x1="573.49" y1="60" x2="573.49" y2="470" stroke="#f3f4f6" stroke-width="1"/>
<text x="573.49" y="492" font-size="12" text-anchor="middle" fill="#555555">100</text>
<line x1="578.37" y1="60" x2="578.37" y2="470" stroke="#f3f4f6" stroke-width="1"/>
<text x="578.37" y="492" font-size="12" text-anchor="middle" fill="#555555">101</text>
<line x1="583.26" y1="60" x2="583.26" y2="470" stroke="#f3f4f6" stroke-width="1"/>
<text x="583.26" y="492" font-size="12" text-anchor="middle" fill="#555555">102</text>
<line x1="588.14" y1="60" x2="588.14" y2="470" stroke="#f3f4f6" stroke-width="1"/>
<text x="588.14" y="492" font-size="12" text-anchor="middle" fill="#555555">103</text>
<line x1="593.02" y1="60" x2="593.02" y2="470" stroke="#f3f4f6" stroke-width="1"/>
<text x="593.02" y="492" font-size="12" text-anchor="middle" fill="#555555">104</text>
<line x1="597.91" y1="60" x2="597.91" y2="470" stroke="#f3f4f6" stroke-width="1"/>
<text x="597.91" y="492" font-size="12" text-anchor="middle" fill="#555555">105</text>
<line x1="602.79" y1="60" x2="602.79" y2="470" stroke="#f3f4f6" stroke-width="1"/>
<text x="602.79" y="492" font-size="12" text-anchor="middle" fill="#555555">106</text>
<line x1="607.67" y1="60" x2="607.67" y2="470" stroke="#f3f4f6" stroke-width="1"/>
<text x="607.67" y="492" font-size="12" text-anchor="middle" fill="#555555">107</text>
<line x1="612.56" y1="60" x2="612.56" y2="470" stroke="#f3f4f6" stroke-width="1"/>
<text x="612.56" y="492" font-size="12" text-anchor="middle" fill="#555555">108</text>
<line x1="617.44" y1="60" x2="617.44" y2="470" stroke="#f3f4f6" stroke-width="1"/>
<text x="617.44" y="492" font-size="12" text-anchor="middle" fill="#555555">109</text>
<line x1="622.33" y1="60" x2="622.33" y2="470" stroke="#f3f4f6" stroke-width="1"/>
<text x="622.33" y="492" font-size="12" text-anchor="middle" fill="#555555">110</text>
<line x1="627.21" y1="60" x2="627.21" y2="470" stroke="#f3f4f6" stroke-width="1"/>
<text x="627.21" y="492" font-size="12" text-anchor="middle" fill="#555555">111</text>
<line x1="632.09" y1="60" x2="632.09" y2="470" stroke="#f3f4f6" stroke-width="1"/>
<text x="632.09" y="492" font-size="12" text-anchor="middle" fill="#555555">112</text>
<line x1="636.98" y1="60" x2="636.98" y2="470" stroke="#f3f4f6" stroke-width="1"/>
<text x="636.98" y="492" font-size="12" text-anchor="middle" fill="#555555">113</text>
<line x1="641.86" y1="60" x2="641.86" y2="470" stroke="#f3f4f6" stroke-width="1"/>
<text x="641.86" y="492" font-size="12" text-anchor="middle" fill="#555555">114</text>
<line x1="646.74" y1="60" x2="646.74" y2="470" stroke="#f3f4f6" stroke-width="1"/>
<text x="646.74" y="492" font-size="12" text-anchor="middle" fill="#555555">115</text>
<line x1="651.63" y1="60" x2="651.63" y2="470" stroke="#f3f4f6" stroke-width="1"/>
<text x="651.63" y="492" font-size="12" text-anchor="middle" fill="#555555">116</text>
<line x1="656.51" y1="60" x2="656.51" y2="470" stroke="#f3f4f6" stroke-width="1"/>
<text x="656.51" y="492" font-size="12" text-anchor="middle" fill="#555555">117</text>
<line x1="661.40" y1="60" x2="661.40" y2="470" stroke="#f3f4f6" stroke-width="1"/>
<text x="661.40" y="492" font-size="12" text-anchor="middle" fill="#555555">118</text>
<line x1="666.28" y1="60" x2="666.28" y2="470" stroke="#f3f4f6" stroke-width="1"/>
<text x="666.28" y="492" font-size="12" text-anchor="middle" fill="#555555">119</text>
<line x1="671.16" y1="60" x2="671.16" y2="470" stroke="#f3f4f6" stroke-width="1"/>
<text x="671.16" y="492" font-size="12" text-anchor="middle" fill="#555555">120</text>
<line x1="676.05" y1="60" x2="676.05" y2="470" stroke="#f3f4f6" stroke-width="1"/>
<text x="676.05" y="492" font-size="12" text-anchor="middle" fill="#555555">121</text>
<line x1="680.93" y1="60" x2="680.93" y2="470" stroke="#f3f4f6" stroke-width="1"/>
<text x="680.93" y="492" font-size="12" text-anchor="middle" fill="#555555">122</text>
<line x1="685.81" y1="60" x2="685.81" y2="470" stroke="#f3f4f6" stroke-width="1"/>
<text x="685.81" y="492" font-size="12" text-anchor="middle" fill="#555555">123</text>
<line x1="690.70" y1="60" x2="690.70" y2="470" stroke="#f3f4f6" stroke-width="1"/>
<text x="690.70" y="492" font-size="12" text-anchor="middle" fill="#555555">124</text>
<line x1="695.58" y1="60" x2="695.58" y2="470" stroke="#f3f4f6" stroke-width="1"/>
<text x="695.58" y="492" font-size="12" text-anchor="middle" fill="#555555">125</text>
<line x1="700.47" y1="60" x2="700.47" y2="470" stroke="#f3f4f6" stroke-width="1"/>
<text x="700.47" y="492" font-size="12" text-anchor="middle" fill="#555555">126</text>
<line x1="705.35" y1="60" x2="705.35" y2="470" stroke="#f3f4f6" stroke-width="1"/>
<text x="705.35" y="492" font-size="12" text-anchor="middle" fill="#555555">127</text>
<line x1="710.23" y1="60" x2="710.23" y2="470" stroke="#f3f4f6" stroke-width="1"/>
<text x="710.23" y="492" font-size="12" text-anchor="middle" fill="#555555">128</text>
<line x1="715.12" y1="60" x2="715.12" y2="470" stroke="#f3f4f6" stroke-width="1"/>
<text x="715.12" y="492" font-size="12" text-anchor="middle" fill="#555555">129</text>
<line x1="720.00" y1="60" x2="720.00" y2="470" stroke="#f3f4f6" stroke-width="1"/>
<text x="720.00" y="492" font-size="12" text-anchor="middle" fill="#555555">130</text>
<line x1="724.88" y1="60" x2="724.88" y2="470" stroke="#f3f4f6" stroke-width="1"/>
<text x="724.88" y="492" font-size="12" text-anchor="middle" fill="#555555">131</text>
<line x1="729.77" y1="60" x2="729.77" y2="470" stroke="#f3f4f6" stroke-width="1"/>
<text x="729.77" y="492" font-size="12" text-anchor="middle" fill="#555555">132</text>
<line x1="734.65" y1="60" x2="734.65" y2="470" stroke="#f3f4f6" stroke-width="1"/>
<text x="734.65" y="492" font-size="12" text-anchor="middle" fill="#555555">133</text>
<line x1="739.53" y1="60" x2="739.53" y2="470" stroke="#f3f4f6" stroke-width="1"/>
<text x="739.53" y="492" font-size="12" text-anchor="middle" fill="#555555">134</text>
<line x1="744.42" y1="60" x2="744.42" y2="470" stroke="#f3f4f6" stroke-width="1"/>
<text x="744.42" y="492" font-size="12" text-anchor="middle" fill="#555555">135</text>
<line x1="749.30" y1="60" x2="749.30" y2="470" stroke="#f3f4f6" stroke-width="1"/>
<text x="749.30" y="492" font-size="12" text-anchor="middle" fill="#555555">136</text>
<line x1="754.19" y1="60" x2="754.19" y2="470" stroke="#f3f4f6" stroke-width="1"/>
<text x="754.19" y="492" font-size="12" text-anchor="middle" fill="#555555">137</text>
<line x1="759.07" y1="60" x2="759.07" y2="470" stroke="#f3f4f6" stroke-width="1"/>
<text x="759.07" y="492" font-size="12" text-anchor="middle" fill="#555555">138</text>
<line x1="763.95" y1="60" x2="763.95" y2="470" stroke="#f3f4f6" stroke-width="1"/>
<text x="763.95" y="492" font-size="12" text-anchor="middle" fill="#555555">139</text>
<line x1="768.84" y1="60" x2="768.84" y2="470" stroke="#f3f4f6" stroke-width="1"/>
<text x="768.84" y="492" font-size="12" text-anchor="middle" fill="#555555">140</text>
<line x1="773.72" y1="60" x2="773.72" y2="470" stroke="#f3f4f6" stroke-width="1"/>
<text x="773.72" y="492" font-size="12" text-anchor="middle" fill="#555555">141</text>
<line x1="778.60" y1="60" x2="778.60" y2="470" stroke="#f3f4f6" stroke-width="1"/>
<text x="778.60" y="492" font-size="12" text-anchor="middle" fill="#555555">142</text>
<line x1="783.49" y1="60" x2="783.49" y2="470" stroke="#f3f4f6" stroke-width="1"/>
<text x="783.49" y="492" font-size="12" text-anchor="middle" fill="#555555">143</text>
<line x1="788.37" y1="60" x2="788.37" y2="470" stroke="#f3f4f6" stroke-width="1"/>
<text x="788.37" y="492" font-size="12" text-anchor="middle" fill="#555555">144</text>
<line x1="793.26" y1="60" x2="793.26" y2="470" stroke="#f3f4f6" stroke-width="1"/>
<text x="793.26" y="492" font-size="12" text-anchor="middle" fill="#555555">145</text>
<line x1="798.14" y1="60" x2="798.14" y2="470" stroke="#f3f4f6" stroke-width="1"/>
<text x="798.14" y="492" font-size="12" text-anchor="middle" fill="#555555">146</text>
<line x1="803.02" y1="60" x2="803.02" y2="470" stroke="#f3f4f6" stroke-width="1"/>
<text x="803.02" y="492" font-size="12" text-anchor="middle" fill="#555555">147</text>
<line x1="807.91" y1="60" x2="807.91" y2="470" stroke="#f3f4f6" stroke-width="1"/>
<text x="807.91" y="492" font-size="12" text-anchor="middle" fill="#555555">148</text>
<line x1="812.79" y1="60" x2="812.79" y2="470" stroke="#f3f4f6" stroke-width="1"/>
<text x="812.79" y="492" font-size="12" text-anchor="middle" fill="#555555">149</text>
<line x1="817.67" y1="60" x2="817.67" y2="470" stroke="#f3f4f6" stroke-width="1"/>
<text x="817.67" y="492" font-size="12" text-anchor="middle" fill="#555555">150</text>
<line x1="822.56" y1="60" x2="822.56" y2="470" stroke="#f3f4f6" stroke-width="1"/>
<text x="822.56" y="492" font-size="12" text-anchor="middle" fill="#555555">151</text>
<line x1="827.44" y1="60" x2="827.44" y2="470" stroke="#f3f4f6" stroke-width="1"/>
<text x="827.44" y="492" font-size="12" text-anchor="middle" fill="#555555">152</text>
<line x1="832.33" y1="60" x2="832.33" y2="470" stroke="#f3f4f6" stroke-width="1"/>
<text x="832.33" y="492" font-size="12" text-anchor="middle" fill="#555555">153</text>
<line x1="837.21" y1="60" x2="837.21" y2="470" stroke="#f3f4f6" stroke-width="1"/>
<text x="837.21" y="492" font-size="12" text-anchor="middle" fill="#555555">154</text>
<line x1="842.09" y1="60" x2="842.09" y2="470" stroke="#f3f4f6" stroke-width="1"/>
<text x="842.09" y="492" font-size="12" text-anchor="middle" fill="#555555">155</text>
<line x1="846.98" y1="60" x2="846.98" y2="470" stroke="#f3f4f6" stroke-width="1"/>
<text x="846.98" y="492" font-size="12" text-anchor="middle" fill="#555555">156</text>
<line x1="851.86" y1="60" x2="851.86" y2="470" stroke="#f3f4f6" stroke-width="1"/>
<text x="851.86" y="492" font-size="12" text-anchor="middle" fill="#555555">157</text>
<line x1="856.74" y1="60" x2="856.74" y2="470" stroke="#f3f4f6" stroke-width="1"/>
<text x="856.74" y="492" font-size="12" text-anchor="middle" fill="#555555">158</text>
<line x1="861.63" y1="60" x2="861.63" y2="470" stroke="#f3f4f6" stroke-width="1"/>
<text x="861.63" y="492" font-size="12" text-anchor="middle" fill="#555555">159</text>
<line x1="866.51" y1="60" x2="866.51" y2="470" stroke="#f3f4f6" stroke-width="1"/>
<text x="866.51" y="492" font-size="12" text-anchor="middle" fill="#555555">160</text>
<line x1="871.40" y1="60" x2="871.40" y2="470" stroke="#f3f4f6" stroke-width="1"/>
<text x="871.40" y="492" font-size="12" text-anchor="middle" fill="#555555">161</text>
<line x1="876.28" y1="60" x2="876.28" y2="470" stroke="#f3f4f6" stroke-width="1"/>
<text x="876.28" y="492" font-size="12" text-anchor="middle" fill="#555555">162</text>
<line x1="881.16" y1="60" x2="881.16" y2="470" stroke="#f3f4f6" stroke-width="1"/>
<text x="881.16" y="492" font-size="12" text-anchor="middle" fill="#555555">163</text>
<line x1="886.05" y1="60" x2="886.05" y2="470" stroke="#f3f4f6" stroke-width="1"/>
<text x="886.05" y="492" font-size="12" text-anchor="middle" fill="#555555">164</text>
<line x1="890.93" y1="60" x2="890.93" y2="470" stroke="#f3f4f6" stroke-width="1"/>
<text x="890.93" y="492" font-size="12" text-anchor="middle" fill="#555555">165</text>
<line x1="895.81" y1="60" x2="895.81" y2="470" stroke="#f3f4f6" stroke-width="1"/>
<text x="895.81" y="492" font-size="12" text-anchor="middle" fill="#555555">166</text>
<line x1="900.70" y1="60" x2="900.70" y2="470" stroke="#f3f4f6" stroke-width="1"/>
<text x="900.70" y="492" font-size="12" text-anchor="middle" fill="#555555">167</text>
<line x1="905.58" y1="60" x2="905.58" y2="470" stroke="#f3f4f6" stroke-width="1"/>
<text x="905.58" y="492" font-size="12" text-anchor="middle" fill="#555555">168</text>
<line x1="910.47" y1="60" x2="910.47" y2="470" stroke="#f3f4f6" stroke-width="1"/>
<text x="910.47" y="492" font-size="12" text-anchor="middle" fill="#555555">169</text>
<line x1="915.35" y1="60" x2="915.35" y2="470" stroke="#f3f4f6" stroke-width="1"/>
<text x="915.35" y="492" font-size="12" text-anchor="middle" fill="#555555">170</text>
<line x1="920.23" y1="60" x2="920.23" y2="470" stroke="#f3f4f6" stroke-width="1"/>
<text x="920.23" y="492" font-size="12" text-anchor="middle" fill="#555555">171</text>
<line x1="925.12" y1="60" x2="925.12" y2="470" stroke="#f3f4f6" stroke-width="1"/>
<text x="925.12" y="492" font-size="12" text-anchor="middle" fill="#555555">172</text>
<line x1="930.00" y1="60" x2="930.00" y2="470" stroke="#f3f4f6" stroke-width="1"/>
<text x="930.00" y="492" font-size="12" text-anchor="middle" fill="#555555">173</text>
<polyline fill="none" stroke="#0f766e" stroke-width="3" points="90.00,126.68 94.88,94.17 99.77,118.45 104.65,122.03 109.53,122.57 114.42,122.91 119.30,124.86 124.19,126.56 129.07,126.75 133.95,126.84 138.84,126.93 143.72,126.96 148.60,127.12 153.49,127.05 158.37,127.21 163.26,127.17 168.14,127.15 173.02,127.23 177.91,127.28 182.79,127.30 187.67,435.83 192.56,435.83 197.44,435.83 202.33,435.83 207.21,435.83 212.09,435.83 216.98,435.83 221.86,435.83 226.74,435.83 231.63,435.83 236.51,435.83 241.40,435.83 246.28,435.83 251.16,435.83 256.05,435.83 260.93,435.83 265.81,435.83 270.70,435.83 275.58,435.83 280.47,435.83 285.35,435.83 290.23,435.83 295.12,435.83 300.00,435.83 304.88,435.83 309.77,435.83 314.65,435.83 319.53,435.83 324.42,435.83 329.30,435.83 334.19,435.83 339.07,435.83 343.95,435.83 348.84,435.83 353.72,435.83 358.60,435.83 363.49,435.83 368.37,435.83 373.26,435.83 378.14,435.83 383.02,435.83 387.91,435.83 392.79,435.83 397.67,435.83 402.56,435.83 407.44,435.83 412.33,435.83 417.21,435.83 422.09,435.83 426.98,435.83 431.86,435.83 436.74,435.83 441.63,435.83 446.51,435.83 451.40,435.83 456.28,435.83 461.16,435.83 466.05,435.83 470.93,435.83 475.81,435.83 480.70,435.83 485.58,435.83 490.47,435.83 495.35,435.83 500.23,435.83 505.12,435.83 510.00,435.83 514.88,435.83 519.77,435.83 524.65,435.83 529.53,435.83 534.42,435.83 539.30,435.83 544.19,435.83 549.07,435.83 553.95,435.83 558.84,435.83 563.72,435.83 568.60,435.83 573.49,435.83 578.37,435.83 583.26,435.83 588.14,435.83 593.02,435.83 597.91,435.83 602.79,435.83 607.67,435.83 612.56,435.83 617.44,435.83 622.33,435.83 627.21,435.83 632.09,435.83 636.98,435.83 641.86,435.83 646.74,435.83 651.63,435.83 656.51,435.83 661.40,435.83 666.28,435.83 671.16,435.83 676.05,435.83 680.93,435.83 685.81,435.83 690.70,435.83 695.58,435.83 700.47,435.83 705.35,435.83 710.23,435.83 715.12,435.83 720.00,435.83 724.88,435.83 729.77,435.83 734.65,435.83 739.53,435.83 744.42,435.83 749.30,435.83 754.19,435.83 759.07,435.83 763.95,435.83 768.84,435.83 773.72,435.83 778.60,435.83 783.49,435.83 788.37,435.83 793.26,435.83 798.14,435.83 803.02,435.83 807.91,435.83 812.79,435.83 817.67,435.83 822.56,435.83 827.44,435.83 832.33,435.83 837.21,435.83 842.09,435.83 846.98,435.83 851.86,435.83 856.74,435.83 861.63,435.83 866.51,435.83 871.40,435.83 876.28,435.83 881.16,435.83 886.05,435.83 890.93,435.83 895.81,435.83 900.70,435.83 905.58,435.83 910.47,435.83 915.35,435.83 920.23,435.83 925.12,435.83 930.00,435.83"/>
<circle cx="90.00" cy="126.68" r="4.5" fill="#0f766e" fill-opacity="0.9"/>
<circle cx="94.88" cy="94.17" r="4.5" fill="#0f766e" fill-opacity="0.9"/>
<circle cx="99.77" cy="118.45" r="4.5" fill="#0f766e" fill-opacity="0.9"/>
<circle cx="104.65" cy="122.03" r="4.5" fill="#0f766e" fill-opacity="0.9"/>
<circle cx="109.53" cy="122.57" r="4.5" fill="#0f766e" fill-opacity="0.9"/>
<circle cx="114.42" cy="122.91" r="4.5" fill="#0f766e" fill-opacity="0.9"/>
<circle cx="119.30" cy="124.86" r="4.5" fill="#0f766e" fill-opacity="0.9"/>
<circle cx="124.19" cy="126.56" r="4.5" fill="#0f766e" fill-opacity="0.9"/>
<circle cx="129.07" cy="126.75" r="4.5" fill="#0f766e" fill-opacity="0.9"/>
<circle cx="133.95" cy="126.84" r="4.5" fill="#0f766e" fill-opacity="0.9"/>
<circle cx="138.84" cy="126.93" r="4.5" fill="#0f766e" fill-opacity="0.9"/>
<circle cx="143.72" cy="126.96" r="4.5" fill="#0f766e" fill-opacity="0.9"/>
<circle cx="148.60" cy="127.12" r="4.5" fill="#0f766e" fill-opacity="0.9"/>
<circle cx="153.49" cy="127.05" r="4.5" fill="#0f766e" fill-opacity="0.9"/>
<circle cx="158.37" cy="127.21" r="4.5" fill="#0f766e" fill-opacity="0.9"/>
<circle cx="163.26" cy="127.17" r="4.5" fill="#0f766e" fill-opacity="0.9"/>
<circle cx="168.14" cy="127.15" r="4.5" fill="#0f766e" fill-opacity="0.9"/>
<circle cx="173.02" cy="127.23" r="4.5" fill="#0f766e" fill-opacity="0.9"/>
<circle cx="177.91" cy="127.28" r="4.5" fill="#0f766e" fill-opacity="0.9"/>
<circle cx="182.79" cy="127.30" r="4.5" fill="#0f766e" fill-opacity="0.9"/>
<circle cx="187.67" cy="435.83" r="4.5" fill="#0f766e" fill-opacity="0.9"/>
<circle cx="192.56" cy="435.83" r="4.5" fill="#0f766e" fill-opacity="0.9"/>
<circle cx="197.44" cy="435.83" r="4.5" fill="#0f766e" fill-opacity="0.9"/>
<circle cx="202.33" cy="435.83" r="4.5" fill="#0f766e" fill-opacity="0.9"/>
<circle cx="207.21" cy="435.83" r="4.5" fill="#0f766e" fill-opacity="0.9"/>
<circle cx="212.09" cy="435.83" r="4.5" fill="#0f766e" fill-opacity="0.9"/>
<circle cx="216.98" cy="435.83" r="4.5" fill="#0f766e" fill-opacity="0.9"/>
<circle cx="221.86" cy="435.83" r="4.5" fill="#0f766e" fill-opacity="0.9"/>
<circle cx="226.74" cy="435.83" r="4.5" fill="#0f766e" fill-opacity="0.9"/>
<circle cx="231.63" cy="435.83" r="4.5" fill="#0f766e" fill-opacity="0.9"/>
<circle cx="236.51" cy="435.83" r="4.5" fill="#0f766e" fill-opacity="0.9"/>
<circle cx="241.40" cy="435.83" r="4.5" fill="#0f766e" fill-opacity="0.9"/>
<circle cx="246.28" cy="435.83" r="4.5" fill="#0f766e" fill-opacity="0.9"/>
<circle cx="251.16" cy="435.83" r="4.5" fill="#0f766e" fill-opacity="0.9"/>
<circle cx="256.05" cy="435.83" r="4.5" fill="#0f766e" fill-opacity="0.9"/>
<circle cx="260.93" cy="435.83" r="4.5" fill="#0f766e" fill-opacity="0.9"/>
<circle cx="265.81" cy="435.83" r="4.5" fill="#0f766e" fill-opacity="0.9"/>
<circle cx="270.70" cy="435.83" r="4.5" fill="#0f766e" fill-opacity="0.9"/>
<circle cx="275.58" cy="435.83" r="4.5" fill="#0f766e" fill-opacity="0.9"/>
<circle cx="280.47" cy="435.83" r="4.5" fill="#0f766e" fill-opacity="0.9"/>
<circle cx="285.35" cy="435.83" r="4.5" fill="#0f766e" fill-opacity="0.9"/>
<circle cx="290.23" cy="435.83" r="4.5" fill="#0f766e" fill-opacity="0.9"/>
<circle cx="295.12" cy="435.83" r="4.5" fill="#0f766e" fill-opacity="0.9"/>
<circle cx="300.00" cy="435.83" r="4.5" fill="#0f766e" fill-opacity="0.9"/>
<circle cx="304.88" cy="435.83" r="4.5" fill="#0f766e" fill-opacity="0.9"/>
<circle cx="309.77" cy="435.83" r="4.5" fill="#0f766e" fill-opacity="0.9"/>
<circle cx="314.65" cy="435.83" r="4.5" fill="#0f766e" fill-opacity="0.9"/>
<circle cx="319.53" cy="435.83" r="4.5" fill="#0f766e" fill-opacity="0.9"/>
<circle cx="324.42" cy="435.83" r="4.5" fill="#0f766e" fill-opacity="0.9"/>
<circle cx="329.30" cy="435.83" r="4.5" fill="#0f766e" fill-opacity="0.9"/>
<circle cx="334.19" cy="435.83" r="4.5" fill="#0f766e" fill-opacity="0.9"/>
<circle cx="339.07" cy="435.83" r="4.5" fill="#0f766e" fill-opacity="0.9"/>
<circle cx="343.95" cy="435.83" r="4.5" fill="#0f766e" fill-opacity="0.9"/>
<circle cx="348.84" cy="435.83" r="4.5" fill="#0f766e" fill-opacity="0.9"/>
<circle cx="353.72" cy="435.83" r="4.5" fill="#0f766e" fill-opacity="0.9"/>
<circle cx="358.60" cy="435.83" r="4.5" fill="#0f766e" fill-opacity="0.9"/>
<circle cx="363.49" cy="435.83" r="4.5" fill="#0f766e" fill-opacity="0.9"/>
<circle cx="368.37" cy="435.83" r="4.5" fill="#0f766e" fill-opacity="0.9"/>
<circle cx="373.26" cy="435.83" r="4.5" fill="#0f766e" fill-opacity="0.9"/>
<circle cx="378.14" cy="435.83" r="4.5" fill="#0f766e" fill-opacity="0.9"/>
<circle cx="383.02" cy="435.83" r="4.5" fill="#0f766e" fill-opacity="0.9"/>
<circle cx="387.91" cy="435.83" r="4.5" fill="#0f766e" fill-opacity="0.9"/>
<circle cx="392.79" cy="435.83" r="4.5" fill="#0f766e" fill-opacity="0.9"/>
<circle cx="397.67" cy="435.83" r="4.5" fill="#0f766e" fill-opacity="0.9"/>
<circle cx="402.56" cy="435.83" r="4.5" fill="#0f766e" fill-opacity="0.9"/>
<circle cx="407.44" cy="435.83" r="4.5" fill="#0f766e" fill-opacity="0.9"/>
<circle cx="412.33" cy="435.83" r="4.5" fill="#0f766e" fill-opacity="0.9"/>
<circle cx="417.21" cy="435.83" r="4.5" fill="#0f766e" fill-opacity="0.9"/>
<circle cx="422.09" cy="435.83" r="4.5" fill="#0f766e" fill-opacity="0.9"/>
<circle cx="426.98" cy="435.83" r="4.5" fill="#0f766e" fill-opacity="0.9"/>
<circle cx="431.86" cy="435.83" r="4.5" fill="#0f766e" fill-opacity="0.9"/>
<circle cx="436.74" cy="435.83" r="4.5" fill="#0f766e" fill-opacity="0.9"/>
<circle cx="441.63" cy="435.83" r="4.5" fill="#0f766e" fill-opacity="0.9"/>
<circle cx="446.51" cy="435.83" r="4.5" fill="#0f766e" fill-opacity="0.9"/>
<circle cx="451.40" cy="435.83" r="4.5" fill="#0f766e" fill-opacity="0.9"/>
<circle cx="456.28" cy="435.83" r="4.5" fill="#0f766e" fill-opacity="0.9"/>
<circle cx="461.16" cy="435.83" r="4.5" fill="#0f766e" fill-opacity="0.9"/>
<circle cx="466.05" cy="435.83" r="4.5" fill="#0f766e" fill-opacity="0.9"/>
<circle cx="470.93" cy="435.83" r="4.5" fill="#0f766e" fill-opacity="0.9"/>
<circle cx="475.81" cy="435.83" r="4.5" fill="#0f766e" fill-opacity="0.9"/>
<circle cx="480.70" cy="435.83" r="4.5" fill="#0f766e" fill-opacity="0.9"/>
<circle cx="485.58" cy="435.83" r="4.5" fill="#0f766e" fill-opacity="0.9"/>
<circle cx="490.47" cy="435.83" r="4.5" fill="#0f766e" fill-opacity="0.9"/>
<circle cx="495.35" cy="435.83" r="4.5" fill="#0f766e" fill-opacity="0.9"/>
<circle cx="500.23" cy="435.83" r="4.5" fill="#0f766e" fill-opacity="0.9"/>
<circle cx="505.12" cy="435.83" r="4.5" fill="#0f766e" fill-opacity="0.9"/>
<circle cx="510.00" cy="435.83" r="4.5" fill="#0f766e" fill-opacity="0.9"/>
<circle cx="514.88" cy="435.83" r="4.5" fill="#0f766e" fill-opacity="0.9"/>
<circle cx="519.77" cy="435.83" r="4.5" fill="#0f766e" fill-opacity="0.9"/>
<circle cx="524.65" cy="435.83" r="4.5" fill="#0f766e" fill-opacity="0.9"/>
<circle cx="529.53" cy="435.83" r="4.5" fill="#0f766e" fill-opacity="0.9"/>
<circle cx="534.42" cy="435.83" r="4.5" fill="#0f766e" fill-opacity="0.9"/>
<circle cx="539.30" cy="435.83" r="4.5" fill="#0f766e" fill-opacity="0.9"/>
<circle cx="544.19" cy="435.83" r="4.5" fill="#0f766e" fill-opacity="0.9"/>
<circle cx="549.07" cy="435.83" r="4.5" fill="#0f766e" fill-opacity="0.9"/>
<circle cx="553.95" cy="435.83" r="4.5" fill="#0f766e" fill-opacity="0.9"/>
<circle cx="558.84" cy="435.83" r="4.5" fill="#0f766e" fill-opacity="0.9"/>
<circle cx="563.72" cy="435.83" r="4.5" fill="#0f766e" fill-opacity="0.9"/>
<circle cx="568.60" cy="435.83" r="4.5" fill="#0f766e" fill-opacity="0.9"/>
<circle cx="573.49" cy="435.83" r="4.5" fill="#0f766e" fill-opacity="0.9"/>
<circle cx="578.37" cy="435.83" r="4.5" fill="#0f766e" fill-opacity="0.9"/>
<circle cx="583.26" cy="435.83" r="4.5" fill="#0f766e" fill-opacity="0.9"/>
<circle cx="588.14" cy="435.83" r="4.5" fill="#0f766e" fill-opacity="0.9"/>
<circle cx="593.02" cy="435.83" r="4.5" fill="#0f766e" fill-opacity="0.9"/>
<circle cx="597.91" cy="435.83" r="4.5" fill="#0f766e" fill-opacity="0.9"/>
<circle cx="602.79" cy="435.83" r="4.5" fill="#0f766e" fill-opacity="0.9"/>
<circle cx="607.67" cy="435.83" r="4.5" fill="#0f766e" fill-opacity="0.9"/>
<circle cx="612.56" cy="435.83" r="4.5" fill="#0f766e" fill-opacity="0.9"/>
<circle cx="617.44" cy="435.83" r="4.5" fill="#0f766e" fill-opacity="0.9"/>
<circle cx="622.33" cy="435.83" r="4.5" fill="#0f766e" fill-opacity="0.9"/>
<circle cx="627.21" cy="435.83" r="4.5" fill="#0f766e" fill-opacity="0.9"/>
<circle cx="632.09" cy="435.83" r="4.5" fill="#0f766e" fill-opacity="0.9"/>
<circle cx="636.98" cy="435.83" r="4.5" fill="#0f766e" fill-opacity="0.9"/>
<circle cx="641.86" cy="435.83" r="4.5" fill="#0f766e" fill-opacity="0.9"/>
<circle cx="646.74" cy="435.83" r="4.5" fill="#0f766e" fill-opacity="0.9"/>
<circle cx="651.63" cy="435.83" r="4.5" fill="#0f766e" fill-opacity="0.9"/>
<circle cx="656.51" cy="435.83" r="4.5" fill="#0f766e" fill-opacity="0.9"/>
<circle cx="661.40" cy="435.83" r="4.5" fill="#0f766e" fill-opacity="0.9"/>
<circle cx="666.28" cy="435.83" r="4.5" fill="#0f766e" fill-opacity="0.9"/>
<circle cx="671.16" cy="435.83" r="4.5" fill="#0f766e" fill-opacity="0.9"/>
<circle cx="676.05" cy="435.83" r="4.5" fill="#0f766e" fill-opacity="0.9"/>
<circle cx="680.93" cy="435.83" r="4.5" fill="#0f766e" fill-opacity="0.9"/>
<circle cx="685.81" cy="435.83" r="4.5" fill="#0f766e" fill-opacity="0.9"/>
<circle cx="690.70" cy="435.83" r="4.5" fill="#0f766e" fill-opacity="0.9"/>
<circle cx="695.58" cy="435.83" r="4.5" fill="#0f766e" fill-opacity="0.9"/>
<circle cx="700.47" cy="435.83" r="4.5" fill="#0f766e" fill-opacity="0.9"/>
<circle cx="705.35" cy="435.83" r="4.5" fill="#0f766e" fill-opacity="0.9"/>
<circle cx="710.23" cy="435.83" r="4.5" fill="#0f766e" fill-opacity="0.9"/>
<circle cx="715.12" cy="435.83" r="4.5" fill="#0f766e" fill-opacity="0.9"/>
<circle cx="720.00" cy="435.83" r="4.5" fill="#0f766e" fill-opacity="0.9"/>
<circle cx="724.88" cy="435.83" r="4.5" fill="#0f766e" fill-opacity="0.9"/>
<circle cx="729.77" cy="435.83" r="4.5" fill="#0f766e" fill-opacity="0.9"/>
<circle cx="734.65" cy="435.83" r="4.5" fill="#0f766e" fill-opacity="0.9"/>
<circle cx="739.53" cy="435.83" r="4.5" fill="#0f766e" fill-opacity="0.9"/>
<circle cx="744.42" cy="435.83" r="4.5" fill="#0f766e" fill-opacity="0.9"/>
<circle cx="749.30" cy="435.83" r="4.5" fill="#0f766e" fill-opacity="0.9"/>
<circle cx="754.19" cy="435.83" r="4.5" fill="#0f766e" fill-opacity="0.9"/>
<circle cx="759.07" cy="435.83" r="4.5" fill="#0f766e" fill-opacity="0.9"/>
<circle cx="763.95" cy="435.83" r="4.5" fill="#0f766e" fill-opacity="0.9"/>
<circle cx="768.84" cy="435.83" r="4.5" fill="#0f766e" fill-opacity="0.9"/>
<circle cx="773.72" cy="435.83" r="4.5" fill="#0f766e" fill-opacity="0.9"/>
<circle cx="778.60" cy="435.83" r="4.5" fill="#0f766e" fill-opacity="0.9"/>
<circle cx="783.49" cy="435.83" r="4.5" fill="#0f766e" fill-opacity="0.9"/>
<circle cx="788.37" cy="435.83" r="4.5" fill="#0f766e" fill-opacity="0.9"/>
<circle cx="793.26" cy="435.83" r="4.5" fill="#0f766e" fill-opacity="0.9"/>
<circle cx="798.14" cy="435.83" r="4.5" fill="#0f766e" fill-opacity="0.9"/>
<circle cx="803.02" cy="435.83" r="4.5" fill="#0f766e" fill-opacity="0.9"/>
<circle cx="807.91" cy="435.83" r="4.5" fill="#0f766e" fill-opacity="0.9"/>
<circle cx="812.79" cy="435.83" r="4.5" fill="#0f766e" fill-opacity="0.9"/>
<circle cx="817.67" cy="435.83" r="4.5" fill="#0f766e" fill-opacity="0.9"/>
<circle cx="822.56" cy="435.83" r="4.5" fill="#0f766e" fill-opacity="0.9"/>
<circle cx="827.44" cy="435.83" r="4.5" fill="#0f766e" fill-opacity="0.9"/>
<circle cx="832.33" cy="435.83" r="4.5" fill="#0f766e" fill-opacity="0.9"/>
<circle cx="837.21" cy="435.83" r="4.5" fill="#0f766e" fill-opacity="0.9"/>
<circle cx="842.09" cy="435.83" r="4.5" fill="#0f766e" fill-opacity="0.9"/>
<circle cx="846.98" cy="435.83" r="4.5" fill="#0f766e" fill-opacity="0.9"/>
<circle cx="851.86" cy="435.83" r="4.5" fill="#0f766e" fill-opacity="0.9"/>
<circle cx="856.74" cy="435.83" r="4.5" fill="#0f766e" fill-opacity="0.9"/>
<circle cx="861.63" cy="435.83" r="4.5" fill="#0f766e" fill-opacity="0.9"/>
<circle cx="866.51" cy="435.83" r="4.5" fill="#0f766e" fill-opacity="0.9"/>
<circle cx="871.40" cy="435.83" r="4.5" fill="#0f766e" fill-opacity="0.9"/>
<circle cx="876.28" cy="435.83" r="4.5" fill="#0f766e" fill-opacity="0.9"/>
<circle cx="881.16" cy="435.83" r="4.5" fill="#0f766e" fill-opacity="0.9"/>
<circle cx="886.05" cy="435.83" r="4.5" fill="#0f766e" fill-opacity="0.9"/>
<circle cx="890.93" cy="435.83" r="4.5" fill="#0f766e" fill-opacity="0.9"/>
<circle cx="895.81" cy="435.83" r="4.5" fill="#0f766e" fill-opacity="0.9"/>
<circle cx="900.70" cy="435.83" r="4.5" fill="#0f766e" fill-opacity="0.9"/>
<circle cx="905.58" cy="435.83" r="4.5" fill="#0f766e" fill-opacity="0.9"/>
<circle cx="910.47" cy="435.83" r="4.5" fill="#0f766e" fill-opacity="0.9"/>
<circle cx="915.35" cy="435.83" r="4.5" fill="#0f766e" fill-opacity="0.9"/>
<circle cx="920.23" cy="435.83" r="4.5" fill="#0f766e" fill-opacity="0.9"/>
<circle cx="925.12" cy="435.83" r="4.5" fill="#0f766e" fill-opacity="0.9"/>
<circle cx="930.00" cy="435.83" r="4.5" fill="#0f766e" fill-opacity="0.9"/>
<rect x="90" y="32" width="18" height="6" fill="#0f766e"/>
<text x="114" y="38" font-size="13" fill="#333333">pretrain</text>
</svg>